<svg xmlns="http://www.w3.org/2000/svg">
<defs>
<font id="AptosDisplay-BoldItalic" horiz-adv-x="0" >
  <font-face 
    font-family="Aptos Display"
    font-weight="700"
    font-style="italic"
    font-stretch="normal"
    units-per-em="2048"
    panose-1="2 11 0 4 2 2 2 9 2 4"
    ascent="1638"
    descent="-410"
    x-height="976"
    cap-height="1346"
    bbox="-1064 -563 2552 2068"
    underline-thickness="50"
    underline-position="-125"
    slope="-12"
    unicode-range="U+000D-FDFC"
  />
<missing-glyph horiz-adv-x="965" 
d="M0 0v1354h965v-1354h-965zM471 222q-50 0 -82 30.5t-32 76.5q0 49 32 79t82 30q51 0 82.5 -30t31.5 -79q0 -46 -31.5 -76.5t-82.5 -30.5zM84 84h796v1183h-796v-1183zM387 536q-6 86 19 134t86 91q55 38 80.5 67t25.5 73q0 43 -28.5 70t-90.5 27t-95 -33t-33 -90h-181
q0 127 84 196.5t225 69.5q140 0 225.5 -63.5t85.5 -176.5q0 -84 -41.5 -133t-112.5 -98q-47 -32 -64 -60.5t-22 -73.5h-163z" />
    <glyph glyph-name="uniFB01" unicode="fi" horiz-adv-x="1143" 
d="M62 0l165 772h-162l44 204h162l7 33q21 91 48.5 155.5t73 104.5t120 58.5t186.5 18.5h115l-41 -192h-88q-76 0 -103.5 -33t-45.5 -114l-7 -31h208l-44 -204h-208l-165 -772h-265zM662 0l207 976h265l-206 -976h-266zM1046 1103q-73 0 -112 38.5t-39 91.5q0 54 39 91.5
t112 37.5q72 0 110.5 -37.5t38.5 -91.5q0 -53 -38.5 -91.5t-110.5 -38.5z" />
    <glyph glyph-name="uniFB02" unicode="fl" horiz-adv-x="1223" 
d="M62 0l165 772h-162l44 204h162l7 33q21 91 48.5 155.5t73 104.5t120 58.5t186.5 18.5h115l-41 -192h-88q-76 0 -103.5 -33t-45.5 -114l-7 -31h208l-44 -204h-208l-165 -772h-265zM1029 0q-144 0 -218.5 37.5t-91 118.5t11.5 211l207 979h265l-212 -990q-16 -78 3 -113.5
t86 -35.5h59l-44 -207h-66z" />
    <glyph glyph-name="f_f.liga" unicode="ff" horiz-adv-x="1310" 
d="M62 0l165 772h-162l44 204h162l7 33q21 91 48.5 155.5t73 104.5t120 58.5t186.5 18.5h115l-41 -192h-88q-76 0 -103.5 -33t-45.5 -114l-7 -31h208l-44 -204h-208l-165 -772h-265zM721 0l165 772h-162l44 204h162l7 33q21 91 48.5 155.5t73 104.5t120 58.5t186.5 18.5h115
l-41 -192h-88q-76 0 -103.5 -33t-45.5 -114l-7 -31h208l-44 -204h-208l-165 -772h-265z" />
    <glyph glyph-name="uniFDFC" unicode="&#xfdfc;" horiz-adv-x="2008" arabic-form="isolated" 
d="M391 86q-167 0 -246.5 83.5t-79.5 233.5q0 46 8.5 95.5t23.5 93.5l201 -1q-9 -38 -16 -85t-7 -91q0 -68 31 -99t97 -31q112 0 166 56.5t54 191.5v623h225v-636q0 -224 -115 -329t-342 -105zM918 -30q-39 0 -66 27.5t-27 67.5t27 67.5t67 27.5q39 0 67 -27.5t28 -67.5
t-28 -67.5t-68 -27.5zM1183 -30q-40 0 -68 27.5t-28 67.5t28 67.5t68 27.5q39 0 66 -27.5t27 -67.5t-26.5 -67.5t-66.5 -27.5zM1437 -10v196h21q112 0 170.5 39t58.5 127q0 56 -11 116t-35 142h205q23 -74 36 -135.5t13 -135.5q0 -172 -104 -260.5t-331 -88.5h-23zM1257 221
q-154 0 -232 78t-78 235v622h225v-622q0 -58 21.5 -86.5t69.5 -28.5q46 0 73 20.5t27 68.5q0 39 -5.5 82t-19.5 100h201q14 -54 23 -100.5t9 -98.5q0 -124 -76 -197t-238 -73z" />
    <glyph glyph-name=".notdef" horiz-adv-x="965" 
d="M0 0v1354h965v-1354h-965zM471 222q-50 0 -82 30.5t-32 76.5q0 49 32 79t82 30q51 0 82.5 -30t31.5 -79q0 -46 -31.5 -76.5t-82.5 -30.5zM84 84h796v1183h-796v-1183zM387 536q-6 86 19 134t86 91q55 38 80.5 67t25.5 73q0 43 -28.5 70t-90.5 27t-95 -33t-33 -90h-181
q0 127 84 196.5t225 69.5q140 0 225.5 -63.5t85.5 -176.5q0 -84 -41.5 -133t-112.5 -98q-47 -32 -64 -60.5t-22 -73.5h-163z" />
    <glyph glyph-name=".null" 
 />
    <glyph glyph-name="uni000D" unicode="&#xd;" 
 />
    <glyph glyph-name="space" unicode=" " horiz-adv-x="395" 
 />
    <glyph glyph-name="exclam" unicode="!" horiz-adv-x="535" 
d="M187 457q1 132 13 273.5t43 289.5l70 326h273l-70 -326q-23 -112 -55.5 -214.5t-66 -191t-63.5 -157.5h-144zM196 -14q-77 0 -123.5 47.5t-46.5 115.5q0 73 46.5 117.5t123.5 44.5q75 0 122 -44.5t47 -117.5q0 -68 -47 -115.5t-122 -47.5z" />
    <glyph glyph-name="quotedbl" unicode="&#x22;" horiz-adv-x="828" 
d="M600 830q5 99 13.5 186.5t30.5 191.5l28 138h234l-29 -138q-24 -108 -52.5 -194t-64.5 -184h-160zM214 830q4 95 13 183.5t32 194.5l28 138h232l-30 -138q-23 -108 -51 -194t-64 -184h-160z" />
    <glyph glyph-name="numbersign" unicode="#" horiz-adv-x="1149" 
d="M94 0l130 375h-207l36 166h232l79 233h-206l35 165h230l130 371h182l-131 -371h215l131 371h183l-132 -371h200l-34 -165h-224l-81 -233h201l-37 -166h-224l-131 -375h-182l131 375h-214l-130 -375h-182zM466 541h214l81 233h-214z" />
    <glyph glyph-name="dollar" unicode="$" horiz-adv-x="1106" 
d="M512 -18q-148 0 -264 44t-177 136.5t-47 237.5h258q-6 -80 23.5 -128.5t88.5 -69.5t145 -21q61 0 109 14.5t79.5 47t41.5 87.5q16 88 -34.5 142.5t-201.5 105.5q-205 70 -292 182.5t-52 274.5q32 146 160 219.5t325 73.5q132 0 235.5 -42t159 -126t38.5 -208h-258
q11 90 -43 136t-157 46q-98 0 -150 -32t-64 -89q-8 -45 10.5 -80.5t74 -67.5t158.5 -68q201 -71 288 -187t49 -302q-34 -174 -164 -250t-339 -76zM334 -217l374 1752h122l-374 -1752h-122z" />
    <glyph glyph-name="percent" unicode="%" horiz-adv-x="1889" 
d="M465 505q-108 0 -181 54.5t-99.5 154t2.5 237.5q25 109 79 194t135 134t185 49q106 0 177.5 -54.5t98 -154.5t-2.5 -236q-24 -109 -77.5 -194.5t-133.5 -134.5t-183 -49zM478 679q47 0 82 30.5t59.5 82.5t38.5 117q17 73 13 128.5t-29 85.5t-72 30t-83.5 -29.5t-61 -79.5
t-37.5 -113q-16 -76 -11.5 -133t29.5 -88t72 -31zM1376 -18q-107 0 -180 54t-100 154t3 237q24 110 78.5 195t135.5 134t185 49q107 0 178.5 -54.5t98.5 -154.5t-3 -236q-23 -110 -77.5 -195.5t-135 -134t-183.5 -48.5zM1391 155q46 0 82 30.5t60.5 82.5t37.5 117
q15 74 11 128.5t-28.5 85.5t-72.5 31q-47 0 -83 -29.5t-61 -80.5t-37 -113q-16 -76 -11.5 -132.5t29.5 -88t73 -31.5zM342 0l1073 1311h204l-1071 -1311h-206z" />
    <glyph glyph-name="ampersand" unicode="&#x26;" horiz-adv-x="1359" 
d="M499 -17q-143 0 -250 58.5t-156.5 162t-20.5 236.5q23 104 93.5 173t174 120.5t223.5 101.5h20q106 40 183.5 88t91.5 120q11 53 -17 87.5t-87 34.5q-54 0 -89 -28t-45 -73q-14 -53 6.5 -119.5t79.5 -151.5l550 -793h-306l-455 664q-47 69 -83 141.5t-50 147.5t1 151
q10 48 36.5 94t73 83.5t116.5 60t168 22.5q126 0 207.5 -46t114.5 -124t11 -175q-19 -89 -75.5 -146t-134 -97.5t-158.5 -78.5h-21q-96 -42 -171 -80.5t-122 -84t-61 -110.5q-19 -85 30 -150.5t167 -65.5q91 0 161.5 32t134.5 94l23 -1q66 57 116 143t78 203h271
q-39 -176 -128.5 -307t-210.5 -217l-14 3q-69 -54 -138 -92.5t-150 -59.5t-188 -21z" />
    <glyph glyph-name="quotesingle" unicode="'" horiz-adv-x="475" 
d="M230 829q2 64 6.5 123.5t13.5 122t24 133.5l29 138h233l-29 -138q-15 -73 -33 -134.5t-39 -120t-45 -124.5h-160z" />
    <glyph glyph-name="parenleft" unicode="(" horiz-adv-x="690" 
d="M258 -350q-57 141 -91 280.5t-37.5 288t29.5 317.5q43 217 138 419.5t251 398.5h224q-138 -196 -231.5 -415.5t-135.5 -442.5q-28 -149 -27.5 -295.5t26 -285.5t70.5 -265h-216z" />
    <glyph glyph-name="parenright" unicode=")" horiz-adv-x="690" 
d="M-76 -350q140 198 232.5 417t134.5 442q28 149 27 295t-26 285t-71 265h218q58 -140 90.5 -279.5t36 -288t-29.5 -316.5q-42 -219 -137 -421.5t-251 -398.5h-224z" />
    <glyph glyph-name="asterisk" unicode="*" horiz-adv-x="879" 
d="M310 663l-110 126l209 187l-243 126l85 146l232 -134l55 256l166 -37l-54 -256l267 30l19 -168l-272 -19l119 -252l-157 -72l-115 261z" />
    <glyph glyph-name="plus" unicode="+" horiz-adv-x="1106" 
d="M119 773h937v-210h-937v210zM481 198v939h212v-939h-212z" />
    <glyph glyph-name="comma" unicode="," horiz-adv-x="536" 
d="M-43 -310l-9 131q74 22 127.5 65.5t78.5 113.5l12 -14q-77 2 -114 54.5t-20 132.5q14 62 57 100t112 38q89 0 135 -67t19 -193q-24 -115 -89 -189t-147.5 -114.5t-161.5 -57.5z" />
    <glyph glyph-name="hyphen" unicode="-" horiz-adv-x="746" 
d="M83 426l48 225h554l-48 -225h-554z" />
    <glyph glyph-name="period" unicode="." horiz-adv-x="535" 
d="M198 -14q-77 0 -125 47.5t-48 115.5q0 74 48 118t125 44q76 0 122 -44t46 -118q0 -68 -46 -115.5t-122 -47.5z" />
    <glyph glyph-name="slash" unicode="/" horiz-adv-x="792" 
d="M-69 0l774 1346h238l-775 -1346h-237z" />
    <glyph glyph-name="zero" unicode="0" horiz-adv-x="1106" 
d="M500 -17q-112 0 -194 47t-130.5 137t-60 219.5t15.5 293.5q36 211 110.5 355.5t185.5 218.5t252 73q115 0 196 -47t128 -136.5t57.5 -219.5t-16.5 -297q-35 -208 -108.5 -351.5t-182.5 -218t-253 -74.5zM520 215q50 0 90 33t71 91.5t53.5 137.5t38.5 172q15 93 18 173.5
t-9.5 142t-42.5 96t-81 34.5t-92 -32.5t-72 -91.5t-53.5 -137t-37.5 -171q-16 -93 -19 -174.5t10 -142.5t43.5 -96t82.5 -35z" />
    <glyph glyph-name="one" unicode="1" horiz-adv-x="1106" 
d="M402 0l212 1001q-40 -37 -94.5 -70.5t-127 -59t-165.5 -38.5l53 246q96 20 172.5 54.5t139 81t114.5 100.5h251l-278 -1315h-277z" />
    <glyph glyph-name="two" unicode="2" horiz-adv-x="1106" 
d="M-41 0l39 184l581 435q77 59 127 106t78 90t36 89q15 81 -21.5 136t-137.5 55q-106 0 -166 -57.5t-80 -168.5h-255q37 227 168.5 343t358.5 116q148 0 248 -56.5t142 -156.5t15 -230q-18 -90 -72.5 -162.5t-136.5 -139t-183 -138.5l-303 -220h593l-49 -225h-982z" />
    <glyph glyph-name="three" unicode="3" horiz-adv-x="1106" 
d="M497 -17q-228 0 -351.5 106t-101.5 321h251q-5 -99 46 -154.5t166 -55.5q102 0 161 42t74 132q17 104 -43.5 155.5t-158.5 51.5h-83l32 208h88q104 0 170 43.5t78 118.5q11 74 -33.5 116.5t-134.5 42.5q-100 0 -159.5 -47.5t-70.5 -131.5h-250q32 200 160 298.5t338 98.5
q124 0 224 -43.5t152 -127t31 -205.5q-15 -105 -92 -172.5t-196 -90.5q74 -15 128 -62t79 -121.5t8 -172.5q-29 -170 -161 -260t-351 -90z" />
    <glyph glyph-name="four" unicode="4" horiz-adv-x="1106" 
d="M525 0l50 241h-597l48 225l776 847h265l-182 -854h175l-47 -218h-175l-50 -241h-263zM265 459h359l113 519z" />
    <glyph glyph-name="five" unicode="5" horiz-adv-x="1106" 
d="M504 -18q-144 0 -252 44t-163 134.5t-43 227.5h255q-5 -90 52.5 -139.5t159.5 -49.5q105 0 168 58.5t80 167.5q20 125 -33 180.5t-148 55.5q-76 0 -131.5 -24t-84.5 -54h-244l172 727h805l-47 -226h-579l-70 -293q39 31 102.5 55t154.5 24q79 0 154 -27t132 -84
t81.5 -147.5t3.5 -218.5q-35 -213 -171 -312t-354 -99z" />
    <glyph glyph-name="six" unicode="6" horiz-adv-x="1106" 
d="M550 -17q-115 0 -210.5 43.5t-160 134t-86.5 229.5t9 330q35 210 120.5 344t208.5 199t268 65q128 0 218 -46t138 -127.5t51 -190.5h-259q-8 72 -50.5 109t-113.5 37q-118 0 -201.5 -112.5t-116.5 -331.5l-9 -61q-22 -142 1.5 -231.5t77 -131.5t121.5 -42q88 0 139.5 56
t62.5 140q17 100 -30.5 159t-132.5 59q-95 0 -178.5 -52.5t-138.5 -134.5l-3 188q45 58 103 106t132.5 77t168.5 29q112 0 199 -54t129 -156t20 -246q-19 -118 -81 -205.5t-162 -135t-234 -47.5z" />
    <glyph glyph-name="seven" unicode="7" horiz-adv-x="1106" 
d="M117 0l772 1071h-703l51 239h982l-45 -217l-762 -1093h-295z" />
    <glyph glyph-name="eight" unicode="8" horiz-adv-x="1106" 
d="M500 -18q-103 0 -194.5 27.5t-157.5 82.5t-93.5 139.5t-3.5 198.5q23 111 111 182.5t207 95.5q-45 19 -88.5 62.5t-66 110t-5.5 155.5q29 153 155.5 222.5t309.5 69.5q124 0 221 -46.5t145.5 -135t28.5 -211.5q-17 -104 -88 -165.5t-169 -85.5q64 -20 114 -69t74 -121.5
t8 -164.5q-20 -123 -89 -199.5t-176.5 -112t-242.5 -35.5zM515 195q92 0 152 42t74 130q12 71 -12 119t-70.5 73t-103.5 25q-89 0 -153.5 -41.5t-79.5 -132.5q-18 -103 41 -159t152 -56zM624 787q83 0 134.5 43t61.5 114q13 88 -37.5 136t-130.5 48t-131.5 -38.5
t-62.5 -112.5q-9 -57 11 -99.5t60.5 -66.5t94.5 -24z" />
    <glyph glyph-name="nine" unicode="9" horiz-adv-x="1106" 
d="M487 -17q-134 0 -225 45t-138 126.5t-51 190.5h259q7 -66 50 -105.5t116 -39.5q71 0 133 45.5t108 141t70 244.5l17 102q20 128 -4.5 211.5t-77 124.5t-116.5 41q-90 0 -143.5 -56t-67.5 -143q-17 -103 30.5 -159.5t135.5 -56.5q105 0 183 54.5t133 135.5l1 -191
q-45 -56 -101 -104.5t-130 -78t-174 -29.5q-115 0 -202.5 56t-127.5 158t-17 238q23 126 90 214t170 134t233 46q112 0 205 -42.5t155 -131.5t83 -227.5t-10 -331.5q-34 -210 -118 -345.5t-204.5 -201t-264.5 -65.5z" />
    <glyph glyph-name="colon" unicode=":" horiz-adv-x="537" 
d="M340 650q-77 0 -125 47.5t-48 115.5q0 74 48 118.5t125 44.5q75 0 121.5 -44.5t46.5 -118.5q0 -68 -46.5 -115.5t-121.5 -47.5zM198 -14q-77 0 -125 47.5t-48 115.5q0 74 48 118t125 44q76 0 122 -44t46 -118q0 -68 -46 -115.5t-122 -47.5z" />
    <glyph glyph-name="semicolon" unicode=";" horiz-adv-x="542" 
d="M-37 -310l-9 131q74 22 127.5 65.5t78.5 113.5l11 -14q-77 2 -113.5 54.5t-19.5 132.5q13 62 56.5 100t111.5 38q90 0 136 -67t19 -193q-25 -115 -89.5 -189t-147.5 -114.5t-161 -57.5zM341 650q-77 0 -124.5 47.5t-47.5 115.5q0 74 47.5 118.5t124.5 44.5
q75 0 122 -44.5t47 -118.5q0 -68 -47 -115.5t-122 -47.5z" />
    <glyph glyph-name="less" unicode="&#x3c;" horiz-adv-x="1106" 
d="M123 800l937 372v-210l-937 -353v191zM123 535v193l937 -367v-212z" />
    <glyph glyph-name="equal" unicode="=" horiz-adv-x="1106" 
d="M113 363v211h937v-211h-937zM113 763v210h937v-210h-937z" />
    <glyph glyph-name="greater" unicode="&#x3e;" horiz-adv-x="1106" 
d="M1047 800v-191l-937 353v210zM1047 535l-937 -386v212l937 367v-193z" />
    <glyph glyph-name="question" unicode="?" horiz-adv-x="1030" 
d="M370 458q12 84 38.5 142t72 102t116.5 88q63 38 105 68.5t66.5 61.5t32.5 69q9 41 -4.5 76.5t-51 58t-101.5 22.5q-87 0 -147.5 -44t-72.5 -137h-271q30 204 165 299.5t355 95.5q141 0 240.5 -51t144.5 -141.5t22 -207.5q-14 -70 -50 -121t-92 -93.5t-132 -87.5
q-61 -35 -97 -63t-56.5 -59.5t-37.5 -77.5h-245zM453 -14q-77 0 -124.5 47.5t-47.5 115.5q0 73 47.5 117.5t124.5 44.5q75 0 122 -44.5t47 -117.5q0 -68 -47 -115.5t-122 -47.5z" />
    <glyph glyph-name="at" unicode="@" horiz-adv-x="1803" 
d="M786 -215q-183 0 -326 59t-234.5 170.5t-121.5 271.5t13 361q47 223 177.5 383.5t326 247t438.5 86.5q192 0 334 -63t230 -173.5t118 -254t-4 -304.5q-25 -123 -81.5 -212t-143.5 -136.5t-204 -47.5q-131 0 -199.5 66.5t-40.5 204.5h-14l111 516h236l-102 -480
q-14 -69 3.5 -94.5t60.5 -25.5q47 0 82 27.5t59.5 79t39.5 121.5q36 177 -11 311t-170.5 208t-318.5 74q-190 0 -344 -67t-257 -192t-140 -300q-46 -219 6 -364t183 -217.5t322 -72.5q104 0 203 18.5t179 51.5l-40 -193q-80 -29 -174 -44.5t-196 -15.5zM777 173
q-104 0 -177 49t-101.5 142.5t-0.5 225.5q24 114 88.5 200.5t156.5 134.5t200 48q109 -1 171 -66t38 -180l-70 -347q-20 -55 -61 -102t-102 -76t-142 -29zM868 360q65 0 107.5 31t68.5 80t37 101q13 54 7.5 102.5t-36 79t-95.5 30.5q-94 0 -145 -65.5t-68 -145.5
q-12 -55 -7 -103.5t35.5 -79t95.5 -30.5z" />
    <glyph glyph-name="A" unicode="A" horiz-adv-x="1250" 
d="M-119 0l772 1346h294l199 -1346h-285l-33 296h-486l-162 -296h-299zM460 529h350l-62 539z" />
    <glyph glyph-name="B" unicode="B" horiz-adv-x="1215" 
d="M29 0l287 1346l407 1q152 1 252.5 -50t141.5 -141.5t15 -209.5q-20 -93 -92 -153t-168 -82q73 -21 129.5 -70.5t82.5 -124t6 -173.5q-24 -118 -102 -194t-201 -112.5t-285 -36.5h-473zM361 233h178q106 0 176.5 35t90.5 122q21 100 -35.5 148t-157.5 48h-179zM480 801
h135q105 0 165 39.5t75 111.5q17 82 -30.5 124.5t-132.5 42.5h-143z" />
    <glyph glyph-name="C" unicode="C" horiz-adv-x="1391" 
d="M665 -18q-190 0 -322.5 87t-190 250t-20.5 393q33 206 128.5 352t244.5 223t341 77q156 0 272.5 -58t179.5 -165t59 -255h-287q0 78 -32.5 131.5t-88 82t-126.5 28.5q-122 0 -206.5 -59t-133.5 -160.5t-70 -228.5q-21 -133 -0.5 -238t87.5 -165t186 -60q125 0 208.5 66.5
t114.5 207.5h287q-55 -264 -216.5 -386.5t-414.5 -122.5z" />
    <glyph glyph-name="D" unicode="D" horiz-adv-x="1393" 
d="M29 0l287 1346h423q164 0 288.5 -55.5t202 -157.5t101 -243t-12.5 -311q-65 -304 -270.5 -441.5t-539.5 -137.5h-479zM361 234h156q147 0 251.5 38t170 124t96.5 230q32 145 4.5 254.5t-109 170.5t-216.5 61h-166z" />
    <glyph glyph-name="E" unicode="E" horiz-adv-x="1125" 
d="M29 0l287 1346h904l-49 -233h-623l-68 -313h564l-47 -225h-564l-74 -342h623l-49 -233h-904z" />
    <glyph glyph-name="F" unicode="F" horiz-adv-x="1058" 
d="M29 0l287 1346h880l-48 -233h-600l-68 -315h538l-48 -223h-537l-123 -575h-281z" />
    <glyph glyph-name="G" unicode="G" horiz-adv-x="1402" 
d="M662 -19q-190 0 -322.5 88t-188.5 250.5t-20 384.5q31 196 123 345t243.5 232.5t360.5 83.5q98 0 188 -28t161 -85t113 -143.5t41 -203.5h-289q-2 64 -28 115t-79.5 80.5t-137.5 29.5q-126 0 -211 -63t-134 -165.5t-69 -221.5q-20 -126 -2.5 -231.5t85 -169.5t194.5 -64
q91 0 158 33.5t111.5 94.5t64.5 143h-313l37 224h604l-31 -151q-24 -125 -71.5 -230.5t-125 -183.5t-191.5 -121t-271 -43z" />
    <glyph glyph-name="H" unicode="H" horiz-adv-x="1398" 
d="M29 0l287 1346h281l-111 -526h570l112 526h280l-287 -1346h-280l121 572h-570l-122 -572h-281z" />
    <glyph glyph-name="I" unicode="I" horiz-adv-x="547" 
d="M29 0l287 1346h281l-287 -1346h-281z" />
    <glyph glyph-name="J" unicode="J" horiz-adv-x="713" 
d="M-84 -16l51 239h93q104 0 164.5 54t87.5 178l189 891h275l-194 -917q-33 -155 -96.5 -253t-168 -145t-262.5 -47h-139z" />
    <glyph glyph-name="K" unicode="K" horiz-adv-x="1235" 
d="M29 0l287 1346h281l-135 -635l608 635h321l-643 -656l390 -690h-305l-375 689l-147 -689h-282z" />
    <glyph glyph-name="L" unicode="L" horiz-adv-x="1007" 
d="M29 0l287 1346h281l-235 -1099h569l-51 -247h-851z" />
    <glyph glyph-name="M" unicode="M" horiz-adv-x="1626" 
d="M29 0l287 1346h308l230 -624l492 624h330l-287 -1346h-279l208 974l-427 -544h-176l-205 544l-209 -974h-272z" />
    <glyph glyph-name="N" unicode="N" horiz-adv-x="1425" 
d="M29 0l287 1346h274l425 -940l196 940h264l-286 -1346h-275l-423 938l-199 -938h-263z" />
    <glyph glyph-name="O" unicode="O" horiz-adv-x="1443" 
d="M660 -19q-200 0 -331.5 93.5t-183.5 260t-12 383.5q36 203 128.5 348t240.5 222.5t351 77.5q197 0 327.5 -93.5t183 -260.5t12.5 -390q-36 -199 -126.5 -343t-237.5 -221t-352 -77zM680 214q124 0 208.5 58.5t135 160.5t72.5 232q21 119 1.5 226t-84.5 173.5t-185 66.5
q-123 0 -207 -58t-134.5 -158.5t-72.5 -229.5q-21 -121 -2.5 -229t84 -175t184.5 -67z" />
    <glyph glyph-name="P" unicode="P" horiz-adv-x="1198" 
d="M29 0l287 1346h408q166 0 280 -59t161.5 -171t12.5 -272q-28 -137 -109 -217t-196.5 -114t-249.5 -34h-210l-102 -479h-282zM460 705h179q95 0 165.5 43.5t91.5 144.5q24 110 -29.5 168t-157.5 58h-160z" />
    <glyph glyph-name="Q" unicode="Q" horiz-adv-x="1443" 
d="M1157 -332q-136 0 -230.5 25.5t-158 71t-106.5 105.5t-78 131l172 110q46 -71 105 -115.5t147 -65.5t220 -21h47l-59 -241h-59zM660 -19q-200 0 -331.5 93.5t-183.5 260t-12 383.5q36 203 128.5 348t240.5 222.5t351 77.5q197 0 327.5 -93.5t183 -260.5t12.5 -390
q-36 -199 -126.5 -343t-237.5 -221t-352 -77zM680 214q124 0 208.5 58.5t135 160.5t72.5 232q21 119 1.5 226t-84.5 173.5t-185 66.5q-123 0 -207 -58t-134.5 -158.5t-72.5 -229.5q-21 -121 -2.5 -229t84 -175t184.5 -67z" />
    <glyph glyph-name="R" unicode="R" horiz-adv-x="1241" 
d="M29 0l287 1346h480q146 0 250 -50t150.5 -146t17.5 -235q-26 -117 -114.5 -190t-237.5 -97q64 -12 105 -48t65.5 -100.5t36.5 -164.5l41 -315h-283l-29 260q-12 103 -30 158t-53 76t-96 21h-198l-110 -515h-282zM470 747h211q106 0 170 46.5t80 126.5q21 98 -26.5 148.5
t-137.5 50.5h-219z" />
    <glyph glyph-name="S" unicode="S" horiz-adv-x="1175" 
d="M542 -17q-153 0 -265 45t-173.5 139.5t-61.5 244.5h287q3 -107 61.5 -155.5t173.5 -48.5q96 0 155.5 34.5t69.5 106.5q8 53 -11 93.5t-75.5 75t-162.5 69.5q-115 37 -200.5 98t-125 149.5t-20.5 209.5q19 110 86.5 181.5t175.5 106.5t245 33q135 -1 241 -42.5t167 -127.5
t63 -221h-288q-3 85 -57.5 129.5t-147.5 44.5q-81 0 -137.5 -31t-66.5 -95q-6 -40 11 -75.5t72 -69t165 -71.5q132 -44 217 -105.5t121 -149.5t16 -214q-19 -126 -90 -204t-184 -114t-261 -36z" />
    <glyph glyph-name="T" unicode="T" horiz-adv-x="1022" 
d="M267 0l235 1112h-357l51 234h998l-51 -234h-360l-236 -1112h-280z" />
    <glyph glyph-name="U" unicode="U" horiz-adv-x="1371" 
d="M628 -18q-194 0 -316.5 72t-166 210t-1.5 335l158 747h288l-161 -762q-26 -123 -7.5 -205t77 -123t154.5 -41q139 0 214.5 80.5t110.5 246.5l168 804h288l-171 -805q-41 -191 -116.5 -315t-201 -184t-317.5 -60z" />
    <glyph glyph-name="V" unicode="V" horiz-adv-x="1230" 
d="M342 0l-173 1346h291l102 -1059l553 1059h311l-751 -1346h-333z" />
    <glyph glyph-name="W" unicode="W" horiz-adv-x="1885" 
d="M283 0l-99 1346h283l27 -1012l484 1012h283l54 -1012l458 1012h294l-674 -1346h-291l-50 1005l-474 -1005h-295z" />
    <glyph glyph-name="X" unicode="X" horiz-adv-x="1212" 
d="M-108 0l602 703l-278 643h305l162 -440l353 440h324l-551 -644l299 -702h-307l-181 475l-393 -475h-335z" />
    <glyph glyph-name="Y" unicode="Y" horiz-adv-x="1172" 
d="M338 0l109 503l-264 843h298l154 -585l397 585h322l-620 -843l-108 -503h-288z" />
    <glyph glyph-name="Z" unicode="Z" horiz-adv-x="1114" 
d="M-59 0l46 222l826 890h-584l50 234h929l-46 -210l-834 -902h688l-50 -234h-1025z" />
    <glyph glyph-name="bracketleft" unicode="[" horiz-adv-x="690" 
d="M-22 -360l367 1714h494l-49 -223h-246l-268 -1267h245l-48 -224h-495z" />
    <glyph glyph-name="backslash" unicode="\" horiz-adv-x="773" 
d="M426 -1l-213 1345l209 2l213 -1346z" />
    <glyph glyph-name="bracketright" unicode="]" horiz-adv-x="690" 
d="M-139 -359l47 224h245l266 1265h-245l47 224h495l-361 -1713h-494z" />
    <glyph glyph-name="asciicircum" unicode="^" horiz-adv-x="1106" 
d="M159 780l334 566h207l334 -566h-239l-199 353l-198 -353h-239z" />
    <glyph glyph-name="underscore" unicode="_" horiz-adv-x="942" 
d="M-153 -236l21 95h942l-21 -95h-942z" />
    <glyph glyph-name="grave" unicode="`" horiz-adv-x="1130" 
d="M492 1106l-246 276h276l150 -276h-180z" />
    <glyph glyph-name="a" unicode="a" horiz-adv-x="1048" 
d="M298 -18q-92 0 -159 38.5t-96 112.5t-10 180q18 95 73.5 151.5t143 83.5t203 36.5t254.5 12.5l9 46q12 60 -2.5 97t-46.5 54t-74 17q-71 0 -125 -36.5t-68 -118.5h-248q26 177 146.5 256.5t308.5 79.5q85 0 159.5 -21.5t127 -70t72.5 -127t-4 -192.5l-123 -581h-244
l16 125q-64 -67 -135.5 -105t-177.5 -38zM394 165q54 0 101 24t84.5 58.5t64.5 64.5l32 139q-195 -1 -282 -32t-103 -116q-11 -64 18 -101t85 -37z" />
    <glyph glyph-name="b" unicode="b" horiz-adv-x="1111" 
d="M586 -18q-94 0 -166 40t-116 113l-38 -135h-254l287 1346h263l-106 -503q50 63 120.5 106t171.5 43q109 0 186 -65.5t105.5 -190.5t-9.5 -303q-50 -228 -167 -339.5t-277 -111.5zM550 184q84 0 136 71t82 215q35 161 -1 240.5t-116 79.5q-55 0 -101 -24t-81.5 -62.5
t-61.5 -79.5l-57 -283q24 -65 77.5 -111t122.5 -46z" />
    <glyph glyph-name="c" unicode="c" horiz-adv-x="1048" 
d="M483 -18q-134 0 -236 61t-149.5 181t-19.5 298q39 235 174.5 352.5t340.5 117.5q124 0 214.5 -46t137 -130t38.5 -197h-257q2 45 -13 86.5t-48.5 68t-90.5 26.5q-101 0 -158.5 -82.5t-79.5 -218.5q-25 -159 22 -241.5t145 -82.5q79 0 128 49t64 141h257
q-37 -196 -155.5 -289.5t-313.5 -93.5z" />
    <glyph glyph-name="d" unicode="d" horiz-adv-x="1111" 
d="M361 -18q-108 0 -184.5 64.5t-104.5 188.5t9 301q47 229 165 342.5t276 113.5q97 0 168 -42t115 -117l110 513h262l-286 -1347l-250 1l14 130q-52 -65 -123 -106.5t-171 -41.5zM458 183q55 0 101.5 25t83 63.5t60.5 79.5l56 278q-15 44 -44.5 81t-69 58.5t-86.5 21.5
q-85 0 -139 -73.5t-84 -215.5q-22 -104 -12.5 -175t45.5 -107t89 -36z" />
    <glyph glyph-name="e" unicode="e" horiz-adv-x="1060" 
d="M481 -17q-149 0 -248 67t-139 188t-15 286q23 146 89 251t172.5 161t247.5 56q145 0 241.5 -69t135 -194t7.5 -293h-645q-8 -69 4.5 -129t53 -96.5t115.5 -36.5q74 0 124.5 34.5t69.5 115.5h261q-43 -175 -161.5 -258t-312.5 -83zM358 604h376q7 65 -10.5 110t-55 69.5
t-89.5 24.5q-87 0 -145 -52.5t-76 -151.5z" />
    <glyph glyph-name="f" unicode="f" horiz-adv-x="651" 
d="M62 0l165 772h-162l44 204h162l7 33q21 91 48.5 155.5t73 104.5t120 58.5t186.5 18.5h115l-41 -192h-88q-76 0 -103.5 -33t-45.5 -114l-7 -31h208l-44 -204h-208l-165 -772h-265z" />
    <glyph glyph-name="g" unicode="g" horiz-adv-x="967" 
d="M339 -377q-164 0 -257.5 40t-127.5 102.5t-23 130.5q14 83 99.5 138t249.5 79l54 94h138q231 0 325 -77t69 -217q-24 -134 -157.5 -212t-369.5 -78zM359 -211q122 0 181 34.5t66 83.5q5 33 -8.5 55.5t-51 34.5t-104.5 12h-175q-35 -15 -58 -42.5t-28 -63.5
q-6 -47 33.5 -80.5t144.5 -33.5zM268 23q-93 11 -148 42t-76.5 74t-13.5 87q8 54 56 93.5t136 71.5l129 -47q-53 -15 -81.5 -32.5t-31.5 -42.5q-4 -18 12.5 -32t62.5 -21.5t130 -8.5zM463 311q-132 0 -218 49t-121 131.5t-17 184.5q17 89 70 159.5t144.5 111.5t220.5 41
q200 0 289.5 -102.5t60.5 -259.5q-15 -85 -65.5 -157t-140 -115t-223.5 -43zM475 470q67 0 112.5 44t60.5 127q19 98 -20 143.5t-100 45.5q-68 0 -114 -45.5t-61 -126.5q-13 -64 3 -105.5t49 -62t70 -20.5zM811 832l-61 102q35 72 83 112t109 57t136 17l-34 -193
q-76 0 -135 -17t-98 -78z" />
    <glyph glyph-name="h" unicode="h" horiz-adv-x="1091" 
d="M12 0l287 1346h263l-112 -513q62 63 136.5 110t177.5 47q92 0 156.5 -45.5t89.5 -135t-4 -221.5l-124 -588h-265l126 590q21 96 -3 142t-87 46q-42 0 -83 -17.5t-79.5 -46t-75.5 -63.5l-140 -651h-263z" />
    <glyph glyph-name="i" unicode="i" horiz-adv-x="492" 
d="M11 0l207 976h265l-206 -976h-266zM395 1103q-73 0 -112 38.5t-39 91.5q0 54 39 91.5t112 37.5q72 0 110.5 -37.5t38.5 -91.5q0 -53 -38.5 -91.5t-110.5 -38.5z" />
    <glyph glyph-name="j" unicode="j" horiz-adv-x="492" 
d="M-249 -359l44 210h60q64 0 102 31t51 99l212 995h263l-213 -1009q-33 -150 -125 -238t-285 -88h-109zM396 1103q-73 0 -112 38.5t-39 91.5q0 54 39 91.5t112 37.5q72 0 110.5 -37.5t38.5 -91.5q0 -53 -38.5 -91.5t-110.5 -38.5z" />
    <glyph glyph-name="k" unicode="k" horiz-adv-x="1023" 
d="M12 0l287 1346h263l-175 -817l455 447h298l-488 -460l310 -516h-278l-299 515l-110 -515h-263z" />
    <glyph glyph-name="l" unicode="l" horiz-adv-x="572" 
d="M378 0q-144 0 -218.5 37.5t-91 118.5t11.5 211l207 979h265l-212 -990q-16 -78 3 -113.5t86 -35.5h59l-44 -207h-66z" />
    <glyph glyph-name="m" unicode="m" horiz-adv-x="1716" 
d="M13 0l207 976h257l-26 -142q57 62 128.5 109t175.5 47q97 0 165 -49.5t95.5 -138.5t2.5 -209l-126 -593h-265l125 586q21 92 -11 142t-94 50q-70 0 -126 -37t-105 -90l-139 -651h-264zM1242 0l126 586q20 92 -11.5 142t-93.5 50q-47 0 -88.5 -18t-79 -47.5t-73.5 -64.5
l-21 153q81 84 172.5 136.5t196.5 52.5q96 0 164.5 -49.5t97 -138.5t2.5 -209l-128 -593h-264z" />
    <glyph glyph-name="n" unicode="n" horiz-adv-x="1092" 
d="M13 0l207 976h257l-27 -143q58 63 131 110t182 47q91 0 156 -45t90 -135t-3 -225l-124 -585h-264l126 590q20 92 -3.5 140t-88.5 48t-125.5 -37t-110.5 -90l-139 -651h-264z" />
    <glyph glyph-name="o" unicode="o" horiz-adv-x="1085" 
d="M485 -18q-151 0 -255 67t-144.5 194t-2.5 306q46 215 180 329t337 114q155 0 258 -67.5t142 -195.5t1 -309q-45 -215 -179 -326.5t-337 -111.5zM502 174q103 0 157.5 79t80.5 203q21 97 13 174.5t-49 123.5t-122 46q-70 0 -117 -37.5t-76 -102t-46 -145.5
q-19 -94 -10 -171.5t50.5 -123.5t118.5 -46z" />
    <glyph glyph-name="p" unicode="p" horiz-adv-x="1111" 
d="M-64 -359l285 1335h253l-19 -137q51 65 122 107t172 42q108 0 185 -64.5t105.5 -188.5t-9.5 -302q-49 -228 -166.5 -339.5t-277.5 -111.5q-94 0 -166 40t-116 113l-104 -494h-264zM550 184q84 0 136 71t82 215q35 161 -1 240.5t-116 79.5q-82 0 -144 -52t-99 -114
l-58 -283q23 -66 77 -111.5t123 -45.5z" />
    <glyph glyph-name="q" unicode="q" horiz-adv-x="1108" 
d="M548 -359l107 489q-52 -65 -123 -106.5t-171 -41.5q-108 0 -184.5 64.5t-104.5 188.5t9 301q32 153 95.5 253.5t152 149.5t193.5 49q97 0 168 -40t115 -115l38 143h253l-285 -1335h-263zM458 183q82 0 143 50.5t98 111.5l60 284q-22 67 -76 111.5t-124 44.5
q-83 0 -134.5 -70t-81.5 -205q-23 -108 -13 -181t44 -109.5t84 -36.5z" />
    <glyph glyph-name="r" unicode="r" horiz-adv-x="702" 
d="M13 0l207 976h255l-32 -168q57 87 134 134t185 47h37l-47 -223h-24q-60 0 -116 -10.5t-105.5 -36t-90.5 -70.5l-139 -649h-264z" />
    <glyph glyph-name="s" unicode="s" horiz-adv-x="991" 
d="M444 -18q-127 0 -226 34.5t-152.5 106.5t-48.5 182h247q-1 -81 50.5 -115t136.5 -34q72 0 113.5 25.5t49.5 68.5q6 36 -8.5 62t-60 50t-130.5 52q-166 56 -236 139.5t-45 209.5q24 112 133 170.5t279 58.5q121 0 213 -37t142.5 -107t45.5 -167h-247q2 65 -39 100.5
t-126 35.5q-58 0 -94.5 -17.5t-44.5 -54.5q-10 -48 41 -79.5t189 -78.5q158 -53 215.5 -134.5t37.5 -201.5q-21 -127 -126.5 -198t-308.5 -71z" />
    <glyph glyph-name="t" unicode="t" horiz-adv-x="683" 
d="M462 0q-148 0 -225.5 41t-96.5 123t7 204l85 404h-162l45 204h162l49 230h263l-49 -230h215l-44 -204h-215l-87 -416q-15 -71 2.5 -110t87.5 -39h90l-41 -207h-86z" />
    <glyph glyph-name="u" unicode="u" horiz-adv-x="1092" 
d="M335 -13q-92 0 -158 49.5t-92.5 141.5t0.5 218l125 580h264l-125 -587q-19 -89 9.5 -139.5t89.5 -50.5q45 0 85 18.5t76.5 48t69.5 63.5l137 647h263l-207 -976h-257l28 147q-39 -42 -83.5 -78.5t-99.5 -59t-125 -22.5z" />
    <glyph glyph-name="v" unicode="v" horiz-adv-x="973" 
d="M232 0l-142 976h271l70 -729l385 729h274l-557 -976h-301z" />
    <glyph glyph-name="w" unicode="w" horiz-adv-x="1531" 
d="M193 0l-100 976h263l42 -689l335 689h278l45 -688l332 688h256l-515 -976h-271l-47 702l-348 -702h-270z" />
    <glyph glyph-name="x" unicode="x" horiz-adv-x="1001" 
d="M-101 0l513 566l99 63l295 347h277l-473 -529l-91 -61l-340 -386h-280zM651 0l-188 384l-51 64l-274 528h259l163 -346l58 -69l290 -561h-257z" />
    <glyph glyph-name="y" unicode="y" horiz-adv-x="973" 
d="M-86 -364l45 216h90q66 0 111 21.5t74 73.5l31 53l-179 976h267l97 -716l369 716h277l-599 -1047q-47 -84 -89 -140t-90 -89.5t-110.5 -48.5t-150.5 -15h-143z" />
    <glyph glyph-name="z" unicode="z" horiz-adv-x="921" 
d="M-44 0l41 192l568 580h-406l45 204h730l-39 -185l-573 -586h480l-44 -205h-802z" />
    <glyph glyph-name="braceleft" unicode="{" horiz-adv-x="690" 
d="M340 -361q-77 0 -136 32t-84.5 102.5t-1.5 185.5l49 235q18 80 5 123t-52 59.5t-100 16.5l45 205q61 0 107 18.5t76.5 60t44.5 109.5l59 282q22 104 66.5 166.5t108.5 91t141 28.5h169l-42 -190h-66q-56 0 -89.5 -37t-45.5 -95l-57 -270q-17 -81 -47 -133t-74.5 -81
t-104.5 -42q54 -18 84.5 -53.5t37.5 -90t-9 -130.5l-56 -264q-14 -67 5 -102.5t73 -35.5h67l-41 -191h-132z" />
    <glyph glyph-name="bar" unicode="|" horiz-adv-x="549" 
d="M203 -358v1704h211v-1704h-211z" />
    <glyph glyph-name="braceright" unicode="}" horiz-adv-x="690" 
d="M-144 -361l42 191h69q56 0 88 37t45 95l56 270q18 81 48 132.5t74.5 80t103.5 42.5q-53 17 -83 53t-37 91t8 129l55 266q13 62 -3.5 100t-73.5 38h-67l41 190h132q78 0 137 -32t83.5 -102t1.5 -185l-49 -235q-16 -80 -3.5 -123t50.5 -59.5t98 -16.5l-44 -205
q-59 0 -105.5 -18.5t-77.5 -59.5t-45 -111l-60 -282q-20 -103 -64.5 -166t-108 -91.5t-142.5 -28.5h-169z" />
    <glyph glyph-name="asciitilde" unicode="~" horiz-adv-x="1106" 
d="M798 485q-80 0 -140 27.5t-127 72.5q-46 32 -73.5 45.5t-68.5 13.5q-28 0 -47 -33.5t-22 -118.5l-225 9q8 167 83 269t211 102q80 0 139.5 -27.5t126.5 -71.5q47 -33 75 -47.5t68 -14.5q27 0 46 34.5t22 119.5l225 -9q-6 -168 -82 -269.5t-211 -101.5z" />
    <glyph glyph-name="uni00A0" unicode="&#xa0;" horiz-adv-x="395" 
 />
    <glyph glyph-name="exclamdown" unicode="&#xa1;" horiz-adv-x="535" 
d="M-51 -364l71 325q24 111 56 213.5t65.5 191t62.5 159.5h144q0 -69 -4 -162t-15.5 -196.5t-34.5 -205.5l-71 -325h-274zM340 670q-75 0 -122 44.5t-47 118.5q0 67 47 115t122 48q76 0 123 -48t47 -115q0 -74 -47 -118.5t-123 -44.5z" />
    <glyph glyph-name="cent" unicode="&#xa2;" horiz-adv-x="1106" 
d="M354 -217l295 1393h122l-294 -1393h-123zM516 -18q-134 0 -236 61t-149 181t-19 298q38 235 174 352.5t341 117.5q124 0 214.5 -46t137 -130t38.5 -197h-258q2 45 -13 86.5t-48.5 68t-90.5 26.5q-101 0 -158.5 -82.5t-78.5 -218.5q-25 -159 21.5 -241.5t145.5 -82.5
q79 0 127.5 49t63.5 141h258q-37 -196 -155.5 -289.5t-314.5 -93.5z" />
    <glyph glyph-name="sterling" unicode="&#xa3;" horiz-adv-x="1106" 
d="M-9 0l45 210q138 41 198.5 105t74.5 133q11 53 3.5 103t-33.5 123q-25 71 -42 161.5t3 183.5q30 139 145.5 223.5t325.5 84.5q136 0 235 -46t150 -136.5t38 -225.5h-248q3 73 -20.5 116t-68.5 62t-106 19q-92 0 -138 -39t-58 -98q-12 -56 -1.5 -116.5t31.5 -118.5
q29 -82 40.5 -153t-4.5 -150q-13 -60 -46.5 -112.5t-96.5 -89t-165 -46.5l10 47h727l-51 -240h-948zM66 530l28 136h824l-27 -136h-825z" />
    <glyph glyph-name="currency" unicode="&#xa4;" horiz-adv-x="1106" 
d="M257 201l-133 134l138 138q-26 44 -41 94.5t-15 104.5q0 106 56 197l-138 138l133 133l138 -138q43 26 93 40.5t104 14.5q55 0 105 -14.5t94 -40.5l137 138l134 -133l-138 -138q26 -43 40.5 -93t14.5 -104q0 -55 -14.5 -105.5t-40.5 -93.5l138 -138l-134 -134l-137 139
q-44 -27 -94 -41.5t-105 -14.5q-54 0 -104 14.5t-93 40.5zM592 473q55 0 100 26.5t72 72t27 100.5q0 54 -27 99t-72 71.5t-100 26.5t-100 -26.5t-71.5 -71.5t-26.5 -99q0 -55 26.5 -100.5t71.5 -72t100 -26.5z" />
    <glyph glyph-name="yen" unicode="&#xa5;" horiz-adv-x="1106" 
d="M113 462l28 135h872l-28 -135h-872zM59 208l29 136h872l-29 -136h-872zM311 0l104 491l-245 819h289l138 -574l384 574h308l-596 -819l-104 -491h-278z" />
    <glyph glyph-name="brokenbar" unicode="&#xa6;" horiz-adv-x="549" 
d="M203 686v660h211v-660h-211zM203 -358v659h211v-659h-211z" />
    <glyph glyph-name="section" unicode="&#xa7;" horiz-adv-x="980" 
d="M426 -17q-120 0 -214 35.5t-145.5 110t-45.5 189.5h246q-2 -88 48 -124.5t127 -36.5q66 0 104 25t46 66q7 36 -8 63.5t-59 52.5t-126 51q-170 56 -238.5 138t-45.5 198q19 93 107.5 144.5t226.5 63.5l49 -131q-53 -8 -90 -27.5t-46 -57.5q-7 -33 13 -58.5t77 -51.5
t159 -60q143 -49 197 -129t35 -192q-22 -125 -121.5 -197t-295.5 -72zM648 396l-77 136q56 9 91 33t43 66q6 35 -9.5 61t-64 51.5t-142.5 56.5q-157 53 -220.5 139.5t-39.5 203.5q22 106 126 163.5t265 57.5q115 0 202 -38.5t135 -110t43 -171.5h-246q2 68 -38.5 106.5
t-114.5 38.5q-57 0 -88 -17.5t-39 -50.5q-11 -48 37.5 -82.5t188.5 -81.5q154 -52 214.5 -130.5t41.5 -189.5q-17 -100 -93.5 -161t-214.5 -80z" />
    <glyph glyph-name="dieresis" unicode="&#xa8;" horiz-adv-x="1130" 
d="M749 1125q-47 0 -81.5 34t-34.5 82q0 49 34.5 83t81.5 34q49 0 83.5 -34t34.5 -83q0 -48 -34.5 -82t-83.5 -34zM367 1125q-48 0 -83 34t-35 82q0 49 35 83t83 34q47 0 81.5 -34t34.5 -83q0 -48 -34.5 -82t-81.5 -34z" />
    <glyph glyph-name="copyright" unicode="&#xa9;" horiz-adv-x="1534" 
d="M806 -18q-143 0 -268 53.5t-220 148.5t-148.5 220t-53.5 268q0 144 53.5 269.5t148.5 220.5t220 148.5t268 53.5q144 0 269.5 -53.5t220.5 -148.5t148.5 -220.5t53.5 -269.5q0 -143 -53.5 -268t-148.5 -220t-220.5 -148.5t-269.5 -53.5zM806 160q105 0 197.5 40
t162.5 110.5t109.5 163t39.5 198.5q0 107 -39.5 199.5t-109.5 163.5t-162.5 110.5t-197.5 39.5q-106 0 -198 -39.5t-161.5 -110.5t-109 -163.5t-39.5 -199.5q0 -106 39.5 -198.5t109 -163t162 -110.5t197.5 -40zM818 302q-161 0 -255.5 100.5t-94.5 269.5q0 171 94.5 271
t255.5 100q146 0 234 -79.5t90 -206.5h-187q-1 55 -37 89.5t-100 34.5q-78 0 -120.5 -54t-42.5 -155q0 -100 42.5 -153.5t120.5 -53.5q69 0 102 39t35 101h190q-4 -144 -90.5 -223.5t-236.5 -79.5z" />
    <glyph glyph-name="ordfeminine" unicode="&#xaa;" horiz-adv-x="914" 
d="M367 558q-71 0 -128.5 30.5t-85.5 89.5t-10 145q21 104 97 151.5t197.5 63t277.5 19.5l7 27q16 70 -16.5 99t-88.5 29q-58 0 -96.5 -26t-51.5 -86h-217q25 141 128 202.5t260 61.5q111 0 185 -33.5t103 -107.5t2 -195l-96 -454h-213l14 97q-63 -62 -127.5 -87.5
t-140.5 -25.5zM467 715q64 0 117 35t82 75l23 107q-161 -1 -230 -27.5t-80 -82.5q-10 -49 14 -78t74 -29z" />
    <glyph glyph-name="guillemotleft" unicode="&#xab;" horiz-adv-x="871" 
d="M730 135l-286 289l35 175l410 288l-50 -227l-208 -160l142 -156zM336 135l-286 289l35 175l410 288l-49 -227l-210 -160l143 -156z" />
    <glyph glyph-name="logicalnot" unicode="&#xac;" horiz-adv-x="1106" 
d="M117 996h937v-210h-937v210zM845 340v656h209v-656h-209z" />
    <glyph glyph-name="uni00AD" unicode="&#xad;" horiz-adv-x="746" 
d="M83 426l48 225h554l-48 -225h-554z" />
    <glyph glyph-name="registered" unicode="&#xae;" horiz-adv-x="904" 
d="M555 600q-102 0 -187 51t-135.5 136.5t-50.5 187.5q0 104 50.5 188.5t135.5 135t187 50.5q104 0 189 -50.5t135.5 -135t50.5 -188.5q0 -102 -50.5 -187.5t-135.5 -136.5t-189 -51zM554 690q79 0 143 38.5t102 103.5t38 143t-38 142.5t-102 103t-142 38.5
q-77 0 -140.5 -38.5t-102 -103t-38.5 -143.5q0 -77 38.5 -142t102 -103.5t139.5 -38.5zM409 804v354h162q66 0 101 -25.5t35 -74.5q0 -37 -21.5 -61.5t-59.5 -34.5l1 15q32 -6 49.5 -24t29.5 -57l29 -92h-102l-20 73q-9 33 -20.5 44t-35.5 11h-48v-128h-100zM509 1008h49
q24 0 35.5 10t11.5 27q0 33 -41 33h-55v-70z" />
    <glyph glyph-name="macron" unicode="&#xaf;" horiz-adv-x="1130" 
d="M268 1157l30 147h564l-31 -147h-563z" />
    <glyph glyph-name="degree" unicode="&#xb0;" horiz-adv-x="775" 
d="M495 664q-91 0 -166 45.5t-119.5 120.5t-44.5 166q0 92 44.5 167t119.5 120t166 45t166 -45t120.5 -120t45.5 -167q0 -91 -45.5 -166t-120.5 -120.5t-166 -45.5zM495 848q61 0 105 44t44 104q0 61 -44 104t-105 43q-60 0 -103 -43t-43 -104q0 -60 43 -104t103 -44z" />
    <glyph glyph-name="plusminus" unicode="&#xb1;" horiz-adv-x="1106" 
d="M114 887h938v-192h-938v192zM478 439v705h211v-705h-211zM114 383h938v-191h-938v191z" />
    <glyph glyph-name="uni00B2" unicode="&#xb2;" horiz-adv-x="733" 
d="M153 976l30 144l360 232q63 42 102 76t47 76q7 39 -14.5 68t-79.5 29q-61 0 -95 -31.5t-47 -96.5h-191q23 151 111 226.5t239 75.5q94 0 162.5 -35t100 -99t14.5 -149q-12 -60 -49 -104.5t-93.5 -82.5t-128.5 -78l-124 -76h329l-37 -175h-636z" />
    <glyph glyph-name="uni00B3" unicode="&#xb3;" horiz-adv-x="733" 
d="M500 965q-154 0 -229.5 66t-70.5 196h181q-2 -57 31.5 -83.5t96.5 -26.5q58 0 90.5 23t41.5 63q13 57 -18 87t-93 30h-55l29 133h60q56 0 96.5 20t48.5 55q10 48 -20.5 71.5t-80.5 23.5q-59 0 -95 -22.5t-47 -71.5h-181q26 137 119.5 191.5t222.5 54.5q82 0 147.5 -29
t99 -84.5t17.5 -133.5q-13 -58 -56.5 -93.5t-109.5 -50.5q61 -24 92 -79t13 -140q-21 -102 -104.5 -151t-225.5 -49z" />
    <glyph glyph-name="acute" unicode="&#xb4;" horiz-adv-x="1130" 
d="M395 1106l238 276h302l-342 -276h-198z" />
    <glyph glyph-name="mu" unicode="&#xb5;" horiz-adv-x="1101" 
d="M-63 -359l283 1335h263l-120 -576q-13 -63 -8 -107.5t31.5 -67t76.5 -22.5q64 0 122.5 36.5t100.5 84.5l139 652h263l-207 -976h-256l27 141q-52 -77 -113.5 -114.5t-135.5 -37.5q-70 0 -134 39.5t-97 113.5t-12 178h170l-143 -679h-250z" />
    <glyph glyph-name="paragraph" unicode="&#xb6;" horiz-adv-x="1242" 
d="M361 -195l177 824h-76q-163 0 -240.5 97.5t-42.5 260.5t154.5 261t281.5 98h693l-328 -1541h-220l281 1326h-176l-281 -1326h-223z" />
    <glyph glyph-name="periodcentered" unicode="&#xb7;" horiz-adv-x="535" 
d="M276 355q-77 0 -125 47.5t-48 115.5q0 74 48 118t125 44q76 0 122 -44t46 -118q0 -68 -46 -115.5t-122 -47.5z" />
    <glyph glyph-name="cedilla" unicode="&#xb8;" horiz-adv-x="1130" 
d="M522 -379q-72 0 -119 11t-86 28l61 114q31 -14 71.5 -22.5t83.5 -8.5q38 0 62.5 11.5t29.5 36.5q7 29 -17.5 49t-104.5 33l-43 7l167 171l91 -51l-68 -68l-49 22q95 -2 144 -53.5t33 -131.5q-13 -57 -51 -89.5t-91.5 -45.5t-113.5 -13z" />
    <glyph glyph-name="uni00B9" unicode="&#xb9;" horiz-adv-x="733" 
d="M435 976l118 553q-41 -34 -100 -61t-159 -39l41 193q69 15 120 34t91 45.5t76 61.5h197l-166 -787h-218z" />
    <glyph glyph-name="ordmasculine" unicode="&#xba;" horiz-adv-x="950" 
d="M527 558q-129 0 -214.5 57t-117.5 160t-4 241q36 169 147.5 258t280.5 89q127 0 214 -55t122.5 -156t5.5 -240q-25 -121 -86.5 -199.5t-150 -116.5t-197.5 -38zM541 735q87 0 135.5 60t66.5 144q13 66 5 122t-42.5 91t-101.5 35q-87 0 -135.5 -54.5t-68.5 -143.5
q-13 -64 -4.5 -122.5t43.5 -95t102 -36.5z" />
    <glyph glyph-name="guillemotright" unicode="&#xbb;" horiz-adv-x="871" 
d="M-11 135l49 227l211 156l-143 160l43 209l286 -288l-36 -175zM380 135l49 227l210 156l-142 160l44 209l285 -288l-35 -175z" />
    <glyph glyph-name="onequarter" unicode="&#xbc;" horiz-adv-x="1602" 
d="M274 529l118 553q-41 -34 -100 -61t-159 -39l41 193q69 15 120 34t91 45.5t76 61.5h197l-166 -787h-218zM181 0l1073 1311h203l-1071 -1311h-205zM1154 0l28 137h-375l33 157l483 494h184l-106 -498h110l-34 -153h-109l-29 -137h-185zM1020 290h200l56 266z" />
    <glyph glyph-name="onehalf" unicode="&#xbd;" horiz-adv-x="1667" 
d="M274 529l118 553q-41 -34 -100 -61t-159 -39l41 193q69 15 120 34t91 45.5t76 61.5h197l-166 -787h-218zM187 0l1073 1311h203l-1071 -1311h-205zM879 0l30 144l360 232q63 42 102 76t47 76q7 39 -14.5 68t-79.5 29q-61 0 -95 -31.5t-47 -96.5h-191q23 151 111 226.5
t239 75.5q94 0 162.5 -35t100 -99t14.5 -149q-12 -60 -49 -104.5t-93.5 -82.5t-128.5 -78l-124 -76h329l-37 -175h-636z" />
    <glyph glyph-name="threequarters" unicode="&#xbe;" horiz-adv-x="1696" 
d="M405 518q-154 0 -229.5 66t-70.5 196h181q-2 -57 31.5 -83.5t96.5 -26.5q58 0 90.5 23t41.5 63q13 57 -18 87t-93 30h-55l29 133h60q56 0 96.5 20t48.5 55q10 48 -20.5 71.5t-80.5 23.5q-59 0 -95 -22.5t-47 -71.5h-181q26 137 119.5 191.5t222.5 54.5q82 0 147.5 -29
t99 -84.5t17.5 -133.5q-13 -58 -56.5 -93.5t-109.5 -50.5q61 -24 92 -79t13 -140q-21 -102 -104.5 -151t-225.5 -49zM269 0l1073 1311h203l-1071 -1311h-205zM1205 0l28 137h-375l33 157l483 494h184l-106 -498h110l-34 -153h-109l-29 -137h-185zM1071 290h200l56 266z" />
    <glyph glyph-name="questiondown" unicode="&#xbf;" horiz-adv-x="1030" 
d="M660 520q-12 -83 -38.5 -141t-72 -102.5t-116.5 -88.5q-62 -38 -104.5 -68.5t-67 -61t-32.5 -69.5q-9 -40 4.5 -76t51.5 -58.5t101 -22.5q88 0 148 44.5t72 136.5h271q-30 -203 -165 -299t-355 -96q-140 0 -240 51.5t-144.5 142t-22.5 206.5q15 72 50.5 122t92 92.5
t131.5 87.5q62 36 97.5 64t56.5 59.5t37 76.5h245zM577 992q77 0 124.5 -47.5t47.5 -115.5q0 -73 -47.5 -117.5t-124.5 -44.5q-74 0 -121.5 44.5t-47.5 117.5q0 68 47 115.5t122 47.5z" />
    <glyph glyph-name="Agrave" unicode="&#xc0;" horiz-adv-x="1250" 
d="M-119 0l772 1346h294l199 -1346h-285l-33 296h-486l-162 -296h-299zM460 529h350l-62 539zM754 1453l-235 278h281l139 -278h-185z" />
    <glyph glyph-name="Aacute" unicode="&#xc1;" horiz-adv-x="1250" 
d="M-119 0l772 1346h294l199 -1346h-285l-33 296h-486l-162 -296h-299zM460 529h350l-62 539zM682 1453l239 277h293l-334 -277h-198z" />
    <glyph glyph-name="Acircumflex" unicode="&#xc2;" horiz-adv-x="1250" 
d="M-119 0l772 1346h294l199 -1346h-285l-33 296h-486l-162 -296h-299zM460 529h350l-62 539zM475 1453l273 277h242l152 -277h-195l-93 161l-165 -161h-214z" />
    <glyph glyph-name="Atilde" unicode="&#xc3;" horiz-adv-x="1250" 
d="M-119 0l772 1346h294l199 -1346h-285l-33 296h-486l-162 -296h-299zM460 529h350l-62 539zM495 1458q27 129 85 183t133 54q48 0 83.5 -12t73.5 -29q39 -16 62.5 -25t43.5 -9q22 0 37 16t26 60h139q-27 -126 -78 -177.5t-129 -51.5q-42 0 -76.5 11t-75.5 29
q-35 15 -60.5 25t-47.5 10q-27 0 -46 -19t-31 -65h-139z" />
    <glyph glyph-name="Adieresis" unicode="&#xc4;" horiz-adv-x="1250" 
d="M-119 0l772 1346h294l199 -1346h-285l-33 296h-486l-162 -296h-299zM460 529h350l-62 539zM1011 1472q-47 0 -82 35t-35 82q0 49 35 83.5t82 34.5q48 0 82.5 -34.5t34.5 -83.5q0 -47 -34.5 -82t-82.5 -35zM628 1472q-48 0 -82.5 35t-34.5 82q0 49 34.5 83.5t82.5 34.5
q47 0 81.5 -34.5t34.5 -83.5q0 -47 -34.5 -82t-81.5 -35z" />
    <glyph glyph-name="Aring" unicode="&#xc5;" horiz-adv-x="1250" 
d="M-119 0l772 1346h294l199 -1346h-285l-33 296h-486l-162 -296h-299zM460 529h350l-62 539zM809 1376q-87 0 -148 55.5t-61 140.5q0 92 59 151.5t150 59.5q88 0 148 -57.5t60 -146.5q0 -88 -60 -145.5t-148 -57.5zM809 1481q41 0 69.5 28.5t28.5 69.5q0 42 -28.5 70.5
t-69.5 28.5t-69.5 -28.5t-28.5 -70.5q0 -41 28 -69.5t70 -28.5z" />
    <glyph glyph-name="AE" unicode="&#xc6;" horiz-adv-x="1846" 
d="M-119 0l831 1346h368l-44 -216h-178l-412 -696v-17l-244 -417h-321zM307 296v233h725v-233h-725zM751 0l286 1346h904l-49 -233h-623l-67 -313h563l-47 -225h-564l-73 -342h622l-49 -233h-903z" />
    <glyph glyph-name="Ccedilla" unicode="&#xc7;" horiz-adv-x="1391" 
d="M665 -18q-190 0 -322.5 87t-190 250t-20.5 393q33 206 128.5 352t244.5 223t341 77q156 0 272.5 -58t179.5 -165t59 -255h-287q0 78 -32.5 131.5t-88 82t-126.5 28.5q-122 0 -206.5 -59t-133.5 -160.5t-70 -228.5q-21 -133 -0.5 -238t87.5 -165t186 -60q125 0 208.5 66.5
t114.5 207.5h287q-55 -264 -216.5 -386.5t-414.5 -122.5zM558 -379q-72 0 -119 11t-86 28l61 114q31 -14 71.5 -22.5t83.5 -8.5q38 0 62.5 11.5t29.5 36.5q7 29 -17.5 49t-104.5 33l-43 7l167 171l91 -51l-68 -68l-49 22q95 -2 144 -53.5t33 -131.5q-13 -57 -51 -89.5
t-91.5 -45.5t-113.5 -13z" />
    <glyph glyph-name="Egrave" unicode="&#xc8;" horiz-adv-x="1125" 
d="M29 0l287 1346h904l-49 -233h-623l-68 -313h564l-47 -225h-564l-74 -342h623l-49 -233h-904zM736 1454l-235 278h281l139 -278h-185z" />
    <glyph glyph-name="Eacute" unicode="&#xc9;" horiz-adv-x="1125" 
d="M29 0l287 1346h904l-49 -233h-623l-68 -313h564l-47 -225h-564l-74 -342h623l-49 -233h-904zM664 1454l239 277h293l-334 -277h-198z" />
    <glyph glyph-name="Ecircumflex" unicode="&#xca;" horiz-adv-x="1125" 
d="M29 0l287 1346h904l-49 -233h-623l-68 -313h564l-47 -225h-564l-74 -342h623l-49 -233h-904zM457 1454l273 277h242l152 -277h-195l-93 161l-165 -161h-214z" />
    <glyph glyph-name="Edieresis" unicode="&#xcb;" horiz-adv-x="1125" 
d="M29 0l287 1346h904l-49 -233h-623l-68 -313h564l-47 -225h-564l-74 -342h623l-49 -233h-904zM993 1473q-47 0 -82 35t-35 82q0 49 35 83.5t82 34.5q48 0 82.5 -34.5t34.5 -83.5q0 -47 -34.5 -82t-82.5 -35zM610 1473q-48 0 -82.5 35t-34.5 82q0 49 34.5 83.5t82.5 34.5
q47 0 81.5 -34.5t34.5 -83.5q0 -47 -34.5 -82t-81.5 -35z" />
    <glyph glyph-name="Igrave" unicode="&#xcc;" horiz-adv-x="547" 
d="M29 0l287 1346h281l-287 -1346h-281zM426 1454l-235 278h281l139 -278h-185z" />
    <glyph glyph-name="Iacute" unicode="&#xcd;" horiz-adv-x="547" 
d="M29 0l287 1346h281l-287 -1346h-281zM354 1454l239 277h293l-334 -277h-198z" />
    <glyph glyph-name="Icircumflex" unicode="&#xce;" horiz-adv-x="547" 
d="M29 0l287 1346h281l-287 -1346h-281zM147 1454l273 277h242l152 -277h-195l-93 161l-165 -161h-214z" />
    <glyph glyph-name="Idieresis" unicode="&#xcf;" horiz-adv-x="547" 
d="M29 0l287 1346h281l-287 -1346h-281zM683 1473q-47 0 -82 35t-35 82q0 49 35 83.5t82 34.5q48 0 82.5 -34.5t34.5 -83.5q0 -47 -34.5 -82t-82.5 -35zM300 1473q-48 0 -82.5 35t-34.5 82q0 49 34.5 83.5t82.5 34.5q47 0 81.5 -34.5t34.5 -83.5q0 -47 -34.5 -82t-81.5 -35z
" />
    <glyph glyph-name="Eth" unicode="&#xd0;" horiz-adv-x="1393" 
d="M17 565l48 225h710l-48 -225h-710zM29 0l287 1346h423q164 0 288.5 -55.5t202 -157.5t101 -243t-12.5 -311q-65 -304 -270.5 -441.5t-539.5 -137.5h-479zM361 234h156q147 0 251.5 38t170 124t96.5 230q32 145 4.5 254.5t-109 170.5t-216.5 61h-166z" />
    <glyph glyph-name="Ntilde" unicode="&#xd1;" horiz-adv-x="1425" 
d="M29 0l287 1346h274l425 -940l196 940h264l-286 -1346h-275l-423 938l-199 -938h-263zM587 1459q27 129 85 183t133 54q48 0 83.5 -12t73.5 -29q39 -16 62.5 -25t43.5 -9q22 0 37 16t26 60h139q-27 -126 -78 -177.5t-129 -51.5q-42 0 -76.5 11t-75.5 29q-35 15 -60.5 25
t-47.5 10q-27 0 -46 -19t-31 -65h-139z" />
    <glyph glyph-name="Ograve" unicode="&#xd2;" horiz-adv-x="1443" 
d="M660 -19q-200 0 -331.5 93.5t-183.5 260t-12 383.5q36 203 128.5 348t240.5 222.5t351 77.5q197 0 327.5 -93.5t183 -260.5t12.5 -390q-36 -199 -126.5 -343t-237.5 -221t-352 -77zM680 214q124 0 208.5 58.5t135 160.5t72.5 232q21 119 1.5 226t-84.5 173.5t-185 66.5
q-123 0 -207 -58t-134.5 -158.5t-72.5 -229.5q-21 -121 -2.5 -229t84 -175t184.5 -67zM828 1454l-235 278h281l139 -278h-185z" />
    <glyph glyph-name="Oacute" unicode="&#xd3;" horiz-adv-x="1443" 
d="M660 -19q-200 0 -331.5 93.5t-183.5 260t-12 383.5q36 203 128.5 348t240.5 222.5t351 77.5q197 0 327.5 -93.5t183 -260.5t12.5 -390q-36 -199 -126.5 -343t-237.5 -221t-352 -77zM680 214q124 0 208.5 58.5t135 160.5t72.5 232q21 119 1.5 226t-84.5 173.5t-185 66.5
q-123 0 -207 -58t-134.5 -158.5t-72.5 -229.5q-21 -121 -2.5 -229t84 -175t184.5 -67zM756 1454l239 277h293l-334 -277h-198z" />
    <glyph glyph-name="Ocircumflex" unicode="&#xd4;" horiz-adv-x="1443" 
d="M660 -19q-200 0 -331.5 93.5t-183.5 260t-12 383.5q36 203 128.5 348t240.5 222.5t351 77.5q197 0 327.5 -93.5t183 -260.5t12.5 -390q-36 -199 -126.5 -343t-237.5 -221t-352 -77zM680 214q124 0 208.5 58.5t135 160.5t72.5 232q21 119 1.5 226t-84.5 173.5t-185 66.5
q-123 0 -207 -58t-134.5 -158.5t-72.5 -229.5q-21 -121 -2.5 -229t84 -175t184.5 -67zM549 1454l273 277h242l152 -277h-195l-93 161l-165 -161h-214z" />
    <glyph glyph-name="Otilde" unicode="&#xd5;" horiz-adv-x="1443" 
d="M660 -19q-200 0 -331.5 93.5t-183.5 260t-12 383.5q36 203 128.5 348t240.5 222.5t351 77.5q197 0 327.5 -93.5t183 -260.5t12.5 -390q-36 -199 -126.5 -343t-237.5 -221t-352 -77zM680 214q124 0 208.5 58.5t135 160.5t72.5 232q21 119 1.5 226t-84.5 173.5t-185 66.5
q-123 0 -207 -58t-134.5 -158.5t-72.5 -229.5q-21 -121 -2.5 -229t84 -175t184.5 -67zM569 1459q27 129 85 183t133 54q48 0 83.5 -12t73.5 -29q39 -16 62.5 -25t43.5 -9q22 0 37 16t26 60h139q-27 -126 -78 -177.5t-129 -51.5q-42 0 -76.5 11t-75.5 29q-35 15 -60.5 25
t-47.5 10q-27 0 -46 -19t-31 -65h-139z" />
    <glyph glyph-name="Odieresis" unicode="&#xd6;" horiz-adv-x="1443" 
d="M660 -19q-200 0 -331.5 93.5t-183.5 260t-12 383.5q36 203 128.5 348t240.5 222.5t351 77.5q197 0 327.5 -93.5t183 -260.5t12.5 -390q-36 -199 -126.5 -343t-237.5 -221t-352 -77zM680 214q124 0 208.5 58.5t135 160.5t72.5 232q21 119 1.5 226t-84.5 173.5t-185 66.5
q-123 0 -207 -58t-134.5 -158.5t-72.5 -229.5q-21 -121 -2.5 -229t84 -175t184.5 -67zM1085 1473q-47 0 -82 35t-35 82q0 49 35 83.5t82 34.5q48 0 82.5 -34.5t34.5 -83.5q0 -47 -34.5 -82t-82.5 -35zM702 1473q-48 0 -82.5 35t-34.5 82q0 49 34.5 83.5t82.5 34.5
q47 0 81.5 -34.5t34.5 -83.5q0 -47 -34.5 -82t-81.5 -35z" />
    <glyph glyph-name="multiply" unicode="&#xd7;" horiz-adv-x="1106" 
d="M170 412l663 662l149 -147l-662 -665zM320 1075l663 -663l-149 -150l-662 663z" />
    <glyph glyph-name="Oslash" unicode="&#xd8;" horiz-adv-x="1443" 
d="M75 -77l-108 110l303 289h11l847 809h11l303 291l107 -109l-303 -293h-11l-848 -810h-11zM660 -19q-200 0 -331.5 93.5t-183.5 260t-12 383.5q36 203 128.5 348t240.5 222.5t351 77.5q197 0 327.5 -93.5t183 -260.5t12.5 -390q-36 -199 -126.5 -343t-237.5 -221t-352 -77
zM680 214q124 0 208.5 58.5t135 160.5t72.5 232q21 119 1.5 226t-84.5 173.5t-185 66.5q-123 0 -207 -58t-134.5 -158.5t-72.5 -229.5q-21 -121 -2.5 -229t84 -175t184.5 -67z" />
    <glyph glyph-name="Ugrave" unicode="&#xd9;" horiz-adv-x="1371" 
d="M628 -18q-194 0 -316.5 72t-166 210t-1.5 335l158 747h288l-161 -762q-26 -123 -7.5 -205t77 -123t154.5 -41q139 0 214.5 80.5t110.5 246.5l168 804h288l-171 -805q-41 -191 -116.5 -315t-201 -184t-317.5 -60zM827 1454l-235 278h281l139 -278h-185z" />
    <glyph glyph-name="Uacute" unicode="&#xda;" horiz-adv-x="1371" 
d="M628 -18q-194 0 -316.5 72t-166 210t-1.5 335l158 747h288l-161 -762q-26 -123 -7.5 -205t77 -123t154.5 -41q139 0 214.5 80.5t110.5 246.5l168 804h288l-171 -805q-41 -191 -116.5 -315t-201 -184t-317.5 -60zM755 1454l239 277h293l-334 -277h-198z" />
    <glyph glyph-name="Ucircumflex" unicode="&#xdb;" horiz-adv-x="1371" 
d="M628 -18q-194 0 -316.5 72t-166 210t-1.5 335l158 747h288l-161 -762q-26 -123 -7.5 -205t77 -123t154.5 -41q139 0 214.5 80.5t110.5 246.5l168 804h288l-171 -805q-41 -191 -116.5 -315t-201 -184t-317.5 -60zM548 1454l273 277h242l152 -277h-195l-93 161l-165 -161
h-214z" />
    <glyph glyph-name="Udieresis" unicode="&#xdc;" horiz-adv-x="1371" 
d="M628 -18q-194 0 -316.5 72t-166 210t-1.5 335l158 747h288l-161 -762q-26 -123 -7.5 -205t77 -123t154.5 -41q139 0 214.5 80.5t110.5 246.5l168 804h288l-171 -805q-41 -191 -116.5 -315t-201 -184t-317.5 -60zM1084 1473q-47 0 -82 35t-35 82q0 49 35 83.5t82 34.5
q48 0 82.5 -34.5t34.5 -83.5q0 -47 -34.5 -82t-82.5 -35zM701 1473q-48 0 -82.5 35t-34.5 82q0 49 34.5 83.5t82.5 34.5q47 0 81.5 -34.5t34.5 -83.5q0 -47 -34.5 -82t-81.5 -35z" />
    <glyph glyph-name="Yacute" unicode="&#xdd;" horiz-adv-x="1172" 
d="M338 0l109 503l-264 843h298l154 -585l397 585h322l-620 -843l-108 -503h-288zM641 1454l239 277h293l-334 -277h-198z" />
    <glyph glyph-name="Thorn" unicode="&#xde;" horiz-adv-x="1211" 
d="M100 239l49 227h455q98 0 172 46.5t94 143.5q22 107 -33 165.5t-166 58.5h-435l49 225h421q155 0 264.5 -58t157 -168t15.5 -265q-41 -193 -188.5 -284t-372.5 -91h-482zM29 0l287 1346h281l-286 -1346h-282z" />
    <glyph glyph-name="germandbls" unicode="&#xdf;" horiz-adv-x="1117" 
d="M528 -12q-59 0 -94.5 3t-64.5 9l44 202q23 -6 45.5 -9t45.5 -3q101 0 162 40t80 134q26 115 -34 177.5t-169 62.5h-46l40 186h50q85 0 146 36t81 129q18 87 -24 137t-113 50q-81 0 -136.5 -53.5t-83.5 -188.5l-191 -900h-265l197 925q48 226 170.5 332.5t327.5 106.5
q139 0 230 -56t128.5 -150t11.5 -210q-17 -81 -67 -141.5t-140.5 -96.5t-231.5 -43l-40 105q125 0 214 -35t142.5 -97t70.5 -144.5t-3 -177.5q-25 -120 -91.5 -192.5t-166 -105t-225.5 -32.5z" />
    <glyph glyph-name="agrave" unicode="&#xe0;" horiz-adv-x="1048" 
d="M298 -18q-92 0 -159 38.5t-96 112.5t-10 180q18 95 73.5 151.5t143 83.5t203 36.5t254.5 12.5l9 46q12 60 -2.5 97t-46.5 54t-74 17q-71 0 -125 -36.5t-68 -118.5h-248q26 177 146.5 256.5t308.5 79.5q85 0 159.5 -21.5t127 -70t72.5 -127t-4 -192.5l-123 -581h-244
l16 125q-64 -67 -135.5 -105t-177.5 -38zM394 165q54 0 101 24t84.5 58.5t64.5 64.5l32 139q-195 -1 -282 -32t-103 -116q-11 -64 18 -101t85 -37zM590 1106l-246 276h276l150 -276h-180z" />
    <glyph glyph-name="aacute" unicode="&#xe1;" horiz-adv-x="1048" 
d="M298 -18q-92 0 -159 38.5t-96 112.5t-10 180q18 95 73.5 151.5t143 83.5t203 36.5t254.5 12.5l9 46q12 60 -2.5 97t-46.5 54t-74 17q-71 0 -125 -36.5t-68 -118.5h-248q26 177 146.5 256.5t308.5 79.5q85 0 159.5 -21.5t127 -70t72.5 -127t-4 -192.5l-123 -581h-244
l16 125q-64 -67 -135.5 -105t-177.5 -38zM394 165q54 0 101 24t84.5 58.5t64.5 64.5l32 139q-195 -1 -282 -32t-103 -116q-11 -64 18 -101t85 -37zM493 1106l238 276h302l-342 -276h-198z" />
    <glyph glyph-name="acircumflex" unicode="&#xe2;" horiz-adv-x="1048" 
d="M298 -18q-92 0 -159 38.5t-96 112.5t-10 180q18 95 73.5 151.5t143 83.5t203 36.5t254.5 12.5l9 46q12 60 -2.5 97t-46.5 54t-74 17q-71 0 -125 -36.5t-68 -118.5h-248q26 177 146.5 256.5t308.5 79.5q85 0 159.5 -21.5t127 -70t72.5 -127t-4 -192.5l-123 -581h-244
l16 125q-64 -67 -135.5 -105t-177.5 -38zM394 165q54 0 101 24t84.5 58.5t64.5 64.5l32 139q-195 -1 -282 -32t-103 -116q-11 -64 18 -101t85 -37zM296 1106l273 276h242l152 -276h-187l-104 148l-175 -148h-201z" />
    <glyph glyph-name="atilde" unicode="&#xe3;" horiz-adv-x="1048" 
d="M298 -18q-92 0 -159 38.5t-96 112.5t-10 180q18 95 73.5 151.5t143 83.5t203 36.5t254.5 12.5l9 46q12 60 -2.5 97t-46.5 54t-74 17q-71 0 -125 -36.5t-68 -118.5h-248q26 177 146.5 256.5t308.5 79.5q85 0 159.5 -21.5t127 -70t72.5 -127t-4 -192.5l-123 -581h-244
l16 125q-64 -67 -135.5 -105t-177.5 -38zM394 165q54 0 101 24t84.5 58.5t64.5 64.5l32 139q-195 -1 -282 -32t-103 -116q-11 -64 18 -101t85 -37zM328 1111q26 129 84 183t133 54q48 0 83.5 -12t74.5 -29q38 -17 61.5 -26t43.5 -9q23 0 38 16.5t25 60.5h139
q-27 -126 -77.5 -178t-129.5 -52q-41 0 -75.5 11.5t-75.5 29.5q-36 15 -61 25t-48 10q-26 0 -45.5 -19.5t-30.5 -64.5h-139z" />
    <glyph glyph-name="adieresis" unicode="&#xe4;" horiz-adv-x="1048" 
d="M298 -18q-92 0 -159 38.5t-96 112.5t-10 180q18 95 73.5 151.5t143 83.5t203 36.5t254.5 12.5l9 46q12 60 -2.5 97t-46.5 54t-74 17q-71 0 -125 -36.5t-68 -118.5h-248q26 177 146.5 256.5t308.5 79.5q85 0 159.5 -21.5t127 -70t72.5 -127t-4 -192.5l-123 -581h-244
l16 125q-64 -67 -135.5 -105t-177.5 -38zM394 165q54 0 101 24t84.5 58.5t64.5 64.5l32 139q-195 -1 -282 -32t-103 -116q-11 -64 18 -101t85 -37zM846 1125q-47 0 -81.5 34t-34.5 82q0 49 34.5 83t81.5 34q49 0 83.5 -34t34.5 -83q0 -48 -34.5 -82t-83.5 -34zM464 1125
q-48 0 -83 34t-35 82q0 49 35 83t83 34q47 0 81.5 -34t34.5 -83q0 -48 -34.5 -82t-81.5 -34z" />
    <glyph glyph-name="aring" unicode="&#xe5;" horiz-adv-x="1048" 
d="M298 -18q-92 0 -159 38.5t-96 112.5t-10 180q18 95 73.5 151.5t143 83.5t203 36.5t254.5 12.5l9 46q12 60 -2.5 97t-46.5 54t-74 17q-71 0 -125 -36.5t-68 -118.5h-248q26 177 146.5 256.5t308.5 79.5q85 0 159.5 -21.5t127 -70t72.5 -127t-4 -192.5l-123 -581h-244
l16 125q-64 -67 -135.5 -105t-177.5 -38zM394 165q54 0 101 24t84.5 58.5t64.5 64.5l32 139q-195 -1 -282 -32t-103 -116q-11 -64 18 -101t85 -37zM641 1073q-86 0 -147 56t-61 143q0 92 59 151.5t149 59.5q89 0 149 -57.5t60 -146.5t-60 -147.5t-149 -58.5zM641 1181
q42 0 70 28.5t28 69.5q0 42 -28 70t-69 28q-42 0 -70 -28t-28 -70q0 -41 28 -69.5t69 -28.5z" />
    <glyph glyph-name="ae" unicode="&#xe6;" horiz-adv-x="1643" 
d="M297 -18q-105 0 -171 46t-89 124t-2 172q23 97 82 151.5t150 79.5t209.5 31.5t260.5 6.5h714l-129 -8q11 76 -7 125t-55.5 73.5t-86.5 24.5q-98 0 -152 -62.5t-77 -170.5l-6 -29h-254l23 104q13 63 -1 99t-46 51t-73 15q-73 0 -122 -37t-64 -122h-249q28 166 139 251
t307 85q96 0 168 -23.5t112.5 -71.5t39.5 -122h-104q56 98 146 157.5t245 59.5q122 0 212 -59.5t130.5 -175.5t14.5 -287l-4 -27h-840l3 8q-151 3 -240.5 -10.5t-133 -47t-55.5 -91.5q-12 -62 18.5 -100t85.5 -38q79 0 150 50.5t116 150.5l88 -88q-44 -95 -111 -161
t-153.5 -100t-188.5 -34zM1073 -18q-141 0 -242.5 60t-146.5 172.5t-17 270.5l251 -28q-17 -74 -5.5 -138.5t55.5 -104t122 -39.5q81 0 126.5 37t59.5 112h263q-43 -171 -159 -256.5t-307 -85.5z" />
    <glyph glyph-name="ccedilla" unicode="&#xe7;" horiz-adv-x="1048" 
d="M483 -18q-134 0 -236 61t-149.5 181t-19.5 298q39 235 174.5 352.5t340.5 117.5q124 0 214.5 -46t137 -130t38.5 -197h-257q2 45 -13 86.5t-48.5 68t-90.5 26.5q-101 0 -158.5 -82.5t-79.5 -218.5q-25 -159 22 -241.5t145 -82.5q79 0 128 49t64 141h257
q-37 -196 -155.5 -289.5t-313.5 -93.5zM406 -379q-72 0 -119 11t-86 28l61 114q31 -14 71.5 -22.5t83.5 -8.5q38 0 62.5 11.5t29.5 36.5q7 29 -17.5 49t-104.5 33l-43 7l167 171l91 -51l-68 -68l-49 22q95 -2 144 -53.5t33 -131.5q-13 -57 -51 -89.5t-91.5 -45.5t-113.5 -13
z" />
    <glyph glyph-name="egrave" unicode="&#xe8;" horiz-adv-x="1060" 
d="M481 -17q-149 0 -248 67t-139 188t-15 286q23 146 89 251t172.5 161t247.5 56q145 0 241.5 -69t135 -194t7.5 -293h-645q-8 -69 4.5 -129t53 -96.5t115.5 -36.5q74 0 124.5 34.5t69.5 115.5h261q-43 -175 -161.5 -258t-312.5 -83zM358 604h376q7 65 -10.5 110t-55 69.5
t-89.5 24.5q-87 0 -145 -52.5t-76 -151.5zM579 1106l-246 276h276l150 -276h-180z" />
    <glyph glyph-name="eacute" unicode="&#xe9;" horiz-adv-x="1060" 
d="M481 -17q-149 0 -248 67t-139 188t-15 286q23 146 89 251t172.5 161t247.5 56q145 0 241.5 -69t135 -194t7.5 -293h-645q-8 -69 4.5 -129t53 -96.5t115.5 -36.5q74 0 124.5 34.5t69.5 115.5h261q-43 -175 -161.5 -258t-312.5 -83zM358 604h376q7 65 -10.5 110t-55 69.5
t-89.5 24.5q-87 0 -145 -52.5t-76 -151.5zM482 1106l238 276h302l-342 -276h-198z" />
    <glyph glyph-name="ecircumflex" unicode="&#xea;" horiz-adv-x="1060" 
d="M481 -17q-149 0 -248 67t-139 188t-15 286q23 146 89 251t172.5 161t247.5 56q145 0 241.5 -69t135 -194t7.5 -293h-645q-8 -69 4.5 -129t53 -96.5t115.5 -36.5q74 0 124.5 34.5t69.5 115.5h261q-43 -175 -161.5 -258t-312.5 -83zM358 604h376q7 65 -10.5 110t-55 69.5
t-89.5 24.5q-87 0 -145 -52.5t-76 -151.5zM285 1106l273 276h242l152 -276h-187l-104 148l-175 -148h-201z" />
    <glyph glyph-name="edieresis" unicode="&#xeb;" horiz-adv-x="1060" 
d="M481 -17q-149 0 -248 67t-139 188t-15 286q23 146 89 251t172.5 161t247.5 56q145 0 241.5 -69t135 -194t7.5 -293h-645q-8 -69 4.5 -129t53 -96.5t115.5 -36.5q74 0 124.5 34.5t69.5 115.5h261q-43 -175 -161.5 -258t-312.5 -83zM358 604h376q7 65 -10.5 110t-55 69.5
t-89.5 24.5q-87 0 -145 -52.5t-76 -151.5zM835 1125q-47 0 -81.5 34t-34.5 82q0 49 34.5 83t81.5 34q49 0 83.5 -34t34.5 -83q0 -48 -34.5 -82t-83.5 -34zM453 1125q-48 0 -83 34t-35 82q0 49 35 83t83 34q47 0 81.5 -34t34.5 -83q0 -48 -34.5 -82t-81.5 -34z" />
    <glyph glyph-name="igrave" unicode="&#xec;" horiz-adv-x="496" 
d="M12 0l208 976h263l-208 -976h-263zM337 1106l-246 276h276l150 -276h-180z" />
    <glyph glyph-name="iacute" unicode="&#xed;" horiz-adv-x="496" 
d="M12 0l208 976h263l-208 -976h-263zM240 1106l238 276h302l-342 -276h-198z" />
    <glyph glyph-name="icircumflex" unicode="&#xee;" horiz-adv-x="496" 
d="M12 0l208 976h263l-208 -976h-263zM43 1106l273 276h242l152 -276h-187l-104 148l-175 -148h-201z" />
    <glyph glyph-name="idieresis" unicode="&#xef;" horiz-adv-x="496" 
d="M12 0l208 976h263l-208 -976h-263zM569 1125q-47 0 -81.5 34t-34.5 82q0 49 34.5 83t81.5 34q48 0 83 -34t35 -83q0 -48 -35 -82t-83 -34zM235 1125q-48 0 -83 34t-35 82q0 49 35 83t83 34q47 0 81.5 -34t34.5 -83q0 -48 -34.5 -82t-81.5 -34z" />
    <glyph glyph-name="eth" unicode="&#xf0;" horiz-adv-x="1091" 
d="M498 -17q-145 0 -251 68t-152.5 193t-10.5 294q29 139 103 231.5t179.5 139.5t228.5 47q87 0 137.5 -24t72.5 -70t24 -113l-53 1q0 48 -14.5 97.5t-42.5 100t-68.5 102.5t-92.5 106l-184 190h288l83 -83q126 -127 193 -260t82.5 -274t-15.5 -293q-31 -154 -100.5 -254.5
t-172.5 -149.5t-234 -49zM510 175q67 0 113 35.5t75.5 96t44.5 133.5q19 89 11 162.5t-49 117.5t-120 44q-75 0 -123.5 -37t-76.5 -95.5t-42 -124.5q-20 -94 -7.5 -169t57 -119t117.5 -44zM285 984l33 163l369 106v-5l368 106l-35 -163l-356 -101l-7 3z" />
    <glyph glyph-name="ntilde" unicode="&#xf1;" horiz-adv-x="1092" 
d="M13 0l207 976h257l-27 -143q58 63 131 110t182 47q91 0 156 -45t90 -135t-3 -225l-124 -585h-264l126 590q20 92 -3.5 140t-88.5 48t-125.5 -37t-110.5 -90l-139 -651h-264zM370 1111q26 129 84 183t133 54q48 0 83.5 -12t74.5 -29q38 -17 61.5 -26t43.5 -9q23 0 38 16.5
t25 60.5h139q-27 -126 -77.5 -178t-129.5 -52q-41 0 -75.5 11.5t-75.5 29.5q-36 15 -61 25t-48 10q-26 0 -45.5 -19.5t-30.5 -64.5h-139z" />
    <glyph glyph-name="ograve" unicode="&#xf2;" horiz-adv-x="1085" 
d="M485 -18q-151 0 -255 67t-144.5 194t-2.5 306q46 215 180 329t337 114q155 0 258 -67.5t142 -195.5t1 -309q-45 -215 -179 -326.5t-337 -111.5zM502 174q103 0 157.5 79t80.5 203q21 97 13 174.5t-49 123.5t-122 46q-70 0 -117 -37.5t-76 -102t-46 -145.5
q-19 -94 -10 -171.5t50.5 -123.5t118.5 -46zM590 1106l-246 276h276l150 -276h-180z" />
    <glyph glyph-name="oacute" unicode="&#xf3;" horiz-adv-x="1085" 
d="M485 -18q-151 0 -255 67t-144.5 194t-2.5 306q46 215 180 329t337 114q155 0 258 -67.5t142 -195.5t1 -309q-45 -215 -179 -326.5t-337 -111.5zM502 174q103 0 157.5 79t80.5 203q21 97 13 174.5t-49 123.5t-122 46q-70 0 -117 -37.5t-76 -102t-46 -145.5
q-19 -94 -10 -171.5t50.5 -123.5t118.5 -46zM493 1106l238 276h302l-342 -276h-198z" />
    <glyph glyph-name="ocircumflex" unicode="&#xf4;" horiz-adv-x="1085" 
d="M485 -18q-151 0 -255 67t-144.5 194t-2.5 306q46 215 180 329t337 114q155 0 258 -67.5t142 -195.5t1 -309q-45 -215 -179 -326.5t-337 -111.5zM502 174q103 0 157.5 79t80.5 203q21 97 13 174.5t-49 123.5t-122 46q-70 0 -117 -37.5t-76 -102t-46 -145.5
q-19 -94 -10 -171.5t50.5 -123.5t118.5 -46zM296 1106l273 276h242l152 -276h-187l-104 148l-175 -148h-201z" />
    <glyph glyph-name="otilde" unicode="&#xf5;" horiz-adv-x="1085" 
d="M485 -18q-151 0 -255 67t-144.5 194t-2.5 306q46 215 180 329t337 114q155 0 258 -67.5t142 -195.5t1 -309q-45 -215 -179 -326.5t-337 -111.5zM502 174q103 0 157.5 79t80.5 203q21 97 13 174.5t-49 123.5t-122 46q-70 0 -117 -37.5t-76 -102t-46 -145.5
q-19 -94 -10 -171.5t50.5 -123.5t118.5 -46zM328 1111q26 129 84 183t133 54q48 0 83.5 -12t74.5 -29q38 -17 61.5 -26t43.5 -9q23 0 38 16.5t25 60.5h139q-27 -126 -77.5 -178t-129.5 -52q-41 0 -75.5 11.5t-75.5 29.5q-36 15 -61 25t-48 10q-26 0 -45.5 -19.5t-30.5 -64.5
h-139z" />
    <glyph glyph-name="odieresis" unicode="&#xf6;" horiz-adv-x="1085" 
d="M485 -18q-151 0 -255 67t-144.5 194t-2.5 306q46 215 180 329t337 114q155 0 258 -67.5t142 -195.5t1 -309q-45 -215 -179 -326.5t-337 -111.5zM502 174q103 0 157.5 79t80.5 203q21 97 13 174.5t-49 123.5t-122 46q-70 0 -117 -37.5t-76 -102t-46 -145.5
q-19 -94 -10 -171.5t50.5 -123.5t118.5 -46zM846 1125q-47 0 -81.5 34t-34.5 82q0 49 34.5 83t81.5 34q49 0 83.5 -34t34.5 -83q0 -48 -34.5 -82t-83.5 -34zM464 1125q-48 0 -83 34t-35 82q0 49 35 83t83 34q47 0 81.5 -34t34.5 -83q0 -48 -34.5 -82t-81.5 -34z" />
    <glyph glyph-name="divide" unicode="&#xf7;" horiz-adv-x="1106" 
d="M114 773h938v-210h-938v210zM585 130q-76 0 -123.5 48t-47.5 115q0 74 47.5 118.5t124.5 44.5q74 0 121.5 -44.5t47.5 -118.5q0 -67 -47 -115t-123 -48zM585 880q-76 0 -123.5 48t-47.5 115q0 73 47.5 117.5t124.5 44.5q74 0 121.5 -44.5t47.5 -117.5q0 -67 -47 -115
t-123 -48z" />
    <glyph glyph-name="oslash" unicode="&#xf8;" horiz-adv-x="1086" 
d="M140 -93l-105 93l895 1061l107 -92zM485 -18q-151 0 -255 67t-144.5 194t-2.5 306q46 215 180 329t337 114q155 0 258 -67.5t142 -195.5t1 -309q-45 -215 -179 -326.5t-337 -111.5zM502 174q69 0 115.5 36t76.5 99.5t46 146.5q21 97 13 174.5t-49 123.5t-122 46
q-70 0 -117 -37.5t-76 -102t-46 -145.5q-19 -94 -10 -171.5t50.5 -123.5t118.5 -46z" />
    <glyph glyph-name="ugrave" unicode="&#xf9;" horiz-adv-x="1092" 
d="M335 -13q-92 0 -158 49.5t-92.5 141.5t0.5 218l125 580h264l-125 -587q-19 -89 9.5 -139.5t89.5 -50.5q45 0 85 18.5t76.5 48t69.5 63.5l137 647h263l-207 -976h-257l28 147q-39 -42 -83.5 -78.5t-99.5 -59t-125 -22.5zM621 1106l-246 276h276l150 -276h-180z" />
    <glyph glyph-name="uacute" unicode="&#xfa;" horiz-adv-x="1092" 
d="M335 -13q-92 0 -158 49.5t-92.5 141.5t0.5 218l125 580h264l-125 -587q-19 -89 9.5 -139.5t89.5 -50.5q45 0 85 18.5t76.5 48t69.5 63.5l137 647h263l-207 -976h-257l28 147q-39 -42 -83.5 -78.5t-99.5 -59t-125 -22.5zM524 1106l238 276h302l-342 -276h-198z" />
    <glyph glyph-name="ucircumflex" unicode="&#xfb;" horiz-adv-x="1092" 
d="M335 -13q-92 0 -158 49.5t-92.5 141.5t0.5 218l125 580h264l-125 -587q-19 -89 9.5 -139.5t89.5 -50.5q45 0 85 18.5t76.5 48t69.5 63.5l137 647h263l-207 -976h-257l28 147q-39 -42 -83.5 -78.5t-99.5 -59t-125 -22.5zM327 1106l273 276h242l152 -276h-187l-104 148
l-175 -148h-201z" />
    <glyph glyph-name="udieresis" unicode="&#xfc;" horiz-adv-x="1092" 
d="M335 -13q-92 0 -158 49.5t-92.5 141.5t0.5 218l125 580h264l-125 -587q-19 -89 9.5 -139.5t89.5 -50.5q45 0 85 18.5t76.5 48t69.5 63.5l137 647h263l-207 -976h-257l28 147q-39 -42 -83.5 -78.5t-99.5 -59t-125 -22.5zM877 1125q-47 0 -81.5 34t-34.5 82q0 49 34.5 83
t81.5 34q49 0 83.5 -34t34.5 -83q0 -48 -34.5 -82t-83.5 -34zM495 1125q-48 0 -83 34t-35 82q0 49 35 83t83 34q47 0 81.5 -34t34.5 -83q0 -48 -34.5 -82t-81.5 -34z" />
    <glyph glyph-name="yacute" unicode="&#xfd;" horiz-adv-x="973" 
d="M-86 -364l45 216h90q66 0 111 21.5t74 73.5l31 53l-179 976h267l97 -716l369 716h277l-599 -1047q-47 -84 -89 -140t-90 -89.5t-110.5 -48.5t-150.5 -15h-143zM467 1106l238 276h302l-342 -276h-198z" />
    <glyph glyph-name="thorn" unicode="&#xfe;" horiz-adv-x="1111" 
d="M-64 -359l367 1706h258l-106 -508q51 67 122 110t172 43q108 0 185 -65t105.5 -189.5t-9.5 -304.5q-49 -228 -166.5 -339.5t-277.5 -111.5q-94 0 -166 40t-116 113l-106 -494h-262zM550 184q83 0 135 70.5t81 205.5q24 110 14 183.5t-44.5 110.5t-84.5 37
q-55 0 -100.5 -24t-81.5 -62.5t-61 -80.5l-58 -283q23 -66 77 -111.5t123 -45.5z" />
    <glyph glyph-name="ydieresis" unicode="&#xff;" horiz-adv-x="973" 
d="M-86 -364l45 216h90q66 0 111 21.5t74 73.5l31 53l-179 976h267l97 -716l369 716h277l-599 -1047q-47 -84 -89 -140t-90 -89.5t-110.5 -48.5t-150.5 -15h-143zM820 1125q-47 0 -81.5 34t-34.5 82q0 49 34.5 83t81.5 34q49 0 83.5 -34t34.5 -83q0 -48 -34.5 -82t-83.5 -34
zM438 1125q-48 0 -83 34t-35 82q0 49 35 83t83 34q47 0 81.5 -34t34.5 -83q0 -48 -34.5 -82t-81.5 -34z" />
    <glyph glyph-name="Amacron" unicode="&#x100;" horiz-adv-x="1250" 
d="M-119 0l772 1346h294l199 -1346h-285l-33 296h-486l-162 -296h-299zM460 529h350l-62 539zM535 1504l30 147h565l-31 -147h-564z" />
    <glyph glyph-name="amacron" unicode="&#x101;" horiz-adv-x="1048" 
d="M298 -18q-92 0 -159 38.5t-96 112.5t-10 180q18 95 73.5 151.5t143 83.5t203 36.5t254.5 12.5l9 46q12 60 -2.5 97t-46.5 54t-74 17q-71 0 -125 -36.5t-68 -118.5h-248q26 177 146.5 256.5t308.5 79.5q85 0 159.5 -21.5t127 -70t72.5 -127t-4 -192.5l-123 -581h-244
l16 125q-64 -67 -135.5 -105t-177.5 -38zM394 165q54 0 101 24t84.5 58.5t64.5 64.5l32 139q-195 -1 -282 -32t-103 -116q-11 -64 18 -101t85 -37zM363 1157l30 147h564l-31 -147h-563z" />
    <glyph glyph-name="Abreve" unicode="&#x102;" horiz-adv-x="1250" 
d="M-119 0l772 1346h294l199 -1346h-285l-33 296h-486l-162 -296h-299zM460 529h350l-62 539zM818 1455q-143 0 -214.5 77.5t-60.5 198.5h134q-4 -73 43.5 -103t105.5 -30q40 0 81.5 11.5t75.5 40.5t52 81h131q-33 -130 -117 -203t-231 -73z" />
    <glyph glyph-name="abreve" unicode="&#x103;" horiz-adv-x="1048" 
d="M298 -18q-92 0 -159 38.5t-96 112.5t-10 180q18 95 73.5 151.5t143 83.5t203 36.5t254.5 12.5l9 46q12 60 -2.5 97t-46.5 54t-74 17q-71 0 -125 -36.5t-68 -118.5h-248q26 177 146.5 256.5t308.5 79.5q85 0 159.5 -21.5t127 -70t72.5 -127t-4 -192.5l-123 -581h-244
l16 125q-64 -67 -135.5 -105t-177.5 -38zM394 165q54 0 101 24t84.5 58.5t64.5 64.5l32 139q-195 -1 -282 -32t-103 -116q-11 -64 18 -101t85 -37zM650 1105q-145 0 -215 74.5t-55 202.5h130q-3 -52 19 -81.5t58.5 -41t76.5 -11.5q39 0 80.5 12t75.5 41t52 81h132
q-37 -127 -123 -202t-231 -75z" />
    <glyph glyph-name="Aogonek" unicode="&#x104;" horiz-adv-x="1250" 
d="M-119 0l772 1346h294l199 -1346h-285l-33 296h-486l-162 -296h-299zM460 529h350l-62 539zM918 -371q-88 0 -141 52t-37 138q15 74 90.5 135t186.5 82l89 -25q-80 -36 -122.5 -80t-49.5 -78q-5 -30 10 -47t47 -17t61.5 8.5t68.5 23.5l-30 -151q-35 -18 -75 -29.5
t-98 -11.5z" />
    <glyph glyph-name="aogonek" unicode="&#x105;" horiz-adv-x="1048" 
d="M298 -18q-92 0 -159 38.5t-96 112.5t-10 180q18 95 73.5 151.5t143 83.5t203 36.5t254.5 12.5l9 46q12 60 -2.5 97t-46.5 54t-74 17q-71 0 -125 -36.5t-68 -118.5h-248q26 177 146.5 256.5t308.5 79.5q85 0 159.5 -21.5t127 -70t72.5 -127t-4 -192.5l-123 -581h-244
l16 125q-64 -67 -135.5 -105t-177.5 -38zM394 165q54 0 101 24t84.5 58.5t64.5 64.5l32 139q-195 -1 -282 -32t-103 -116q-11 -64 18 -101t85 -37zM604 -371q-88 0 -141 52t-37 138q15 74 90.5 135t186.5 82l89 -25q-80 -36 -122.5 -80t-49.5 -78q-5 -30 10 -47t47 -17
t61.5 8.5t68.5 23.5l-30 -151q-35 -18 -75 -29.5t-98 -11.5z" />
    <glyph glyph-name="Cacute" unicode="&#x106;" horiz-adv-x="1391" 
d="M665 -18q-190 0 -322.5 87t-190 250t-20.5 393q33 206 128.5 352t244.5 223t341 77q156 0 272.5 -58t179.5 -165t59 -255h-287q0 78 -32.5 131.5t-88 82t-126.5 28.5q-122 0 -206.5 -59t-133.5 -160.5t-70 -228.5q-21 -133 -0.5 -238t87.5 -165t186 -60q125 0 208.5 66.5
t114.5 207.5h287q-55 -264 -216.5 -386.5t-414.5 -122.5zM762 1454l239 277h293l-334 -277h-198z" />
    <glyph glyph-name="cacute" unicode="&#x107;" horiz-adv-x="1048" 
d="M483 -18q-134 0 -236 61t-149.5 181t-19.5 298q39 235 174.5 352.5t340.5 117.5q124 0 214.5 -46t137 -130t38.5 -197h-257q2 45 -13 86.5t-48.5 68t-90.5 26.5q-101 0 -158.5 -82.5t-79.5 -218.5q-25 -159 22 -241.5t145 -82.5q79 0 128 49t64 141h257
q-37 -196 -155.5 -289.5t-313.5 -93.5zM478 1106l238 276h302l-342 -276h-198z" />
    <glyph glyph-name="Ccircumflex" unicode="&#x108;" horiz-adv-x="1391" 
d="M665 -18q-190 0 -322.5 87t-190 250t-20.5 393q33 206 128.5 352t244.5 223t341 77q156 0 272.5 -58t179.5 -165t59 -255h-287q0 78 -32.5 131.5t-88 82t-126.5 28.5q-122 0 -206.5 -59t-133.5 -160.5t-70 -228.5q-21 -133 -0.5 -238t87.5 -165t186 -60q125 0 208.5 66.5
t114.5 207.5h287q-55 -264 -216.5 -386.5t-414.5 -122.5zM555 1454l273 277h242l152 -277h-195l-93 161l-165 -161h-214z" />
    <glyph glyph-name="ccircumflex" unicode="&#x109;" horiz-adv-x="1048" 
d="M483 -18q-134 0 -236 61t-149.5 181t-19.5 298q39 235 174.5 352.5t340.5 117.5q124 0 214.5 -46t137 -130t38.5 -197h-257q2 45 -13 86.5t-48.5 68t-90.5 26.5q-101 0 -158.5 -82.5t-79.5 -218.5q-25 -159 22 -241.5t145 -82.5q79 0 128 49t64 141h257
q-37 -196 -155.5 -289.5t-313.5 -93.5zM281 1106l273 276h242l152 -276h-187l-104 148l-175 -148h-201z" />
    <glyph glyph-name="Cdotaccent" unicode="&#x10a;" horiz-adv-x="1391" 
d="M665 -18q-190 0 -322.5 87t-190 250t-20.5 393q33 206 128.5 352t244.5 223t341 77q156 0 272.5 -58t179.5 -165t59 -255h-287q0 78 -32.5 131.5t-88 82t-126.5 28.5q-122 0 -206.5 -59t-133.5 -160.5t-70 -228.5q-21 -133 -0.5 -238t87.5 -165t186 -60q125 0 208.5 66.5
t114.5 207.5h287q-55 -264 -216.5 -386.5t-414.5 -122.5zM909 1459q-72 0 -111 37t-39 92q0 57 39 93t111 36q73 0 111.5 -36t38.5 -93q0 -55 -38.5 -92t-111.5 -37z" />
    <glyph glyph-name="cdotaccent" unicode="&#x10b;" horiz-adv-x="1048" 
d="M483 -18q-134 0 -236 61t-149.5 181t-19.5 298q39 235 174.5 352.5t340.5 117.5q124 0 214.5 -46t137 -130t38.5 -197h-257q2 45 -13 86.5t-48.5 68t-90.5 26.5q-101 0 -158.5 -82.5t-79.5 -218.5q-25 -159 22 -241.5t145 -82.5q79 0 128 49t64 141h257
q-37 -196 -155.5 -289.5t-313.5 -93.5zM652 1107q-72 0 -111 37t-39 92q0 57 39 93t111 36q73 0 111.5 -36t38.5 -93q0 -55 -38.5 -92t-111.5 -37z" />
    <glyph glyph-name="Ccaron" unicode="&#x10c;" horiz-adv-x="1391" 
d="M665 -18q-190 0 -322.5 87t-190 250t-20.5 393q33 206 128.5 352t244.5 223t341 77q156 0 272.5 -58t179.5 -165t59 -255h-287q0 78 -32.5 131.5t-88 82t-126.5 28.5q-122 0 -206.5 -59t-133.5 -160.5t-70 -228.5q-21 -133 -0.5 -238t87.5 -165t186 -60q125 0 208.5 66.5
t114.5 207.5h287q-55 -264 -216.5 -386.5t-414.5 -122.5zM767 1454l-151 278h197l94 -160l164 160h211l-272 -278h-243z" />
    <glyph glyph-name="ccaron" unicode="&#x10d;" horiz-adv-x="1048" 
d="M483 -18q-134 0 -236 61t-149.5 181t-19.5 298q39 235 174.5 352.5t340.5 117.5q124 0 214.5 -46t137 -130t38.5 -197h-257q2 45 -13 86.5t-48.5 68t-90.5 26.5q-101 0 -158.5 -82.5t-79.5 -218.5q-25 -159 22 -241.5t145 -82.5q79 0 128 49t64 141h257
q-37 -196 -155.5 -289.5t-313.5 -93.5zM496 1106l-151 276h192l102 -145l168 145h204l-272 -276h-243z" />
    <glyph glyph-name="Dcaron" unicode="&#x10e;" horiz-adv-x="1393" 
d="M29 0l287 1346h423q164 0 288.5 -55.5t202 -157.5t101 -243t-12.5 -311q-65 -304 -270.5 -441.5t-539.5 -137.5h-479zM361 234h156q147 0 251.5 38t170 124t96.5 230q32 145 4.5 254.5t-109 170.5t-216.5 61h-166zM688 1454l-151 278h197l94 -160l164 160h211l-272 -278
h-243z" />
    <glyph glyph-name="dcaron" unicode="&#x10f;" horiz-adv-x="1111" 
d="M361 -18q-108 0 -184.5 64.5t-104.5 188.5t9 301q47 229 165 342.5t276 113.5q97 0 168 -42t115 -117l110 513h262l-286 -1347l-250 1l14 130q-52 -65 -123 -106.5t-171 -41.5zM458 183q55 0 101.5 25t83 63.5t60.5 79.5l56 278q-15 44 -44.5 81t-69 58.5t-86.5 21.5
q-85 0 -139 -73.5t-84 -215.5q-22 -104 -12.5 -175t45.5 -107t89 -36zM1160 1031l123 315h253l-208 -315h-168z" />
    <glyph glyph-name="Dcroat" unicode="&#x110;" horiz-adv-x="1393" 
d="M17 565l48 225h710l-48 -225h-710zM29 0l287 1346h423q164 0 288.5 -55.5t202 -157.5t101 -243t-12.5 -311q-65 -304 -270.5 -441.5t-539.5 -137.5h-479zM361 234h156q147 0 251.5 38t170 124t96.5 230q32 145 4.5 254.5t-109 170.5t-216.5 61h-166z" />
    <glyph glyph-name="dcroat" unicode="&#x111;" horiz-adv-x="1111" 
d="M617 1092l30 142h613l-29 -142h-614zM361 -18q-108 0 -184.5 64.5t-104.5 188.5t9 301q47 229 165 342.5t276 113.5q97 0 168 -42t115 -117l110 513h262l-286 -1347l-250 1l14 130q-52 -65 -123 -106.5t-171 -41.5zM458 183q55 0 101.5 25t83 63.5t60.5 79.5l56 278
q-15 44 -44.5 81t-69 58.5t-86.5 21.5q-85 0 -139 -73.5t-84 -215.5q-22 -104 -12.5 -175t45.5 -107t89 -36z" />
    <glyph glyph-name="Emacron" unicode="&#x112;" horiz-adv-x="1125" 
d="M29 0l287 1346h904l-49 -233h-623l-68 -313h564l-47 -225h-564l-74 -342h623l-49 -233h-904zM517 1505l30 147h565l-31 -147h-564z" />
    <glyph glyph-name="emacron" unicode="&#x113;" horiz-adv-x="1060" 
d="M481 -17q-149 0 -248 67t-139 188t-15 286q23 146 89 251t172.5 161t247.5 56q145 0 241.5 -69t135 -194t7.5 -293h-645q-8 -69 4.5 -129t53 -96.5t115.5 -36.5q74 0 124.5 34.5t69.5 115.5h261q-43 -175 -161.5 -258t-312.5 -83zM358 604h376q7 65 -10.5 110t-55 69.5
t-89.5 24.5q-87 0 -145 -52.5t-76 -151.5zM352 1157l30 147h564l-31 -147h-563z" />
    <glyph glyph-name="Ebreve" unicode="&#x114;" horiz-adv-x="1125" 
d="M29 0l287 1346h904l-49 -233h-623l-68 -313h564l-47 -225h-564l-74 -342h623l-49 -233h-904zM800 1456q-143 0 -214.5 77.5t-60.5 198.5h134q-4 -73 43.5 -103t105.5 -30q40 0 81.5 11.5t75.5 40.5t52 81h131q-33 -130 -117 -203t-231 -73z" />
    <glyph glyph-name="ebreve" unicode="&#x115;" horiz-adv-x="1060" 
d="M481 -17q-149 0 -248 67t-139 188t-15 286q23 146 89 251t172.5 161t247.5 56q145 0 241.5 -69t135 -194t7.5 -293h-645q-8 -69 4.5 -129t53 -96.5t115.5 -36.5q74 0 124.5 34.5t69.5 115.5h261q-43 -175 -161.5 -258t-312.5 -83zM358 604h376q7 65 -10.5 110t-55 69.5
t-89.5 24.5q-87 0 -145 -52.5t-76 -151.5zM639 1105q-145 0 -215 74.5t-55 202.5h130q-3 -52 19 -81.5t58.5 -41t76.5 -11.5q39 0 80.5 12t75.5 41t52 81h132q-37 -127 -123 -202t-231 -75z" />
    <glyph glyph-name="Edotaccent" unicode="&#x116;" horiz-adv-x="1125" 
d="M29 0l287 1346h904l-49 -233h-623l-68 -313h564l-47 -225h-564l-74 -342h623l-49 -233h-904zM811 1459q-72 0 -111 37t-39 92q0 57 39 93t111 36q73 0 111.5 -36t38.5 -93q0 -55 -38.5 -92t-111.5 -37z" />
    <glyph glyph-name="edotaccent" unicode="&#x117;" horiz-adv-x="1060" 
d="M481 -17q-149 0 -248 67t-139 188t-15 286q23 146 89 251t172.5 161t247.5 56q145 0 241.5 -69t135 -194t7.5 -293h-645q-8 -69 4.5 -129t53 -96.5t115.5 -36.5q74 0 124.5 34.5t69.5 115.5h261q-43 -175 -161.5 -258t-312.5 -83zM358 604h376q7 65 -10.5 110t-55 69.5
t-89.5 24.5q-87 0 -145 -52.5t-76 -151.5zM655 1107q-72 0 -111 37t-39 92q0 57 39 93t111 36q73 0 111.5 -36t38.5 -93q0 -55 -38.5 -92t-111.5 -37z" />
    <glyph glyph-name="Eogonek" unicode="&#x118;" horiz-adv-x="1125" 
d="M29 0l287 1346h904l-49 -233h-623l-68 -313h564l-47 -225h-564l-74 -342h623l-49 -233h-904zM674 -371q-88 0 -141 52t-37 138q15 74 90.5 135t186.5 82l89 -25q-80 -36 -122.5 -80t-49.5 -78q-5 -30 10 -47t47 -17t61.5 8.5t68.5 23.5l-30 -151q-35 -18 -75 -29.5
t-98 -11.5z" />
    <glyph glyph-name="eogonek" unicode="&#x119;" horiz-adv-x="1060" 
d="M481 -17q-149 0 -248 67t-139 188t-15 286q23 146 89 251t172.5 161t247.5 56q145 0 241.5 -69t135 -194t7.5 -293h-645q-8 -69 4.5 -129t53 -96.5t115.5 -36.5q74 0 124.5 34.5t69.5 115.5h261q-43 -175 -161.5 -258t-312.5 -83zM358 604h376q7 65 -10.5 110t-55 69.5
t-89.5 24.5q-87 0 -145 -52.5t-76 -151.5zM492 -371q-88 0 -141 52t-37 138q15 74 90.5 135t186.5 82l89 -25q-80 -36 -122.5 -80t-49.5 -78q-5 -30 10 -47t47 -17t61.5 8.5t68.5 23.5l-30 -151q-35 -18 -75 -29.5t-98 -11.5z" />
    <glyph glyph-name="Ecaron" unicode="&#x11a;" horiz-adv-x="1125" 
d="M29 0l287 1346h904l-49 -233h-623l-68 -313h564l-47 -225h-564l-74 -342h623l-49 -233h-904zM669 1454l-151 278h197l94 -160l164 160h211l-272 -278h-243z" />
    <glyph glyph-name="ecaron" unicode="&#x11b;" horiz-adv-x="1060" 
d="M481 -17q-149 0 -248 67t-139 188t-15 286q23 146 89 251t172.5 161t247.5 56q145 0 241.5 -69t135 -194t7.5 -293h-645q-8 -69 4.5 -129t53 -96.5t115.5 -36.5q74 0 124.5 34.5t69.5 115.5h261q-43 -175 -161.5 -258t-312.5 -83zM358 604h376q7 65 -10.5 110t-55 69.5
t-89.5 24.5q-87 0 -145 -52.5t-76 -151.5zM500 1106l-151 276h192l102 -145l168 145h204l-272 -276h-243z" />
    <glyph glyph-name="Gcircumflex" unicode="&#x11c;" horiz-adv-x="1402" 
d="M662 -19q-190 0 -322.5 88t-188.5 250.5t-20 384.5q31 196 123 345t243.5 232.5t360.5 83.5q98 0 188 -28t161 -85t113 -143.5t41 -203.5h-289q-2 64 -28 115t-79.5 80.5t-137.5 29.5q-126 0 -211 -63t-134 -165.5t-69 -221.5q-20 -126 -2.5 -231.5t85 -169.5t194.5 -64
q91 0 158 33.5t111.5 94.5t64.5 143h-313l37 224h604l-31 -151q-24 -125 -71.5 -230.5t-125 -183.5t-191.5 -121t-271 -43zM544 1453l273 277h242l152 -277h-195l-93 161l-165 -161h-214z" />
    <glyph glyph-name="gcircumflex" unicode="&#x11d;" horiz-adv-x="967" 
d="M339 -377q-164 0 -257.5 40t-127.5 102.5t-23 130.5q14 83 99.5 138t249.5 79l54 94h138q231 0 325 -77t69 -217q-24 -134 -157.5 -212t-369.5 -78zM359 -211q122 0 181 34.5t66 83.5q5 33 -8.5 55.5t-51 34.5t-104.5 12h-175q-35 -15 -58 -42.5t-28 -63.5
q-6 -47 33.5 -80.5t144.5 -33.5zM268 23q-93 11 -148 42t-76.5 74t-13.5 87q8 54 56 93.5t136 71.5l129 -47q-53 -15 -81.5 -32.5t-31.5 -42.5q-4 -18 12.5 -32t62.5 -21.5t130 -8.5zM463 311q-132 0 -218 49t-121 131.5t-17 184.5q17 89 70 159.5t144.5 111.5t220.5 41
q200 0 289.5 -102.5t60.5 -259.5q-15 -85 -65.5 -157t-140 -115t-223.5 -43zM475 470q67 0 112.5 44t60.5 127q19 98 -20 143.5t-100 45.5q-68 0 -114 -45.5t-61 -126.5q-13 -64 3 -105.5t49 -62t70 -20.5zM811 832l-61 102q35 72 83 112t109 57t136 17l-34 -193
q-76 0 -135 -17t-98 -78zM255 1108l273 276h242l152 -276h-187l-104 148l-175 -148h-201z" />
    <glyph glyph-name="Gbreve" unicode="&#x11e;" horiz-adv-x="1402" 
d="M662 -19q-190 0 -322.5 88t-188.5 250.5t-20 384.5q31 196 123 345t243.5 232.5t360.5 83.5q98 0 188 -28t161 -85t113 -143.5t41 -203.5h-289q-2 64 -28 115t-79.5 80.5t-137.5 29.5q-126 0 -211 -63t-134 -165.5t-69 -221.5q-20 -126 -2.5 -231.5t85 -169.5t194.5 -64
q91 0 158 33.5t111.5 94.5t64.5 143h-313l37 224h604l-31 -151q-24 -125 -71.5 -230.5t-125 -183.5t-191.5 -121t-271 -43zM888 1455q-143 0 -214.5 77.5t-60.5 198.5h134q-4 -73 43.5 -103t105.5 -30q40 0 81.5 11.5t75.5 40.5t52 81h131q-33 -130 -117 -203t-231 -73z" />
    <glyph glyph-name="gbreve" unicode="&#x11f;" horiz-adv-x="967" 
d="M339 -377q-164 0 -257.5 40t-127.5 102.5t-23 130.5q14 83 99.5 138t249.5 79l54 94h138q231 0 325 -77t69 -217q-24 -134 -157.5 -212t-369.5 -78zM359 -211q122 0 181 34.5t66 83.5q5 33 -8.5 55.5t-51 34.5t-104.5 12h-175q-35 -15 -58 -42.5t-28 -63.5
q-6 -47 33.5 -80.5t144.5 -33.5zM268 23q-93 11 -148 42t-76.5 74t-13.5 87q8 54 56 93.5t136 71.5l129 -47q-53 -15 -81.5 -32.5t-31.5 -42.5q-4 -18 12.5 -32t62.5 -21.5t130 -8.5zM463 311q-132 0 -218 49t-121 131.5t-17 184.5q17 89 70 159.5t144.5 111.5t220.5 41
q200 0 289.5 -102.5t60.5 -259.5q-15 -85 -65.5 -157t-140 -115t-223.5 -43zM475 470q67 0 112.5 44t60.5 127q19 98 -20 143.5t-100 45.5q-68 0 -114 -45.5t-61 -126.5q-13 -64 3 -105.5t49 -62t70 -20.5zM811 832l-61 102q35 72 83 112t109 57t136 17l-34 -193
q-76 0 -135 -17t-98 -78zM609 1107q-145 0 -215 74.5t-55 202.5h130q-3 -52 19 -81.5t58.5 -41t76.5 -11.5q39 0 80.5 12t75.5 41t52 81h132q-37 -127 -123 -202t-231 -75z" />
    <glyph glyph-name="Gdotaccent" unicode="&#x120;" horiz-adv-x="1402" 
d="M662 -19q-190 0 -322.5 88t-188.5 250.5t-20 384.5q31 196 123 345t243.5 232.5t360.5 83.5q98 0 188 -28t161 -85t113 -143.5t41 -203.5h-289q-2 64 -28 115t-79.5 80.5t-137.5 29.5q-126 0 -211 -63t-134 -165.5t-69 -221.5q-20 -126 -2.5 -231.5t85 -169.5t194.5 -64
q91 0 158 33.5t111.5 94.5t64.5 143h-313l37 224h604l-31 -151q-24 -125 -71.5 -230.5t-125 -183.5t-191.5 -121t-271 -43zM898 1458q-72 0 -111 37t-39 92q0 57 39 93t111 36q73 0 111.5 -36t38.5 -93q0 -55 -38.5 -92t-111.5 -37z" />
    <glyph glyph-name="gdotaccent" unicode="&#x121;" horiz-adv-x="967" 
d="M339 -377q-164 0 -257.5 40t-127.5 102.5t-23 130.5q14 83 99.5 138t249.5 79l54 94h138q231 0 325 -77t69 -217q-24 -134 -157.5 -212t-369.5 -78zM359 -211q122 0 181 34.5t66 83.5q5 33 -8.5 55.5t-51 34.5t-104.5 12h-175q-35 -15 -58 -42.5t-28 -63.5
q-6 -47 33.5 -80.5t144.5 -33.5zM268 23q-93 11 -148 42t-76.5 74t-13.5 87q8 54 56 93.5t136 71.5l129 -47q-53 -15 -81.5 -32.5t-31.5 -42.5q-4 -18 12.5 -32t62.5 -21.5t130 -8.5zM463 311q-132 0 -218 49t-121 131.5t-17 184.5q17 89 70 159.5t144.5 111.5t220.5 41
q200 0 289.5 -102.5t60.5 -259.5q-15 -85 -65.5 -157t-140 -115t-223.5 -43zM475 470q67 0 112.5 44t60.5 127q19 98 -20 143.5t-100 45.5q-68 0 -114 -45.5t-61 -126.5q-13 -64 3 -105.5t49 -62t70 -20.5zM811 832l-61 102q35 72 83 112t109 57t136 17l-34 -193
q-76 0 -135 -17t-98 -78zM626 1109q-72 0 -111 37t-39 92q0 57 39 93t111 36q73 0 111.5 -36t38.5 -93q0 -55 -38.5 -92t-111.5 -37z" />
    <glyph glyph-name="uni0122" unicode="&#x122;" horiz-adv-x="1402" 
d="M662 -19q-190 0 -322.5 88t-188.5 250.5t-20 384.5q31 196 123 345t243.5 232.5t360.5 83.5q98 0 188 -28t161 -85t113 -143.5t41 -203.5h-289q-2 64 -28 115t-79.5 80.5t-137.5 29.5q-126 0 -211 -63t-134 -165.5t-69 -221.5q-20 -126 -2.5 -231.5t85 -169.5t194.5 -64
q91 0 158 33.5t111.5 94.5t64.5 143h-313l37 224h604l-31 -151q-24 -125 -71.5 -230.5t-125 -183.5t-191.5 -121t-271 -43zM474 -419l-5 78q50 10 87.5 32t54.5 49q-57 2 -80.5 34t-14.5 76q8 39 39 63t90 24q61 0 92 -37.5t18 -103.5q-20 -92 -99 -147.5t-182 -67.5z" />
    <glyph glyph-name="uni0123" unicode="&#x123;" horiz-adv-x="967" 
d="M339 -377q-164 0 -257.5 40t-127.5 102.5t-23 130.5q14 83 99.5 138t249.5 79l54 94h138q231 0 325 -77t69 -217q-24 -134 -157.5 -212t-369.5 -78zM359 -211q122 0 181 34.5t66 83.5q5 33 -8.5 55.5t-51 34.5t-104.5 12h-175q-35 -15 -58 -42.5t-28 -63.5
q-6 -47 33.5 -80.5t144.5 -33.5zM268 23q-93 11 -148 42t-76.5 74t-13.5 87q8 54 56 93.5t136 71.5l129 -47q-53 -15 -81.5 -32.5t-31.5 -42.5q-4 -18 12.5 -32t62.5 -21.5t130 -8.5zM463 311q-132 0 -218 49t-121 131.5t-17 184.5q17 89 70 159.5t144.5 111.5t220.5 41
q200 0 289.5 -102.5t60.5 -259.5q-15 -85 -65.5 -157t-140 -115t-223.5 -43zM475 470q67 0 112.5 44t60.5 127q19 98 -20 143.5t-100 45.5q-68 0 -114 -45.5t-61 -126.5q-13 -64 3 -105.5t49 -62t70 -20.5zM811 832l-61 102q35 72 83 112t109 57t136 17l-34 -193
q-76 0 -135 -17t-98 -78zM573 1061q-63 0 -99 45.5t-19 123.5q13 58 57 106t107.5 79t132.5 37l4 -87q-45 -13 -84 -35t-61 -59q59 -6 82.5 -39t14.5 -79q-9 -40 -44 -66t-91 -26z" />
    <glyph glyph-name="Hcircumflex" unicode="&#x124;" horiz-adv-x="1398" 
d="M29 0l287 1346h281l-111 -526h570l112 526h280l-287 -1346h-280l121 572h-570l-122 -572h-281zM552 1454l273 277h242l152 -277h-195l-93 161l-165 -161h-214z" />
    <glyph glyph-name="hcircumflex" unicode="&#x125;" horiz-adv-x="1091" 
d="M12 0l287 1346h263l-112 -513q62 63 136.5 110t177.5 47q92 0 156.5 -45.5t89.5 -135t-4 -221.5l-124 -588h-265l126 590q21 96 -3 142t-87 46q-42 0 -83 -17.5t-79.5 -46t-75.5 -63.5l-140 -651h-263zM405 1476l273 276h242l152 -276h-187l-104 148l-175 -148h-201z" />
    <glyph glyph-name="Hbar" unicode="&#x126;" horiz-adv-x="1398" 
d="M126 1000l32 146h1361l-33 -146h-1360zM29 0l287 1346h281l-111 -526h570l112 526h280l-287 -1346h-280l121 572h-570l-122 -572h-281z" />
    <glyph glyph-name="hbar" unicode="&#x127;" horiz-adv-x="1090" 
d="M131 1092l30 142h616l-29 -142h-617zM11 0l287 1347h263l-112 -514q63 63 137 110t177 47q92 0 156.5 -45.5t89.5 -135t-3 -221.5l-125 -588h-265l126 590q21 96 -3 142t-87 46q-41 0 -82.5 -17.5t-80 -46t-74.5 -63.5l-141 -651h-263z" />
    <glyph glyph-name="Itilde" unicode="&#x128;" horiz-adv-x="547" 
d="M29 0l287 1346h281l-287 -1346h-281zM153 1459q27 129 85 183t133 54q48 0 83.5 -12t73.5 -29q39 -16 62.5 -25t43.5 -9q22 0 37 16t26 60h139q-27 -126 -78 -177.5t-129 -51.5q-42 0 -76.5 11t-75.5 29q-35 15 -60.5 25t-47.5 10q-27 0 -46 -19t-31 -65h-139z" />
    <glyph glyph-name="itilde" unicode="&#x129;" horiz-adv-x="496" 
d="M12 0l208 976h263l-208 -976h-263zM75 1111q26 129 84 183t133 54q48 0 83.5 -12t74.5 -29q38 -17 61.5 -26t43.5 -9q23 0 38 16.5t25 60.5h139q-27 -126 -77.5 -178t-129.5 -52q-41 0 -75.5 11.5t-75.5 29.5q-36 15 -61 25t-48 10q-26 0 -45.5 -19.5t-30.5 -64.5h-139z
" />
    <glyph glyph-name="Imacron" unicode="&#x12a;" horiz-adv-x="547" 
d="M29 0l287 1346h281l-287 -1346h-281zM207 1505l30 147h565l-31 -147h-564z" />
    <glyph glyph-name="imacron" unicode="&#x12b;" horiz-adv-x="494" 
d="M12 0l208 976h263l-208 -976h-263zM110 1157l30 147h564l-31 -147h-563z" />
    <glyph glyph-name="Ibreve" unicode="&#x12c;" horiz-adv-x="547" 
d="M29 0l287 1346h281l-287 -1346h-281zM490 1456q-143 0 -214.5 77.5t-60.5 198.5h134q-4 -73 43.5 -103t105.5 -30q40 0 81.5 11.5t75.5 40.5t52 81h131q-33 -130 -117 -203t-231 -73z" />
    <glyph glyph-name="ibreve" unicode="&#x12d;" horiz-adv-x="496" 
d="M12 0l208 976h263l-208 -976h-263zM397 1105q-145 0 -215 74.5t-55 202.5h130q-3 -52 19 -81.5t58.5 -41t76.5 -11.5q39 0 80.5 12t75.5 41t52 81h132q-37 -127 -123 -202t-231 -75z" />
    <glyph glyph-name="Iogonek" unicode="&#x12e;" horiz-adv-x="547" 
d="M29 0l287 1346h281l-287 -1346h-281zM96 -376q-88 0 -141 52t-37 138q15 74 90.5 135t186.5 82l89 -25q-80 -36 -122.5 -80t-49.5 -78q-5 -30 10 -47t47 -17t61.5 8.5t68.5 23.5l-30 -151q-35 -18 -75 -29.5t-98 -11.5z" />
    <glyph glyph-name="iogonek" unicode="&#x12f;" horiz-adv-x="496" 
d="M12 0l208 976h263l-208 -976h-263zM413 1107q-72 0 -111 37t-39 92q0 57 39 93t111 36q73 0 111.5 -36t38.5 -93q0 -55 -38.5 -92t-111.5 -37zM61 -371q-88 0 -141 52t-37 138q15 74 90.5 135t186.5 82l89 -25q-80 -36 -122.5 -80t-49.5 -78q-5 -30 10 -47t47 -17
t61.5 8.5t68.5 23.5l-30 -151q-35 -18 -75 -29.5t-98 -11.5z" />
    <glyph glyph-name="Idotaccent" unicode="&#x130;" horiz-adv-x="547" 
d="M29 0l287 1346h281l-287 -1346h-281zM492 1458q-72 0 -111 37t-39 92q0 57 39 93t111 36q73 0 111.5 -36t38.5 -93q0 -55 -38.5 -92t-111.5 -37z" />
    <glyph glyph-name="dotlessi" unicode="&#x131;" horiz-adv-x="496" 
d="M12 0l208 976h263l-208 -976h-263z" />
    <glyph glyph-name="IJ" unicode="&#x132;" horiz-adv-x="1260" 
d="M29 0l287 1346h281l-287 -1346h-281zM463 -16l51 239h93q104 0 164.5 54t87.5 178l189 891h275l-194 -917q-33 -155 -96.5 -253t-168 -145t-262.5 -47h-139z" />
    <glyph glyph-name="ij" unicode="&#x133;" horiz-adv-x="985" 
d="M11 0l207 976h265l-206 -976h-266zM395 1103q-73 0 -112 38.5t-39 91.5q0 54 39 91.5t112 37.5q72 0 110.5 -37.5t38.5 -91.5q0 -53 -38.5 -91.5t-110.5 -38.5zM243 -359l44 210h60q64 0 102 31t51 99l212 995h263l-213 -1009q-33 -150 -125 -238t-285 -88h-109z
M888 1103q-73 0 -112 38.5t-39 91.5q0 54 39 91.5t112 37.5q72 0 110.5 -37.5t38.5 -91.5q0 -53 -38.5 -91.5t-110.5 -38.5z" />
    <glyph glyph-name="Jcircumflex" unicode="&#x134;" horiz-adv-x="713" 
d="M-84 -16l51 239h93q104 0 164.5 54t87.5 178l189 891h275l-194 -917q-33 -155 -96.5 -253t-168 -145t-262.5 -47h-139zM310 1454l273 277h242l152 -277h-195l-93 161l-165 -161h-214z" />
    <glyph glyph-name="jcircumflex" unicode="&#x135;" horiz-adv-x="498" 
d="M-249 -359l44 210h58q65 0 105 33.5t58 118.5l205 973h263l-205 -975q-37 -173 -129 -266.5t-277 -93.5h-122zM26 1106l273 276h242l152 -276h-187l-104 148l-175 -148h-201z" />
    <glyph glyph-name="uni0136" unicode="&#x136;" horiz-adv-x="1235" 
d="M29 0l287 1346h281l-135 -635l608 635h321l-643 -656l390 -690h-305l-375 689l-147 -689h-282zM362 -419l-5 78q50 10 87.5 32t54.5 49q-57 2 -80.5 34t-14.5 76q8 39 39 63t90 24q61 0 92 -37.5t18 -103.5q-20 -92 -99 -147.5t-182 -67.5z" />
    <glyph glyph-name="uni0137" unicode="&#x137;" horiz-adv-x="1023" 
d="M12 0l287 1346h263l-175 -817l455 447h298l-488 -460l310 -516h-278l-299 515l-110 -515h-263zM279 -419l-5 78q50 10 87.5 32t54.5 49q-57 2 -80.5 34t-14.5 76q8 39 39 63t90 24q61 0 92 -37.5t18 -103.5q-20 -92 -99 -147.5t-182 -67.5z" />
    <glyph glyph-name="kgreenlandic" unicode="&#x138;" horiz-adv-x="1023" 
d="M12 0l209 976h263l-97 -447l455 447h298l-488 -460l310 -516h-278l-299 515l-110 -515h-263z" />
    <glyph glyph-name="Lacute" unicode="&#x139;" horiz-adv-x="1007" 
d="M29 0l287 1346h281l-235 -1099h569l-51 -247h-851zM354 1454l239 277h293l-334 -277h-198z" />
    <glyph glyph-name="lacute" unicode="&#x13a;" horiz-adv-x="572" 
d="M378 0q-144 0 -218.5 37.5t-91 118.5t11.5 211l207 979h265l-212 -990q-16 -78 3 -113.5t86 -35.5h59l-44 -207h-66zM338 1476l238 276h302l-342 -276h-198z" />
    <glyph glyph-name="uni013B" unicode="&#x13b;" horiz-adv-x="1007" 
d="M29 0l287 1346h281l-235 -1099h569l-51 -247h-851zM272 -419l-5 78q50 10 87.5 32t54.5 49q-57 2 -80.5 34t-14.5 76q8 39 39 63t90 24q61 0 92 -37.5t18 -103.5q-20 -92 -99 -147.5t-182 -67.5z" />
    <glyph glyph-name="uni013C" unicode="&#x13c;" horiz-adv-x="572" 
d="M378 0q-144 0 -218.5 37.5t-91 118.5t11.5 211l207 979h265l-212 -990q-16 -78 3 -113.5t86 -35.5h59l-44 -207h-66zM49 -419l-5 78q50 10 87.5 32t54.5 49q-57 2 -80.5 34t-14.5 76q8 39 39 63t90 24q61 0 92 -37.5t18 -103.5q-20 -92 -99 -147.5t-182 -67.5z" />
    <glyph glyph-name="Lcaron" unicode="&#x13d;" horiz-adv-x="1007" 
d="M29 0l287 1346h281l-235 -1099h569l-51 -247h-851zM682 1031l123 315h253l-208 -315h-168z" />
    <glyph glyph-name="lcaron" unicode="&#x13e;" horiz-adv-x="572" 
d="M378 0q-144 0 -218.5 37.5t-91 118.5t11.5 211l207 979h265l-212 -990q-16 -78 3 -113.5t86 -35.5h59l-44 -207h-66zM533 1031l123 315h253l-208 -315h-168z" />
    <glyph glyph-name="Ldot" unicode="&#x13f;" horiz-adv-x="1007" 
d="M29 0l287 1346h281l-235 -1099h569l-51 -247h-851zM787 597q-77 0 -125 47.5t-48 115.5q0 74 48 118t125 44q76 0 122 -44t46 -118q0 -68 -46 -115.5t-122 -47.5z" />
    <glyph glyph-name="ldot" unicode="&#x140;" horiz-adv-x="761" 
d="M378 0q-144 0 -218.5 37.5t-91 118.5t11.5 211l207 979h265l-212 -990q-16 -78 3 -113.5t86 -35.5h59l-44 -207h-66zM672 545q-77 0 -125 47.5t-48 115.5q0 74 48 118t125 44q76 0 122 -44t46 -118q0 -68 -46 -115.5t-122 -47.5z" />
    <glyph glyph-name="Lslash" unicode="&#x141;" horiz-adv-x="1007" 
d="M-24 350l48 224l766 377l-47 -224zM29 0l287 1346h281l-235 -1099h569l-51 -247h-851z" />
    <glyph glyph-name="lslash" unicode="&#x142;" horiz-adv-x="572" 
d="M-36 396l49 225l637 389l-49 -227zM378 0q-144 0 -218.5 37.5t-91 118.5t11.5 211l207 979h265l-212 -990q-16 -78 3 -113.5t86 -35.5h59l-44 -207h-66z" />
    <glyph glyph-name="Nacute" unicode="&#x143;" horiz-adv-x="1425" 
d="M29 0l287 1346h274l425 -940l196 940h264l-286 -1346h-275l-423 938l-199 -938h-263zM773 1454l239 277h293l-334 -277h-198z" />
    <glyph glyph-name="nacute" unicode="&#x144;" horiz-adv-x="1092" 
d="M13 0l207 976h257l-27 -143q58 63 131 110t182 47q91 0 156 -45t90 -135t-3 -225l-124 -585h-264l126 590q20 92 -3.5 140t-88.5 48t-125.5 -37t-110.5 -90l-139 -651h-264zM535 1106l238 276h302l-342 -276h-198z" />
    <glyph glyph-name="uni0145" unicode="&#x145;" horiz-adv-x="1425" 
d="M29 0l287 1346h274l425 -940l196 940h264l-286 -1346h-275l-423 938l-199 -938h-263zM436 -419l-5 78q50 10 87.5 32t54.5 49q-57 2 -80.5 34t-14.5 76q8 39 39 63t90 24q61 0 92 -37.5t18 -103.5q-20 -92 -99 -147.5t-182 -67.5z" />
    <glyph glyph-name="uni0146" unicode="&#x146;" horiz-adv-x="1092" 
d="M13 0l207 976h257l-27 -143q58 63 131 110t182 47q91 0 156 -45t90 -135t-3 -225l-124 -585h-264l126 590q20 92 -3.5 140t-88.5 48t-125.5 -37t-110.5 -90l-139 -651h-264zM268 -419l-5 78q50 10 87.5 32t54.5 49q-57 2 -80.5 34t-14.5 76q8 39 39 63t90 24
q61 0 92 -37.5t18 -103.5q-20 -92 -99 -147.5t-182 -67.5z" />
    <glyph glyph-name="Ncaron" unicode="&#x147;" horiz-adv-x="1425" 
d="M29 0l287 1346h274l425 -940l196 940h264l-286 -1346h-275l-423 938l-199 -938h-263zM778 1454l-151 278h197l94 -160l164 160h211l-272 -278h-243z" />
    <glyph glyph-name="ncaron" unicode="&#x148;" horiz-adv-x="1092" 
d="M13 0l207 976h257l-27 -143q58 63 131 110t182 47q91 0 156 -45t90 -135t-3 -225l-124 -585h-264l126 590q20 92 -3.5 140t-88.5 48t-125.5 -37t-110.5 -90l-139 -651h-264zM532 1106l-151 276h192l102 -145l168 145h204l-272 -276h-243z" />
    <glyph glyph-name="napostrophe" unicode="&#x149;" horiz-adv-x="1271" 
d="M192 0l207 976h257l-27 -143q58 63 131 110t182 47q91 0 156 -45t90 -135t-3 -225l-124 -585h-264l126 590q20 92 -3.5 140t-88.5 48t-125.5 -37t-110.5 -90l-139 -651h-264zM-61 745l-9 130q74 22 127.5 65.5t78.5 113.5l11 -14q-76 2 -113 54.5t-20 132.5q14 62 57 100
t112 38q89 0 135 -67t19 -193q-24 -115 -89 -189t-147.5 -114.5t-161.5 -56.5z" />
    <glyph glyph-name="Eng" unicode="&#x14a;" horiz-adv-x="1427" 
d="M542 -358l51 240h99q85 0 136.5 37t82.5 120l-418 899l-199 -938h-264l285 1346h276l428 -929l192 929h263l-261 -1235q-34 -163 -104.5 -267t-180.5 -153t-266 -49h-120z" />
    <glyph glyph-name="eng" unicode="&#x14b;" horiz-adv-x="1092" 
d="M355 -358l45 209h58q64 0 102.5 28t51.5 88l132 623q20 92 -3.5 140t-88.5 48t-125.5 -37t-110.5 -90l-139 -651h-264l207 976h257l-27 -143q58 63 131 110t182 47q91 0 156 -45t90 -135t-3 -225l-129 -610q-27 -128 -81 -200.5t-139.5 -102.5t-208.5 -30h-93z" />
    <glyph glyph-name="Omacron" unicode="&#x14c;" horiz-adv-x="1443" 
d="M660 -19q-200 0 -331.5 93.5t-183.5 260t-12 383.5q36 203 128.5 348t240.5 222.5t351 77.5q197 0 327.5 -93.5t183 -260.5t12.5 -390q-36 -199 -126.5 -343t-237.5 -221t-352 -77zM680 214q124 0 208.5 58.5t135 160.5t72.5 232q21 119 1.5 226t-84.5 173.5t-185 66.5
q-123 0 -207 -58t-134.5 -158.5t-72.5 -229.5q-21 -121 -2.5 -229t84 -175t184.5 -67zM609 1505l30 147h565l-31 -147h-564z" />
    <glyph glyph-name="omacron" unicode="&#x14d;" horiz-adv-x="1085" 
d="M485 -18q-151 0 -255 67t-144.5 194t-2.5 306q46 215 180 329t337 114q155 0 258 -67.5t142 -195.5t1 -309q-45 -215 -179 -326.5t-337 -111.5zM502 174q103 0 157.5 79t80.5 203q21 97 13 174.5t-49 123.5t-122 46q-70 0 -117 -37.5t-76 -102t-46 -145.5
q-19 -94 -10 -171.5t50.5 -123.5t118.5 -46zM363 1157l30 147h564l-31 -147h-563z" />
    <glyph glyph-name="Obreve" unicode="&#x14e;" horiz-adv-x="1443" 
d="M660 -19q-200 0 -331.5 93.5t-183.5 260t-12 383.5q36 203 128.5 348t240.5 222.5t351 77.5q197 0 327.5 -93.5t183 -260.5t12.5 -390q-36 -199 -126.5 -343t-237.5 -221t-352 -77zM680 214q124 0 208.5 58.5t135 160.5t72.5 232q21 119 1.5 226t-84.5 173.5t-185 66.5
q-123 0 -207 -58t-134.5 -158.5t-72.5 -229.5q-21 -121 -2.5 -229t84 -175t184.5 -67zM892 1456q-143 0 -214.5 77.5t-60.5 198.5h134q-4 -73 43.5 -103t105.5 -30q40 0 81.5 11.5t75.5 40.5t52 81h131q-33 -130 -117 -203t-231 -73z" />
    <glyph glyph-name="obreve" unicode="&#x14f;" horiz-adv-x="1085" 
d="M485 -18q-151 0 -255 67t-144.5 194t-2.5 306q46 215 180 329t337 114q155 0 258 -67.5t142 -195.5t1 -309q-45 -215 -179 -326.5t-337 -111.5zM502 174q103 0 157.5 79t80.5 203q21 97 13 174.5t-49 123.5t-122 46q-70 0 -117 -37.5t-76 -102t-46 -145.5
q-19 -94 -10 -171.5t50.5 -123.5t118.5 -46zM658 1105q-145 0 -215 74.5t-55 202.5h130q-3 -52 19 -81.5t58.5 -41t76.5 -11.5q39 0 80.5 12t75.5 41t52 81h132q-37 -127 -123 -202t-231 -75z" />
    <glyph glyph-name="Ohungarumlaut" unicode="&#x150;" horiz-adv-x="1443" 
d="M660 -19q-200 0 -331.5 93.5t-183.5 260t-12 383.5q36 203 128.5 348t240.5 222.5t351 77.5q197 0 327.5 -93.5t183 -260.5t12.5 -390q-36 -199 -126.5 -343t-237.5 -221t-352 -77zM680 214q124 0 208.5 58.5t135 160.5t72.5 232q21 119 1.5 226t-84.5 173.5t-185 66.5
q-123 0 -207 -58t-134.5 -158.5t-72.5 -229.5q-21 -121 -2.5 -229t84 -175t184.5 -67zM879 1454l238 277h211l-295 -277h-154zM557 1454l239 277h210l-295 -277h-154z" />
    <glyph glyph-name="ohungarumlaut" unicode="&#x151;" horiz-adv-x="1085" 
d="M485 -18q-151 0 -255 67t-144.5 194t-2.5 306q46 215 180 329t337 114q155 0 258 -67.5t142 -195.5t1 -309q-45 -215 -179 -326.5t-337 -111.5zM502 174q103 0 157.5 79t80.5 203q21 97 13 174.5t-49 123.5t-122 46q-70 0 -117 -37.5t-76 -102t-46 -145.5
q-19 -94 -10 -171.5t50.5 -123.5t118.5 -46zM682 1106l238 276h211l-295 -276h-154zM360 1106l239 276h210l-295 -276h-154z" />
    <glyph glyph-name="OE" unicode="&#x152;" horiz-adv-x="2048" 
d="M639 -18q-190 0 -318 94t-178.5 263t-6.5 395q38 195 128 336.5t231 218t330 76.5q123 0 217.5 -42t153 -129.5t74 -223t-20.5 -322.5q-42 -212 -118 -361t-197 -227t-295 -78zM683 215q122 0 203.5 58.5t131.5 160t75 231.5q25 126 6.5 231.5t-86.5 169.5t-191 64
q-120 0 -202.5 -58t-132.5 -158.5t-73 -229.5q-21 -121 -3 -228t84.5 -174t187.5 -67zM952 0l287 1346h904l-49 -233h-623l-68 -313h564l-47 -225h-564l-73 -342h622l-49 -233h-904z" />
    <glyph glyph-name="oe" unicode="&#x153;" horiz-adv-x="1731" 
d="M485 -17q-149 0 -253 68t-145.5 194t-4.5 298q46 220 180.5 333t337.5 113q147 0 242 -68t129.5 -194.5t-2.5 -299.5q-46 -219 -166 -331.5t-318 -112.5zM502 175q108 0 159.5 78.5t78.5 203.5q19 87 11.5 164.5t-48 126t-121.5 48.5q-106 0 -160.5 -80t-81.5 -202
q-18 -88 -8 -165t52.5 -125.5t117.5 -48.5zM1151 -16q-152 0 -249.5 66.5t-135.5 187.5t-14 286q23 146 88.5 250t171 159.5t246.5 55.5q145 0 241.5 -63.5t135.5 -186.5t8 -303h-650q-9 -69 5 -129t58 -96t122 -36q75 0 123 35t64 114h261q-44 -175 -162.5 -257.5
t-312.5 -82.5zM1022 604h389q7 65 -12.5 109.5t-59.5 68t-94 23.5q-86 0 -143.5 -51.5t-79.5 -149.5z" />
    <glyph glyph-name="Racute" unicode="&#x154;" horiz-adv-x="1241" 
d="M29 0l287 1346h480q146 0 250 -50t150.5 -146t17.5 -235q-26 -117 -114.5 -190t-237.5 -97q64 -12 105 -48t65.5 -100.5t36.5 -164.5l41 -315h-283l-29 260q-12 103 -30 158t-53 76t-96 21h-198l-110 -515h-282zM470 747h211q106 0 170 46.5t80 126.5q21 98 -26.5 148.5
t-137.5 50.5h-219zM655 1454l239 277h293l-334 -277h-198z" />
    <glyph glyph-name="racute" unicode="&#x155;" horiz-adv-x="702" 
d="M13 0l207 976h255l-32 -168q57 87 134 134t185 47h37l-47 -223h-24q-60 0 -116 -10.5t-105.5 -36t-90.5 -70.5l-139 -649h-264zM358 1106l238 276h302l-342 -276h-198z" />
    <glyph glyph-name="uni0156" unicode="&#x156;" horiz-adv-x="1241" 
d="M29 0l287 1346h480q146 0 250 -50t150.5 -146t17.5 -235q-26 -117 -114.5 -190t-237.5 -97q64 -12 105 -48t65.5 -100.5t36.5 -164.5l41 -315h-283l-29 260q-12 103 -30 158t-53 76t-96 21h-198l-110 -515h-282zM470 747h211q106 0 170 46.5t80 126.5q21 98 -26.5 148.5
t-137.5 50.5h-219zM403 -419l-5 78q50 10 87.5 32t54.5 49q-57 2 -80.5 34t-14.5 76q8 39 39 63t90 24q61 0 92 -37.5t18 -103.5q-20 -92 -99 -147.5t-182 -67.5z" />
    <glyph glyph-name="uni0157" unicode="&#x157;" horiz-adv-x="702" 
d="M13 0l207 976h255l-32 -168q57 87 134 134t185 47h37l-47 -223h-24q-60 0 -116 -10.5t-105.5 -36t-90.5 -70.5l-139 -649h-264zM-46 -419l-5 78q50 10 87.5 32t54.5 49q-57 2 -80.5 34t-14.5 76q8 39 39 63t90 24q61 0 92 -37.5t18 -103.5q-20 -92 -99 -147.5t-182 -67.5
z" />
    <glyph glyph-name="Rcaron" unicode="&#x158;" horiz-adv-x="1241" 
d="M29 0l287 1346h480q146 0 250 -50t150.5 -146t17.5 -235q-26 -117 -114.5 -190t-237.5 -97q64 -12 105 -48t65.5 -100.5t36.5 -164.5l41 -315h-283l-29 260q-12 103 -30 158t-53 76t-96 21h-198l-110 -515h-282zM470 747h211q106 0 170 46.5t80 126.5q21 98 -26.5 148.5
t-137.5 50.5h-219zM660 1454l-151 278h197l94 -160l164 160h211l-272 -278h-243z" />
    <glyph glyph-name="rcaron" unicode="&#x159;" horiz-adv-x="702" 
d="M13 0l207 976h255l-32 -168q57 87 134 134t185 47h37l-47 -223h-24q-60 0 -116 -10.5t-105.5 -36t-90.5 -70.5l-139 -649h-264zM376 1106l-151 276h192l102 -145l168 145h204l-272 -276h-243z" />
    <glyph glyph-name="Sacute" unicode="&#x15a;" horiz-adv-x="1175" 
d="M542 -17q-153 0 -265 45t-173.5 139.5t-61.5 244.5h287q3 -107 61.5 -155.5t173.5 -48.5q96 0 155.5 34.5t69.5 106.5q8 53 -11 93.5t-75.5 75t-162.5 69.5q-115 37 -200.5 98t-125 149.5t-20.5 209.5q19 110 86.5 181.5t175.5 106.5t245 33q135 -1 241 -42.5t167 -127.5
t63 -221h-288q-3 85 -57.5 129.5t-147.5 44.5q-81 0 -137.5 -31t-66.5 -95q-6 -40 11 -75.5t72 -69t165 -71.5q132 -44 217 -105.5t121 -149.5t16 -214q-19 -126 -90 -204t-184 -114t-261 -36zM610 1454l239 277h293l-334 -277h-198z" />
    <glyph glyph-name="sacute" unicode="&#x15b;" horiz-adv-x="991" 
d="M444 -18q-127 0 -226 34.5t-152.5 106.5t-48.5 182h247q-1 -81 50.5 -115t136.5 -34q72 0 113.5 25.5t49.5 68.5q6 36 -8.5 62t-60 50t-130.5 52q-166 56 -236 139.5t-45 209.5q24 112 133 170.5t279 58.5q121 0 213 -37t142.5 -107t45.5 -167h-247q2 65 -39 100.5
t-126 35.5q-58 0 -94.5 -17.5t-44.5 -54.5q-10 -48 41 -79.5t189 -78.5q158 -53 215.5 -134.5t37.5 -201.5q-21 -127 -126.5 -198t-308.5 -71zM446 1106l238 276h302l-342 -276h-198z" />
    <glyph glyph-name="Scircumflex" unicode="&#x15c;" horiz-adv-x="1175" 
d="M542 -17q-153 0 -265 45t-173.5 139.5t-61.5 244.5h287q3 -107 61.5 -155.5t173.5 -48.5q96 0 155.5 34.5t69.5 106.5q8 53 -11 93.5t-75.5 75t-162.5 69.5q-115 37 -200.5 98t-125 149.5t-20.5 209.5q19 110 86.5 181.5t175.5 106.5t245 33q135 -1 241 -42.5t167 -127.5
t63 -221h-288q-3 85 -57.5 129.5t-147.5 44.5q-81 0 -137.5 -31t-66.5 -95q-6 -40 11 -75.5t72 -69t165 -71.5q132 -44 217 -105.5t121 -149.5t16 -214q-19 -126 -90 -204t-184 -114t-261 -36zM403 1454l273 277h242l152 -277h-195l-93 161l-165 -161h-214z" />
    <glyph glyph-name="scircumflex" unicode="&#x15d;" horiz-adv-x="991" 
d="M444 -18q-127 0 -226 34.5t-152.5 106.5t-48.5 182h247q-1 -81 50.5 -115t136.5 -34q72 0 113.5 25.5t49.5 68.5q6 36 -8.5 62t-60 50t-130.5 52q-166 56 -236 139.5t-45 209.5q24 112 133 170.5t279 58.5q121 0 213 -37t142.5 -107t45.5 -167h-247q2 65 -39 100.5
t-126 35.5q-58 0 -94.5 -17.5t-44.5 -54.5q-10 -48 41 -79.5t189 -78.5q158 -53 215.5 -134.5t37.5 -201.5q-21 -127 -126.5 -198t-308.5 -71zM249 1106l273 276h242l152 -276h-187l-104 148l-175 -148h-201z" />
    <glyph glyph-name="Scedilla" unicode="&#x15e;" horiz-adv-x="1175" 
d="M542 -17q-153 0 -265 45t-173.5 139.5t-61.5 244.5h287q3 -107 61.5 -155.5t173.5 -48.5q96 0 155.5 34.5t69.5 106.5q8 53 -11 93.5t-75.5 75t-162.5 69.5q-115 37 -200.5 98t-125 149.5t-20.5 209.5q19 110 86.5 181.5t175.5 106.5t245 33q135 -1 241 -42.5t167 -127.5
t63 -221h-288q-3 85 -57.5 129.5t-147.5 44.5q-81 0 -137.5 -31t-66.5 -95q-6 -40 11 -75.5t72 -69t165 -71.5q132 -44 217 -105.5t121 -149.5t16 -214q-19 -126 -90 -204t-184 -114t-261 -36zM450 -379q-72 0 -119 11t-86 28l61 114q31 -14 71.5 -22.5t83.5 -8.5
q38 0 62.5 11.5t29.5 36.5q7 29 -17.5 49t-104.5 33l-43 7l167 171l91 -51l-68 -68l-49 22q95 -2 144 -53.5t33 -131.5q-13 -57 -51 -89.5t-91.5 -45.5t-113.5 -13z" />
    <glyph glyph-name="scedilla" unicode="&#x15f;" horiz-adv-x="991" 
d="M444 -18q-127 0 -226 34.5t-152.5 106.5t-48.5 182h247q-1 -81 50.5 -115t136.5 -34q72 0 113.5 25.5t49.5 68.5q6 36 -8.5 62t-60 50t-130.5 52q-166 56 -236 139.5t-45 209.5q24 112 133 170.5t279 58.5q121 0 213 -37t142.5 -107t45.5 -167h-247q2 65 -39 100.5
t-126 35.5q-58 0 -94.5 -17.5t-44.5 -54.5q-10 -48 41 -79.5t189 -78.5q158 -53 215.5 -134.5t37.5 -201.5q-21 -127 -126.5 -198t-308.5 -71zM333 -379q-72 0 -119 11t-86 28l61 114q31 -14 71.5 -22.5t83.5 -8.5q38 0 62.5 11.5t29.5 36.5q7 29 -17.5 49t-104.5 33l-43 7
l167 171l91 -51l-68 -68l-49 22q95 -2 144 -53.5t33 -131.5q-13 -57 -51 -89.5t-91.5 -45.5t-113.5 -13z" />
    <glyph glyph-name="Scaron" unicode="&#x160;" horiz-adv-x="1175" 
d="M542 -17q-153 0 -265 45t-173.5 139.5t-61.5 244.5h287q3 -107 61.5 -155.5t173.5 -48.5q96 0 155.5 34.5t69.5 106.5q8 53 -11 93.5t-75.5 75t-162.5 69.5q-115 37 -200.5 98t-125 149.5t-20.5 209.5q19 110 86.5 181.5t175.5 106.5t245 33q135 -1 241 -42.5t167 -127.5
t63 -221h-288q-3 85 -57.5 129.5t-147.5 44.5q-81 0 -137.5 -31t-66.5 -95q-6 -40 11 -75.5t72 -69t165 -71.5q132 -44 217 -105.5t121 -149.5t16 -214q-19 -126 -90 -204t-184 -114t-261 -36zM615 1454l-151 278h197l94 -160l164 160h211l-272 -278h-243z" />
    <glyph glyph-name="scaron" unicode="&#x161;" horiz-adv-x="991" 
d="M444 -18q-127 0 -226 34.5t-152.5 106.5t-48.5 182h247q-1 -81 50.5 -115t136.5 -34q72 0 113.5 25.5t49.5 68.5q6 36 -8.5 62t-60 50t-130.5 52q-166 56 -236 139.5t-45 209.5q24 112 133 170.5t279 58.5q121 0 213 -37t142.5 -107t45.5 -167h-247q2 65 -39 100.5
t-126 35.5q-58 0 -94.5 -17.5t-44.5 -54.5q-10 -48 41 -79.5t189 -78.5q158 -53 215.5 -134.5t37.5 -201.5q-21 -127 -126.5 -198t-308.5 -71zM464 1106l-151 276h192l102 -145l168 145h204l-272 -276h-243z" />
    <glyph glyph-name="uni0162" unicode="&#x162;" horiz-adv-x="1022" 
d="M267 0l235 1112h-357l51 234h998l-51 -234h-360l-236 -1112h-280zM299 -379q-72 0 -119 11t-86 28l61 114q31 -14 71.5 -22.5t83.5 -8.5q38 0 62.5 11.5t29.5 36.5q7 29 -17.5 49t-104.5 33l-43 7l167 171l91 -51l-68 -68l-49 22q95 -2 144 -53.5t33 -131.5
q-13 -57 -51 -89.5t-91.5 -45.5t-113.5 -13z" />
    <glyph glyph-name="uni0163" unicode="&#x163;" horiz-adv-x="683" 
d="M462 0q-148 0 -225.5 41t-96.5 123t7 204l85 404h-162l45 204h162l49 230h263l-49 -230h215l-44 -204h-215l-87 -416q-15 -71 2.5 -110t87.5 -39h90l-41 -207h-86zM206 -375q-72 0 -119 11t-86 28l61 114q31 -14 71.5 -22.5t83.5 -8.5q38 0 62.5 11.5t29.5 36.5
q7 29 -17.5 49t-104.5 33l-43 7l167 171l91 -51l-68 -68l-49 22q95 -2 144 -53.5t33 -131.5q-13 -57 -51 -89.5t-91.5 -45.5t-113.5 -13z" />
    <glyph glyph-name="Tcaron" unicode="&#x164;" horiz-adv-x="1022" 
d="M267 0l235 1112h-357l51 234h998l-51 -234h-360l-236 -1112h-280zM595 1453l-151 278h197l94 -160l164 160h211l-272 -278h-243z" />
    <glyph glyph-name="tcaron" unicode="&#x165;" horiz-adv-x="683" 
d="M462 0q-148 0 -225.5 41t-96.5 123t7 204l85 404h-162l45 204h162l49 230h263l-49 -230h215l-44 -204h-215l-87 -416q-15 -71 2.5 -110t87.5 -39h90l-41 -207h-86zM635 1062l123 315h253l-208 -315h-168z" />
    <glyph glyph-name="Tbar" unicode="&#x166;" horiz-adv-x="1022" 
d="M163 522l47 224h711l-47 -224h-711zM267 0l235 1112h-357l51 234h998l-51 -234h-360l-236 -1112h-280z" />
    <glyph glyph-name="tbar" unicode="&#x167;" horiz-adv-x="683" 
d="M8 441l29 142h611l-29 -142h-611zM462 0q-148 0 -225.5 41t-96.5 123t7 204l85 404h-162l45 204h162l49 230h263l-49 -230h215l-44 -204h-215l-87 -416q-15 -71 2.5 -110t87.5 -39h90l-41 -207h-86z" />
    <glyph glyph-name="Utilde" unicode="&#x168;" horiz-adv-x="1371" 
d="M628 -18q-194 0 -316.5 72t-166 210t-1.5 335l158 747h288l-161 -762q-26 -123 -7.5 -205t77 -123t154.5 -41q139 0 214.5 80.5t110.5 246.5l168 804h288l-171 -805q-41 -191 -116.5 -315t-201 -184t-317.5 -60zM568 1459q27 129 85 183t133 54q48 0 83.5 -12t73.5 -29
q39 -16 62.5 -25t43.5 -9q22 0 37 16t26 60h139q-27 -126 -78 -177.5t-129 -51.5q-42 0 -76.5 11t-75.5 29q-35 15 -60.5 25t-47.5 10q-27 0 -46 -19t-31 -65h-139z" />
    <glyph glyph-name="utilde" unicode="&#x169;" horiz-adv-x="1092" 
d="M335 -13q-92 0 -158 49.5t-92.5 141.5t0.5 218l125 580h264l-125 -587q-19 -89 9.5 -139.5t89.5 -50.5q45 0 85 18.5t76.5 48t69.5 63.5l137 647h263l-207 -976h-257l28 147q-39 -42 -83.5 -78.5t-99.5 -59t-125 -22.5zM359 1111q26 129 84 183t133 54q48 0 83.5 -12
t74.5 -29q38 -17 61.5 -26t43.5 -9q23 0 38 16.5t25 60.5h139q-27 -126 -77.5 -178t-129.5 -52q-41 0 -75.5 11.5t-75.5 29.5q-36 15 -61 25t-48 10q-26 0 -45.5 -19.5t-30.5 -64.5h-139z" />
    <glyph glyph-name="Umacron" unicode="&#x16a;" horiz-adv-x="1371" 
d="M628 -18q-194 0 -316.5 72t-166 210t-1.5 335l158 747h288l-161 -762q-26 -123 -7.5 -205t77 -123t154.5 -41q139 0 214.5 80.5t110.5 246.5l168 804h288l-171 -805q-41 -191 -116.5 -315t-201 -184t-317.5 -60zM608 1505l30 147h565l-31 -147h-564z" />
    <glyph glyph-name="umacron" unicode="&#x16b;" horiz-adv-x="1092" 
d="M335 -13q-92 0 -158 49.5t-92.5 141.5t0.5 218l125 580h264l-125 -587q-19 -89 9.5 -139.5t89.5 -50.5q45 0 85 18.5t76.5 48t69.5 63.5l137 647h263l-207 -976h-257l28 147q-39 -42 -83.5 -78.5t-99.5 -59t-125 -22.5zM394 1157l30 147h564l-31 -147h-563z" />
    <glyph glyph-name="Ubreve" unicode="&#x16c;" horiz-adv-x="1371" 
d="M628 -18q-194 0 -316.5 72t-166 210t-1.5 335l158 747h288l-161 -762q-26 -123 -7.5 -205t77 -123t154.5 -41q139 0 214.5 80.5t110.5 246.5l168 804h288l-171 -805q-41 -191 -116.5 -315t-201 -184t-317.5 -60zM891 1456q-143 0 -214.5 77.5t-60.5 198.5h134
q-4 -73 43.5 -103t105.5 -30q40 0 81.5 11.5t75.5 40.5t52 81h131q-33 -130 -117 -203t-231 -73z" />
    <glyph glyph-name="ubreve" unicode="&#x16d;" horiz-adv-x="1092" 
d="M335 -13q-92 0 -158 49.5t-92.5 141.5t0.5 218l125 580h264l-125 -587q-19 -89 9.5 -139.5t89.5 -50.5q45 0 85 18.5t76.5 48t69.5 63.5l137 647h263l-207 -976h-257l28 147q-39 -42 -83.5 -78.5t-99.5 -59t-125 -22.5zM681 1105q-145 0 -215 74.5t-55 202.5h130
q-3 -52 19 -81.5t58.5 -41t76.5 -11.5q39 0 80.5 12t75.5 41t52 81h132q-37 -127 -123 -202t-231 -75z" />
    <glyph glyph-name="Uring" unicode="&#x16e;" horiz-adv-x="1371" 
d="M628 -18q-194 0 -316.5 72t-166 210t-1.5 335l158 747h288l-161 -762q-26 -123 -7.5 -205t77 -123t154.5 -41q139 0 214.5 80.5t110.5 246.5l168 804h288l-171 -805q-41 -191 -116.5 -315t-201 -184t-317.5 -60zM883 1377q-87 0 -148 55.5t-61 140.5q0 92 59 151.5
t150 59.5q88 0 148 -57.5t60 -146.5q0 -88 -60 -145.5t-148 -57.5zM883 1482q41 0 69.5 28.5t28.5 69.5q0 42 -28.5 70.5t-69.5 28.5t-69.5 -28.5t-28.5 -70.5q0 -41 28 -69.5t70 -28.5z" />
    <glyph glyph-name="uring" unicode="&#x16f;" horiz-adv-x="1092" 
d="M335 -13q-92 0 -158 49.5t-92.5 141.5t0.5 218l125 580h264l-125 -587q-19 -89 9.5 -139.5t89.5 -50.5q45 0 85 18.5t76.5 48t69.5 63.5l137 647h263l-207 -976h-257l28 147q-39 -42 -83.5 -78.5t-99.5 -59t-125 -22.5zM672 1073q-86 0 -147 56t-61 143q0 92 59 151.5
t149 59.5q89 0 149 -57.5t60 -146.5t-60 -147.5t-149 -58.5zM672 1181q42 0 70 28.5t28 69.5q0 42 -28 70t-69 28q-42 0 -70 -28t-28 -70q0 -41 28 -69.5t69 -28.5z" />
    <glyph glyph-name="Uhungarumlaut" unicode="&#x170;" horiz-adv-x="1371" 
d="M628 -18q-194 0 -316.5 72t-166 210t-1.5 335l158 747h288l-161 -762q-26 -123 -7.5 -205t77 -123t154.5 -41q139 0 214.5 80.5t110.5 246.5l168 804h288l-171 -805q-41 -191 -116.5 -315t-201 -184t-317.5 -60zM919 1454l238 277h211l-295 -277h-154zM597 1454l239 277
h210l-295 -277h-154z" />
    <glyph glyph-name="uhungarumlaut" unicode="&#x171;" horiz-adv-x="1092" 
d="M335 -13q-92 0 -158 49.5t-92.5 141.5t0.5 218l125 580h264l-125 -587q-19 -89 9.5 -139.5t89.5 -50.5q45 0 85 18.5t76.5 48t69.5 63.5l137 647h263l-207 -976h-257l28 147q-39 -42 -83.5 -78.5t-99.5 -59t-125 -22.5zM713 1106l238 276h211l-295 -276h-154zM391 1106
l239 276h210l-295 -276h-154z" />
    <glyph glyph-name="Uogonek" unicode="&#x172;" horiz-adv-x="1371" 
d="M628 -18q-194 0 -316.5 72t-166 210t-1.5 335l158 747h288l-161 -762q-26 -123 -7.5 -205t77 -123t154.5 -41q139 0 214.5 80.5t110.5 246.5l168 804h288l-171 -805q-41 -191 -116.5 -315t-201 -184t-317.5 -60zM631 -371q-88 0 -141 52t-37 138q15 74 90.5 135t186.5 82
l89 -25q-80 -36 -122.5 -80t-49.5 -78q-5 -30 10 -47t47 -17t61.5 8.5t68.5 23.5l-30 -151q-35 -18 -75 -29.5t-98 -11.5z" />
    <glyph glyph-name="uogonek" unicode="&#x173;" horiz-adv-x="1092" 
d="M335 -13q-92 0 -158 49.5t-92.5 141.5t0.5 218l125 580h264l-125 -587q-19 -89 9.5 -139.5t89.5 -50.5q45 0 85 18.5t76.5 48t69.5 63.5l137 647h263l-207 -976h-257l28 147q-39 -42 -83.5 -78.5t-99.5 -59t-125 -22.5zM647 -371q-88 0 -141 52t-37 138q15 74 90.5 135
t186.5 82l89 -25q-80 -36 -122.5 -80t-49.5 -78q-5 -30 10 -47t47 -17t61.5 8.5t68.5 23.5l-30 -151q-35 -18 -75 -29.5t-98 -11.5z" />
    <glyph glyph-name="Wcircumflex" unicode="&#x174;" horiz-adv-x="1885" 
d="M283 0l-99 1346h283l27 -1012l484 1012h283l54 -1012l458 1012h294l-674 -1346h-291l-50 1005l-474 -1005h-295zM817 1454l273 277h242l152 -277h-195l-93 161l-165 -161h-214z" />
    <glyph glyph-name="wcircumflex" unicode="&#x175;" horiz-adv-x="1531" 
d="M193 0l-100 976h263l42 -689l335 689h278l45 -688l332 688h256l-515 -976h-271l-47 702l-348 -702h-270zM544 1106l273 276h242l152 -276h-187l-104 148l-175 -148h-201z" />
    <glyph glyph-name="Ycircumflex" unicode="&#x176;" horiz-adv-x="1172" 
d="M338 0l109 503l-264 843h298l154 -585l397 585h322l-620 -843l-108 -503h-288zM434 1454l273 277h242l152 -277h-195l-93 161l-165 -161h-214z" />
    <glyph glyph-name="ycircumflex" unicode="&#x177;" horiz-adv-x="973" 
d="M-86 -364l45 216h90q66 0 111 21.5t74 73.5l31 53l-179 976h267l97 -716l369 716h277l-599 -1047q-47 -84 -89 -140t-90 -89.5t-110.5 -48.5t-150.5 -15h-143zM270 1106l273 276h242l152 -276h-187l-104 148l-175 -148h-201z" />
    <glyph glyph-name="Ydieresis" unicode="&#x178;" horiz-adv-x="1172" 
d="M338 0l109 503l-264 843h298l154 -585l397 585h322l-620 -843l-108 -503h-288zM969 1473q-47 0 -82 35t-35 82q0 49 35 83.5t82 34.5q48 0 82.5 -34.5t34.5 -83.5q0 -47 -34.5 -82t-82.5 -35zM586 1473q-48 0 -82.5 35t-34.5 82q0 49 34.5 83.5t82.5 34.5
q47 0 81.5 -34.5t34.5 -83.5q0 -47 -34.5 -82t-81.5 -35z" />
    <glyph glyph-name="Zacute" unicode="&#x179;" horiz-adv-x="1114" 
d="M-59 0l46 222l826 890h-584l50 234h929l-46 -210l-834 -902h688l-50 -234h-1025zM598 1454l239 277h293l-334 -277h-198z" />
    <glyph glyph-name="zacute" unicode="&#x17a;" horiz-adv-x="921" 
d="M-44 0l41 192l568 580h-406l45 204h730l-39 -185l-573 -586h480l-44 -205h-802zM456 1106l238 276h302l-342 -276h-198z" />
    <glyph glyph-name="Zdotaccent" unicode="&#x17b;" horiz-adv-x="1114" 
d="M-59 0l46 222l826 890h-584l50 234h929l-46 -210l-834 -902h688l-50 -234h-1025zM770 1458q-72 0 -111 37t-39 92q0 57 39 93t111 36q73 0 111.5 -36t38.5 -93q0 -55 -38.5 -92t-111.5 -37z" />
    <glyph glyph-name="zdotaccent" unicode="&#x17c;" horiz-adv-x="921" 
d="M-44 0l41 192l568 580h-406l45 204h730l-39 -185l-573 -586h480l-44 -205h-802zM630 1107q-72 0 -111 37t-39 92q0 57 39 93t111 36q73 0 111.5 -36t38.5 -93q0 -55 -38.5 -92t-111.5 -37z" />
    <glyph glyph-name="Zcaron" unicode="&#x17d;" horiz-adv-x="1114" 
d="M-59 0l46 222l826 890h-584l50 234h929l-46 -210l-834 -902h688l-50 -234h-1025zM629 1453l-151 278h197l94 -160l164 160h211l-272 -278h-243z" />
    <glyph glyph-name="zcaron" unicode="&#x17e;" horiz-adv-x="921" 
d="M-44 0l41 192l568 580h-406l45 204h730l-39 -185l-573 -586h480l-44 -205h-802zM474 1106l-151 276h192l102 -145l168 145h204l-272 -276h-243z" />
    <glyph glyph-name="longs" unicode="&#x17f;" horiz-adv-x="603" 
d="M67 0l165 772h-163l43 204h162l7 31q29 120 76 194.5t127.5 109.5t208.5 35h133l-42 -192h-88q-72 0 -103 -33t-47 -114l-214 -1007h-265z" />
    <glyph glyph-name="uni0181" unicode="&#x181;" horiz-adv-x="1489" 
d="M98 891l22 104q26 123 84.5 200t155.5 114t236 37l-26 -227q-104 0 -156 -33.5t-71 -111.5l-19 -83h-226zM303 0l286 1346l407 1q153 1 253 -50t141.5 -141.5t15.5 -209.5q-20 -93 -92 -153t-168 -82q73 -21 129.5 -70.5t82.5 -124t5 -173.5q-24 -118 -102 -194
t-201 -112.5t-284 -36.5h-473zM634 233h178q106 0 177 35t90 122q22 100 -34.5 148t-158.5 48h-178zM754 801h135q105 0 165 39.5t75 111.5q17 82 -30.5 124.5t-133.5 42.5h-142z" />
    <glyph glyph-name="uni0186" unicode="&#x186;" horiz-adv-x="1363" 
d="M620 -18q-151 0 -268.5 58t-182 165.5t-57.5 253.5h288q0 -76 30 -131t83 -83.5t119 -28.5q119 0 198.5 57.5t127 159.5t68.5 234q21 133 3 237t-78.5 164.5t-168.5 60.5q-126 0 -209 -67t-112 -207h-287q36 176 120 288t211 166.5t292 54.5q188 0 315 -89t179.5 -254.5
t15.5 -396.5q-33 -212 -122 -355t-230 -215t-335 -72z" />
    <glyph glyph-name="uni0189" unicode="&#x189;" horiz-adv-x="1393" 
d="M17 565l48 225h710l-48 -225h-710zM29 0l287 1346h423q164 0 288.5 -55.5t202 -157.5t101 -243t-12.5 -311q-65 -304 -270.5 -441.5t-539.5 -137.5h-479zM361 234h156q147 0 251.5 38t170 124t96.5 230q32 145 4.5 254.5t-109 170.5t-216.5 61h-166z" />
    <glyph glyph-name="uni018A" unicode="&#x18a;" horiz-adv-x="1666" 
d="M98 891l22 104q26 123 85 200t155.5 114t235.5 37l-26 -227q-104 0 -156 -33.5t-71 -111.5l-19 -83h-226zM302 0l287 1346h423q165 0 289 -55.5t201.5 -157.5t101 -243t-12.5 -311q-65 -304 -270.5 -441.5t-538.5 -137.5h-480zM634 234h156q147 0 251.5 38t170 124
t96.5 230q32 145 4.5 254.5t-109 170.5t-215.5 61h-167z" />
    <glyph glyph-name="uni018E" unicode="&#x18e;" horiz-adv-x="1124" 
d="M-16 0l49 233h623l73 342h-564l48 225h563l69 313h-623l49 233h903l-286 -1346h-904z" />
    <glyph glyph-name="uni018F" unicode="&#x18f;" horiz-adv-x="1468" 
d="M701 -18q-200 0 -339 86.5t-199.5 253.5t-28.5 409h992q13 119 -14 208.5t-96 139.5t-181 50q-129 0 -223 -56t-140 -174h-293q43 147 130.5 250.5t222.5 159t320 55.5q152 0 269.5 -53t191.5 -154.5t96.5 -247.5t-16.5 -331t-125 -319t-226 -205.5t-341 -71.5zM410 515
q-2 -139 77 -219t228 -80q99 0 169 36t118 103t78 160h-670z" />
    <glyph glyph-name="uni0190" unicode="&#x190;" horiz-adv-x="1166" 
d="M531 -17q-162 0 -272 57.5t-156.5 159.5t-18.5 237q25 114 111 186t217 93q-89 38 -136.5 133t-21.5 217q31 146 157 222.5t306 76.5q127 0 228 -49t157.5 -140t50.5 -217h-273q4 81 -39 131.5t-140 50.5q-77 0 -123.5 -34t-60.5 -96q-18 -84 25.5 -140.5t143.5 -56.5h91
l-47 -221h-85q-109 0 -184.5 -38t-94.5 -130q-21 -102 31.5 -160t151.5 -58q111 0 173 56.5t80 154.5h273q-26 -146 -91 -243t-176.5 -144.5t-276.5 -47.5z" />
    <glyph glyph-name="uni0191" unicode="&#x191;" horiz-adv-x="1058" 
d="M-194 -358l51 240h41q57 0 90 35t46 97l282 1332h880l-48 -233h-600l-65 -315h537l-48 -223h-538l-120 -563q-40 -189 -148 -279.5t-298 -90.5h-62z" />
    <glyph glyph-name="florin" unicode="&#x192;" horiz-adv-x="655" 
d="M-195 -359l45 210h57q65 0 104 31t54 99l166 791h-162l44 204h162l6 31q20 89 50.5 153.5t81 105.5t127.5 60.5t188 19.5h97l-40 -192h-88q-76 0 -105.5 -36.5t-45.5 -113.5l-7 -28h209l-44 -204h-207l-164 -771q-25 -116 -80.5 -196t-143.5 -122t-211 -42h-93z" />
    <glyph glyph-name="uni0194" unicode="&#x194;" horiz-adv-x="1139" 
d="M501 -20q-90 0 -150 25.5t-93.5 69.5t-42 100t4.5 117q9 40 30 85.5t60 102.5t97.5 127.5t141.5 159.5l57 61l22 18l385 500h323l-695 -801q-76 -87 -123.5 -156t-58.5 -122q-8 -42 6.5 -65t45.5 -23q28 0 47.5 21t26.5 60q14 64 -3.5 138t-49.5 149l-363 799h308
l191 -500l16 -23l26 -61q53 -123 85 -215t42 -169t-7 -154q-23 -113 -103.5 -178.5t-225.5 -65.5z" />
    <glyph glyph-name="uni0198" unicode="&#x198;" horiz-adv-x="1234" 
d="M29 0l287 1346h281l-136 -642l331 364q95 103 169.5 164t155 87.5t190.5 26.5h60l-50 -241h-30q-53 0 -98.5 -13t-93.5 -47.5t-111 -100.5l-242 -255l395 -689h-304l-375 689l-148 -689h-281z" />
    <glyph glyph-name="uni0199" unicode="&#x199;" horiz-adv-x="1023" 
d="M13 0l217 1028q22 97 70.5 168.5t127.5 110.5t190 39h121l-45 -210h-57q-60 0 -96.5 -32t-51.5 -100l-100 -475l455 447h298l-488 -460l309 -516h-278l-298 515l-110 -515h-264z" />
    <glyph glyph-name="Ohorn" unicode="&#x1a0;" horiz-adv-x="1521" 
d="M1318 955l-9 111q84 20 145.5 58t89.5 99l11 -13q-65 2 -97.5 50t-19.5 112q11 57 52 87.5t96 30.5q81 0 121.5 -54t22.5 -148q-20 -103 -86.5 -172t-153.5 -108t-172 -53zM660 -19q-200 0 -331.5 93.5t-183.5 260t-12 383.5q36 203 128.5 348t240.5 222.5t351 77.5
q197 0 327.5 -93.5t183 -260.5t12.5 -390q-36 -199 -126.5 -343t-237.5 -221t-352 -77zM680 214q124 0 208.5 58.5t135 160.5t72.5 232q21 119 1.5 226t-84.5 173.5t-185 66.5q-123 0 -207 -58t-134.5 -158.5t-72.5 -229.5q-21 -121 -2.5 -229t84 -175t184.5 -67z" />
    <glyph glyph-name="ohorn" unicode="&#x1a1;" horiz-adv-x="1176" 
d="M933 680l-9 111q78 20 135.5 58t82.5 99l12 -12q-66 1 -98 48.5t-20 113.5q12 56 52.5 86.5t95.5 30.5q81 0 122 -54t22 -147q-20 -104 -83.5 -173t-147 -108t-164.5 -53zM485 -18q-151 0 -255 67t-144.5 194t-2.5 306q46 215 180 329t337 114q155 0 258 -67.5
t142 -195.5t1 -309q-45 -215 -179 -326.5t-337 -111.5zM502 174q103 0 157.5 79t80.5 203q21 97 13 174.5t-49 123.5t-122 46q-70 0 -117 -37.5t-76 -102t-46 -145.5q-19 -94 -10 -171.5t50.5 -123.5t118.5 -46z" />
    <glyph glyph-name="Uhorn" unicode="&#x1af;" horiz-adv-x="1614" 
d="M1328 934l4 117q108 20 186.5 62.5t114.5 109.5l12 -12q-66 2 -98.5 49.5t-19.5 112.5q11 57 52 87.5t96 30.5q81 0 122 -54t23 -144q-16 -84 -65 -146t-119 -105.5t-149.5 -69.5t-158.5 -38zM628 -18q-194 0 -316.5 72t-166 210t-1.5 335l158 747h288l-161 -762
q-26 -123 -8 -205t77 -123t155 -41q139 0 214.5 80.5t110.5 246.5l168 804h288l-171 -805q-41 -191 -116.5 -315t-201 -184t-317.5 -60z" />
    <glyph glyph-name="uhorn" unicode="&#x1b0;" horiz-adv-x="1287" 
d="M975 662l-1 114q96 20 166.5 62t101.5 110l12 -12q-65 1 -98 48.5t-20 113.5q11 56 52 86.5t96 30.5q81 0 122 -53.5t24 -143.5q-17 -84 -63 -146t-110.5 -105t-137 -69t-144.5 -36zM335 -13q-92 0 -158 49.5t-92.5 141.5t0.5 218l125 580h264l-125 -587
q-19 -89 9.5 -139.5t89.5 -50.5q45 0 85 18.5t76.5 48t69.5 63.5l137 647h263l-207 -976h-257l28 147q-39 -42 -83.5 -78.5t-99.5 -59t-125 -22.5z" />
    <glyph glyph-name="uni01B2" unicode="&#x1b2;" horiz-adv-x="1374" 
d="M641 -29q-198 0 -323.5 74t-170 217t-1.5 349l156 735h288l-164 -772q-25 -121 -6 -203t79 -123.5t156 -41.5q97 0 161 39t103.5 114.5t60.5 182.5l69 331q26 127 -7 179.5t-126 52.5h-56l50 241h76q222 0 309.5 -118.5t39.5 -352.5l-69 -334q-37 -187 -113 -314
t-200.5 -191.5t-311.5 -64.5z" />
    <glyph glyph-name="uni01B3" unicode="&#x1b3;" horiz-adv-x="1200" 
d="M352 0l108 503l-277 843h300l165 -609l100 -234l-108 -503h-288zM748 503l-227 47l336 522q67 106 126.5 165.5t131.5 84t176 24.5h80l-51 -241h-39q-44 0 -81.5 -19.5t-76 -61.5t-86.5 -111z" />
    <glyph glyph-name="uni01B4" unicode="&#x1b4;" horiz-adv-x="1192" 
d="M-51 -358l46 215h88q59 0 96 22t65 68l32 53l-171 976h269l96 -704l417 805q52 102 114.5 156t141 74.5t178.5 20.5h63l-46 -216h-33q-55 0 -96 -23t-79 -90l-624 -1110q-56 -97 -117 -151t-138 -75t-183 -21h-119z" />
    <glyph glyph-name="uni01B7" unicode="&#x1b7;" horiz-adv-x="1182" 
d="M543 -17q-165 0 -276 53t-163.5 151t-42.5 231h273q-4 -99 50 -155t176 -56q94 0 147.5 43.5t72.5 127.5q27 121 -43.5 188.5t-204.5 67.5h-125l47 207l79 -18q204 0 330.5 -63t174.5 -173.5t17 -252.5q-23 -107 -83.5 -186t-165.5 -122t-263 -43zM627 721l-173 119
l358 272h-530l51 234h882l-49 -225z" />
    <glyph glyph-name="uni01DD" unicode="&#x1dd;" horiz-adv-x="1062" 
d="M474 -17q-145 0 -242 69.5t-135.5 194.5t-6.5 293h644q8 70 -4.5 129.5t-53 96t-115.5 36.5q-74 0 -125 -34.5t-68 -115.5h-262q43 176 162 258t313 82q149 0 247.5 -66t139 -187.5t14.5 -286.5q-22 -146 -88.5 -251t-172.5 -161.5t-247 -56.5zM483 168q87 0 144.5 52.5
t76.5 150.5h-376q-7 -64 10.5 -109.5t54.5 -69.5t90 -24z" />
    <glyph glyph-name="Gcaron" unicode="&#x1e6;" horiz-adv-x="1402" 
d="M662 -19q-190 0 -322.5 88t-188.5 250.5t-20 384.5q31 196 123 345t243.5 232.5t360.5 83.5q98 0 188 -28t161 -85t113 -143.5t41 -203.5h-289q-2 64 -28 115t-79.5 80.5t-137.5 29.5q-126 0 -211 -63t-134 -165.5t-69 -221.5q-20 -126 -2.5 -231.5t85 -169.5t194.5 -64
q91 0 158 33.5t111.5 94.5t64.5 143h-313l37 224h604l-31 -151q-24 -125 -71.5 -230.5t-125 -183.5t-191.5 -121t-271 -43zM756 1453l-151 278h197l94 -160l164 160h211l-272 -278h-243z" />
    <glyph glyph-name="gcaron" unicode="&#x1e7;" horiz-adv-x="967" 
d="M339 -377q-164 0 -257.5 40t-127.5 102.5t-23 130.5q14 83 99.5 138t249.5 79l54 94h138q231 0 325 -77t69 -217q-24 -134 -157.5 -212t-369.5 -78zM359 -211q122 0 181 34.5t66 83.5q5 33 -8.5 55.5t-51 34.5t-104.5 12h-175q-35 -15 -58 -42.5t-28 -63.5
q-6 -47 33.5 -80.5t144.5 -33.5zM268 23q-93 11 -148 42t-76.5 74t-13.5 87q8 54 56 93.5t136 71.5l129 -47q-53 -15 -81.5 -32.5t-31.5 -42.5q-4 -18 12.5 -32t62.5 -21.5t130 -8.5zM463 311q-132 0 -218 49t-121 131.5t-17 184.5q17 89 70 159.5t144.5 111.5t220.5 41
q200 0 289.5 -102.5t60.5 -259.5q-15 -85 -65.5 -157t-140 -115t-223.5 -43zM475 470q67 0 112.5 44t60.5 127q19 98 -20 143.5t-100 45.5q-68 0 -114 -45.5t-61 -126.5q-13 -64 3 -105.5t49 -62t70 -20.5zM811 832l-61 102q35 72 83 112t109 57t136 17l-34 -193
q-76 0 -135 -17t-98 -78zM470 1108l-151 276h192l102 -145l168 145h204l-272 -276h-243z" />
    <glyph glyph-name="uni01EA" unicode="&#x1ea;" horiz-adv-x="1443" 
d="M660 -19q-200 0 -331.5 93.5t-183.5 260t-12 383.5q36 203 128.5 348t240.5 222.5t351 77.5q197 0 327.5 -93.5t183 -260.5t12.5 -390q-36 -199 -126.5 -343t-237.5 -221t-352 -77zM680 214q124 0 208.5 58.5t135 160.5t72.5 232q21 119 1.5 226t-84.5 173.5t-185 66.5
q-123 0 -207 -58t-134.5 -158.5t-72.5 -229.5q-21 -121 -2.5 -229t84 -175t184.5 -67zM660 -371q-88 0 -141 52t-37 138q15 74 90.5 135t186.5 82l89 -25q-80 -36 -122.5 -80t-49.5 -78q-5 -30 10 -47t47 -17t61.5 8.5t68.5 23.5l-30 -151q-35 -18 -75 -29.5t-98 -11.5z" />
    <glyph glyph-name="uni01EB" unicode="&#x1eb;" horiz-adv-x="1085" 
d="M485 -18q-151 0 -255 67t-144.5 194t-2.5 306q46 215 180 329t337 114q155 0 258 -67.5t142 -195.5t1 -309q-45 -215 -179 -326.5t-337 -111.5zM502 174q103 0 157.5 79t80.5 203q21 97 13 174.5t-49 123.5t-122 46q-70 0 -117 -37.5t-76 -102t-46 -145.5
q-19 -94 -10 -171.5t50.5 -123.5t118.5 -46zM486 -370q-88 0 -141 52t-37 138q15 74 90.5 135t186.5 82l89 -25q-80 -36 -122.5 -80t-49.5 -78q-5 -30 10 -47t47 -17t61.5 8.5t68.5 23.5l-30 -151q-35 -18 -75 -29.5t-98 -11.5z" />
    <glyph glyph-name="uni01F8" unicode="&#x1f8;" horiz-adv-x="1425" 
d="M29 0l287 1346h274l425 -940l196 940h264l-286 -1346h-275l-423 938l-199 -938h-263zM845 1454l-235 278h281l139 -278h-185z" />
    <glyph glyph-name="uni01F9" unicode="&#x1f9;" horiz-adv-x="1092" 
d="M13 0l207 976h257l-27 -143q58 63 131 110t182 47q91 0 156 -45t90 -135t-3 -225l-124 -585h-264l126 590q20 92 -3.5 140t-88.5 48t-125.5 -37t-110.5 -90l-139 -651h-264zM632 1106l-246 276h276l150 -276h-180z" />
    <glyph glyph-name="Aringacute" unicode="&#x1fa;" horiz-adv-x="1250" 
d="M-119 0l772 1346h294l199 -1346h-285l-33 296h-486l-162 -296h-299zM460 529h350l-62 539zM800 1244q-87 0 -148 55.5t-61 140.5q0 92 59 151.5t150 59.5q88 0 148 -57.5t60 -146.5q0 -88 -60 -145.5t-148 -57.5zM800 1349q41 0 69.5 28.5t28.5 69.5q0 42 -28.5 70.5
t-69.5 28.5t-69.5 -28.5t-28.5 -70.5q0 -41 28 -69.5t70 -28.5zM708 1680l239 277h293l-334 -277h-198z" />
    <glyph glyph-name="aringacute" unicode="&#x1fb;" horiz-adv-x="1048" 
d="M298 -18q-92 0 -159 38.5t-96 112.5t-10 180q18 95 73.5 151.5t143 83.5t203 36.5t254.5 12.5l9 46q12 60 -2.5 97t-46.5 54t-74 17q-71 0 -125 -36.5t-68 -118.5h-248q26 177 146.5 256.5t308.5 79.5q85 0 159.5 -21.5t127 -70t72.5 -127t-4 -192.5l-123 -581h-244
l16 125q-64 -67 -135.5 -105t-177.5 -38zM394 165q54 0 101 24t84.5 58.5t64.5 64.5l32 139q-195 -1 -282 -32t-103 -116q-11 -64 18 -101t85 -37zM641 1073q-86 0 -147 56t-61 143q0 92 59 151.5t149 59.5q89 0 149 -57.5t60 -146.5t-60 -147.5t-149 -58.5zM641 1181
q42 0 70 28.5t28 69.5q0 42 -28 70t-69 28q-42 0 -70 -28t-28 -70q0 -41 28 -69.5t69 -28.5zM550 1516l238 276h302l-342 -276h-198z" />
    <glyph glyph-name="AEacute" unicode="&#x1fc;" horiz-adv-x="1846" 
d="M-119 0l831 1346h368l-44 -216h-178l-412 -696v-17l-244 -417h-321zM307 296v233h725v-233h-725zM751 0l286 1346h904l-49 -233h-623l-67 -313h563l-47 -225h-564l-73 -342h622l-49 -233h-903zM1074 1453l239 277h293l-334 -277h-198z" />
    <glyph glyph-name="aeacute" unicode="&#x1fd;" horiz-adv-x="1643" 
d="M297 -18q-105 0 -171 46t-89 124t-2 172q23 97 82 151.5t150 79.5t209.5 31.5t260.5 6.5h714l-129 -8q11 76 -7 125t-55.5 73.5t-86.5 24.5q-98 0 -152 -62.5t-77 -170.5l-6 -29h-254l23 104q13 63 -1 99t-46 51t-73 15q-73 0 -122 -37t-64 -122h-249q28 166 139 251
t307 85q96 0 168 -23.5t112.5 -71.5t39.5 -122h-104q56 98 146 157.5t245 59.5q122 0 212 -59.5t130.5 -175.5t14.5 -287l-4 -27h-840l3 8q-151 3 -240.5 -10.5t-133 -47t-55.5 -91.5q-12 -62 18.5 -100t85.5 -38q79 0 150 50.5t116 150.5l88 -88q-44 -95 -111 -161
t-153.5 -100t-188.5 -34zM1073 -18q-141 0 -242.5 60t-146.5 172.5t-17 270.5l251 -28q-17 -74 -5.5 -138.5t55.5 -104t122 -39.5q81 0 126.5 37t59.5 112h263q-43 -171 -159 -256.5t-307 -85.5zM784 1105l238 276h302l-342 -276h-198z" />
    <glyph glyph-name="Oslashacute" unicode="&#x1fe;" horiz-adv-x="1443" 
d="M75 -77l-108 110l303 289h11l847 809h11l303 291l107 -109l-303 -293h-11l-848 -810h-11zM660 -19q-200 0 -331.5 93.5t-183.5 260t-12 383.5q36 203 128.5 348t240.5 222.5t351 77.5q197 0 327.5 -93.5t183 -260.5t12.5 -390q-36 -199 -126.5 -343t-237.5 -221t-352 -77
zM680 214q124 0 208.5 58.5t135 160.5t72.5 232q21 119 1.5 226t-84.5 173.5t-185 66.5q-123 0 -207 -58t-134.5 -158.5t-72.5 -229.5q-21 -121 -2.5 -229t84 -175t184.5 -67zM790 1453l239 277h293l-334 -277h-198z" />
    <glyph glyph-name="oslashacute" unicode="&#x1ff;" horiz-adv-x="1086" 
d="M140 -93l-105 93l895 1061l107 -92zM485 -18q-151 0 -255 67t-144.5 194t-2.5 306q46 215 180 329t337 114q155 0 258 -67.5t142 -195.5t1 -309q-45 -215 -179 -326.5t-337 -111.5zM502 174q69 0 115.5 36t76.5 99.5t46 146.5q21 97 13 174.5t-49 123.5t-122 46
q-70 0 -117 -37.5t-76 -102t-46 -145.5q-19 -94 -10 -171.5t50.5 -123.5t118.5 -46zM493 1106l238 276h302l-342 -276h-198z" />
    <glyph glyph-name="uni0218" unicode="&#x218;" horiz-adv-x="1175" 
d="M542 -17q-153 0 -265 45t-173.5 139.5t-61.5 244.5h287q3 -107 61.5 -155.5t173.5 -48.5q96 0 155.5 34.5t69.5 106.5q8 53 -11 93.5t-75.5 75t-162.5 69.5q-115 37 -200.5 98t-125 149.5t-20.5 209.5q19 110 86.5 181.5t175.5 106.5t245 33q135 -1 241 -42.5t167 -127.5
t63 -221h-288q-3 85 -57.5 129.5t-147.5 44.5q-81 0 -137.5 -31t-66.5 -95q-6 -40 11 -75.5t72 -69t165 -71.5q132 -44 217 -105.5t121 -149.5t16 -214q-19 -126 -90 -204t-184 -114t-261 -36zM357 -419l-5 78q50 10 87.5 32t54.5 49q-57 2 -80.5 34t-14.5 76q8 39 39 63
t90 24q61 0 92 -37.5t18 -103.5q-20 -92 -99 -147.5t-182 -67.5z" />
    <glyph glyph-name="uni0219" unicode="&#x219;" horiz-adv-x="991" 
d="M444 -18q-127 0 -226 34.5t-152.5 106.5t-48.5 182h247q-1 -81 50.5 -115t136.5 -34q72 0 113.5 25.5t49.5 68.5q6 36 -8.5 62t-60 50t-130.5 52q-166 56 -236 139.5t-45 209.5q24 112 133 170.5t279 58.5q121 0 213 -37t142.5 -107t45.5 -167h-247q2 65 -39 100.5
t-126 35.5q-58 0 -94.5 -17.5t-44.5 -54.5q-10 -48 41 -79.5t189 -78.5q158 -53 215.5 -134.5t37.5 -201.5q-21 -127 -126.5 -198t-308.5 -71zM218 -419l-5 78q50 10 87.5 32t54.5 49q-57 2 -80.5 34t-14.5 76q8 39 39 63t90 24q61 0 92 -37.5t18 -103.5q-20 -92 -99 -147.5
t-182 -67.5z" />
    <glyph glyph-name="uni021A" unicode="&#x21a;" horiz-adv-x="1022" 
d="M267 0l235 1112h-357l51 234h998l-51 -234h-360l-236 -1112h-280zM223 -419l-5 78q50 10 87.5 32t54.5 49q-57 2 -80.5 34t-14.5 76q8 39 39 63t90 24q61 0 92 -37.5t18 -103.5q-20 -92 -99 -147.5t-182 -67.5z" />
    <glyph glyph-name="uni021B" unicode="&#x21b;" horiz-adv-x="683" 
d="M462 0q-148 0 -225.5 41t-96.5 123t7 204l85 404h-162l45 204h162l49 230h263l-49 -230h215l-44 -204h-215l-87 -416q-15 -71 2.5 -110t87.5 -39h90l-41 -207h-86zM119 -419l-5 78q50 10 87.5 32t54.5 49q-57 2 -80.5 34t-14.5 76q8 39 39 63t90 24q61 0 92 -37.5
t18 -103.5q-20 -92 -99 -147.5t-182 -67.5z" />
    <glyph glyph-name="uni0232" unicode="&#x232;" horiz-adv-x="1172" 
d="M338 0l109 503l-264 843h298l154 -585l397 585h322l-620 -843l-108 -503h-288zM494 1505l30 147h565l-31 -147h-564z" />
    <glyph glyph-name="uni0233" unicode="&#x233;" horiz-adv-x="973" 
d="M-86 -364l45 216h90q66 0 111 21.5t74 73.5l31 53l-179 976h267l97 -716l369 716h277l-599 -1047q-47 -84 -89 -140t-90 -89.5t-110.5 -48.5t-150.5 -15h-143zM337 1157l30 147h564l-31 -147h-563z" />
    <glyph glyph-name="uni0237" unicode="&#x237;" horiz-adv-x="498" 
d="M-249 -359l44 210h58q65 0 105 33.5t58 118.5l205 973h263l-205 -975q-37 -173 -129 -266.5t-277 -93.5h-122z" />
    <glyph glyph-name="uni0253" unicode="&#x253;" horiz-adv-x="1111" 
d="M585 -18q-94 0 -166 40t-116 113l-38 -135h-254l220 1027q26 123 75 192.5t128 98t195 28.5h122l-45 -210h-57q-67 0 -105.5 -30.5t-53.5 -99.5l-36 -167q51 65 122 107t172 42q108 0 185 -64.5t105.5 -188.5t-9.5 -302q-49 -228 -166.5 -339.5t-277.5 -111.5zM549 184
q82 0 135.5 70.5t82.5 205.5q35 163 -3 245t-114 82q-55 0 -100.5 -23.5t-81.5 -60.5t-61 -79l-58 -283q23 -66 77 -111.5t123 -45.5z" />
    <glyph glyph-name="uni0254" unicode="&#x254;" horiz-adv-x="1049" 
d="M462 -18q-126 0 -220 44.5t-142 127.5t-36 197h258q-3 -44 12.5 -84.5t52.5 -66t96 -25.5q100 0 154.5 80t75.5 213q25 161 -18.5 244.5t-139.5 83.5q-82 0 -134.5 -49t-67.5 -142h-258q38 197 160.5 290.5t322.5 93.5q132 0 230 -64.5t142.5 -187t16.5 -299.5
q-39 -238 -171 -347t-334 -109z" />
    <glyph glyph-name="uni0256" unicode="&#x256;" horiz-adv-x="1111" 
d="M361 -18q-108 0 -184.5 64.5t-104.5 188.5t9 301q47 229 165 340.5t276 111.5q97 0 168 -40t115 -115l110 513h262l-286 -1347l-261 1l25 130q-52 -65 -123 -106.5t-171 -41.5zM458 183q55 0 101 23.5t82 60.5t61 78l57 284q-15 44 -44.5 79.5t-69 56t-86.5 20.5
q-83 0 -134 -70t-80 -205q-23 -108 -13.5 -181t44 -109.5t82.5 -36.5zM903 -332q-105 0 -172.5 41t-93.5 116t-7 175l261 -1q-14 -60 9 -91t82 -31h57l-45 -209h-91z" />
    <glyph glyph-name="uni0257" unicode="&#x257;" horiz-adv-x="1174" 
d="M361 -18q-108 0 -184.5 64.5t-104.5 188.5t9 301q32 153 95.5 253.5t152 149.5t193.5 49q97 0 168 -40t115 -115l42 190q25 110 71 181.5t123 106.5t194 35h122l-45 -210h-57q-66 0 -102 -32.5t-50 -99.5l-212 -1005l-250 1l14 130q-52 -65 -123 -106.5t-171 -41.5z
M458 183q83 0 145 50.5t99 111.5l57 284q-22 67 -76 111.5t-124 44.5q-83 0 -136 -70t-82 -205q-36 -163 2 -245t115 -82z" />
    <glyph glyph-name="uni0259" unicode="&#x259;" horiz-adv-x="1062" 
d="M474 -17q-145 0 -242 69.5t-135.5 194.5t-6.5 293h644q8 70 -4.5 129.5t-53 96t-115.5 36.5q-74 0 -125 -34.5t-68 -115.5h-262q43 176 162 258t313 82q149 0 247.5 -66t139 -187.5t14.5 -286.5q-22 -146 -88.5 -251t-172.5 -161.5t-247 -56.5zM483 168q87 0 144.5 52.5
t76.5 150.5h-376q-7 -64 10.5 -109.5t54.5 -69.5t90 -24z" />
    <glyph glyph-name="uni025B" unicode="&#x25b;" horiz-adv-x="991" 
d="M413 -16q-138 0 -233.5 43.5t-137.5 121t-20 177.5q20 85 81.5 131.5t160.5 65.5q-72 26 -110 93t-19 153q10 49 48.5 101t121.5 87t228 35q128 0 212 -42t126 -112t45 -155h-244q-4 51 -43.5 84.5t-117.5 33.5q-67 0 -97.5 -23t-37.5 -59q-7 -32 10.5 -59.5t54 -43.5
t86.5 -16h86l-39 -184h-84q-98 0 -143 -27t-57 -80q-8 -41 8.5 -71.5t54 -46.5t88.5 -16q91 0 145.5 39t66.5 117h247q-33 -181 -148 -264t-339 -83z" />
    <glyph glyph-name="uni0263" unicode="&#x263;" horiz-adv-x="1044" 
d="M350 237l-260 739h265l155 -500l367 500h284l-571 -739h-240zM390 -176q35 0 50.5 22t24.5 62q8 35 4.5 89t-27.5 106q-42 -50 -66.5 -95.5t-32.5 -84.5q-7 -42 3 -70.5t44 -28.5zM374 -358q-95 0 -159.5 39t-90 108t-6.5 158q20 98 123 231.5t276 281.5
q77 -101 122 -209.5t58.5 -207.5t-3.5 -174q-24 -113 -106.5 -170t-213.5 -57z" />
    <glyph glyph-name="uni0283" unicode="&#x283;" horiz-adv-x="607" 
d="M-186 -339l44 205h60q77 0 104.5 34t42.5 100l212 1005q27 123 75 197.5t136.5 108t237.5 33.5h68l-44 -205h-61q-76 0 -104.5 -36t-44.5 -113l-210 -990q-26 -122 -74 -197t-137 -108.5t-237 -33.5h-68z" />
    <glyph glyph-name="uni028B" unicode="&#x28b;" horiz-adv-x="1112" 
d="M486 -11q-102 0 -184.5 28.5t-136.5 86.5t-72.5 147t7.5 209l110 516h262l-111 -519q-18 -86 -6.5 -142t50.5 -84t100 -28q70 0 114 31t72 92t46 150l34 156q17 78 3 113.5t-90 35.5h-46l45 205h41q148 0 224.5 -42t95 -123.5t-9.5 -200.5l-41 -193q-32 -152 -96.5 -249
t-165.5 -143t-245 -46z" />
    <glyph glyph-name="uni0292" unicode="&#x292;" horiz-adv-x="1030" 
d="M372 -379q-157 0 -257 51t-145 143.5t-36 218.5h247q-2 -98 49.5 -154.5t159.5 -56.5q99 0 154 47t74 148q22 118 -49.5 186.5t-214.5 68.5h-124l39 177l374 322h-456l43 204h759l-39 -185l-416 -352q109 -12 196 -66t128 -151t14 -239q-34 -173 -159 -267.5t-341 -94.5z
" />
    <glyph glyph-name="circumflex" unicode="&#x2c6;" horiz-adv-x="1130" 
d="M198 1106l273 276h242l152 -276h-187l-104 148l-175 -148h-201z" />
    <glyph glyph-name="caron" unicode="&#x2c7;" horiz-adv-x="1130" 
d="M413 1106l-151 276h192l102 -145l168 145h204l-272 -276h-243z" />
    <glyph glyph-name="breve" unicode="&#x2d8;" horiz-adv-x="1130" 
d="M552 1105q-145 0 -215 74.5t-55 202.5h130q-3 -52 19 -81.5t58.5 -41t76.5 -11.5q39 0 80.5 12t75.5 41t52 81h132q-37 -127 -123 -202t-231 -75z" />
    <glyph glyph-name="dotaccent" unicode="&#x2d9;" horiz-adv-x="1130" 
d="M565 1104q-72 0 -111 37t-39 92q0 57 39 93t111 36q73 0 111.5 -36t38.5 -93q0 -55 -38.5 -92t-111.5 -37z" />
    <glyph glyph-name="ring" unicode="&#x2da;" horiz-adv-x="1130" 
d="M509 1073q-86 0 -147 56t-61 143q0 92 59 151.5t149 59.5q89 0 149 -57.5t60 -146.5t-60 -147.5t-149 -58.5zM509 1181q42 0 70 28.5t28 69.5q0 42 -28 70t-69 28q-42 0 -70 -28t-28 -70q0 -41 28 -69.5t69 -28.5z" />
    <glyph glyph-name="ogonek" unicode="&#x2db;" horiz-adv-x="1130" 
d="M537 -377q-88 0 -141 52t-37 138q15 74 90.5 135t186.5 82l89 -25q-80 -36 -122.5 -80t-49.5 -78q-5 -30 10 -47t47 -17t61.5 8.5t68.5 23.5l-30 -151q-35 -18 -75 -29.5t-98 -11.5z" />
    <glyph glyph-name="tilde" unicode="&#x2dc;" horiz-adv-x="1130" 
d="M233 1111q26 129 84 183t133 54q48 0 83.5 -12t74.5 -29q38 -17 61.5 -26t43.5 -9q23 0 38 16.5t25 60.5h139q-27 -126 -77.5 -178t-129.5 -52q-41 0 -75.5 11.5t-75.5 29.5q-36 15 -61 25t-48 10q-26 0 -45.5 -19.5t-30.5 -64.5h-139z" />
    <glyph glyph-name="hungarumlaut" unicode="&#x2dd;" horiz-adv-x="1130" 
d="M584 1106l238 276h211l-295 -276h-154zM262 1106l239 276h210l-295 -276h-154z" />
    <glyph glyph-name="gravecomb" unicode="&#x300;" 
d="M492 1106l-246 276h276l150 -276h-180z" />
    <glyph glyph-name="acutecomb" unicode="&#x301;" 
d="M395 1106l238 276h302l-342 -276h-198z" />
    <glyph glyph-name="uni0302" unicode="&#x302;" 
d="M198 1106l273 276h242l152 -276h-187l-104 148l-175 -148h-201z" />
    <glyph glyph-name="tildecomb" unicode="&#x303;" 
d="M233 1111q26 129 84 183t133 54q48 0 83.5 -12t74.5 -29q38 -17 61.5 -26t43.5 -9q23 0 38 16.5t25 60.5h139q-27 -126 -77.5 -178t-129.5 -52q-41 0 -75.5 11.5t-75.5 29.5q-36 15 -61 25t-48 10q-26 0 -45.5 -19.5t-30.5 -64.5h-139z" />
    <glyph glyph-name="uni0304" unicode="&#x304;" 
d="M268 1157l30 147h564l-31 -147h-563z" />
    <glyph glyph-name="uni0306" unicode="&#x306;" 
d="M552 1105q-145 0 -215 74.5t-55 202.5h130q-3 -52 19 -81.5t58.5 -41t76.5 -11.5q39 0 80.5 12t75.5 41t52 81h132q-37 -127 -123 -202t-231 -75z" />
    <glyph glyph-name="uni0307" unicode="&#x307;" 
d="M565 1104q-72 0 -111 37t-39 92q0 57 39 93t111 36q73 0 111.5 -36t38.5 -93q0 -55 -38.5 -92t-111.5 -37z" />
    <glyph glyph-name="uni0308" unicode="&#x308;" 
d="M749 1125q-47 0 -81.5 34t-34.5 82q0 49 34.5 83t81.5 34q49 0 83.5 -34t34.5 -83q0 -48 -34.5 -82t-83.5 -34zM367 1125q-48 0 -83 34t-35 82q0 49 35 83t83 34q47 0 81.5 -34t34.5 -83q0 -48 -34.5 -82t-81.5 -34z" />
    <glyph glyph-name="hookabovecomb" unicode="&#x309;" 
d="M492 1116l-39 82q38 9 73 30.5t41 52.5q8 36 -16 47.5t-71 11.5h-23l24 120h44q140 0 202.5 -45t46.5 -124q-10 -49 -47 -84t-96.5 -57t-138.5 -34zM453 1198l141 -36l-20 -94h-148z" />
    <glyph glyph-name="uni030A" unicode="&#x30a;" 
d="M509 1073q-86 0 -147 56t-61 143q0 92 59 151.5t149 59.5q89 0 149 -57.5t60 -146.5t-60 -147.5t-149 -58.5zM509 1181q42 0 70 28.5t28 69.5q0 42 -28 70t-69 28q-42 0 -70 -28t-28 -70q0 -41 28 -69.5t69 -28.5z" />
    <glyph glyph-name="uni030B" unicode="&#x30b;" 
d="M584 1106l238 276h211l-295 -276h-154zM262 1106l239 276h210l-295 -276h-154z" />
    <glyph glyph-name="uni030C" unicode="&#x30c;" 
d="M413 1106l-151 276h192l102 -145l168 145h204l-272 -276h-243z" />
    <glyph glyph-name="uni0312" unicode="&#x312;" 
d="M541 1109q-63 0 -99 45.5t-19 123.5q13 58 57 106t107.5 79t132.5 37l4 -87q-45 -13 -84 -35t-61 -59q59 -6 82.5 -39t14.5 -79q-9 -40 -44 -66t-91 -26z" />
    <glyph glyph-name="uni031B" unicode="&#x31b;" 
d="M-114 662l-19 114q92 25 145.5 65.5t64.5 108.5l13 -12q-64 0 -105 40t-41 99q0 62 40.5 100t105.5 38q73 0 116.5 -45t43.5 -135q0 -81 -30 -144.5t-81 -110t-116 -76.5t-137 -42z" />
    <glyph glyph-name="dotbelowcomb" unicode="&#x323;" 
d="M0 -344q-72 0 -111 37t-39 92q0 57 39 93t111 36q73 0 111.5 -36t38.5 -93q0 -55 -38.5 -92t-111.5 -37z" />
    <glyph glyph-name="uni0326" unicode="&#x326;" 
d="M409 -419l-5 78q50 10 87.5 32t54.5 49q-57 2 -80.5 34t-14.5 76q8 39 39 63t90 24q61 0 92 -37.5t18 -103.5q-20 -92 -99 -147.5t-182 -67.5z" />
    <glyph glyph-name="uni0327" unicode="&#x327;" 
d="M522 -379q-72 0 -119 11t-86 28l61 114q31 -14 71.5 -22.5t83.5 -8.5q38 0 62.5 11.5t29.5 36.5q7 29 -17.5 49t-104.5 33l-43 7l167 171l91 -51l-68 -68l-49 22q95 -2 144 -53.5t33 -131.5q-13 -57 -51 -89.5t-91.5 -45.5t-113.5 -13z" />
    <glyph glyph-name="uni0328" unicode="&#x328;" 
d="M537 -377q-88 0 -141 52t-37 138q15 74 90.5 135t186.5 82l89 -25q-80 -36 -122.5 -80t-49.5 -78q-5 -30 10 -47t47 -17t61.5 8.5t68.5 23.5l-30 -151q-35 -18 -75 -29.5t-98 -11.5z" />
    <glyph glyph-name="uni0335" unicode="&#x335;" 
d="M-1 369l30 142h608l-30 -142h-608z" />
    <glyph glyph-name="uni0336" unicode="&#x336;" 
d="M17 565l48 225h751l-48 -225h-751z" />
    <glyph glyph-name="uni0345" unicode="&#x345;" 
d="M29 -358q-106 0 -126 50t-3 130l26 123h163l-19 -89q-6 -34 -4 -59t47 -25h24l-28 -130h-80z" />
    <glyph glyph-name="uni0370" unicode="&#x370;" horiz-adv-x="848" 
d="M29 0l287 1346h281l-111 -526h408l-54 -248h-408l-122 -572h-281z" />
    <glyph glyph-name="uni0371" unicode="&#x371;" horiz-adv-x="747" 
d="M12 0l208 976h265l-207 -976h-266zM264 398l44 203h432l-43 -203h-433z" />
    <glyph glyph-name="uni0372" unicode="&#x372;" horiz-adv-x="1280" 
d="M396 0l235 1112h-191l-49 -230h-262l98 464h1191l-99 -464h-261l49 230h-195l-236 -1112h-280z" />
    <glyph glyph-name="uni0373" unicode="&#x373;" horiz-adv-x="1063" 
d="M645 1q-148 0 -221.5 35t-89.5 109.5t9 194.5l91 432h-149l-42 -204h-216l88 408h1021l-87 -408h-215l42 204h-178l-88 -416q-15 -77 -1.5 -113t90.5 -36h113l-43 -206h-124z" />
    <glyph glyph-name="uni0374" unicode="&#x374;" horiz-adv-x="544" 
d="M1 1106l238 276h302l-342 -276h-198z" />
    <glyph glyph-name="uni0375" unicode="&#x375;" horiz-adv-x="544" 
d="M1 -139l238 276h302l-342 -276h-198z" />
    <glyph glyph-name="uni0376" unicode="&#x376;" horiz-adv-x="1425" 
d="M1189 0h-264l194 913l-814 -913h-276l287 1346h265l-193 -907l812 907h275z" />
    <glyph glyph-name="uni0377" unicode="&#x377;" horiz-adv-x="1185" 
d="M13 0l207 976h242l-129 -614l596 614h243l-207 -976h-244l131 614l-597 -614h-242z" />
    <glyph glyph-name="uni037A" unicode="&#x37a;" horiz-adv-x="1010" 
d="M524 -358q-106 0 -126 50t-3 130l26 123h163l-19 -89q-6 -34 -4 -59t47 -25h24l-28 -130h-80z" />
    <glyph glyph-name="uni037B" unicode="&#x37b;" horiz-adv-x="1038" 
d="M444 -18q-123 0 -213 45t-137 129.5t-40 201.5h257q-1 -48 14.5 -90t49 -67.5t89.5 -25.5q105 0 160.5 79.5t78.5 217.5q25 162 -18.5 245t-141.5 83q-77 0 -125 -46t-64 -112h-252q35 163 152 256.5t308 93.5q133 0 233.5 -60t147 -180t17.5 -300q-38 -234 -173.5 -352
t-342.5 -118z" />
    <glyph glyph-name="uni037C" unicode="&#x37c;" horiz-adv-x="1055" 
d="M483 -18q-134 0 -236 61t-150 179.5t-19 294.5q39 239 174.5 357t340.5 118q124 0 214.5 -42t137 -119.5t38.5 -181.5h-258q3 56 -31.5 103.5t-119.5 47.5q-101 0 -158.5 -82.5t-79.5 -218.5q-26 -159 21.5 -241.5t145.5 -82.5q79 0 128 39.5t63 112.5h257
q-37 -177 -155 -261t-313 -84zM574 378q-63 0 -96.5 34t-33.5 84q0 52 33.5 85.5t96.5 33.5t97 -33.5t34 -85.5q0 -50 -34 -84t-97 -34z" />
    <glyph glyph-name="uni037D" unicode="&#x37d;" horiz-adv-x="1044" 
d="M478 378q-63 0 -96 34t-33 84q0 52 33 85.5t96 33.5q64 0 98 -33.5t34 -85.5q0 -50 -34 -84t-98 -34zM449 -18q-123 0 -213 41.5t-137 119.5t-40 186h258q-1 -42 14 -77t49 -56t89 -21q106 0 161.5 79.5t77.5 217.5q25 162 -18 245t-142 83q-77 0 -125 -38.5t-64 -97.5
h-251q34 153 151 240.5t308 87.5q134 0 234 -60t146.5 -180t17.5 -300q-38 -234 -173 -352t-343 -118z" />
    <glyph glyph-name="uni037E" unicode="&#x37e;" horiz-adv-x="610" 
d="M-7 -310l-9 131q74 22 127.5 65.5t78.5 113.5l11 -14q-77 2 -113.5 54.5t-19.5 132.5q13 62 56.5 100t111.5 38q90 0 136 -67t19 -193q-25 -115 -89.5 -189t-147.5 -114.5t-161 -57.5zM371 650q-77 0 -124.5 47.5t-47.5 115.5q0 74 47.5 118.5t124.5 44.5q75 0 122 -44.5
t47 -118.5q0 -68 -47 -115.5t-122 -47.5z" />
    <glyph glyph-name="uni037F" unicode="&#x37f;" horiz-adv-x="713" 
d="M-84 -16l51 239h93q104 0 164.5 54t87.5 178l189 891h275l-194 -917q-33 -155 -96.5 -253t-168 -145t-262.5 -47h-139z" />
    <glyph glyph-name="tonos" unicode="&#x384;" horiz-adv-x="1130" 
d="M405 1106l137 341h257l-234 -341h-160z" />
    <glyph glyph-name="dieresistonos" unicode="&#x385;" horiz-adv-x="1130" 
d="M429 1091l140 356h213l-208 -356h-145zM309 1113q-48 0 -80 31t-32 78t32 77.5t80 30.5q47 0 79 -30.5t32 -77.5t-32 -78t-79 -31zM827 1113q-47 0 -79 31t-32 78t32 77.5t79 30.5q49 0 81 -30.5t32 -77.5t-32 -78t-81 -31z" />
    <glyph glyph-name="Alphatonos" unicode="&#x386;" horiz-adv-x="1250" 
d="M-119 0l772 1346h294l199 -1346h-285l-33 296h-486l-162 -296h-299zM460 529h350l-62 539zM96 1004l137 341h256l-234 -341h-159z" />
    <glyph glyph-name="anoteleia" unicode="&#x387;" horiz-adv-x="615" 
d="M316 355q-77 0 -125 47.5t-48 115.5q0 74 48 118t125 44q76 0 122 -44t46 -118q0 -68 -46 -115.5t-122 -47.5z" />
    <glyph glyph-name="Epsilontonos" unicode="&#x388;" horiz-adv-x="1125" 
d="M29 0l287 1346h904l-49 -233h-623l-68 -313h564l-47 -225h-564l-74 -342h623l-49 -233h-904zM-145 1004l137 341h256l-234 -341h-159z" />
    <glyph glyph-name="Etatonos" unicode="&#x389;" horiz-adv-x="1398" 
d="M29 0l287 1346h281l-111 -526h570l112 526h280l-287 -1346h-280l121 572h-570l-122 -572h-281zM-145 1004l137 341h256l-234 -341h-159z" />
    <glyph glyph-name="Iotatonos" unicode="&#x38a;" horiz-adv-x="547" 
d="M29 0l287 1346h281l-287 -1346h-281zM-145 1004l137 341h256l-234 -341h-159z" />
    <glyph glyph-name="Omicrontonos" unicode="&#x38c;" horiz-adv-x="1443" 
d="M660 -19q-200 0 -331.5 93.5t-183.5 260t-12 383.5q36 203 128.5 348t240.5 222.5t351 77.5q197 0 327.5 -93.5t183 -260.5t12.5 -390q-36 -199 -126.5 -343t-237.5 -221t-352 -77zM680 214q124 0 208.5 58.5t135 160.5t72.5 232q21 119 1.5 226t-84.5 173.5t-185 66.5
q-123 0 -207 -58t-134.5 -158.5t-72.5 -229.5q-21 -121 -2.5 -229t84 -175t184.5 -67zM-82 1004l137 341h256l-234 -341h-159z" />
    <glyph glyph-name="Upsilontonos" unicode="&#x38e;" horiz-adv-x="1172" 
d="M338 0l109 503l-264 843h298l154 -585l397 585h322l-620 -843l-108 -503h-288zM-207 1004l137 341h256l-234 -341h-159z" />
    <glyph glyph-name="Omegatonos" unicode="&#x38f;" horiz-adv-x="1435" 
d="M-26 0l50 233h312q-81 60 -126.5 154.5t-55.5 209.5t16 239q34 160 122 278.5t229.5 184t338.5 65.5q147 0 257 -49.5t178 -140.5t89.5 -214.5t-9.5 -270.5q-34 -159 -122 -273t-225 -183h272l-49 -233h-564l56 267q148 66 229.5 170t114.5 261q19 87 14.5 165t-35 138
t-88.5 94.5t-145 34.5q-116 0 -194 -49t-124.5 -131.5t-67.5 -183.5q-35 -164 -1 -292t141 -197l-60 -277h-553zM-82 1004l137 341h256l-234 -341h-159z" />
    <glyph glyph-name="iotadieresistonos" unicode="&#x390;" horiz-adv-x="574" 
d="M379 1q-206 0 -271.5 97t-25.5 282l129 596h263l-129 -603q-18 -79 1 -122.5t84 -43.5h61l-44 -206h-68zM279 1091l140 356h213l-208 -356h-145zM159 1113q-48 0 -80 31t-32 78t32 77.5t80 30.5q47 0 79 -30.5t32 -77.5t-32 -78t-79 -31zM677 1113q-47 0 -79 31t-32 78
t32 77.5t79 30.5q49 0 81 -30.5t32 -77.5t-32 -78t-81 -31z" />
    <glyph glyph-name="Alpha" unicode="&#x391;" horiz-adv-x="1250" 
d="M-119 0l772 1346h294l199 -1346h-285l-33 296h-486l-162 -296h-299zM460 529h350l-62 539z" />
    <glyph glyph-name="Beta" unicode="&#x392;" horiz-adv-x="1215" 
d="M29 0l287 1346l407 1q152 1 252.5 -50t141.5 -141.5t15 -209.5q-20 -93 -92 -153t-168 -82q73 -21 129.5 -70.5t82.5 -124t6 -173.5q-24 -118 -102 -194t-201 -112.5t-285 -36.5h-473zM361 233h178q106 0 176.5 35t90.5 122q21 100 -35.5 148t-157.5 48h-179zM480 801
h135q105 0 165 39.5t75 111.5q17 82 -30.5 124.5t-132.5 42.5h-143z" />
    <glyph glyph-name="Gamma" unicode="&#x393;" horiz-adv-x="965" 
d="M316 1346h808l-48 -221h-526l-240 -1125h-281z" />
    <glyph glyph-name="uni0394" unicode="&#x394;" horiz-adv-x="1242" 
d="M-70 0l46 216l148 17h920l107 -17l-46 -216h-1175zM-24 216l666 1130h331l178 -1130l-260 -161l-141 988l-564 -988z" />
    <glyph glyph-name="Epsilon" unicode="&#x395;" horiz-adv-x="1125" 
d="M29 0l287 1346h904l-49 -233h-623l-68 -313h564l-47 -225h-564l-74 -342h623l-49 -233h-904z" />
    <glyph glyph-name="Zeta" unicode="&#x396;" horiz-adv-x="1114" 
d="M-59 0l46 222l826 890h-584l50 234h929l-46 -210l-834 -902h688l-50 -234h-1025z" />
    <glyph glyph-name="Eta" unicode="&#x397;" horiz-adv-x="1398" 
d="M29 0l287 1346h281l-111 -526h570l112 526h280l-287 -1346h-280l121 572h-570l-122 -572h-281z" />
    <glyph glyph-name="Theta" unicode="&#x398;" horiz-adv-x="1443" 
d="M518 569l42 222h427l-41 -222h-428zM660 -19q-200 0 -331.5 93.5t-183.5 260t-12 383.5q36 203 128.5 348t240.5 222.5t351 77.5q197 0 327.5 -93.5t183 -260.5t12.5 -390q-36 -199 -126.5 -343t-237.5 -221t-352 -77zM680 214q124 0 208.5 58.5t135 160.5t72.5 232
q21 119 1.5 226t-84.5 173.5t-185 66.5q-123 0 -207 -58t-134.5 -158.5t-72.5 -229.5q-21 -121 -2.5 -229t84 -175t184.5 -67z" />
    <glyph glyph-name="Iota" unicode="&#x399;" horiz-adv-x="547" 
d="M29 0l287 1346h281l-287 -1346h-281z" />
    <glyph glyph-name="Kappa" unicode="&#x39a;" horiz-adv-x="1235" 
d="M29 0l287 1346h281l-135 -635l608 635h321l-643 -656l390 -690h-305l-375 689l-147 -689h-282z" />
    <glyph glyph-name="Lambda" unicode="&#x39b;" horiz-adv-x="1237" 
d="M-119 0l752 1346h332l169 -1346h-296l-100 1043l-548 -1043h-309z" />
    <glyph glyph-name="Mu" unicode="&#x39c;" horiz-adv-x="1626" 
d="M29 0l287 1346h308l230 -624l492 624h330l-287 -1346h-279l208 974l-427 -544h-176l-205 544l-209 -974h-272z" />
    <glyph glyph-name="Nu" unicode="&#x39d;" horiz-adv-x="1425" 
d="M29 0l287 1346h274l425 -940l196 940h264l-286 -1346h-275l-423 938l-199 -938h-263z" />
    <glyph glyph-name="Xi" unicode="&#x39e;" horiz-adv-x="1157" 
d="M-16 0l49 233h982l-49 -233h-982zM250 575l48 225h695l-48 -225h-695zM263 1113l49 234h900l-50 -234h-899z" />
    <glyph glyph-name="Omicron" unicode="&#x39f;" horiz-adv-x="1443" 
d="M660 -19q-200 0 -331.5 93.5t-183.5 260t-12 383.5q36 203 128.5 348t240.5 222.5t351 77.5q197 0 327.5 -93.5t183 -260.5t12.5 -390q-36 -199 -126.5 -343t-237.5 -221t-352 -77zM680 214q124 0 208.5 58.5t135 160.5t72.5 232q21 119 1.5 226t-84.5 173.5t-185 66.5
q-123 0 -207 -58t-134.5 -158.5t-72.5 -229.5q-21 -121 -2.5 -229t84 -175t184.5 -67z" />
    <glyph glyph-name="Pi" unicode="&#x3a0;" horiz-adv-x="1377" 
d="M29 0l287 1346h1111l-286 -1346h-282l236 1111h-549l-236 -1111h-281z" />
    <glyph glyph-name="Rho" unicode="&#x3a1;" horiz-adv-x="1198" 
d="M29 0l287 1346h408q166 0 280 -59t161.5 -171t12.5 -272q-28 -137 -109 -217t-196.5 -114t-249.5 -34h-210l-102 -479h-282zM460 705h179q95 0 165.5 43.5t91.5 144.5q24 110 -29.5 168t-157.5 58h-160z" />
    <glyph glyph-name="Sigma" unicode="&#x3a3;" horiz-adv-x="1072" 
d="M-60 0l46 218l334 16l654 -1l-50 -233h-984zM211 1122l46 218h888l-49 -233l-690 -1zM513 1109l314 -356l-24 -109l-461 -410l-356 -16l567 511l-342 393z" />
    <glyph glyph-name="Tau" unicode="&#x3a4;" horiz-adv-x="1022" 
d="M267 0l235 1112h-357l51 234h998l-51 -234h-360l-236 -1112h-280z" />
    <glyph glyph-name="Upsilon" unicode="&#x3a5;" horiz-adv-x="1172" 
d="M338 0l109 503l-264 843h298l154 -585l397 585h322l-620 -843l-108 -503h-288z" />
    <glyph glyph-name="Phi" unicode="&#x3a6;" horiz-adv-x="1597" 
d="M692 126q-132 0 -244 43t-189 125t-107.5 198t0.5 264q37 170 138 274t252 151t334 47h53l-46 -212h-48q-168 0 -271 -76.5t-133 -217.5q-25 -116 7 -203t109 -134.5t187 -47.5h25l-46 -211h-21zM547 -41l304 1427h281l-304 -1427h-281zM749 126l45 213h51
q167 0 269 77.5t134 222.5q25 118 -6.5 202.5t-108.5 130t-190 45.5h-25l46 211h21q128 0 240 -42t191 -122.5t110.5 -197t-0.5 -264.5q-36 -172 -138.5 -276.5t-253 -152t-330.5 -47.5h-55z" />
    <glyph glyph-name="Chi" unicode="&#x3a7;" horiz-adv-x="1212" 
d="M-108 0l602 703l-278 643h305l162 -440l353 440h324l-551 -644l299 -702h-307l-181 475l-393 -475h-335z" />
    <glyph glyph-name="Psi" unicode="&#x3a8;" horiz-adv-x="1669" 
d="M856 330l50 228h75q155 0 252 74t129 219l105 495h289l-111 -517q-38 -175 -132.5 -284.5t-235 -162t-314.5 -52.5h-107zM688 330q-127 0 -233 32.5t-178.5 100t-100 172.5t3.5 251l98 460h288l-104 -479q-33 -152 35.5 -230.5t223.5 -78.5h72l-50 -228h-55zM589 0
l287 1346h281l-287 -1346h-281z" />
    <glyph glyph-name="uni03A9" unicode="&#x3a9;" horiz-adv-x="1435" 
d="M-26 0l50 233h312q-81 60 -126.5 154.5t-55.5 209.5t16 239q34 160 122 278.5t229.5 184t338.5 65.5q147 0 257 -49.5t178 -140.5t89.5 -214.5t-9.5 -270.5q-34 -159 -122 -273t-225 -183h272l-49 -233h-564l56 267q148 66 229.5 170t114.5 261q19 87 14.5 165t-35 138
t-88.5 94.5t-145 34.5q-116 0 -194 -49t-124.5 -131.5t-67.5 -183.5q-35 -164 -1 -292t141 -197l-60 -277h-553z" />
    <glyph glyph-name="Iotadieresis" unicode="&#x3aa;" horiz-adv-x="547" 
d="M29 0l287 1346h281l-287 -1346h-281zM683 1473q-47 0 -82 35t-35 82q0 49 35 83.5t82 34.5q48 0 82.5 -34.5t34.5 -83.5q0 -47 -34.5 -82t-82.5 -35zM300 1473q-48 0 -82.5 35t-34.5 82q0 49 34.5 83.5t82.5 34.5q47 0 81.5 -34.5t34.5 -83.5q0 -47 -34.5 -82t-81.5 -35z
" />
    <glyph glyph-name="Upsilondieresis" unicode="&#x3ab;" horiz-adv-x="1172" 
d="M338 0l109 503l-264 843h298l154 -585l397 585h322l-620 -843l-108 -503h-288zM969 1473q-47 0 -82 35t-35 82q0 49 35 83.5t82 34.5q48 0 82.5 -34.5t34.5 -83.5q0 -47 -34.5 -82t-82.5 -35zM586 1473q-48 0 -82.5 35t-34.5 82q0 49 34.5 83.5t82.5 34.5
q47 0 81.5 -34.5t34.5 -83.5q0 -47 -34.5 -82t-81.5 -35z" />
    <glyph glyph-name="alphatonos" unicode="&#x3ac;" horiz-adv-x="1139" 
d="M371 -17q-111 0 -189.5 65t-108.5 187t7 292q36 173 106 273.5t162 144t193 43.5q75 0 127 -21t88 -54t60 -69l28 132h256l-133 -622q-18 -81 -4.5 -119.5t91.5 -38.5h9l-45 -205h-55q-92 0 -147 19.5t-84 53.5t-46 78q-43 -49 -89.5 -84.5t-101 -55t-124.5 -19.5z
M459 183q76 0 141.5 49.5t108.5 114.5l62 294q-17 58 -63 102t-127 44q-86 0 -149.5 -69.5t-94.5 -217.5q-21 -101 -11.5 -172.5t44.5 -108t89 -36.5zM526 1106l137 341h257l-234 -341h-160z" />
    <glyph glyph-name="epsilontonos" unicode="&#x3ad;" horiz-adv-x="991" 
d="M413 -16q-138 0 -233.5 43.5t-137.5 121t-20 177.5q20 85 81.5 131.5t160.5 65.5q-72 26 -110 93t-19 153q10 49 48.5 101t121.5 87t228 35q128 0 212 -42t126 -112t45 -155h-244q-4 51 -43.5 84.5t-117.5 33.5q-67 0 -97.5 -23t-37.5 -59q-7 -32 10.5 -59.5t54 -43.5
t86.5 -16h86l-39 -184h-84q-98 0 -143 -27t-57 -80q-8 -41 8.5 -71.5t54 -46.5t88.5 -16q91 0 145.5 39t66.5 117h247q-33 -181 -148 -264t-339 -83zM463 1106l137 341h257l-234 -341h-160z" />
    <glyph glyph-name="etatonos" unicode="&#x3ae;" horiz-adv-x="1092" 
d="M13 0l207 976h257l-27 -143q58 63 131 110t182 47q91 0 156 -45t90.5 -135t-3.5 -225l-200 -943h-264l202 948q20 92 -3.5 140t-88.5 48q-43 0 -85 -17t-79.5 -45.5t-71.5 -64.5l-139 -651h-264zM557 1106l137 341h257l-234 -341h-160z" />
    <glyph glyph-name="iotatonos" unicode="&#x3af;" horiz-adv-x="574" 
d="M379 1q-206 0 -271.5 97t-25.5 282l129 596h263l-129 -603q-18 -79 1 -122.5t84 -43.5h61l-44 -206h-68zM267 1106l137 341h257l-234 -341h-160z" />
    <glyph glyph-name="upsilondieresistonos" unicode="&#x3b0;" horiz-adv-x="1098" 
d="M489 -13q-140 0 -239 55t-139.5 163.5t-7.5 268.5l106 502h263l-111 -519q-27 -127 15 -191t131 -64q73 0 119 35.5t74.5 101t47.5 153.5q25 118 33 240t-14 244h264q17 -121 9 -253.5t-37 -269.5q-48 -230 -172 -348t-342 -118zM526 1091l140 356h213l-208 -356h-145z
M406 1113q-48 0 -80 31t-32 78t32 77.5t80 30.5q47 0 79 -30.5t32 -77.5t-32 -78t-79 -31zM924 1113q-47 0 -79 31t-32 78t32 77.5t79 30.5q49 0 81 -30.5t32 -77.5t-32 -78t-81 -31z" />
    <glyph glyph-name="alpha" unicode="&#x3b1;" horiz-adv-x="1139" 
d="M371 -17q-111 0 -189.5 65t-108.5 187t7 292q36 173 106 273.5t162 144t193 43.5q75 0 127 -21t88 -54t60 -69l28 132h256l-133 -622q-18 -81 -4.5 -119.5t91.5 -38.5h9l-45 -205h-55q-92 0 -147 19.5t-84 53.5t-46 78q-43 -49 -89.5 -84.5t-101 -55t-124.5 -19.5z
M459 183q76 0 141.5 49.5t108.5 114.5l62 294q-17 58 -63 102t-127 44q-86 0 -149.5 -69.5t-94.5 -217.5q-21 -101 -11.5 -172.5t44.5 -108t89 -36.5z" />
    <glyph glyph-name="beta" unicode="&#x3b2;" horiz-adv-x="1074" 
d="M-73 -358l264 1250q36 169 104.5 273t170 151.5t236.5 47.5q115 0 205.5 -50.5t134 -143t16.5 -218.5q-17 -83 -69 -146t-142.5 -99t-227.5 -40l-42 84q140 0 240 -53t144.5 -151.5t14.5 -236.5q-36 -166 -158 -244t-306 -78q-88 0 -153.5 13.5t-124.5 39.5l44 201
q52 -25 109 -38.5t111 -13.5q95 0 149 42.5t71 125.5q18 80 -2 134.5t-66 83t-109 28.5h-49l40 186h51q87 0 146 44t77 132q24 102 -15.5 148.5t-107.5 46.5q-83 0 -140 -60.5t-92 -224.5l-261 -1234h-263z" />
    <glyph glyph-name="gamma" unicode="&#x3b3;" horiz-adv-x="1000" 
d="M266 0l-163 976h271l77 -700l379 700h273l-575 -976h-262zM188 -358l96 455h265l-96 -455h-265z" />
    <glyph glyph-name="delta" unicode="&#x3b4;" horiz-adv-x="1097" 
d="M508 -17q-151 0 -260.5 65t-158 181t-16.5 270q27 127 95.5 214.5t163 142.5t199.5 83l-211 229l39 178h800l-45 -210h-469l120 -116q113 -109 173.5 -212t75.5 -210t-12 -229q-40 -187 -167 -286.5t-327 -99.5zM520 185q98 0 150.5 61t73.5 156q19 86 9 157.5t-40 130
t-73 105.5q-122 -34 -201.5 -117t-104.5 -201q-16 -77 -3 -144t60 -107.5t129 -40.5z" />
    <glyph glyph-name="epsilon" unicode="&#x3b5;" horiz-adv-x="991" 
d="M413 -16q-138 0 -233.5 43.5t-137.5 121t-20 177.5q20 85 81.5 131.5t160.5 65.5q-72 26 -110 93t-19 153q10 49 48.5 101t121.5 87t228 35q128 0 212 -42t126 -112t45 -155h-244q-4 51 -43.5 84.5t-117.5 33.5q-67 0 -97.5 -23t-37.5 -59q-7 -32 10.5 -59.5t54 -43.5
t86.5 -16h86l-39 -184h-84q-98 0 -143 -27t-57 -80q-8 -41 8.5 -71.5t54 -46.5t88.5 -16q91 0 145.5 39t66.5 117h247q-33 -181 -148 -264t-339 -83z" />
    <glyph glyph-name="zeta" unicode="&#x3b6;" horiz-adv-x="903" 
d="M468 -258q36 90 44 142.5t-16 77.5t-88 33l-60 8q-107 15 -186 57t-113.5 121.5t-7.5 207.5q23 108 78 197.5t137 169.5t183 158l287 222h-425l44 210h730l-45 -210l-365 -303q-85 -71 -160.5 -146.5t-127 -149.5t-65.5 -142q-19 -89 18.5 -123.5t138.5 -49.5l59 -7
q119 -18 183.5 -65.5t67.5 -144.5t-64 -263h-247z" />
    <glyph glyph-name="eta" unicode="&#x3b7;" horiz-adv-x="1092" 
d="M13 0l207 976h257l-27 -143q58 63 131 110t182 47q91 0 156 -45t90.5 -135t-3.5 -225l-200 -943h-264l202 948q20 92 -3.5 140t-88.5 48q-43 0 -85 -17t-79.5 -45.5t-71.5 -64.5l-139 -651h-264z" />
    <glyph glyph-name="theta" unicode="&#x3b8;" horiz-adv-x="1109" 
d="M476 -18q-114 0 -196 50t-128 145t-52 230.5t31 307.5q47 227 126 370.5t192.5 212t265.5 68.5q114 0 195.5 -49.5t127 -142.5t52 -226.5t-29.5 -302.5q-50 -230 -128 -377t-190 -216.5t-266 -69.5zM499 175q62 0 108 31.5t81.5 95t64.5 158t56 220.5q27 123 34 215.5
t-6.5 154.5t-50 92.5t-95.5 30.5q-61 0 -107 -31t-81 -93t-64 -154t-55 -215q-28 -126 -35 -220.5t6.5 -158t49 -95t94.5 -31.5zM344 592l42 189h472l-43 -189h-471z" />
    <glyph glyph-name="iota" unicode="&#x3b9;" horiz-adv-x="574" 
d="M379 1q-206 0 -271.5 97t-25.5 282l129 596h263l-129 -603q-18 -79 1 -122.5t84 -43.5h61l-44 -206h-68z" />
    <glyph glyph-name="kappa" unicode="&#x3ba;" horiz-adv-x="1036" 
d="M12 0l208 976h265l-93 -435l474 435h288l-476 -436l296 -540h-281l-215 392l-139 -104l-61 -288h-266z" />
    <glyph glyph-name="lambda" unicode="&#x3bb;" horiz-adv-x="1000" 
d="M-103 0l617 988l270 -2l111 -986h-256l-62 682l-393 -682h-287zM514 988l-8 48q-7 50 -47 72t-104 22h-89l46 216h115q108 0 179.5 -27.5t112.5 -91t56 -173.5l10 -68z" />
    <glyph glyph-name="uni03BC" unicode="&#x3bc;" horiz-adv-x="1101" 
d="M-63 -359l283 1335h263l-120 -576q-13 -63 -8 -107.5t31.5 -67t76.5 -22.5q64 0 122.5 36.5t100.5 84.5l139 652h263l-207 -976h-256l27 141q-52 -77 -113.5 -114.5t-135.5 -37.5q-70 0 -134 39.5t-97 113.5t-12 178h170l-143 -679h-250z" />
    <glyph glyph-name="nu" unicode="&#x3bd;" horiz-adv-x="973" 
d="M232 0l-142 976h271l70 -729l385 729h274l-557 -976h-301z" />
    <glyph glyph-name="xi" unicode="&#x3be;" horiz-adv-x="881" 
d="M446 -261q38 100 42.5 152t-24 74t-90.5 30l-59 7q-164 24 -241.5 120.5t-37.5 280.5q24 108 80 175t140 105t192 56q-99 43 -148 129.5t-26 197.5q12 51 43.5 101t95.5 90t170.5 64.5t267.5 24.5h185l-45 -219h-186q-146 0 -207.5 -29t-75.5 -91q-14 -71 43.5 -119
t175.5 -48h125l-47 -219h-159q-167 0 -257 -60t-112 -165q-20 -91 21 -126t134 -50l97 -14q76 -12 126 -39.5t72 -79.5t11 -137t-59 -211h-247z" />
    <glyph glyph-name="omicron" unicode="&#x3bf;" horiz-adv-x="1085" 
d="M485 -18q-151 0 -255 67t-144.5 194t-2.5 306q46 215 180 329t337 114q155 0 258 -67.5t142 -195.5t1 -309q-45 -215 -179 -326.5t-337 -111.5zM502 174q103 0 157.5 79t80.5 203q21 97 13 174.5t-49 123.5t-122 46q-70 0 -117 -37.5t-76 -102t-46 -145.5
q-19 -94 -10 -171.5t50.5 -123.5t118.5 -46z" />
    <glyph glyph-name="pi" unicode="&#x3c0;" horiz-adv-x="1179" 
d="M962 1q-147 0 -221.5 34.5t-91 109t8.5 195.5l92 432h-680l45 204h1137l-44 -204h-194l-88 -416q-16 -76 -2 -112.5t90 -36.5h35l-43 -206h-44zM77 0l178 835h264l-178 -835h-264z" />
    <glyph glyph-name="rho" unicode="&#x3c1;" horiz-adv-x="1100" 
d="M281 95l42 196q25 -35 77.5 -70t129.5 -35q57 0 101 26.5t76 87.5t53 166q22 105 10 178t-52 110.5t-101 37.5q-63 0 -110.5 -28.5t-80.5 -92t-55 -169.5l-183 -860h-263l188 879q35 167 103 272t171 154t243 49q142 0 241 -69.5t139.5 -198t5.5 -308.5
q-32 -157 -96.5 -253t-156.5 -140t-206 -44q-91 0 -165 34t-111 78z" />
    <glyph glyph-name="sigma1" unicode="&#x3c2;" horiz-adv-x="914" 
d="M468 -261q38 100 42.5 152t-24.5 74t-91 30l-48 7q-115 17 -188 75t-96 164t11 267q35 160 100.5 266.5t171 160t259.5 53.5q122 0 206.5 -37t125.5 -108t32 -171h-258q0 58 -30.5 90.5t-100.5 32.5q-106 0 -161 -81t-85 -220q-27 -128 9 -193t156 -85l65 -10
q75 -13 126 -41t72.5 -80t11 -136t-58.5 -210h-247z" />
    <glyph glyph-name="sigma" unicode="&#x3c3;" horiz-adv-x="1129" 
d="M487 -18q-147 0 -251.5 68.5t-148 191.5t-8.5 288q51 238 209.5 342t433.5 104h504l-44 -206h-516q-136 0 -218 -63t-115 -217q-16 -79 -4.5 -149t54.5 -113t117 -43q70 0 112.5 31t67 86.5t40.5 126.5q28 130 12 221.5t-47 134.5l-21 136q118 -1 201.5 -68.5
t116.5 -186.5t0 -275q-43 -202 -167 -305.5t-328 -103.5z" />
    <glyph glyph-name="tau" unicode="&#x3c4;" horiz-adv-x="824" 
d="M517 1q-148 0 -222 35t-89.5 109.5t9.5 194.5l92 432h-237l45 204h781l-45 -204h-281l-88 -416q-15 -77 -1.5 -113t89.5 -36h94l-44 -206h-103z" />
    <glyph glyph-name="upsilon" unicode="&#x3c5;" horiz-adv-x="1098" 
d="M489 -13q-140 0 -239 55t-139.5 163.5t-7.5 268.5l106 502h263l-111 -519q-27 -127 15 -191t131 -64q73 0 119 35.5t74.5 101t47.5 153.5q25 118 33 240t-14 244h264q17 -121 9 -253.5t-37 -269.5q-48 -230 -172 -348t-342 -118z" />
    <glyph glyph-name="phi" unicode="&#x3c6;" horiz-adv-x="1382" 
d="M604 -27q-198 0 -327 73.5t-179.5 204t-13.5 303.5q47 227 217 336t470 109q199 0 329 -74t181.5 -205.5t14.5 -305.5q-48 -227 -219 -334t-473 -107zM633 163q137 0 218 36.5t123 102t60 153.5q14 67 8.5 130t-37 113.5t-94 79.5t-161.5 29q-135 0 -218 -36t-127 -101.5
t-63 -154.5q-14 -68 -7.5 -131t40 -112.5t97 -79t161.5 -29.5zM391 -358l361 1704h235l-360 -1704h-236z" />
    <glyph glyph-name="chi" unicode="&#x3c7;" horiz-adv-x="1016" 
d="M-193 -358l573 748l66 42l372 544h291l-492 -659l-69 -53l-443 -622h-298zM575 -358l-277 975q-18 66 -45.5 99t-62 44.5t-77.5 11.5h-34l47 215h95q93 0 150 -26t93 -84t65 -156l321 -1079h-275z" />
    <glyph glyph-name="psi" unicode="&#x3c8;" horiz-adv-x="1479" 
d="M563 -11q-174 -5 -288 54.5t-157.5 176t-9.5 280.5l102 476h262l-107 -507q-17 -79 -2.5 -140t68 -95.5t152.5 -34.5h197q97 0 160 24.5t99 73.5t51 122l124 557h264l-128 -589q-28 -131 -103 -219.5t-198.5 -133.5t-299.5 -45h-186zM445 -358l360 1704h237l-361 -1704
h-236z" />
    <glyph glyph-name="omega" unicode="&#x3c9;" horiz-adv-x="1636" 
d="M395 -14q-117 0 -197.5 63.5t-110 180.5t3.5 275q19 83 41.5 156t56.5 148.5t86 166.5h263q-50 -95 -85 -172t-59 -149.5t-41 -155.5q-18 -84 -13.5 -151.5t34.5 -107t88 -39.5q57 0 102 42t78 114t52 161l54 253h260l-45 -219q-20 -106 -12.5 -185t42.5 -122.5t94 -43.5
q57 0 94 36t61.5 101t42.5 150q17 81 26 159t8.5 159.5t-13.5 169.5h263q16 -137 7 -265.5t-38 -270.5q-49 -231 -162 -342.5t-297 -111.5q-127 0 -206.5 59t-106.5 172q-68 -116 -153 -173.5t-218 -57.5z" />
    <glyph glyph-name="iotadieresis" unicode="&#x3ca;" horiz-adv-x="574" 
d="M379 1q-206 0 -271.5 97t-25.5 282l129 596h263l-129 -603q-18 -79 1 -122.5t84 -43.5h61l-44 -206h-68zM592 1125q-47 0 -81.5 34t-34.5 82q0 49 34.5 83t81.5 34q49 0 83.5 -34t34.5 -83q0 -48 -34.5 -82t-83.5 -34zM210 1125q-48 0 -83 34t-35 82q0 49 35 83t83 34
q47 0 81.5 -34t34.5 -83q0 -48 -34.5 -82t-81.5 -34z" />
    <glyph glyph-name="upsilondieresis" unicode="&#x3cb;" horiz-adv-x="1098" 
d="M489 -13q-140 0 -239 55t-139.5 163.5t-7.5 268.5l106 502h263l-111 -519q-27 -127 15 -191t131 -64q73 0 119 35.5t74.5 101t47.5 153.5q25 118 33 240t-14 244h264q17 -121 9 -253.5t-37 -269.5q-48 -230 -172 -348t-342 -118zM862 1125q-47 0 -81.5 34t-34.5 82
q0 49 34.5 83t81.5 34q49 0 83.5 -34t34.5 -83q0 -48 -34.5 -82t-83.5 -34zM480 1125q-48 0 -83 34t-35 82q0 49 35 83t83 34q47 0 81.5 -34t34.5 -83q0 -48 -34.5 -82t-81.5 -34z" />
    <glyph glyph-name="omicrontonos" unicode="&#x3cc;" horiz-adv-x="1085" 
d="M485 -18q-151 0 -255 67t-144.5 194t-2.5 306q46 215 180 329t337 114q155 0 258 -67.5t142 -195.5t1 -309q-45 -215 -179 -326.5t-337 -111.5zM502 174q103 0 157.5 79t80.5 203q21 97 13 174.5t-49 123.5t-122 46q-70 0 -117 -37.5t-76 -102t-46 -145.5
q-19 -94 -10 -171.5t50.5 -123.5t118.5 -46zM557 1106l137 341h257l-234 -341h-160z" />
    <glyph glyph-name="upsilontonos" unicode="&#x3cd;" horiz-adv-x="1098" 
d="M489 -13q-140 0 -239 55t-139.5 163.5t-7.5 268.5l106 502h263l-111 -519q-27 -127 15 -191t131 -64q73 0 119 35.5t74.5 101t47.5 153.5q25 118 33 240t-14 244h264q17 -121 9 -253.5t-37 -269.5q-48 -230 -172 -348t-342 -118zM526 1106l137 341h257l-234 -341h-160z
" />
    <glyph glyph-name="omegatonos" unicode="&#x3ce;" horiz-adv-x="1636" 
d="M395 -14q-117 0 -197.5 63.5t-110 180.5t3.5 275q19 83 41.5 156t56.5 148.5t86 166.5h263q-50 -95 -85 -172t-59 -149.5t-41 -155.5q-18 -84 -13.5 -151.5t34.5 -107t88 -39.5q57 0 102 42t78 114t52 161l54 253h260l-45 -219q-20 -106 -12.5 -185t42.5 -122.5t94 -43.5
q57 0 94 36t61.5 101t42.5 150q17 81 26 159t8.5 159.5t-13.5 169.5h263q16 -137 7 -265.5t-38 -270.5q-49 -231 -162 -342.5t-297 -111.5q-127 0 -206.5 59t-106.5 172q-68 -116 -153 -173.5t-218 -57.5zM723 1106l137 341h257l-234 -341h-160z" />
    <glyph glyph-name="uni03CF" unicode="&#x3cf;" horiz-adv-x="1235" 
d="M381 -362l52 240h20q110 0 179 12.5t115 39.5t86 70h305q-76 -124 -171 -204t-231 -119t-335 -39h-20zM29 0l287 1346h281l-135 -635l608 635h321l-643 -656l390 -690h-305l-375 689l-147 -689h-282z" />
    <glyph glyph-name="uni03D0" unicode="&#x3d0;" horiz-adv-x="1074" 
d="M-73 -358l264 1250q36 169 104.5 273t170 151.5t236.5 47.5q115 0 205.5 -50.5t134 -143t16.5 -218.5q-17 -83 -69 -146t-142.5 -99t-227.5 -40l-42 84q140 0 240 -53t144.5 -151.5t14.5 -236.5q-36 -166 -158 -244t-306 -78q-88 0 -153.5 13.5t-124.5 39.5l44 201
q52 -25 109 -38.5t111 -13.5q95 0 149 42.5t71 125.5q18 80 -2 134.5t-66 83t-109 28.5h-49l40 186h51q87 0 146 44t77 132q24 102 -15.5 148.5t-107.5 46.5q-83 0 -140 -60.5t-92 -224.5l-261 -1234h-263z" />
    <glyph glyph-name="theta1" unicode="&#x3d1;" horiz-adv-x="1109" 
d="M476 -18q-114 0 -196 50t-128 145t-52 230.5t31 307.5q47 227 126 370.5t192.5 212t265.5 68.5q114 0 195.5 -49.5t127 -142.5t52 -226.5t-29.5 -302.5q-50 -230 -128 -377t-190 -216.5t-266 -69.5zM499 175q62 0 108 31.5t81.5 95t64.5 158t56 220.5q27 123 34 215.5
t-6.5 154.5t-50 92.5t-95.5 30.5q-61 0 -107 -31t-81 -93t-64 -154t-55 -215q-28 -126 -35 -220.5t6.5 -158t49 -95t94.5 -31.5zM344 592l42 189h472l-43 -189h-471z" />
    <glyph glyph-name="Upsilon1" unicode="&#x3d2;" horiz-adv-x="1223" 
d="M352 0l108 503l-277 843h301l169 -597l210 315q78 117 142.5 177.5t139.5 82.5t181 22h78l-50 -241h-28q-35 0 -67.5 -9t-66 -31.5t-69 -60t-77.5 -94.5l-298 -409l-107 -501h-289z" />
    <glyph glyph-name="uni03D3" unicode="&#x3d3;" horiz-adv-x="1223" 
d="M352 0l108 503l-277 843h301l169 -597l210 315q78 117 142.5 177.5t139.5 82.5t181 22h78l-50 -241h-28q-35 0 -67.5 -9t-66 -31.5t-69 -60t-77.5 -94.5l-298 -409l-107 -501h-289zM-215 1004l137 341h256l-234 -341h-159z" />
    <glyph glyph-name="uni03D4" unicode="&#x3d4;" horiz-adv-x="1223" 
d="M352 0l108 503l-277 843h301l169 -597l210 315q78 117 142.5 177.5t139.5 82.5t181 22h78l-50 -241h-28q-35 0 -67.5 -9t-66 -31.5t-69 -60t-77.5 -94.5l-298 -409l-107 -501h-289zM1003 1473q-47 0 -82 35t-35 82q0 49 35 83.5t82 34.5q48 0 82.5 -34.5t34.5 -83.5
q0 -47 -34.5 -82t-82.5 -35zM620 1473q-48 0 -82.5 35t-34.5 82q0 49 34.5 83.5t82.5 34.5q47 0 81.5 -34.5t34.5 -83.5q0 -47 -34.5 -82t-81.5 -35z" />
    <glyph glyph-name="phi1" unicode="&#x3d5;" horiz-adv-x="1382" 
d="M604 -27q-198 0 -327 73.5t-179.5 204t-13.5 303.5q47 227 217 336t470 109q199 0 329 -74t181.5 -205.5t14.5 -305.5q-48 -227 -219 -334t-473 -107zM633 163q137 0 218 36.5t123 102t60 153.5q14 67 8.5 130t-37 113.5t-94 79.5t-161.5 29q-135 0 -218 -36t-127 -101.5
t-63 -154.5q-14 -68 -7.5 -131t40 -112.5t97 -79t161.5 -29.5zM391 -358l361 1704h235l-360 -1704h-236z" />
    <glyph glyph-name="omega1" unicode="&#x3d6;" horiz-adv-x="1179" 
d="M962 1q-147 0 -221.5 34.5t-91 109t8.5 195.5l92 432h-680l45 204h1137l-44 -204h-194l-88 -416q-16 -76 -2 -112.5t90 -36.5h35l-43 -206h-44zM77 0l178 835h264l-178 -835h-264z" />
    <glyph glyph-name="uni03D7" unicode="&#x3d7;" horiz-adv-x="1248" 
d="M1018 -8q-124 2 -196.5 34t-97.5 94.5t-6 153.5q6 29 18 66.5t27 75.5t31.5 72t30.5 56l-613 -544h-253q85 114 164.5 270t115.5 325q20 93 -4.5 143.5t-102.5 50.5h-30l42 200h60q125 0 202.5 -30t105 -101t1.5 -196q-13 -57 -36 -119.5t-61 -131.5l617 571h254
q-38 -53 -80 -121.5t-82 -147t-72.5 -162t-50.5 -167.5q-20 -95 5 -144t111 -49h28l-20 -94zM401 -373l50 243q149 1 237.5 19t133.5 63t61 126l243 19q-24 -113 -67.5 -200t-123 -147t-209.5 -91t-325 -32z" />
    <glyph glyph-name="uni03D8" unicode="&#x3d8;" horiz-adv-x="1443" 
d="M451 -358l91 435h281l-91 -435h-281zM660 -19q-200 0 -331.5 93.5t-183.5 260t-12 383.5q36 203 128.5 348t240.5 222.5t351 77.5q197 0 327.5 -93.5t183 -260.5t12.5 -390q-36 -199 -126.5 -343t-237.5 -221t-352 -77zM680 214q124 0 208.5 58.5t135 160.5t72.5 232
q21 119 1.5 226t-84.5 173.5t-185 66.5q-123 0 -207 -58t-134.5 -158.5t-72.5 -229.5q-21 -121 -2.5 -229t84 -175t184.5 -67z" />
    <glyph glyph-name="uni03D9" unicode="&#x3d9;" horiz-adv-x="1085" 
d="M255 -358l86 405h265l-86 -405h-265zM485 -18q-151 0 -255 67t-144.5 194t-2.5 306q46 215 180 329t337 114q155 0 258 -67.5t142 -195.5t1 -309q-45 -215 -179 -326.5t-337 -111.5zM502 174q103 0 157.5 79t80.5 203q21 97 13 174.5t-49 123.5t-122 46q-70 0 -117 -37.5
t-76 -102t-46 -145.5q-19 -94 -10 -171.5t50.5 -123.5t118.5 -46z" />
    <glyph glyph-name="uni03DA" unicode="&#x3da;" horiz-adv-x="1244" 
d="M680 -261q34 92 36.5 141.5t-33 72.5t-118.5 34q-179 23 -294.5 99.5t-154 225.5t11.5 387q41 195 134.5 344.5t240.5 235t346 85.5q143 0 256 -51t174.5 -147.5t48.5 -232.5h-288q0 62 -27.5 105.5t-77 67.5t-116.5 24q-120 0 -201.5 -61.5t-131.5 -165t-77 -230.5
q-33 -157 -12.5 -248.5t105.5 -136.5t243 -66q131 -18 197.5 -74.5t71.5 -157.5t-52 -251h-282z" />
    <glyph glyph-name="uni03DB" unicode="&#x3db;" horiz-adv-x="933" 
d="M437 -261q38 96 42.5 148t-24.5 75.5t-91 32.5l-33 5q-102 17 -172.5 73t-95.5 161t10 267q25 121 64 210t101 149t156.5 92t230.5 38q50 2 92 15t70.5 37.5t36.5 57.5h257q-34 -159 -137 -232t-290 -84q-104 -6 -165.5 -41.5t-94 -100t-53.5 -156.5q-25 -124 12 -188.5
t117 -78.5l63 -12q76 -14 126 -42t72 -80t11 -136t-58 -210h-247z" />
    <glyph glyph-name="uni03DC" unicode="&#x3dc;" horiz-adv-x="1058" 
d="M29 0l287 1346h880l-48 -233h-600l-68 -315h542l-98 -464h-262l51 241h-280l-123 -575h-281z" />
    <glyph glyph-name="uni03DD" unicode="&#x3dd;" horiz-adv-x="952" 
d="M-63 -358l283 1334h264l-282 -1334h-265zM246 309l43 204h597l-44 -204h-596zM344 772l44 204h637l-43 -204h-638z" />
    <glyph glyph-name="uni03DE" unicode="&#x3de;" horiz-adv-x="1080" 
d="M827 -20q-178 0 -245.5 65t-46.5 162q13 64 48 129.5t85 150.5l38 69h-621l167 298q19 34 38.5 71.5t35 73t20.5 62.5q10 41 -11.5 58t-53.5 17l50 230q135 0 202 -30t86 -81t6 -115q-13 -62 -43.5 -124.5t-81.5 -156.5l-38 -68h612l-168 -300q-18 -33 -38 -70.5
t-35.5 -72.5t-20.5 -63q-9 -42 12.5 -58.5t52.5 -16.5z" />
    <glyph glyph-name="uni03DF" unicode="&#x3df;" horiz-adv-x="1056" 
d="M733 -225q-124 0 -195.5 31.5t-96.5 88.5t-10 131q14 58 52.5 135.5t114.5 200.5l72 126h-600l188 355q30 56 60 117t38 101q10 41 -19 58t-69 17l49 230q139 0 209 -31.5t89 -84t5 -117.5q-13 -65 -49.5 -140t-82.5 -162l-66 -125h610l-208 -362q-20 -36 -48 -84
t-51 -94.5t-30 -80.5q-10 -44 18.5 -62t68.5 -18z" />
    <glyph glyph-name="uni03E0" unicode="&#x3e0;" horiz-adv-x="1253" 
d="M794 0q37 177 24.5 340.5t-67 302.5t-144.5 242.5t-208.5 161t-257.5 57.5l56 262q188 0 344.5 -69t273.5 -195t187.5 -297t86 -375.5t-32.5 -429.5h-262zM479 253l-116 149l501 414l118 -149zM281 506l-116 150l509 419l117 -148z" />
    <glyph glyph-name="uni03E1" unicode="&#x3e1;" horiz-adv-x="1287" 
d="M771 -205q100 226 126.5 411t-4 330t-103.5 252t-175.5 177.5t-219 104.5t-232.5 34l56 262q157 0 307 -42.5t278 -127.5t219 -214.5t131 -304t13.5 -394.5t-134.5 -488h-262zM521 153l-119 149l503 415l117 -150zM321 407l-116 149l510 419l114 -148z" />
    <glyph glyph-name="uni03E2" unicode="&#x3e2;" horiz-adv-x="1917" 
d="M9 -373l49 227h1181q63 0 104 30.5t55 98.5l37 173q-61 -61 -151.5 -110t-221.5 -49q-107 0 -175.5 52.5t-92 150t4.5 232.5l193 914h282l-194 -917q-14 -64 -8 -108.5t34 -67t79 -22.5q88 0 162 36t126 88l210 991h281l-291 -1384q-23 -112 -71 -186.5t-133.5 -111.5
t-223.5 -37h-1236zM363 -2q-106 0 -173 51.5t-89 147.5t6 228l196 921h281l-197 -923q-12 -61 -6 -104t34 -65.5t79 -22.5q92 0 165.5 33t136.5 84l13 -177q-71 -50 -138.5 -89t-142 -61.5t-165.5 -22.5z" />
    <glyph glyph-name="uni03E3" unicode="&#x3e3;" horiz-adv-x="1768" 
d="M992 -12q-100 0 -169 48.5t-96.5 137.5t-2.5 209l126 593h264l-125 -586q-19 -90 11.5 -140t105.5 -50q71 0 132 36t114 88l139 652h263l-211 -1001l-258 -2l34 173q-62 -62 -139 -110t-188 -48zM-5 -358l44 209h1086q64 0 105 27t55 95l258 2q-37 -173 -138 -253
t-286 -80h-1124zM350 -12q-98 0 -167.5 48.5t-98 137.5t-2.5 209l128 593h263l-126 -586q-18 -90 12 -140t105 -50q71 0 134 37t117 91l23 -152q-85 -82 -181 -135t-207 -53z" />
    <glyph glyph-name="uni03E4" unicode="&#x3e4;" horiz-adv-x="1295" 
d="M777 0l98 462q-76 -25 -158 -42.5t-187 -17.5q-135 0 -224.5 59.5t-121.5 174t2 278.5q33 154 104.5 251.5t188.5 144t285 46.5h85l-50 -240h-65q-71 0 -125 -25t-88.5 -76t-50.5 -131q-14 -73 -1.5 -126t51.5 -81t105 -28q61 0 141.5 13t159.5 42l136 638h281
l-284 -1342h-282z" />
    <glyph glyph-name="uni03E5" unicode="&#x3e5;" horiz-adv-x="1136" 
d="M652 0l102 479q-56 -50 -131 -89t-186 -39q-105 0 -177 43t-99.5 131.5t1.5 224.5l45 216q28 139 88.5 223t163 122t257.5 38h43l-45 -215h-43q-87 0 -136 -43.5t-70 -140.5l-39 -184q-22 -98 5.5 -149t109.5 -51q76 0 138.5 28.5t114.5 68.5l143 683h265l-286 -1346
h-264z" />
    <glyph glyph-name="uni03E6" unicode="&#x3e6;" horiz-adv-x="1322" 
d="M104 -373l51 247h457q87 0 141.5 43t69.5 115l75 349q21 104 -22 148t-140 44q-65 0 -151 -11t-160 -33l-113 -529h-282l285 1346h282l-124 -586q66 18 123.5 31.5t118.5 21.5t137 8q82 0 152.5 -24t118.5 -76.5t64 -136t-9 -204.5l-76 -366q-26 -130 -96.5 -216.5
t-168.5 -128.5t-210 -42h-523z" />
    <glyph glyph-name="uni03E7" unicode="&#x3e7;" horiz-adv-x="1096" 
d="M59 -372l45 215h339q58 0 94 18.5t56 54t30 86.5l63 291q16 91 -11 140.5t-94 49.5q-68 0 -121 -28t-100 -68l-82 -387h-265l207 976h264l-85 -406q52 50 120 89t173 39q97 0 164 -46t94 -134t2 -213l-68 -314q-39 -174 -143 -268.5t-320 -94.5h-362z" />
    <glyph glyph-name="uni03E8" unicode="&#x3e8;" horiz-adv-x="1223" 
d="M522 -18q-158 0 -274.5 53t-170 152.5t-24.5 240.5q21 98 80.5 164.5t168.5 117.5t278 101q126 37 195.5 66t100 59.5t39.5 71.5q15 68 -27.5 102.5t-122.5 34.5q-79 0 -142.5 -33.5t-79.5 -111.5h-288q28 127 100 207t182.5 118t251.5 38q140 0 241 -48.5t147.5 -138.5
t19.5 -217q-21 -102 -83.5 -164.5t-163.5 -105t-241 -82.5q-136 -39 -214 -72.5t-114 -70t-47 -83.5q-19 -92 37.5 -133t165.5 -41q87 0 157 26t118 90t68 176h288q-41 -199 -130 -312t-220 -159t-296 -46z" />
    <glyph glyph-name="uni03E9" unicode="&#x3e9;" horiz-adv-x="1041" 
d="M441 -16q-220 0 -335 87.5t-79 260.5q18 78 70 129t138.5 85t206.5 60q90 20 149 37t90.5 37t36.5 48q11 47 -27.5 67t-95.5 20q-74 0 -125 -26t-65 -93h-246q23 116 87 181t158 91t206 26q82 0 153.5 -18.5t123.5 -56t74 -95.5t6 -138q-16 -79 -67.5 -125.5t-136.5 -76
t-204 -56.5q-95 -22 -154.5 -41.5t-90 -43t-37.5 -60.5q-14 -66 39 -93t144 -27q107 0 169 49t81 137h246q-27 -135 -94.5 -215t-173.5 -115t-247 -35z" />
    <glyph glyph-name="uni03EA" unicode="&#x3ea;" horiz-adv-x="1242" 
d="M893 55l-162 776q-14 69 -33 123.5t-52 92.5t-88 58t-143 20h-115l51 241h120q128 0 216 -32.5t145 -91.5t92 -141t57 -181l164 -733zM-70 0l40 187l154 46h920l101 -46l-40 -187h-1175zM189 55l-219 132l475 734q91 141 190 240.5t222.5 152t287.5 52.5h106l-51 -241
h-101q-108 0 -181 -37.5t-127 -104t-109 -151.5z" />
    <glyph glyph-name="uni03EB" unicode="&#x3eb;" horiz-adv-x="1130" 
d="M789 55l-167 508q-30 90 -70.5 137t-104 63.5t-162.5 16.5h-100l43 205h106q125 0 208.5 -22.5t136.5 -64t87 -99.5t60 -129l182 -483zM-44 0l40 187l146 18h758l108 -18l-40 -187h-1012zM183 55l-187 132l387 485q74 94 154 164t191 109.5t279 39.5h91l-43 -205h-85
q-100 0 -163.5 -17t-116.5 -63.5t-122 -136.5z" />
    <glyph glyph-name="uni03EC" unicode="&#x3ec;" horiz-adv-x="1435" 
d="M697 -16q-216 0 -357.5 96t-194.5 272t-3 414q44 209 149 336.5t281.5 185.5t435.5 58h427l-49 -233h-423q-171 0 -280.5 -38.5t-172.5 -130t-96 -252.5q-32 -158 -6.5 -264.5t103.5 -159.5t199 -53q156 0 231 60t96 163q23 118 -38 186t-203 68q-84 0 -170.5 -15.5
t-166.5 -50t-147 -94.5l45 215q108 79 233 127t277 48q162 0 276.5 -60t164 -177t13.5 -288q-42 -197 -194.5 -305t-429.5 -108z" />
    <glyph glyph-name="uni03ED" unicode="&#x3ed;" horiz-adv-x="1113" 
d="M506 -16q-162 0 -270.5 64t-150.5 186t-6 295q35 164 123 265t238 148t367 47h293l-40 -188h-293q-135 0 -224.5 -28t-141.5 -95t-77 -184q-35 -159 18.5 -241t176.5 -82q114 0 168.5 40t70.5 119q21 95 -29 144t-145 49h-106l37 174h124q140 0 230.5 -44.5t126.5 -131
t9 -213.5q-34 -159 -155 -241.5t-344 -82.5z" />
    <glyph glyph-name="uni03EE" unicode="&#x3ee;" horiz-adv-x="1262" 
d="M388 0l286 1346h281l-286 -1346h-281zM31 575q43 238 164.5 346.5t353.5 108.5h150l-52 -241h-100q-66 0 -114.5 -20.5t-78.5 -68t-42 -125.5h-281zM989 575q11 75 1 122.5t-45.5 69.5t-105.5 22h-94l51 241h78q234 0 335.5 -110.5t60.5 -344.5h-281z" />
    <glyph glyph-name="uni03EF" unicode="&#x3ef;" horiz-adv-x="1003" 
d="M220 -358l347 1633h264l-347 -1633h-264zM52 586l19 92q33 153 146.5 225.5t294.5 72.5l-43 -206q-96 0 -140 -38.5t-62 -120.5l-5 -25h-210zM673 770l43 206h359l-43 -206h-359z" />
    <glyph glyph-name="uni03F0" unicode="&#x3f0;" horiz-adv-x="1213" 
d="M1008 -8q-132 0 -210 35.5t-105.5 99t-10.5 147.5q8 35 25.5 85.5t39 101t42.5 83.5l-577 -544h-253q90 121 168 277.5t111 317.5q20 93 -4.5 143.5t-102.5 50.5h-30l43 200h60q122 0 199 -33.5t106 -105.5t4 -188q-13 -59 -36 -120.5t-61 -130.5l582 571h254
q-42 -58 -85.5 -129t-83 -149.5t-71 -160.5t-48.5 -161q-19 -94 7 -142t112 -48h28l-43 -200h-60z" />
    <glyph glyph-name="uni03F1" unicode="&#x3f1;" horiz-adv-x="1110" 
d="M555 -17q-89 0 -162 34t-108 82l47 217q20 -54 72 -92t134 -38q90 0 146 60.5t88 212.5q23 103 10.5 178t-54.5 115t-108 40q-96 0 -153.5 -63t-89.5 -216l-110 -512l-256 40l96 449q40 185 112.5 296.5t178 160.5t244.5 49q147 0 246 -70.5t137 -197t3 -298.5
q-36 -171 -102 -268.5t-159 -138t-212 -40.5zM313 -358q-192 0 -265.5 100.5t-36.5 298.5l256 -40q-16 -79 17 -114.5t106 -35.5h466l-44 -209h-499z" />
    <glyph glyph-name="uni03F2" unicode="&#x3f2;" horiz-adv-x="1048" 
d="M483 -18q-134 0 -236 61t-149.5 181t-19.5 298q39 235 174.5 352.5t340.5 117.5q124 0 214.5 -46t137 -130t38.5 -197h-257q2 45 -13 86.5t-48.5 68t-90.5 26.5q-101 0 -158.5 -82.5t-79.5 -218.5q-25 -159 22 -241.5t145 -82.5q79 0 128 49t64 141h257
q-37 -196 -155.5 -289.5t-313.5 -93.5z" />
    <glyph glyph-name="uni03F3" unicode="&#x3f3;" horiz-adv-x="492" 
d="M-249 -359l44 210h60q64 0 102 31t51 99l212 995h263l-213 -1009q-33 -150 -125 -238t-285 -88h-109zM396 1103q-73 0 -112 38.5t-39 91.5q0 54 39 91.5t112 37.5q72 0 110.5 -37.5t38.5 -91.5q0 -53 -38.5 -91.5t-110.5 -38.5z" />
    <glyph glyph-name="uni03F4" unicode="&#x3f4;" horiz-adv-x="1443" 
d="M518 569l42 222h427l-41 -222h-428zM660 -19q-200 0 -331.5 93.5t-183.5 260t-12 383.5q36 203 128.5 348t240.5 222.5t351 77.5q197 0 327.5 -93.5t183 -260.5t12.5 -390q-36 -199 -126.5 -343t-237.5 -221t-352 -77zM680 214q124 0 208.5 58.5t135 160.5t72.5 232
q21 119 1.5 226t-84.5 173.5t-185 66.5q-123 0 -207 -58t-134.5 -158.5t-72.5 -229.5q-21 -121 -2.5 -229t84 -175t184.5 -67z" />
    <glyph glyph-name="uni03F5" unicode="&#x3f5;" horiz-adv-x="808" 
d="M649 390h-375l44 203h375zM513 -16q-162 0 -272 67t-152.5 193.5t-5.5 304.5q36 168 122.5 263.5t212.5 135.5t280 40h135l-44 -206h-105q-139 0 -226 -67t-116 -206q-32 -146 23.5 -233t194.5 -87h126l-45 -205h-128z" />
    <glyph glyph-name="uni03F6" unicode="&#x3f6;" horiz-adv-x="1038" 
d="M413 390l45 203h375l-44 -203h-376zM444 -18q-123 0 -213 45t-137 129.5t-40 201.5h257q-1 -48 14.5 -90t49 -67.5t89.5 -25.5q105 0 160.5 79.5t78.5 217.5q25 162 -18.5 245t-141.5 83q-77 0 -125 -46t-64 -112h-252q35 163 152 256.5t308 93.5q133 0 233.5 -60
t147 -180t17.5 -300q-38 -234 -173.5 -352t-342.5 -118z" />
    <glyph glyph-name="uni03F7" unicode="&#x3f7;" horiz-adv-x="1211" 
d="M100 239l49 227h455q98 0 172 46.5t94 143.5q22 107 -33 165.5t-166 58.5h-435l49 225h421q155 0 264.5 -58t157 -168t15.5 -265q-41 -193 -188.5 -284t-372.5 -91h-482zM29 0l287 1346h281l-286 -1346h-282z" />
    <glyph glyph-name="uni03F8" unicode="&#x3f8;" horiz-adv-x="1111" 
d="M-64 -359l367 1706h258l-106 -508q51 67 122 110t172 43q108 0 185 -65t105.5 -189.5t-9.5 -304.5q-49 -228 -166.5 -339.5t-277.5 -111.5q-94 0 -166 40t-116 113l-106 -494h-262zM550 184q83 0 135 70.5t81 205.5q24 110 14 183.5t-44.5 110.5t-84.5 37
q-55 0 -100.5 -24t-81.5 -62.5t-61 -80.5l-58 -283q23 -66 77 -111.5t123 -45.5z" />
    <glyph glyph-name="uni03F9" unicode="&#x3f9;" horiz-adv-x="1391" 
d="M665 -18q-190 0 -322.5 87t-190 250t-20.5 393q33 206 128.5 352t244.5 223t341 77q156 0 272.5 -58t179.5 -165t59 -255h-287q0 78 -32.5 131.5t-88 82t-126.5 28.5q-122 0 -206.5 -59t-133.5 -160.5t-70 -228.5q-21 -133 -0.5 -238t87.5 -165t186 -60q125 0 208.5 66.5
t114.5 207.5h287q-55 -264 -216.5 -386.5t-414.5 -122.5z" />
    <glyph glyph-name="uni03FA" unicode="&#x3fa;" horiz-adv-x="1626" 
d="M29 0l287 1346h308l230 -624l492 624h330l-287 -1346h-279l208 974l-427 -544h-176l-205 544l-209 -974h-272z" />
    <glyph glyph-name="uni03FB" unicode="&#x3fb;" horiz-adv-x="1402" 
d="M696 496l416 481h277l-207 -977h-250l135 630l-354 -406h-135l-181 406l-211 -988h-249l283 1335h263z" />
    <glyph glyph-name="uni03FC" unicode="&#x3fc;" horiz-adv-x="1100" 
d="M-148 -223l29 141h614l-29 -141h-614zM281 95l42 196q25 -35 77.5 -70t129.5 -35q57 0 101 26.5t76 87.5t53 166q22 105 10 178t-52 110.5t-101 37.5q-63 0 -110.5 -28.5t-80.5 -92t-55 -169.5l-183 -860h-263l188 879q35 167 103 272t171 154t243 49q142 0 241 -69.5
t139.5 -198t5.5 -308.5q-32 -157 -96.5 -253t-156.5 -140t-206 -44q-91 0 -165 34t-111 78z" />
    <glyph glyph-name="uni03FD" unicode="&#x3fd;" horiz-adv-x="1363" 
d="M620 -18q-151 0 -268.5 58t-182 165.5t-57.5 253.5h288q0 -76 30 -131t83 -83.5t119 -28.5q119 0 198.5 57.5t127 159.5t68.5 234q21 133 3 237t-78.5 164.5t-168.5 60.5q-126 0 -209 -67t-112 -207h-287q36 176 120 288t211 166.5t292 54.5q188 0 315 -89t179.5 -254.5
t15.5 -396.5q-33 -212 -122 -355t-230 -215t-335 -72z" />
    <glyph glyph-name="uni03FE" unicode="&#x3fe;" horiz-adv-x="1391" 
d="M665 -18q-190 0 -322.5 87t-190 250t-20.5 393q33 206 128.5 352t244.5 223t341 77q156 0 272.5 -58t179.5 -165t59 -255h-287q0 78 -32.5 131.5t-88 82t-126.5 28.5q-122 0 -206.5 -59t-133.5 -160.5t-70 -228.5q-21 -133 -0.5 -238t87.5 -165t186 -60q125 0 208.5 66.5
t114.5 207.5h287q-55 -264 -216.5 -386.5t-414.5 -122.5zM752 549q-72 0 -111 37t-39 92q0 57 39 93t111 36q73 0 111.5 -36t38.5 -93q0 -55 -38.5 -92t-111.5 -37z" />
    <glyph glyph-name="uni03FF" unicode="&#x3ff;" horiz-adv-x="1365" 
d="M623 -18q-151 0 -268.5 58t-182 165.5t-57.5 253.5h288q0 -76 30.5 -131t83 -83.5t118.5 -28.5q119 0 198.5 57.5t127 159.5t68.5 234q21 133 2.5 237t-82 164.5t-178.5 60.5t-196.5 -63t-110.5 -197h-288q36 171 119.5 280.5t208.5 162t283 52.5q194 0 324 -89
t182.5 -254.5t15.5 -396.5q-33 -212 -121.5 -355t-229.5 -215t-335 -72zM688 541q-73 0 -111.5 37t-38.5 92q0 57 38.5 93t111.5 36t111 -36t38 -93q0 -55 -38 -92t-111 -37z" />
    <glyph glyph-name="uni0400" unicode="&#x400;" horiz-adv-x="1125" 
d="M29 0l287 1346h904l-49 -233h-623l-68 -313h564l-47 -225h-564l-74 -342h623l-49 -233h-904zM736 1454l-235 278h281l139 -278h-185z" />
    <glyph glyph-name="uni0401" unicode="&#x401;" horiz-adv-x="1125" 
d="M29 0l287 1346h904l-49 -233h-623l-68 -313h564l-47 -225h-564l-74 -342h623l-49 -233h-904zM993 1473q-47 0 -82 35t-35 82q0 49 35 83.5t82 34.5q48 0 82.5 -34.5t34.5 -83.5q0 -47 -34.5 -82t-82.5 -35zM610 1473q-48 0 -82.5 35t-34.5 82q0 49 34.5 83.5t82.5 34.5
q47 0 81.5 -34.5t34.5 -83.5q0 -47 -34.5 -82t-81.5 -35z" />
    <glyph glyph-name="uni0402" unicode="&#x402;" horiz-adv-x="1569" 
d="M274 0l236 1112h-360l52 234h997l-51 -234h-357l-235 -1112h-282zM705 -330l50 240h101q67 0 115.5 27.5t81.5 90t53 163.5l58 295q21 105 -29.5 148t-141.5 43q-67 0 -148 -11.5t-159 -32.5l49 218q92 27 172.5 43.5t180.5 16.5q123 0 214.5 -48t132 -147t8.5 -251
l-65 -316q-35 -171 -100 -277t-171 -154t-265 -48h-137z" />
    <glyph glyph-name="uni0403" unicode="&#x403;" horiz-adv-x="965" 
d="M316 1346h808l-48 -221h-526l-240 -1125h-281zM579 1453l239 277h293l-334 -277h-198z" />
    <glyph glyph-name="uni0404" unicode="&#x404;" horiz-adv-x="1391" 
d="M149 575l49 225h700l-48 -225h-701zM665 -18q-190 0 -322.5 87t-190 250t-20.5 393q33 206 128.5 352t244.5 223t341 77q156 0 272.5 -58t179.5 -165t59 -255h-287q0 78 -32.5 131.5t-88 82t-126.5 28.5q-122 0 -206.5 -59t-133.5 -160.5t-70 -228.5q-21 -133 -0.5 -238
t87.5 -165t186 -60q125 0 208.5 66.5t114.5 207.5h287q-37 -176 -121.5 -288.5t-212.5 -166.5t-297 -54z" />
    <glyph glyph-name="uni0405" unicode="&#x405;" horiz-adv-x="1175" 
d="M542 -17q-153 0 -265 45t-173.5 139.5t-61.5 244.5h287q3 -107 61.5 -155.5t173.5 -48.5q96 0 155.5 34.5t69.5 106.5q8 53 -11 93.5t-75.5 75t-162.5 69.5q-115 37 -200.5 98t-125 149.5t-20.5 209.5q19 110 86.5 181.5t175.5 106.5t245 33q135 -1 241 -42.5t167 -127.5
t63 -221h-288q-3 85 -57.5 129.5t-147.5 44.5q-81 0 -137.5 -31t-66.5 -95q-6 -40 11 -75.5t72 -69t165 -71.5q132 -44 217 -105.5t121 -149.5t16 -214q-19 -126 -90 -204t-184 -114t-261 -36z" />
    <glyph glyph-name="uni0406" unicode="&#x406;" horiz-adv-x="547" 
d="M29 0l287 1346h281l-287 -1346h-281z" />
    <glyph glyph-name="uni0407" unicode="&#x407;" horiz-adv-x="547" 
d="M29 0l287 1346h281l-287 -1346h-281zM683 1473q-47 0 -82 35t-35 82q0 49 35 83.5t82 34.5q48 0 82.5 -34.5t34.5 -83.5q0 -47 -34.5 -82t-82.5 -35zM300 1473q-48 0 -82.5 35t-34.5 82q0 49 34.5 83.5t82.5 34.5q47 0 81.5 -34.5t34.5 -83.5q0 -47 -34.5 -82t-81.5 -35z
" />
    <glyph glyph-name="uni0408" unicode="&#x408;" horiz-adv-x="713" 
d="M-84 -16l51 239h93q104 0 164.5 54t87.5 178l189 891h275l-194 -917q-33 -155 -96.5 -253t-168 -145t-262.5 -47h-139z" />
    <glyph glyph-name="uni0409" unicode="&#x409;" horiz-adv-x="1983" 
d="M-93 -16l51 239h32q56 0 102.5 23t92 89t100 191t127.5 329l177 491h268l-187 -535q-69 -200 -128.5 -343t-117.5 -237t-123.5 -148t-148 -76.5t-192.5 -22.5h-53zM848 0l234 1111h-533l116 235h750l-285 -1346h-282zM1101 233h214q70 0 126 15t94 53.5t54 109.5
q15 75 -7.5 122.5t-73.5 70.5t-121 23h-210zM891 0l321 842h206q161 0 272.5 -55t158.5 -158t16 -251q-31 -145 -107.5 -227.5t-192.5 -116.5t-270 -34h-404z" />
    <glyph glyph-name="uni040A" unicode="&#x40a;" horiz-adv-x="1888" 
d="M29 0l287 1346h281l-111 -526h504l-53 -248h-505l-122 -572h-281zM752 0l287 1346h280l-286 -1346h-281zM792 0l338 842h193q161 0 272 -55t158.5 -158t16.5 -251q-32 -145 -108 -227.5t-192.5 -116.5t-270.5 -34h-407zM1012 233h208q70 0 126.5 17t95 56t52.5 105
q15 75 -7.5 122.5t-73.5 70.5t-122 23h-204z" />
    <glyph glyph-name="uni040B" unicode="&#x40b;" horiz-adv-x="1565" 
d="M274 0l236 1112h-360l52 234h997l-51 -234h-357l-55 -261q91 24 180 42t197 18q121 0 207 -46.5t120.5 -143t2.5 -244.5l-101 -477h-281l104 488q22 98 -23 143.5t-134 45.5q-70 0 -155.5 -11.5t-165.5 -32.5l-131 -633h-282z" />
    <glyph glyph-name="uni040C" unicode="&#x40c;" horiz-adv-x="1235" 
d="M29 0l287 1346h281l-135 -635l608 635h321l-643 -656l390 -690h-305l-375 689l-147 -689h-282zM693 1454l239 277h293l-334 -277h-198z" />
    <glyph glyph-name="uni040D" unicode="&#x40d;" horiz-adv-x="1425" 
d="M1189 0h-264l194 913l-814 -913h-276l287 1346h265l-193 -907l812 907h275zM831 1454l-235 278h281l139 -278h-185z" />
    <glyph glyph-name="uni040E" unicode="&#x40e;" horiz-adv-x="1221" 
d="M108 -9l48 231h83q70 0 124.5 16t86.5 61l11 17l-278 1030h299l179 -743l434 743h308l-672 -1091q-52 -85 -105 -137.5t-112.5 -80t-131 -37t-161.5 -9.5h-113zM775 1456q-105 0 -179 36.5t-112.5 99t-35.5 141.5h205q-1 -49 20 -78t54 -41.5t70 -12.5q38 0 75.5 11
t66 40t40.5 81h204q-42 -139 -144.5 -208t-263.5 -69z" />
    <glyph glyph-name="uni040F" unicode="&#x40f;" horiz-adv-x="1419" 
d="M30 0l285 1346h281l-236 -1111h590l236 1111h281l-284 -1346h-1153zM412 -294l109 513h262l-109 -513h-262z" />
    <glyph glyph-name="uni0410" unicode="&#x410;" horiz-adv-x="1250" 
d="M-119 0l772 1346h294l199 -1346h-285l-33 296h-486l-162 -296h-299zM460 529h350l-62 539z" />
    <glyph glyph-name="uni0411" unicode="&#x411;" horiz-adv-x="1206" 
d="M29 0l287 1346h849l-51 -234h-567l-237 -1112h-281zM141 0l329 842h176q167 0 276 -57t152.5 -163t10.5 -254q-28 -135 -105 -215.5t-197 -116.5t-280 -36h-362zM359 233h179q106 0 177.5 34.5t93.5 144.5q21 108 -37.5 161.5t-164.5 53.5h-173z" />
    <glyph glyph-name="uni0412" unicode="&#x412;" horiz-adv-x="1215" 
d="M29 0l287 1346l407 1q152 1 252.5 -50t141.5 -141.5t15 -209.5q-20 -93 -92 -153t-168 -82q73 -21 129.5 -70.5t82.5 -124t6 -173.5q-24 -118 -102 -194t-201 -112.5t-285 -36.5h-473zM361 233h178q106 0 176.5 35t90.5 122q21 100 -35.5 148t-157.5 48h-179zM480 801
h135q105 0 165 39.5t75 111.5q17 82 -30.5 124.5t-132.5 42.5h-143z" />
    <glyph glyph-name="uni0413" unicode="&#x413;" horiz-adv-x="965" 
d="M316 1346h808l-48 -221h-526l-240 -1125h-281z" />
    <glyph glyph-name="uni0414" unicode="&#x414;" horiz-adv-x="1482" 
d="M-150 -294l112 522h167q62 105 121.5 235t115 275.5t106.5 299.5t95 308h873l-234 -1112h203l-113 -528h-262l63 294h-922l-62 -294h-263zM421 234h503l182 877h-353q-23 -78 -51.5 -166.5t-61.5 -182t-69 -186.5t-74 -180t-76 -162z" />
    <glyph glyph-name="uni0415" unicode="&#x415;" horiz-adv-x="1125" 
d="M29 0l287 1346h904l-49 -233h-623l-68 -313h564l-47 -225h-564l-74 -342h623l-49 -233h-904z" />
    <glyph glyph-name="uni0416" unicode="&#x416;" horiz-adv-x="1840" 
d="M680 0l287 1346h272l-136 -642l584 642h311l-619 -643l365 -703h-297l-348 689l-147 -689h-272zM-111 0l667 721l-347 625h284l339 -643l-4 -14l-614 -689h-325z" />
    <glyph glyph-name="uni0417" unicode="&#x417;" horiz-adv-x="1172" 
d="M529 -17q-160 0 -268 53t-159 151t-41 231h272q-4 -99 44.5 -155t159.5 -56q106 0 161 44t72 129q21 97 -33.5 155t-161.5 58h-93l47 221h118q94 0 154 36t76 105q13 57 -4.5 99t-60 64.5t-105.5 22.5q-98 0 -157.5 -41t-78.5 -141h-272q22 140 93.5 229.5t182.5 133
t252 43.5q136 0 241 -50.5t157 -142.5t24 -217q-22 -108 -102.5 -172t-207.5 -88q72 -19 125 -69.5t76 -127.5t1 -179q-22 -101 -82 -176.5t-165.5 -117.5t-264.5 -42z" />
    <glyph glyph-name="uni0418" unicode="&#x418;" horiz-adv-x="1425" 
d="M1189 0h-264l194 913l-814 -913h-276l287 1346h265l-193 -907l812 907h275z" />
    <glyph glyph-name="uni0419" unicode="&#x419;" horiz-adv-x="1425" 
d="M1189 0h-264l194 913l-814 -913h-276l287 1346h265l-193 -907l812 907h275zM884 1456q-105 0 -179 36.5t-112.5 99t-35.5 141.5h205q-1 -49 20 -78t54 -41.5t70 -12.5q38 0 75.5 11t66 40t40.5 81h204q-42 -139 -144.5 -208t-263.5 -69z" />
    <glyph glyph-name="uni041A" unicode="&#x41a;" horiz-adv-x="1235" 
d="M29 0l287 1346h281l-135 -635l608 635h321l-643 -656l390 -690h-305l-375 689l-147 -689h-282z" />
    <glyph glyph-name="uni041B" unicode="&#x41b;" horiz-adv-x="1393" 
d="M875 0l236 1111h-525l72 235h785l-286 -1346h-282zM-93 -16l51 239h32q56 0 102.5 23t92 89t100 191t127.5 329l177 491h268l-186 -535q-71 -200 -130 -343t-117 -237t-123.5 -148t-148 -76.5t-192.5 -22.5h-53z" />
    <glyph glyph-name="uni041C" unicode="&#x41c;" horiz-adv-x="1626" 
d="M29 0l287 1346h308l230 -624l492 624h330l-287 -1346h-279l208 974l-427 -544h-176l-205 544l-209 -974h-272z" />
    <glyph glyph-name="uni041D" unicode="&#x41d;" horiz-adv-x="1398" 
d="M29 0l287 1346h281l-111 -526h570l112 526h280l-287 -1346h-280l121 572h-570l-122 -572h-281z" />
    <glyph glyph-name="uni041E" unicode="&#x41e;" horiz-adv-x="1443" 
d="M660 -19q-200 0 -331.5 93.5t-183.5 260t-12 383.5q36 203 128.5 348t240.5 222.5t351 77.5q197 0 327.5 -93.5t183 -260.5t12.5 -390q-36 -199 -126.5 -343t-237.5 -221t-352 -77zM680 214q124 0 208.5 58.5t135 160.5t72.5 232q21 119 1.5 226t-84.5 173.5t-185 66.5
q-123 0 -207 -58t-134.5 -158.5t-72.5 -229.5q-21 -121 -2.5 -229t84 -175t184.5 -67z" />
    <glyph glyph-name="uni041F" unicode="&#x41f;" horiz-adv-x="1377" 
d="M29 0l287 1346h1111l-286 -1346h-282l236 1111h-549l-236 -1111h-281z" />
    <glyph glyph-name="uni0420" unicode="&#x420;" horiz-adv-x="1198" 
d="M29 0l287 1346h408q166 0 280 -59t161.5 -171t12.5 -272q-28 -137 -109 -217t-196.5 -114t-249.5 -34h-210l-102 -479h-282zM460 705h179q95 0 165.5 43.5t91.5 144.5q24 110 -29.5 168t-157.5 58h-160z" />
    <glyph glyph-name="uni0421" unicode="&#x421;" horiz-adv-x="1391" 
d="M665 -18q-190 0 -322.5 87t-190 250t-20.5 393q33 206 128.5 352t244.5 223t341 77q156 0 272.5 -58t179.5 -165t59 -255h-287q0 78 -32.5 131.5t-88 82t-126.5 28.5q-122 0 -206.5 -59t-133.5 -160.5t-70 -228.5q-21 -133 -0.5 -238t87.5 -165t186 -60q125 0 208.5 66.5
t114.5 207.5h287q-55 -264 -216.5 -386.5t-414.5 -122.5z" />
    <glyph glyph-name="uni0422" unicode="&#x422;" horiz-adv-x="1022" 
d="M267 0l235 1112h-357l51 234h998l-51 -234h-360l-236 -1112h-280z" />
    <glyph glyph-name="uni0423" unicode="&#x423;" horiz-adv-x="1221" 
d="M108 -9l48 231h83q70 0 124.5 16t86.5 61l11 17l-278 1030h299l179 -743l434 743h308l-672 -1091q-52 -85 -105 -137.5t-112.5 -80t-131 -37t-161.5 -9.5h-113z" />
    <glyph glyph-name="uni0424" unicode="&#x424;" horiz-adv-x="1597" 
d="M692 126q-132 0 -244 43t-189 125t-107.5 198t0.5 264q37 170 138 274t252 151t334 47h53l-46 -212h-48q-168 0 -271 -76.5t-133 -217.5q-25 -116 7 -203t109 -134.5t187 -47.5h25l-46 -211h-21zM547 -41l304 1427h281l-304 -1427h-281zM749 126l45 213h51
q167 0 269 77.5t134 222.5q25 118 -6.5 202.5t-108.5 130t-190 45.5h-25l46 211h21q128 0 240 -42t191 -122.5t110.5 -197t-0.5 -264.5q-36 -172 -138.5 -276.5t-253 -152t-330.5 -47.5h-55z" />
    <glyph glyph-name="uni0425" unicode="&#x425;" horiz-adv-x="1212" 
d="M-108 0l602 703l-278 643h305l162 -440l353 440h324l-551 -644l299 -702h-307l-181 475l-393 -475h-335z" />
    <glyph glyph-name="uni0426" unicode="&#x426;" horiz-adv-x="1467" 
d="M30 0l285 1346h281l-239 -1125h549l238 1125h282l-284 -1346h-1112zM1020 -294l62 294l22 132l15 89h271l-109 -515h-261z" />
    <glyph glyph-name="uni0427" unicode="&#x427;" horiz-adv-x="1321" 
d="M803 -1l110 521q-80 -22 -160 -41t-188 -19q-122 0 -213 52t-130.5 156t-7.5 257l88 419h281l-91 -427q-24 -114 23.5 -168.5t143.5 -54.5q70 0 147 11t155 33l127 606h282l-285 -1345h-282z" />
    <glyph glyph-name="uni0428" unicode="&#x428;" horiz-adv-x="1938" 
d="M29 0l287 1346h281l-236 -1111h1110l236 1111h281l-286 -1346h-1673zM735 47l277 1299h280l-277 -1299h-280z" />
    <glyph glyph-name="uni0429" unicode="&#x429;" horiz-adv-x="2028" 
d="M30 0l285 1346h281l-236 -1111h1110l236 1111h282l-285 -1346h-1673zM734 47l277 1299h280l-276 -1299h-281zM1581 -294l64 294l24 146l14 88h271l-111 -528h-262z" />
    <glyph glyph-name="uni042A" unicode="&#x42a;" horiz-adv-x="1459" 
d="M281 0l238 1113h-373l49 234l654 -1l-107 -504h151q161 0 272.5 -55t159 -158t15.5 -251q-31 -145 -107.5 -227.5t-192.5 -116.5t-270 -34h-489zM612 233h179q70 0 126 15t94 53.5t53 109.5q16 75 -6.5 122.5t-73.5 70.5t-122 23h-166z" />
    <glyph glyph-name="uni042B" unicode="&#x42b;" horiz-adv-x="1637" 
d="M29 0l287 1346h281l-108 -504h111q161 0 272.5 -55t159 -158t15.5 -251q-31 -145 -107 -227.5t-193 -116.5t-271 -34h-447zM359 233h138q71 0 127 15t94 53.5t53 109.5q16 75 -7 122.5t-74 70.5t-121 23h-125zM1120 0l286 1346h281l-286 -1346h-281z" />
    <glyph glyph-name="uni042C" unicode="&#x42c;" horiz-adv-x="1206" 
d="M29 0l287 1346h281l-287 -1346h-281zM100 0l330 842h211q159 0 271 -55t159 -160.5t14 -259.5q-30 -139 -106 -219.5t-192 -114t-270 -33.5h-417zM318 233h220q74 0 130 16t92.5 54.5t50.5 105.5q17 78 -7 126t-75.5 70t-118.5 22h-216z" />
    <glyph glyph-name="uni042D" unicode="&#x42d;" horiz-adv-x="1375" 
d="M620 -18q-151 0 -268.5 58t-182 165.5t-57.5 253.5h288q0 -76 30 -131t83 -83.5t119 -28.5q119 0 198.5 57.5t127 159.5t68.5 234q21 133 3 237t-81 164.5t-177 60.5q-78 0 -141 -29.5t-106 -90t-63 -154.5h-287q36 176 119.5 288t209.5 166.5t291 54.5q188 0 315.5 -89
t181 -254.5t16.5 -396.5q-33 -212 -122 -355t-230 -215t-335 -72zM588 575l45 225h659l-43 -225h-661z" />
    <glyph glyph-name="uni042E" unicode="&#x42e;" horiz-adv-x="1973" 
d="M29 0l287 1346h281l-111 -526h440l-53 -248h-441l-122 -572h-281zM1190 -18q-202 0 -327.5 97t-169.5 266t1 382q44 205 140 347.5t243 216t341 73.5q200 0 323.5 -98.5t166 -269t-3.5 -386.5q-43 -202 -137 -342.5t-238.5 -213t-338.5 -72.5zM1224 216q118 0 198 54.5
t129.5 150.5t76.5 221q21 99 17.5 187t-33.5 155.5t-86.5 106.5t-141.5 39q-118 0 -198 -56t-129 -154.5t-76 -224.5q-26 -123 -11.5 -233t76.5 -178t178 -68z" />
    <glyph glyph-name="uni042F" unicode="&#x42f;" horiz-adv-x="1215" 
d="M-76 0l174 332q47 88 95.5 150t111.5 99t152 50q-119 42 -168.5 148t-21.5 233q28 133 104 205.5t184 100.5t230 28h480l-287 -1346h-281l109 515h-144q-72 0 -122.5 -23.5t-92 -77.5t-87.5 -147l-131 -267h-305zM713 747h144l78 366h-168q-87 0 -151.5 -35t-82.5 -120
q-13 -61 6.5 -109t64.5 -75t109 -27z" />
    <glyph glyph-name="uni0430" unicode="&#x430;" horiz-adv-x="1048" 
d="M298 -18q-92 0 -159 38.5t-96 112.5t-10 180q18 95 73.5 151.5t143 83.5t203 36.5t254.5 12.5l9 46q12 60 -2.5 97t-46.5 54t-74 17q-71 0 -125 -36.5t-68 -118.5h-248q26 177 146.5 256.5t308.5 79.5q85 0 159.5 -21.5t127 -70t72.5 -127t-4 -192.5l-123 -581h-244
l16 125q-64 -67 -135.5 -105t-177.5 -38zM394 165q54 0 101 24t84.5 58.5t64.5 64.5l32 139q-195 -1 -282 -32t-103 -116q-11 -64 18 -101t85 -37z" />
    <glyph glyph-name="uni0431" unicode="&#x431;" horiz-adv-x="1097" 
d="M108 660q34 150 81.5 254.5t111.5 177t147 121.5q89 52 191.5 83.5t229 51t285.5 36.5l19 2l-48 -228l-22 -2q-155 -15 -260.5 -32t-173.5 -37t-114 -46q-54 -30 -90.5 -81t-59 -112.5t-34.5 -123.5zM506 -16q-153 0 -257.5 76t-143.5 226t3 374l188 63q28 56 87.5 111.5
t144.5 92t186 36.5q107 0 189.5 -57.5t117.5 -172.5t-2 -287q-49 -233 -179 -347.5t-334 -114.5zM514 185q102 0 157 73t83 203q30 141 -7.5 220.5t-128.5 79.5q-74 0 -142.5 -37.5t-112.5 -91.5l-5 -24q-30 -142 -17.5 -236t58.5 -140.5t115 -46.5z" />
    <glyph glyph-name="uni0432" unicode="&#x432;" horiz-adv-x="1048" 
d="M12 0l208 976h396q123 0 211 -31t128.5 -91.5t19.5 -152.5q-16 -70 -67.5 -113t-135.5 -66q99 -19 149 -94t27 -179q-19 -89 -76.5 -144t-152.5 -80t-227 -25h-480zM316 181h175q48 0 89.5 8t70.5 32t39 71q12 62 -29.5 94t-118.5 32h-174zM404 588h138q57 0 103 20.5
t57 75.5q13 56 -23 84.5t-95 28.5h-137z" />
    <glyph glyph-name="uni0433" unicode="&#x433;" horiz-adv-x="738" 
d="M15 0l205 976h264l-204 -976h-265zM328 772l33 204h470l-43 -204h-460z" />
    <glyph glyph-name="uni0434" unicode="&#x434;" horiz-adv-x="1220" 
d="M-149 -256l98 461h147q85 148 167.5 340.5t158.5 430.5h712l-164 -771h159l-98 -461h-245l55 256h-690l-56 -256h-244zM368 205h338l119 565h-222q-28 -87 -65.5 -182.5t-80.5 -192.5t-89 -190z" />
    <glyph glyph-name="uni0435" unicode="&#x435;" horiz-adv-x="1060" 
d="M481 -17q-149 0 -248 67t-139 188t-15 286q23 146 89 251t172.5 161t247.5 56q145 0 241.5 -69t135 -194t7.5 -293h-645q-8 -69 4.5 -129t53 -96.5t115.5 -36.5q74 0 124.5 34.5t69.5 115.5h261q-43 -175 -161.5 -258t-312.5 -83zM358 604h376q7 65 -10.5 110t-55 69.5
t-89.5 24.5q-87 0 -145 -52.5t-76 -151.5z" />
    <glyph glyph-name="uni0436" unicode="&#x436;" horiz-adv-x="1543" 
d="M-146 0l530 527l-294 449h276l287 -450l96 450h254l-95 -450l461 450h292l-485 -461l305 -515h-283l-293 515l-110 -515h-254l109 515l-482 -515h-314z" />
    <glyph glyph-name="uni0437" unicode="&#x437;" horiz-adv-x="1024" 
d="M457 -17q-215 0 -324 90.5t-110 254.5h244q1 -71 51.5 -112t153.5 -41q95 0 137 27t50 72q15 68 -29.5 102.5t-135.5 34.5h-79l36 184h103q84 0 125 28.5t49 65.5q11 57 -29.5 89t-131.5 32q-86 0 -140 -32t-65 -97h-246q20 110 87 179t168 101t221 32q122 0 214 -36
t137 -104.5t25 -166.5q-14 -68 -72 -117.5t-154 -68.5q56 -12 100.5 -47.5t65.5 -89.5t6 -124q-26 -126 -140 -191t-317 -65z" />
    <glyph glyph-name="uni0438" unicode="&#x438;" horiz-adv-x="1092" 
d="M335 -13q-92 0 -158 49.5t-92.5 141.5t0.5 218l125 580h264l-125 -587q-19 -89 9.5 -139.5t89.5 -50.5q45 0 85 18.5t76.5 48t69.5 63.5l137 647h263l-207 -976h-257l28 147q-39 -42 -83.5 -78.5t-99.5 -59t-125 -22.5z" />
    <glyph glyph-name="uni0439" unicode="&#x439;" horiz-adv-x="1092" 
d="M335 -13q-92 0 -158 49.5t-92.5 141.5t0.5 218l125 580h264l-125 -587q-19 -89 9.5 -139.5t89.5 -50.5q45 0 85 18.5t76.5 48t69.5 63.5l137 647h263l-207 -976h-257l28 147q-39 -42 -83.5 -78.5t-99.5 -59t-125 -22.5zM655 1105q-150 0 -232 79.5t-77 197.5h197
q-1 -71 40.5 -100t94.5 -29q50 0 99.5 26.5t65.5 102.5h197q-40 -139 -137 -208t-248 -69z" />
    <glyph glyph-name="uni043A" unicode="&#x43a;" horiz-adv-x="1023" 
d="M12 0l209 976h263l-97 -447l455 447h298l-488 -460l310 -516h-278l-299 515l-110 -515h-263z" />
    <glyph glyph-name="uni043B" unicode="&#x43b;" horiz-adv-x="1103" 
d="M-100 -16l44 208h15q35 0 62 14.5t54 54.5t59 113t75 191l148 411h732l-206 -976h-265l163 772h-248l-84 -239q-60 -166 -108.5 -273t-100 -167.5t-117.5 -84.5t-158 -24h-65z" />
    <glyph glyph-name="uni043C" unicode="&#x43c;" horiz-adv-x="1402" 
d="M12 0l209 977h256l212 -481l417 481h284l-208 -977h-250l134 630l-353 -406h-136l-181 406l-134 -630h-250z" />
    <glyph glyph-name="uni043D" unicode="&#x43d;" horiz-adv-x="1146" 
d="M661 0l205 976h265l-205 -976h-265zM15 0l205 976h264l-204 -976h-265zM266 398l42 203h528l-42 -203h-528z" />
    <glyph glyph-name="uni043E" unicode="&#x43e;" horiz-adv-x="1085" 
d="M485 -18q-151 0 -255 67t-144.5 194t-2.5 306q46 215 180 329t337 114q155 0 258 -67.5t142 -195.5t1 -309q-45 -215 -179 -326.5t-337 -111.5zM502 174q103 0 157.5 79t80.5 203q21 97 13 174.5t-49 123.5t-122 46q-70 0 -117 -37.5t-76 -102t-46 -145.5
q-19 -94 -10 -171.5t50.5 -123.5t118.5 -46z" />
    <glyph glyph-name="uni043F" unicode="&#x43f;" horiz-adv-x="1123" 
d="M639 0l207 976h265l-208 -976h-264zM12 0l208 976h265l-207 -976h-266zM344 772l45 204h528l-45 -204h-528z" />
    <glyph glyph-name="uni0440" unicode="&#x440;" horiz-adv-x="1111" 
d="M-64 -359l285 1335h253l-19 -137q51 65 122 107t172 42q108 0 185 -64.5t105.5 -188.5t-9.5 -302q-49 -228 -166.5 -339.5t-277.5 -111.5q-94 0 -166 40t-116 113l-104 -494h-264zM550 184q84 0 136 71t82 215q35 161 -1 240.5t-116 79.5q-82 0 -144 -52t-99 -114
l-58 -283q23 -66 77 -111.5t123 -45.5z" />
    <glyph glyph-name="uni0441" unicode="&#x441;" horiz-adv-x="1048" 
d="M483 -18q-134 0 -236 61t-149.5 181t-19.5 298q39 235 174.5 352.5t340.5 117.5q124 0 214.5 -46t137 -130t38.5 -197h-257q2 45 -13 86.5t-48.5 68t-90.5 26.5q-101 0 -158.5 -82.5t-79.5 -218.5q-25 -159 22 -241.5t145 -82.5q79 0 128 49t64 141h257
q-37 -196 -155.5 -289.5t-313.5 -93.5z" />
    <glyph glyph-name="uni0442" unicode="&#x442;" horiz-adv-x="1716" 
d="M13 0l207 976h257l-26 -142q57 62 128.5 109t175.5 47q97 0 165 -49.5t95.5 -138.5t2.5 -209l-126 -593h-265l125 586q21 92 -11 142t-94 50q-70 0 -126 -37t-105 -90l-139 -651h-264zM1242 0l126 586q20 92 -11.5 142t-93.5 50q-47 0 -88.5 -18t-79 -47.5t-73.5 -64.5
l-21 153q81 84 172.5 136.5t196.5 52.5q96 0 164.5 -49.5t97 -138.5t2.5 -209l-128 -593h-264z" />
    <glyph glyph-name="uni0443" unicode="&#x443;" horiz-adv-x="973" 
d="M-86 -364l45 216h90q66 0 111 21.5t74 73.5l31 53l-179 976h267l97 -716l369 716h277l-599 -1047q-47 -84 -89 -140t-90 -89.5t-110.5 -48.5t-150.5 -15h-143z" />
    </font>
</defs>
</svg>
