<svg xmlns="http://www.w3.org/2000/svg">
<defs>
<font id="AptosSerif-BoldItalic" horiz-adv-x="1152" >
  <font-face 
    font-family="Aptos Serif"
    font-weight="700"
    font-style="italic"
    font-stretch="normal"
    units-per-em="2048"
    panose-1="2 2 6 4 7 4 5 2 3 4"
    ascent="1638"
    descent="-410"
    x-height="963"
    cap-height="1346"
    bbox="-1014 -563 2593 2068"
    underline-thickness="50"
    underline-position="-125"
    slope="-12"
    unicode-range="U+000D-FDFC"
  />
<missing-glyph horiz-adv-x="965" 
d="M40 0v1354h965v-1354h-965zM510 222q-52 0 -85.5 32t-33.5 78q0 51 33.5 83t85.5 32q53 0 85.5 -32t32.5 -83q0 -46 -32.5 -78t-85.5 -32zM127 86h790v1179h-790v-1179zM422 541q-6 86 18.5 133.5t85.5 88.5q55 38 79.5 66.5t24.5 70.5q0 40 -26.5 65t-84.5 25t-89.5 -31
t-31.5 -84h-189q0 128 83 197t227 69q142 0 228 -63.5t86 -177.5q0 -87 -42.5 -135.5t-113.5 -95.5q-44 -31 -61 -57.5t-23 -70.5h-171z" />
    <glyph glyph-name="uniFB01" unicode="fi" horiz-adv-x="1299" 
d="M-171 -359l15 74q98 0 157 58.5t90 201.5l216 1019q37 170 120 268.5t194 140.5t232 42q187 0 274.5 -68.5t92.5 -172.5h-260q-1 73 -30 123t-99 50q-53 0 -96 -32.5t-77.5 -107t-61.5 -200.5l-222 -1041q-29 -137 -90.5 -214t-152.5 -109t-208 -32h-94zM122 877l18 86
h1025l-34 -86h-1009zM968 -11q-72 0 -125.5 28.5t-74.5 94.5t4 177l94 420q11 48 11.5 86t-19 60.5t-70.5 22.5h-42l14 67l441 23l-156 -692q-24 -110 9 -152.5t138 -42.5l-15 -68q-54 -10 -102.5 -17t-106.5 -7z" />
    <glyph glyph-name="uniFB02" unicode="fl" horiz-adv-x="1295" 
d="M-171 -359l15 74q98 0 157 58.5t90 201.5l192 902h-161l18 86h161l6 31q33 161 108.5 254.5t184 134t240.5 40.5q57 0 110 -7.5t111 -21.5l234 52l-254 -1170q-23 -109 10 -152t137 -43l-15 -68q-53 -10 -102 -17t-107 -7q-72 0 -125 29t-74 95t3 176l188 861
q21 99 -10.5 152t-119.5 53q-86 0 -139.5 -70.5t-89.5 -247.5l-16 -74h206l-18 -86h-206l-189 -881q-29 -137 -90.5 -214t-152.5 -109t-208 -32h-94z" />
    <glyph glyph-name="f_f.liga" unicode="ff" horiz-adv-x="1281" 
d="M122 877l18 86h773l6 31q35 169 105 267.5t166.5 141t207.5 42.5q146 0 203.5 -68.5t37.5 -166.5h-212q16 71 8 119t-55 48q-52 0 -92 -77t-79 -263l-16 -74h206l-18 -86h-206l-189 -881q-29 -137 -90.5 -214t-152.5 -109t-208 -32h-94l15 74q98 0 157 58.5t90 201.5
l192 902h-773zM980 1142q-3 96 -40.5 154.5t-115.5 58.5q-56 0 -98 -30t-73 -99t-56 -186l-223 -1044q-29 -137 -90.5 -214t-152.5 -109t-208 -32h-94l15 74q98 0 157 58.5t90 201.5l216 1020q35 160 110 253.5t183 134t240 40.5q87 0 171 -25.5t128 -70.5z" />
    <glyph glyph-name="f_f_i.liga" unicode="ffi" horiz-adv-x="1911" 
d="M980 1142q-3 96 -40.5 154.5t-115.5 58.5q-56 0 -98 -30t-73 -99t-56 -186l-223 -1044q-29 -137 -90.5 -214t-152.5 -109t-208 -32h-94l15 74q98 0 157 58.5t90 201.5l216 1020q35 160 110 253.5t183 134t240 40.5q87 0 171 -25.5t128 -70.5zM442 -359l15 74
q98 0 157 58.5t89 201.5l217 1019q37 170 119.5 268.5t194 140.5t232.5 42q187 0 274.5 -68.5t92.5 -172.5h-260q-2 73 -29.5 123t-88.5 50q-58 0 -103.5 -32.5t-80.5 -107t-62 -200.5l-222 -1041q-29 -137 -91 -214t-152.5 -109t-207.5 -32h-94zM122 877l18 86h1638
l-34 -86h-1622zM1581 -11q-72 0 -125.5 28.5t-74.5 94.5t3 177l95 420q11 48 11.5 86t-19.5 60.5t-70 22.5h-43l15 67l440 23l-155 -692q-25 -110 8.5 -152.5t137.5 -42.5l-14 -68q-54 -10 -103 -17t-106 -7z" />
    <glyph glyph-name="f_f_l.liga" unicode="ffl" horiz-adv-x="1906" 
d="M980 1142q-3 96 -40.5 154.5t-115.5 58.5q-56 0 -98 -30t-73 -99t-56 -186l-223 -1044q-29 -137 -90.5 -214t-152.5 -109t-208 -32h-94l15 74q98 0 157 58.5t90 201.5l216 1020q35 160 110 253.5t183 134t240 40.5q87 0 171 -25.5t128 -70.5zM440 -359l16 74
q98 0 156.5 58.5t89.5 201.5l192 902h-772l18 86h772l7 31q32 161 107.5 254.5t184 134t241.5 40.5q56 0 109.5 -7.5t110.5 -21.5l234 52l-253 -1170q-24 -109 9 -152t137 -43l-14 -68q-54 -10 -103 -17t-106 -7q-72 0 -125.5 29t-74.5 95t3 176l188 861q22 99 -9 152
t-115 53q-90 0 -144.5 -70.5t-90.5 -247.5l-15 -74h205l-18 -86h-206l-189 -881q-29 -137 -90.5 -214t-152.5 -109t-208 -32h-94z" />
    <glyph glyph-name="uniFDFC" unicode="&#xfdfc;" horiz-adv-x="1819" arabic-form="isolated" 
d="M358 86q-151 0 -222 74t-71 194q0 65 16.5 119t38.5 100l57 -17q-12 -31 -20 -66t-8 -71q0 -72 52.5 -108.5t161.5 -36.5q171 0 251 57t80 195v630h100v-641q0 -218 -112 -323.5t-324 -105.5zM1296 -42l-83 184q107 3 184.5 25.5t127 59.5t73.5 81.5t24 90.5t-27 110
t-89 152l115 81q46 -89 68.5 -165t22.5 -159q0 -107 -44 -204.5t-136 -166t-236 -89.5zM1152 221q-124 0 -183.5 74.5t-59.5 225.5v635h102v-611q0 -69 36.5 -102.5t120.5 -33.5q73 0 126.5 24t53.5 70q0 35 -13.5 71.5t-48.5 94.5l97 70q27 -58 38 -112.5t11 -101.5
q0 -146 -77 -225t-203 -79zM1075 -203l112 112l112 -112l-112 -112zM1308 -203l112 112l112 -112l-112 -112z" />
    <glyph glyph-name=".notdef" horiz-adv-x="965" 
d="M40 0v1354h965v-1354h-965zM510 222q-52 0 -85.5 32t-33.5 78q0 51 33.5 83t85.5 32q53 0 85.5 -32t32.5 -83q0 -46 -32.5 -78t-85.5 -32zM127 86h790v1179h-790v-1179zM422 541q-6 86 18.5 133.5t85.5 88.5q55 38 79.5 66.5t24.5 70.5q0 40 -26.5 65t-84.5 25t-89.5 -31
t-31.5 -84h-189q0 128 83 197t227 69q142 0 228 -63.5t86 -177.5q0 -87 -42.5 -135.5t-113.5 -95.5q-44 -31 -61 -57.5t-23 -70.5h-171z" />
    <glyph glyph-name=".null" horiz-adv-x="0" 
 />
    <glyph glyph-name="uni000D" unicode="&#xd;" horiz-adv-x="0" 
 />
    <glyph glyph-name="space" unicode=" " horiz-adv-x="521" 
 />
    <glyph glyph-name="exclam" unicode="!" horiz-adv-x="619" 
d="M256 464q2 103 8.5 235.5t24 287.5t51.5 321l7 38h288l-7 -38q-35 -168 -83.5 -322t-99.5 -285.5t-92 -236.5h-97zM237 -14q-79 0 -127 48.5t-48 118.5q0 77 48 123t127 46t128 -46t49 -123q0 -70 -49 -118.5t-128 -48.5z" />
    <glyph glyph-name="quotedbl" unicode="&#x22;" horiz-adv-x="843" 
d="M211 823q6 71 14.5 143.5t18 140.5t19 126.5t19.5 100.5l2 12h245l-3 -12q-10 -43 -25.5 -100.5t-34.5 -125t-41.5 -140t-46.5 -145.5h-167zM604 823q7 71 15.5 143.5t18 140.5t19 126t18.5 101l3 12h244l-3 -12q-8 -43 -23.5 -101t-35.5 -125t-42 -139.5t-46 -145.5
h-168z" />
    <glyph glyph-name="numbersign" unicode="#" horiz-adv-x="1159" 
d="M134 0l142 403h-215l26 123h231l90 251h-249l26 122h266l142 404h121l-143 -404h271l142 404h121l-141 -404h207l-26 -122h-224l-89 -251h240l-26 -123h-256l-141 -403h-121l140 403h-271l-142 -403h-121zM439 526h273l89 251h-272z" />
    <glyph glyph-name="dollar" unicode="$" 
d="M391 -217l370 1745h85l-370 -1745h-85zM544 3q-99 0 -179 18t-137.5 44.5t-90.5 52.5l-22 -103h-97l63 420h128q5 -107 49.5 -182.5t120 -115.5t169.5 -40q103 0 164 45.5t74 135.5q9 61 -8 113t-75 100.5t-173 100.5q-108 49 -189.5 109.5t-120 144t-20.5 199.5
q16 102 82.5 169t171.5 100t239 31q116 0 206.5 -32t135.5 -69l19 81h96l-53 -374h-131q-9 146 -86 227t-201 81q-84 0 -143.5 -36t-71.5 -118q-7 -50 9 -94.5t73.5 -90t172.5 -99.5q133 -60 214.5 -125t113 -149.5t13.5 -203.5q-19 -120 -89 -195t-179.5 -110t-247.5 -35z
" />
    <glyph glyph-name="percent" unicode="%" horiz-adv-x="1770" 
d="M312 0l1103 1303h97l-1088 -1303h-112zM431 514q-112 0 -175 57t-80 155t8 222q37 173 126.5 273t237.5 100q108 0 172.5 -59t83.5 -160t-10 -228q-39 -171 -129 -265.5t-234 -94.5zM438 569q49 0 81 42.5t54.5 117.5t42.5 175q22 110 20 190.5t-27 125t-70 44.5
q-48 0 -80 -40.5t-54.5 -116t-44.5 -178.5q-19 -99 -20 -181t22.5 -130.5t75.5 -48.5zM1285 -19q-112 0 -175 57t-80 155t8 222q37 173 126.5 273t237.5 100q108 0 172.5 -59t83.5 -160t-10 -228q-39 -172 -129 -266t-234 -94zM1292 36q49 0 81 42.5t54.5 117.5t42.5 175
q22 110 20 190.5t-27 125t-70 44.5q-48 0 -80 -40.5t-54.5 -116t-44.5 -178.5q-19 -99 -20 -181t22.5 -130.5t75.5 -48.5z" />
    <glyph glyph-name="ampersand" unicode="&#x26;" horiz-adv-x="1464" 
d="M515 -14q-141 0 -250.5 53t-162 149t-25.5 224q23 105 97 171.5t182 112.5t230 87q144 48 222 124.5t98 176.5q18 87 -10.5 143.5t-100.5 56.5q-60 0 -103.5 -41.5t-59.5 -111.5q-14 -67 3 -144t79 -168l442 -649q31 -45 74 -69.5t100 -24.5h40l-16 -76h-394l-454 678
q-69 105 -105.5 208t-12.5 216q26 124 133.5 193t286.5 69q114 0 189 -38.5t106.5 -104t13.5 -146.5q-16 -78 -74 -134t-149 -102t-207 -96q-93 -40 -162.5 -87t-113.5 -107t-62 -141q-18 -87 4 -161t79.5 -118.5t144.5 -44.5q117 0 199.5 61.5t146.5 142.5
q66 81 107.5 191.5t66.5 238.5l13 63h413l-16 -76h-113q-34 0 -51 -10t-27 -37q-30 -82 -69.5 -165.5t-93 -158.5t-127.5 -131q-59 -47 -111.5 -86.5t-109 -69t-126.5 -45.5t-164 -16z" />
    <glyph glyph-name="quotesingle" unicode="'" horiz-adv-x="446" 
d="M211 823q6 71 14.5 143.5t18 140.5t19.5 126t19 101l2 12h245l-3 -12q-9 -43 -24 -101t-35 -125t-42.5 -139.5t-46.5 -145.5h-167z" />
    <glyph glyph-name="parenleft" unicode="(" horiz-adv-x="662" 
d="M281 -357q-90 123 -142.5 265t-62.5 301t26 331q56 261 196 494t366 420h143q-164 -198 -277 -430t-164 -476q-56 -261 -35.5 -490.5t92.5 -414.5h-142z" />
    <glyph glyph-name="parenright" unicode=")" horiz-adv-x="662" 
d="M-118 -357q151 185 268.5 414.5t173.5 490.5q51 244 36 476t-93 430h142q148 -187 189 -420t-15 -494q-36 -172 -113.5 -331t-190 -301t-254.5 -265h-143z" />
    <glyph glyph-name="asterisk" unicode="*" horiz-adv-x="893" 
d="M319 663l-125 116l242 196l-271 124l92 154l248 -174l36 288l176 -38l-84 -278l300 58l19 -177l-298 -3l144 -279l-161 -54l-103 299z" />
    <glyph glyph-name="plus" unicode="+" 
d="M554 193v950h127v-950h-127zM142 612v123h951v-123h-951z" />
    <glyph glyph-name="comma" unicode="," horiz-adv-x="619" 
d="M-4 -289l-17 69q90 26 152 79t92 141l12 -14q-93 1 -138.5 58.5t-27.5 143.5q14 61 57.5 97.5t116.5 36.5q93 0 140.5 -70t19.5 -200q-24 -111 -86.5 -180t-146.5 -106.5t-174 -54.5z" />
    <glyph glyph-name="hyphen" unicode="-" horiz-adv-x="752" 
d="M71 377l51 236h562l-48 -236h-565z" />
    <glyph glyph-name="period" unicode="." horiz-adv-x="619" 
d="M239 -14q-80 0 -128 48.5t-48 118.5q0 77 48 123t128 46q78 0 127 -46t49 -123q0 -70 -49 -118.5t-127 -48.5z" />
    <glyph glyph-name="slash" unicode="/" horiz-adv-x="672" 
d="M-110 -100l852 1546h121l-852 -1546h-121z" />
    <glyph glyph-name="zero" unicode="0" 
d="M513 -18q-125 0 -210.5 53.5t-133 150t-57 226.5t18.5 282q37 207 118 348.5t199.5 214t266.5 71.5q118 0 201.5 -51t131.5 -143.5t59.5 -220.5t-16.5 -283q-37 -211 -118 -355.5t-197.5 -218.5t-262.5 -74zM527 68q56 0 99.5 42.5t77.5 121t60.5 185.5t49.5 233
q23 131 30.5 239t-3.5 187.5t-45.5 123t-95.5 43.5q-57 0 -101.5 -39.5t-78.5 -114.5t-62 -182t-52 -243q-23 -131 -30 -240t6 -189t48.5 -123.5t96.5 -43.5z" />
    <glyph glyph-name="one" unicode="1" 
d="M117 0l16 76h223q13 0 29 7.5t21 36.5l222 1041q-39 -38 -89 -72t-118 -61.5t-162 -47.5l21 98q93 22 165.5 55.5t131.5 79t111 100.5h267l-253 -1195q-6 -23 6 -32.5t27 -9.5h210l-17 -76h-811z" />
    <glyph glyph-name="two" unicode="2" 
d="M-16 0l28 140l547 416q91 69 151 134.5t95 131t50 137.5q17 79 10.5 142.5t-42 101t-104.5 37.5q-107 0 -174.5 -86t-92.5 -228h-262q28 138 100.5 226.5t184 130.5t255.5 42q219 0 325.5 -109.5t66.5 -295.5q-21 -101 -84 -175.5t-159.5 -139.5t-217.5 -138l-418 -260
h464q62 0 101 17t70.5 53.5t70.5 95.5h96l-100 -373h-961z" />
    <glyph glyph-name="three" unicode="3" 
d="M521 -17q-230 0 -354.5 100.5t-102.5 305.5h265q-10 -147 38.5 -233.5t155.5 -86.5q100 0 156.5 69.5t79.5 210.5q24 146 -32 217.5t-172 71.5h-66l17 95h81q113 0 179 60.5t84 181.5q21 133 -23.5 200.5t-133.5 67.5q-102 0 -160 -75t-75 -214h-263q33 191 163 283
t341 92q126 0 227.5 -43.5t154.5 -126.5t33 -203q-18 -112 -100 -180t-221 -91q88 -20 148 -68t85.5 -120.5t10.5 -168.5q-29 -171 -160 -258t-356 -87z" />
    <glyph glyph-name="four" unicode="4" 
d="M539 0l60 279h-591l32 154l806 880h252l-181 -847h173l-39 -187h-173l-60 -279h-279zM174 434l4 32h467l144 678l22 -8z" />
    <glyph glyph-name="five" unicode="5" 
d="M511 -18q-147 0 -251.5 41t-158 124t-46.5 208h267q-6 -137 49 -212.5t149 -75.5q99 0 161.5 83t89.5 256q27 178 -25.5 255t-163.5 77q-85 0 -165.5 -41.5t-126.5 -111.5h-131l189 726h768l-41 -195h-676l-117 -435q62 74 149.5 112t202.5 38q86 0 167 -25t143.5 -80
t91.5 -141t8 -208q-33 -203 -170.5 -299t-362.5 -96z" />
    <glyph glyph-name="six" unicode="6" 
d="M571 -17q-164 0 -280.5 84t-160 256t7.5 434q39 193 127 320t212 189.5t270 62.5q130 0 218 -43t134 -120t48 -178h-264q-2 110 -39.5 183t-111.5 73q-113 0 -198.5 -145.5t-130.5 -411.5l-8 -49q-32 -191 -16 -317.5t67 -189t124 -62.5q83 0 131 75t72 216q17 104 3 174
t-52 105.5t-93 35.5q-64 0 -124 -23.5t-109.5 -60t-84.5 -75.5v102q68 65 166 113t233 48q113 0 198.5 -49.5t125 -146.5t11.5 -241q-29 -157 -151 -258t-325 -101z" />
    <glyph glyph-name="seven" unicode="7" 
d="M182 0l851 1069h-527q-60 0 -96 -18t-64.5 -57t-65.5 -101h-96l116 418h945l-31 -149l-793 -1162h-239z" />
    <glyph glyph-name="eight" unicode="8" 
d="M512 -18q-134 0 -243.5 47t-167.5 140.5t-36 232.5q19 126 105.5 201t216.5 106q-44 21 -86.5 62.5t-65 105t-10.5 147.5q23 151 151 228t328 77q129 0 225 -45.5t143 -128.5t28 -197q-20 -121 -96.5 -185.5t-163.5 -88.5q64 -20 114 -68.5t74 -121t10 -165.5
q-19 -125 -93 -201.5t-186.5 -111t-246.5 -34.5zM519 73q97 0 155 69t80 195q19 109 1 178t-60.5 101.5t-98.5 32.5q-94 0 -160 -64t-89 -198q-26 -156 28 -235t144 -79zM629 721q88 0 142.5 64.5t73.5 181.5q15 89 0 149.5t-53.5 91t-93.5 30.5q-86 0 -140 -60.5
t-73 -179.5q-14 -92 0 -153.5t52 -92.5t92 -31z" />
    <glyph glyph-name="nine" unicode="9" 
d="M493 -17q-135 0 -226 43t-138 120t-50 179h264q3 -125 41.5 -190.5t119.5 -65.5q106 0 191 145t130 412l7 47q35 203 20.5 329t-63 184t-118.5 58q-62 0 -104.5 -34t-69 -96.5t-41.5 -146.5q-30 -166 16 -247.5t143 -81.5q54 0 109.5 22t105 56.5t82.5 70.5l2 -93
q-68 -65 -163.5 -112.5t-226.5 -47.5q-115 0 -203.5 48.5t-129 144t-13.5 237.5q31 163 155.5 264t333.5 101q116 0 211 -44.5t156.5 -138t78 -240.5t-24.5 -352q-40 -198 -127.5 -324.5t-208 -186.5t-259.5 -60z" />
    <glyph glyph-name="colon" unicode=":" horiz-adv-x="619" 
d="M374 640q-80 0 -128.5 50t-48.5 118q0 78 48.5 123t128.5 45q78 0 127 -45t49 -123q0 -68 -49 -118t-127 -50zM239 -14q-80 0 -128 48.5t-48 118.5q0 77 48 123t128 46q78 0 127 -46t49 -123q0 -70 -49 -118.5t-127 -48.5z" />
    <glyph glyph-name="semicolon" unicode=";" horiz-adv-x="619" 
d="M374 640q-80 0 -128.5 50t-48.5 118q0 78 48.5 123t128.5 45q78 0 127 -45t49 -123q0 -68 -49 -118t-127 -50zM-4 -289l-17 69q90 26 152 79t92 141l12 -14q-93 1 -138.5 58.5t-27.5 143.5q14 61 57.5 97.5t116.5 36.5q93 0 140.5 -70t19.5 -200q-24 -111 -86.5 -180
t-146.5 -106.5t-174 -54.5z" />
    <glyph glyph-name="less" unicode="&#x3c;" 
d="M1092 157l-948 451v129l948 437v-129l-815 -373l815 -386v-129z" />
    <glyph glyph-name="equal" unicode="=" 
d="M142 818v123h950v-123h-950zM142 405v123h950v-123h-950z" />
    <glyph glyph-name="greater" unicode="&#x3e;" 
d="M144 157v129l814 386l-814 373v129l948 -437v-129z" />
    <glyph glyph-name="question" unicode="?" horiz-adv-x="1064" 
d="M427 465q-5 28 -4.5 61t7.5 66q18 84 70.5 146t134.5 121q79 55 118.5 102t54.5 119q19 90 -7.5 146.5t-95.5 56.5q-82 0 -137 -75t-80 -204h-286q45 189 176.5 272.5t337.5 83.5q134 0 223.5 -49.5t126.5 -132.5t15 -187q-22 -106 -91.5 -169.5t-180.5 -124.5
q-79 -43 -123 -77.5t-67 -70t-40 -84.5h-152zM470 -14q-80 0 -129 48.5t-49 118.5q0 77 49 123t129 46q79 0 127.5 -46t48.5 -123q0 -70 -48.5 -118.5t-127.5 -48.5z" />
    <glyph glyph-name="at" unicode="@" horiz-adv-x="1930" 
d="M919 -245q-263 0 -453.5 93t-284.5 273t-67 440q20 191 102.5 344.5t215.5 262.5t306 167.5t374 58.5q207 0 357 -61t244 -165.5t133 -237.5t23 -276q-16 -159 -80.5 -284t-167 -196.5t-235.5 -71.5q-120 0 -183.5 41.5t-87.5 122.5q-52 -71 -129.5 -119.5t-185.5 -48.5
q-98 0 -168.5 56.5t-97 167t6.5 274.5q31 146 101.5 247t164.5 153t193 52q89 0 147 -42t84 -90l44 115h227l-137 -663q-18 -85 0.5 -130.5t70.5 -45.5q62 0 111 54.5t83.5 157.5t49.5 246q21 195 -38 346t-193.5 237.5t-343.5 86.5q-216 0 -386 -98t-275.5 -269
t-128.5 -392q-24 -229 44 -391.5t211.5 -248.5t346.5 -86q111 0 217.5 18t189.5 51l-8 -88q-86 -30 -187.5 -45.5t-209.5 -15.5zM899 214q66 0 125.5 49.5t93.5 115.5l89 438q-16 46 -58.5 85.5t-98.5 39.5q-80 0 -149.5 -89.5t-109.5 -281.5q-35 -174 -4 -265.5t112 -91.5z
" />
    <glyph glyph-name="A" unicode="A" horiz-adv-x="1381" 
d="M-109 0l16 76h107q18 0 33 11.5t36 46.5l719 1212h151l193 -1214q6 -34 17.5 -45t37.5 -11h99l-16 -76h-629l15 76h154q16 0 30.5 11.5t10.5 47.5l-134 970l39 29l-580 -995q-23 -38 -13 -50.5t27 -12.5h165l-16 -76h-462zM336 454l11 83h697l-11 -83h-697z" />
    <glyph glyph-name="B" unicode="B" horiz-adv-x="1408" 
d="M-60 0l16 76h155q15 0 30.5 8.5t20.5 32.5l236 1109q2 5 2.5 9.5t0.5 8.5q0 14 -11.5 20t-24.5 6h-155l16 76l666 1q214 1 327.5 -79t113.5 -219q0 -138 -87.5 -223t-223.5 -115q129 -29 200 -102t71 -192q0 -114 -52 -193.5t-140 -128.5t-198.5 -72t-227.5 -23h-735z
M453 83h197q116 0 190 51.5t109.5 135.5t35.5 179q0 114 -61.5 165.5t-163.5 51.5h-186zM592 749h167q105 0 170 45t94.5 118t29.5 156q0 99 -53 147t-141 48h-157z" />
    <glyph glyph-name="C" unicode="C" horiz-adv-x="1390" 
d="M707 -18q-179 0 -309 66.5t-199.5 193t-69.5 308.5q0 163 49 309.5t146.5 260.5t242.5 179t338 65q141 0 238.5 -39.5t138.5 -81.5l23 103h97l-71 -426h-144q-13 115 -51 194.5t-98 122t-142 42.5q-96 0 -170.5 -54t-128.5 -142t-89 -192.5t-51.5 -207.5t-16.5 -185
q0 -184 75 -299t235 -115q141 0 246.5 96t141.5 297h158q-49 -252 -198 -373.5t-391 -121.5z" />
    <glyph glyph-name="D" unicode="D" horiz-adv-x="1536" 
d="M-60 0l16 76h155q15 0 30.5 8.5t20.5 31.5l236 1110q1 5 1.5 9t0.5 7q0 15 -11 21.5t-24 6.5h-154l16 76h638q191 0 329.5 -72t213.5 -201.5t75 -303.5q0 -127 -31.5 -242t-96 -211.5t-162.5 -167t-230.5 -109.5t-301.5 -39h-721zM451 84h168q135 0 231 49.5t158.5 130.5
t97.5 178.5t49.5 195.5t14.5 179q0 202 -86.5 323.5t-254.5 121.5h-128z" />
    <glyph glyph-name="E" unicode="E" horiz-adv-x="1218" 
d="M-60 0l16 76h154q16 0 31.5 8.5t20.5 32.5l237 1114q5 22 -7 30.5t-27 8.5h-155l16 76h1065l-61 -361h-109q6 65 -6 128.5t-42.5 105.5t-80.5 42h-290l-114 -534h486l-18 -85h-487l-119 -558h303q58 0 102 31t77 79t58 103.5t44 103.5h109l-105 -401h-1098z" />
    <glyph glyph-name="F" unicode="F" horiz-adv-x="1182" 
d="M-60 0l16 76h154q16 0 31.5 8.5t20.5 32.5l237 1114q5 22 -7 30.5t-27 8.5h-155l16 76h1060h1l-60 -361h-108q6 66 -6 129t-42 105t-80 43h-289l-114 -535h451l-18 -85h-451l-112 -527q-5 -22 6.5 -30.5t26.5 -8.5h195l-15 -76h-731z" />
    <glyph glyph-name="G" unicode="G" horiz-adv-x="1466" 
d="M703 -19q-176 0 -305 68t-199 195.5t-70 305.5q0 113 26 228t83 220t150 188t226 130.5t311 48.5q80 -1 156 -15.5t138 -36.5t99 -47l21 80h97l-72 -439h-144q-16 168 -95.5 270t-214.5 102q-113 1 -195.5 -54t-137.5 -145.5t-88 -198t-47 -213.5t-14 -190
q0 -176 68.5 -286t219.5 -110q109 0 184.5 55.5t122 159.5t67.5 250h-297l18 85h595l-22 -91q-37 -164 -118.5 -290.5t-218.5 -198t-344 -71.5z" />
    <glyph glyph-name="H" unicode="H" horiz-adv-x="1651" 
d="M-60 0l16 76h154q16 0 31.5 8.5t20.5 32.5l237 1114q5 22 -7 30.5t-27 8.5h-155l16 76h692l-16 -76h-156q-15 0 -31 -8.5t-21 -32.5l-102 -481h579l102 483q5 22 -7 30.5t-26 8.5h-157l16 76h691l-16 -76h-154q-14 0 -30 -8.5t-21 -32.5l-237 -1114q-4 -22 7.5 -30.5
t26.5 -8.5h154l-16 -76h-691l15 76h157q15 0 31 9t20 32l117 547h-579l-116 -549q-5 -22 6.5 -30.5t26.5 -8.5h156l-15 -76h-692z" />
    <glyph glyph-name="I" unicode="I" horiz-adv-x="777" 
d="M-60 0l16 76h154q16 0 31.5 8.5t20.5 32.5l237 1114q5 22 -7 30.5t-27 8.5h-155l16 76h690l-16 -76h-154q-15 0 -31 -8.5t-21 -32.5l-236 -1114q-5 -22 6.5 -30.5t26.5 -8.5h155l-16 -76h-690z" />
    <glyph glyph-name="J" unicode="J" horiz-adv-x="1094" 
d="M359 -18q-209 0 -293.5 84.5t-59.5 240.5h249q-18 -116 8 -175t93 -59q52 0 86 31.5t56.5 91.5t40.5 145l189 890q5 22 -7 30.5t-27 8.5h-155l17 76h690l-17 -76h-154q-15 0 -30.5 -8.5t-20.5 -32.5l-185 -873q-23 -109 -81.5 -193.5t-156.5 -132.5t-242 -48z" />
    <glyph glyph-name="K" unicode="K" horiz-adv-x="1417" 
d="M-60 0l16 76h154q16 0 31.5 9.5t20.5 32.5l236 1110q5 23 -6.5 32.5t-26.5 9.5h-155l16 76h692l-16 -76h-156q-15 0 -31 -9.5t-21 -32.5l-115 -545l557 472q23 20 42 42t22 40q4 19 -5.5 26t-29.5 7h-127l16 76h499l-16 -76h-48q-54 0 -96.5 -23t-81.5 -55l-492 -417
l323 -618q20 -36 46.5 -58.5t83.5 -22.5h59l-16 -76h-415l-324 667l-118 -549q-5 -23 6.5 -32.5t26.5 -9.5h156l-15 -76h-692z" />
    <glyph glyph-name="L" unicode="L" horiz-adv-x="1204" 
d="M-60 0l16 76h154q16 0 31.5 9.5t20.5 32.5l236 1110q5 23 -6.5 32.5t-26.5 9.5h-155l16 76h692l-16 -76h-156q-15 0 -31 -9.5t-21 -32.5l-243 -1144h302q58 0 102 31t77 80t58.5 104t43.5 102h109l-105 -401h-1098z" />
    <glyph glyph-name="M" unicode="M" horiz-adv-x="1772" 
d="M-60 0l16 76h154q16 0 31.5 9.5t20.5 32.5l235 1106q6 27 -5.5 36.5t-26.5 9.5h-155l16 76h455l204 -760l526 760h499l-15 -76h-155q-15 0 -31 -9.5t-21 -32.5l-235 -1110q-5 -23 6.5 -32.5t26.5 -9.5h154l-16 -76h-687l16 76h157q15 0 31 9.5t20 32.5l222 1043
l-625 -906h-66l-227 871l-214 -1008q-5 -23 6.5 -32.5t26.5 -9.5h156l-16 -76h-484z" />
    <glyph glyph-name="N" unicode="N" horiz-adv-x="1586" 
d="M-60 0l16 76h154q16 0 31.5 9.5t20.5 32.5l236 1110q5 23 -6.5 32.5t-26.5 9.5h-155l16 76h458l540 -994l187 876q5 23 -6.5 32.5t-26.5 9.5h-157l16 76h488l-16 -76h-154q-15 0 -30.5 -9.5t-20.5 -32.5l-261 -1228h-141l-631 1153l-220 -1035q-5 -23 6.5 -32.5
t26.5 -9.5h156l-16 -76h-484z" />
    <glyph glyph-name="O" unicode="O" horiz-adv-x="1522" 
d="M707 -19q-182 0 -312 70t-198.5 197t-68.5 299q0 143 42 288t133 265t238 193t359 73q182 0 310 -70.5t195.5 -199t67.5 -300.5q0 -146 -41 -290t-131.5 -263t-236.5 -190.5t-357 -71.5zM717 67q95 0 168 58.5t125.5 153t86 205.5t49.5 218.5t16 188.5q0 116 -29 203.5
t-88 136.5t-151 49q-103 0 -179 -58t-128.5 -151.5t-84.5 -204t-46.5 -217.5t-14.5 -188q0 -114 29 -203.5t90.5 -140t156.5 -50.5z" />
    <glyph glyph-name="P" unicode="P" horiz-adv-x="1328" 
d="M-60 0l16 76h154q16 0 31.5 9.5t20.5 32.5l235 1104q2 5 2 10v8q0 17 -10.5 23.5t-23.5 6.5h-155l16 76h639q221 0 344.5 -95.5t123.5 -259.5q0 -143 -70.5 -243t-192.5 -153t-277 -53h-244l-91 -424q-1 -4 -1 -12q0 -17 10.5 -23.5t23.5 -6.5h195l-15 -76h-731zM569 625
h154q81 0 138 39t93.5 101.5t54 134t17.5 134.5q0 109 -52 169.5t-149 60.5h-122z" />
    <glyph glyph-name="Q" unicode="Q" horiz-adv-x="1522" 
d="M1122 -339q-173 0 -273.5 34t-150.5 109t-75 197l318 46q17 -109 61 -177.5t113 -100t159 -31.5h15l-15 -77h-152zM707 -19q-182 0 -312 70t-198.5 197t-68.5 299q0 143 42 288t133 265t238 193t359 73q182 0 310 -70.5t195.5 -199t67.5 -300.5q0 -146 -41 -290
t-131.5 -263t-236.5 -190.5t-357 -71.5zM717 67q95 0 168 58.5t125.5 153t86 205.5t49.5 218.5t16 188.5q0 116 -29 203.5t-88 136.5t-151 49q-103 0 -179 -58t-128.5 -151.5t-84.5 -204t-46.5 -217.5t-14.5 -188q0 -114 29 -203.5t90.5 -140t156.5 -50.5z" />
    <glyph glyph-name="R" unicode="R" horiz-adv-x="1428" 
d="M-60 0l16 76h154q16 0 31.5 9.5t20.5 32.5l235 1104q2 11 2 18q0 17 -10.5 23.5t-23.5 6.5h-155l16 76h703q184 0 299.5 -78.5t115.5 -231.5q0 -163 -94.5 -254.5t-255.5 -140.5q87 -14 127.5 -54.5t55 -108.5t22.5 -165l15 -191q3 -34 18.5 -40t45.5 -6h92l-16 -76h-425
l-13 254q-4 98 -14.5 175t-45 121t-110.5 44h-187l-100 -473l-1 -9q-1 -3 -1 -6q0 -17 10.5 -23.5t23.5 -6.5h169l-16 -76h-704zM579 685h143q85 0 145.5 36.5t98 93.5t55.5 123t18 125q0 86 -43.5 139t-133.5 53h-162z" />
    <glyph glyph-name="S" unicode="S" horiz-adv-x="1203" 
d="M561 -17q-91 0 -171 18.5t-140.5 48t-92.5 61.5l-24 -116h-97l62 420h129q4 -108 49 -185.5t120 -118.5t169 -41q122 0 182.5 68t60.5 177q0 53 -24 98.5t-80 88.5t-156 89q-96 44 -172.5 98t-120.5 126t-44 171q0 132 66.5 215.5t178.5 123.5t248 40q116 0 209.5 -32
t139.5 -69l18 81h97l-53 -374h-131q-9 145 -86.5 226t-200.5 81q-61 0 -110 -21t-78.5 -64.5t-29.5 -112.5q0 -45 21.5 -86t78 -82.5t158.5 -89.5q116 -52 193 -109.5t115.5 -129t38.5 -167.5q0 -147 -66 -243.5t-184 -143t-273 -46.5z" />
    <glyph glyph-name="T" unicode="T" horiz-adv-x="1297" 
d="M188 0l16 76h169q15 0 30.5 9.5t20.5 32.5l242 1140h-153q-53 -1 -103 -44t-90.5 -108.5t-62.5 -133.5h-109l96 374h1177l-63 -374h-109q6 68 -6.5 133.5t-44 108.5t-83.5 44h-152l-243 -1140q-4 -23 7.5 -32.5t25.5 -9.5h169l-16 -76h-718z" />
    <glyph glyph-name="U" unicode="U" horiz-adv-x="1523" 
d="M739 -19q-157 0 -273.5 43t-180.5 133t-64 230q0 36 4.5 76.5t16.5 92.5l143 668q1 7 1 10v6q0 17 -10.5 23.5t-23.5 6.5h-155l16 76h692l-16 -76h-156q-15 0 -31 -9.5t-21 -32.5l-156 -735q-9 -44 -13.5 -82.5t-4.5 -72.5q0 -132 70 -194t208 -62q162 0 265 88t147 293
l161 762q2 7 2 14q0 17 -10.5 24t-23.5 7h-157l16 76h491l-16 -76h-154q-15 0 -31 -9.5t-21 -32.5l-165 -780q-34 -158 -99.5 -262t-175 -154.5t-275.5 -50.5z" />
    <glyph glyph-name="V" unicode="V" horiz-adv-x="1373" 
d="M502 0l-192 1217q-5 32 -16.5 42.5t-37.5 10.5h-99l16 76h630l-16 -76h-148q-16 0 -31 -12t-9 -56l141 -957l-57 -29l578 991q23 40 13.5 51.5t-26.5 11.5h-165l15 76h467l-15 -76h-107q-17 0 -32.5 -12t-36.5 -46l-720 -1212h-152z" />
    <glyph glyph-name="W" unicode="W" horiz-adv-x="2153" 
d="M1290 0l-191 1211q-6 37 -18 48t-37 11h-88l15 76h618l-16 -76h-147q-23 0 -34.5 -17t-5.5 -56l147 -953l-63 -29l571 974q25 42 21 61.5t-35 19.5h-151l16 76h454l-16 -76h-89q-25 0 -42 -12t-39 -50l-718 -1208h-152zM502 0l-192 1217q-5 32 -16.5 42.5t-37.5 10.5h-99
l16 76h628l-15 -76h-148q-17 0 -32 -12t-9 -49l144 -964l-57 -29l505 863l42 -108l-577 -971h-152z" />
    <glyph glyph-name="X" unicode="X" horiz-adv-x="1356" 
d="M626 0l15 76h123q34 0 41 31q3 12 -5 35.5t-14 36.5l-419 1031q-11 27 -29.5 43.5t-47.5 16.5h-63l15 76h609l-16 -76h-122q-35 0 -42 -31q-3 -12 0 -27.5t8 -30.5l426 -1031q21 -51 46 -62.5t66 -11.5h39l-16 -76h-614zM-84 0l15 76h66q29 0 55 12.5t51 38.5l612 617
l404 422q20 20 36 39t20 34q3 16 -4 23.5t-25 7.5h-126l16 76h436l-16 -76h-49q-18 0 -39 -6t-45.5 -22t-54.5 -48l-522 -521l-451 -469q-19 -20 -43.5 -50t-28.5 -45q-6 -33 28 -33h139l-16 -76h-458z" />
    <glyph glyph-name="Y" unicode="Y" horiz-adv-x="1346" 
d="M211 0l16 76h154q16 0 32 9.5t20 32.5l105 494l-225 598q-10 27 -27 43.5t-55 16.5h-49l15 76h621l-16 -76h-139q-43 0 -50 -31q-2 -12 2.5 -29.5t8.5 -31.5l168 -486l387 474q18 23 29.5 40.5t14.5 32.5q7 31 -30 31h-128l15 76h437l-16 -76h-51q-34 0 -67.5 -16.5
t-67.5 -57.5l-479 -577l-106 -501q-5 -23 6 -32.5t26 -9.5h155l-16 -76h-690z" />
    <glyph glyph-name="Z" unicode="Z" horiz-adv-x="1222" 
d="M-34 0l17 79l921 1175h-341q-45 0 -83.5 -30.5t-71 -77.5t-58.5 -100t-45 -101h-109l105 401h967l-14 -66l-935 -1188h439q51 0 92.5 30.5t74 77.5t58.5 100.5t44 100.5h109l-105 -401h-1065z" />
    <glyph glyph-name="bracketleft" unicode="[" horiz-adv-x="764" 
d="M22 -360l384 1806h512l-17 -81h-250l-349 -1643h249l-17 -82h-512z" />
    <glyph glyph-name="backslash" unicode="\" horiz-adv-x="672" 
d="M418 -100l-196 1546h113l195 -1546h-112z" />
    <glyph glyph-name="bracketright" unicode="]" horiz-adv-x="764" 
d="M-128 -360l17 82h250l349 1643h-250l18 81h511l-384 -1806h-511z" />
    <glyph glyph-name="asciicircum" unicode="^" 
d="M203 780l360 566h129l357 -566h-134l-289 462l-287 -462h-136z" />
    <glyph glyph-name="underscore" unicode="_" horiz-adv-x="942" 
d="M-156 -236l19 95h946l-18 -95h-947z" />
    <glyph glyph-name="grave" unicode="`" horiz-adv-x="1130" 
d="M522 1106l-278 277h295l105 -277h-122z" />
    <glyph glyph-name="a" unicode="a" horiz-adv-x="1245" 
d="M378 -17q-138 0 -224.5 91.5t-86.5 258.5q0 117 36.5 231.5t105 208.5t166 150t219.5 56q93 0 161 -44t97 -93l48 119h253l-150 -705q-3 -17 -5 -32.5t-2 -28.5q0 -57 37.5 -85.5t126.5 -28.5l-14 -67q-51 -14 -95 -21t-110 -7q-98 0 -155 45.5t-72 126.5
q-55 -74 -137.5 -124.5t-198.5 -50.5zM489 105q73 0 138.5 51.5t102.5 121.5l96 459q-17 47 -65 88.5t-111 41.5q-61 0 -110 -41.5t-85.5 -107t-60 -141.5t-35.5 -148t-12 -123q0 -99 37 -150t105 -51z" />
    <glyph glyph-name="b" unicode="b" horiz-adv-x="1232" 
d="M653 -18q-98 0 -166.5 41.5t-106.5 95.5l-48 -119h-253l253 1192q5 22 7 41t2 34q0 34 -12.5 53t-41.5 25l-75 16l14 66l441 23l-133 -621q56 64 131.5 106t180.5 42q141 0 228 -93.5t87 -267.5q0 -74 -17 -159.5t-53 -169t-95 -152.5t-144 -111t-199 -42zM589 95
q62 0 109.5 41.5t82.5 108t58.5 142.5t34.5 147t11 120q0 99 -37 149.5t-105 50.5q-72 0 -134.5 -44t-98.5 -97l-104 -488q19 -45 68 -87.5t115 -42.5z" />
    <glyph glyph-name="c" unicode="c" horiz-adv-x="1092" 
d="M515 -18q-125 0 -223.5 44.5t-155.5 135t-57 227.5q0 119 36.5 225t107 188.5t173 129.5t232.5 47q119 0 210 -38.5t141 -113.5t43 -184h-270q3 39 -2 83t-20.5 83t-43 63.5t-69.5 24.5q-60 0 -105.5 -41t-77 -106t-51 -139.5t-29 -144t-9.5 -116.5q0 -137 51.5 -207.5
t139.5 -70.5q100 0 165.5 71.5t84.5 202.5l195 1q-37 -184 -156 -274.5t-310 -90.5z" />
    <glyph glyph-name="d" unicode="d" horiz-adv-x="1245" 
d="M378 -17q-138 0 -224.5 91.5t-86.5 258.5q0 116 36 230.5t104.5 208.5t165 150.5t217.5 56.5q95 0 163.5 -44t98.5 -93l72 346q5 22 7.5 39.5t2.5 31.5q0 36 -14 56t-43 26l-76 16l15 66l440 23l-253 -1190q-3 -17 -5 -32.5t-2 -28.5q0 -57 37.5 -85.5t126.5 -28.5
l-14 -67q-51 -14 -95 -21t-110 -7q-98 0 -155 45.5t-72 126.5q-55 -74 -137.5 -124.5t-198.5 -50.5zM489 105q73 0 138.5 51.5t102.5 121.5l96 459q-17 47 -65 88.5t-111 41.5q-61 0 -110 -41.5t-85.5 -107t-60 -141.5t-35.5 -148t-12 -123q0 -99 37 -150t105 -51z" />
    <glyph glyph-name="e" unicode="e" horiz-adv-x="1112" 
d="M529 -17q-146 0 -246.5 50.5t-152 142.5t-51.5 217q0 107 34.5 210.5t106 188.5t182 136t262.5 51q178 0 269.5 -63t91.5 -164q0 -67 -34 -126t-113 -105t-212 -72t-331 -26l19 40q-3 -19 -4.5 -42t-1.5 -47q0 -118 46.5 -201.5t156.5 -83.5q94 0 157 58t89 177h200
q-44 -160 -162.5 -250.5t-305.5 -90.5zM355 506l-23 8q220 0 329.5 71.5t109.5 185.5q0 55 -31.5 87.5t-91.5 32.5q-69 0 -128 -48t-101 -134t-64 -203z" />
    <glyph glyph-name="f" unicode="f" horiz-adv-x="696" 
d="M-171 -359l15 74q98 0 158 61.5t94 222.5l211 995q37 169 104.5 267.5t160 141t203.5 42.5q162 0 225 -70.5t53 -170.5h-244q11 87 -0.5 130t-52.5 43q-49 0 -82 -69t-63 -207l-247 -1154q-24 -112 -83.5 -179t-150 -97t-207.5 -30h-94zM122 877l18 86h647l-18 -86h-647z
" />
    <glyph glyph-name="g" unicode="g" horiz-adv-x="1056" 
d="M389 -377q-163 0 -260 32.5t-139.5 83.5t-42.5 107q0 61 34 102.5t90 68.5t121 42.5t126 23.5l60 125l158 -2q204 -3 302.5 -68.5t98.5 -183.5q0 -96 -46 -160.5t-124 -102t-176 -53t-202 -15.5zM409 -296q78 0 134.5 23t88 65t31.5 98q0 58 -45.5 89t-151.5 34l-147 6
q-56 -18 -96 -63.5t-40 -100.5q0 -59 54 -105t172 -46zM312 48q-141 13 -205.5 60t-64.5 104q0 69 68 113t189 80l32 -46q-27 -7 -56.5 -26.5t-32.5 -50.5t53 -53t203 -23zM506 317q-192 0 -291 83.5t-99 211.5q0 115 62 198t168 128t236 45q191 0 287 -81.5t96 -213.5
q0 -117 -60 -200t-164 -127t-235 -44zM510 394q54 0 92.5 32t62.5 83t36 108.5t12 107.5q0 94 -37.5 138t-97.5 44q-54 0 -92.5 -31.5t-63 -81t-36.5 -105t-12 -105.5q0 -97 40 -143.5t96 -46.5zM812 856l-20 77q56 106 145 145t207 39l-34 -201q-54 7 -108 4t-103 -18
t-87 -46z" />
    <glyph glyph-name="h" unicode="h" horiz-adv-x="1259" 
d="M940 -16q-60 0 -108 15.5t-75.5 54t-27.5 106.5q0 22 2.5 46.5t9.5 52.5l81 381q4 17 5.5 33t1.5 30q0 48 -22 79t-72 31q-44 0 -89 -27t-86 -73.5t-76 -107.5l-129 -605h-279l256 1190q5 23 7.5 42t2.5 35q0 33 -13 52t-42 25l-75 15l14 66l430 24l-150 -723
q47 69 102.5 124.5t124 88t151.5 32.5q111 0 168.5 -59.5t57.5 -172.5q0 -29 -4 -62t-12 -69l-78 -359q-4 -16 -6 -30t-2 -28q0 -55 38 -83.5t129 -28.5l-15 -67q-50 -14 -104 -21t-116 -7z" />
    <glyph glyph-name="i" unicode="i" horiz-adv-x="668" 
d="M337 -11q-89 0 -149.5 44t-60.5 150q0 23 3.5 49.5t9.5 56.5l95 420q5 22 8 41t3 34q0 35 -13.5 54t-42.5 25l-75 16l14 66l441 23l-156 -692q-5 -24 -8 -44.5t-3 -37.5q0 -63 38 -88t120 -25l-15 -68q-54 -10 -102.5 -17t-106.5 -7zM472 1116q-76 0 -118 41t-42 98
t42 97t118 40q78 0 118.5 -40t40.5 -97t-40.5 -98t-118.5 -41z" />
    <glyph glyph-name="j" unicode="j" horiz-adv-x="633" 
d="M-213 -359l15 74q75 0 131 24.5t93.5 82t60.5 158.5l159 729q15 71 5.5 108t-51.5 46l-75 16l14 66l441 23l-209 -972q-30 -137 -90 -214t-152 -109t-216 -32h-126zM483 1116q-77 0 -119 41t-42 98t42 97t119 40q78 0 118.5 -40t40.5 -97t-40.5 -98t-118.5 -41z" />
    <glyph glyph-name="k" unicode="k" horiz-adv-x="1155" 
d="M79 0l253 1192q15 71 6 108t-51 45l-75 16l14 66l441 23l-307 -1450h-281zM701 0l-239 494v5l335 300q96 85 171.5 124.5t158.5 39.5h32l-36 -161h-61q-56 0 -119 -18t-128 -78l-116 -106l213 -428q32 -62 62 -82.5t73 -20.5h23l-15 -69h-354z" />
    <glyph glyph-name="l" unicode="l" horiz-adv-x="663" 
d="M332 -11q-89 0 -149.5 45t-60.5 150q0 24 3.5 49.5t9.5 55.5l198 902q5 22 7.5 41t2.5 34q0 35 -13.5 54t-42.5 25l-75 16l14 66l441 23l-258 -1174q-5 -24 -8 -44.5t-3 -37.5q0 -62 38 -87.5t119 -25.5l-14 -68q-54 -10 -102.5 -17t-106.5 -7z" />
    <glyph glyph-name="m" unicode="m" horiz-adv-x="1844" 
d="M89 0l156 709q5 23 7.5 42.5t2.5 34.5q0 34 -13 52.5t-41 24.5l-75 16l14 66l415 23l-36 -242q46 69 101 125t123 88t151 32q103 0 157 -59t54 -172q0 -29 -3.5 -62.5t-11.5 -69.5l-131 -608h-279l138 643q4 16 5.5 31t1.5 30q0 46 -19.5 77.5t-60.5 31.5q-44 0 -87 -27
t-82 -73.5t-75 -107.5l-133 -605h-279zM1537 -16q-54 0 -104.5 17.5t-83 60t-32.5 116.5q0 20 3 42.5t8 46.5l79 376q3 16 5 31t2 30q0 46 -19.5 77.5t-60.5 31.5q-45 0 -88 -27t-83.5 -74.5t-79.5 -109.5l11 115q49 74 107 131.5t127.5 90t153.5 32.5q103 0 157.5 -59
t54.5 -172q0 -29 -4 -62.5t-12 -69.5l-77 -359q-4 -16 -6 -30.5t-2 -27.5q0 -56 38.5 -84t128.5 -28l-15 -67q-51 -14 -97 -21t-111 -7z" />
    <glyph glyph-name="n" unicode="n" horiz-adv-x="1266" 
d="M953 -16q-60 0 -107.5 15.5t-75.5 54t-28 106.5q0 22 4 51.5t10 55.5l79 373q4 18 5.5 33.5t1.5 29.5q0 48 -22 79t-71 31q-45 0 -88.5 -27t-83.5 -73.5t-76 -107.5l-133 -605h-279l156 709q5 23 7.5 42.5t2.5 34.5q0 34 -13 52.5t-41 24.5l-75 16l14 66l415 23l-36 -242
q46 69 101.5 125t124.5 88t152 32q111 0 168.5 -59t57.5 -173q0 -28 -4 -61.5t-12 -69.5l-78 -359q-3 -16 -5 -30.5t-2 -27.5q0 -56 36.5 -84t123.5 -28l-15 -67q-49 -14 -101 -21t-113 -7z" />
    <glyph glyph-name="o" unicode="o" horiz-adv-x="1136" 
d="M493 -16q-198 0 -307 112t-109 291q0 101 32.5 205.5t101 192.5t177 142.5t260.5 54.5q196 0 302.5 -114t106.5 -296q0 -110 -34.5 -215t-104.5 -189.5t-175.5 -134t-249.5 -49.5zM504 67q65 0 113 44.5t81 115.5t53.5 151.5t29.5 154.5t9 123q0 108 -37 175t-116 67
q-65 0 -113 -42t-81.5 -109t-54 -144.5t-30 -150.5t-9.5 -124q0 -74 16.5 -133t51 -93.5t87.5 -34.5z" />
    <glyph glyph-name="p" unicode="p" horiz-adv-x="1236" 
d="M11 -358l234 1073q5 22 7.5 41t2.5 33q0 33 -13 50t-41 23l-76 15l15 66l418 23l-20 -137q56 65 132 107.5t181 42.5q140 0 227 -94t87 -268q0 -73 -16.5 -158.5t-52.5 -169.5t-95.5 -153.5t-144.5 -111.5t-199 -42q-98 0 -166.5 41.5t-106.5 95.5l-101 -477h-272z
M594 95q61 0 108.5 41.5t82.5 108t58.5 142.5t35 147t11.5 121q0 99 -37.5 150t-105.5 51q-72 0 -134.5 -44.5t-98.5 -98.5l-104 -488q19 -45 68 -87.5t116 -42.5z" />
    <glyph glyph-name="q" unicode="q" horiz-adv-x="1204" 
d="M599 -358l109 516q-55 -74 -134.5 -124.5t-195.5 -50.5q-138 0 -224.5 91.5t-86.5 258.5q0 117 36.5 231.5t105 208.5t166 150t219.5 56q93 0 161 -44t97 -93l48 119h253l-281 -1319h-273zM489 105q49 0 96 27t86.5 69t64.5 89l98 447q-23 47 -72 88.5t-112 41.5
q-61 0 -110 -41.5t-85.5 -107t-60 -141.5t-35.5 -148t-12 -123q0 -99 37 -150t105 -51z" />
    <glyph glyph-name="r" unicode="r" horiz-adv-x="984" 
d="M749 650q13 78 -2 119.5t-54 41.5q-34 0 -69 -31.5t-68 -82.5t-61 -111l-127 -586h-280l157 709q16 72 7 108.5t-51 45.5l-75 16l14 66l415 23l-34 -234q37 69 81.5 122t99 83t118.5 30q104 0 148.5 -86.5t20.5 -232.5h-240z" />
    <glyph glyph-name="s" unicode="s" horiz-adv-x="1056" 
d="M474 -18q-126 0 -225 34t-153.5 105t-48.5 181h260q-2 -131 46.5 -186t129.5 -55q83 0 122.5 44.5t39.5 106.5q0 54 -44.5 99t-161.5 97q-141 61 -212 131.5t-71 162.5q0 78 35.5 131.5t95.5 85.5t135.5 46t155.5 14q122 0 214 -35t143 -99.5t46 -154.5h-260
q2 98 -38 154t-120 56q-59 0 -97.5 -29t-38.5 -88q0 -54 52.5 -100.5t178.5 -99.5q138 -57 198 -129t60 -162q0 -113 -59.5 -181t-160 -98.5t-222.5 -30.5z" />
    <glyph glyph-name="t" unicode="t" horiz-adv-x="751" 
d="M391 -11q-162 0 -222 80.5t-23 257.5l115 544h-161l20 92h165l53 242l278 23l-56 -265h242l-20 -92h-242l-120 -563q-17 -83 -11 -132.5t47 -70.5t128 -21h55l-16 -79q-43 -6 -100.5 -11t-131.5 -5z" />
    <glyph glyph-name="u" unicode="u" horiz-adv-x="1281" 
d="M364 -16q-111 0 -168.5 59t-57.5 172q0 29 4.5 62.5t11.5 69.5l80 362q5 23 8 42.5t3 34.5q0 34 -13.5 52.5t-41.5 24.5l-75 16l14 66l441 23l-144 -656q-3 -15 -4.5 -28.5t-1.5 -26.5q0 -52 24.5 -83.5t69.5 -31.5t88.5 26.5t83.5 73.5t74 106l132 594l289 17l-156 -698
q-5 -23 -8 -42t-3 -36q0 -50 35.5 -71.5t125.5 -21.5l-14 -67q-53 -15 -108 -24.5t-117 -9.5q-57 0 -102 17t-70 57.5t-25 113.5q0 13 0.5 27.5t3.5 29.5q-43 -63 -98 -120.5t-125 -93.5t-156 -36z" />
    <glyph glyph-name="v" unicode="v" horiz-adv-x="1044" 
d="M250 0l-54 709q-5 72 -18 108t-55 46l-66 16l14 66l365 21l61 -816q150 152 237.5 327t91.5 369q0 27 -2 55t-7 56h242q-2 -121 -55 -250t-139.5 -255.5t-188.5 -242t-202 -209.5h-224z" />
    <glyph glyph-name="w" unicode="w" horiz-adv-x="1630" 
d="M836 0l-73 949l263 1l56 -800q151 152 238.5 327.5t90.5 369.5q0 27 -1.5 54.5t-6.5 55.5h241q-1 -121 -54.5 -250t-139.5 -255.5t-188 -242t-202 -209.5h-224zM250 0l-54 709q-5 72 -18 108t-55 46l-66 16l14 66l365 21l61 -816q113 130 193.5 248.5t133.5 217.5l81 -49
q-53 -86 -114.5 -174t-138.5 -184.5t-178 -208.5h-224z" />
    <glyph glyph-name="x" unicode="x" horiz-adv-x="1041" 
d="M-79 0l37 161h50q38 0 85 6t97.5 31.5t97.5 83.5l418 517q81 99 154 131.5t154 32.5h47l-36 -161h-58q-37 0 -78.5 -5t-82.5 -25t-78 -66l-439 -542q-80 -98 -145 -131t-145 -33h-78zM561 0l-292 791q-25 66 -54.5 84.5t-73.5 18.5h-23l15 69h357l292 -791
q25 -66 55 -84.5t73 -18.5h23l-15 -69h-357z" />
    <glyph glyph-name="y" unicode="y" horiz-adv-x="1008" 
d="M-220 -366l18 78q102 0 189 30.5t164 83.5t149 121l31 29l-153 748q-9 47 -19 75t-24 43.5t-38 20.5l-66 16l14 66l358 21l149 -800q119 137 177.5 289t62.5 321q0 42 -3.5 87.5t-10.5 93.5h242q-2 -121 -45 -243t-114 -240t-156.5 -230t-170.5 -213
q-88 -105 -156.5 -180t-135 -123t-145.5 -71t-188 -23h-129z" />
    <glyph glyph-name="z" unicode="z" horiz-adv-x="1032" 
d="M-46 0l13 57l715 836h-205q-67 0 -120 -37.5t-91.5 -92.5t-64.5 -108h-73l86 308h800l-12 -58l-704 -833h281q80 0 132.5 39.5t87 97.5t60.5 110h73l-88 -319l-7 2v-2h-883z" />
    <glyph glyph-name="braceleft" unicode="{" horiz-adv-x="738" 
d="M364 -358q-84 0 -143 32.5t-81.5 101.5t-0.5 177l64 299q23 105 9.5 159t-54.5 73t-102 19l17 82q62 0 111.5 22t84.5 70.5t51 126.5l72 341q24 109 76 175.5t124.5 96t155.5 29.5h146l-17 -77h-59q-66 0 -106 -52.5t-57 -130.5l-69 -326q-20 -95 -57.5 -160.5
t-93.5 -103.5t-132 -51q70 -16 108.5 -61.5t47 -114.5t-10.5 -158l-65 -309q-17 -79 0.5 -130.5t84.5 -51.5h59l-17 -78h-146z" />
    <glyph glyph-name="bar" unicode="|" horiz-adv-x="526" 
d="M207 -358v1804h119v-1804h-119z" />
    <glyph glyph-name="braceright" unicode="}" horiz-adv-x="738" 
d="M-128 -358l16 78h59q68 0 107.5 51.5t55.5 130.5l66 309q19 89 57 158t95.5 114.5t135.5 61.5q-71 13 -111 51t-49.5 103.5t10.5 160.5l69 326q17 78 -0.5 130.5t-84.5 52.5h-59l17 77h146q83 0 142.5 -29.5t83.5 -96t0 -175.5l-72 -341q-16 -78 -2 -126.5t54 -70.5
t101 -22l-17 -82q-61 0 -110 -19t-84.5 -73t-58.5 -159l-64 -299q-22 -108 -74.5 -177t-125 -101.5t-157.5 -32.5h-146z" />
    <glyph glyph-name="asciitilde" unicode="~" 
d="M845 515q-70 0 -129 30t-127 77q-66 47 -115.5 74.5t-104.5 27.5q-153 0 -162 -210h-98q8 153 82 239t200 86q78 0 141.5 -36t127.5 -80q61 -42 105.5 -66.5t102.5 -24.5q152 0 160 210h99q-7 -154 -80.5 -240.5t-201.5 -86.5z" />
    <glyph glyph-name="uni00A0" unicode="&#xa0;" horiz-adv-x="521" 
 />
    <glyph glyph-name="exclamdown" unicode="&#xa1;" horiz-adv-x="619" 
d="M-16 -364l8 38q34 169 82.5 322.5t100 285.5t92.5 237h97q-2 -102 -9 -235.5t-24 -288t-52 -321.5l-7 -38h-288zM382 661q-78 0 -127 46t-49 122q0 70 49 119t127 49q79 0 127.5 -49t48.5 -119q0 -76 -48.5 -122t-127.5 -46z" />
    <glyph glyph-name="cent" unicode="&#xa2;" horiz-adv-x="1133" 
d="M531 -18q-143 0 -250.5 57.5t-157.5 173t-22 290.5q25 156 101 262t189 160t249 54q127 0 218 -43t138 -119t38 -174h-270q11 118 -25 186t-110 68t-125 -51t-83.5 -140.5t-51.5 -205.5q-34 -214 17.5 -323t160.5 -109q101 0 167 71.5t86 207.5h193q-37 -187 -154.5 -276
t-307.5 -89zM385 -217l296 1393h85l-296 -1393h-85z" />
    <glyph glyph-name="sterling" unicode="&#xa3;" 
d="M5 0l37 170q141 41 202.5 106t75.5 136q13 65 5.5 128t-32.5 138q-23 69 -41 157t3 186q20 91 77 160t156 107.5t243 38.5q136 0 236 -44t151.5 -133t38.5 -221h-260q9 115 -12.5 183t-64.5 98t-97 30q-82 0 -129 -49t-67 -139q-16 -77 -6 -157.5t36 -160.5
q28 -84 36.5 -153t-5.5 -133q-15 -74 -58.5 -127t-112 -89.5t-158.5 -62.5l27 34h720l-43 -203h-958zM95 586l20 95h806l-20 -95h-806z" />
    <glyph glyph-name="currency" unicode="&#xa4;" 
d="M619 277q-109 0 -199.5 54t-144 144t-53.5 199q0 110 53.5 200t144 143.5t199.5 53.5t199 -53.5t143 -143.5t53 -200q0 -109 -53 -199t-143 -144t-199 -54zM256 219l-90 89l173 173l91 -88zM342 867l-171 170l87 87l175 -174zM900 864l-89 89l169 169l89 -90zM985 224
l-172 171l91 83l168 -168zM618 405q75 0 135.5 36.5t97.5 97t37 135.5t-37 135.5t-97.5 96.5t-135.5 36t-136 -36t-97 -96.5t-36 -135.5t36 -135.5t97 -97t136 -36.5z" />
    <glyph glyph-name="yen" unicode="&#xa5;" 
d="M131 0l16 76h154q16 0 31.5 9.5t20.5 32.5l100 469l-183 623q-7 28 -24 44t-43 16h-60l15 76h581l-16 -76h-113q-17 0 -29.5 -6t-16.5 -22q-2 -12 1 -31t7 -33l136 -501l340 475q17 23 32 47.5t19 39.5q3 16 -5.5 23.5t-33.5 7.5h-96l15 76h383l-16 -76h-22
q-30 0 -67.5 -15.5t-66.5 -57.5l-439 -604l-102 -476q-4 -23 7.5 -32t25.5 -9h155l-16 -76h-690zM93 295l20 95h888l-20 -95h-888zM143 527l20 96h888l-20 -96h-888z" />
    <glyph glyph-name="brokenbar" unicode="&#xa6;" horiz-adv-x="526" 
d="M207 686v760h119v-760h-119zM207 -358v760h119v-760h-119z" />
    <glyph glyph-name="section" unicode="&#xa7;" horiz-adv-x="999" 
d="M423 -5q-111 0 -200 26t-138 90.5t-40 181.5h213q-8 -129 44.5 -176.5t132.5 -47.5q72 0 114.5 33t53.5 90q14 73 -26.5 122t-161.5 99q-142 59 -209 144t-43 204q17 82 76.5 129.5t141.5 69t168 25.5l13 -70q-44 -5 -95.5 -31t-63.5 -84q-7 -35 5.5 -68.5t57.5 -67
t134 -71.5q153 -65 213 -147.5t36 -205.5q-24 -121 -131 -183t-295 -62zM560 436l7 70q56 6 92.5 41t47.5 91q15 71 -24 118.5t-163 103.5q-136 62 -202.5 145.5t-42.5 201.5q24 107 124 158.5t259 51.5q105 0 186.5 -28t126.5 -88t40 -153h-245q7 92 -23 143.5t-94 51.5
q-55 0 -90 -24.5t-45 -71.5q-7 -34 5.5 -68t56.5 -68.5t132 -71.5q157 -66 215 -149t36 -195q-19 -94 -77 -148t-142 -79t-180 -32z" />
    <glyph glyph-name="dieresis" unicode="&#xa8;" horiz-adv-x="1130" 
d="M747 1122q-48 0 -84 35t-36 86q0 50 36 85t84 35q50 0 86 -35t36 -85q0 -51 -36 -86t-86 -35zM360 1122q-50 0 -86 35t-36 86q0 50 36 85t86 35q48 0 84.5 -35t36.5 -85q0 -51 -36.5 -86t-84.5 -35z" />
    <glyph glyph-name="copyright" unicode="&#xa9;" horiz-adv-x="1534" 
d="M807 -18q-143 0 -268 53.5t-220 148.5t-148.5 220t-53.5 268q0 144 53.5 269.5t148.5 220.5t220 148.5t268 53.5q144 0 269.5 -53.5t220.5 -148.5t148.5 -220.5t53.5 -269.5q0 -143 -53.5 -268t-148.5 -220t-220.5 -148.5t-269.5 -53.5zM807 57q127 0 238 48t195 132.5
t131.5 196t47.5 238.5q0 128 -47.5 239.5t-132 196t-195 132.5t-237.5 48q-126 0 -237 -48t-194.5 -133t-131 -196t-47.5 -239q0 -127 47.5 -238.5t131.5 -196t194.5 -132.5t236.5 -48zM839 234q-209 0 -312.5 122.5t-103.5 312.5q0 127 45.5 225t138 154.5t232.5 56.5
q76 0 136.5 -22t90.5 -47l-8 -177q-18 79 -74 131t-145 52q-82 0 -132.5 -50t-73.5 -134t-23 -189q0 -100 24 -181.5t78 -129.5t143 -48q96 0 160.5 52.5t74.5 157.5h82q-16 -148 -107 -217t-226 -69zM1058 859l6 235h65l20 -235h-91z" />
    <glyph glyph-name="ordfeminine" unicode="&#xaa;" horiz-adv-x="919" 
d="M354 558q-87 0 -153.5 52t-66.5 149q0 99 51.5 153.5t136 78t185 29t197.5 5.5l12 52q7 31 10 55.5t3 44.5q0 63 -28 88t-72 25q-63 0 -99.5 -43t-50.5 -120h-228q24 126 129 181.5t268 55.5q96 0 163 -27t102.5 -78t35.5 -127q0 -18 -2 -36.5t-6 -38.5l-100 -482h-223
l26 136q-49 -66 -122.5 -109.5t-167.5 -43.5zM463 671q58 0 109 40t84 88l34 159q-60 -1 -116 -9t-100 -28t-69.5 -57.5t-25.5 -95.5q0 -47 23 -72t61 -25z" />
    <glyph glyph-name="guillemotleft" unicode="&#xab;" horiz-adv-x="989" 
d="M412 90l-324 332l26 121l464 334l-24 -117l-264 -277l147 -275zM806 90l-324 332l26 121l465 334l-24 -117l-265 -277l147 -275z" />
    <glyph glyph-name="logicalnot" unicode="&#xac;" 
d="M967 335v542h-824v123h951v-665h-127z" />
    <glyph glyph-name="uni00AD" unicode="&#xad;" horiz-adv-x="752" 
d="M71 377l51 236h562l-48 -236h-565z" />
    <glyph glyph-name="registered" unicode="&#xae;" horiz-adv-x="928" 
d="M568 602q-102 0 -186.5 51t-135 136.5t-50.5 187.5q0 104 50.5 189t135 135.5t186.5 50.5q104 0 189 -50.5t135.5 -135.5t50.5 -189q0 -102 -50.5 -187.5t-135.5 -136.5t-189 -51zM568 647q91 0 165 44t118 119t44 167t-44 167t-118 119.5t-165 44.5q-88 0 -161.5 -44.5
t-118 -119.5t-44.5 -167t44.5 -167t118 -119t161.5 -44zM387 788v28h43q10 0 10 10v317q0 10 -10 10h-43v28h198q54 0 98 -24.5t44 -76.5q0 -38 -26.5 -65t-66.5 -35q31 -5 52 -27.5t32 -62.5l17 -61q3 -10 8.5 -11.5t13.5 -1.5h25v-28h-114l-25 98q-9 37 -20.5 58t-40.5 21
h-65v-139q0 -10 11 -10h37v-28h-178zM517 994h65q28 0 47 22t19 60q0 77 -66 77h-65v-159z" />
    <glyph glyph-name="macron" unicode="&#xaf;" horiz-adv-x="1130" 
d="M270 1166l25 117h565l-24 -117h-566z" />
    <glyph glyph-name="degree" unicode="&#xb0;" horiz-adv-x="779" 
d="M499 663q-92 0 -167.5 44.5t-120 120t-44.5 167.5q0 93 44.5 168t120 119.5t167.5 44.5q93 0 168 -44.5t120 -119.5t45 -168q0 -92 -45 -167.5t-120 -120t-168 -44.5zM499 756q66 0 120 32t85.5 86.5t31.5 120.5t-31.5 120t-85.5 86.5t-120 32.5q-65 0 -119 -32.5
t-85.5 -86.5t-31.5 -119q0 -67 31.5 -121.5t85.5 -86.5t119 -32z" />
    <glyph glyph-name="plusminus" unicode="&#xb1;" 
d="M554 256v950h127v-950h-127zM142 38v123h951v-123h-951zM142 675v123h951v-123h-951z" />
    <glyph glyph-name="uni00B2" unicode="&#xb2;" horiz-adv-x="738" 
d="M158 977l15 73l341 255q97 71 140.5 136.5t56.5 126.5q13 62 -5 106t-76 44q-68 0 -109 -56t-59 -144h-184q27 125 118.5 192t239.5 67q139 0 209 -68t47 -175q-20 -93 -91.5 -151t-187.5 -128l-209 -126h415l-31 -152h-630z" />
    <glyph glyph-name="uni00B3" unicode="&#xb3;" horiz-adv-x="738" 
d="M484 966q-146 0 -223 60t-51 186h180q-19 -94 8 -140.5t94 -46.5q61 0 100.5 43.5t56.5 125.5q21 94 -8 130.5t-92 36.5h-54l12 57h60q59 0 100 39.5t56 110.5q16 74 -6 112t-77 38q-57 0 -98 -46t-59 -132h-180q18 86 71 138t124.5 75.5t147.5 23.5q78 0 141.5 -24.5
t96.5 -74t17 -126.5q-12 -59 -62.5 -101.5t-132.5 -59.5q67 -12 110.5 -67t23.5 -148q-22 -103 -117.5 -156.5t-238.5 -53.5z" />
    <glyph glyph-name="acute" unicode="&#xb4;" horiz-adv-x="1130" 
d="M411 1106l228 277h302l-397 -277h-133z" />
    <glyph glyph-name="mu" unicode="&#xb5;" horiz-adv-x="1255" 
d="M406 -16q-93 0 -164.5 42t-104.5 123.5t-9 199.5l121 585l295 34l-140 -637q-20 -91 5.5 -140t90.5 -49q66 0 122 54t112 152l136 592l286 23l-158 -702q-13 -63 -8 -100.5t42 -54t117 -16.5l-14 -67q-53 -15 -114.5 -24.5t-123.5 -9.5q-64 0 -107.5 21t-62.5 71t-11 136
q-35 -60 -79.5 -113.5t-101 -86.5t-129.5 -33zM-24 -359q19 86 40 184.5t42 196t39.5 182.5t30.5 145l139 -130q3 -96 14.5 -188t15 -187.5t-17.5 -202.5h-303z" />
    <glyph glyph-name="paragraph" unicode="&#xb6;" horiz-adv-x="1149" 
d="M381 -197l176 826h-74q-108 0 -177 53t-93.5 142.5t-1.5 197.5q35 163 148 243.5t276 80.5h647l-18 -81h-179l-311 -1462h-91l311 1462h-208l-311 -1462h-94z" />
    <glyph glyph-name="periodcentered" unicode="&#xb7;" horiz-adv-x="619" 
d="M317 350q-80 0 -128 48.5t-48 118.5q0 77 48 123t128 46q78 0 127 -46t49 -123q0 -70 -49 -118.5t-127 -48.5z" />
    <glyph glyph-name="cedilla" unicode="&#xb8;" horiz-adv-x="1130" 
d="M523 -376q-70 0 -119 11t-86 29l40 96q36 -18 78.5 -30t87.5 -12q37 0 61 14t30 48q7 39 -18 61.5t-101 37.5l-43 8l165 166l76 -49l-71 -73l-43 18q97 -1 152.5 -52t38.5 -133q-16 -79 -86 -109.5t-162 -30.5z" />
    <glyph glyph-name="uni00B9" unicode="&#xb9;" horiz-adv-x="738" 
d="M217 977l15 67h148q16 0 31 9.5t20 32.5l121 571q-38 -34 -93.5 -65t-143.5 -49l17 82q64 15 109 34t80 45.5t72 61.5h187l-146 -685q-4 -20 8 -28.5t27 -8.5h135l-14 -67h-573z" />
    <glyph glyph-name="ordmasculine" unicode="&#xba;" horiz-adv-x="960" 
d="M537 558q-160 0 -256.5 92.5t-96.5 248.5q0 87 27 169.5t81 149t136.5 106t193.5 39.5q160 0 259 -90.5t99 -248.5q0 -74 -21.5 -155t-72 -152t-136 -115t-213.5 -44zM534 635q62 0 105 51t69 125.5t38 149.5t12 122q0 94 -34 149.5t-101 55.5q-62 0 -104.5 -50.5
t-68.5 -125.5t-37.5 -149.5t-11.5 -122.5q0 -93 33.5 -149t99.5 -56z" />
    <glyph glyph-name="guillemotright" unicode="&#xbb;" horiz-adv-x="989" 
d="M15 90l25 118l264 276l-147 275l25 118l324 -332l-26 -120zM413 88l24 117l265 277l-147 275l25 118l324 -332l-26 -121z" />
    <glyph glyph-name="onequarter" unicode="&#xbc;" horiz-adv-x="1711" 
d="M60 530l15 67h148q16 0 31 9.5t20 32.5l121 571q-38 -34 -93.5 -65t-143.5 -49l17 82q64 15 109 34t80 45.5t72 61.5h187l-146 -685q-4 -20 8 -28.5t27 -8.5h135l-14 -67h-573zM278 0l1076 1311h122l-1076 -1311h-122zM1223 0l33 152h-371l22 105l495 531h183l-105 -493
h110l-30 -143h-110l-33 -152h-194zM1032 295h259l76 360z" />
    <glyph glyph-name="onehalf" unicode="&#xbd;" horiz-adv-x="1768" 
d="M60 530l15 67h148q16 0 31 9.5t20 32.5l121 571q-38 -34 -93.5 -65t-143.5 -49l17 82q64 15 109 34t80 45.5t72 61.5h187l-146 -685q-4 -20 8 -28.5t27 -8.5h135l-14 -67h-573zM283 0l1076 1311h122l-1076 -1311h-122zM980 0l15 73l341 255q97 71 140.5 136.5t56.5 126.5
q13 62 -5 106t-76 44q-68 0 -109 -56t-59 -144h-184q27 125 118.5 192t239.5 67q139 0 209 -68t47 -175q-20 -93 -91.5 -151t-187.5 -128l-209 -126h415l-31 -152h-630z" />
    <glyph glyph-name="threequarters" unicode="&#xbe;" horiz-adv-x="1853" 
d="M389 519q-146 0 -223 60t-51 186h180q-19 -94 8 -140.5t94 -46.5q61 0 100.5 43.5t56.5 125.5q21 94 -8 130.5t-92 36.5h-54l12 57h60q59 0 100 39.5t56 110.5q16 74 -6 112t-77 38q-57 0 -98 -46t-59 -132h-180q18 86 71 138t124.5 75.5t147.5 23.5q78 0 141.5 -24.5
t96.5 -74t17 -126.5q-12 -59 -62.5 -101.5t-132.5 -59.5q67 -12 110.5 -67t23.5 -148q-22 -103 -117.5 -156.5t-238.5 -53.5zM377 0l1076 1311h122l-1076 -1311h-122zM1339 0l33 152h-371l22 105l495 531h183l-105 -493h110l-30 -143h-110l-33 -152h-194zM1148 295h259
l76 360z" />
    <glyph glyph-name="questiondown" unicode="&#xbf;" horiz-adv-x="1065" 
d="M640 514q6 -28 5 -61t-8 -67q-17 -84 -69 -146t-136 -121q-78 -54 -117.5 -101.5t-54.5 -118.5q-19 -90 7.5 -146.5t95.5 -56.5q82 0 137.5 75t79.5 204h286q-45 -190 -176.5 -273.5t-338.5 -83.5q-133 0 -222.5 49.5t-126.5 133.5t-15 186q23 107 92 170.5t180 123.5
q79 44 123 78t67.5 70t39.5 85h151zM598 993q79 0 128.5 -49t49.5 -119q0 -76 -49.5 -122t-128.5 -46t-127.5 46t-48.5 122q0 70 48.5 119t127.5 49z" />
    <glyph glyph-name="Agrave" unicode="&#xc0;" horiz-adv-x="1381" 
d="M-109 0l16 76h107q18 0 33 11.5t36 46.5l719 1212h151l193 -1214q6 -34 17.5 -45t37.5 -11h99l-16 -76h-629l15 76h154q16 0 30.5 11.5t10.5 47.5l-134 970l39 29l-580 -995q-23 -38 -13 -50.5t27 -12.5h165l-16 -76h-462zM336 454l11 83h697l-11 -83h-697zM892 1452
l-278 278h295l104 -278h-121z" />
    <glyph glyph-name="Aacute" unicode="&#xc1;" horiz-adv-x="1381" 
d="M-109 0l16 76h107q18 0 33 11.5t36 46.5l719 1212h151l193 -1214q6 -34 17.5 -45t37.5 -11h99l-16 -76h-629l15 76h154q16 0 30.5 11.5t10.5 47.5l-134 970l39 29l-580 -995q-23 -38 -13 -50.5t27 -12.5h165l-16 -76h-462zM336 454l11 83h697l-11 -83h-697zM777 1452
l229 278h301l-397 -278h-133z" />
    <glyph glyph-name="Acircumflex" unicode="&#xc2;" horiz-adv-x="1381" 
d="M-109 0l16 76h107q18 0 33 11.5t36 46.5l719 1212h151l193 -1214q6 -34 17.5 -45t37.5 -11h99l-16 -76h-629l15 76h154q16 0 30.5 11.5t10.5 47.5l-134 970l39 29l-580 -995q-23 -38 -13 -50.5t27 -12.5h165l-16 -76h-462zM336 454l11 83h697l-11 -83h-697zM568 1452
l259 277h255l149 -277h-122l-175 156l-236 -156h-130z" />
    <glyph glyph-name="Atilde" unicode="&#xc3;" horiz-adv-x="1381" 
d="M-109 0l16 76h107q18 0 33 11.5t36 46.5l719 1212h151l193 -1214q6 -34 17.5 -45t37.5 -11h99l-16 -76h-629l15 76h154q16 0 30.5 11.5t10.5 47.5l-134 970l39 29l-580 -995q-23 -38 -13 -50.5t27 -12.5h165l-16 -76h-462zM336 454l11 83h697l-11 -83h-697zM572 1454
q31 123 93.5 181.5t143.5 58.5q48 0 84 -14t66 -28q34 -15 60.5 -27.5t56.5 -12.5q33 0 56.5 18.5t38.5 64.5h98q-34 -122 -87.5 -176t-135.5 -54q-45 0 -79 11.5t-69 27.5q-35 17 -63.5 28t-58.5 11q-36 0 -62.5 -20t-45.5 -69h-96z" />
    <glyph glyph-name="Adieresis" unicode="&#xc4;" horiz-adv-x="1381" 
d="M-109 0l16 76h107q18 0 33 11.5t36 46.5l719 1212h151l193 -1214q6 -34 17.5 -45t37.5 -11h99l-16 -76h-629l15 76h154q16 0 30.5 11.5t10.5 47.5l-134 970l39 29l-580 -995q-23 -38 -13 -50.5t27 -12.5h165l-16 -76h-462zM336 454l11 83h697l-11 -83h-697zM1102 1468
q-49 0 -85 36t-36 86t36 86t85 36q50 0 85.5 -36t35.5 -86t-35.5 -86t-85.5 -36zM715 1468q-51 0 -86.5 36t-35.5 86t35.5 86t86.5 36q48 0 84 -36t36 -86t-36 -86t-84 -36z" />
    <glyph glyph-name="Aring" unicode="&#xc5;" horiz-adv-x="1381" 
d="M-109 0l16 76h107q18 0 33 11.5t36 46.5l719 1212h151l193 -1214q6 -34 17.5 -45t37.5 -11h99l-16 -76h-629l15 76h154q16 0 30.5 11.5t10.5 47.5l-134 970l39 29l-580 -995q-23 -38 -13 -50.5t27 -12.5h165l-16 -76h-462zM336 454l11 83h697l-11 -83h-697zM897 1376
q-86 0 -147.5 55.5t-61.5 140.5q0 92 59 152t150 60q89 0 149 -57.5t60 -147.5q0 -88 -60 -145.5t-149 -57.5zM897 1484q40 0 68 28t28 67q0 41 -28 69t-68 28t-67.5 -28t-27.5 -69q0 -39 27.5 -67t67.5 -28z" />
    <glyph glyph-name="AE" unicode="&#xc6;" horiz-adv-x="1899" 
d="M-109 0l16 76h121q20 0 34.5 11t27.5 30l768 1064q8 11 16 26t11 28q8 35 -28 35h-163l16 76h1261l-61 -361h-108q5 64 -6.5 127.5t-41.5 106t-80 42.5h-291l-114 -534h487l-19 -85h-487l-118 -558h303q57 0 101 31.5t77 80t58 103.5t44 102h108l-105 -401h-1098l16 76
h155q15 0 31 9.5t20 32.5l71 334h-466l-184 -261q-20 -29 -34 -52t-17 -37q-3 -16 7 -21t21 -5h171l-16 -76h-504zM508 537h426l151 721h-68z" />
    <glyph glyph-name="Ccedilla" unicode="&#xc7;" horiz-adv-x="1390" 
d="M707 -18q-179 0 -309 66.5t-199.5 193t-69.5 308.5q0 163 49 309.5t146.5 260.5t242.5 179t338 65q141 0 238.5 -39.5t138.5 -81.5l23 103h97l-71 -426h-144q-13 115 -51 194.5t-98 122t-142 42.5q-96 0 -170.5 -54t-128.5 -142t-89 -192.5t-51.5 -207.5t-16.5 -185
q0 -184 75 -299t235 -115q141 0 246.5 96t141.5 297h158q-49 -252 -198 -373.5t-391 -121.5zM616 -376q-70 0 -119 11t-86 29l40 96q36 -18 78.5 -30t87.5 -12q37 0 61 14t30 48q7 39 -18 61.5t-101 37.5l-43 8l165 166l76 -49l-71 -73l-43 18q97 -1 152.5 -52t38.5 -133
q-16 -79 -86 -109.5t-162 -30.5z" />
    <glyph glyph-name="Egrave" unicode="&#xc8;" horiz-adv-x="1218" 
d="M-60 0l16 76h154q16 0 31.5 8.5t20.5 32.5l237 1114q5 22 -7 30.5t-27 8.5h-155l16 76h1065l-61 -361h-109q6 65 -6 128.5t-42.5 105.5t-80.5 42h-290l-114 -534h486l-18 -85h-487l-119 -558h303q58 0 102 31t77 79t58 103.5t44 103.5h109l-105 -401h-1098zM811 1452
l-278 278h295l104 -278h-121z" />
    <glyph glyph-name="Eacute" unicode="&#xc9;" horiz-adv-x="1218" 
d="M-60 0l16 76h154q16 0 31.5 8.5t20.5 32.5l237 1114q5 22 -7 30.5t-27 8.5h-155l16 76h1065l-61 -361h-109q6 65 -6 128.5t-42.5 105.5t-80.5 42h-290l-114 -534h486l-18 -85h-487l-119 -558h303q58 0 102 31t77 79t58 103.5t44 103.5h109l-105 -401h-1098zM696 1452
l229 278h301l-397 -278h-133z" />
    <glyph glyph-name="Ecircumflex" unicode="&#xca;" horiz-adv-x="1218" 
d="M-60 0l16 76h154q16 0 31.5 8.5t20.5 32.5l237 1114q5 22 -7 30.5t-27 8.5h-155l16 76h1065l-61 -361h-109q6 65 -6 128.5t-42.5 105.5t-80.5 42h-290l-114 -534h486l-18 -85h-487l-119 -558h303q58 0 102 31t77 79t58 103.5t44 103.5h109l-105 -401h-1098zM487 1452
l259 277h255l149 -277h-122l-175 156l-236 -156h-130z" />
    <glyph glyph-name="Edieresis" unicode="&#xcb;" horiz-adv-x="1218" 
d="M-60 0l16 76h154q16 0 31.5 8.5t20.5 32.5l237 1114q5 22 -7 30.5t-27 8.5h-155l16 76h1065l-61 -361h-109q6 65 -6 128.5t-42.5 105.5t-80.5 42h-290l-114 -534h486l-18 -85h-487l-119 -558h303q58 0 102 31t77 79t58 103.5t44 103.5h109l-105 -401h-1098zM1021 1468
q-49 0 -85 36t-36 86t36 86t85 36q50 0 85.5 -36t35.5 -86t-35.5 -86t-85.5 -36zM634 1468q-51 0 -86.5 36t-35.5 86t35.5 86t86.5 36q48 0 84 -36t36 -86t-36 -86t-84 -36z" />
    <glyph glyph-name="Igrave" unicode="&#xcc;" horiz-adv-x="777" 
d="M-60 0l16 76h154q16 0 31.5 8.5t20.5 32.5l237 1114q5 22 -7 30.5t-27 8.5h-155l16 76h690l-16 -76h-154q-15 0 -31 -8.5t-21 -32.5l-236 -1114q-5 -22 6.5 -30.5t26.5 -8.5h155l-16 -76h-690zM589 1452l-278 278h295l104 -278h-121z" />
    <glyph glyph-name="Iacute" unicode="&#xcd;" horiz-adv-x="777" 
d="M-60 0l16 76h154q16 0 31.5 8.5t20.5 32.5l237 1114q5 22 -7 30.5t-27 8.5h-155l16 76h690l-16 -76h-154q-15 0 -31 -8.5t-21 -32.5l-236 -1114q-5 -22 6.5 -30.5t26.5 -8.5h155l-16 -76h-690zM474 1452l229 278h301l-397 -278h-133z" />
    <glyph glyph-name="Icircumflex" unicode="&#xce;" horiz-adv-x="777" 
d="M-60 0l16 76h154q16 0 31.5 8.5t20.5 32.5l237 1114q5 22 -7 30.5t-27 8.5h-155l16 76h690l-16 -76h-154q-15 0 -31 -8.5t-21 -32.5l-236 -1114q-5 -22 6.5 -30.5t26.5 -8.5h155l-16 -76h-690zM265 1452l259 277h255l149 -277h-122l-175 156l-236 -156h-130z" />
    <glyph glyph-name="Idieresis" unicode="&#xcf;" horiz-adv-x="777" 
d="M-60 0l16 76h154q16 0 31.5 8.5t20.5 32.5l237 1114q5 22 -7 30.5t-27 8.5h-155l16 76h690l-16 -76h-154q-15 0 -31 -8.5t-21 -32.5l-236 -1114q-5 -22 6.5 -30.5t26.5 -8.5h155l-16 -76h-690zM799 1468q-49 0 -85 36t-36 86t36 86t85 36q50 0 85.5 -36t35.5 -86
t-35.5 -86t-85.5 -36zM412 1468q-51 0 -86.5 36t-35.5 86t35.5 86t86.5 36q48 0 84 -36t36 -86t-36 -86t-84 -36z" />
    <glyph glyph-name="Eth" unicode="&#xd0;" horiz-adv-x="1536" 
d="M90 628l20 96h720l-21 -96h-719zM-60 0l16 76h155q15 0 30.5 8.5t20.5 31.5l236 1110q1 5 1.5 9t0.5 7q0 15 -11 21.5t-24 6.5h-154l16 76h638q191 0 329.5 -72t213.5 -201.5t75 -303.5q0 -127 -31.5 -242t-96 -211.5t-162.5 -167t-230.5 -109.5t-301.5 -39h-721zM451 84
h168q135 0 231 49.5t158.5 130.5t97.5 178.5t49.5 195.5t14.5 179q0 202 -86.5 323.5t-254.5 121.5h-128z" />
    <glyph glyph-name="Ntilde" unicode="&#xd1;" horiz-adv-x="1586" 
d="M-60 0l16 76h154q16 0 31.5 9.5t20.5 32.5l236 1110q5 23 -6.5 32.5t-26.5 9.5h-155l16 76h458l540 -994l187 876q5 23 -6.5 32.5t-26.5 9.5h-157l16 76h488l-16 -76h-154q-15 0 -30.5 -9.5t-20.5 -32.5l-261 -1228h-141l-631 1153l-220 -1035q-5 -23 6.5 -32.5
t26.5 -9.5h156l-16 -76h-484zM646 1454q31 123 93.5 181.5t143.5 58.5q48 0 84 -14t66 -28q34 -15 60.5 -27.5t56.5 -12.5q33 0 56.5 18.5t38.5 64.5h98q-34 -122 -87.5 -176t-135.5 -54q-45 0 -79 11.5t-69 27.5q-35 17 -63.5 28t-58.5 11q-36 0 -62.5 -20t-45.5 -69h-96z
" />
    <glyph glyph-name="Ograve" unicode="&#xd2;" horiz-adv-x="1522" 
d="M707 -19q-182 0 -312 70t-198.5 197t-68.5 299q0 143 42 288t133 265t238 193t359 73q182 0 310 -70.5t195.5 -199t67.5 -300.5q0 -146 -41 -290t-131.5 -263t-236.5 -190.5t-357 -71.5zM717 67q95 0 168 58.5t125.5 153t86 205.5t49.5 218.5t16 188.5q0 116 -29 203.5
t-88 136.5t-151 49q-103 0 -179 -58t-128.5 -151.5t-84.5 -204t-46.5 -217.5t-14.5 -188q0 -114 29 -203.5t90.5 -140t156.5 -50.5zM926 1453l-278 278h295l104 -278h-121z" />
    <glyph glyph-name="Oacute" unicode="&#xd3;" horiz-adv-x="1522" 
d="M707 -19q-182 0 -312 70t-198.5 197t-68.5 299q0 143 42 288t133 265t238 193t359 73q182 0 310 -70.5t195.5 -199t67.5 -300.5q0 -146 -41 -290t-131.5 -263t-236.5 -190.5t-357 -71.5zM717 67q95 0 168 58.5t125.5 153t86 205.5t49.5 218.5t16 188.5q0 116 -29 203.5
t-88 136.5t-151 49q-103 0 -179 -58t-128.5 -151.5t-84.5 -204t-46.5 -217.5t-14.5 -188q0 -114 29 -203.5t90.5 -140t156.5 -50.5zM811 1453l229 278h301l-397 -278h-133z" />
    <glyph glyph-name="Ocircumflex" unicode="&#xd4;" horiz-adv-x="1522" 
d="M707 -19q-182 0 -312 70t-198.5 197t-68.5 299q0 143 42 288t133 265t238 193t359 73q182 0 310 -70.5t195.5 -199t67.5 -300.5q0 -146 -41 -290t-131.5 -263t-236.5 -190.5t-357 -71.5zM717 67q95 0 168 58.5t125.5 153t86 205.5t49.5 218.5t16 188.5q0 116 -29 203.5
t-88 136.5t-151 49q-103 0 -179 -58t-128.5 -151.5t-84.5 -204t-46.5 -217.5t-14.5 -188q0 -114 29 -203.5t90.5 -140t156.5 -50.5zM602 1453l259 277h255l149 -277h-122l-175 156l-236 -156h-130z" />
    <glyph glyph-name="Otilde" unicode="&#xd5;" horiz-adv-x="1522" 
d="M707 -19q-182 0 -312 70t-198.5 197t-68.5 299q0 143 42 288t133 265t238 193t359 73q182 0 310 -70.5t195.5 -199t67.5 -300.5q0 -146 -41 -290t-131.5 -263t-236.5 -190.5t-357 -71.5zM717 67q95 0 168 58.5t125.5 153t86 205.5t49.5 218.5t16 188.5q0 116 -29 203.5
t-88 136.5t-151 49q-103 0 -179 -58t-128.5 -151.5t-84.5 -204t-46.5 -217.5t-14.5 -188q0 -114 29 -203.5t90.5 -140t156.5 -50.5zM606 1455q31 123 93.5 181.5t143.5 58.5q48 0 84 -14t66 -28q34 -15 60.5 -27.5t56.5 -12.5q33 0 56.5 18.5t38.5 64.5h98
q-34 -122 -87.5 -176t-135.5 -54q-45 0 -79 11.5t-69 27.5q-35 17 -63.5 28t-58.5 11q-36 0 -62.5 -20t-45.5 -69h-96z" />
    <glyph glyph-name="Odieresis" unicode="&#xd6;" horiz-adv-x="1522" 
d="M707 -19q-182 0 -312 70t-198.5 197t-68.5 299q0 143 42 288t133 265t238 193t359 73q182 0 310 -70.5t195.5 -199t67.5 -300.5q0 -146 -41 -290t-131.5 -263t-236.5 -190.5t-357 -71.5zM717 67q95 0 168 58.5t125.5 153t86 205.5t49.5 218.5t16 188.5q0 116 -29 203.5
t-88 136.5t-151 49q-103 0 -179 -58t-128.5 -151.5t-84.5 -204t-46.5 -217.5t-14.5 -188q0 -114 29 -203.5t90.5 -140t156.5 -50.5zM1135 1469q-49 0 -85 36t-36 86t36 86t85 36q50 0 85.5 -36t35.5 -86t-35.5 -86t-85.5 -36zM748 1469q-51 0 -86.5 36t-35.5 86t35.5 86
t86.5 36q48 0 84 -36t36 -86t-36 -86t-84 -36z" />
    <glyph glyph-name="multiply" unicode="&#xd7;" 
d="M256 216l-90 90l367 367l-362 362l87 87l362 -362l360 359l89 -89l-360 -360l363 -362l-87 -87l-362 363z" />
    <glyph glyph-name="Oslash" unicode="&#xd8;" horiz-adv-x="1522" 
d="M78 -55l-57 59l1488 1395l55 -58zM707 -19q-182 0 -312 70t-198.5 197t-68.5 299q0 143 42 288t133 265t238 193t359 73q182 0 310 -70.5t195.5 -199t67.5 -300.5q0 -146 -41 -290t-131.5 -263t-236.5 -190.5t-357 -71.5zM717 67q95 0 168 58.5t125.5 153t86 205.5
t49.5 218.5t16 188.5q0 116 -29 203.5t-88 136.5t-151 49q-103 0 -179 -58t-128.5 -151.5t-84.5 -204t-46.5 -217.5t-14.5 -188q0 -114 29 -203.5t90.5 -140t156.5 -50.5z" />
    <glyph glyph-name="Ugrave" unicode="&#xd9;" horiz-adv-x="1523" 
d="M739 -19q-157 0 -273.5 43t-180.5 133t-64 230q0 36 4.5 76.5t16.5 92.5l143 668q1 7 1 10v6q0 17 -10.5 23.5t-23.5 6.5h-155l16 76h692l-16 -76h-156q-15 0 -31 -9.5t-21 -32.5l-156 -735q-9 -44 -13.5 -82.5t-4.5 -72.5q0 -132 70 -194t208 -62q162 0 265 88t147 293
l161 762q2 7 2 14q0 17 -10.5 24t-23.5 7h-157l16 76h491l-16 -76h-154q-15 0 -31 -9.5t-21 -32.5l-165 -780q-34 -158 -99.5 -262t-175 -154.5t-275.5 -50.5zM1002 1452l-278 278h295l104 -278h-121z" />
    <glyph glyph-name="Uacute" unicode="&#xda;" horiz-adv-x="1523" 
d="M739 -19q-157 0 -273.5 43t-180.5 133t-64 230q0 36 4.5 76.5t16.5 92.5l143 668q1 7 1 10v6q0 17 -10.5 23.5t-23.5 6.5h-155l16 76h692l-16 -76h-156q-15 0 -31 -9.5t-21 -32.5l-156 -735q-9 -44 -13.5 -82.5t-4.5 -72.5q0 -132 70 -194t208 -62q162 0 265 88t147 293
l161 762q2 7 2 14q0 17 -10.5 24t-23.5 7h-157l16 76h491l-16 -76h-154q-15 0 -31 -9.5t-21 -32.5l-165 -780q-34 -158 -99.5 -262t-175 -154.5t-275.5 -50.5zM887 1452l229 278h301l-397 -278h-133z" />
    <glyph glyph-name="Ucircumflex" unicode="&#xdb;" horiz-adv-x="1523" 
d="M739 -19q-157 0 -273.5 43t-180.5 133t-64 230q0 36 4.5 76.5t16.5 92.5l143 668q1 7 1 10v6q0 17 -10.5 23.5t-23.5 6.5h-155l16 76h692l-16 -76h-156q-15 0 -31 -9.5t-21 -32.5l-156 -735q-9 -44 -13.5 -82.5t-4.5 -72.5q0 -132 70 -194t208 -62q162 0 265 88t147 293
l161 762q2 7 2 14q0 17 -10.5 24t-23.5 7h-157l16 76h491l-16 -76h-154q-15 0 -31 -9.5t-21 -32.5l-165 -780q-34 -158 -99.5 -262t-175 -154.5t-275.5 -50.5zM678 1452l259 277h255l149 -277h-122l-175 156l-236 -156h-130z" />
    <glyph glyph-name="Udieresis" unicode="&#xdc;" horiz-adv-x="1523" 
d="M739 -19q-157 0 -273.5 43t-180.5 133t-64 230q0 36 4.5 76.5t16.5 92.5l143 668q1 7 1 10v6q0 17 -10.5 23.5t-23.5 6.5h-155l16 76h692l-16 -76h-156q-15 0 -31 -9.5t-21 -32.5l-156 -735q-9 -44 -13.5 -82.5t-4.5 -72.5q0 -132 70 -194t208 -62q162 0 265 88t147 293
l161 762q2 7 2 14q0 17 -10.5 24t-23.5 7h-157l16 76h491l-16 -76h-154q-15 0 -31 -9.5t-21 -32.5l-165 -780q-34 -158 -99.5 -262t-175 -154.5t-275.5 -50.5zM1211 1468q-49 0 -85 36t-36 86t36 86t85 36q50 0 85.5 -36t35.5 -86t-35.5 -86t-85.5 -36zM824 1468
q-51 0 -86.5 36t-35.5 86t35.5 86t86.5 36q48 0 84 -36t36 -86t-36 -86t-84 -36z" />
    <glyph glyph-name="Yacute" unicode="&#xdd;" horiz-adv-x="1346" 
d="M211 0l16 76h154q16 0 32 9.5t20 32.5l105 494l-225 598q-10 27 -27 43.5t-55 16.5h-49l15 76h621l-16 -76h-139q-43 0 -50 -31q-2 -12 2.5 -29.5t8.5 -31.5l168 -486l387 474q18 23 29.5 40.5t14.5 32.5q7 31 -30 31h-128l15 76h437l-16 -76h-51q-34 0 -67.5 -16.5
t-67.5 -57.5l-479 -577l-106 -501q-5 -23 6 -32.5t26 -9.5h155l-16 -76h-690zM769 1452l229 278h301l-397 -278h-133z" />
    <glyph glyph-name="Thorn" unicode="&#xde;" horiz-adv-x="1328" 
d="M-60 0l16 76h154q16 0 31.5 8.5t19.5 31.5l236 1107q2 9 2 17q0 17 -10.5 23.5t-23.5 6.5h-155l16 76h690l-16 -76h-154q-15 0 -30.5 -8.5t-20.5 -31.5l-30 -137h205q119 0 211.5 -41t145.5 -118.5t53 -187.5q0 -154 -75 -255.5t-203 -151.5t-287 -50h-221l-35 -166
q-1 -5 -1.5 -9.5t-0.5 -7.5q0 -17 10.5 -23.5t23.5 -6.5h155l-16 -76h-690zM514 380h158q79 0 137 37.5t95.5 98t55.5 129.5t18 132q0 108 -51.5 165t-132.5 57h-149z" />
    <glyph glyph-name="germandbls" unicode="&#xdf;" horiz-adv-x="1187" 
d="M-256 -359l16 74q75 0 130.5 24t94 82t59.5 159l223 1040q30 141 92.5 238t166.5 148t259 51q181 0 275 -88.5t94 -227.5q0 -85 -29 -156t-88.5 -125.5t-150 -88t-212.5 -44.5v51q140 -5 229.5 -54.5t133 -128.5t43.5 -175q0 -141 -62.5 -237.5t-173 -145.5t-258.5 -49
q-58 0 -93.5 3t-64.5 9l19 83q23 -5 45 -7.5t42 -2.5q80 0 132.5 44.5t82.5 111.5t43 137t13 121q0 115 -52.5 175t-137.5 60h-42l16 86h44q76 0 127.5 43t83 108t45 133.5t13.5 121.5q0 81 -32 128t-95 47q-70 0 -111.5 -43t-70 -134t-59.5 -236l-209 -987
q-28 -136 -88 -212t-151.5 -106t-215.5 -30h-126z" />
    <glyph glyph-name="agrave" unicode="&#xe0;" horiz-adv-x="1245" 
d="M378 -17q-138 0 -224.5 91.5t-86.5 258.5q0 117 36.5 231.5t105 208.5t166 150t219.5 56q93 0 161 -44t97 -93l48 119h253l-150 -705q-3 -17 -5 -32.5t-2 -28.5q0 -57 37.5 -85.5t126.5 -28.5l-14 -67q-51 -14 -95 -21t-110 -7q-98 0 -155 45.5t-72 126.5
q-55 -74 -137.5 -124.5t-198.5 -50.5zM489 105q73 0 138.5 51.5t102.5 121.5l96 459q-17 47 -65 88.5t-111 41.5q-61 0 -110 -41.5t-85.5 -107t-60 -141.5t-35.5 -148t-12 -123q0 -99 37 -150t105 -51zM700 1106l-278 277h295l105 -277h-122z" />
    <glyph glyph-name="aacute" unicode="&#xe1;" horiz-adv-x="1245" 
d="M378 -17q-138 0 -224.5 91.5t-86.5 258.5q0 117 36.5 231.5t105 208.5t166 150t219.5 56q93 0 161 -44t97 -93l48 119h253l-150 -705q-3 -17 -5 -32.5t-2 -28.5q0 -57 37.5 -85.5t126.5 -28.5l-14 -67q-51 -14 -95 -21t-110 -7q-98 0 -155 45.5t-72 126.5
q-55 -74 -137.5 -124.5t-198.5 -50.5zM489 105q73 0 138.5 51.5t102.5 121.5l96 459q-17 47 -65 88.5t-111 41.5q-61 0 -110 -41.5t-85.5 -107t-60 -141.5t-35.5 -148t-12 -123q0 -99 37 -150t105 -51zM589 1106l228 277h302l-397 -277h-133z" />
    <glyph glyph-name="acircumflex" unicode="&#xe2;" horiz-adv-x="1245" 
d="M378 -17q-138 0 -224.5 91.5t-86.5 258.5q0 117 36.5 231.5t105 208.5t166 150t219.5 56q93 0 161 -44t97 -93l48 119h253l-150 -705q-3 -17 -5 -32.5t-2 -28.5q0 -57 37.5 -85.5t126.5 -28.5l-14 -67q-51 -14 -95 -21t-110 -7q-98 0 -155 45.5t-72 126.5
q-55 -74 -137.5 -124.5t-198.5 -50.5zM489 105q73 0 138.5 51.5t102.5 121.5l96 459q-17 47 -65 88.5t-111 41.5q-61 0 -110 -41.5t-85.5 -107t-60 -141.5t-35.5 -148t-12 -123q0 -99 37 -150t105 -51zM376 1106l259 277h255l149 -277h-122l-175 156l-235 -156h-131z" />
    <glyph glyph-name="atilde" unicode="&#xe3;" horiz-adv-x="1245" 
d="M378 -17q-138 0 -224.5 91.5t-86.5 258.5q0 117 36.5 231.5t105 208.5t166 150t219.5 56q93 0 161 -44t97 -93l48 119h253l-150 -705q-3 -17 -5 -32.5t-2 -28.5q0 -57 37.5 -85.5t126.5 -28.5l-14 -67q-51 -14 -95 -21t-110 -7q-98 0 -155 45.5t-72 126.5
q-55 -74 -137.5 -124.5t-198.5 -50.5zM489 105q73 0 138.5 51.5t102.5 121.5l96 459q-17 47 -65 88.5t-111 41.5q-61 0 -110 -41.5t-85.5 -107t-60 -141.5t-35.5 -148t-12 -123q0 -99 37 -150t105 -51zM367 1107q31 123 93.5 181.5t143.5 58.5q48 0 84 -14t66 -28
q34 -15 60.5 -27t56.5 -12q33 0 56.5 18t38.5 64h98q-34 -121 -87.5 -175.5t-135.5 -54.5q-45 0 -79 11.5t-69 28.5q-35 16 -63.5 27t-58.5 11q-36 0 -62.5 -20t-45.5 -69h-96z" />
    <glyph glyph-name="adieresis" unicode="&#xe4;" horiz-adv-x="1245" 
d="M378 -17q-138 0 -224.5 91.5t-86.5 258.5q0 117 36.5 231.5t105 208.5t166 150t219.5 56q93 0 161 -44t97 -93l48 119h253l-150 -705q-3 -17 -5 -32.5t-2 -28.5q0 -57 37.5 -85.5t126.5 -28.5l-14 -67q-51 -14 -95 -21t-110 -7q-98 0 -155 45.5t-72 126.5
q-55 -74 -137.5 -124.5t-198.5 -50.5zM489 105q73 0 138.5 51.5t102.5 121.5l96 459q-17 47 -65 88.5t-111 41.5q-61 0 -110 -41.5t-85.5 -107t-60 -141.5t-35.5 -148t-12 -123q0 -99 37 -150t105 -51zM924 1122q-48 0 -84 35t-36 86q0 50 36 85t84 35q50 0 86 -35t36 -85
q0 -51 -36 -86t-86 -35zM537 1122q-50 0 -86 35t-36 86q0 50 36 85t86 35q48 0 84.5 -35t36.5 -85q0 -51 -36.5 -86t-84.5 -35z" />
    <glyph glyph-name="aring" unicode="&#xe5;" horiz-adv-x="1245" 
d="M378 -17q-138 0 -224.5 91.5t-86.5 258.5q0 117 36.5 231.5t105 208.5t166 150t219.5 56q93 0 161 -44t97 -93l48 119h253l-150 -705q-3 -17 -5 -32.5t-2 -28.5q0 -57 37.5 -85.5t126.5 -28.5l-14 -67q-51 -14 -95 -21t-110 -7q-98 0 -155 45.5t-72 126.5
q-55 -74 -137.5 -124.5t-198.5 -50.5zM489 105q73 0 138.5 51.5t102.5 121.5l96 459q-17 47 -65 88.5t-111 41.5q-61 0 -110 -41.5t-85.5 -107t-60 -141.5t-35.5 -148t-12 -123q0 -99 37 -150t105 -51zM721 1079q-93 0 -153.5 55t-60.5 148q0 92 60.5 146.5t153.5 54.5
q94 0 154.5 -54.5t60.5 -146.5q0 -93 -60.5 -148t-154.5 -55zM721 1167q50 0 82 32.5t32 82.5t-32 81.5t-82 31.5q-48 0 -80 -31.5t-32 -81.5t32 -82.5t80 -32.5z" />
    <glyph glyph-name="ae" unicode="&#xe6;" horiz-adv-x="1802" 
d="M375 -17q-133 0 -220.5 91.5t-87.5 260.5q0 116 36.5 230t105 208t165 150t216.5 56q95 0 163.5 -44t99.5 -93l44 119h113v-465l-170 -496h-127l6 159q-36 -46 -84.5 -86t-113 -65t-146.5 -25zM490 105q49 0 94 25t82 63.5t61 79.5l97 469q-19 44 -66.5 84.5t-110.5 40.5
q-61 0 -109 -41.5t-84 -107.5t-59.5 -142.5t-35.5 -148t-12 -121.5q0 -99 37 -150t106 -51zM1218 -17q-145 0 -245.5 50.5t-152.5 142.5t-52 217q0 107 34.5 210.5t106 188.5t182 136t262.5 51q178 0 270 -63t92 -164q0 -67 -34.5 -126t-113.5 -105t-213 -72t-332 -26l18 40
q-2 -19 -4 -42t-2 -47q0 -118 47.5 -201.5t158.5 -83.5q95 0 158 58t89 177h199q-43 -160 -161.5 -250.5t-306.5 -90.5zM1042 506l-23 8q221 0 331 71.5t110 185.5q0 55 -31.5 87.5t-90.5 32.5q-71 0 -130 -48t-101.5 -134t-64.5 -203z" />
    <glyph glyph-name="ccedilla" unicode="&#xe7;" horiz-adv-x="1092" 
d="M515 -18q-125 0 -223.5 44.5t-155.5 135t-57 227.5q0 119 36.5 225t107 188.5t173 129.5t232.5 47q119 0 210 -38.5t141 -113.5t43 -184h-270q3 39 -2 83t-20.5 83t-43 63.5t-69.5 24.5q-60 0 -105.5 -41t-77 -106t-51 -139.5t-29 -144t-9.5 -116.5q0 -137 51.5 -207.5
t139.5 -70.5q100 0 165.5 71.5t84.5 202.5l195 1q-37 -184 -156 -274.5t-310 -90.5zM392 -376q-70 0 -119 11t-86 29l40 96q36 -18 78.5 -30t87.5 -12q37 0 61 14t30 48q7 39 -18 61.5t-101 37.5l-43 8l165 166l76 -49l-71 -73l-43 18q97 -1 152.5 -52t38.5 -133
q-16 -79 -86 -109.5t-162 -30.5z" />
    <glyph glyph-name="egrave" unicode="&#xe8;" horiz-adv-x="1112" 
d="M529 -17q-146 0 -246.5 50.5t-152 142.5t-51.5 217q0 107 34.5 210.5t106 188.5t182 136t262.5 51q178 0 269.5 -63t91.5 -164q0 -67 -34 -126t-113 -105t-212 -72t-331 -26l19 40q-3 -19 -4.5 -42t-1.5 -47q0 -118 46.5 -201.5t156.5 -83.5q94 0 157 58t89 177h200
q-44 -160 -162.5 -250.5t-305.5 -90.5zM355 506l-23 8q220 0 329.5 71.5t109.5 185.5q0 55 -31.5 87.5t-91.5 32.5q-69 0 -128 -48t-101 -134t-64 -203zM647 1106l-278 277h295l105 -277h-122z" />
    <glyph glyph-name="eacute" unicode="&#xe9;" horiz-adv-x="1112" 
d="M529 -17q-146 0 -246.5 50.5t-152 142.5t-51.5 217q0 107 34.5 210.5t106 188.5t182 136t262.5 51q178 0 269.5 -63t91.5 -164q0 -67 -34 -126t-113 -105t-212 -72t-331 -26l19 40q-3 -19 -4.5 -42t-1.5 -47q0 -118 46.5 -201.5t156.5 -83.5q94 0 157 58t89 177h200
q-44 -160 -162.5 -250.5t-305.5 -90.5zM355 506l-23 8q220 0 329.5 71.5t109.5 185.5q0 55 -31.5 87.5t-91.5 32.5q-69 0 -128 -48t-101 -134t-64 -203zM536 1106l228 277h302l-397 -277h-133z" />
    <glyph glyph-name="ecircumflex" unicode="&#xea;" horiz-adv-x="1112" 
d="M529 -17q-146 0 -246.5 50.5t-152 142.5t-51.5 217q0 107 34.5 210.5t106 188.5t182 136t262.5 51q178 0 269.5 -63t91.5 -164q0 -67 -34 -126t-113 -105t-212 -72t-331 -26l19 40q-3 -19 -4.5 -42t-1.5 -47q0 -118 46.5 -201.5t156.5 -83.5q94 0 157 58t89 177h200
q-44 -160 -162.5 -250.5t-305.5 -90.5zM355 506l-23 8q220 0 329.5 71.5t109.5 185.5q0 55 -31.5 87.5t-91.5 32.5q-69 0 -128 -48t-101 -134t-64 -203zM323 1106l259 277h255l149 -277h-122l-175 156l-235 -156h-131z" />
    <glyph glyph-name="edieresis" unicode="&#xeb;" horiz-adv-x="1112" 
d="M529 -17q-146 0 -246.5 50.5t-152 142.5t-51.5 217q0 107 34.5 210.5t106 188.5t182 136t262.5 51q178 0 269.5 -63t91.5 -164q0 -67 -34 -126t-113 -105t-212 -72t-331 -26l19 40q-3 -19 -4.5 -42t-1.5 -47q0 -118 46.5 -201.5t156.5 -83.5q94 0 157 58t89 177h200
q-44 -160 -162.5 -250.5t-305.5 -90.5zM355 506l-23 8q220 0 329.5 71.5t109.5 185.5q0 55 -31.5 87.5t-91.5 32.5q-69 0 -128 -48t-101 -134t-64 -203zM870 1122q-48 0 -84 35t-36 86q0 50 36 85t84 35q50 0 86 -35t36 -85q0 -51 -36 -86t-86 -35zM483 1122q-50 0 -86 35
t-36 86q0 50 36 85t86 35q48 0 84.5 -35t36.5 -85q0 -51 -36.5 -86t-84.5 -35z" />
    <glyph glyph-name="igrave" unicode="&#xec;" horiz-adv-x="668" 
d="M337 -11q-89 0 -149.5 44t-60.5 150q0 23 3.5 49.5t9.5 56.5l95 420q5 22 8 41t3 34q0 35 -13.5 54t-42.5 25l-75 16l14 66l441 23l-156 -692q-5 -24 -8 -44.5t-3 -37.5q0 -63 38 -88t120 -25l-15 -68q-54 -10 -102.5 -17t-106.5 -7zM428 1106l-278 277h295l105 -277
h-122z" />
    <glyph glyph-name="iacute" unicode="&#xed;" horiz-adv-x="668" 
d="M337 -11q-89 0 -149.5 44t-60.5 150q0 23 3.5 49.5t9.5 56.5l95 420q5 22 8 41t3 34q0 35 -13.5 54t-42.5 25l-75 16l14 66l441 23l-156 -692q-5 -24 -8 -44.5t-3 -37.5q0 -63 38 -88t120 -25l-15 -68q-54 -10 -102.5 -17t-106.5 -7zM317 1106l228 277h302l-397 -277
h-133z" />
    <glyph glyph-name="icircumflex" unicode="&#xee;" horiz-adv-x="668" 
d="M337 -11q-89 0 -149.5 44t-60.5 150q0 23 3.5 49.5t9.5 56.5l95 420q5 22 8 41t3 34q0 35 -13.5 54t-42.5 25l-75 16l14 66l441 23l-156 -692q-5 -24 -8 -44.5t-3 -37.5q0 -63 38 -88t120 -25l-15 -68q-54 -10 -102.5 -17t-106.5 -7zM104 1106l259 277h255l149 -277h-122
l-175 156l-235 -156h-131z" />
    <glyph glyph-name="idieresis" unicode="&#xef;" horiz-adv-x="668" 
d="M337 -11q-89 0 -149.5 44t-60.5 150q0 23 3.5 49.5t9.5 56.5l95 420q5 22 8 41t3 34q0 35 -13.5 54t-42.5 25l-75 16l14 66l441 23l-156 -692q-5 -24 -8 -44.5t-3 -37.5q0 -63 38 -88t120 -25l-15 -68q-54 -10 -102.5 -17t-106.5 -7zM636 1122q-49 0 -85 35t-36 86
q0 50 36 85t85 35q50 0 86 -35t36 -85q0 -51 -36 -86t-86 -35zM295 1122q-50 0 -86.5 35t-36.5 86q0 50 36.5 85t86.5 35q49 0 84 -35t35 -85q0 -51 -35 -86t-84 -35z" />
    <glyph glyph-name="eth" unicode="&#xf0;" horiz-adv-x="1173" 
d="M491 -17q-122 0 -215.5 48.5t-146 139.5t-52.5 217q0 116 39 218.5t111 180.5t172.5 122t222.5 44q81 0 149.5 -22.5t117 -62.5t69.5 -93l-106 -25q4 16 7 38t3 48q0 74 -22.5 156t-76.5 158t-147.5 133t-235.5 81l18 82q239 -33 394.5 -132.5t232.5 -249.5t77 -336
q0 -93 -18 -196t-59 -200.5t-111 -176.5t-174.5 -125.5t-248.5 -46.5zM510 67q62 0 110 44t83 114t57.5 149.5t33 153.5t10.5 124q0 96 -36.5 156t-122.5 60q-63 0 -112.5 -39t-85.5 -101t-59.5 -134.5t-34.5 -142.5t-11 -122q0 -110 41 -186t127 -76zM421 1072l18 88
l695 251l-18 -88z" />
    <glyph glyph-name="ntilde" unicode="&#xf1;" horiz-adv-x="1266" 
d="M953 -16q-60 0 -107.5 15.5t-75.5 54t-28 106.5q0 22 4 51.5t10 55.5l79 373q4 18 5.5 33.5t1.5 29.5q0 48 -22 79t-71 31q-45 0 -88.5 -27t-83.5 -73.5t-76 -107.5l-133 -605h-279l156 709q5 23 7.5 42.5t2.5 34.5q0 34 -13 52.5t-41 24.5l-75 16l14 66l415 23l-36 -242
q46 69 101.5 125t124.5 88t152 32q111 0 168.5 -59t57.5 -173q0 -28 -4 -61.5t-12 -69.5l-78 -359q-3 -16 -5 -30.5t-2 -27.5q0 -56 36.5 -84t123.5 -28l-15 -67q-49 -14 -101 -21t-113 -7zM411 1107q31 123 93.5 181.5t143.5 58.5q48 0 84 -14t66 -28q34 -15 60.5 -27
t56.5 -12q33 0 56.5 18t38.5 64h98q-34 -121 -87.5 -175.5t-135.5 -54.5q-45 0 -79 11.5t-69 28.5q-35 16 -63.5 27t-58.5 11q-36 0 -62.5 -20t-45.5 -69h-96z" />
    <glyph glyph-name="ograve" unicode="&#xf2;" horiz-adv-x="1136" 
d="M493 -16q-198 0 -307 112t-109 291q0 101 32.5 205.5t101 192.5t177 142.5t260.5 54.5q196 0 302.5 -114t106.5 -296q0 -110 -34.5 -215t-104.5 -189.5t-175.5 -134t-249.5 -49.5zM504 67q65 0 113 44.5t81 115.5t53.5 151.5t29.5 154.5t9 123q0 108 -37 175t-116 67
q-65 0 -113 -42t-81.5 -109t-54 -144.5t-30 -150.5t-9.5 -124q0 -74 16.5 -133t51 -93.5t87.5 -34.5zM665 1092l-278 277h295l105 -277h-122z" />
    <glyph glyph-name="oacute" unicode="&#xf3;" horiz-adv-x="1136" 
d="M493 -16q-198 0 -307 112t-109 291q0 101 32.5 205.5t101 192.5t177 142.5t260.5 54.5q196 0 302.5 -114t106.5 -296q0 -110 -34.5 -215t-104.5 -189.5t-175.5 -134t-249.5 -49.5zM504 67q65 0 113 44.5t81 115.5t53.5 151.5t29.5 154.5t9 123q0 108 -37 175t-116 67
q-65 0 -113 -42t-81.5 -109t-54 -144.5t-30 -150.5t-9.5 -124q0 -74 16.5 -133t51 -93.5t87.5 -34.5zM554 1092l228 277h302l-397 -277h-133z" />
    <glyph glyph-name="ocircumflex" unicode="&#xf4;" horiz-adv-x="1136" 
d="M493 -16q-198 0 -307 112t-109 291q0 101 32.5 205.5t101 192.5t177 142.5t260.5 54.5q196 0 302.5 -114t106.5 -296q0 -110 -34.5 -215t-104.5 -189.5t-175.5 -134t-249.5 -49.5zM504 67q65 0 113 44.5t81 115.5t53.5 151.5t29.5 154.5t9 123q0 108 -37 175t-116 67
q-65 0 -113 -42t-81.5 -109t-54 -144.5t-30 -150.5t-9.5 -124q0 -74 16.5 -133t51 -93.5t87.5 -34.5zM341 1092l259 277h255l149 -277h-122l-175 156l-235 -156h-131z" />
    <glyph glyph-name="otilde" unicode="&#xf5;" horiz-adv-x="1136" 
d="M493 -16q-198 0 -307 112t-109 291q0 101 32.5 205.5t101 192.5t177 142.5t260.5 54.5q196 0 302.5 -114t106.5 -296q0 -110 -34.5 -215t-104.5 -189.5t-175.5 -134t-249.5 -49.5zM504 67q65 0 113 44.5t81 115.5t53.5 151.5t29.5 154.5t9 123q0 108 -37 175t-116 67
q-65 0 -113 -42t-81.5 -109t-54 -144.5t-30 -150.5t-9.5 -124q0 -74 16.5 -133t51 -93.5t87.5 -34.5zM331 1093q31 123 93.5 181.5t143.5 58.5q48 0 84 -14t66 -28q34 -15 60.5 -27t56.5 -12q33 0 56.5 18t38.5 64h98q-34 -121 -87.5 -175.5t-135.5 -54.5q-45 0 -79 11.5
t-69 28.5q-35 16 -63.5 27t-58.5 11q-36 0 -62.5 -20t-45.5 -69h-96z" />
    <glyph glyph-name="odieresis" unicode="&#xf6;" horiz-adv-x="1136" 
d="M493 -16q-198 0 -307 112t-109 291q0 101 32.5 205.5t101 192.5t177 142.5t260.5 54.5q196 0 302.5 -114t106.5 -296q0 -110 -34.5 -215t-104.5 -189.5t-175.5 -134t-249.5 -49.5zM504 67q65 0 113 44.5t81 115.5t53.5 151.5t29.5 154.5t9 123q0 108 -37 175t-116 67
q-65 0 -113 -42t-81.5 -109t-54 -144.5t-30 -150.5t-9.5 -124q0 -74 16.5 -133t51 -93.5t87.5 -34.5zM889 1108q-48 0 -84 35t-36 86q0 50 36 85t84 35q50 0 86 -35t36 -85q0 -51 -36 -86t-86 -35zM502 1108q-50 0 -86 35t-36 86q0 50 36 85t86 35q48 0 84.5 -35t36.5 -85
q0 -51 -36.5 -86t-84.5 -35z" />
    <glyph glyph-name="divide" unicode="&#xf7;" 
d="M142 612v123h951v-123h-951zM620 223q-52 0 -83.5 32.5t-31.5 77.5q0 48 31.5 77.5t83.5 29.5q50 0 81 -29.5t31 -77.5q0 -45 -31 -77.5t-81 -32.5zM620 906q-52 0 -83.5 31.5t-31.5 76.5q0 49 31.5 79.5t83.5 30.5q50 0 81 -30.5t31 -79.5q0 -45 -31 -76.5t-81 -31.5z
" />
    <glyph glyph-name="oslash" unicode="&#xf8;" horiz-adv-x="1136" 
d="M493 -16q-198 0 -306.5 112t-108.5 292q0 101 32 204.5t101 191.5t177 141.5t261 53.5q196 0 302.5 -112.5t106.5 -294.5q0 -110 -34.5 -215t-104.5 -189t-176 -134t-250 -50zM505 67q65 0 114 44t83 113.5t55 149.5t30 155t9 127q0 109 -38 174.5t-121 65.5
q-66 0 -115 -41.5t-83.5 -107.5t-55.5 -143t-30.5 -149.5t-9.5 -125.5q0 -75 17 -134t52.5 -93.5t92.5 -34.5zM171 -59l-60 52l856 1026l60 -50z" />
    <glyph glyph-name="ugrave" unicode="&#xf9;" horiz-adv-x="1281" 
d="M364 -16q-111 0 -168.5 59t-57.5 172q0 29 4.5 62.5t11.5 69.5l80 362q5 23 8 42.5t3 34.5q0 34 -13.5 52.5t-41.5 24.5l-75 16l14 66l441 23l-144 -656q-3 -15 -4.5 -28.5t-1.5 -26.5q0 -52 24.5 -83.5t69.5 -31.5t88.5 26.5t83.5 73.5t74 106l132 594l289 17l-156 -698
q-5 -23 -8 -42t-3 -36q0 -50 35.5 -71.5t125.5 -21.5l-14 -67q-53 -15 -108 -24.5t-117 -9.5q-57 0 -102 17t-70 57.5t-25 113.5q0 13 0.5 27.5t3.5 29.5q-43 -63 -98 -120.5t-125 -93.5t-156 -36zM735 1106l-278 277h295l105 -277h-122z" />
    <glyph glyph-name="uacute" unicode="&#xfa;" horiz-adv-x="1281" 
d="M364 -16q-111 0 -168.5 59t-57.5 172q0 29 4.5 62.5t11.5 69.5l80 362q5 23 8 42.5t3 34.5q0 34 -13.5 52.5t-41.5 24.5l-75 16l14 66l441 23l-144 -656q-3 -15 -4.5 -28.5t-1.5 -26.5q0 -52 24.5 -83.5t69.5 -31.5t88.5 26.5t83.5 73.5t74 106l132 594l289 17l-156 -698
q-5 -23 -8 -42t-3 -36q0 -50 35.5 -71.5t125.5 -21.5l-14 -67q-53 -15 -108 -24.5t-117 -9.5q-57 0 -102 17t-70 57.5t-25 113.5q0 13 0.5 27.5t3.5 29.5q-43 -63 -98 -120.5t-125 -93.5t-156 -36zM624 1106l228 277h302l-397 -277h-133z" />
    <glyph glyph-name="ucircumflex" unicode="&#xfb;" horiz-adv-x="1281" 
d="M364 -16q-111 0 -168.5 59t-57.5 172q0 29 4.5 62.5t11.5 69.5l80 362q5 23 8 42.5t3 34.5q0 34 -13.5 52.5t-41.5 24.5l-75 16l14 66l441 23l-144 -656q-3 -15 -4.5 -28.5t-1.5 -26.5q0 -52 24.5 -83.5t69.5 -31.5t88.5 26.5t83.5 73.5t74 106l132 594l289 17l-156 -698
q-5 -23 -8 -42t-3 -36q0 -50 35.5 -71.5t125.5 -21.5l-14 -67q-53 -15 -108 -24.5t-117 -9.5q-57 0 -102 17t-70 57.5t-25 113.5q0 13 0.5 27.5t3.5 29.5q-43 -63 -98 -120.5t-125 -93.5t-156 -36zM411 1106l259 277h255l149 -277h-122l-175 156l-235 -156h-131z" />
    <glyph glyph-name="udieresis" unicode="&#xfc;" horiz-adv-x="1281" 
d="M364 -16q-111 0 -168.5 59t-57.5 172q0 29 4.5 62.5t11.5 69.5l80 362q5 23 8 42.5t3 34.5q0 34 -13.5 52.5t-41.5 24.5l-75 16l14 66l441 23l-144 -656q-3 -15 -4.5 -28.5t-1.5 -26.5q0 -52 24.5 -83.5t69.5 -31.5t88.5 26.5t83.5 73.5t74 106l132 594l289 17l-156 -698
q-5 -23 -8 -42t-3 -36q0 -50 35.5 -71.5t125.5 -21.5l-14 -67q-53 -15 -108 -24.5t-117 -9.5q-57 0 -102 17t-70 57.5t-25 113.5q0 13 0.5 27.5t3.5 29.5q-43 -63 -98 -120.5t-125 -93.5t-156 -36zM959 1122q-48 0 -84 35t-36 86q0 50 36 85t84 35q50 0 86 -35t36 -85
q0 -51 -36 -86t-86 -35zM572 1122q-50 0 -86 35t-36 86q0 50 36 85t86 35q48 0 84.5 -35t36.5 -85q0 -51 -36.5 -86t-84.5 -35z" />
    <glyph glyph-name="yacute" unicode="&#xfd;" horiz-adv-x="1008" 
d="M-220 -366l18 78q102 0 189 30.5t164 83.5t149 121l31 29l-153 748q-9 47 -19 75t-24 43.5t-38 20.5l-66 16l14 66l358 21l149 -800q119 137 177.5 289t62.5 321q0 42 -3.5 87.5t-10.5 93.5h242q-2 -121 -45 -243t-114 -240t-156.5 -230t-170.5 -213
q-88 -105 -156.5 -180t-135 -123t-145.5 -71t-188 -23h-129zM476 1106l228 277h302l-397 -277h-133z" />
    <glyph glyph-name="thorn" unicode="&#xfe;" horiz-adv-x="1232" 
d="M653 -18q-98 0 -166 40.5t-102 87.5l-99 -468h-283l329 1550q5 22 7.5 41t2.5 34q0 34 -13 53t-42 25l-75 16l14 66l441 23l-133 -621q56 64 131.5 106t180.5 42q141 0 228 -93.5t87 -267.5q0 -74 -17 -159.5t-53 -169t-95 -152.5t-144 -111t-199 -42zM589 95
q62 0 109.5 41.5t82.5 108t58.5 142.5t34.5 147t11 120q0 99 -37 149.5t-105 50.5q-72 0 -134.5 -44t-98.5 -97l-103 -493q19 -41 67.5 -83t114.5 -42z" />
    <glyph glyph-name="ydieresis" unicode="&#xff;" horiz-adv-x="1008" 
d="M-220 -366l18 78q102 0 189 30.5t164 83.5t149 121l31 29l-153 748q-9 47 -19 75t-24 43.5t-38 20.5l-66 16l14 66l358 21l149 -800q119 137 177.5 289t62.5 321q0 42 -3.5 87.5t-10.5 93.5h242q-2 -121 -45 -243t-114 -240t-156.5 -230t-170.5 -213
q-88 -105 -156.5 -180t-135 -123t-145.5 -71t-188 -23h-129zM810 1122q-48 0 -84 35t-36 86q0 50 36 85t84 35q50 0 86 -35t36 -85q0 -51 -36 -86t-86 -35zM423 1122q-50 0 -86 35t-36 86q0 50 36 85t86 35q48 0 84.5 -35t36.5 -85q0 -51 -36.5 -86t-84.5 -35z" />
    <glyph glyph-name="Amacron" unicode="&#x100;" horiz-adv-x="1381" 
d="M-109 0l16 76h107q18 0 33 11.5t36 46.5l719 1212h151l193 -1214q6 -34 17.5 -45t37.5 -11h99l-16 -76h-629l15 76h154q16 0 30.5 11.5t10.5 47.5l-134 970l39 29l-580 -995q-23 -38 -13 -50.5t27 -12.5h165l-16 -76h-462zM336 454l11 83h697l-11 -83h-697zM626 1513
l24 116h566l-24 -116h-566z" />
    <glyph glyph-name="amacron" unicode="&#x101;" horiz-adv-x="1245" 
d="M378 -17q-138 0 -224.5 91.5t-86.5 258.5q0 117 36.5 231.5t105 208.5t166 150t219.5 56q93 0 161 -44t97 -93l48 119h253l-150 -705q-3 -17 -5 -32.5t-2 -28.5q0 -57 37.5 -85.5t126.5 -28.5l-14 -67q-51 -14 -95 -21t-110 -7q-98 0 -155 45.5t-72 126.5
q-55 -74 -137.5 -124.5t-198.5 -50.5zM489 105q73 0 138.5 51.5t102.5 121.5l96 459q-17 47 -65 88.5t-111 41.5q-61 0 -110 -41.5t-85.5 -107t-60 -141.5t-35.5 -148t-12 -123q0 -99 37 -150t105 -51zM445 1166l25 117h565l-24 -117h-566z" />
    <glyph glyph-name="Abreve" unicode="&#x102;" horiz-adv-x="1381" 
d="M-109 0l16 76h107q18 0 33 11.5t36 46.5l719 1212h151l193 -1214q6 -34 17.5 -45t37.5 -11h99l-16 -76h-629l15 76h154q16 0 30.5 11.5t10.5 47.5l-134 970l39 29l-580 -995q-23 -38 -13 -50.5t27 -12.5h165l-16 -76h-462zM336 454l11 83h697l-11 -83h-697zM896 1452
q-131 0 -202.5 73t-58.5 206h129q-3 -53 17.5 -81.5t55.5 -39t73 -10.5q39 0 79 10.5t73.5 39.5t51.5 81h127q-40 -132 -127.5 -205.5t-217.5 -73.5z" />
    <glyph glyph-name="abreve" unicode="&#x103;" horiz-adv-x="1245" 
d="M378 -17q-138 0 -224.5 91.5t-86.5 258.5q0 117 36.5 231.5t105 208.5t166 150t219.5 56q93 0 161 -44t97 -93l48 119h253l-150 -705q-3 -17 -5 -32.5t-2 -28.5q0 -57 37.5 -85.5t126.5 -28.5l-14 -67q-51 -14 -95 -21t-110 -7q-98 0 -155 45.5t-72 126.5
q-55 -74 -137.5 -124.5t-198.5 -50.5zM489 105q73 0 138.5 51.5t102.5 121.5l96 459q-17 47 -65 88.5t-111 41.5q-61 0 -110 -41.5t-85.5 -107t-60 -141.5t-35.5 -148t-12 -123q0 -99 37 -150t105 -51zM731 1104q-144 0 -212 75.5t-57 204.5h128q-3 -53 19 -82t58.5 -40
t76.5 -11q60 0 121.5 27t89.5 106h126q-37 -128 -124.5 -204t-225.5 -76z" />
    <glyph glyph-name="Aogonek" unicode="&#x104;" horiz-adv-x="1381" 
d="M-109 0l16 76h107q18 0 33 11.5t36 46.5l719 1212h151l193 -1214q6 -34 17.5 -45t37.5 -11h99l-16 -76h-629l15 76h154q16 0 30.5 11.5t10.5 47.5l-134 970l39 29l-580 -995q-23 -38 -13 -50.5t27 -12.5h165l-16 -76h-462zM336 454l11 83h697l-11 -83h-697zM921 -373
q-89 0 -138.5 44t-32.5 123q18 83 109.5 151t223.5 89l48 -30q-90 -39 -140 -90.5t-62 -109.5q-9 -41 6 -67.5t67 -26.5q22 0 53.5 6.5t65.5 20.5l-15 -72q-39 -17 -85 -27.5t-100 -10.5z" />
    <glyph glyph-name="aogonek" unicode="&#x105;" horiz-adv-x="1245" 
d="M378 -17q-138 0 -224.5 91.5t-86.5 258.5q0 117 36.5 231.5t105 208.5t166 150t219.5 56q93 0 161 -44t97 -93l48 119h253l-150 -705q-3 -17 -5 -32.5t-2 -28.5q0 -57 37.5 -85.5t126.5 -28.5l-14 -67q-51 -14 -95 -21t-110 -7q-98 0 -155 45.5t-72 126.5
q-55 -74 -137.5 -124.5t-198.5 -50.5zM489 105q73 0 138.5 51.5t102.5 121.5l96 459q-17 47 -65 88.5t-111 41.5q-61 0 -110 -41.5t-85.5 -107t-60 -141.5t-35.5 -148t-12 -123q0 -99 37 -150t105 -51zM782 -369q-89 0 -138.5 44t-32.5 123q18 83 109.5 151t223.5 89l48 -30
q-90 -39 -140 -90.5t-62 -109.5q-9 -41 6 -67.5t67 -26.5q22 0 53.5 6.5t65.5 20.5l-15 -72q-39 -17 -85 -27.5t-100 -10.5z" />
    <glyph glyph-name="Cacute" unicode="&#x106;" horiz-adv-x="1390" 
d="M707 -18q-179 0 -309 66.5t-199.5 193t-69.5 308.5q0 163 49 309.5t146.5 260.5t242.5 179t338 65q141 0 238.5 -39.5t138.5 -81.5l23 103h97l-71 -426h-144q-13 115 -51 194.5t-98 122t-142 42.5q-96 0 -170.5 -54t-128.5 -142t-89 -192.5t-51.5 -207.5t-16.5 -185
q0 -184 75 -299t235 -115q141 0 246.5 96t141.5 297h158q-49 -252 -198 -373.5t-391 -121.5zM800 1453l229 278h301l-397 -278h-133z" />
    <glyph glyph-name="cacute" unicode="&#x107;" horiz-adv-x="1092" 
d="M515 -18q-125 0 -223.5 44.5t-155.5 135t-57 227.5q0 119 36.5 225t107 188.5t173 129.5t232.5 47q119 0 210 -38.5t141 -113.5t43 -184h-270q3 39 -2 83t-20.5 83t-43 63.5t-69.5 24.5q-60 0 -105.5 -41t-77 -106t-51 -139.5t-29 -144t-9.5 -116.5q0 -137 51.5 -207.5
t139.5 -70.5q100 0 165.5 71.5t84.5 202.5l195 1q-37 -184 -156 -274.5t-310 -90.5zM523 1106l228 277h302l-397 -277h-133z" />
    <glyph glyph-name="Ccircumflex" unicode="&#x108;" horiz-adv-x="1390" 
d="M707 -18q-179 0 -309 66.5t-199.5 193t-69.5 308.5q0 163 49 309.5t146.5 260.5t242.5 179t338 65q141 0 238.5 -39.5t138.5 -81.5l23 103h97l-71 -426h-144q-13 115 -51 194.5t-98 122t-142 42.5q-96 0 -170.5 -54t-128.5 -142t-89 -192.5t-51.5 -207.5t-16.5 -185
q0 -184 75 -299t235 -115q141 0 246.5 96t141.5 297h158q-49 -252 -198 -373.5t-391 -121.5zM591 1453l259 277h255l149 -277h-122l-175 156l-236 -156h-130z" />
    <glyph glyph-name="ccircumflex" unicode="&#x109;" horiz-adv-x="1092" 
d="M515 -18q-125 0 -223.5 44.5t-155.5 135t-57 227.5q0 119 36.5 225t107 188.5t173 129.5t232.5 47q119 0 210 -38.5t141 -113.5t43 -184h-270q3 39 -2 83t-20.5 83t-43 63.5t-69.5 24.5q-60 0 -105.5 -41t-77 -106t-51 -139.5t-29 -144t-9.5 -116.5q0 -137 51.5 -207.5
t139.5 -70.5q100 0 165.5 71.5t84.5 202.5l195 1q-37 -184 -156 -274.5t-310 -90.5zM310 1106l259 277h255l149 -277h-122l-175 156l-235 -156h-131z" />
    <glyph glyph-name="Cdotaccent" unicode="&#x10a;" horiz-adv-x="1390" 
d="M707 -18q-179 0 -309 66.5t-199.5 193t-69.5 308.5q0 163 49 309.5t146.5 260.5t242.5 179t338 65q141 0 238.5 -39.5t138.5 -81.5l23 103h97l-71 -426h-144q-13 115 -51 194.5t-98 122t-142 42.5q-96 0 -170.5 -54t-128.5 -142t-89 -192.5t-51.5 -207.5t-16.5 -185
q0 -184 75 -299t235 -115q141 0 246.5 96t141.5 297h158q-49 -252 -198 -373.5t-391 -121.5zM924 1467q-76 0 -116 39.5t-40 96.5q0 54 40 93t116 39t116 -39t40 -93q0 -57 -40 -96.5t-116 -39.5z" />
    <glyph glyph-name="cdotaccent" unicode="&#x10b;" horiz-adv-x="1092" 
d="M515 -18q-125 0 -223.5 44.5t-155.5 135t-57 227.5q0 119 36.5 225t107 188.5t173 129.5t232.5 47q119 0 210 -38.5t141 -113.5t43 -184h-270q3 39 -2 83t-20.5 83t-43 63.5t-69.5 24.5q-60 0 -105.5 -41t-77 -106t-51 -139.5t-29 -144t-9.5 -116.5q0 -137 51.5 -207.5
t139.5 -70.5q100 0 165.5 71.5t84.5 202.5l195 1q-37 -184 -156 -274.5t-310 -90.5zM669 1100q-76 0 -116 39.5t-40 96.5q0 54 40 93.5t116 39.5t116 -39.5t40 -93.5q0 -57 -40 -96.5t-116 -39.5z" />
    <glyph glyph-name="Ccaron" unicode="&#x10c;" horiz-adv-x="1390" 
d="M707 -18q-179 0 -309 66.5t-199.5 193t-69.5 308.5q0 163 49 309.5t146.5 260.5t242.5 179t338 65q141 0 238.5 -39.5t138.5 -81.5l23 103h97l-71 -426h-144q-13 115 -51 194.5t-98 122t-142 42.5q-96 0 -170.5 -54t-128.5 -142t-89 -192.5t-51.5 -207.5t-16.5 -185
q0 -184 75 -299t235 -115q141 0 246.5 96t141.5 297h158q-49 -252 -198 -373.5t-391 -121.5zM783 1453l-142 278h122l173 -157l245 157h123l-266 -278h-255z" />
    <glyph glyph-name="ccaron" unicode="&#x10d;" horiz-adv-x="1092" 
d="M515 -18q-125 0 -223.5 44.5t-155.5 135t-57 227.5q0 119 36.5 225t107 188.5t173 129.5t232.5 47q119 0 210 -38.5t141 -113.5t43 -184h-270q3 39 -2 83t-20.5 83t-43 63.5t-69.5 24.5q-60 0 -105.5 -41t-77 -106t-51 -139.5t-29 -144t-9.5 -116.5q0 -137 51.5 -207.5
t139.5 -70.5q100 0 165.5 71.5t84.5 202.5l195 1q-37 -184 -156 -274.5t-310 -90.5zM517 1106l-142 277h123l172 -157l246 157h123l-267 -277h-255z" />
    <glyph glyph-name="Dcaron" unicode="&#x10e;" horiz-adv-x="1536" 
d="M-60 0l16 76h155q15 0 30.5 8.5t20.5 31.5l236 1110q1 5 1.5 9t0.5 7q0 15 -11 21.5t-24 6.5h-154l16 76h638q191 0 329.5 -72t213.5 -201.5t75 -303.5q0 -127 -31.5 -242t-96 -211.5t-162.5 -167t-230.5 -109.5t-301.5 -39h-721zM451 84h168q135 0 231 49.5t158.5 130.5
t97.5 178.5t49.5 195.5t14.5 179q0 202 -86.5 323.5t-254.5 121.5h-128zM757 1452l-142 278h122l173 -157l245 157h123l-266 -278h-255z" />
    <glyph glyph-name="dcaron" unicode="&#x10f;" horiz-adv-x="1245" 
d="M378 -17q-138 0 -224.5 91.5t-86.5 258.5q0 116 36 230.5t104.5 208.5t165 150.5t217.5 56.5q95 0 163.5 -44t98.5 -93l72 346q5 22 7.5 39.5t2.5 31.5q0 36 -14 56t-43 26l-76 16l15 66l440 23l-253 -1190q-3 -17 -5 -32.5t-2 -28.5q0 -57 37.5 -85.5t126.5 -28.5
l-14 -67q-51 -14 -95 -21t-110 -7q-98 0 -155 45.5t-72 126.5q-55 -74 -137.5 -124.5t-198.5 -50.5zM489 105q73 0 138.5 51.5t102.5 121.5l96 459q-17 47 -65 88.5t-111 41.5q-61 0 -110 -41.5t-85.5 -107t-60 -141.5t-35.5 -148t-12 -123q0 -99 37 -150t105 -51zM1241 982
l-6 58q63 17 106.5 53.5t61.5 86.5l12 -10q-61 0 -89 39t-19 87q12 52 48.5 77.5t92.5 25.5q68 0 100.5 -44t18.5 -113q-14 -67 -64 -118t-119 -87t-143 -55z" />
    <glyph glyph-name="Dcroat" unicode="&#x110;" horiz-adv-x="1536" 
d="M90 628l20 96h720l-21 -96h-719zM-60 0l16 76h155q15 0 30.5 8.5t20.5 31.5l236 1110q1 5 1.5 9t0.5 7q0 15 -11 21.5t-24 6.5h-154l16 76h638q191 0 329.5 -72t213.5 -201.5t75 -303.5q0 -127 -31.5 -242t-96 -211.5t-162.5 -167t-230.5 -109.5t-301.5 -39h-721zM451 84
h168q135 0 231 49.5t158.5 130.5t97.5 178.5t49.5 195.5t14.5 179q0 202 -86.5 323.5t-254.5 121.5h-128z" />
    <glyph glyph-name="dcroat" unicode="&#x111;" horiz-adv-x="1245" 
d="M647 1124l19 85h704l-18 -85h-705zM378 -17q-138 0 -224.5 91.5t-86.5 258.5q0 116 36 230.5t104.5 208.5t165 150.5t217.5 56.5q95 0 163.5 -44t98.5 -93l72 346q5 22 7.5 39.5t2.5 31.5q0 36 -14 56t-43 26l-76 16l15 66l440 23l-253 -1190q-3 -17 -5 -32.5t-2 -28.5
q0 -57 37.5 -85.5t126.5 -28.5l-14 -67q-51 -14 -95 -21t-110 -7q-98 0 -155 45.5t-72 126.5q-55 -74 -137.5 -124.5t-198.5 -50.5zM489 105q73 0 138.5 51.5t102.5 121.5l96 459q-17 47 -65 88.5t-111 41.5q-61 0 -110 -41.5t-85.5 -107t-60 -141.5t-35.5 -148t-12 -123
q0 -99 37 -150t105 -51z" />
    <glyph glyph-name="Emacron" unicode="&#x112;" horiz-adv-x="1218" 
d="M-60 0l16 76h154q16 0 31.5 8.5t20.5 32.5l237 1114q5 22 -7 30.5t-27 8.5h-155l16 76h1065l-61 -361h-109q6 65 -6 128.5t-42.5 105.5t-80.5 42h-290l-114 -534h486l-18 -85h-487l-119 -558h303q58 0 102 31t77 79t58 103.5t44 103.5h109l-105 -401h-1098zM545 1513
l24 116h566l-24 -116h-566z" />
    <glyph glyph-name="emacron" unicode="&#x113;" horiz-adv-x="1112" 
d="M529 -17q-146 0 -246.5 50.5t-152 142.5t-51.5 217q0 107 34.5 210.5t106 188.5t182 136t262.5 51q178 0 269.5 -63t91.5 -164q0 -67 -34 -126t-113 -105t-212 -72t-331 -26l19 40q-3 -19 -4.5 -42t-1.5 -47q0 -118 46.5 -201.5t156.5 -83.5q94 0 157 58t89 177h200
q-44 -160 -162.5 -250.5t-305.5 -90.5zM355 506l-23 8q220 0 329.5 71.5t109.5 185.5q0 55 -31.5 87.5t-91.5 32.5q-69 0 -128 -48t-101 -134t-64 -203zM391 1166l25 117h565l-24 -117h-566z" />
    <glyph glyph-name="Ebreve" unicode="&#x114;" horiz-adv-x="1218" 
d="M-60 0l16 76h154q16 0 31.5 8.5t20.5 32.5l237 1114q5 22 -7 30.5t-27 8.5h-155l16 76h1065l-61 -361h-109q6 65 -6 128.5t-42.5 105.5t-80.5 42h-290l-114 -534h486l-18 -85h-487l-119 -558h303q58 0 102 31t77 79t58 103.5t44 103.5h109l-105 -401h-1098zM815 1452
q-131 0 -202.5 73t-58.5 206h129q-3 -53 17.5 -81.5t55.5 -39t73 -10.5q39 0 79 10.5t73.5 39.5t51.5 81h127q-40 -132 -127.5 -205.5t-217.5 -73.5z" />
    <glyph glyph-name="ebreve" unicode="&#x115;" horiz-adv-x="1112" 
d="M529 -17q-146 0 -246.5 50.5t-152 142.5t-51.5 217q0 107 34.5 210.5t106 188.5t182 136t262.5 51q178 0 269.5 -63t91.5 -164q0 -67 -34 -126t-113 -105t-212 -72t-331 -26l19 40q-3 -19 -4.5 -42t-1.5 -47q0 -118 46.5 -201.5t156.5 -83.5q94 0 157 58t89 177h200
q-44 -160 -162.5 -250.5t-305.5 -90.5zM355 506l-23 8q220 0 329.5 71.5t109.5 185.5q0 55 -31.5 87.5t-91.5 32.5q-69 0 -128 -48t-101 -134t-64 -203zM678 1104q-144 0 -212 75.5t-57 204.5h128q-3 -53 19 -82t58.5 -40t76.5 -11q60 0 121.5 27t89.5 106h126
q-37 -128 -124.5 -204t-225.5 -76z" />
    <glyph glyph-name="Edotaccent" unicode="&#x116;" horiz-adv-x="1218" 
d="M-60 0l16 76h154q16 0 31.5 8.5t20.5 32.5l237 1114q5 22 -7 30.5t-27 8.5h-155l16 76h1065l-61 -361h-109q6 65 -6 128.5t-42.5 105.5t-80.5 42h-290l-114 -534h486l-18 -85h-487l-119 -558h303q58 0 102 31t77 79t58 103.5t44 103.5h109l-105 -401h-1098zM821 1466
q-76 0 -116 39.5t-40 96.5q0 54 40 93t116 39t116 -39t40 -93q0 -57 -40 -96.5t-116 -39.5z" />
    <glyph glyph-name="edotaccent" unicode="&#x117;" horiz-adv-x="1112" 
d="M529 -17q-146 0 -246.5 50.5t-152 142.5t-51.5 217q0 107 34.5 210.5t106 188.5t182 136t262.5 51q178 0 269.5 -63t91.5 -164q0 -67 -34 -126t-113 -105t-212 -72t-331 -26l19 40q-3 -19 -4.5 -42t-1.5 -47q0 -118 46.5 -201.5t156.5 -83.5q94 0 157 58t89 177h200
q-44 -160 -162.5 -250.5t-305.5 -90.5zM355 506l-23 8q220 0 329.5 71.5t109.5 185.5q0 55 -31.5 87.5t-91.5 32.5q-69 0 -128 -48t-101 -134t-64 -203zM682 1100q-76 0 -116 39.5t-40 96.5q0 54 40 93.5t116 39.5t116 -39.5t40 -93.5q0 -57 -40 -96.5t-116 -39.5z" />
    <glyph glyph-name="Eogonek" unicode="&#x118;" horiz-adv-x="1218" 
d="M-60 0l16 76h154q16 0 31.5 8.5t20.5 32.5l237 1114q5 22 -7 30.5t-27 8.5h-155l16 76h1065l-61 -361h-109q6 65 -6 128.5t-42.5 105.5t-80.5 42h-290l-114 -534h486l-18 -85h-487l-119 -558h303q58 0 102 31t77 79t58 103.5t44 103.5h109l-105 -401h-1098zM736 -377
q-89 0 -138.5 44t-32.5 123q18 83 109.5 151t223.5 89l48 -30q-90 -39 -140 -90.5t-62 -109.5q-9 -41 6 -67.5t67 -26.5q22 0 53.5 6.5t65.5 20.5l-15 -72q-39 -17 -85 -27.5t-100 -10.5z" />
    <glyph glyph-name="eogonek" unicode="&#x119;" horiz-adv-x="1112" 
d="M529 -17q-146 0 -246.5 50.5t-152 142.5t-51.5 217q0 107 34.5 210.5t106 188.5t182 136t262.5 51q178 0 269.5 -63t91.5 -164q0 -67 -34 -126t-113 -105t-212 -72t-331 -26l19 40q-3 -19 -4.5 -42t-1.5 -47q0 -118 46.5 -201.5t156.5 -83.5q94 0 157 58t89 177h200
q-44 -160 -162.5 -250.5t-305.5 -90.5zM355 506l-23 8q220 0 329.5 71.5t109.5 185.5q0 55 -31.5 87.5t-91.5 32.5q-69 0 -128 -48t-101 -134t-64 -203zM499 -369q-89 0 -138.5 44t-32.5 123q18 83 109.5 151t223.5 89l48 -30q-90 -39 -140 -90.5t-62 -109.5q-9 -41 6 -67.5
t67 -26.5q22 0 53.5 6.5t65.5 20.5l-15 -72q-39 -17 -85 -27.5t-100 -10.5z" />
    <glyph glyph-name="Ecaron" unicode="&#x11a;" horiz-adv-x="1218" 
d="M-60 0l16 76h154q16 0 31.5 8.5t20.5 32.5l237 1114q5 22 -7 30.5t-27 8.5h-155l16 76h1065l-61 -361h-109q6 65 -6 128.5t-42.5 105.5t-80.5 42h-290l-114 -534h486l-18 -85h-487l-119 -558h303q58 0 102 31t77 79t58 103.5t44 103.5h109l-105 -401h-1098zM679 1452
l-142 278h122l173 -157l245 157h123l-266 -278h-255z" />
    <glyph glyph-name="ecaron" unicode="&#x11b;" horiz-adv-x="1112" 
d="M529 -17q-146 0 -246.5 50.5t-152 142.5t-51.5 217q0 107 34.5 210.5t106 188.5t182 136t262.5 51q178 0 269.5 -63t91.5 -164q0 -67 -34 -126t-113 -105t-212 -72t-331 -26l19 40q-3 -19 -4.5 -42t-1.5 -47q0 -118 46.5 -201.5t156.5 -83.5q94 0 157 58t89 177h200
q-44 -160 -162.5 -250.5t-305.5 -90.5zM355 506l-23 8q220 0 329.5 71.5t109.5 185.5q0 55 -31.5 87.5t-91.5 32.5q-69 0 -128 -48t-101 -134t-64 -203zM530 1106l-142 277h123l172 -157l246 157h123l-267 -277h-255z" />
    <glyph glyph-name="Gcircumflex" unicode="&#x11c;" horiz-adv-x="1466" 
d="M703 -19q-176 0 -305 68t-199 195.5t-70 305.5q0 113 26 228t83 220t150 188t226 130.5t311 48.5q80 -1 156 -15.5t138 -36.5t99 -47l21 80h97l-72 -439h-144q-16 168 -95.5 270t-214.5 102q-113 1 -195.5 -54t-137.5 -145.5t-88 -198t-47 -213.5t-14 -190
q0 -176 68.5 -286t219.5 -110q109 0 184.5 55.5t122 159.5t67.5 250h-297l18 85h595l-22 -91q-37 -164 -118.5 -290.5t-218.5 -198t-344 -71.5zM614 1452l259 277h255l149 -277h-122l-175 156l-236 -156h-130z" />
    <glyph glyph-name="gcircumflex" unicode="&#x11d;" horiz-adv-x="1056" 
d="M389 -377q-163 0 -260 32.5t-139.5 83.5t-42.5 107q0 61 34 102.5t90 68.5t121 42.5t126 23.5l60 125l158 -2q204 -3 302.5 -68.5t98.5 -183.5q0 -96 -46 -160.5t-124 -102t-176 -53t-202 -15.5zM409 -296q78 0 134.5 23t88 65t31.5 98q0 58 -45.5 89t-151.5 34l-147 6
q-56 -18 -96 -63.5t-40 -100.5q0 -59 54 -105t172 -46zM312 48q-141 13 -205.5 60t-64.5 104q0 69 68 113t189 80l32 -46q-27 -7 -56.5 -26.5t-32.5 -50.5t53 -53t203 -23zM506 317q-192 0 -291 83.5t-99 211.5q0 115 62 198t168 128t236 45q191 0 287 -81.5t96 -213.5
q0 -117 -60 -200t-164 -127t-235 -44zM510 394q54 0 92.5 32t62.5 83t36 108.5t12 107.5q0 94 -37.5 138t-97.5 44q-54 0 -92.5 -31.5t-63 -81t-36.5 -105t-12 -105.5q0 -97 40 -143.5t96 -46.5zM812 856l-20 77q56 106 145 145t207 39l-34 -201q-54 7 -108 4t-103 -18
t-87 -46zM278 1108l259 277h255l149 -277h-122l-175 156l-235 -156h-131z" />
    <glyph glyph-name="Gbreve" unicode="&#x11e;" horiz-adv-x="1466" 
d="M703 -19q-176 0 -305 68t-199 195.5t-70 305.5q0 113 26 228t83 220t150 188t226 130.5t311 48.5q80 -1 156 -15.5t138 -36.5t99 -47l21 80h97l-72 -439h-144q-16 168 -95.5 270t-214.5 102q-113 1 -195.5 -54t-137.5 -145.5t-88 -198t-47 -213.5t-14 -190
q0 -176 68.5 -286t219.5 -110q109 0 184.5 55.5t122 159.5t67.5 250h-297l18 85h595l-22 -91q-37 -164 -118.5 -290.5t-218.5 -198t-344 -71.5zM942 1452q-131 0 -202.5 73t-58.5 206h129q-3 -53 17.5 -81.5t55.5 -39t73 -10.5q39 0 79 10.5t73.5 39.5t51.5 81h127
q-40 -132 -127.5 -205.5t-217.5 -73.5z" />
    <glyph glyph-name="gbreve" unicode="&#x11f;" horiz-adv-x="1056" 
d="M389 -377q-163 0 -260 32.5t-139.5 83.5t-42.5 107q0 61 34 102.5t90 68.5t121 42.5t126 23.5l60 125l158 -2q204 -3 302.5 -68.5t98.5 -183.5q0 -96 -46 -160.5t-124 -102t-176 -53t-202 -15.5zM409 -296q78 0 134.5 23t88 65t31.5 98q0 58 -45.5 89t-151.5 34l-147 6
q-56 -18 -96 -63.5t-40 -100.5q0 -59 54 -105t172 -46zM312 48q-141 13 -205.5 60t-64.5 104q0 69 68 113t189 80l32 -46q-27 -7 -56.5 -26.5t-32.5 -50.5t53 -53t203 -23zM506 317q-192 0 -291 83.5t-99 211.5q0 115 62 198t168 128t236 45q191 0 287 -81.5t96 -213.5
q0 -117 -60 -200t-164 -127t-235 -44zM510 394q54 0 92.5 32t62.5 83t36 108.5t12 107.5q0 94 -37.5 138t-97.5 44q-54 0 -92.5 -31.5t-63 -81t-36.5 -105t-12 -105.5q0 -97 40 -143.5t96 -46.5zM812 856l-20 77q56 106 145 145t207 39l-34 -201q-54 7 -108 4t-103 -18
t-87 -46zM633 1106q-144 0 -212 75.5t-57 204.5h128q-3 -53 19 -82t58.5 -40t76.5 -11q60 0 121.5 27t89.5 106h126q-37 -128 -124.5 -204t-225.5 -76z" />
    <glyph glyph-name="Gdotaccent" unicode="&#x120;" horiz-adv-x="1466" 
d="M703 -19q-176 0 -305 68t-199 195.5t-70 305.5q0 113 26 228t83 220t150 188t226 130.5t311 48.5q80 -1 156 -15.5t138 -36.5t99 -47l21 80h97l-72 -439h-144q-16 168 -95.5 270t-214.5 102q-113 1 -195.5 -54t-137.5 -145.5t-88 -198t-47 -213.5t-14 -190
q0 -176 68.5 -286t219.5 -110q109 0 184.5 55.5t122 159.5t67.5 250h-297l18 85h595l-22 -91q-37 -164 -118.5 -290.5t-218.5 -198t-344 -71.5zM947 1466q-76 0 -116 39.5t-40 96.5q0 54 40 93t116 39t116 -39t40 -93q0 -57 -40 -96.5t-116 -39.5z" />
    <glyph glyph-name="gdotaccent" unicode="&#x121;" horiz-adv-x="1056" 
d="M389 -377q-163 0 -260 32.5t-139.5 83.5t-42.5 107q0 61 34 102.5t90 68.5t121 42.5t126 23.5l60 125l158 -2q204 -3 302.5 -68.5t98.5 -183.5q0 -96 -46 -160.5t-124 -102t-176 -53t-202 -15.5zM409 -296q78 0 134.5 23t88 65t31.5 98q0 58 -45.5 89t-151.5 34l-147 6
q-56 -18 -96 -63.5t-40 -100.5q0 -59 54 -105t172 -46zM312 48q-141 13 -205.5 60t-64.5 104q0 69 68 113t189 80l32 -46q-27 -7 -56.5 -26.5t-32.5 -50.5t53 -53t203 -23zM506 317q-192 0 -291 83.5t-99 211.5q0 115 62 198t168 128t236 45q191 0 287 -81.5t96 -213.5
q0 -117 -60 -200t-164 -127t-235 -44zM510 394q54 0 92.5 32t62.5 83t36 108.5t12 107.5q0 94 -37.5 138t-97.5 44q-54 0 -92.5 -31.5t-63 -81t-36.5 -105t-12 -105.5q0 -97 40 -143.5t96 -46.5zM812 856l-20 77q56 106 145 145t207 39l-34 -201q-54 7 -108 4t-103 -18
t-87 -46zM630 1102q-76 0 -116 39.5t-40 96.5q0 54 40 93.5t116 39.5t116 -39.5t40 -93.5q0 -57 -40 -96.5t-116 -39.5z" />
    <glyph glyph-name="uni0122" unicode="&#x122;" horiz-adv-x="1466" 
d="M703 -19q-176 0 -305 68t-199 195.5t-70 305.5q0 113 26 228t83 220t150 188t226 130.5t311 48.5q80 -1 156 -15.5t138 -36.5t99 -47l21 80h97l-72 -439h-144q-16 168 -95.5 270t-214.5 102q-113 1 -195.5 -54t-137.5 -145.5t-88 -198t-47 -213.5t-14 -190
q0 -176 68.5 -286t219.5 -110q109 0 184.5 55.5t122 159.5t67.5 250h-297l18 85h595l-22 -91q-37 -164 -118.5 -290.5t-218.5 -198t-344 -71.5zM503 -424l-8 53q56 12 94 42.5t55 65.5q-56 1 -83.5 32t-16.5 80q9 39 40 64t92 25q65 0 96 -40.5t16 -112.5
q-19 -89 -100.5 -143.5t-184.5 -65.5z" />
    <glyph glyph-name="uni0123" unicode="&#x123;" horiz-adv-x="1056" 
d="M389 -377q-163 0 -260 32.5t-139.5 83.5t-42.5 107q0 61 34 102.5t90 68.5t121 42.5t126 23.5l60 125l158 -2q204 -3 302.5 -68.5t98.5 -183.5q0 -96 -46 -160.5t-124 -102t-176 -53t-202 -15.5zM409 -296q78 0 134.5 23t88 65t31.5 98q0 58 -45.5 89t-151.5 34l-147 6
q-56 -18 -96 -63.5t-40 -100.5q0 -59 54 -105t172 -46zM312 48q-141 13 -205.5 60t-64.5 104q0 69 68 113t189 80l32 -46q-27 -7 -56.5 -26.5t-32.5 -50.5t53 -53t203 -23zM506 317q-192 0 -291 83.5t-99 211.5q0 115 62 198t168 128t236 45q191 0 287 -81.5t96 -213.5
q0 -117 -60 -200t-164 -127t-235 -44zM510 394q54 0 92.5 32t62.5 83t36 108.5t12 107.5q0 94 -37.5 138t-97.5 44q-54 0 -92.5 -31.5t-63 -81t-36.5 -105t-12 -105.5q0 -97 40 -143.5t96 -46.5zM812 856l-20 77q56 106 145 145t207 39l-34 -201q-54 7 -108 4t-103 -18
t-87 -46zM610 1115q-65 0 -102 46t-21 122q13 58 58.5 103t109.5 74t133 38l12 -64q-47 -14 -87.5 -38.5t-63.5 -65.5q60 -6 85.5 -38.5t16.5 -79.5q-8 -42 -44 -69.5t-97 -27.5z" />
    <glyph glyph-name="Hcircumflex" unicode="&#x124;" horiz-adv-x="1651" 
d="M-60 0l16 76h154q16 0 31.5 8.5t20.5 32.5l237 1114q5 22 -7 30.5t-27 8.5h-155l16 76h692l-16 -76h-156q-15 0 -31 -8.5t-21 -32.5l-102 -481h579l102 483q5 22 -7 30.5t-26 8.5h-157l16 76h691l-16 -76h-154q-14 0 -30 -8.5t-21 -32.5l-237 -1114q-4 -22 7.5 -30.5
t26.5 -8.5h154l-16 -76h-691l15 76h157q15 0 31 9t20 32l117 547h-579l-116 -549q-5 -22 6.5 -30.5t26.5 -8.5h156l-15 -76h-692zM702 1452l259 277h255l149 -277h-122l-175 156l-236 -156h-130z" />
    <glyph glyph-name="hcircumflex" unicode="&#x125;" horiz-adv-x="1259" 
d="M940 -16q-60 0 -108 15.5t-75.5 54t-27.5 106.5q0 22 2.5 46.5t9.5 52.5l81 381q4 17 5.5 33t1.5 30q0 48 -22 79t-72 31q-44 0 -89 -27t-86 -73.5t-76 -107.5l-129 -605h-279l256 1190q5 23 7.5 42t2.5 35q0 33 -13 52t-42 25l-75 15l14 66l430 24l-150 -723
q47 69 102.5 124.5t124 88t151.5 32.5q111 0 168.5 -59.5t57.5 -172.5q0 -29 -4 -62t-12 -69l-78 -359q-4 -16 -6 -30t-2 -28q0 -55 38 -83.5t129 -28.5l-15 -67q-50 -14 -104 -21t-116 -7zM491 1575l259 277h255l149 -277h-122l-175 156l-235 -156h-131z" />
    <glyph glyph-name="Hbar" unicode="&#x126;" horiz-adv-x="1651" 
d="M162 966l20 95h1531l-20 -95h-1531zM-60 0l16 76h154q16 0 31.5 8.5t20.5 32.5l237 1114q5 22 -7 30.5t-27 8.5h-155l16 76h692l-16 -76h-156q-15 0 -31 -8.5t-21 -32.5l-102 -481h579l102 483q5 22 -7 30.5t-26 8.5h-157l16 76h691l-16 -76h-154q-14 0 -30 -8.5
t-21 -32.5l-237 -1114q-4 -22 7.5 -30.5t26.5 -8.5h154l-16 -76h-691l15 76h157q15 0 31 9t20 32l117 547h-579l-116 -549q-5 -22 6.5 -30.5t26.5 -8.5h156l-15 -76h-692z" />
    <glyph glyph-name="hbar" unicode="&#x127;" horiz-adv-x="1259" 
d="M186 1124l18 85h704l-18 -85h-704zM940 -16q-60 0 -108 15.5t-75.5 54t-27.5 106.5q0 22 2.5 46.5t9.5 52.5l81 381q4 17 5.5 33t1.5 30q0 48 -22 79t-72 31q-44 0 -89 -27t-86 -73.5t-76 -107.5l-129 -605h-279l256 1190q5 23 7.5 42t2.5 35q0 33 -13 52t-42 25l-75 15
l14 66l430 24l-150 -723q47 69 102.5 124.5t124 88t151.5 32.5q111 0 168.5 -59.5t57.5 -172.5q0 -29 -4 -62t-12 -69l-78 -359q-4 -16 -6 -30t-2 -28q0 -55 38 -83.5t129 -28.5l-15 -67q-50 -14 -104 -21t-116 -7z" />
    <glyph glyph-name="Itilde" unicode="&#x128;" horiz-adv-x="777" 
d="M-60 0l16 76h154q16 0 31.5 8.5t20.5 32.5l237 1114q5 22 -7 30.5t-27 8.5h-155l16 76h690l-16 -76h-154q-15 0 -31 -8.5t-21 -32.5l-236 -1114q-5 -22 6.5 -30.5t26.5 -8.5h155l-16 -76h-690zM270 1454q31 123 93.5 181.5t143.5 58.5q48 0 84 -14t66 -28
q34 -15 60.5 -27.5t56.5 -12.5q33 0 56.5 18.5t38.5 64.5h98q-34 -122 -87.5 -176t-135.5 -54q-45 0 -79 11.5t-69 27.5q-35 17 -63.5 28t-58.5 11q-36 0 -62.5 -20t-45.5 -69h-96z" />
    <glyph glyph-name="itilde" unicode="&#x129;" horiz-adv-x="668" 
d="M337 -11q-89 0 -149.5 44t-60.5 150q0 23 3.5 49.5t9.5 56.5l95 420q5 22 8 41t3 34q0 35 -13.5 54t-42.5 25l-75 16l14 66l441 23l-156 -692q-5 -24 -8 -44.5t-3 -37.5q0 -63 38 -88t120 -25l-15 -68q-54 -10 -102.5 -17t-106.5 -7zM95 1107q31 123 93.5 181.5
t143.5 58.5q48 0 84 -14t66 -28q34 -15 60.5 -27t56.5 -12q33 0 56.5 18t38.5 64h98q-34 -121 -87.5 -175.5t-135.5 -54.5q-45 0 -79 11.5t-69 28.5q-35 16 -63.5 27t-58.5 11q-36 0 -62.5 -20t-45.5 -69h-96z" />
    <glyph glyph-name="Imacron" unicode="&#x12a;" horiz-adv-x="777" 
d="M-60 0l16 76h154q16 0 31.5 8.5t20.5 32.5l237 1114q5 22 -7 30.5t-27 8.5h-155l16 76h690l-16 -76h-154q-15 0 -31 -8.5t-21 -32.5l-236 -1114q-5 -22 6.5 -30.5t26.5 -8.5h155l-16 -76h-690zM324 1513l24 116h566l-24 -116h-566z" />
    <glyph glyph-name="imacron" unicode="&#x12b;" horiz-adv-x="668" 
d="M337 -11q-89 0 -149.5 44t-60.5 150q0 23 3.5 49.5t9.5 56.5l95 420q5 22 8 41t3 34q0 35 -13.5 54t-42.5 25l-75 16l14 66l441 23l-156 -692q-5 -24 -8 -44.5t-3 -37.5q0 -63 38 -88t120 -25l-15 -68q-54 -10 -102.5 -17t-106.5 -7zM173 1166l25 117h565l-24 -117h-566z
" />
    <glyph glyph-name="Ibreve" unicode="&#x12c;" horiz-adv-x="777" 
d="M-60 0l16 76h154q16 0 31.5 8.5t20.5 32.5l237 1114q5 22 -7 30.5t-27 8.5h-155l16 76h690l-16 -76h-154q-15 0 -31 -8.5t-21 -32.5l-236 -1114q-5 -22 6.5 -30.5t26.5 -8.5h155l-16 -76h-690zM594 1452q-131 0 -202.5 73t-58.5 206h129q-3 -53 17.5 -81.5t55.5 -39
t73 -10.5q39 0 79 10.5t73.5 39.5t51.5 81h127q-40 -132 -127.5 -205.5t-217.5 -73.5z" />
    <glyph glyph-name="ibreve" unicode="&#x12d;" horiz-adv-x="668" 
d="M337 -11q-89 0 -149.5 44t-60.5 150q0 23 3.5 49.5t9.5 56.5l95 420q5 22 8 41t3 34q0 35 -13.5 54t-42.5 25l-75 16l14 66l441 23l-156 -692q-5 -24 -8 -44.5t-3 -37.5q0 -63 38 -88t120 -25l-15 -68q-54 -10 -102.5 -17t-106.5 -7zM459 1104q-144 0 -212 75.5
t-57 204.5h128q-3 -53 19 -82t58.5 -40t76.5 -11q60 0 121.5 27t89.5 106h126q-37 -128 -124.5 -204t-225.5 -76z" />
    <glyph glyph-name="Iogonek" unicode="&#x12e;" horiz-adv-x="777" 
d="M-60 0l16 76h154q16 0 31.5 8.5t20.5 32.5l237 1114q5 22 -7 30.5t-27 8.5h-155l16 76h690l-16 -76h-154q-15 0 -31 -8.5t-21 -32.5l-236 -1114q-5 -22 6.5 -30.5t26.5 -8.5h155l-16 -76h-690zM219 -374q-89 0 -138.5 44t-32.5 123q18 83 109.5 151t223.5 89l48 -30
q-90 -39 -140 -90.5t-62 -109.5q-9 -41 6 -67.5t67 -26.5q22 0 53.5 6.5t65.5 20.5l-15 -72q-39 -17 -85 -27.5t-100 -10.5z" />
    <glyph glyph-name="iogonek" unicode="&#x12f;" horiz-adv-x="668" 
d="M337 -11q-89 0 -149.5 44t-60.5 150q0 23 3.5 49.5t9.5 56.5l95 420q5 22 8 41t3 34q0 35 -13.5 54t-42.5 25l-75 16l14 66l441 23l-156 -692q-5 -24 -8 -44.5t-3 -37.5q0 -63 38 -88t120 -25l-15 -68q-54 -10 -102.5 -17t-106.5 -7zM464 1100q-76 0 -116 39.5t-40 96.5
q0 54 40 93.5t116 39.5t116 -39.5t40 -93.5q0 -57 -40 -96.5t-116 -39.5zM290 -369q-89 0 -138.5 44t-32.5 123q18 83 109.5 151t223.5 89l48 -30q-90 -39 -140 -90.5t-62 -109.5q-9 -41 6 -67.5t67 -26.5q22 0 53.5 6.5t65.5 20.5l-15 -72q-39 -17 -85 -27.5t-100 -10.5z
" />
    <glyph glyph-name="Idotaccent" unicode="&#x130;" horiz-adv-x="777" 
d="M-60 0l16 76h154q16 0 31.5 8.5t20.5 32.5l237 1114q5 22 -7 30.5t-27 8.5h-155l16 76h690l-16 -76h-154q-15 0 -31 -8.5t-21 -32.5l-236 -1114q-5 -22 6.5 -30.5t26.5 -8.5h155l-16 -76h-690zM599 1466q-76 0 -116 39.5t-40 96.5q0 54 40 93t116 39t116 -39t40 -93
q0 -57 -40 -96.5t-116 -39.5z" />
    <glyph glyph-name="dotlessi" unicode="&#x131;" horiz-adv-x="668" 
d="M337 -11q-89 0 -149.5 44t-60.5 150q0 23 3.5 49.5t9.5 56.5l95 420q5 22 8 41t3 34q0 35 -13.5 54t-42.5 25l-75 16l14 66l441 23l-156 -692q-5 -24 -8 -44.5t-3 -37.5q0 -63 38 -88t120 -25l-15 -68q-54 -10 -102.5 -17t-106.5 -7z" />
    <glyph glyph-name="IJ" unicode="&#x132;" horiz-adv-x="1871" 
d="M-60 0l16 76h154q16 0 31.5 8.5t20.5 32.5l237 1114q5 22 -7 30.5t-27 8.5h-155l16 76h690l-16 -76h-154q-15 0 -31 -8.5t-21 -32.5l-236 -1114q-5 -22 6.5 -30.5t26.5 -8.5h155l-16 -76h-690zM1136 -18q-209 0 -293.5 84.5t-59.5 240.5h249q-18 -116 8 -175t93 -59
q52 0 86 31.5t56.5 91.5t40.5 145l189 890q5 22 -7 30.5t-27 8.5h-155l17 76h690l-17 -76h-154q-15 0 -30.5 -8.5t-20.5 -32.5l-185 -873q-23 -109 -81.5 -193.5t-156.5 -132.5t-242 -48z" />
    <glyph glyph-name="ij" unicode="&#x133;" horiz-adv-x="1301" 
d="M337 -11q-89 0 -149.5 44t-60.5 150q0 23 3.5 49.5t9.5 56.5l95 420q5 22 8 41t3 34q0 35 -13.5 54t-42.5 25l-75 16l14 66l441 23l-156 -692q-5 -24 -8 -44.5t-3 -37.5q0 -63 38 -88t120 -25l-15 -68q-54 -10 -102.5 -17t-106.5 -7zM472 1116q-76 0 -118 41t-42 98
t42 97t118 40q78 0 118.5 -40t40.5 -97t-40.5 -98t-118.5 -41zM455 -359l15 74q75 0 131 24.5t93.5 82t60.5 158.5l159 729q15 71 5.5 108t-51.5 46l-75 16l14 66l441 23l-209 -972q-30 -137 -90 -214t-152 -109t-216 -32h-126zM1151 1116q-77 0 -119 41t-42 98t42 97
t119 40q78 0 118.5 -40t40.5 -97t-40.5 -98t-118.5 -41z" />
    <glyph glyph-name="Jcircumflex" unicode="&#x134;" horiz-adv-x="1094" 
d="M359 -18q-209 0 -293.5 84.5t-59.5 240.5h249q-18 -116 8 -175t93 -59q52 0 86 31.5t56.5 91.5t40.5 145l189 890q5 22 -7 30.5t-27 8.5h-155l17 76h690l-17 -76h-154q-15 0 -30.5 -8.5t-20.5 -32.5l-185 -873q-23 -109 -81.5 -193.5t-156.5 -132.5t-242 -48zM576 1434
l259 277h255l149 -277h-122l-175 156l-236 -156h-130z" />
    <glyph glyph-name="jcircumflex" unicode="&#x135;" horiz-adv-x="633" 
d="M-213 -359l15 74q75 0 131 24.5t93.5 82t60.5 158.5l159 729q15 71 5.5 108t-51.5 46l-75 16l14 66l441 23l-209 -972q-30 -137 -90 -214t-152 -109t-216 -32h-126zM75 1106l259 277h255l149 -277h-122l-175 156l-235 -156h-131z" />
    <glyph glyph-name="uni0136" unicode="&#x136;" horiz-adv-x="1417" 
d="M-60 0l16 76h154q16 0 31.5 9.5t20.5 32.5l236 1110q5 23 -6.5 32.5t-26.5 9.5h-155l16 76h692l-16 -76h-156q-15 0 -31 -9.5t-21 -32.5l-115 -545l557 472q23 20 42 42t22 40q4 19 -5.5 26t-29.5 7h-127l16 76h499l-16 -76h-48q-54 0 -96.5 -23t-81.5 -55l-492 -417
l323 -618q20 -36 46.5 -58.5t83.5 -22.5h59l-16 -76h-415l-324 667l-118 -549q-5 -23 6.5 -32.5t26.5 -9.5h156l-15 -76h-692zM502 -424l-8 53q56 12 94 42.5t55 65.5q-56 1 -83.5 32t-16.5 80q9 39 40 64t92 25q65 0 96 -40.5t16 -112.5q-19 -89 -100.5 -143.5
t-184.5 -65.5z" />
    <glyph glyph-name="uni0137" unicode="&#x137;" horiz-adv-x="1155" 
d="M79 0l253 1192q15 71 6 108t-51 45l-75 16l14 66l441 23l-307 -1450h-281zM701 0l-239 494v5l335 300q96 85 171.5 124.5t158.5 39.5h32l-36 -161h-61q-56 0 -119 -18t-128 -78l-116 -106l213 -428q32 -62 62 -82.5t73 -20.5h23l-15 -69h-354zM325 -424l-8 53
q56 12 94 42.5t55 65.5q-56 1 -83.5 32t-16.5 80q9 39 40 64t92 25q65 0 96 -40.5t16 -112.5q-19 -89 -100.5 -143.5t-184.5 -65.5z" />
    <glyph glyph-name="kgreenlandic" unicode="&#x138;" horiz-adv-x="1163" 
d="M709 0l-239 494v5l335 300q96 85 171.5 124.5t158.5 39.5h33l-37 -161h-61q-56 0 -119 -18t-128 -78l-116 -106l213 -428q32 -62 62 -82.5t73 -20.5h23l-15 -69h-354zM89 0l156 709q16 72 7 108.5t-51 45.5l-75 16l14 66l427 23l-199 -968h-279z" />
    <glyph glyph-name="Lacute" unicode="&#x139;" horiz-adv-x="1204" 
d="M-60 0l16 76h154q16 0 31.5 9.5t20.5 32.5l236 1110q5 23 -6.5 32.5t-26.5 9.5h-155l16 76h692l-16 -76h-156q-15 0 -31 -9.5t-21 -32.5l-243 -1144h302q58 0 102 31t77 80t58.5 104t43.5 102h109l-105 -401h-1098zM519 1452l229 278h301l-397 -278h-133z" />
    <glyph glyph-name="lacute" unicode="&#x13a;" horiz-adv-x="663" 
d="M332 -11q-89 0 -149.5 45t-60.5 150q0 24 3.5 49.5t9.5 55.5l198 902q5 22 7.5 41t2.5 34q0 35 -13.5 54t-42.5 25l-75 16l14 66l441 23l-258 -1174q-5 -24 -8 -44.5t-3 -37.5q0 -62 38 -87.5t119 -25.5l-14 -68q-54 -10 -102.5 -17t-106.5 -7zM423 1575l228 277h302
l-397 -277h-133z" />
    <glyph glyph-name="uni013B" unicode="&#x13b;" horiz-adv-x="1204" 
d="M-60 0l16 76h154q16 0 31.5 9.5t20.5 32.5l236 1110q5 23 -6.5 32.5t-26.5 9.5h-155l16 76h692l-16 -76h-156q-15 0 -31 -9.5t-21 -32.5l-243 -1144h302q58 0 102 31t77 80t58.5 104t43.5 102h109l-105 -401h-1098zM407 -424l-8 53q56 12 94 42.5t55 65.5q-56 1 -83.5 32
t-16.5 80q9 39 40 64t92 25q65 0 96 -40.5t16 -112.5q-19 -89 -100.5 -143.5t-184.5 -65.5z" />
    <glyph glyph-name="uni013C" unicode="&#x13c;" horiz-adv-x="663" 
d="M332 -11q-89 0 -149.5 45t-60.5 150q0 24 3.5 49.5t9.5 55.5l198 902q5 22 7.5 41t2.5 34q0 35 -13.5 54t-42.5 25l-75 16l14 66l441 23l-258 -1174q-5 -24 -8 -44.5t-3 -37.5q0 -62 38 -87.5t119 -25.5l-14 -68q-54 -10 -102.5 -17t-106.5 -7zM67 -424l-8 53
q56 12 94 42.5t55 65.5q-56 1 -83.5 32t-16.5 80q9 39 40 64t92 25q65 0 96 -40.5t16 -112.5q-19 -89 -100.5 -143.5t-184.5 -65.5z" />
    <glyph glyph-name="Lcaron" unicode="&#x13d;" horiz-adv-x="1204" 
d="M-60 0l16 76h154q16 0 31.5 9.5t20.5 32.5l236 1110q5 23 -6.5 32.5t-26.5 9.5h-155l16 76h692l-16 -76h-156q-15 0 -31 -9.5t-21 -32.5l-243 -1144h302q58 0 102 31t77 80t58.5 104t43.5 102h109l-105 -401h-1098zM957 940l-6 58q63 17 106.5 53.5t61.5 86.5l12 -10
q-61 0 -89 39t-19 87q12 52 48.5 77.5t92.5 25.5q68 0 100.5 -44t18.5 -113q-14 -67 -64 -118t-119 -87t-143 -55z" />
    <glyph glyph-name="lcaron" unicode="&#x13e;" horiz-adv-x="663" 
d="M332 -11q-89 0 -149.5 45t-60.5 150q0 24 3.5 49.5t9.5 55.5l198 902q5 22 7.5 41t2.5 34q0 35 -13.5 54t-42.5 25l-75 16l14 66l441 23l-258 -1174q-5 -24 -8 -44.5t-3 -37.5q0 -62 38 -87.5t119 -25.5l-14 -68q-54 -10 -102.5 -17t-106.5 -7zM616 940l-6 58
q63 17 106.5 53.5t61.5 86.5l12 -10q-61 0 -89 39t-19 87q12 52 48.5 77.5t92.5 25.5q68 0 100.5 -44t18.5 -113q-14 -67 -64 -118t-119 -87t-143 -55z" />
    <glyph glyph-name="Ldot" unicode="&#x13f;" horiz-adv-x="1204" 
d="M-60 0l16 76h154q16 0 31.5 9.5t20.5 32.5l236 1110q5 23 -6.5 32.5t-26.5 9.5h-155l16 76h692l-16 -76h-156q-15 0 -31 -9.5t-21 -32.5l-243 -1144h302q58 0 102 31t77 80t58.5 104t43.5 102h109l-105 -401h-1098zM1024 593q-80 0 -128 48.5t-48 118.5q0 77 48 123
t128 46q78 0 127 -46t49 -123q0 -70 -49 -118.5t-127 -48.5z" />
    <glyph glyph-name="ldot" unicode="&#x140;" horiz-adv-x="797" 
d="M332 -11q-89 0 -149.5 45t-60.5 150q0 24 3.5 49.5t9.5 55.5l198 902q5 22 7.5 41t2.5 34q0 35 -13.5 54t-42.5 25l-75 16l14 66l441 23l-258 -1174q-5 -24 -8 -44.5t-3 -37.5q0 -62 38 -87.5t119 -25.5l-14 -68q-54 -10 -102.5 -17t-106.5 -7zM759 540q-80 0 -128 48.5
t-48 118.5q0 77 48 123t128 46q78 0 127 -46t49 -123q0 -70 -49 -118.5t-127 -48.5z" />
    <glyph glyph-name="Lslash" unicode="&#x141;" horiz-adv-x="1204" 
d="M52 444l21 99l773 377l-21 -99zM-60 0l16 76h154q16 0 31.5 9.5t20.5 32.5l236 1110q5 23 -6.5 32.5t-26.5 9.5h-155l16 76h692l-16 -76h-156q-15 0 -31 -9.5t-21 -32.5l-243 -1144h302q58 0 102 31t77 80t58.5 104t43.5 102h109l-105 -401h-1098z" />
    <glyph glyph-name="lslash" unicode="&#x142;" horiz-adv-x="663" 
d="M359 702l21 99l341 210l-21 -99zM54 541l20 100l312 191l-20 -99zM332 -11q-89 0 -149.5 45t-60.5 150q0 24 3.5 49.5t9.5 55.5l198 902q5 22 7.5 41t2.5 34q0 35 -13.5 54t-42.5 25l-75 16l14 66l441 23l-258 -1174q-5 -24 -8 -44.5t-3 -37.5q0 -62 38 -87.5t119 -25.5
l-14 -68q-54 -10 -102.5 -17t-106.5 -7z" />
    <glyph glyph-name="Nacute" unicode="&#x143;" horiz-adv-x="1586" 
d="M-60 0l16 76h154q16 0 31.5 9.5t20.5 32.5l236 1110q5 23 -6.5 32.5t-26.5 9.5h-155l16 76h458l540 -994l187 876q5 23 -6.5 32.5t-26.5 9.5h-157l16 76h488l-16 -76h-154q-15 0 -30.5 -9.5t-20.5 -32.5l-261 -1228h-141l-631 1153l-220 -1035q-5 -23 6.5 -32.5
t26.5 -9.5h156l-16 -76h-484zM851 1452l229 278h301l-397 -278h-133z" />
    <glyph glyph-name="nacute" unicode="&#x144;" horiz-adv-x="1266" 
d="M953 -16q-60 0 -107.5 15.5t-75.5 54t-28 106.5q0 22 4 51.5t10 55.5l79 373q4 18 5.5 33.5t1.5 29.5q0 48 -22 79t-71 31q-45 0 -88.5 -27t-83.5 -73.5t-76 -107.5l-133 -605h-279l156 709q5 23 7.5 42.5t2.5 34.5q0 34 -13 52.5t-41 24.5l-75 16l14 66l415 23l-36 -242
q46 69 101.5 125t124.5 88t152 32q111 0 168.5 -59t57.5 -173q0 -28 -4 -61.5t-12 -69.5l-78 -359q-3 -16 -5 -30.5t-2 -27.5q0 -56 36.5 -84t123.5 -28l-15 -67q-49 -14 -101 -21t-113 -7zM634 1106l228 277h302l-397 -277h-133z" />
    <glyph glyph-name="uni0145" unicode="&#x145;" horiz-adv-x="1586" 
d="M-60 0l16 76h154q16 0 31.5 9.5t20.5 32.5l236 1110q5 23 -6.5 32.5t-26.5 9.5h-155l16 76h458l540 -994l187 876q5 23 -6.5 32.5t-26.5 9.5h-157l16 76h488l-16 -76h-154q-15 0 -30.5 -9.5t-20.5 -32.5l-261 -1228h-141l-631 1153l-220 -1035q-5 -23 6.5 -32.5
t26.5 -9.5h156l-16 -76h-484zM519 -424l-8 53q56 12 94 42.5t55 65.5q-56 1 -83.5 32t-16.5 80q9 39 40 64t92 25q65 0 96 -40.5t16 -112.5q-19 -89 -100.5 -143.5t-184.5 -65.5z" />
    <glyph glyph-name="uni0146" unicode="&#x146;" horiz-adv-x="1266" 
d="M953 -16q-60 0 -107.5 15.5t-75.5 54t-28 106.5q0 22 4 51.5t10 55.5l79 373q4 18 5.5 33.5t1.5 29.5q0 48 -22 79t-71 31q-45 0 -88.5 -27t-83.5 -73.5t-76 -107.5l-133 -605h-279l156 709q5 23 7.5 42.5t2.5 34.5q0 34 -13 52.5t-41 24.5l-75 16l14 66l415 23l-36 -242
q46 69 101.5 125t124.5 88t152 32q111 0 168.5 -59t57.5 -173q0 -28 -4 -61.5t-12 -69.5l-78 -359q-3 -16 -5 -30.5t-2 -27.5q0 -56 36.5 -84t123.5 -28l-15 -67q-49 -14 -101 -21t-113 -7zM398 -424l-8 53q56 12 94 42.5t55 65.5q-56 1 -83.5 32t-16.5 80q9 39 40 64t92 25
q65 0 96 -40.5t16 -112.5q-19 -89 -100.5 -143.5t-184.5 -65.5z" />
    <glyph glyph-name="Ncaron" unicode="&#x147;" horiz-adv-x="1586" 
d="M-60 0l16 76h154q16 0 31.5 9.5t20.5 32.5l236 1110q5 23 -6.5 32.5t-26.5 9.5h-155l16 76h458l540 -994l187 876q5 23 -6.5 32.5t-26.5 9.5h-157l16 76h488l-16 -76h-154q-15 0 -30.5 -9.5t-20.5 -32.5l-261 -1228h-141l-631 1153l-220 -1035q-5 -23 6.5 -32.5
t26.5 -9.5h156l-16 -76h-484zM834 1452l-142 278h122l173 -157l245 157h123l-266 -278h-255z" />
    <glyph glyph-name="ncaron" unicode="&#x148;" horiz-adv-x="1266" 
d="M953 -16q-60 0 -107.5 15.5t-75.5 54t-28 106.5q0 22 4 51.5t10 55.5l79 373q4 18 5.5 33.5t1.5 29.5q0 48 -22 79t-71 31q-45 0 -88.5 -27t-83.5 -73.5t-76 -107.5l-133 -605h-279l156 709q5 23 7.5 42.5t2.5 34.5q0 34 -13 52.5t-41 24.5l-75 16l14 66l415 23l-36 -242
q46 69 101.5 125t124.5 88t152 32q111 0 168.5 -59t57.5 -173q0 -28 -4 -61.5t-12 -69.5l-78 -359q-3 -16 -5 -30.5t-2 -27.5q0 -56 36.5 -84t123.5 -28l-15 -67q-49 -14 -101 -21t-113 -7zM628 1106l-142 277h123l172 -157l246 157h123l-267 -277h-255z" />
    <glyph glyph-name="napostrophe" unicode="&#x149;" horiz-adv-x="1526" 
d="M1207 -16q-60 0 -107.5 15.5t-75.5 54t-28 106.5q0 22 4 51.5t10 55.5l79 373q4 18 5.5 33.5t1.5 29.5q0 48 -22 79t-71 31q-45 0 -88.5 -27t-83.5 -73.5t-76 -107.5l-133 -605h-279l156 709q5 23 7.5 42.5t2.5 34.5q0 34 -13 52.5t-41 24.5l-75 16l14 66l415 23
l-36 -242q46 69 101.5 125t124.5 88t152 32q111 0 168.5 -59t57.5 -173q0 -28 -4 -61.5t-12 -69.5l-78 -359q-3 -16 -5 -30.5t-2 -27.5q0 -56 36.5 -84t123.5 -28l-15 -67q-49 -14 -101 -21t-113 -7zM1 755l-17 69q90 26 152 79t92 141l12 -14q-93 1 -138.5 58.5
t-27.5 143.5q14 61 57.5 97.5t116.5 36.5q93 0 140.5 -70t19.5 -200q-24 -111 -86.5 -180t-146.5 -106.5t-174 -54.5z" />
    <glyph glyph-name="Eng" unicode="&#x14a;" horiz-adv-x="1586" 
d="M1243 0q-32 -152 -83 -229.5t-120.5 -104t-157.5 -26.5h-118l9 45q148 0 222 80.5t107 234.5h141zM-60 0l16 76h154q16 0 31.5 9.5t20.5 32.5l236 1110q5 23 -6.5 32.5t-26.5 9.5h-155l16 76h458l540 -994l187 876q5 23 -6.5 32.5t-26.5 9.5h-157l16 76h488l-16 -76h-154
q-15 0 -30.5 -9.5t-20.5 -32.5l-261 -1228h-141l-631 1153l-220 -1035q-5 -23 6.5 -32.5t26.5 -9.5h156l-16 -76h-484z" />
    <glyph glyph-name="eng" unicode="&#x14b;" horiz-adv-x="1232" 
d="M392 -359l15 74q113 0 185.5 58t104.5 210l139 660q3 16 4.5 31t1.5 29q0 48 -21.5 79t-71.5 31q-45 0 -88.5 -27t-83.5 -73.5t-76 -107.5l-133 -605h-279l156 709q5 23 7.5 42.5t2.5 34.5q0 34 -13 52.5t-41 24.5l-75 16l14 66l415 23l-36 -242q46 69 101.5 125
t124.5 88t152 32q111 0 168.5 -58.5t57.5 -170.5q0 -31 -4.5 -67t-11.5 -67l-131 -612q-29 -137 -89.5 -214t-152.5 -109t-216 -32h-126z" />
    <glyph glyph-name="Omacron" unicode="&#x14c;" horiz-adv-x="1522" 
d="M707 -19q-182 0 -312 70t-198.5 197t-68.5 299q0 143 42 288t133 265t238 193t359 73q182 0 310 -70.5t195.5 -199t67.5 -300.5q0 -146 -41 -290t-131.5 -263t-236.5 -190.5t-357 -71.5zM717 67q95 0 168 58.5t125.5 153t86 205.5t49.5 218.5t16 188.5q0 116 -29 203.5
t-88 136.5t-151 49q-103 0 -179 -58t-128.5 -151.5t-84.5 -204t-46.5 -217.5t-14.5 -188q0 -114 29 -203.5t90.5 -140t156.5 -50.5zM660 1514l24 116h566l-24 -116h-566z" />
    <glyph glyph-name="omacron" unicode="&#x14d;" horiz-adv-x="1136" 
d="M493 -16q-198 0 -307 112t-109 291q0 101 32.5 205.5t101 192.5t177 142.5t260.5 54.5q196 0 302.5 -114t106.5 -296q0 -110 -34.5 -215t-104.5 -189.5t-175.5 -134t-249.5 -49.5zM504 67q65 0 113 44.5t81 115.5t53.5 151.5t29.5 154.5t9 123q0 108 -37 175t-116 67
q-65 0 -113 -42t-81.5 -109t-54 -144.5t-30 -150.5t-9.5 -124q0 -74 16.5 -133t51 -93.5t87.5 -34.5zM409 1152l25 117h565l-24 -117h-566z" />
    <glyph glyph-name="Obreve" unicode="&#x14e;" horiz-adv-x="1522" 
d="M707 -19q-182 0 -312 70t-198.5 197t-68.5 299q0 143 42 288t133 265t238 193t359 73q182 0 310 -70.5t195.5 -199t67.5 -300.5q0 -146 -41 -290t-131.5 -263t-236.5 -190.5t-357 -71.5zM717 67q95 0 168 58.5t125.5 153t86 205.5t49.5 218.5t16 188.5q0 116 -29 203.5
t-88 136.5t-151 49q-103 0 -179 -58t-128.5 -151.5t-84.5 -204t-46.5 -217.5t-14.5 -188q0 -114 29 -203.5t90.5 -140t156.5 -50.5zM930 1453q-131 0 -202.5 73t-58.5 206h129q-3 -53 17.5 -81.5t55.5 -39t73 -10.5q39 0 79 10.5t73.5 39.5t51.5 81h127
q-40 -132 -127.5 -205.5t-217.5 -73.5z" />
    <glyph glyph-name="obreve" unicode="&#x14f;" horiz-adv-x="1136" 
d="M493 -16q-198 0 -307 112t-109 291q0 101 32.5 205.5t101 192.5t177 142.5t260.5 54.5q196 0 302.5 -114t106.5 -296q0 -110 -34.5 -215t-104.5 -189.5t-175.5 -134t-249.5 -49.5zM504 67q65 0 113 44.5t81 115.5t53.5 151.5t29.5 154.5t9 123q0 108 -37 175t-116 67
q-65 0 -113 -42t-81.5 -109t-54 -144.5t-30 -150.5t-9.5 -124q0 -74 16.5 -133t51 -93.5t87.5 -34.5zM696 1090q-144 0 -212 75.5t-57 204.5h128q-3 -53 19 -82t58.5 -40t76.5 -11q60 0 121.5 27t89.5 106h126q-37 -128 -124.5 -204t-225.5 -76z" />
    <glyph glyph-name="Ohungarumlaut" unicode="&#x150;" horiz-adv-x="1522" 
d="M707 -19q-182 0 -312 70t-198.5 197t-68.5 299q0 143 42 288t133 265t238 193t359 73q182 0 310 -70.5t195.5 -199t67.5 -300.5q0 -146 -41 -290t-131.5 -263t-236.5 -190.5t-357 -71.5zM717 67q95 0 168 58.5t125.5 153t86 205.5t49.5 218.5t16 188.5q0 116 -29 203.5
t-88 136.5t-151 49q-103 0 -179 -58t-128.5 -151.5t-84.5 -204t-46.5 -217.5t-14.5 -188q0 -114 29 -203.5t90.5 -140t156.5 -50.5zM614 1453l228 278h302l-397 -278h-133zM983 1453l228 278h302l-397 -278h-133z" />
    <glyph glyph-name="ohungarumlaut" unicode="&#x151;" horiz-adv-x="1136" 
d="M493 -16q-198 0 -307 112t-109 291q0 101 32.5 205.5t101 192.5t177 142.5t260.5 54.5q196 0 302.5 -114t106.5 -296q0 -110 -34.5 -215t-104.5 -189.5t-175.5 -134t-249.5 -49.5zM504 67q65 0 113 44.5t81 115.5t53.5 151.5t29.5 154.5t9 123q0 108 -37 175t-116 67
q-65 0 -113 -42t-81.5 -109t-54 -144.5t-30 -150.5t-9.5 -124q0 -74 16.5 -133t51 -93.5t87.5 -34.5zM362 1092l228 277h302l-397 -277h-133zM731 1092l228 277h302l-397 -277h-133z" />
    <glyph glyph-name="OE" unicode="&#x152;" horiz-adv-x="1900" 
d="M819 0l265 1250l-104 96h992l-61 -361h-109q3 37 -1 84t-18 91t-40.5 72.5t-68.5 28.5h-290l-115 -534h487l-17 -85h-486l-121 -558h302q58 0 102 31.5t77 80t58.5 103.5t44.5 102h108l-105 -401h-900zM1066 47q-72 -34 -163 -46t-183 -12q-187 0 -319.5 70t-202 197
t-69.5 297q0 107 25 219.5t80 217t145.5 187t220.5 131.5t306 49q62 0 127.5 -7.5t125.5 -25t104 -49.5l-135 -90q-34 27 -91 55.5t-137 28.5q-106 0 -184.5 -56.5t-132 -147.5t-85.5 -198.5t-46 -211t-14 -183.5q0 -114 30.5 -203.5t95 -140t165.5 -50.5q68 0 129 16.5
t109 42.5z" />
    <glyph glyph-name="oe" unicode="&#x153;" horiz-adv-x="1809" 
d="M492 -16q-198 0 -307 112t-109 292q0 32 4 66t11 71q34 154 113 254.5t193 150t250 49.5q195 0 291.5 -112.5t96.5 -293.5q0 -34 -4 -70t-12 -74q-48 -225 -186.5 -335t-340.5 -110zM503 67q102 0 169.5 101.5t101.5 284.5q10 57 15.5 108.5t5.5 94.5q0 109 -38 174.5
t-121 65.5q-102 0 -172 -102.5t-105 -289.5q-8 -46 -12.5 -90.5t-4.5 -84.5q0 -75 17 -134t52.5 -93.5t91.5 -34.5zM1226 -17q-146 0 -246.5 50.5t-152 142.5t-51.5 217q0 107 34.5 210.5t106 188.5t182 136t262.5 51q178 0 269.5 -63t91.5 -164q0 -67 -34 -126t-113 -105
t-212 -72t-331 -26l19 40q-3 -19 -4.5 -42t-1.5 -47q0 -118 46.5 -201.5t156.5 -83.5q95 0 157.5 58t88.5 177h200q-44 -160 -162.5 -250.5t-305.5 -90.5zM1052 506l-23 8q220 0 329.5 71.5t109.5 185.5q0 55 -31.5 87.5t-91.5 32.5q-69 0 -127.5 -48t-101 -134t-64.5 -203z
" />
    <glyph glyph-name="Racute" unicode="&#x154;" horiz-adv-x="1428" 
d="M-60 0l16 76h154q16 0 31.5 9.5t20.5 32.5l235 1104q2 11 2 18q0 17 -10.5 23.5t-23.5 6.5h-155l16 76h703q184 0 299.5 -78.5t115.5 -231.5q0 -163 -94.5 -254.5t-255.5 -140.5q87 -14 127.5 -54.5t55 -108.5t22.5 -165l15 -191q3 -34 18.5 -40t45.5 -6h92l-16 -76h-425
l-13 254q-4 98 -14.5 175t-45 121t-110.5 44h-187l-100 -473l-1 -9q-1 -3 -1 -6q0 -17 10.5 -23.5t23.5 -6.5h169l-16 -76h-704zM579 685h143q85 0 145.5 36.5t98 93.5t55.5 123t18 125q0 86 -43.5 139t-133.5 53h-162zM745 1452l229 278h301l-397 -278h-133z" />
    <glyph glyph-name="racute" unicode="&#x155;" horiz-adv-x="984" 
d="M749 650q13 78 -2 119.5t-54 41.5q-34 0 -69 -31.5t-68 -82.5t-61 -111l-127 -586h-280l157 709q16 72 7 108.5t-51 45.5l-75 16l14 66l415 23l-34 -234q37 69 81.5 122t99 83t118.5 30q104 0 148.5 -86.5t20.5 -232.5h-240zM548 1106l228 277h302l-397 -277h-133z" />
    <glyph glyph-name="uni0156" unicode="&#x156;" horiz-adv-x="1428" 
d="M-60 0l16 76h154q16 0 31.5 9.5t20.5 32.5l235 1104q2 11 2 18q0 17 -10.5 23.5t-23.5 6.5h-155l16 76h703q184 0 299.5 -78.5t115.5 -231.5q0 -163 -94.5 -254.5t-255.5 -140.5q87 -14 127.5 -54.5t55 -108.5t22.5 -165l15 -191q3 -34 18.5 -40t45.5 -6h92l-16 -76h-425
l-13 254q-4 98 -14.5 175t-45 121t-110.5 44h-187l-100 -473l-1 -9q-1 -3 -1 -6q0 -17 10.5 -23.5t23.5 -6.5h169l-16 -76h-704zM579 685h143q85 0 145.5 36.5t98 93.5t55.5 123t18 125q0 86 -43.5 139t-133.5 53h-162zM516 -424l-8 53q56 12 94 42.5t55 65.5
q-56 1 -83.5 32t-16.5 80q9 39 40 64t92 25q65 0 96 -40.5t16 -112.5q-19 -89 -100.5 -143.5t-184.5 -65.5z" />
    <glyph glyph-name="uni0157" unicode="&#x157;" horiz-adv-x="984" 
d="M749 650q13 78 -2 119.5t-54 41.5q-34 0 -69 -31.5t-68 -82.5t-61 -111l-127 -586h-280l157 709q16 72 7 108.5t-51 45.5l-75 16l14 66l415 23l-34 -234q37 69 81.5 122t99 83t118.5 30q104 0 148.5 -86.5t20.5 -232.5h-240zM38 -424l-8 53q56 12 94 42.5t55 65.5
q-56 1 -83.5 32t-16.5 80q9 39 40 64t92 25q65 0 96 -40.5t16 -112.5q-19 -89 -100.5 -143.5t-184.5 -65.5z" />
    <glyph glyph-name="Rcaron" unicode="&#x158;" horiz-adv-x="1428" 
d="M-60 0l16 76h154q16 0 31.5 9.5t20.5 32.5l235 1104q2 11 2 18q0 17 -10.5 23.5t-23.5 6.5h-155l16 76h703q184 0 299.5 -78.5t115.5 -231.5q0 -163 -94.5 -254.5t-255.5 -140.5q87 -14 127.5 -54.5t55 -108.5t22.5 -165l15 -191q3 -34 18.5 -40t45.5 -6h92l-16 -76h-425
l-13 254q-4 98 -14.5 175t-45 121t-110.5 44h-187l-100 -473l-1 -9q-1 -3 -1 -6q0 -17 10.5 -23.5t23.5 -6.5h169l-16 -76h-704zM579 685h143q85 0 145.5 36.5t98 93.5t55.5 123t18 125q0 86 -43.5 139t-133.5 53h-162zM728 1452l-142 278h122l173 -157l245 157h123
l-266 -278h-255z" />
    <glyph glyph-name="rcaron" unicode="&#x159;" horiz-adv-x="984" 
d="M749 650q13 78 -2 119.5t-54 41.5q-34 0 -69 -31.5t-68 -82.5t-61 -111l-127 -586h-280l157 709q16 72 7 108.5t-51 45.5l-75 16l14 66l415 23l-34 -234q37 69 81.5 122t99 83t118.5 30q104 0 148.5 -86.5t20.5 -232.5h-240zM542 1106l-142 277h123l172 -157l246 157h123
l-267 -277h-255z" />
    <glyph glyph-name="Sacute" unicode="&#x15a;" horiz-adv-x="1203" 
d="M561 -17q-91 0 -171 18.5t-140.5 48t-92.5 61.5l-24 -116h-97l62 420h129q4 -108 49 -185.5t120 -118.5t169 -41q122 0 182.5 68t60.5 177q0 53 -24 98.5t-80 88.5t-156 89q-96 44 -172.5 98t-120.5 126t-44 171q0 132 66.5 215.5t178.5 123.5t248 40q116 0 209.5 -32
t139.5 -69l18 81h97l-53 -374h-131q-9 145 -86.5 226t-200.5 81q-61 0 -110 -21t-78.5 -64.5t-29.5 -112.5q0 -45 21.5 -86t78 -82.5t158.5 -89.5q116 -52 193 -109.5t115.5 -129t38.5 -167.5q0 -147 -66 -243.5t-184 -143t-273 -46.5zM631 1453l229 278h301l-397 -278h-133
z" />
    <glyph glyph-name="sacute" unicode="&#x15b;" horiz-adv-x="1056" 
d="M474 -18q-126 0 -225 34t-153.5 105t-48.5 181h260q-2 -131 46.5 -186t129.5 -55q83 0 122.5 44.5t39.5 106.5q0 54 -44.5 99t-161.5 97q-141 61 -212 131.5t-71 162.5q0 78 35.5 131.5t95.5 85.5t135.5 46t155.5 14q122 0 214 -35t143 -99.5t46 -154.5h-260
q2 98 -38 154t-120 56q-59 0 -97.5 -29t-38.5 -88q0 -54 52.5 -100.5t178.5 -99.5q138 -57 198 -129t60 -162q0 -113 -59.5 -181t-160 -98.5t-222.5 -30.5zM490 1106l228 277h302l-397 -277h-133z" />
    <glyph glyph-name="Scircumflex" unicode="&#x15c;" horiz-adv-x="1203" 
d="M561 -17q-91 0 -171 18.5t-140.5 48t-92.5 61.5l-24 -116h-97l62 420h129q4 -108 49 -185.5t120 -118.5t169 -41q122 0 182.5 68t60.5 177q0 53 -24 98.5t-80 88.5t-156 89q-96 44 -172.5 98t-120.5 126t-44 171q0 132 66.5 215.5t178.5 123.5t248 40q116 0 209.5 -32
t139.5 -69l18 81h97l-53 -374h-131q-9 145 -86.5 226t-200.5 81q-61 0 -110 -21t-78.5 -64.5t-29.5 -112.5q0 -45 21.5 -86t78 -82.5t158.5 -89.5q116 -52 193 -109.5t115.5 -129t38.5 -167.5q0 -147 -66 -243.5t-184 -143t-273 -46.5zM422 1453l259 277h255l149 -277h-122
l-175 156l-236 -156h-130z" />
    <glyph glyph-name="scircumflex" unicode="&#x15d;" horiz-adv-x="1056" 
d="M474 -18q-126 0 -225 34t-153.5 105t-48.5 181h260q-2 -131 46.5 -186t129.5 -55q83 0 122.5 44.5t39.5 106.5q0 54 -44.5 99t-161.5 97q-141 61 -212 131.5t-71 162.5q0 78 35.5 131.5t95.5 85.5t135.5 46t155.5 14q122 0 214 -35t143 -99.5t46 -154.5h-260
q2 98 -38 154t-120 56q-59 0 -97.5 -29t-38.5 -88q0 -54 52.5 -100.5t178.5 -99.5q138 -57 198 -129t60 -162q0 -113 -59.5 -181t-160 -98.5t-222.5 -30.5zM277 1106l259 277h255l149 -277h-122l-175 156l-235 -156h-131z" />
    <glyph glyph-name="Scedilla" unicode="&#x15e;" horiz-adv-x="1203" 
d="M561 -17q-91 0 -171 18.5t-140.5 48t-92.5 61.5l-24 -116h-97l62 420h129q4 -108 49 -185.5t120 -118.5t169 -41q122 0 182.5 68t60.5 177q0 53 -24 98.5t-80 88.5t-156 89q-96 44 -172.5 98t-120.5 126t-44 171q0 132 66.5 215.5t178.5 123.5t248 40q116 0 209.5 -32
t139.5 -69l18 81h97l-53 -374h-131q-9 145 -86.5 226t-200.5 81q-61 0 -110 -21t-78.5 -64.5t-29.5 -112.5q0 -45 21.5 -86t78 -82.5t158.5 -89.5q116 -52 193 -109.5t115.5 -129t38.5 -167.5q0 -147 -66 -243.5t-184 -143t-273 -46.5zM431 -376q-70 0 -119 11t-86 29l40 96
q36 -18 78.5 -30t87.5 -12q37 0 61 14t30 48q7 39 -18 61.5t-101 37.5l-43 8l165 166l76 -49l-71 -73l-43 18q97 -1 152.5 -52t38.5 -133q-16 -79 -86 -109.5t-162 -30.5z" />
    <glyph glyph-name="scedilla" unicode="&#x15f;" horiz-adv-x="1056" 
d="M474 -18q-126 0 -225 34t-153.5 105t-48.5 181h260q-2 -131 46.5 -186t129.5 -55q83 0 122.5 44.5t39.5 106.5q0 54 -44.5 99t-161.5 97q-141 61 -212 131.5t-71 162.5q0 78 35.5 131.5t95.5 85.5t135.5 46t155.5 14q122 0 214 -35t143 -99.5t46 -154.5h-260
q2 98 -38 154t-120 56q-59 0 -97.5 -29t-38.5 -88q0 -54 52.5 -100.5t178.5 -99.5q138 -57 198 -129t60 -162q0 -113 -59.5 -181t-160 -98.5t-222.5 -30.5zM382 -376q-70 0 -119 11t-86 29l40 96q36 -18 78.5 -30t87.5 -12q37 0 61 14t30 48q7 39 -18 61.5t-101 37.5l-43 8
l165 166l76 -49l-71 -73l-43 18q97 -1 152.5 -52t38.5 -133q-16 -79 -86 -109.5t-162 -30.5z" />
    <glyph glyph-name="Scaron" unicode="&#x160;" horiz-adv-x="1203" 
d="M561 -17q-91 0 -171 18.5t-140.5 48t-92.5 61.5l-24 -116h-97l62 420h129q4 -108 49 -185.5t120 -118.5t169 -41q122 0 182.5 68t60.5 177q0 53 -24 98.5t-80 88.5t-156 89q-96 44 -172.5 98t-120.5 126t-44 171q0 132 66.5 215.5t178.5 123.5t248 40q116 0 209.5 -32
t139.5 -69l18 81h97l-53 -374h-131q-9 145 -86.5 226t-200.5 81q-61 0 -110 -21t-78.5 -64.5t-29.5 -112.5q0 -45 21.5 -86t78 -82.5t158.5 -89.5q116 -52 193 -109.5t115.5 -129t38.5 -167.5q0 -147 -66 -243.5t-184 -143t-273 -46.5zM614 1453l-142 278h122l173 -157
l245 157h123l-266 -278h-255z" />
    <glyph glyph-name="scaron" unicode="&#x161;" horiz-adv-x="1056" 
d="M474 -18q-126 0 -225 34t-153.5 105t-48.5 181h260q-2 -131 46.5 -186t129.5 -55q83 0 122.5 44.5t39.5 106.5q0 54 -44.5 99t-161.5 97q-141 61 -212 131.5t-71 162.5q0 78 35.5 131.5t95.5 85.5t135.5 46t155.5 14q122 0 214 -35t143 -99.5t46 -154.5h-260
q2 98 -38 154t-120 56q-59 0 -97.5 -29t-38.5 -88q0 -54 52.5 -100.5t178.5 -99.5q138 -57 198 -129t60 -162q0 -113 -59.5 -181t-160 -98.5t-222.5 -30.5zM484 1106l-142 277h123l172 -157l246 157h123l-267 -277h-255z" />
    <glyph glyph-name="uni0162" unicode="&#x162;" horiz-adv-x="1297" 
d="M188 0l16 76h169q15 0 30.5 9.5t20.5 32.5l242 1140h-153q-53 -1 -103 -44t-90.5 -108.5t-62.5 -133.5h-109l96 374h1177l-63 -374h-109q6 68 -6.5 133.5t-44 108.5t-83.5 44h-152l-243 -1140q-4 -23 7.5 -32.5t25.5 -9.5h169l-16 -76h-718zM452 -376q-70 0 -119 11
t-86 29l40 96q36 -18 78.5 -30t87.5 -12q37 0 61 14t30 48q7 39 -18 61.5t-101 37.5l-43 8l165 166l76 -49l-71 -73l-43 18q97 -1 152.5 -52t38.5 -133q-16 -79 -86 -109.5t-162 -30.5z" />
    <glyph glyph-name="uni0163" unicode="&#x163;" horiz-adv-x="751" 
d="M391 -11q-162 0 -222 80.5t-23 257.5l115 544h-161l20 92h165l53 242l278 23l-56 -265h242l-20 -92h-242l-120 -563q-17 -83 -11 -132.5t47 -70.5t128 -21h55l-16 -79q-43 -6 -100.5 -11t-131.5 -5zM229 -376q-70 0 -119 11t-86 29l40 96q36 -18 78.5 -30t87.5 -12
q37 0 61 14t30 48q7 39 -18 61.5t-101 37.5l-43 8l165 166l76 -49l-71 -73l-43 18q97 -1 152.5 -52t38.5 -133q-16 -79 -86 -109.5t-162 -30.5z" />
    <glyph glyph-name="Tcaron" unicode="&#x164;" horiz-adv-x="1297" 
d="M188 0l16 76h169q15 0 30.5 9.5t20.5 32.5l242 1140h-153q-53 -1 -103 -44t-90.5 -108.5t-62.5 -133.5h-109l96 374h1177l-63 -374h-109q6 68 -6.5 133.5t-44 108.5t-83.5 44h-152l-243 -1140q-4 -23 7.5 -32.5t25.5 -9.5h169l-16 -76h-718zM718 1452l-142 278h122
l173 -157l245 157h123l-266 -278h-255z" />
    <glyph glyph-name="tcaron" unicode="&#x165;" horiz-adv-x="751" 
d="M391 -11q-162 0 -222 80.5t-23 257.5l115 544h-161l20 92h165l53 242l278 23l-56 -265h242l-20 -92h-242l-120 -563q-17 -83 -11 -132.5t47 -70.5t128 -21h55l-16 -79q-43 -6 -100.5 -11t-131.5 -5zM682 1080l-6 58q63 17 106.5 53.5t61.5 86.5l12 -10q-61 0 -89 39
t-19 87q12 52 48.5 77.5t92.5 25.5q68 0 100.5 -44t18.5 -113q-14 -67 -64 -118t-119 -87t-143 -55z" />
    <glyph glyph-name="Tbar" unicode="&#x166;" horiz-adv-x="1297" 
d="M322 628l20 96h720l-21 -96h-719zM188 0l16 76h169q15 0 30.5 9.5t20.5 32.5l242 1140h-153q-53 -1 -103 -44t-90.5 -108.5t-62.5 -133.5h-109l96 374h1177l-63 -374h-109q6 68 -6.5 133.5t-44 108.5t-83.5 44h-152l-243 -1140q-4 -23 7.5 -32.5t25.5 -9.5h169l-16 -76
h-718z" />
    <glyph glyph-name="tbar" unicode="&#x167;" horiz-adv-x="751" 
d="M37 480l18 84h654l-18 -84h-654zM391 -11q-162 0 -222 80.5t-23 257.5l115 544h-161l20 92h165l53 242l278 23l-56 -265h242l-20 -92h-242l-120 -563q-17 -83 -11 -132.5t47 -70.5t128 -21h55l-16 -79q-43 -6 -100.5 -11t-131.5 -5z" />
    <glyph glyph-name="Utilde" unicode="&#x168;" horiz-adv-x="1523" 
d="M739 -19q-157 0 -273.5 43t-180.5 133t-64 230q0 36 4.5 76.5t16.5 92.5l143 668q1 7 1 10v6q0 17 -10.5 23.5t-23.5 6.5h-155l16 76h692l-16 -76h-156q-15 0 -31 -9.5t-21 -32.5l-156 -735q-9 -44 -13.5 -82.5t-4.5 -72.5q0 -132 70 -194t208 -62q162 0 265 88t147 293
l161 762q2 7 2 14q0 17 -10.5 24t-23.5 7h-157l16 76h491l-16 -76h-154q-15 0 -31 -9.5t-21 -32.5l-165 -780q-34 -158 -99.5 -262t-175 -154.5t-275.5 -50.5zM682 1454q31 123 93.5 181.5t143.5 58.5q48 0 84 -14t66 -28q34 -15 60.5 -27.5t56.5 -12.5q33 0 56.5 18.5
t38.5 64.5h98q-34 -122 -87.5 -176t-135.5 -54q-45 0 -79 11.5t-69 27.5q-35 17 -63.5 28t-58.5 11q-36 0 -62.5 -20t-45.5 -69h-96z" />
    <glyph glyph-name="utilde" unicode="&#x169;" horiz-adv-x="1281" 
d="M364 -16q-111 0 -168.5 59t-57.5 172q0 29 4.5 62.5t11.5 69.5l80 362q5 23 8 42.5t3 34.5q0 34 -13.5 52.5t-41.5 24.5l-75 16l14 66l441 23l-144 -656q-3 -15 -4.5 -28.5t-1.5 -26.5q0 -52 24.5 -83.5t69.5 -31.5t88.5 26.5t83.5 73.5t74 106l132 594l289 17l-156 -698
q-5 -23 -8 -42t-3 -36q0 -50 35.5 -71.5t125.5 -21.5l-14 -67q-53 -15 -108 -24.5t-117 -9.5q-57 0 -102 17t-70 57.5t-25 113.5q0 13 0.5 27.5t3.5 29.5q-43 -63 -98 -120.5t-125 -93.5t-156 -36zM401 1107q31 123 93.5 181.5t143.5 58.5q48 0 84 -14t66 -28
q34 -15 60.5 -27t56.5 -12q33 0 56.5 18t38.5 64h98q-34 -121 -87.5 -175.5t-135.5 -54.5q-45 0 -79 11.5t-69 28.5q-35 16 -63.5 27t-58.5 11q-36 0 -62.5 -20t-45.5 -69h-96z" />
    <glyph glyph-name="Umacron" unicode="&#x16a;" horiz-adv-x="1523" 
d="M739 -19q-157 0 -273.5 43t-180.5 133t-64 230q0 36 4.5 76.5t16.5 92.5l143 668q1 7 1 10v6q0 17 -10.5 23.5t-23.5 6.5h-155l16 76h692l-16 -76h-156q-15 0 -31 -9.5t-21 -32.5l-156 -735q-9 -44 -13.5 -82.5t-4.5 -72.5q0 -132 70 -194t208 -62q162 0 265 88t147 293
l161 762q2 7 2 14q0 17 -10.5 24t-23.5 7h-157l16 76h491l-16 -76h-154q-15 0 -31 -9.5t-21 -32.5l-165 -780q-34 -158 -99.5 -262t-175 -154.5t-275.5 -50.5zM736 1513l24 116h566l-24 -116h-566z" />
    <glyph glyph-name="umacron" unicode="&#x16b;" horiz-adv-x="1281" 
d="M364 -16q-111 0 -168.5 59t-57.5 172q0 29 4.5 62.5t11.5 69.5l80 362q5 23 8 42.5t3 34.5q0 34 -13.5 52.5t-41.5 24.5l-75 16l14 66l441 23l-144 -656q-3 -15 -4.5 -28.5t-1.5 -26.5q0 -52 24.5 -83.5t69.5 -31.5t88.5 26.5t83.5 73.5t74 106l132 594l289 17l-156 -698
q-5 -23 -8 -42t-3 -36q0 -50 35.5 -71.5t125.5 -21.5l-14 -67q-53 -15 -108 -24.5t-117 -9.5q-57 0 -102 17t-70 57.5t-25 113.5q0 13 0.5 27.5t3.5 29.5q-43 -63 -98 -120.5t-125 -93.5t-156 -36zM479 1166l25 117h565l-24 -117h-566z" />
    <glyph glyph-name="Ubreve" unicode="&#x16c;" horiz-adv-x="1523" 
d="M739 -19q-157 0 -273.5 43t-180.5 133t-64 230q0 36 4.5 76.5t16.5 92.5l143 668q1 7 1 10v6q0 17 -10.5 23.5t-23.5 6.5h-155l16 76h692l-16 -76h-156q-15 0 -31 -9.5t-21 -32.5l-156 -735q-9 -44 -13.5 -82.5t-4.5 -72.5q0 -132 70 -194t208 -62q162 0 265 88t147 293
l161 762q2 7 2 14q0 17 -10.5 24t-23.5 7h-157l16 76h491l-16 -76h-154q-15 0 -31 -9.5t-21 -32.5l-165 -780q-34 -158 -99.5 -262t-175 -154.5t-275.5 -50.5zM1006 1452q-131 0 -202.5 73t-58.5 206h129q-3 -53 17.5 -81.5t55.5 -39t73 -10.5q39 0 79 10.5t73.5 39.5
t51.5 81h127q-40 -132 -127.5 -205.5t-217.5 -73.5z" />
    <glyph glyph-name="ubreve" unicode="&#x16d;" horiz-adv-x="1281" 
d="M364 -16q-111 0 -168.5 59t-57.5 172q0 29 4.5 62.5t11.5 69.5l80 362q5 23 8 42.5t3 34.5q0 34 -13.5 52.5t-41.5 24.5l-75 16l14 66l441 23l-144 -656q-3 -15 -4.5 -28.5t-1.5 -26.5q0 -52 24.5 -83.5t69.5 -31.5t88.5 26.5t83.5 73.5t74 106l132 594l289 17l-156 -698
q-5 -23 -8 -42t-3 -36q0 -50 35.5 -71.5t125.5 -21.5l-14 -67q-53 -15 -108 -24.5t-117 -9.5q-57 0 -102 17t-70 57.5t-25 113.5q0 13 0.5 27.5t3.5 29.5q-43 -63 -98 -120.5t-125 -93.5t-156 -36zM766 1104q-144 0 -212 75.5t-57 204.5h128q-3 -53 19 -82t58.5 -40
t76.5 -11q60 0 121.5 27t89.5 106h126q-37 -128 -124.5 -204t-225.5 -76z" />
    <glyph glyph-name="Uring" unicode="&#x16e;" horiz-adv-x="1523" 
d="M739 -19q-157 0 -273.5 43t-180.5 133t-64 230q0 36 4.5 76.5t16.5 92.5l143 668q1 7 1 10v6q0 17 -10.5 23.5t-23.5 6.5h-155l16 76h692l-16 -76h-156q-15 0 -31 -9.5t-21 -32.5l-156 -735q-9 -44 -13.5 -82.5t-4.5 -72.5q0 -132 70 -194t208 -62q162 0 265 88t147 293
l161 762q2 7 2 14q0 17 -10.5 24t-23.5 7h-157l16 76h491l-16 -76h-154q-15 0 -31 -9.5t-21 -32.5l-165 -780q-34 -158 -99.5 -262t-175 -154.5t-275.5 -50.5zM1007 1376q-86 0 -147.5 55.5t-61.5 140.5q0 92 59 152t150 60q89 0 149 -57.5t60 -147.5q0 -88 -60 -145.5
t-149 -57.5zM1007 1484q40 0 68 28t28 67q0 41 -28 69t-68 28t-67.5 -28t-27.5 -69q0 -39 27.5 -67t67.5 -28z" />
    <glyph glyph-name="uring" unicode="&#x16f;" horiz-adv-x="1281" 
d="M364 -16q-111 0 -168.5 59t-57.5 172q0 29 4.5 62.5t11.5 69.5l80 362q5 23 8 42.5t3 34.5q0 34 -13.5 52.5t-41.5 24.5l-75 16l14 66l441 23l-144 -656q-3 -15 -4.5 -28.5t-1.5 -26.5q0 -52 24.5 -83.5t69.5 -31.5t88.5 26.5t83.5 73.5t74 106l132 594l289 17l-156 -698
q-5 -23 -8 -42t-3 -36q0 -50 35.5 -71.5t125.5 -21.5l-14 -67q-53 -15 -108 -24.5t-117 -9.5q-57 0 -102 17t-70 57.5t-25 113.5q0 13 0.5 27.5t3.5 29.5q-43 -63 -98 -120.5t-125 -93.5t-156 -36zM756 1079q-93 0 -153.5 55t-60.5 148q0 92 60.5 146.5t153.5 54.5
q94 0 154.5 -54.5t60.5 -146.5q0 -93 -60.5 -148t-154.5 -55zM756 1167q50 0 82 32.5t32 82.5t-32 81.5t-82 31.5q-48 0 -80 -31.5t-32 -81.5t32 -82.5t80 -32.5z" />
    <glyph glyph-name="Uhungarumlaut" unicode="&#x170;" horiz-adv-x="1523" 
d="M739 -19q-157 0 -273.5 43t-180.5 133t-64 230q0 36 4.5 76.5t16.5 92.5l143 668q1 7 1 10v6q0 17 -10.5 23.5t-23.5 6.5h-155l16 76h692l-16 -76h-156q-15 0 -31 -9.5t-21 -32.5l-156 -735q-9 -44 -13.5 -82.5t-4.5 -72.5q0 -132 70 -194t208 -62q162 0 265 88t147 293
l161 762q2 7 2 14q0 17 -10.5 24t-23.5 7h-157l16 76h491l-16 -76h-154q-15 0 -31 -9.5t-21 -32.5l-165 -780q-34 -158 -99.5 -262t-175 -154.5t-275.5 -50.5zM690 1452l228 278h302l-397 -278h-133zM1059 1452l228 278h302l-397 -278h-133z" />
    <glyph glyph-name="uhungarumlaut" unicode="&#x171;" horiz-adv-x="1281" 
d="M364 -16q-111 0 -168.5 59t-57.5 172q0 29 4.5 62.5t11.5 69.5l80 362q5 23 8 42.5t3 34.5q0 34 -13.5 52.5t-41.5 24.5l-75 16l14 66l441 23l-144 -656q-3 -15 -4.5 -28.5t-1.5 -26.5q0 -52 24.5 -83.5t69.5 -31.5t88.5 26.5t83.5 73.5t74 106l132 594l289 17l-156 -698
q-5 -23 -8 -42t-3 -36q0 -50 35.5 -71.5t125.5 -21.5l-14 -67q-53 -15 -108 -24.5t-117 -9.5q-57 0 -102 17t-70 57.5t-25 113.5q0 13 0.5 27.5t3.5 29.5q-43 -63 -98 -120.5t-125 -93.5t-156 -36zM432 1106l228 277h302l-397 -277h-133zM801 1106l228 277h302l-397 -277
h-133z" />
    <glyph glyph-name="Uogonek" unicode="&#x172;" horiz-adv-x="1523" 
d="M739 -19q-157 0 -273.5 43t-180.5 133t-64 230q0 36 4.5 76.5t16.5 92.5l143 668q1 7 1 10v6q0 17 -10.5 23.5t-23.5 6.5h-155l16 76h692l-16 -76h-156q-15 0 -31 -9.5t-21 -32.5l-156 -735q-9 -44 -13.5 -82.5t-4.5 -72.5q0 -132 70 -194t208 -62q162 0 265 88t147 293
l161 762q2 7 2 14q0 17 -10.5 24t-23.5 7h-157l16 76h491l-16 -76h-154q-15 0 -31 -9.5t-21 -32.5l-165 -780q-34 -158 -99.5 -262t-175 -154.5t-275.5 -50.5zM708 -377q-89 0 -138.5 44t-32.5 123q18 83 109.5 151t223.5 89l48 -30q-90 -39 -140 -90.5t-62 -109.5
q-9 -41 6 -67.5t67 -26.5q22 0 53.5 6.5t65.5 20.5l-15 -72q-39 -17 -85 -27.5t-100 -10.5z" />
    <glyph glyph-name="uogonek" unicode="&#x173;" horiz-adv-x="1281" 
d="M364 -16q-111 0 -168.5 59t-57.5 172q0 29 4.5 62.5t11.5 69.5l80 362q5 23 8 42.5t3 34.5q0 34 -13.5 52.5t-41.5 24.5l-75 16l14 66l441 23l-144 -656q-3 -15 -4.5 -28.5t-1.5 -26.5q0 -52 24.5 -83.5t69.5 -31.5t88.5 26.5t83.5 73.5t74 106l132 594l289 17l-156 -698
q-5 -23 -8 -42t-3 -36q0 -50 35.5 -71.5t125.5 -21.5l-14 -67q-53 -15 -108 -24.5t-117 -9.5q-57 0 -102 17t-70 57.5t-25 113.5q0 13 0.5 27.5t3.5 29.5q-43 -63 -98 -120.5t-125 -93.5t-156 -36zM829 -377q-89 0 -138.5 44t-32.5 123q18 83 109.5 151t223.5 89l48 -30
q-90 -39 -140 -90.5t-62 -109.5q-9 -41 6 -67.5t67 -26.5q22 0 53.5 6.5t65.5 20.5l-15 -72q-39 -17 -85 -27.5t-100 -10.5z" />
    <glyph glyph-name="Wcircumflex" unicode="&#x174;" horiz-adv-x="2153" 
d="M1290 0l-191 1211q-6 37 -18 48t-37 11h-88l15 76h618l-16 -76h-147q-23 0 -34.5 -17t-5.5 -56l147 -953l-63 -29l571 974q25 42 21 61.5t-35 19.5h-151l16 76h454l-16 -76h-89q-25 0 -42 -12t-39 -50l-718 -1208h-152zM502 0l-192 1217q-5 32 -16.5 42.5t-37.5 10.5h-99
l16 76h628l-15 -76h-148q-17 0 -32 -12t-9 -49l144 -964l-57 -29l505 863l42 -108l-577 -971h-152zM964 1452l259 277h255l149 -277h-122l-175 156l-236 -156h-130z" />
    <glyph glyph-name="wcircumflex" unicode="&#x175;" horiz-adv-x="1630" 
d="M836 0l-73 949l263 1l56 -800q151 152 238.5 327.5t90.5 369.5q0 27 -1.5 54.5t-6.5 55.5h241q-1 -121 -54.5 -250t-139.5 -255.5t-188 -242t-202 -209.5h-224zM250 0l-54 709q-5 72 -18 108t-55 46l-66 16l14 66l365 21l61 -816q113 130 193.5 248.5t133.5 217.5l81 -49
q-53 -86 -114.5 -174t-138.5 -184.5t-178 -208.5h-224zM607 1092l259 277h255l149 -277h-122l-175 156l-235 -156h-131z" />
    <glyph glyph-name="Ycircumflex" unicode="&#x176;" horiz-adv-x="1346" 
d="M211 0l16 76h154q16 0 32 9.5t20 32.5l105 494l-225 598q-10 27 -27 43.5t-55 16.5h-49l15 76h621l-16 -76h-139q-43 0 -50 -31q-2 -12 2.5 -29.5t8.5 -31.5l168 -486l387 474q18 23 29.5 40.5t14.5 32.5q7 31 -30 31h-128l15 76h437l-16 -76h-51q-34 0 -67.5 -16.5
t-67.5 -57.5l-479 -577l-106 -501q-5 -23 6 -32.5t26 -9.5h155l-16 -76h-690zM560 1452l259 277h255l149 -277h-122l-175 156l-236 -156h-130z" />
    <glyph glyph-name="ycircumflex" unicode="&#x177;" horiz-adv-x="1008" 
d="M-220 -366l18 78q102 0 189 30.5t164 83.5t149 121l31 29l-153 748q-9 47 -19 75t-24 43.5t-38 20.5l-66 16l14 66l358 21l149 -800q119 137 177.5 289t62.5 321q0 42 -3.5 87.5t-10.5 93.5h242q-2 -121 -45 -243t-114 -240t-156.5 -230t-170.5 -213
q-88 -105 -156.5 -180t-135 -123t-145.5 -71t-188 -23h-129zM263 1106l259 277h255l149 -277h-122l-175 156l-235 -156h-131z" />
    <glyph glyph-name="Ydieresis" unicode="&#x178;" horiz-adv-x="1346" 
d="M211 0l16 76h154q16 0 32 9.5t20 32.5l105 494l-225 598q-10 27 -27 43.5t-55 16.5h-49l15 76h621l-16 -76h-139q-43 0 -50 -31q-2 -12 2.5 -29.5t8.5 -31.5l168 -486l387 474q18 23 29.5 40.5t14.5 32.5q7 31 -30 31h-128l15 76h437l-16 -76h-51q-34 0 -67.5 -16.5
t-67.5 -57.5l-479 -577l-106 -501q-5 -23 6 -32.5t26 -9.5h155l-16 -76h-690zM1094 1468q-49 0 -85 36t-36 86t36 86t85 36q50 0 85.5 -36t35.5 -86t-35.5 -86t-85.5 -36zM707 1468q-51 0 -86.5 36t-35.5 86t35.5 86t86.5 36q48 0 84 -36t36 -86t-36 -86t-84 -36z" />
    <glyph glyph-name="Zacute" unicode="&#x179;" horiz-adv-x="1222" 
d="M-34 0l17 79l921 1175h-341q-45 0 -83.5 -30.5t-71 -77.5t-58.5 -100t-45 -101h-109l105 401h967l-14 -66l-935 -1188h439q51 0 92.5 30.5t74 77.5t58.5 100.5t44 100.5h109l-105 -401h-1065zM684 1452l229 278h301l-397 -278h-133z" />
    <glyph glyph-name="zacute" unicode="&#x17a;" horiz-adv-x="1032" 
d="M-46 0l13 57l715 836h-205q-67 0 -120 -37.5t-91.5 -92.5t-64.5 -108h-73l86 308h800l-12 -58l-704 -833h281q80 0 132.5 39.5t87 97.5t60.5 110h73l-88 -319l-7 2v-2h-883zM493 1106l228 277h302l-397 -277h-133z" />
    <glyph glyph-name="Zdotaccent" unicode="&#x17b;" horiz-adv-x="1222" 
d="M-34 0l17 79l921 1175h-341q-45 0 -83.5 -30.5t-71 -77.5t-58.5 -100t-45 -101h-109l105 401h967l-14 -66l-935 -1188h439q51 0 92.5 30.5t74 77.5t58.5 100.5t44 100.5h109l-105 -401h-1065zM808 1466q-76 0 -116 39.5t-40 96.5q0 54 40 93t116 39t116 -39t40 -93
q0 -57 -40 -96.5t-116 -39.5z" />
    <glyph glyph-name="zdotaccent" unicode="&#x17c;" horiz-adv-x="1032" 
d="M-46 0l13 57l715 836h-205q-67 0 -120 -37.5t-91.5 -92.5t-64.5 -108h-73l86 308h800l-12 -58l-704 -833h281q80 0 132.5 39.5t87 97.5t60.5 110h73l-88 -319l-7 2v-2h-883zM639 1100q-76 0 -116 39.5t-40 96.5q0 54 40 93.5t116 39.5t116 -39.5t40 -93.5
q0 -57 -40 -96.5t-116 -39.5z" />
    <glyph glyph-name="Zcaron" unicode="&#x17d;" horiz-adv-x="1222" 
d="M-34 0l17 79l921 1175h-341q-45 0 -83.5 -30.5t-71 -77.5t-58.5 -100t-45 -101h-109l105 401h967l-14 -66l-935 -1188h439q51 0 92.5 30.5t74 77.5t58.5 100.5t44 100.5h109l-105 -401h-1065zM667 1452l-142 278h122l173 -157l245 157h123l-266 -278h-255z" />
    <glyph glyph-name="zcaron" unicode="&#x17e;" horiz-adv-x="1032" 
d="M-46 0l13 57l715 836h-205q-67 0 -120 -37.5t-91.5 -92.5t-64.5 -108h-73l86 308h800l-12 -58l-704 -833h281q80 0 132.5 39.5t87 97.5t60.5 110h73l-88 -319l-7 2v-2h-883zM487 1106l-142 277h123l172 -157l246 157h123l-267 -277h-255z" />
    <glyph glyph-name="longs" unicode="&#x17f;" horiz-adv-x="621" 
d="M-171 -359l15 74q98 0 158 61.5t94 222.5l211 995q37 169 104.5 267.5t160 141t203.5 42.5q162 0 225 -70.5t53 -170.5h-244q11 87 -0.5 130t-52.5 43q-49 0 -82 -69t-63 -207l-247 -1154q-24 -112 -83.5 -179t-150 -97t-207.5 -30h-94zM122 877l18 86h346l-19 -86h-345z
" />
    <glyph glyph-name="uni0181" unicode="&#x181;" horiz-adv-x="1663" 
d="M196 0l15 76h155q15 0 31 8.5t20 32.5l262 1229l468 1q214 1 327.5 -79t113.5 -219q0 -138 -87.5 -223t-222.5 -115q128 -29 199 -102t71 -192q0 -114 -51.5 -193.5t-140 -128.5t-199 -72t-227.5 -23h-734zM708 83h197q116 0 190.5 51.5t109.5 135.5t35 179
q0 114 -61.5 165.5t-163.5 51.5h-186zM129 880l23 110q27 126 101 204.5t184 115t243 36.5l-13 -83q-99 -4 -174 -69t-105 -208l-22 -106h-237zM847 749h167q106 0 170.5 45t94 118t29.5 156q0 99 -53 147t-141 48h-157z" />
    <glyph glyph-name="uni0186" unicode="&#x186;" horiz-adv-x="1511" 
d="M693 -19q-247 0 -395 130t-172 352h297q4 -73 19.5 -143.5t47.5 -127.5t86.5 -91t135.5 -34q84 0 149 41.5t114 111.5t83 157.5t55 180.5t30.5 178.5t9.5 152.5q0 117 -29 204.5t-89.5 137t-154.5 49.5q-159 0 -254 -117.5t-147 -306.5h-307q76 244 255.5 377t458.5 133
q183 0 312 -70.5t196.5 -199t67.5 -300.5q0 -116 -26 -233t-82 -221.5t-146 -185.5t-217.5 -128t-297.5 -47z" />
    <glyph glyph-name="uni0189" unicode="&#x189;" horiz-adv-x="1536" 
d="M90 628l20 96h720l-21 -96h-719zM-60 0l16 76h155q15 0 30.5 8.5t20.5 31.5l236 1110q1 5 1.5 9t0.5 7q0 15 -11 21.5t-24 6.5h-154l16 76h638q191 0 329.5 -72t213.5 -201.5t75 -303.5q0 -127 -31.5 -242t-96 -211.5t-162.5 -167t-230.5 -109.5t-301.5 -39h-721zM451 84
h168q135 0 231 49.5t158.5 130.5t97.5 178.5t49.5 195.5t14.5 179q0 202 -86.5 323.5t-254.5 121.5h-128z" />
    <glyph glyph-name="uni018A" unicode="&#x18a;" horiz-adv-x="1793" 
d="M198 0l15 76h155q15 0 30.5 8.5t20.5 31.5l262 1230h442q190 0 328.5 -72t213.5 -201.5t75 -303.5q0 -127 -31.5 -242t-96 -211.5t-162 -167t-230.5 -109.5t-302 -39h-720zM129 880l23 110q27 126 101 204.5t184 115t243 36.5l-15 -83q-100 -4 -173.5 -69t-103.5 -208
l-22 -106h-237zM708 84h168q136 0 231.5 49.5t158 130.5t97.5 178.5t49.5 195.5t14.5 179q0 202 -86.5 323.5t-254.5 121.5h-128z" />
    <glyph glyph-name="uni018E" unicode="&#x18e;" horiz-adv-x="1220" 
d="M-25 0l66 401h108q-1 -48 1 -103t15.5 -103.5t44.5 -79t86 -30.5h302l118 558h-486l18 84h486l114 534h-291q-50 0 -98 -42t-87 -105t-62 -129h-108l93 361h1064l-16 -76h-154q-15 0 -31 -8.5t-21 -32.5l-236 -1114q-4 -22 7 -30.5t26 -8.5h155l-16 -76h-1098z" />
    <glyph glyph-name="uni018F" unicode="&#x18f;" horiz-adv-x="1400" 
d="M647 -18q-186 0 -314.5 81.5t-183 234t-18.5 364.5l292 -79q-20 -152 -2.5 -268t76.5 -181.5t162 -65.5q101 0 169 62t115.5 187.5t87.5 315.5q29 138 30 253t-28.5 200t-92 131t-159.5 46q-152 0 -268 -94.5t-175 -299.5h-163q70 239 225 367t409 128q210 0 343 -98.5
t180.5 -273t-1.5 -404.5q-64 -305 -234.5 -455.5t-449.5 -150.5zM167 576l-36 86h1029l-18 -86h-975z" />
    <glyph glyph-name="uni0190" unicode="&#x190;" horiz-adv-x="1265" 
d="M584 -17q-244 0 -378.5 96.5t-134.5 259.5q0 111 53 189.5t145 124.5t205 61q-110 31 -172 104.5t-62 174.5q0 95 41 164.5t113 116t167 69t204 22.5q93 0 174 -18.5t140 -45t86 -51.5l-93 -299q8 138 -61 233t-207 95q-77 0 -129 -29.5t-83 -76.5t-44.5 -101.5
t-13.5 -105.5q0 -94 55.5 -149t144.5 -55h93l-22 -105h-85q-84 0 -147 -28.5t-106 -77.5t-64.5 -110.5t-21.5 -127.5q0 -113 65.5 -170.5t171.5 -57.5q155 0 257.5 98.5t152.5 294.5h163q-41 -155 -117.5 -266t-196.5 -170t-293 -59zM1072 951l108 396h97l-62 -396h-143z
" />
    <glyph glyph-name="uni0191" unicode="&#x191;" horiz-adv-x="1180" 
d="M-174 -359l15 74q114 0 187 61t104 207l264 1243q6 26 -6 35t-27 9h-154l16 76h1061l-60 -361h-109q6 66 -5.5 129.5t-41.5 105.5t-80 42h-289l-114 -535h451l-18 -82h-450l-143 -669q-27 -127 -89 -200t-153.5 -104t-208.5 -31h-150z" />
    <glyph glyph-name="florin" unicode="&#x192;" horiz-adv-x="907" 
d="M-171 -359l15 74q98 0 158 61.5t94 222.5l211 995q37 169 104.5 267.5t160 141t203.5 42.5q162 0 225 -70.5t53 -170.5h-244q11 87 -0.5 130t-52.5 43q-49 0 -82 -69t-63 -207l-247 -1154q-24 -112 -83.5 -179t-150 -97t-207.5 -30h-94zM122 877l18 86h647l-18 -86h-647z
" />
    <glyph glyph-name="uni0194" unicode="&#x194;" horiz-adv-x="1340" 
d="M571 -17q-78 0 -121 38.5t-43 106.5q0 58 27.5 120t83 136t137.5 166l572 653q23 26 23 44q0 12 -8.5 17.5t-20.5 5.5h-165l17 76h459l-16 -76h-94q-17 0 -41 -16.5t-51 -46.5l-630 -710q-104 -116 -151.5 -212.5t-47.5 -155.5q0 -25 11 -42t34 -17q28 0 44 30t23.5 72.5
t7.5 79.5q0 58 -15.5 128t-47.5 155l-240 678q-12 30 -24 43.5t-38 13.5h-99l16 76h637l-16 -76h-147q-14 0 -30 -7.5t-16 -27.5q0 -6 1.5 -13t4.5 -15l193 -542q32 -87 51.5 -166.5t19.5 -156.5q0 -86 -30 -168.5t-96.5 -136.5t-173.5 -54z" />
    <glyph glyph-name="uni0198" unicode="&#x198;" horiz-adv-x="1418" 
d="M-59 0l16 76h155q15 0 30.5 9.5t20.5 32.5l236 1110q5 23 -6.5 32.5t-27.5 9.5h-154l16 76h692l-17 -76h-156q-15 0 -30.5 -9.5t-20.5 -32.5l-116 -545l416 381q101 92 181 156t155.5 98t162.5 34h40l-45 -211h-65q-82 0 -143.5 -16.5t-115.5 -51.5t-115 -89l-232 -210
l322 -619q18 -33 43.5 -56t89.5 -23h59l-16 -76h-421l-321 658l-114 -540q-6 -23 6 -32.5t27 -9.5h156l-17 -76h-691z" />
    <glyph glyph-name="uni0199" unicode="&#x199;" horiz-adv-x="1155" 
d="M50 0l235 1104q28 130 89 204.5t152 106t208 31.5h144l-15 -75q-118 0 -190.5 -52t-101.5 -184l-239 -1135h-282zM672 0l-239 494v5l335 300q96 85 171.5 124.5t158.5 39.5h33l-37 -161h-61q-56 0 -118.5 -18t-128.5 -78l-116 -106l213 -428q32 -62 62 -82.5t73 -20.5h23
l-15 -69h-354z" />
    <glyph glyph-name="Ohorn" unicode="&#x1a0;" horiz-adv-x="1602" 
d="M1408 968l-8 72q74 23 124.5 65.5t74.5 116.5l11 -13q-62 6 -94.5 49.5t-18.5 108.5q12 57 54.5 91.5t112.5 34.5q81 0 121.5 -56.5t19.5 -153.5q-20 -96 -82.5 -162t-146 -103t-168.5 -50zM707 -19q-182 0 -312 70t-198.5 197t-68.5 299q0 143 42 288t133 265t238 193
t359 73q182 0 310 -70.5t195.5 -199t67.5 -300.5q0 -146 -41 -290t-131.5 -263t-236.5 -190.5t-357 -71.5zM717 67q95 0 168 58.5t125.5 153t86 205.5t49.5 218.5t16 188.5q0 116 -29 203.5t-88 136.5t-151 49q-103 0 -179 -58t-128.5 -151.5t-84.5 -204t-46.5 -217.5
t-14.5 -188q0 -114 29 -203.5t90.5 -140t156.5 -50.5z" />
    <glyph glyph-name="ohorn" unicode="&#x1a1;" horiz-adv-x="1199" 
d="M998 723l-15 58q77 25 129 66t73 109l11 -11q-74 0 -113.5 44t-28.5 107q10 55 50.5 86t101.5 31q77 0 120 -50.5t26 -142.5q-14 -86 -68 -147.5t-130 -98t-156 -51.5zM493 -16q-198 0 -307 112t-109 291q0 101 32.5 205.5t101 192.5t177 142.5t260.5 54.5
q196 0 302.5 -114t106.5 -296q0 -110 -34.5 -215t-104.5 -189.5t-175.5 -134t-249.5 -49.5zM504 67q65 0 113 44.5t81 115.5t53.5 151.5t29.5 154.5t9 123q0 108 -37 175t-116 67q-65 0 -113 -42t-81.5 -109t-54 -144.5t-30 -150.5t-9.5 -124q0 -74 16.5 -133t51 -93.5
t87.5 -34.5z" />
    <glyph glyph-name="Uhorn" unicode="&#x1af;" horiz-adv-x="1672" 
d="M739 -19q-184 0 -311 58.5t-179.5 178.5t-13.5 304l150 706q5 23 -6 32.5t-27 9.5h-155l16 76h692l-16 -76h-156q-15 0 -31 -9.5t-21 -32.5l-156 -735q-45 -215 21 -313.5t239 -98.5q162 0 265 88.5t147 293.5l162 765q5 23 -6.5 32.5t-26.5 9.5h-157l16 76h295
l-189 -887q-34 -164 -98 -269.5t-173 -157t-281 -51.5zM1390 962v76q50 16 109.5 40t108.5 59.5t64 84.5l12 -13q-62 6 -94.5 49.5t-19.5 108.5q13 57 55.5 91.5t111.5 34.5q81 0 122 -56.5t20 -153.5q-15 -72 -67.5 -127.5t-125.5 -94.5t-151 -63.5t-145 -35.5z" />
    <glyph glyph-name="uhorn" unicode="&#x1b0;" horiz-adv-x="1374" 
d="M1124 723l-15 58q95 25 158.5 66t89.5 109l11 -11q-74 0 -113.5 44t-28.5 107q10 55 50.5 86t100.5 31q77 0 120 -50.5t27 -142.5q-15 -87 -76.5 -148t-147.5 -97.5t-176 -51.5zM364 -16q-111 0 -168.5 59t-57.5 172q0 29 4.5 62.5t11.5 69.5l80 362q5 23 8 42.5t3 34.5
q0 34 -13.5 52.5t-41.5 24.5l-75 16l14 66l441 23l-144 -656q-3 -15 -4.5 -28.5t-1.5 -26.5q0 -52 24.5 -83.5t69.5 -31.5t88.5 26.5t83.5 73.5t74 106l132 594l289 17l-156 -698q-5 -23 -8 -42t-3 -36q0 -50 35.5 -71.5t125.5 -21.5l-14 -67q-53 -15 -108 -24.5t-117 -9.5
q-57 0 -102 17t-70 57.5t-25 113.5q0 13 0.5 27.5t3.5 29.5q-43 -63 -98 -120.5t-125 -93.5t-156 -36z" />
    <glyph glyph-name="uni01B2" unicode="&#x1b2;" horiz-adv-x="1472" 
d="M739 -19q-158 0 -274.5 43t-180.5 132t-64 225q0 34 4 70.5t12 76.5l149 700q1 4 1 12q0 17 -10.5 23.5t-23.5 6.5h-155l16 76h692l-16 -76h-156q-15 0 -31 -9.5t-21 -32.5l-156 -735q-9 -44 -13.5 -82.5t-4.5 -72.5q0 -132 70 -194t208 -62q162 0 265 86.5t144 279.5
l105 495q4 20 6 38t2 33q0 75 -43.5 101t-105.5 26h-58l45 211h32q62 0 118.5 -18.5t92 -65.5t35.5 -134q0 -23 -3.5 -50t-9.5 -58l-123 -588q-32 -153 -95 -254.5t-172 -152t-281 -50.5z" />
    <glyph glyph-name="uni01B3" unicode="&#x1b3;" horiz-adv-x="1321" 
d="M212 0l16 76h154q16 0 31.5 9.5t20.5 32.5l105 494l-225 598q-10 27 -26 43.5t-43 16.5h-63l16 76h621l-17 -76h-147q-35 0 -41 -28q-2 -15 2 -32.5t9 -31.5l170 -484l266 381q58 81 113 145t117 100t141 36h31l-45 -210h-70q-57 0 -105 -26.5t-89 -68.5t-77 -92
l-241 -340l-107 -504q-4 -22 8 -30.5t26 -8.5h155l-16 -76h-690z" />
    <glyph glyph-name="uni01B4" unicode="&#x1b4;" horiz-adv-x="1191" 
d="M-220 -366l18 78q165 0 287 54.5t222 173.5l31 36l-160 748q-10 47 -19.5 75t-23.5 43.5t-38 20.5l-66 16l14 66l358 21l143 -780l425 790q65 122 143.5 176t183.5 54h47l-37 -161h-34q-43 0 -84 -10t-80.5 -43t-79.5 -103l-478 -848q-85 -151 -178 -240.5t-206 -128
t-259 -38.5h-129z" />
    <glyph glyph-name="uni01B7" unicode="&#x1b7;" horiz-adv-x="1270" 
d="M571 -17q-260 0 -382.5 123t-122.5 340h163q0 -106 30.5 -188t98 -128t179.5 -46q86 0 146 29.5t96.5 80t53.5 114.5t17 133q0 121 -78.5 191.5t-212.5 70.5h-52l14 73l463 478h-355q-57 0 -103.5 -42.5t-81.5 -101t-60 -107.5h-109l93 343h943l-15 -66l-473 -483
q97 -10 174 -54.5t121 -116.5t44 -168q0 -115 -44 -203.5t-124 -148.5t-188 -91.5t-235 -31.5z" />
    <glyph glyph-name="uni01DD" unicode="&#x1dd;" horiz-adv-x="1111" 
d="M448 -17q-178 0 -270 63t-92 164q0 66 34 125.5t113 105.5t212.5 72t331.5 26l-19 -40q3 19 4.5 42t1.5 46q0 120 -46.5 203t-156.5 83q-95 0 -157.5 -57.5t-89.5 -177.5h-199q43 161 161.5 251t306.5 90q146 0 246 -50.5t152 -142.5t52 -217q0 -107 -34.5 -210.5
t-106 -188.5t-182 -136t-262.5 -51zM463 71q71 0 129 47.5t101 134.5t64 202l23 -7q-220 0 -329.5 -71.5t-109.5 -185.5q0 -55 31.5 -87.5t90.5 -32.5z" />
    <glyph glyph-name="Gcaron" unicode="&#x1e6;" horiz-adv-x="1466" 
d="M703 -19q-176 0 -305 68t-199 195.5t-70 305.5q0 113 26 228t83 220t150 188t226 130.5t311 48.5q80 -1 156 -15.5t138 -36.5t99 -47l21 80h97l-72 -439h-144q-16 168 -95.5 270t-214.5 102q-113 1 -195.5 -54t-137.5 -145.5t-88 -198t-47 -213.5t-14 -190
q0 -176 68.5 -286t219.5 -110q109 0 184.5 55.5t122 159.5t67.5 250h-297l18 85h595l-22 -91q-37 -164 -118.5 -290.5t-218.5 -198t-344 -71.5zM806 1452l-142 278h122l173 -157l245 157h123l-266 -278h-255z" />
    <glyph glyph-name="gcaron" unicode="&#x1e7;" horiz-adv-x="1056" 
d="M389 -377q-163 0 -260 32.5t-139.5 83.5t-42.5 107q0 61 34 102.5t90 68.5t121 42.5t126 23.5l60 125l158 -2q204 -3 302.5 -68.5t98.5 -183.5q0 -96 -46 -160.5t-124 -102t-176 -53t-202 -15.5zM409 -296q78 0 134.5 23t88 65t31.5 98q0 58 -45.5 89t-151.5 34l-147 6
q-56 -18 -96 -63.5t-40 -100.5q0 -59 54 -105t172 -46zM312 48q-141 13 -205.5 60t-64.5 104q0 69 68 113t189 80l32 -46q-27 -7 -56.5 -26.5t-32.5 -50.5t53 -53t203 -23zM506 317q-192 0 -291 83.5t-99 211.5q0 115 62 198t168 128t236 45q191 0 287 -81.5t96 -213.5
q0 -117 -60 -200t-164 -127t-235 -44zM510 394q54 0 92.5 32t62.5 83t36 108.5t12 107.5q0 94 -37.5 138t-97.5 44q-54 0 -92.5 -31.5t-63 -81t-36.5 -105t-12 -105.5q0 -97 40 -143.5t96 -46.5zM812 856l-20 77q56 106 145 145t207 39l-34 -201q-54 7 -108 4t-103 -18
t-87 -46zM485 1108l-142 277h123l172 -157l246 157h123l-267 -277h-255z" />
    <glyph glyph-name="uni01EA" unicode="&#x1ea;" horiz-adv-x="1522" 
d="M707 -19q-182 0 -312 70t-198.5 197t-68.5 299q0 143 42 288t133 265t238 193t359 73q182 0 310 -70.5t195.5 -199t67.5 -300.5q0 -146 -41 -290t-131.5 -263t-236.5 -190.5t-357 -71.5zM717 67q95 0 168 58.5t125.5 153t86 205.5t49.5 218.5t16 188.5q0 116 -29 203.5
t-88 136.5t-151 49q-103 0 -179 -58t-128.5 -151.5t-84.5 -204t-46.5 -217.5t-14.5 -188q0 -114 29 -203.5t90.5 -140t156.5 -50.5zM690 -374q-89 0 -138.5 44t-32.5 123q18 83 109.5 151t223.5 89l48 -30q-90 -39 -140 -90.5t-62 -109.5q-9 -41 6 -67.5t67 -26.5
q22 0 53.5 6.5t65.5 20.5l-15 -72q-39 -17 -85 -27.5t-100 -10.5z" />
    <glyph glyph-name="uni01EB" unicode="&#x1eb;" horiz-adv-x="1136" 
d="M493 -16q-198 0 -307 112t-109 291q0 101 32.5 205.5t101 192.5t177 142.5t260.5 54.5q196 0 302.5 -114t106.5 -296q0 -110 -34.5 -215t-104.5 -189.5t-175.5 -134t-249.5 -49.5zM504 67q65 0 113 44.5t81 115.5t53.5 151.5t29.5 154.5t9 123q0 108 -37 175t-116 67
q-65 0 -113 -42t-81.5 -109t-54 -144.5t-30 -150.5t-9.5 -124q0 -74 16.5 -133t51 -93.5t87.5 -34.5zM421 -377q-89 0 -138.5 44t-32.5 123q18 83 109.5 151t223.5 89l48 -30q-90 -39 -140 -90.5t-62 -109.5q-9 -41 6 -67.5t67 -26.5q22 0 53.5 6.5t65.5 20.5l-15 -72
q-39 -17 -85 -27.5t-100 -10.5z" />
    <glyph glyph-name="uni01F8" unicode="&#x1f8;" horiz-adv-x="1586" 
d="M-60 0l16 76h154q16 0 31.5 9.5t20.5 32.5l236 1110q5 23 -6.5 32.5t-26.5 9.5h-155l16 76h458l540 -994l187 876q5 23 -6.5 32.5t-26.5 9.5h-157l16 76h488l-16 -76h-154q-15 0 -30.5 -9.5t-20.5 -32.5l-261 -1228h-141l-631 1153l-220 -1035q-5 -23 6.5 -32.5
t26.5 -9.5h156l-16 -76h-484zM966 1452l-278 278h295l104 -278h-121z" />
    <glyph glyph-name="uni01F9" unicode="&#x1f9;" horiz-adv-x="1266" 
d="M953 -16q-60 0 -107.5 15.5t-75.5 54t-28 106.5q0 22 4 51.5t10 55.5l79 373q4 18 5.5 33.5t1.5 29.5q0 48 -22 79t-71 31q-45 0 -88.5 -27t-83.5 -73.5t-76 -107.5l-133 -605h-279l156 709q5 23 7.5 42.5t2.5 34.5q0 34 -13 52.5t-41 24.5l-75 16l14 66l415 23l-36 -242
q46 69 101.5 125t124.5 88t152 32q111 0 168.5 -59t57.5 -173q0 -28 -4 -61.5t-12 -69.5l-78 -359q-3 -16 -5 -30.5t-2 -27.5q0 -56 36.5 -84t123.5 -28l-15 -67q-49 -14 -101 -21t-113 -7zM745 1106l-278 277h295l105 -277h-122z" />
    <glyph glyph-name="Aringacute" unicode="&#x1fa;" horiz-adv-x="1381" 
d="M-109 0l16 76h107q18 0 33 11.5t36 46.5l719 1212h151l193 -1214q6 -34 17.5 -45t37.5 -11h99l-16 -76h-629l15 76h154q16 0 30.5 11.5t10.5 47.5l-134 970l39 29l-580 -995q-23 -38 -13 -50.5t27 -12.5h165l-16 -76h-462zM336 454l11 83h697l-11 -83h-697zM875 1239
q-86 0 -147.5 55.5t-61.5 140.5q0 92 59 152t150 60q89 0 149 -57.5t60 -147.5q0 -88 -60 -145.5t-149 -57.5zM875 1347q40 0 68 28t28 67q0 41 -28 69t-68 28t-67.5 -28t-27.5 -69q0 -39 27.5 -67t67.5 -28zM777 1678l229 278h301l-397 -278h-133z" />
    <glyph glyph-name="aringacute" unicode="&#x1fb;" horiz-adv-x="1245" 
d="M378 -17q-138 0 -224.5 91.5t-86.5 258.5q0 117 36.5 231.5t105 208.5t166 150t219.5 56q93 0 161 -44t97 -93l48 119h253l-150 -705q-3 -17 -5 -32.5t-2 -28.5q0 -57 37.5 -85.5t126.5 -28.5l-14 -67q-51 -14 -95 -21t-110 -7q-98 0 -155 45.5t-72 126.5
q-55 -74 -137.5 -124.5t-198.5 -50.5zM489 105q73 0 138.5 51.5t102.5 121.5l96 459q-17 47 -65 88.5t-111 41.5q-61 0 -110 -41.5t-85.5 -107t-60 -141.5t-35.5 -148t-12 -123q0 -99 37 -150t105 -51zM721 1079q-93 0 -153.5 55t-60.5 148q0 92 60.5 146.5t153.5 54.5
q94 0 154.5 -54.5t60.5 -146.5q0 -93 -60.5 -148t-154.5 -55zM721 1167q50 0 82 32.5t32 82.5t-32 81.5t-82 31.5q-48 0 -80 -31.5t-32 -81.5t32 -82.5t80 -32.5zM638 1516l228 277h302l-397 -277h-133z" />
    <glyph glyph-name="AEacute" unicode="&#x1fc;" horiz-adv-x="1899" 
d="M-109 0l16 76h121q20 0 34.5 11t27.5 30l768 1064q8 11 16 26t11 28q8 35 -28 35h-163l16 76h1261l-61 -361h-108q5 64 -6.5 127.5t-41.5 106t-80 42.5h-291l-114 -534h487l-19 -85h-487l-118 -558h303q57 0 101 31.5t77 80t58 103.5t44 102h108l-105 -401h-1098l16 76
h155q15 0 31 9.5t20 32.5l71 334h-466l-184 -261q-20 -29 -34 -52t-17 -37q-3 -16 7 -21t21 -5h171l-16 -76h-504zM508 537h426l151 721h-68zM1226 1452l229 278h301l-397 -278h-133z" />
    <glyph glyph-name="aeacute" unicode="&#x1fd;" horiz-adv-x="1802" 
d="M375 -17q-133 0 -220.5 91.5t-87.5 260.5q0 116 36.5 230t105 208t165 150t216.5 56q95 0 163.5 -44t99.5 -93l44 119h113v-465l-170 -496h-127l6 159q-36 -46 -84.5 -86t-113 -65t-146.5 -25zM490 105q49 0 94 25t82 63.5t61 79.5l97 469q-19 44 -66.5 84.5t-110.5 40.5
q-61 0 -109 -41.5t-84 -107.5t-59.5 -142.5t-35.5 -148t-12 -121.5q0 -99 37 -150t106 -51zM1218 -17q-145 0 -245.5 50.5t-152.5 142.5t-52 217q0 107 34.5 210.5t106 188.5t182 136t262.5 51q178 0 270 -63t92 -164q0 -67 -34.5 -126t-113.5 -105t-213 -72t-332 -26l18 40
q-2 -19 -4 -42t-2 -47q0 -118 47.5 -201.5t158.5 -83.5q95 0 158 58t89 177h199q-43 -160 -161.5 -250.5t-306.5 -90.5zM1042 506l-23 8q221 0 331 71.5t110 185.5q0 55 -31.5 87.5t-90.5 32.5q-71 0 -130 -48t-101.5 -134t-64.5 -203zM898 1092l228 277h302l-397 -277h-133
z" />
    <glyph glyph-name="Oslashacute" unicode="&#x1fe;" horiz-adv-x="1522" 
d="M78 -55l-57 59l1488 1395l55 -58zM707 -19q-182 0 -312 70t-198.5 197t-68.5 299q0 143 42 288t133 265t238 193t359 73q182 0 310 -70.5t195.5 -199t67.5 -300.5q0 -146 -41 -290t-131.5 -263t-236.5 -190.5t-357 -71.5zM717 67q95 0 168 58.5t125.5 153t86 205.5
t49.5 218.5t16 188.5q0 116 -29 203.5t-88 136.5t-151 49q-103 0 -179 -58t-128.5 -151.5t-84.5 -204t-46.5 -217.5t-14.5 -188q0 -114 29 -203.5t90.5 -140t156.5 -50.5zM843 1452l229 278h301l-397 -278h-133z" />
    <glyph glyph-name="oslashacute" unicode="&#x1ff;" horiz-adv-x="1136" 
d="M493 -16q-198 0 -306.5 112t-108.5 292q0 101 32 204.5t101 191.5t177 141.5t261 53.5q196 0 302.5 -112.5t106.5 -294.5q0 -110 -34.5 -215t-104.5 -189t-176 -134t-250 -50zM505 67q65 0 114 44t83 113.5t55 149.5t30 155t9 127q0 109 -38 174.5t-121 65.5
q-66 0 -115 -41.5t-83.5 -107.5t-55.5 -143t-30.5 -149.5t-9.5 -125.5q0 -75 17 -134t52.5 -93.5t92.5 -34.5zM171 -59l-60 52l856 1026l60 -50zM548 1092l228 277h302l-397 -277h-133z" />
    <glyph glyph-name="uni0218" unicode="&#x218;" horiz-adv-x="1203" 
d="M561 -17q-91 0 -171 18.5t-140.5 48t-92.5 61.5l-24 -116h-97l62 420h129q4 -108 49 -185.5t120 -118.5t169 -41q122 0 182.5 68t60.5 177q0 53 -24 98.5t-80 88.5t-156 89q-96 44 -172.5 98t-120.5 126t-44 171q0 132 66.5 215.5t178.5 123.5t248 40q116 0 209.5 -32
t139.5 -69l18 81h97l-53 -374h-131q-9 145 -86.5 226t-200.5 81q-61 0 -110 -21t-78.5 -64.5t-29.5 -112.5q0 -45 21.5 -86t78 -82.5t158.5 -89.5q116 -52 193 -109.5t115.5 -129t38.5 -167.5q0 -147 -66 -243.5t-184 -143t-273 -46.5zM336 -424l-8 53q56 12 94 42.5
t55 65.5q-56 1 -83.5 32t-16.5 80q9 39 40 64t92 25q65 0 96 -40.5t16 -112.5q-19 -89 -100.5 -143.5t-184.5 -65.5z" />
    <glyph glyph-name="uni0219" unicode="&#x219;" horiz-adv-x="1056" 
d="M474 -18q-126 0 -225 34t-153.5 105t-48.5 181h260q-2 -131 46.5 -186t129.5 -55q83 0 122.5 44.5t39.5 106.5q0 54 -44.5 99t-161.5 97q-141 61 -212 131.5t-71 162.5q0 78 35.5 131.5t95.5 85.5t135.5 46t155.5 14q122 0 214 -35t143 -99.5t46 -154.5h-260
q2 98 -38 154t-120 56q-59 0 -97.5 -29t-38.5 -88q0 -54 52.5 -100.5t178.5 -99.5q138 -57 198 -129t60 -162q0 -113 -59.5 -181t-160 -98.5t-222.5 -30.5zM287 -424l-8 53q56 12 94 42.5t55 65.5q-56 1 -83.5 32t-16.5 80q9 39 40 64t92 25q65 0 96 -40.5t16 -112.5
q-19 -89 -100.5 -143.5t-184.5 -65.5z" />
    <glyph glyph-name="uni021A" unicode="&#x21a;" horiz-adv-x="1297" 
d="M188 0l16 76h169q15 0 30.5 9.5t20.5 32.5l242 1140h-153q-53 -1 -103 -44t-90.5 -108.5t-62.5 -133.5h-109l96 374h1177l-63 -374h-109q6 68 -6.5 133.5t-44 108.5t-83.5 44h-152l-243 -1140q-4 -23 7.5 -32.5t25.5 -9.5h169l-16 -76h-718zM358 -424l-8 53
q56 12 94 42.5t55 65.5q-56 1 -83.5 32t-16.5 80q9 39 40 64t92 25q65 0 96 -40.5t16 -112.5q-19 -89 -100.5 -143.5t-184.5 -65.5z" />
    <glyph glyph-name="uni021B" unicode="&#x21b;" horiz-adv-x="751" 
d="M391 -11q-162 0 -222 80.5t-23 257.5l115 544h-161l20 92h165l53 242l278 23l-56 -265h242l-20 -92h-242l-120 -563q-17 -83 -11 -132.5t47 -70.5t128 -21h55l-16 -79q-43 -6 -100.5 -11t-131.5 -5zM134 -424l-8 53q56 12 94 42.5t55 65.5q-56 1 -83.5 32t-16.5 80
q9 39 40 64t92 25q65 0 96 -40.5t16 -112.5q-19 -89 -100.5 -143.5t-184.5 -65.5z" />
    <glyph glyph-name="uni0232" unicode="&#x232;" horiz-adv-x="1346" 
d="M211 0l16 76h154q16 0 32 9.5t20 32.5l105 494l-225 598q-10 27 -27 43.5t-55 16.5h-49l15 76h621l-16 -76h-139q-43 0 -50 -31q-2 -12 2.5 -29.5t8.5 -31.5l168 -486l387 474q18 23 29.5 40.5t14.5 32.5q7 31 -30 31h-128l15 76h437l-16 -76h-51q-34 0 -67.5 -16.5
t-67.5 -57.5l-479 -577l-106 -501q-5 -23 6 -32.5t26 -9.5h155l-16 -76h-690zM618 1513l24 116h566l-24 -116h-566z" />
    <glyph glyph-name="uni0233" unicode="&#x233;" horiz-adv-x="1008" 
d="M-220 -366l18 78q102 0 189 30.5t164 83.5t149 121l31 29l-153 748q-9 47 -19 75t-24 43.5t-38 20.5l-66 16l14 66l358 21l149 -800q119 137 177.5 289t62.5 321q0 42 -3.5 87.5t-10.5 93.5h242q-2 -121 -45 -243t-114 -240t-156.5 -230t-170.5 -213
q-88 -105 -156.5 -180t-135 -123t-145.5 -71t-188 -23h-129zM331 1166l25 117h565l-24 -117h-566z" />
    <glyph glyph-name="uni0237" unicode="&#x237;" horiz-adv-x="633" 
d="M-213 -359l15 74q75 0 131 24.5t93.5 82t60.5 158.5l159 729q15 71 5.5 108t-51.5 46l-75 16l14 66l441 23l-209 -972q-30 -137 -90 -214t-152 -109t-216 -32h-126z" />
    <glyph glyph-name="uni0253" unicode="&#x253;" horiz-adv-x="1204" 
d="M625 -18q-97 0 -166 41.5t-107 95.5l-48 -119h-253l234 1104q27 130 88 204.5t152 106t208 31.5h144l-15 -75q-117 0 -190 -52t-101 -184l-64 -306q55 64 131 106t181 42q141 0 227.5 -93.5t86.5 -267.5q0 -74 -16.5 -159.5t-52.5 -169t-95.5 -152.5t-144.5 -111
t-199 -42zM562 95q61 0 108.5 41.5t82.5 108t58.5 142.5t35 147t11.5 120q0 99 -37.5 149.5t-105.5 50.5q-72 0 -134.5 -44t-98.5 -97l-104 -488q19 -45 68 -87.5t116 -42.5z" />
    <glyph glyph-name="uni0254" unicode="&#x254;" horiz-adv-x="1130" 
d="M487 -16q-191 0 -298.5 103.5t-115.5 271.5h274q3 -82 18 -148t48.5 -105t88.5 -39q59 0 105 45t79.5 115.5t55 151.5t32 154.5t10.5 122.5q0 109 -37 174.5t-116 65.5q-85 0 -147.5 -78.5t-100.5 -222.5h-277q60 195 204 289.5t333 94.5q196 0 302.5 -112.5
t106.5 -294.5q0 -110 -34.5 -215t-104.5 -189t-176 -134t-250 -50z" />
    <glyph glyph-name="uni0256" unicode="&#x256;" horiz-adv-x="1245" 
d="M964 -357q-143 0 -221.5 46.5t-78.5 174.5q0 27 3.5 57.5t10.5 64.5l36 172q-55 -74 -137.5 -124.5t-198.5 -50.5q-138 0 -224.5 91.5t-86.5 258.5q0 116 36 230.5t104.5 208.5t165 150.5t217.5 56.5q95 0 163.5 -44t98.5 -93l72 346q5 22 7.5 39.5t2.5 31.5q0 36 -14 56
t-43 26l-76 16l15 66l440 23l-323 -1493q-5 -23 -7.5 -43.5t-2.5 -38.5q0 -85 52 -119.5t149 -34.5l-16 -74h-144zM489 105q73 0 138.5 51.5t102.5 121.5l96 459q-17 47 -65 88.5t-111 41.5q-61 0 -110 -41.5t-85.5 -107t-60 -141.5t-35.5 -148t-12 -123q0 -99 37 -150
t105 -51z" />
    <glyph glyph-name="uni0257" unicode="&#x257;" horiz-adv-x="1245" 
d="M378 -17q-138 0 -224.5 91.5t-86.5 258.5q0 116 36 230.5t104.5 208.5t165 150.5t217.5 56.5q95 0 163.5 -44t98.5 -93l54 262q27 130 87.5 204.5t151.5 106t208 31.5h144l-16 -75q-117 0 -189.5 -52t-101.5 -184l-187 -879q-3 -17 -5 -32.5t-2 -28.5q0 -57 37.5 -85.5
t126.5 -28.5l-14 -67q-51 -14 -95 -21t-110 -7q-98 0 -155 45.5t-72 126.5q-55 -74 -137.5 -124.5t-198.5 -50.5zM489 105q73 0 138.5 51.5t102.5 121.5l96 459q-17 47 -65 88.5t-111 41.5q-61 0 -110 -41.5t-85.5 -107t-60 -141.5t-35.5 -148t-12 -123q0 -99 37 -150
t105 -51z" />
    <glyph glyph-name="uni0259" unicode="&#x259;" horiz-adv-x="1111" 
d="M448 -17q-178 0 -270 63t-92 164q0 66 34 125.5t113 105.5t212.5 72t331.5 26l-19 -40q3 19 4.5 42t1.5 46q0 120 -46.5 203t-156.5 83q-95 0 -157.5 -57.5t-89.5 -177.5h-199q43 161 161.5 251t306.5 90q146 0 246 -50.5t152 -142.5t52 -217q0 -107 -34.5 -210.5
t-106 -188.5t-182 -136t-262.5 -51zM463 71q71 0 129 47.5t101 134.5t64 202l23 -7q-220 0 -329.5 -71.5t-109.5 -185.5q0 -55 31.5 -87.5t90.5 -32.5z" />
    <glyph glyph-name="uni025B" unicode="&#x25b;" horiz-adv-x="1082" 
d="M462 -15q-144 0 -245 39.5t-147 112t-25 170.5q14 65 54.5 106.5t103 65.5t137.5 34q-90 24 -133 93t-25 156q14 63 62.5 113t140.5 78.5t237 28.5q135 0 222 -34t128 -97.5t36 -152.5h-249q6 83 -28 141.5t-118 58.5q-81 0 -121 -40.5t-55 -110.5q-17 -80 18 -137.5
t119 -57.5h113l-18 -85h-116q-98 0 -161.5 -47t-82.5 -133q-21 -100 22 -159t146 -59q109 0 183.5 61.5t107.5 190.5h197q-48 -170 -168.5 -253t-334.5 -83z" />
    <glyph glyph-name="uni0263" unicode="&#x263;" horiz-adv-x="1028" 
d="M360 -364q-98 0 -135.5 61t-18.5 155q14 62 50.5 128.5t106.5 160.5l-180 697q-8 31 -18 43.5t-29 12.5h-76l15 69h545l-15 -69h-94q-23 0 -40 -13.5t-10 -42.5l110 -437l333 437q20 30 10 43t-31 13h-87l15 69h347l-15 -69h-63q-20 0 -39.5 -15.5t-46.5 -49.5l-398 -521
q23 -92 36 -166t13.5 -139t-13.5 -130q-25 -118 -101 -177.5t-171 -59.5zM325 -285q25 0 42 25.5t24 61.5q11 51 8.5 110.5t-14.5 126.5q-42 -62 -65.5 -109t-33.5 -92q-12 -60 0 -91.5t39 -31.5z" />
    <glyph glyph-name="uni0283" unicode="&#x283;" horiz-adv-x="610" 
d="M-111 -370q-164 0 -228 71t-54 170h244q-12 -87 0 -129.5t54 -42.5q48 1 84.5 60t62.5 188l225 1077q33 158 99.5 250t159 131.5t202.5 39.5q164 0 227.5 -70.5t53.5 -170.5h-243q11 87 -1 130t-53 42q-48 0 -81.5 -59.5t-61.5 -188.5l-230 -1077q-33 -158 -100 -250
t-158.5 -131.5t-201.5 -39.5z" />
    <glyph glyph-name="uni028B" unicode="&#x28b;" horiz-adv-x="1281" 
d="M567 -11q-209 0 -311.5 77.5t-102.5 219.5q0 27 3.5 56t10.5 61l67 306q5 23 8 42.5t3 34.5q0 34 -13.5 52.5t-41.5 24.5l-75 16l14 66l440 27l-135 -630q-6 -29 -8.5 -53.5t-2.5 -47.5q0 -86 42 -127t114 -41q66 0 112 27t76 81.5t48 137.5l71 336q5 28 8 51.5t3 43.5
q0 78 -40 109.5t-117 31.5l15 75h100q147 0 231.5 -51t84.5 -181q0 -24 -3 -51.5t-10 -58.5l-54 -256q-41 -194 -171.5 -286.5t-365.5 -92.5z" />
    <glyph glyph-name="uni0292" unicode="&#x292;" horiz-adv-x="1062" 
d="M377 -376q-226 0 -332.5 103.5t-90.5 260.5l210 1q-6 -70 14.5 -135t69.5 -105.5t131 -40.5q102 0 162.5 71.5t87.5 195.5q26 120 -3 206t-107 132t-201 46h-21l12 56l460 478h-538l15 70h812l-11 -52l-463 -481q73 -10 137 -44t109 -91.5t61.5 -138.5t-5.5 -185
q-35 -167 -169.5 -257t-339.5 -90zM164 674l82 289l264 -70q-71 0 -122.5 -34.5t-88 -85.5t-62.5 -99h-73z" />
    <glyph glyph-name="circumflex" unicode="&#x2c6;" horiz-adv-x="1130" 
d="M198 1106l259 277h255l149 -277h-122l-175 156l-235 -156h-131z" />
    <glyph glyph-name="caron" unicode="&#x2c7;" horiz-adv-x="1130" 
d="M405 1106l-142 277h123l172 -157l246 157h123l-267 -277h-255z" />
    <glyph glyph-name="breve" unicode="&#x2d8;" horiz-adv-x="1130" 
d="M553 1104q-144 0 -212 75.5t-57 204.5h128q-3 -53 19 -82t58.5 -40t76.5 -11q60 0 121.5 27t89.5 106h126q-37 -128 -124.5 -204t-225.5 -76z" />
    <glyph glyph-name="dotaccent" unicode="&#x2d9;" horiz-adv-x="1130" 
d="M564 1100q-76 0 -116 39.5t-40 96.5q0 54 40 93.5t116 39.5t116 -39.5t40 -93.5q0 -57 -40 -96.5t-116 -39.5z" />
    <glyph glyph-name="ring" unicode="&#x2da;" horiz-adv-x="1130" 
d="M507 1079q-93 0 -153.5 55t-60.5 148q0 92 60.5 146.5t153.5 54.5q94 0 154.5 -54.5t60.5 -146.5q0 -93 -60.5 -148t-154.5 -55zM507 1167q50 0 82 32.5t32 82.5t-32 81.5t-82 31.5q-48 0 -80 -31.5t-32 -81.5t32 -82.5t80 -32.5z" />
    <glyph glyph-name="ogonek" unicode="&#x2db;" horiz-adv-x="1130" 
d="M521 -375q-89 0 -138.5 44t-32.5 123q18 83 109.5 151t223.5 89l48 -30q-90 -39 -140 -90.5t-62 -109.5q-9 -41 6 -67.5t67 -26.5q22 0 53.5 6.5t65.5 20.5l-15 -72q-39 -17 -85 -27.5t-100 -10.5z" />
    <glyph glyph-name="tilde" unicode="&#x2dc;" horiz-adv-x="1130" 
d="M192 1107q31 123 93.5 181.5t143.5 58.5q48 0 84 -14t66 -28q34 -15 60.5 -27t56.5 -12q33 0 56.5 18t38.5 64h98q-34 -121 -87.5 -175.5t-135.5 -54.5q-45 0 -79 11.5t-69 28.5q-35 16 -63.5 27t-58.5 11q-36 0 -62.5 -20t-45.5 -69h-96z" />
    <glyph glyph-name="hungarumlaut" unicode="&#x2dd;" horiz-adv-x="1130" 
d="M219 1106l228 277h302l-397 -277h-133zM588 1106l228 277h302l-397 -277h-133z" />
    <glyph glyph-name="gravecomb" unicode="&#x300;" horiz-adv-x="0" 
d="M522 1106l-278 277h295l105 -277h-122z" />
    <glyph glyph-name="acutecomb" unicode="&#x301;" horiz-adv-x="0" 
d="M411 1106l228 277h302l-397 -277h-133z" />
    <glyph glyph-name="uni0302" unicode="&#x302;" horiz-adv-x="0" 
d="M198 1106l259 277h255l149 -277h-122l-175 156l-235 -156h-131z" />
    <glyph glyph-name="tildecomb" unicode="&#x303;" horiz-adv-x="0" 
d="M192 1107q31 123 93.5 181.5t143.5 58.5q48 0 84 -14t66 -28q34 -15 60.5 -27t56.5 -12q33 0 56.5 18t38.5 64h98q-34 -121 -87.5 -175.5t-135.5 -54.5q-45 0 -79 11.5t-69 28.5q-35 16 -63.5 27t-58.5 11q-36 0 -62.5 -20t-45.5 -69h-96z" />
    <glyph glyph-name="uni0304" unicode="&#x304;" horiz-adv-x="0" 
d="M270 1166l25 117h565l-24 -117h-566z" />
    <glyph glyph-name="uni0306" unicode="&#x306;" horiz-adv-x="0" 
d="M553 1104q-144 0 -212 75.5t-57 204.5h128q-3 -53 19 -82t58.5 -40t76.5 -11q60 0 121.5 27t89.5 106h126q-37 -128 -124.5 -204t-225.5 -76z" />
    <glyph glyph-name="uni0307" unicode="&#x307;" horiz-adv-x="0" 
d="M564 1100q-76 0 -116 39.5t-40 96.5q0 54 40 93.5t116 39.5t116 -39.5t40 -93.5q0 -57 -40 -96.5t-116 -39.5z" />
    <glyph glyph-name="uni0308" unicode="&#x308;" horiz-adv-x="0" 
d="M747 1122q-48 0 -84 35t-36 86q0 50 36 85t84 35q50 0 86 -35t36 -85q0 -51 -36 -86t-86 -35zM360 1122q-50 0 -86 35t-36 86q0 50 36 85t86 35q48 0 84.5 -35t36.5 -85q0 -51 -36.5 -86t-84.5 -35z" />
    <glyph glyph-name="hookabovecomb" unicode="&#x309;" horiz-adv-x="0" 
d="M547 1140l-53 78q27 8 47 23.5t25 39.5q6 36 -18.5 47t-71.5 11h-24l18 104h45q144 0 209.5 -35.5t52.5 -109.5q-12 -66 -78 -105.5t-152 -52.5zM494 1218l100 -45l-15 -81h-107z" />
    <glyph glyph-name="uni030A" unicode="&#x30a;" horiz-adv-x="0" 
d="M507 1079q-93 0 -153.5 55t-60.5 148q0 92 60.5 146.5t153.5 54.5q94 0 154.5 -54.5t60.5 -146.5q0 -93 -60.5 -148t-154.5 -55zM507 1167q50 0 82 32.5t32 82.5t-32 81.5t-82 31.5q-48 0 -80 -31.5t-32 -81.5t32 -82.5t80 -32.5z" />
    <glyph glyph-name="uni030B" unicode="&#x30b;" horiz-adv-x="0" 
d="M219 1106l228 277h302l-397 -277h-133zM588 1106l228 277h302l-397 -277h-133z" />
    <glyph glyph-name="uni030C" unicode="&#x30c;" horiz-adv-x="0" 
d="M405 1106l-142 277h123l172 -157l246 157h123l-267 -277h-255z" />
    <glyph glyph-name="uni0312" unicode="&#x312;" horiz-adv-x="0" 
d="M57 1113q-65 0 -102 46t-21 122q13 58 58.5 103t109.5 74t133 38l12 -64q-47 -14 -87.5 -38.5t-63.5 -65.5q60 -6 85.5 -38.5t16.5 -79.5q-8 -42 -44 -69.5t-97 -27.5z" />
    <glyph glyph-name="uni031B" unicode="&#x31b;" horiz-adv-x="0" 
d="M-104 675l-7 115q64 19 110 56t66 98l13 -14q-68 2 -101.5 50.5t-20.5 117.5q12 57 54.5 88t98.5 31q83 0 125 -55t24 -149q-21 -107 -79.5 -177.5t-133.5 -109.5t-149 -51z" />
    <glyph glyph-name="dotbelowcomb" unicode="&#x323;" horiz-adv-x="0" 
d="M-1 -348q-76 0 -116 39.5t-40 96.5q0 54 40 93.5t116 39.5t116 -39.5t40 -93.5q0 -57 -40 -96.5t-116 -39.5z" />
    <glyph glyph-name="uni0326" unicode="&#x326;" horiz-adv-x="0" 
d="M405 -424l-8 53q56 12 94 42.5t55 65.5q-56 1 -83.5 32t-16.5 80q9 39 40 64t92 25q65 0 96 -40.5t16 -112.5q-19 -89 -100.5 -143.5t-184.5 -65.5z" />
    <glyph glyph-name="uni0327" unicode="&#x327;" horiz-adv-x="0" 
d="M523 -376q-70 0 -119 11t-86 29l40 96q36 -18 78.5 -30t87.5 -12q37 0 61 14t30 48q7 39 -18 61.5t-101 37.5l-43 8l165 166l76 -49l-71 -73l-43 18q97 -1 152.5 -52t38.5 -133q-16 -79 -86 -109.5t-162 -30.5z" />
    <glyph glyph-name="uni0328" unicode="&#x328;" horiz-adv-x="0" 
d="M521 -375q-89 0 -138.5 44t-32.5 123q18 83 109.5 151t223.5 89l48 -30q-90 -39 -140 -90.5t-62 -109.5q-9 -41 6 -67.5t67 -26.5q22 0 53.5 6.5t65.5 20.5l-15 -72q-39 -17 -85 -27.5t-100 -10.5z" />
    <glyph glyph-name="uni0335" unicode="&#x335;" horiz-adv-x="0" 
d="M-12 367l31 147h618l-30 -147h-619z" />
    <glyph glyph-name="uni0336" unicode="&#x336;" horiz-adv-x="0" 
d="M16 558l50 236h757l-50 -236h-757z" />
    <glyph glyph-name="uni0345" unicode="&#x345;" horiz-adv-x="0" 
d="M29 -358q-106 0 -126 50t-3 130l26 123h168l-18 -87q-7 -34 -5 -59t48 -25h22l-29 -132h-83z" />
    <glyph glyph-name="uni0370" unicode="&#x370;" horiz-adv-x="1010" 
d="M-60 0l16 76h154q16 0 31.5 9.5t20.5 32.5l236 1110q5 23 -6.5 32.5t-26.5 9.5h-155l16 76h692l-16 -76h-156q-15 0 -31 -9.5t-21 -32.5l-102 -481h431l-18 -85h-431l-116 -544q-4 -23 7 -32.5t26 -9.5h156l-15 -76h-692z" />
    <glyph glyph-name="uni0371" unicode="&#x371;" horiz-adv-x="822" 
d="M-61 0l14 69h116q13 0 26.5 8t17.5 28l160 753q5 20 -5 28t-23 8h-116l14 69h584l-14 -69h-117q-13 0 -26 -8t-18 -28l-160 -753q-4 -20 5.5 -28t22.5 -8h117l-15 -69h-583zM443 538h364l-18 -84h-364z" />
    <glyph glyph-name="uni0372" unicode="&#x372;" horiz-adv-x="1297" 
d="M188 0l16 76h169q15 0 30.5 9.5t20.5 32.5l242 1140h-153q-53 -1 -103 -44t-90.5 -108.5t-62.5 -133.5h-109l96 374h1177l-63 -374h-109q6 68 -6.5 133.5t-44 108.5t-83.5 44h-152l-243 -1140q-4 -23 7.5 -32.5t25.5 -9.5h169l-16 -76h-718z" />
    <glyph glyph-name="uni0373" unicode="&#x373;" horiz-adv-x="1071" 
d="M124 0l15 69h133q13 0 26.5 8t17.5 28l271 1264l-69 -1q-67 -1 -112.5 -40t-76 -96t-51.5 -111h-99l89 325h945l-50 -325h-98q0 54 -5.5 111.5t-34.5 96.5t-96 39h-66l-269 -1263q-5 -22 5.5 -29t21.5 -7h132l-14 -69h-615z" />
    <glyph glyph-name="uni0374" unicode="&#x374;" horiz-adv-x="552" 
d="M186 1106l228 277h302l-397 -277h-133z" />
    <glyph glyph-name="uni0375" unicode="&#x375;" horiz-adv-x="552" 
d="M-80 -139l228 277h302l-397 -277h-133z" />
    <glyph glyph-name="uni0376" unicode="&#x376;" horiz-adv-x="1589" 
d="M958 0l15 76h156q16 0 31.5 9t20.5 32l220 1033l-1122 -1150h-140l262 1231q3 22 -8 30.5t-26 8.5h-154l16 76h488l-16 -76h-156q-15 0 -31 -9t-20 -32l-178 -838l934 955h478l-16 -76h-155q-14 0 -30 -8.5t-21 -32.5l-237 -1114q-4 -22 7.5 -30.5t26.5 -8.5h155l-16 -76
h-484z" />
    <glyph glyph-name="uni0377" unicode="&#x377;" horiz-adv-x="1349" 
d="M778 0l14 69h140q13 0 26 6.5t17 23.5l151 709l-891 -808h-122l184 864q3 18 -7 24t-23 6h-138l14 70h431l-14 -70h-140q-14 0 -27 -6t-17 -24l-122 -575l740 675h416l-14 -70h-140q-13 0 -26 -6t-16 -24l-163 -765q-4 -17 6.5 -23.5t23.5 -6.5h139l-15 -69h-427z" />
    <glyph glyph-name="uni037A" unicode="&#x37a;" horiz-adv-x="1229" 
d="M271 -358q-106 0 -126 50t-3 130l26 123h168l-18 -87q-7 -34 -5 -59t48 -25h22l-29 -132h-83z" />
    <glyph glyph-name="uni037B" unicode="&#x37b;" horiz-adv-x="1064" 
d="M417 -18q-185 0 -271.5 85.5t-86.5 232.5h141q0 -100 46 -166.5t149 -66.5q117 0 185 96t108 284q45 211 0.5 321t-162.5 110q-98 0 -165 -60t-95 -164h-148q45 161 160 243t294 82q150 0 251.5 -70.5t141 -197t3.5 -294.5q-44 -211 -190 -323t-361 -112z" />
    <glyph glyph-name="uni037C" unicode="&#x37c;" horiz-adv-x="1064" 
d="M492 -18q-151 0 -252.5 70.5t-140.5 197t-4 294.5q46 211 191 323t361 112q185 0 271.5 -85.5t86.5 -233.5h-141q0 101 -46 167.5t-149 66.5q-117 0 -185 -96t-108 -285q-45 -210 -0.5 -320.5t161.5 -110.5q100 0 166 60.5t95 164.5h147q-44 -161 -159 -243t-294 -82z
M614 393q-61 0 -93 31t-32 76q0 47 32 77.5t93 30.5q60 0 92 -30.5t32 -77.5q0 -45 -32 -76t-92 -31z" />
    <glyph glyph-name="uni037D" unicode="&#x37d;" horiz-adv-x="1064" 
d="M417 -18q-185 0 -271.5 85.5t-86.5 232.5h141q0 -100 46 -166.5t149 -66.5q117 0 185 96t108 284q45 211 0.5 321t-162.5 110q-98 0 -165 -60t-95 -164h-148q45 161 160 243t294 82q150 0 251.5 -70.5t141 -197t3.5 -294.5q-44 -211 -190 -323t-361 -112zM451 393
q-61 0 -93 31t-32 76q0 47 32 77.5t93 30.5q60 0 92.5 -30.5t32.5 -77.5q0 -45 -32.5 -76t-92.5 -31z" />
    <glyph glyph-name="uni037E" unicode="&#x37e;" horiz-adv-x="619" 
d="M374 640q-80 0 -128.5 50t-48.5 118q0 78 48.5 123t128.5 45q78 0 127 -45t49 -123q0 -68 -49 -118t-127 -50zM-4 -289l-17 69q90 26 152 79t92 141l12 -14q-93 1 -138.5 58.5t-27.5 143.5q14 61 57.5 97.5t116.5 36.5q93 0 140.5 -70t19.5 -200q-24 -111 -86.5 -180
t-146.5 -106.5t-174 -54.5z" />
    <glyph glyph-name="uni037F" unicode="&#x37f;" horiz-adv-x="1094" 
d="M359 -18q-209 0 -293.5 84.5t-59.5 240.5h249q-18 -116 8 -175t93 -59q52 0 86 31.5t56.5 91.5t40.5 145l189 890q5 22 -7 30.5t-27 8.5h-155l17 76h690l-17 -76h-154q-15 0 -30.5 -8.5t-20.5 -32.5l-185 -873q-23 -109 -81.5 -193.5t-156.5 -132.5t-242 -48z" />
    <glyph glyph-name="tonos" unicode="&#x384;" horiz-adv-x="1130" 
d="M419 1106l119 346h268l-319 -346h-68z" />
    <glyph glyph-name="dieresistonos" unicode="&#x385;" horiz-adv-x="1130" 
d="M431 1090l107 347h268l-306 -347h-69zM303 1109q-51 0 -83.5 32t-32.5 81q0 48 32.5 79.5t83.5 31.5q48 0 80.5 -31.5t32.5 -79.5q0 -49 -32.5 -81t-80.5 -32zM832 1109q-48 0 -80.5 32t-32.5 81q0 48 32.5 79.5t80.5 31.5q50 0 83.5 -31.5t33.5 -79.5q0 -49 -33.5 -81
t-83.5 -32z" />
    <glyph glyph-name="Alphatonos" unicode="&#x386;" horiz-adv-x="1381" 
d="M-109 0l16 76h107q18 0 33 11.5t36 46.5l719 1212h151l193 -1214q6 -34 17.5 -45t37.5 -11h99l-16 -76h-629l15 76h154q16 0 30.5 11.5t10.5 47.5l-134 970l39 29l-580 -995q-23 -38 -13 -50.5t27 -12.5h165l-16 -76h-462zM336 454l11 83h697l-11 -83h-697zM152 999
l119 347h268l-319 -347h-68z" />
    <glyph glyph-name="anoteleia" unicode="&#x387;" horiz-adv-x="619" 
d="M317 350q-80 0 -128 48.5t-48 118.5q0 77 48 123t128 46q78 0 127 -46t49 -123q0 -70 -49 -118.5t-127 -48.5z" />
    <glyph glyph-name="Epsilontonos" unicode="&#x388;" horiz-adv-x="1218" 
d="M-60 0l16 76h154q16 0 31.5 8.5t20.5 32.5l237 1114q5 22 -7 30.5t-27 8.5h-155l16 76h1065l-61 -361h-109q6 65 -6 128.5t-42.5 105.5t-80.5 42h-290l-114 -534h486l-18 -85h-487l-119 -558h303q58 0 102 31t77 79t58 103.5t44 103.5h109l-105 -401h-1098zM-184 999
l119 347h268l-319 -347h-68z" />
    <glyph glyph-name="Etatonos" unicode="&#x389;" horiz-adv-x="1651" 
d="M-60 0l16 76h154q16 0 31.5 8.5t20.5 32.5l237 1114q5 22 -7 30.5t-27 8.5h-155l16 76h692l-16 -76h-156q-15 0 -31 -8.5t-21 -32.5l-102 -481h579l102 483q5 22 -7 30.5t-26 8.5h-157l16 76h691l-16 -76h-154q-14 0 -30 -8.5t-21 -32.5l-237 -1114q-4 -22 7.5 -30.5
t26.5 -8.5h154l-16 -76h-691l15 76h157q15 0 31 9t20 32l117 547h-579l-116 -549q-5 -22 6.5 -30.5t26.5 -8.5h156l-15 -76h-692zM-186 999l119 347h268l-319 -347h-68z" />
    <glyph glyph-name="Iotatonos" unicode="&#x38a;" horiz-adv-x="777" 
d="M-60 0l16 76h154q16 0 31.5 8.5t20.5 32.5l237 1114q5 22 -7 30.5t-27 8.5h-155l16 76h690l-16 -76h-154q-15 0 -31 -8.5t-21 -32.5l-236 -1114q-5 -22 6.5 -30.5t26.5 -8.5h155l-16 -76h-690zM-186 999l119 347h268l-319 -347h-68z" />
    <glyph glyph-name="Omicrontonos" unicode="&#x38c;" horiz-adv-x="1522" 
d="M707 -19q-182 0 -312 70t-198.5 197t-68.5 299q0 143 42 288t133 265t238 193t359 73q182 0 310 -70.5t195.5 -199t67.5 -300.5q0 -146 -41 -290t-131.5 -263t-236.5 -190.5t-357 -71.5zM717 67q95 0 168 58.5t125.5 153t86 205.5t49.5 218.5t16 188.5q0 116 -29 203.5
t-88 136.5t-151 49q-103 0 -179 -58t-128.5 -151.5t-84.5 -204t-46.5 -217.5t-14.5 -188q0 -114 29 -203.5t90.5 -140t156.5 -50.5zM-31 999l119 347h268l-319 -347h-68z" />
    <glyph glyph-name="Upsilontonos" unicode="&#x38e;" horiz-adv-x="1346" 
d="M211 0l16 76h154q16 0 32 9.5t20 32.5l105 494l-225 598q-10 27 -27 43.5t-55 16.5h-49l15 76h621l-16 -76h-139q-43 0 -50 -31q-2 -12 2.5 -29.5t8.5 -31.5l168 -486l387 474q18 23 29.5 40.5t14.5 32.5q7 31 -30 31h-128l15 76h437l-16 -76h-51q-34 0 -67.5 -16.5
t-67.5 -57.5l-479 -577l-106 -501q-5 -23 6 -32.5t26 -9.5h155l-16 -76h-690zM-226 999l119 347h268l-319 -347h-68z" />
    <glyph glyph-name="Omegatonos" unicode="&#x38f;" horiz-adv-x="1539" 
d="M551 149q-154 64 -240.5 179t-112 255t4.5 280q52 244 224 372.5t484 128.5q208 0 335.5 -81t173.5 -221t7 -317q-40 -190 -198 -344.5t-431 -251.5l-43 24q107 76 181 166.5t120 193t70 213.5q32 149 20 270.5t-72 194.5t-174 73q-113 0 -193.5 -60.5t-132.5 -168
t-83 -250.5q-24 -117 -24.5 -233.5t32 -219.5t107.5 -179zM3 0l14 356h109q1 -46 12 -88t38.5 -68.5t77.5 -26.5h352l-37 -173h-566zM718 0l37 173h353q51 0 89 26.5t66.5 68.5t49.5 88h108l-137 -356h-566zM-30 999l119 347h268l-319 -347h-68z" />
    <glyph glyph-name="iotadieresistonos" unicode="&#x390;" horiz-adv-x="665" 
d="M368 -11q-156 0 -221 80.5t-26 260.5l134 633h278l-138 -653q-17 -79 -9 -129t49 -73.5t123 -23.5h29l-16 -79q-43 -6 -86 -11t-117 -5zM342 1090l107 347h268l-306 -347h-69zM214 1109q-51 0 -83.5 32t-32.5 81q0 48 32.5 79.5t83.5 31.5q48 0 80.5 -31.5t32.5 -79.5
q0 -49 -32.5 -81t-80.5 -32zM743 1109q-48 0 -80.5 32t-32.5 81q0 48 32.5 79.5t80.5 31.5q50 0 83.5 -31.5t33.5 -79.5q0 -49 -33.5 -81t-83.5 -32z" />
    <glyph glyph-name="Alpha" unicode="&#x391;" horiz-adv-x="1381" 
d="M-109 0l16 76h107q18 0 33 11.5t36 46.5l719 1212h151l193 -1214q6 -34 17.5 -45t37.5 -11h99l-16 -76h-629l15 76h154q16 0 30.5 11.5t10.5 47.5l-134 970l39 29l-580 -995q-23 -38 -13 -50.5t27 -12.5h165l-16 -76h-462zM336 454l11 83h697l-11 -83h-697z" />
    <glyph glyph-name="Beta" unicode="&#x392;" horiz-adv-x="1408" 
d="M-60 0l16 76h155q15 0 30.5 8.5t20.5 32.5l236 1109q2 5 2.5 9.5t0.5 8.5q0 14 -11.5 20t-24.5 6h-155l16 76l666 1q214 1 327.5 -79t113.5 -219q0 -138 -87.5 -223t-223.5 -115q129 -29 200 -102t71 -192q0 -114 -52 -193.5t-140 -128.5t-198.5 -72t-227.5 -23h-735z
M453 83h197q116 0 190 51.5t109.5 135.5t35.5 179q0 114 -61.5 165.5t-163.5 51.5h-186zM592 749h167q105 0 170 45t94.5 118t29.5 156q0 99 -53 147t-141 48h-157z" />
    <glyph glyph-name="Gamma" unicode="&#x393;" horiz-adv-x="1154" 
d="M-60 0l16 76h154q16 0 31.5 9.5t20.5 32.5l236 1110q5 23 -6.5 32.5t-26.5 9.5h-155l16 76h1048l-65 -401h-109q3 52 1.5 107.5t-14.5 102.5t-44 76.5t-89 29.5h-253l-243 -1143q-4 -23 7 -32.5t26 -9.5h156l-15 -76h-692z" />
    <glyph glyph-name="uni0394" unicode="&#x394;" horiz-adv-x="1274" 
d="M-37 0l11 54l84 44h960l101 -44l-11 -54h-1145zM-26 54l783 1292h162l200 -1292l-281 -22l-168 1139h71l-682 -1139z" />
    <glyph glyph-name="Epsilon" unicode="&#x395;" horiz-adv-x="1218" 
d="M-60 0l16 76h154q16 0 31.5 8.5t20.5 32.5l237 1114q5 22 -7 30.5t-27 8.5h-155l16 76h1065l-61 -361h-109q6 65 -6 128.5t-42.5 105.5t-80.5 42h-290l-114 -534h486l-18 -85h-487l-119 -558h303q58 0 102 31t77 79t58 103.5t44 103.5h109l-105 -401h-1098z" />
    <glyph glyph-name="Zeta" unicode="&#x396;" horiz-adv-x="1222" 
d="M-34 0l17 79l921 1175h-341q-45 0 -83.5 -30.5t-71 -77.5t-58.5 -100t-45 -101h-109l105 401h967l-14 -66l-935 -1188h439q51 0 92.5 30.5t74 77.5t58.5 100.5t44 100.5h109l-105 -401h-1065z" />
    <glyph glyph-name="Eta" unicode="&#x397;" horiz-adv-x="1651" 
d="M-60 0l16 76h154q16 0 31.5 8.5t20.5 32.5l237 1114q5 22 -7 30.5t-27 8.5h-155l16 76h692l-16 -76h-156q-15 0 -31 -8.5t-21 -32.5l-102 -481h579l102 483q5 22 -7 30.5t-26 8.5h-157l16 76h691l-16 -76h-154q-14 0 -30 -8.5t-21 -32.5l-237 -1114q-4 -22 7.5 -30.5
t26.5 -8.5h154l-16 -76h-691l15 76h157q15 0 31 9t20 32l117 547h-579l-116 -549q-5 -22 6.5 -30.5t26.5 -8.5h156l-15 -76h-692z" />
    <glyph glyph-name="Theta" unicode="&#x398;" horiz-adv-x="1522" 
d="M527 503l81 379h74q-5 -44 10.5 -82t61.5 -38h125q47 0 78 38t46 82h74l-81 -379h-74q4 44 -10.5 82t-61.5 38h-125q-46 0 -77.5 -38t-46.5 -82h-74zM707 -19q-182 0 -312 70t-198.5 197t-68.5 299q0 143 42 288t133 265t238 193t359 73q182 0 310 -70.5t195.5 -199
t67.5 -300.5q0 -146 -41 -290t-131.5 -263t-236.5 -190.5t-357 -71.5zM717 67q95 0 168 58.5t125.5 153t86 205.5t49.5 218.5t16 188.5q0 116 -29 203.5t-88 136.5t-151 49q-103 0 -179 -58t-128.5 -151.5t-84.5 -204t-46.5 -217.5t-14.5 -188q0 -114 29 -203.5t90.5 -140
t156.5 -50.5z" />
    <glyph glyph-name="Iota" unicode="&#x399;" horiz-adv-x="777" 
d="M-60 0l16 76h154q16 0 31.5 8.5t20.5 32.5l237 1114q5 22 -7 30.5t-27 8.5h-155l16 76h690l-16 -76h-154q-15 0 -31 -8.5t-21 -32.5l-236 -1114q-5 -22 6.5 -30.5t26.5 -8.5h155l-16 -76h-690z" />
    <glyph glyph-name="Kappa" unicode="&#x39a;" horiz-adv-x="1417" 
d="M-60 0l16 76h154q16 0 31.5 9.5t20.5 32.5l236 1110q5 23 -6.5 32.5t-26.5 9.5h-155l16 76h692l-16 -76h-156q-15 0 -31 -9.5t-21 -32.5l-115 -545l557 472q23 20 42 42t22 40q4 19 -5.5 26t-29.5 7h-127l16 76h499l-16 -76h-48q-54 0 -96.5 -23t-81.5 -55l-492 -417
l323 -618q20 -36 46.5 -58.5t83.5 -22.5h59l-16 -76h-415l-324 667l-118 -549q-5 -23 6.5 -32.5t26.5 -9.5h156l-15 -76h-692z" />
    <glyph glyph-name="Lambda" unicode="&#x39b;" horiz-adv-x="1373" 
d="M952 1346l192 -1217q5 -32 16.5 -42.5t37.5 -10.5h99l-16 -76h-630l16 76h148q16 0 31 12t9 56l-141 957l57 29l-578 -991q-23 -40 -13.5 -51.5t26.5 -11.5h165l-15 -76h-467l15 76h107q17 0 32.5 12t36.5 46l720 1212h152z" />
    <glyph glyph-name="Mu" unicode="&#x39c;" horiz-adv-x="1772" 
d="M-60 0l16 76h154q16 0 31.5 9.5t20.5 32.5l235 1106q6 27 -5.5 36.5t-26.5 9.5h-155l16 76h455l204 -760l526 760h499l-15 -76h-155q-15 0 -31 -9.5t-21 -32.5l-235 -1110q-5 -23 6.5 -32.5t26.5 -9.5h154l-16 -76h-687l16 76h157q15 0 31 9.5t20 32.5l222 1043
l-625 -906h-66l-227 871l-214 -1008q-5 -23 6.5 -32.5t26.5 -9.5h156l-16 -76h-484z" />
    <glyph glyph-name="Nu" unicode="&#x39d;" horiz-adv-x="1586" 
d="M-60 0l16 76h154q16 0 31.5 9.5t20.5 32.5l236 1110q5 23 -6.5 32.5t-26.5 9.5h-155l16 76h458l540 -994l187 876q5 23 -6.5 32.5t-26.5 9.5h-157l16 76h488l-16 -76h-154q-15 0 -30.5 -9.5t-20.5 -32.5l-261 -1228h-141l-631 1153l-220 -1035q-5 -23 6.5 -32.5
t26.5 -9.5h156l-16 -76h-484z" />
    <glyph glyph-name="Xi" unicode="&#x39e;" horiz-adv-x="1199" 
d="M-27 0l71 413h108q-2 -49 8.5 -101t39.5 -88t81 -36h514q52 0 96 36t77 88t50 101h109l-104 -413h-1050zM320 513l84 390h74q-3 -28 2.5 -56t21.5 -46.5t47 -18.5h233q31 0 55.5 18.5t42 46.5t27.5 56h74l-84 -390h-74q3 28 -2 56t-22 46.5t-48 18.5h-233
q-31 0 -55 -18.5t-41.5 -46.5t-27.5 -56h-74zM209 983l93 363h964l-61 -363h-109q3 46 -9.5 90t-41 73t-74.5 29h-439q-46 0 -88 -29t-74.5 -73t-51.5 -90h-109z" />
    <glyph glyph-name="Omicron" unicode="&#x39f;" horiz-adv-x="1522" 
d="M707 -19q-182 0 -312 70t-198.5 197t-68.5 299q0 143 42 288t133 265t238 193t359 73q182 0 310 -70.5t195.5 -199t67.5 -300.5q0 -146 -41 -290t-131.5 -263t-236.5 -190.5t-357 -71.5zM717 67q95 0 168 58.5t125.5 153t86 205.5t49.5 218.5t16 188.5q0 116 -29 203.5
t-88 136.5t-151 49q-103 0 -179 -58t-128.5 -151.5t-84.5 -204t-46.5 -217.5t-14.5 -188q0 -114 29 -203.5t90.5 -140t156.5 -50.5z" />
    <glyph glyph-name="Pi" unicode="&#x3a0;" horiz-adv-x="1628" 
d="M-60 0l16 76h154q16 0 31.5 9.5t20.5 32.5l236 1110q5 23 -6.5 32.5t-26.5 9.5h-155l16 76h1541l-16 -76h-154q-15 0 -31 -9.5t-21 -32.5l-236 -1110q-4 -23 7 -32.5t26 -9.5h154l-15 -76h-692l16 76h156q16 0 31.5 9.5t20.5 32.5l243 1143h-555l-243 -1143
q-4 -23 7 -32.5t26 -9.5h156l-15 -76h-692z" />
    <glyph glyph-name="Rho" unicode="&#x3a1;" horiz-adv-x="1328" 
d="M-60 0l16 76h154q16 0 31.5 9.5t20.5 32.5l235 1104q2 5 2 10v8q0 17 -10.5 23.5t-23.5 6.5h-155l16 76h639q221 0 344.5 -95.5t123.5 -259.5q0 -143 -70.5 -243t-192.5 -153t-277 -53h-244l-91 -424q-1 -4 -1 -12q0 -17 10.5 -23.5t23.5 -6.5h195l-15 -76h-731zM569 625
h154q81 0 138 39t93.5 101.5t54 134t17.5 134.5q0 109 -52 169.5t-149 60.5h-122z" />
    <glyph glyph-name="Sigma" unicode="&#x3a3;" horiz-adv-x="1194" 
d="M-34 0l28 133l711 651l-110 -149l-319 615l20 96h963l-53 -329h-109q5 56 -6 112.5t-38.5 94t-73.5 37.5h-436l258 -507l-742 -673l68 123h650q52 0 99.5 36.5t84.5 90t56 102.5h109l-109 -433h-1051z" />
    <glyph glyph-name="Tau" unicode="&#x3a4;" horiz-adv-x="1297" 
d="M188 0l16 76h169q15 0 30.5 9.5t20.5 32.5l242 1140h-153q-53 -1 -103 -44t-90.5 -108.5t-62.5 -133.5h-109l96 374h1177l-63 -374h-109q6 68 -6.5 133.5t-44 108.5t-83.5 44h-152l-243 -1140q-4 -23 7.5 -32.5t25.5 -9.5h169l-16 -76h-718z" />
    <glyph glyph-name="Upsilon" unicode="&#x3a5;" horiz-adv-x="1346" 
d="M211 0l16 76h154q16 0 32 9.5t20 32.5l105 494l-225 598q-10 27 -27 43.5t-55 16.5h-49l15 76h621l-16 -76h-139q-43 0 -50 -31q-2 -12 2.5 -29.5t8.5 -31.5l168 -486l387 474q18 23 29.5 40.5t14.5 32.5q7 31 -30 31h-128l15 76h437l-16 -76h-51q-34 0 -67.5 -16.5
t-67.5 -57.5l-479 -577l-106 -501q-5 -23 6 -32.5t26 -9.5h155l-16 -76h-690z" />
    <glyph glyph-name="Phi" unicode="&#x3a6;" horiz-adv-x="1676" 
d="M402 0l15 76h155q15 0 30.5 8.5t20.5 31.5l237 1115q5 22 -7 30.5t-27 8.5h-154l16 76h677l-16 -76h-154q-15 0 -31 -8.5t-20 -31.5l-237 -1115q-5 -22 6.5 -30.5t26.5 -8.5h155l-16 -76h-677zM665 224q-180 0 -308.5 60.5t-186.5 174t-25 271.5q31 144 128.5 234.5
t245 132.5t326.5 42h72l-15 -73h-61q-158 0 -258.5 -84.5t-141.5 -275.5q-28 -130 -5.5 -222t88 -140t167.5 -48h54l-15 -72h-65zM844 224l15 73h62q157 0 258 85t142 276q27 129 4.5 221t-87.5 140t-168 48h-54l16 72h65q179 0 307.5 -60.5t186.5 -174t25 -272.5
q-31 -144 -128.5 -234t-244.5 -132t-327 -42h-72z" />
    <glyph glyph-name="Chi" unicode="&#x3a7;" horiz-adv-x="1356" 
d="M626 0l15 76h123q34 0 41 31q3 12 -5 35.5t-14 36.5l-419 1031q-11 27 -29.5 43.5t-47.5 16.5h-63l15 76h609l-16 -76h-122q-35 0 -42 -31q-3 -12 0 -27.5t8 -30.5l426 -1031q21 -51 46 -62.5t66 -11.5h39l-16 -76h-614zM-84 0l15 76h66q29 0 55 12.5t51 38.5l612 617
l404 422q20 20 36 39t20 34q3 16 -4 23.5t-25 7.5h-126l16 76h436l-16 -76h-49q-18 0 -39 -6t-45.5 -22t-54.5 -48l-522 -521l-451 -469q-19 -20 -43.5 -50t-28.5 -45q-6 -33 28 -33h139l-16 -76h-458z" />
    <glyph glyph-name="Psi" unicode="&#x3a8;" horiz-adv-x="1960" 
d="M538 0l16 76h154q16 0 31.5 9.5t20.5 32.5l236 1110q5 23 -6.5 32.5t-26.5 9.5h-136l16 76h639l-16 -76h-135q-15 0 -31 -9.5t-21 -32.5l-236 -1110q-4 -23 7.5 -32.5t25.5 -9.5h155l-16 -76h-677zM821 429q-175 0 -303 50t-185 158t-19 284l65 307q5 23 -6 32.5t-27 9.5
h-154l16 76h502l-96 -450q-42 -198 21.5 -291.5t214.5 -93.5h71l-17 -82h-83zM1032 429l18 82h108q145 0 231 90t123 265l103 481h504l-16 -76h-154q-15 0 -31 -9.5t-21 -33.5l-79 -362q-31 -148 -116 -245t-216 -144.5t-301 -47.5h-153z" />
    <glyph glyph-name="uni03A9" unicode="&#x3a9;" horiz-adv-x="1492" 
d="M551 149q-154 64 -240.5 179t-112 255t4.5 280q52 244 224 372.5t484 128.5q208 0 335.5 -81t173.5 -221t7 -317q-40 -190 -198 -344.5t-431 -251.5l-43 24q107 76 181 166.5t120 193t70 213.5q32 149 20 270.5t-72 194.5t-174 73q-113 0 -193.5 -60.5t-132.5 -168
t-83 -250.5q-24 -117 -24.5 -233.5t32 -219.5t107.5 -179zM3 0l14 356h109q1 -46 12 -88t38.5 -68.5t77.5 -26.5h352l-37 -173h-566zM718 0l37 173h353q51 0 89 26.5t66.5 68.5t49.5 88h108l-137 -356h-566z" />
    <glyph glyph-name="Iotadieresis" unicode="&#x3aa;" horiz-adv-x="777" 
d="M-60 0l16 76h154q16 0 31.5 8.5t20.5 32.5l237 1114q5 22 -7 30.5t-27 8.5h-155l16 76h690l-16 -76h-154q-15 0 -31 -8.5t-21 -32.5l-236 -1114q-5 -22 6.5 -30.5t26.5 -8.5h155l-16 -76h-690zM799 1468q-49 0 -85 36t-36 86t36 86t85 36q50 0 85.5 -36t35.5 -86
t-35.5 -86t-85.5 -36zM412 1468q-51 0 -86.5 36t-35.5 86t35.5 86t86.5 36q48 0 84 -36t36 -86t-36 -86t-84 -36z" />
    <glyph glyph-name="Upsilondieresis" unicode="&#x3ab;" horiz-adv-x="1346" 
d="M211 0l16 76h154q16 0 32 9.5t20 32.5l105 494l-225 598q-10 27 -27 43.5t-55 16.5h-49l15 76h621l-16 -76h-139q-43 0 -50 -31q-2 -12 2.5 -29.5t8.5 -31.5l168 -486l387 474q18 23 29.5 40.5t14.5 32.5q7 31 -30 31h-128l15 76h437l-16 -76h-51q-34 0 -67.5 -16.5
t-67.5 -57.5l-479 -577l-106 -501q-5 -23 6 -32.5t26 -9.5h155l-16 -76h-690zM1094 1468q-49 0 -85 36t-36 86t36 86t85 36q50 0 85.5 -36t35.5 -86t-35.5 -86t-85.5 -36zM707 1468q-51 0 -86.5 36t-35.5 86t35.5 86t86.5 36q48 0 84 -36t36 -86t-36 -86t-84 -36z" />
    <glyph glyph-name="alphatonos" unicode="&#x3ac;" horiz-adv-x="1251" 
d="M375 -19q-109 0 -187 59.5t-107.5 174t4.5 280.5q36 164 114.5 271t186 159.5t228.5 52.5q101 0 163.5 -35t103.5 -104q13 28 30 61t38 63h251q-20 -56 -42 -125t-43.5 -144t-41 -149.5t-36 -142t-28.5 -123.5q-23 -108 5.5 -150.5t111.5 -42.5l-14 -67q-42 -12 -90 -21
t-109 -9q-101 0 -152 48t-50 113q-74 -79 -152.5 -124t-183.5 -45zM479 101q79 0 141 45.5t103 99.5q24 114 56 238t66 244q-13 53 -57 94.5t-118 41.5q-70 0 -127.5 -44.5t-100.5 -132.5t-71 -220q-38 -181 -6.5 -273.5t114.5 -92.5zM663 1106l119 346h268l-319 -346h-68z
" />
    <glyph glyph-name="epsilontonos" unicode="&#x3ad;" horiz-adv-x="1082" 
d="M462 -15q-144 0 -245 39.5t-147 112t-25 170.5q14 65 54.5 106.5t103 65.5t137.5 34q-90 24 -133 93t-25 156q14 63 62.5 113t140.5 78.5t237 28.5q135 0 222 -34t128 -97.5t36 -152.5h-249q6 83 -28 141.5t-118 58.5q-81 0 -121 -40.5t-55 -110.5q-17 -80 18 -137.5
t119 -57.5h113l-18 -85h-116q-98 0 -161.5 -47t-82.5 -133q-21 -100 22 -159t146 -59q109 0 183.5 61.5t107.5 190.5h197q-48 -170 -168.5 -253t-334.5 -83zM561 1106l119 346h268l-319 -346h-68z" />
    <glyph glyph-name="etatonos" unicode="&#x3ae;" horiz-adv-x="1228" 
d="M617 -358l209 980q23 107 2.5 158.5t-83.5 51.5q-44 0 -84.5 -16.5t-77.5 -45.5t-70 -65l-150 -705h-279l147 691q21 100 -9 141t-97 41l15 72q46 12 101 17t95 5q75 0 127.5 -36t56.5 -145q42 53 93.5 97t117.5 70.5t150 26.5q137 0 199.5 -90t20.5 -287l-205 -961h-279
zM647 1106l119 346h268l-319 -346h-68z" />
    <glyph glyph-name="iotatonos" unicode="&#x3af;" horiz-adv-x="665" 
d="M368 -11q-156 0 -221 80.5t-26 260.5l134 633h278l-138 -653q-17 -79 -9 -129t49 -73.5t123 -23.5h29l-16 -79q-43 -6 -86 -11t-117 -5zM339 1106l119 346h268l-319 -346h-68z" />
    <glyph glyph-name="upsilondieresistonos" unicode="&#x3b0;" horiz-adv-x="1118" 
d="M527 -14q-140 0 -236.5 48.5t-136.5 142t-12 226.5q12 52 23 95.5t24.5 96t28.5 126.5q19 87 -5 127.5t-96 40.5l14 67q37 7 91 12.5t107 5.5q61 0 105 -26t62 -80.5t0 -140.5q-16 -72 -40 -166t-48 -204q-19 -91 -12.5 -155t44 -97t105.5 -33q85 0 147.5 45t106.5 134
t72 221q17 79 19 165.5t-11 170.5t-40 155h199q9 -67 11.5 -144.5t-5 -166t-28.5 -189.5q-33 -154 -97.5 -260.5t-162 -161.5t-229.5 -55zM560 1090l107 347h268l-306 -347h-69zM432 1109q-51 0 -83.5 32t-32.5 81q0 48 32.5 79.5t83.5 31.5q48 0 80.5 -31.5t32.5 -79.5
q0 -49 -32.5 -81t-80.5 -32zM961 1109q-48 0 -80.5 32t-32.5 81q0 48 32.5 79.5t80.5 31.5q50 0 83.5 -31.5t33.5 -79.5q0 -49 -33.5 -81t-83.5 -32z" />
    <glyph glyph-name="alpha" unicode="&#x3b1;" horiz-adv-x="1251" 
d="M375 -19q-109 0 -187 59.5t-107.5 174t4.5 280.5q36 164 114.5 271t186 159.5t228.5 52.5q101 0 163.5 -35t103.5 -104q13 28 30 61t38 63h251q-20 -56 -42 -125t-43.5 -144t-41 -149.5t-36 -142t-28.5 -123.5q-23 -108 5.5 -150.5t111.5 -42.5l-14 -67q-42 -12 -90 -21
t-109 -9q-101 0 -152 48t-50 113q-74 -79 -152.5 -124t-183.5 -45zM479 101q79 0 141 45.5t103 99.5q24 114 56 238t66 244q-13 53 -57 94.5t-118 41.5q-70 0 -127.5 -44.5t-100.5 -132.5t-71 -220q-38 -181 -6.5 -273.5t114.5 -92.5z" />
    <glyph glyph-name="beta" unicode="&#x3b2;" horiz-adv-x="1185" 
d="M580 -12q-76 0 -141 16t-123 48l18 83q52 -32 101.5 -47t106.5 -15q92 0 160 74t101 230q25 119 8 195t-65 113t-118 37h-35l18 85h43q89 0 153.5 62.5t96.5 214.5q31 143 -1.5 224.5t-112.5 81.5q-55 0 -97.5 -37.5t-76.5 -124t-66 -235.5l-287 -1351h-277l293 1375
q50 234 183 335.5t328 101.5q135 0 224.5 -50.5t126 -139.5t11.5 -204q-24 -116 -106 -183t-208 -104q150 -41 209.5 -157t25.5 -274q-27 -131 -100 -209t-174.5 -111.5t-218.5 -33.5z" />
    <glyph glyph-name="gamma" unicode="&#x3b3;" horiz-adv-x="1089" 
d="M162 -358q39 101 71 199t56 201q-18 196 -46.5 378.5t-61.5 306.5q-22 84 -42.5 117.5t-81.5 33.5l15 73q43 11 94 16t89 5q77 0 127.5 -37t74.5 -141q17 -74 33.5 -182t30 -228.5t21.5 -232.5q78 80 140.5 178.5t105.5 202.5t63 197q18 83 19.5 139.5t-2.5 94.5h225
q2 -34 -1.5 -83.5t-15.5 -103.5q-17 -79 -63 -171t-116 -189.5t-158 -194t-189 -185.5q-13 -56 -31.5 -123.5t-40.5 -137t-47 -133.5h-269z" />
    <glyph glyph-name="delta" unicode="&#x3b4;" horiz-adv-x="1145" 
d="M504 -18q-153 0 -258.5 64.5t-151 172.5t-17.5 239q25 114 95 188t170.5 117t214.5 62q-119 106 -171.5 194.5t-30.5 201.5q22 104 128 169.5t280 65.5q120 0 210.5 -34t136 -99.5t30.5 -162.5h-222q15 113 -28 165.5t-128 52.5q-84 0 -123 -35t-48 -80
q-11 -53 12 -102.5t83 -108t157 -138.5q138 -112 183 -253t13 -294q-41 -191 -181.5 -288t-353.5 -97zM512 65q96 0 157.5 76.5t90.5 211.5q29 139 -11 239.5t-138 184.5q-58 -23 -113 -66.5t-97.5 -112.5t-63.5 -172q-21 -96 -8.5 -178.5t58.5 -132.5t125 -50z" />
    <glyph glyph-name="epsilon" unicode="&#x3b5;" horiz-adv-x="1082" 
d="M462 -15q-144 0 -245 39.5t-147 112t-25 170.5q14 65 54.5 106.5t103 65.5t137.5 34q-90 24 -133 93t-25 156q14 63 62.5 113t140.5 78.5t237 28.5q135 0 222 -34t128 -97.5t36 -152.5h-249q6 83 -28 141.5t-118 58.5q-81 0 -121 -40.5t-55 -110.5q-17 -80 18 -137.5
t119 -57.5h113l-18 -85h-116q-98 0 -161.5 -47t-82.5 -133q-21 -100 22 -159t146 -59q109 0 183.5 61.5t107.5 190.5h197q-48 -170 -168.5 -253t-334.5 -83z" />
    </font>
</defs>
</svg>
