<svg xmlns="http://www.w3.org/2000/svg">
<defs>
<font id="AptosSerif-Italic" horiz-adv-x="1120" >
  <font-face 
    font-family="Aptos Serif"
    font-weight="400"
    font-style="italic"
    font-stretch="normal"
    units-per-em="2048"
    panose-1="2 2 6 4 7 4 5 2 3 4"
    ascent="1638"
    descent="-410"
    x-height="958"
    cap-height="1346"
    bbox="-952 -563 2476 2068"
    underline-thickness="50"
    underline-position="-125"
    slope="-12"
    unicode-range="U+000D-FDFC"
  />
<missing-glyph horiz-adv-x="965" 
d="M42 0v1354h965v-1354h-965zM518 222q-40 0 -66 26t-26 64t26 64t66 26q39 0 65.5 -26t26.5 -64t-26.5 -64t-65.5 -26zM114 71h820v1210h-820v-1210zM457 514q-4 83 24 135t88 96q57 43 83.5 77.5t26.5 85.5q0 55 -38 91.5t-117 36.5t-123.5 -41.5t-44.5 -115.5h-128
q0 126 82 194t214 68q133 0 211.5 -62t78.5 -171q0 -82 -41 -131.5t-108 -100.5q-51 -40 -69 -75t-22 -87h-117z" />
    <glyph glyph-name="uniFB01" unicode="fi" horiz-adv-x="1189" 
d="M-163 -359l12 58q104 0 160 67.5t88 221.5l217 1021q37 168 110 262.5t170.5 134t203.5 39.5q160 0 234.5 -62t75.5 -149h-190q-3 66 -33.5 110.5t-103.5 44.5q-63 0 -114.5 -37.5t-91 -117t-66.5 -206.5l-223 -1046q-29 -137 -85 -211t-135.5 -102t-180.5 -28h-48z
M126 885l16 73h906l-46 -73h-876zM900 -8q-64 0 -107 27.5t-57 89t9 163.5l103 453q13 51 13 87t-19.5 55t-67.5 19h-54l12 54l356 24l-159 -705q-24 -108 7.5 -151t135.5 -43l-12 -55q-37 -8 -76 -13t-84 -5z" />
    <glyph glyph-name="uniFB02" unicode="fl" horiz-adv-x="1183" 
d="M-163 -359l12 58q104 0 159.5 67.5t88.5 221.5l191 897h-162l16 73h162l10 51q33 157 96.5 247.5t156 129t210.5 38.5q67 0 119 -9.5t98 -22.5l184 54l-255 -1187q-22 -107 9 -150.5t134 -43.5l-12 -55q-37 -8 -76 -13t-84 -5q-63 0 -105.5 27.5t-56.5 89t8 163.5
l188 880q25 116 -21 166t-141 50q-105 0 -162.5 -80.5t-93.5 -258.5l-15 -71h221l-15 -73h-222l-193 -903q-29 -137 -85 -211t-135.5 -102t-180.5 -28h-48z" />
    <glyph glyph-name="f_f.liga" unicode="ff" horiz-adv-x="1194" 
d="M126 885l16 73h741l11 51q34 166 95 261t141.5 135t172.5 40q125 0 175.5 -62t34.5 -146h-169q14 65 4 108.5t-60 43.5q-66 0 -112 -87t-86 -274l-16 -70h222l-16 -73h-221l-194 -903q-29 -137 -85 -211t-135.5 -102t-180.5 -28h-48l12 58q105 0 160 67.5t88 221.5
l192 897h-742zM954 1149q-7 100 -53 159.5t-136 59.5q-69 0 -116.5 -35.5t-80.5 -110t-58 -192.5l-224 -1048q-29 -137 -85 -211t-135.5 -102t-180.5 -28h-48l12 58q104 0 160 67.5t88 221.5l217 1021q34 157 97.5 247.5t155.5 129t210 38.5q86 0 166.5 -26t126.5 -76z" />
    <glyph glyph-name="f_f_i.liga" unicode="ffi" horiz-adv-x="1769" 
d="M954 1149q-7 100 -53 159.5t-136 59.5q-69 0 -116.5 -35.5t-80.5 -110t-58 -192.5l-224 -1048q-29 -137 -85 -211t-135.5 -102t-180.5 -28h-48l12 58q104 0 160 67.5t88 221.5l217 1021q34 157 97.5 247.5t155.5 129t210 38.5q86 0 166.5 -26t126.5 -76zM416 -359l12 58
q105 0 160.5 67.5t88.5 221.5l217 1021q36 168 109.5 262.5t170.5 134t204 39.5q159 0 234 -62t76 -149h-191q-2 66 -32.5 110.5t-98.5 44.5q-65 0 -118 -37.5t-93 -117t-67 -206.5l-222 -1046q-29 -137 -85 -211t-135.5 -102t-180.5 -28h-49zM126 885l16 73h1486l-47 -73
h-1455zM1479 -8q-63 0 -106 27.5t-57 89t9 163.5l103 453q12 51 12.5 87t-19 55t-67.5 19h-54l12 54l356 24l-159 -705q-25 -108 7 -151t136 -43l-12 -55q-38 -8 -77 -13t-84 -5z" />
    <glyph glyph-name="f_f_l.liga" unicode="ffl" horiz-adv-x="1762" 
d="M954 1149q-7 100 -53 159.5t-136 59.5q-69 0 -116.5 -35.5t-80.5 -110t-58 -192.5l-224 -1048q-29 -137 -85 -211t-135.5 -102t-180.5 -28h-48l12 58q104 0 160 67.5t88 221.5l217 1021q34 157 97.5 247.5t155.5 129t210 38.5q86 0 166.5 -26t126.5 -76zM416 -359l12 58
q104 0 159.5 67.5t88.5 221.5l192 897h-742l16 73h741l10 51q33 157 96.5 247.5t156 129t210.5 38.5q68 0 120 -9.5t97 -22.5l184 54l-254 -1187q-23 -107 8 -150.5t134 -43.5l-12 -55q-37 -8 -76 -13t-84 -5q-63 0 -105.5 27.5t-56.5 89t8 163.5l188 880q25 116 -20.5 166
t-139.5 50q-106 0 -164 -80.5t-94 -258.5l-15 -71h221l-15 -73h-222l-193 -903q-29 -137 -85 -211t-135.5 -102t-180.5 -28h-48z" />
    <glyph glyph-name="uniFDFC" unicode="&#xfdfc;" horiz-adv-x="1727" arabic-form="isolated" 
d="M329 86q-125 0 -190.5 63t-65.5 166q0 64 15.5 112.5t34.5 91.5l51 -13q-13 -32 -20 -63.5t-7 -65.5q0 -71 48.5 -108t140.5 -37q167 0 247 57.5t80 209.5v657h82v-660q0 -204 -104.5 -307t-311.5 -103zM1214 -16l-71 142q108 1 181.5 27t118 66.5t64.5 85.5t20 83
q0 41 -26 100.5t-76 128.5l98 72q42 -80 61.5 -148.5t19.5 -129.5q0 -95 -38.5 -187.5t-124 -158t-227.5 -81.5zM1090 221q-112 0 -166 64t-54 199v672h83v-653q0 -71 37.5 -104.5t119.5 -33.5q72 0 119.5 24t47.5 66q0 35 -14 72.5t-48 93.5l87 64q24 -57 34 -107.5
t10 -101.5q0 -121 -69.5 -188t-186.5 -67zM1022 -180l100 100l100 -100l-100 -100zM1231 -180l100 100l100 -100l-100 -100z" />
    <glyph glyph-name=".notdef" horiz-adv-x="965" 
d="M42 0v1354h965v-1354h-965zM518 222q-40 0 -66 26t-26 64t26 64t66 26q39 0 65.5 -26t26.5 -64t-26.5 -64t-65.5 -26zM114 71h820v1210h-820v-1210zM457 514q-4 83 24 135t88 96q57 43 83.5 77.5t26.5 85.5q0 55 -38 91.5t-117 36.5t-123.5 -41.5t-44.5 -115.5h-128
q0 126 82 194t214 68q133 0 211.5 -62t78.5 -171q0 -82 -41 -131.5t-108 -100.5q-51 -40 -69 -75t-22 -87h-117z" />
    <glyph glyph-name=".null" horiz-adv-x="0" 
 />
    <glyph glyph-name="uni000D" unicode="&#xd;" horiz-adv-x="0" 
 />
    <glyph glyph-name="space" unicode=" " horiz-adv-x="463" 
 />
    <glyph glyph-name="exclam" unicode="!" horiz-adv-x="593" 
d="M242 424q12 120 30 265t42.5 304t55.5 318l7 35h199l-7 -35q-31 -160 -74.5 -318.5t-89.5 -303t-85 -265.5h-78zM218 -11q-59 0 -98 39t-39 96q0 58 39 95.5t98 37.5t98 -37.5t39 -95.5q0 -57 -39 -96t-98 -39z" />
    <glyph glyph-name="quotedbl" unicode="&#x22;" horiz-adv-x="757" 
d="M229 864q6 58 15 126t19 135.5t20 122.5t17 87l2 11h179l-2 -11q-7 -33 -21 -88t-32 -121t-38 -134t-39 -128h-120zM568 864q6 58 15.5 126t19.5 135.5t19.5 122.5t16.5 87l2 11h180l-2 -11q-7 -33 -21 -88t-32.5 -121t-38.5 -134t-39 -128h-120z" />
    <glyph glyph-name="numbersign" unicode="#" horiz-adv-x="1098" 
d="M111 0l146 412h-217l21 101h230l99 277h-233l21 100h246l146 413h100l-146 -413h299l145 413h100l-144 -413h208l-21 -100h-222l-97 -277h222l-21 -101h-236l-145 -412h-100l144 412h-299l-146 -412h-100zM391 513h301l98 277h-300z" />
    <glyph glyph-name="dollar" unicode="$" 
d="M386 -217l370 1745h76l-370 -1745h-76zM533 3q-95 0 -176.5 19.5t-141.5 49t-90 58.5l-24 -122h-81l63 412h101q3 -100 46 -176t120.5 -119t185.5 -43q117 0 194 53t93 164q11 74 -10 129t-85 102.5t-184 98.5q-114 49 -192.5 108.5t-112.5 139.5t-15 189
q16 90 75.5 152.5t155 94.5t219.5 32q121 0 213 -36t132 -74l20 90h80l-51 -350h-106q-8 133 -83.5 215t-215.5 82q-108 0 -176 -44.5t-83 -135.5q-9 -61 10 -112t79.5 -97.5t172.5 -96.5q135 -58 218 -120t115 -143.5t13 -199.5q-16 -109 -83 -180t-169 -105.5t-227 -34.5z
" />
    <glyph glyph-name="percent" unicode="%" horiz-adv-x="1760" 
d="M315 0l1095 1303h97l-1088 -1303h-104zM426 514q-105 0 -165 57.5t-76 155.5t9 221q37 174 126 273.5t223 99.5q102 0 163.5 -59t80 -160.5t-10.5 -227.5q-38 -166 -127 -263t-223 -97zM433 566q61 0 99 47t62.5 125t42.5 172q20 98 17 179t-32.5 129.5t-87.5 48.5
q-59 0 -97 -46t-62.5 -124.5t-44.5 -173.5q-18 -94 -16.5 -175.5t30.5 -131.5t89 -50zM1280 -19q-105 0 -165 57.5t-76 155.5t9 221q37 174 126 273.5t223 99.5q102 0 163.5 -59t80 -160.5t-10.5 -227.5q-38 -166 -127 -263t-223 -97zM1287 33q61 0 99 47t62.5 125t42.5 172
q20 98 17 179t-32.5 129.5t-87.5 48.5q-59 0 -97 -46t-62.5 -124.5t-44.5 -173.5q-18 -94 -16.5 -175.5t30.5 -131.5t89 -50z" />
    <glyph glyph-name="ampersand" unicode="&#x26;" horiz-adv-x="1389" 
d="M484 -14q-133 0 -233 54t-147 148t-22 215q24 108 95 175t173 114t214 92q129 53 213.5 125.5t106.5 179.5q19 91 -16 148.5t-111 57.5q-69 0 -118 -45.5t-66 -124.5q-14 -66 5 -142.5t83 -173.5l445 -666q27 -41 64 -59.5t86 -18.5h37l-14 -65h-296l-470 710
q-66 100 -100.5 200t-11.5 210q25 118 123 181t244 63q98 0 165.5 -37.5t97 -101.5t11.5 -144q-16 -78 -71 -134t-139 -101t-189 -93q-100 -47 -176.5 -93.5t-126 -107.5t-69.5 -155q-18 -86 6 -162t86 -123t156 -47q133 0 223.5 65t164.5 158q61 77 102 181t68 241l12 60
h355l-14 -66h-113q-41 0 -58.5 -9.5t-26.5 -37.5q-28 -83 -64 -165.5t-82 -155t-106 -126.5q-51 -48 -101.5 -89t-107.5 -71.5t-127 -47t-160 -16.5z" />
    <glyph glyph-name="quotesingle" unicode="'" horiz-adv-x="414" 
d="M229 864q6 58 15 126t19.5 135.5t20 122.5t16.5 87l2 11h179l-2 -11q-7 -33 -21 -88t-32 -121t-38 -134t-39 -128h-120z" />
    <glyph glyph-name="parenleft" unicode="(" horiz-adv-x="607" 
d="M266 -359q-77 136 -123 277t-53.5 295.5t29.5 327.5q54 254 189.5 485.5t342.5 427.5h99q-173 -206 -286 -441.5t-162 -468.5q-55 -256 -33 -487t96 -416h-99z" />
    <glyph glyph-name="parenright" unicode=")" horiz-adv-x="607" 
d="M-114 -359q152 185 272 416t175 487q49 233 36 468.5t-98 441.5h99q124 -196 161.5 -427.5t-16.5 -485.5q-37 -173 -110 -327.5t-178.5 -295.5t-241.5 -277h-99z" />
    <glyph glyph-name="asterisk" unicode="*" horiz-adv-x="804" 
d="M295 749l-85 85l225 183l-252 123l64 108l237 -165l39 279l123 -26l-77 -271l284 54l15 -125l-284 -9l132 -259l-114 -42l-101 279z" />
    <glyph glyph-name="plus" unicode="+" 
d="M549 228v883h108v-883h-108zM161 630v100h884v-100h-884z" />
    <glyph glyph-name="comma" unicode="," horiz-adv-x="566" 
d="M5 -261l-21 57q73 26 132 78.5t87 125.5l7 -11q-69 4 -104 50.5t-21 112.5q12 50 47.5 78.5t87.5 28.5q74 0 110.5 -55t14.5 -159q-17 -87 -69 -146t-123.5 -97.5t-147.5 -62.5z" />
    <glyph glyph-name="hyphen" unicode="-" horiz-adv-x="721" 
d="M88 414l36 166h511l-34 -166h-513z" />
    <glyph glyph-name="period" unicode="." horiz-adv-x="593" 
d="M220 -11q-59 0 -98 39t-39 96q0 58 39 95.5t98 37.5t98 -37.5t39 -95.5q0 -57 -39 -96t-98 -39z" />
    <glyph glyph-name="slash" unicode="/" horiz-adv-x="658" 
d="M-109 -100l855 1546h103l-856 -1546h-102z" />
    <glyph glyph-name="zero" unicode="0" 
d="M497 -16q-129 0 -211 58.5t-122.5 159.5t-44.5 229.5t23 266.5q35 189 108.5 329.5t186.5 218.5t264 76q125 -1 205 -58.5t119.5 -156.5t44 -226.5t-22.5 -267.5q-35 -190 -108 -331t-183 -219.5t-259 -78.5zM509 56q73 0 128 45.5t95 126t69 184.5t51 219
q22 118 29.5 228t-7 199t-59 141t-127.5 52q-75 0 -131.5 -44.5t-98 -122.5t-72 -182t-52.5 -224q-22 -117 -28 -228t10.5 -200t63 -141.5t129.5 -52.5z" />
    <glyph glyph-name="one" unicode="1" 
d="M126 0l14 65h236q12 0 26.5 7.5t19.5 30.5l230 1081q-35 -39 -90 -76t-127.5 -66t-160.5 -46l18 85q86 16 163.5 52.5t140.5 84t104 93.5h179l-256 -1207q-5 -21 5.5 -30t24.5 -9h231l-14 -65h-744z" />
    <glyph glyph-name="two" unicode="2" 
d="M-4 0l23 117l551 424q98 76 161.5 142t99.5 130.5t51 136.5q18 84 7 152t-56 108.5t-130 40.5q-133 0 -210 -89t-104 -227h-185q25 123 91 209.5t171.5 132t246.5 45.5q206 0 300.5 -109.5t55.5 -291.5q-20 -96 -79.5 -170t-150 -141.5t-203.5 -144.5l-449 -311h522
q53 0 87.5 25t59.5 63.5t48 79.5h86l-89 -322h-905z" />
    <glyph glyph-name="three" unicode="3" 
d="M502 -17q-214 0 -331.5 103t-95.5 300h186q-12 -149 50.5 -240.5t197.5 -91.5q118 0 191 70.5t97 217.5q24 150 -43.5 228.5t-206.5 78.5h-72l15 77h78q134 0 213 66.5t97 188.5q22 135 -37 203.5t-163 68.5q-124 0 -192.5 -81t-85.5 -218h-186q29 173 148 271.5
t322 98.5q118 0 211 -42.5t140 -123t28 -195.5q-17 -108 -98 -180.5t-216 -95.5q82 -17 142 -65t87.5 -124t10.5 -177q-28 -167 -154 -252.5t-333 -85.5z" />
    <glyph glyph-name="four" unicode="4" 
d="M585 0l61 282h-626l25 116l841 915h169l-189 -891h178l-30 -140h-178l-61 -282h-190zM145 389l2 33h531l159 749l19 -3z" />
    <glyph glyph-name="five" unicode="5" 
d="M495 -18q-135 0 -234 43t-150.5 124.5t-42.5 197.5h189q-8 -137 59.5 -215.5t186.5 -78.5q131 0 204.5 89t100.5 258q29 180 -36 262t-190 82q-90 0 -169 -37.5t-129 -103.5h-104l177 703h713l-32 -148h-632l-122 -467q56 63 137.5 97.5t191.5 34.5q88 0 165.5 -27
t133.5 -82.5t80.5 -138t6.5 -193.5q-32 -197 -160.5 -298.5t-343.5 -101.5z" />
    <glyph glyph-name="six" unicode="6" 
d="M550 -17q-153 0 -262.5 80.5t-149.5 248.5t11 427q39 193 123 323t204 196t263 66q110 0 190 -39t125.5 -112t49.5 -176h-187q-5 115 -54 185t-139 70q-135 0 -235.5 -142t-153.5 -413l-6 -35q-41 -207 -19.5 -341.5t87.5 -200.5t156 -66q109 0 170 82t88 225
q21 110 1.5 186t-68.5 116t-117 40q-84 0 -155 -28.5t-126.5 -71.5t-90.5 -86l-6 79q72 80 180.5 136t250.5 56q109 0 192 -51t120.5 -149.5t9.5 -242.5q-31 -162 -147 -262t-305 -100z" />
    <glyph glyph-name="seven" unicode="7" 
d="M190 0l855 1137h-569q-49 0 -81.5 -21.5t-59 -60.5t-56.5 -91h-86l96 342h912l-24 -115l-807 -1191h-180z" />
    <glyph glyph-name="eight" unicode="8" 
d="M498 -18q-133 0 -237 48.5t-155.5 143.5t-26.5 233q21 122 111.5 198t216.5 100q-46 22 -88.5 65t-64.5 108t-10 150q23 148 143 222t295 74q114 0 205.5 -44.5t139 -126.5t29.5 -193q-18 -121 -93.5 -187t-168.5 -92q62 -19 112 -69t75 -123.5t9 -166.5
q-18 -113 -82.5 -189t-169 -113.5t-240.5 -37.5zM506 56q121 0 193.5 71t94.5 209q16 107 -11 178.5t-82.5 106.5t-123.5 35q-112 0 -194.5 -63.5t-107.5 -204.5q-27 -158 42.5 -245t188.5 -87zM614 719q102 0 171 62t88 186q15 90 -7.5 153.5t-71.5 97t-115 33.5
q-100 0 -164.5 -61.5t-84.5 -179.5q-15 -95 6 -160t68.5 -98t109.5 -33z" />
    <glyph glyph-name="nine" unicode="9" 
d="M474 -17q-116 0 -201 38.5t-131.5 112t-51.5 175.5h187q6 -122 56 -188.5t149 -66.5q126 0 227 142t153 413l6 34q41 213 20 348t-84 198.5t-151 63.5q-79 0 -133 -39.5t-86.5 -107.5t-49.5 -154q-32 -169 26.5 -259t172.5 -90q76 0 144 28t122.5 70t89.5 84l6 -75
q-71 -80 -174.5 -136t-237.5 -56q-114 0 -201.5 50t-127.5 147.5t-12 242.5q31 164 150 265t313 101q110 0 199 -44.5t146 -136.5t71 -235t-26 -342q-41 -205 -126 -333.5t-199.5 -189t-245.5 -60.5z" />
    <glyph glyph-name="colon" unicode=":" horiz-adv-x="593" 
d="M371 707q-59 0 -98 40t-39 94q0 60 39 97.5t98 37.5q60 0 99 -37.5t39 -97.5q0 -54 -39 -94t-99 -40zM220 -11q-59 0 -98 39t-39 96q0 58 39 95.5t98 37.5t98 -37.5t39 -95.5q0 -57 -39 -96t-98 -39z" />
    <glyph glyph-name="semicolon" unicode=";" horiz-adv-x="566" 
d="M371 707q-59 0 -98 40t-39 94q0 60 39 97.5t98 37.5q60 0 99 -37.5t39 -97.5q0 -54 -39 -94t-99 -40zM5 -261l-21 57q73 26 132 78.5t87 125.5l7 -11q-69 4 -104 50.5t-21 112.5q12 50 47.5 78.5t87.5 28.5q74 0 110.5 -55t14.5 -159q-17 -87 -69 -146t-123.5 -97.5
t-147.5 -62.5z" />
    <glyph glyph-name="less" unicode="&#x3c;" 
d="M1045 203l-882 426v102l882 420v-106l-776 -365l776 -370v-107z" />
    <glyph glyph-name="equal" unicode="=" 
d="M160 814v101h884v-101h-884zM160 445v101h884v-101h-884z" />
    <glyph glyph-name="greater" unicode="&#x3e;" 
d="M163 203v107l776 370l-776 365v106l882 -420v-102z" />
    <glyph glyph-name="question" unicode="?" horiz-adv-x="990" 
d="M424 425q-3 22 -2 53.5t9 69.5q14 69 62 131t140 127q83 58 127.5 110t60.5 126q23 109 -15.5 179.5t-133.5 70.5q-101 0 -171 -75t-99 -218h-193q40 185 163 273t310 88q122 0 200.5 -49t110 -131t9.5 -181q-22 -107 -87.5 -170.5t-170.5 -129.5q-76 -48 -118.5 -89.5
t-64.5 -85t-38 -99.5h-99zM440 -11q-61 0 -100 39t-39 96q0 58 39 95.5t100 37.5q59 0 97.5 -37.5t38.5 -95.5q0 -57 -38.5 -96t-97.5 -39z" />
    <glyph glyph-name="at" unicode="@" horiz-adv-x="1887" 
d="M889 -245q-252 0 -434 97t-271 277t-63 429q20 190 101.5 344t211 263.5t297.5 169t360 59.5q186 0 329 -57.5t237 -160t135.5 -239.5t24.5 -295q-17 -169 -78.5 -292.5t-156.5 -191t-213 -67.5q-107 0 -167.5 43t-77.5 130q-56 -76 -137 -126t-185 -50
q-100 0 -171.5 56.5t-98 168.5t8.5 279q31 150 103 254.5t169 159t203 54.5q85 0 145.5 -44t86.5 -102l46 128h156l-145 -686q-19 -93 6 -143t90 -50q71 0 126.5 58.5t93 166.5t52.5 252q22 205 -43.5 359.5t-205 241.5t-340.5 87q-216 0 -391.5 -97t-286 -270t-135.5 -403
q-24 -230 48 -394.5t219.5 -252t350.5 -87.5q110 0 217.5 19t198.5 53l-8 -75q-91 -33 -195 -49.5t-213 -16.5zM859 180q85 0 155 53t116 128l96 461q-19 59 -67.5 104.5t-120.5 45.5q-107 0 -192.5 -101.5t-126.5 -297.5q-39 -186 3 -289.5t137 -103.5z" />
    <glyph glyph-name="A" unicode="A" horiz-adv-x="1333" 
d="M-104 0l13 65h113q15 0 28 8t27 32l722 1241h113l183 -1241q4 -23 14 -31.5t29 -8.5h109l-13 -65h-528l13 65h137q17 0 30.5 9t11.5 37l-141 1076l36 13l-617 -1083q-18 -31 -8 -41.5t28 -10.5h150l-14 -65h-436zM329 463l22 75h649l-21 -75h-650z" />
    <glyph glyph-name="B" unicode="B" horiz-adv-x="1337" 
d="M-55 0l13 65h151q13 0 27.5 7.5t18.5 28.5l241 1137q2 6 2.5 11t0.5 9q0 13 -10 18t-22 5h-151l14 65l620 1q192 0 298.5 -79.5t106.5 -218.5q0 -133 -84 -221.5t-221 -116.5q122 -27 193 -99t71 -195q0 -109 -47 -187.5t-129 -129.5t-187 -75.5t-220 -24.5h-686zM353 74
h269q119 0 205 46.5t132.5 128t46.5 182.5q0 121 -71 179t-192 58h-265zM493 743h236q108 0 182.5 41t112.5 113.5t38 164.5q0 102 -61.5 155.5t-175.5 53.5h-219z" />
    <glyph glyph-name="C" unicode="C" horiz-adv-x="1363" 
d="M688 -18q-176 0 -299.5 68.5t-188 195.5t-64.5 301q0 160 47 306.5t140.5 262t234.5 182t328 66.5q142 0 242.5 -39.5t139.5 -79.5l21 101h80l-58 -396h-112q-9 103 -46.5 179t-106.5 119t-169 44q-111 0 -196.5 -50t-147.5 -133.5t-102 -186t-59 -210t-19 -203.5
q0 -198 87 -320.5t272 -122.5q163 0 277.5 94t157.5 294h111q-50 -236 -195 -354t-375 -118z" />
    <glyph glyph-name="D" unicode="D" horiz-adv-x="1477" 
d="M-55 0l13 65h151q12 0 26.5 7.5t19.5 26.5l241 1140q1 4 1.5 8t0.5 7q0 15 -9.5 21t-21.5 6h-151l14 65h584q193 0 328 -68.5t206.5 -194t71.5 -297.5q0 -113 -27 -226t-85.5 -213.5t-154 -178.5t-232.5 -123t-321 -45h-655zM353 76h218q157 0 267.5 47.5t182 127
t111.5 176.5t56 197.5t16 187.5q0 212 -103 335.5t-312 123.5h-183z" />
    <glyph glyph-name="E" unicode="E" horiz-adv-x="1187" 
d="M-56 0l14 65h150q13 0 27.5 7.5t19.5 28.5l242 1142q5 21 -6 29.5t-24 8.5h-151l14 65h1017l-60 -339h-91q8 64 -0.5 124t-34.5 99.5t-72 39.5h-382l-115 -541h524l-16 -76h-525l-122 -577h388q51 0 92.5 31t73.5 78t55.5 99.5t39.5 94.5h91l-100 -379h-1049z" />
    <glyph glyph-name="F" unicode="F" horiz-adv-x="1159" 
d="M-56 0l14 65h150q13 0 27.5 7.5t19.5 28.5l242 1142q5 21 -6 29.5t-24 8.5h-151l14 65h1010h1l-58 -339h-91q7 64 -1 124t-34 99t-72 40h-378l-115 -541h487l-17 -76h-487l-116 -550q-4 -21 6.5 -29.5t23.5 -8.5h189l-14 -65h-620z" />
    <glyph glyph-name="G" unicode="G" horiz-adv-x="1448" 
d="M695 -19q-178 0 -303 70.5t-190.5 198t-65.5 297.5q0 114 26.5 230.5t83 221.5t147.5 187.5t219.5 130.5t299.5 48q89 0 166 -17.5t136 -43t92 -50.5l20 92h81l-59 -402h-112q-10 152 -94 250.5t-240 98.5q-127 0 -220.5 -51t-157.5 -136t-103 -189t-56 -212t-17 -202
q0 -194 86.5 -316t271.5 -122q135 0 228 63t148.5 176t77.5 260h-341l17 76h546l-17 -78q-37 -171 -118 -302t-216 -205t-336 -74z" />
    <glyph glyph-name="H" unicode="H" horiz-adv-x="1558" 
d="M-56 0l14 65h150q13 0 27.5 7.5t19.5 28.5l242 1142q5 21 -6 29.5t-24 8.5h-151l14 65h592l-14 -65h-160q-13 0 -27.5 -7.5t-19.5 -28.5l-105 -497h678l105 495q5 21 -6 29.5t-24 8.5h-161l14 65h592l-14 -65h-150q-13 0 -27.5 -7.5t-19.5 -28.5l-242 -1142
q-4 -21 6.5 -29.5t23.5 -8.5h151l-14 -65h-592l14 65h160q13 0 27.5 8t19.5 28l121 572h-678l-121 -570q-4 -21 6.5 -29.5t23.5 -8.5h160l-13 -65h-592z" />
    <glyph glyph-name="I" unicode="I" horiz-adv-x="677" 
d="M-56 0l14 65h150q13 0 27.5 7.5t19.5 28.5l242 1142q5 21 -6 29.5t-24 8.5h-151l14 65h582l-14 -65h-150q-13 0 -27.5 -7.5t-19.5 -28.5l-242 -1142q-4 -21 6.5 -29.5t23.5 -8.5h151l-14 -65h-582z" />
    <glyph glyph-name="J" unicode="J" horiz-adv-x="965" 
d="M300 -18q-173 0 -245 77.5t-51 215.5h186q-17 -102 13.5 -161t101.5 -59q63 0 101 36t61.5 100.5t41.5 150.5l191 901q5 21 -6 29.5t-25 8.5h-150l14 65h582l-14 -65h-150q-14 0 -28.5 -7.5t-18.5 -28.5l-193 -910q-21 -99 -68.5 -179t-131 -127t-211.5 -47z" />
    <glyph glyph-name="K" unicode="K" horiz-adv-x="1286" 
d="M-56 0l14 65h150q14 0 28.5 9t18.5 30l242 1138q5 21 -5.5 30t-24.5 9h-151l14 65h592l-14 -65h-160q-14 0 -28 -9t-19 -30l-117 -552l555 481q22 20 41.5 41.5t22.5 38.5q4 18 -6 24t-26 6h-116l14 65h445l-14 -65h-43q-50 0 -87 -19t-70 -47l-541 -470l370 -615
q22 -36 45 -50.5t63 -14.5h61l-14 -65h-308l-394 681l-123 -577q-4 -21 6.5 -30t23.5 -9h160l-13 -65h-592z" />
    <glyph glyph-name="L" unicode="L" horiz-adv-x="1162" 
d="M-56 0l14 65h150q14 0 28.5 9t18.5 30l242 1138q5 21 -5.5 30t-24.5 9h-151l14 65h592l-14 -65h-160q-14 0 -28 -9t-19 -30l-248 -1166h388q51 0 92.5 31t73.5 78.5t56 99.5t39 94h91l-100 -379h-1049z" />
    <glyph glyph-name="M" unicode="M" horiz-adv-x="1674" 
d="M-56 0l14 65h150q14 0 28.5 9t18.5 30l240 1131q6 27 -4 36.5t-24 9.5h-151l14 65h356l247 -825l583 825h394l-14 -65h-151q-13 0 -27.5 -9t-19.5 -30l-241 -1138q-5 -21 5.5 -30t24.5 -9h150l-14 -65h-589l14 65h160q14 0 28.5 9t18.5 30l226 1063l-620 -876h-57
l-249 843l-218 -1030q-5 -21 5.5 -30t24.5 -9h160l-14 -65h-469z" />
    <glyph glyph-name="N" unicode="N" horiz-adv-x="1552" 
d="M-56 0l14 65h150q14 0 28.5 9t18.5 30l242 1138q5 21 -5.5 30t-24.5 9h-151l14 65h371l580 -1085l208 981q5 21 -5.5 30t-24.5 9h-160l14 65h475l-14 -65h-150q-14 0 -28 -9t-19 -30l-264 -1242h-105l-642 1185l-229 -1081q-5 -21 5.5 -30t24.5 -9h160l-14 -65h-469z" />
    <glyph glyph-name="O" unicode="O" horiz-adv-x="1507" 
d="M694 -19q-177 0 -302 71t-191 198t-66 295q0 143 42 288.5t132.5 266t235 193.5t350.5 73q178 0 302 -71.5t189.5 -199t65.5 -295.5q0 -142 -41 -286t-130.5 -264.5t-234.5 -194.5t-352 -74zM705 54q114 0 201.5 52.5t150 139.5t102.5 193t58.5 215t18.5 204
q0 126 -37 224.5t-114.5 154.5t-197.5 56q-118 0 -206.5 -52t-151 -138.5t-101.5 -193t-57 -215t-18 -203.5q0 -125 37 -224t115 -156t200 -57z" />
    <glyph glyph-name="P" unicode="P" horiz-adv-x="1235" 
d="M-56 0l14 65h150q14 0 28.5 9t18.5 30l241 1132q1 5 1.5 9.5t0.5 7.5q0 15 -10 21.5t-21 6.5h-151l14 65h582q202 0 313 -92.5t111 -246.5q0 -143 -68.5 -242.5t-187 -151.5t-269.5 -52h-255l-97 -457q-1 -4 -1 -11q0 -15 10 -21.5t21 -6.5h189l-14 -65h-620zM473 632
h210q89 0 153 37t105 97.5t60.5 132t19.5 140.5q0 113 -59.5 175.5t-170.5 62.5h-182z" />
    <glyph glyph-name="Q" unicode="Q" horiz-adv-x="1507" 
d="M1095 -325q-144 0 -229 36t-128 107.5t-65 175.5l224 45q16 -104 56 -170t110.5 -97t174.5 -31h15l-13 -66h-145zM694 -19q-177 0 -302 71t-191 198t-66 295q0 143 42 288.5t132.5 266t235 193.5t350.5 73q178 0 302 -71.5t189.5 -199t65.5 -295.5q0 -142 -41 -286
t-130.5 -264.5t-234.5 -194.5t-352 -74zM705 54q114 0 201.5 52.5t150 139.5t102.5 193t58.5 215t18.5 204q0 126 -37 224.5t-114.5 154.5t-197.5 56q-118 0 -206.5 -52t-151 -138.5t-101.5 -193t-57 -215t-18 -203.5q0 -125 37 -224t115 -156t200 -57z" />
    <glyph glyph-name="R" unicode="R" horiz-adv-x="1326" 
d="M-56 0l14 65h150q14 0 28.5 9t18.5 30l241 1133q2 10 2 16q0 15 -10 21.5t-21 6.5h-151l14 65h636q171 0 277.5 -78t106.5 -225q0 -164 -96 -255.5t-257 -137.5q77 -12 115.5 -51t53.5 -105t22 -162l16 -214q3 -39 17 -46t45 -7h91l-14 -65h-333l-17 298q-5 93 -16.5 164
t-46.5 111t-111 40h-252l-108 -508q-1 -4 -1 -7v-5q0 -15 10 -21.5t21 -6.5h166l-14 -65h-597zM483 686h222q79 0 140.5 33t104 88t64.5 122.5t22 135.5q0 92 -50 150t-153 58h-225z" />
    <glyph glyph-name="S" unicode="S" horiz-adv-x="1156" 
d="M541 -17q-91 0 -173 20t-143 50.5t-91 62.5l-25 -128h-81l63 412h101q3 -101 46 -178.5t120.5 -121t185.5 -43.5q143 0 217 79.5t74 203.5q0 62 -27 110t-89 90t-167 87q-100 43 -173.5 95t-113.5 120.5t-40 161.5q0 121 60.5 201t163.5 120t230 40q120 0 214 -36
t134 -74l20 90h80l-51 -350h-106q-8 131 -83.5 213t-215.5 82q-79 0 -137.5 -27t-91.5 -78.5t-33 -125.5q0 -54 25 -99t83 -86.5t157 -85.5q118 -51 196.5 -105t117.5 -123.5t39 -166.5q0 -136 -63 -227.5t-173 -137t-250 -45.5z" />
    <glyph glyph-name="T" unicode="T" horiz-adv-x="1219" 
d="M200 0l14 65h168q14 0 28.5 9t18.5 30l248 1169h-192q-50 -1 -96.5 -41.5t-82.5 -102t-56 -128.5h-91l85 345h1100l-61 -345h-91q7 67 -2.5 128.5t-38 102t-79.5 41.5h-191l-248 -1169q-4 -21 6 -30t24 -9h168l-14 -65h-617z" />
    <glyph glyph-name="U" unicode="U" horiz-adv-x="1482" 
d="M691 -19q-146 0 -253 42.5t-165 129.5t-58 221q0 37 4.5 78t15.5 89l148 699q1 5 1 8v5q0 15 -9.5 21.5t-21.5 6.5h-150l13 65h592l-14 -65h-159q-14 0 -28.5 -9t-19.5 -30l-158 -743q-9 -42 -13.5 -80.5t-4.5 -72.5q0 -141 77 -210.5t229 -69.5q174 0 291.5 91
t164.5 311l164 773q1 5 1 11q0 16 -10 22.5t-21 6.5h-161l14 65h472l-14 -65h-150q-14 0 -28 -9t-19 -30l-166 -786q-35 -162 -104 -267t-182 -156.5t-278 -51.5z" />
    <glyph glyph-name="V" unicode="V" horiz-adv-x="1318" 
d="M492 1l-182 1244q-3 22 -13.5 29t-28.5 7h-109l13 65h528l-14 -65h-134q-18 0 -32 -11t-10 -51l146 -1052l-44 -13l615 1076q18 32 8 41.5t-27 9.5h-151l14 65h439l-13 -65h-113q-15 0 -28 -8.5t-27 -31.5l-724 -1240h-113z" />
    <glyph glyph-name="W" unicode="W" horiz-adv-x="2032" 
d="M1220 1l-181 1233q-5 30 -15 38.5t-28 8.5h-88l14 65h506l-14 -65h-135q-28 0 -36 -20.5t-3 -52.5l145 -1044l-47 -12l600 1043q21 37 26 61.5t-32 24.5h-133l14 65h411l-13 -65h-94q-19 0 -33 -9t-31 -38l-719 -1233h-114zM492 1l-182 1244q-3 22 -13.5 29t-28.5 7h-109
l13 65h527l-13 -65h-135q-17 0 -32 -10t-10 -39l148 -1065l-45 -13l520 906l29 -107l-556 -952h-113z" />
    <glyph glyph-name="X" unicode="X" horiz-adv-x="1294" 
d="M657 0l13 65h124q33 0 40 29q3 10 -2.5 26.5t-11.5 30.5l-429 1066q-13 33 -33 48.5t-50 15.5h-62l14 65h516l-14 -65h-123q-34 0 -41 -29q-2 -10 0.5 -24t8.5 -30l437 -1072q17 -41 43.5 -51t63.5 -10h38l-14 -65h-518zM-77 0l14 65h60q28 0 53 11.5t50 38.5l587 632
l399 437q17 19 31.5 37.5t17.5 30.5q3 15 -4 22t-25 7h-122l14 65h406l-14 -65h-57q-13 0 -33 -6.5t-48 -27.5t-68 -65l-467 -500l-452 -497q-17 -19 -38.5 -46.5t-24.5 -41.5q-7 -32 29 -32h127l-14 -65h-421z" />
    <glyph glyph-name="Y" unicode="Y" horiz-adv-x="1295" 
d="M244 0l13 65h151q14 0 29 9t19 30l100 475l-235 638q-12 33 -28.5 48.5t-49.5 15.5h-55l14 65h521l-14 -65h-131q-37 0 -44 -29q-2 -10 1 -28t8 -33l184 -536l425 529q16 20 27.5 38t13.5 30q6 29 -30 29h-120l14 65h406l-14 -65h-48q-34 0 -72.5 -22.5t-79.5 -72.5
l-486 -594l-103 -488q-5 -21 5 -30t24 -9h151l-14 -65h-582z" />
    <glyph glyph-name="Z" unicode="Z" horiz-adv-x="1182" 
d="M-29 0l14 70l990 1197h-433q-43 0 -80 -31t-68 -77.5t-54.5 -98t-40.5 -93.5h-91l101 379h915l-13 -63l-996 -1204h517q47 0 88.5 31t75.5 77.5t60 98t41 93.5h92l-101 -379h-1017z" />
    <glyph glyph-name="bracketleft" unicode="[" horiz-adv-x="700" 
d="M48 -360l384 1806h416l-15 -69h-233l-354 -1668h233l-15 -69h-416z" />
    <glyph glyph-name="backslash" unicode="\" horiz-adv-x="658" 
d="M421 -100l-199 1546h95l199 -1546h-95z" />
    <glyph glyph-name="bracketright" unicode="]" horiz-adv-x="700" 
d="M-121 -360l15 69h234l354 1668h-234l15 69h417l-384 -1806h-417z" />
    <glyph glyph-name="asciicircum" unicode="^" 
d="M204 780l351 566h102l352 -566h-109l-294 478l-293 -478h-109z" />
    <glyph glyph-name="underscore" unicode="_" horiz-adv-x="942" 
d="M-156 -236l19 95h946l-18 -95h-947z" />
    <glyph glyph-name="grave" unicode="`" horiz-adv-x="1130" 
d="M525 1109l-241 271h208l119 -271h-86z" />
    <glyph glyph-name="a" unicode="a" horiz-adv-x="1174" 
d="M390 -17q-137 0 -222 89t-85 254q0 115 35.5 230t104 210t167 152.5t222.5 57.5q89 0 157 -45t97 -103l48 130h168l-154 -718q-3 -20 -5.5 -37.5t-2.5 -31.5q0 -58 36 -84.5t121 -26.5l-12 -55q-36 -9 -70.5 -14t-82.5 -5q-93 0 -137.5 48.5t-47.5 128.5
q-59 -77 -143.5 -128.5t-193.5 -51.5zM452 78q91 0 167 54t125 131l99 471q-20 58 -73.5 105t-133.5 47q-74 0 -132.5 -39.5t-101 -104t-71 -140.5t-42 -151.5t-13.5 -135.5q0 -114 46 -175.5t130 -61.5z" />
    <glyph glyph-name="b" unicode="b" horiz-adv-x="1166" 
d="M577 -18q-99 0 -170.5 46t-106.5 102l-48 -130h-168l257 1210q5 23 7.5 42t2.5 34q0 34 -13.5 50.5t-43.5 21.5l-79 14l12 52l355 24l-135 -641q58 71 139.5 117.5t186.5 46.5q137 0 222 -89t85 -261q0 -77 -17.5 -164.5t-54.5 -171t-96.5 -152.5t-142.5 -110t-192 -41z
M545 72q73 0 129 40.5t97 106t67.5 142t39.5 150.5t13 130q0 114 -46.5 174.5t-130.5 60.5q-91 0 -165 -50t-123 -118l-103 -484q23 -53 79 -102.5t143 -49.5z" />
    <glyph glyph-name="c" unicode="c" horiz-adv-x="1053" 
d="M494 -18q-119 0 -208.5 47t-139.5 137t-50 218q0 112 32 217t96.5 190t161 135t224.5 50q110 0 192.5 -39.5t127.5 -113t39 -177.5h-186q2 50 -8 96.5t-32.5 84t-58.5 59t-85 21.5q-73 0 -127 -39t-90.5 -102.5t-59 -137t-32.5 -144t-10 -122.5q0 -146 61.5 -223.5
t169.5 -77.5q116 0 187 71t94 196l131 1q-37 -172 -146.5 -259.5t-282.5 -87.5z" />
    <glyph glyph-name="d" unicode="d" horiz-adv-x="1174" 
d="M390 -17q-137 0 -222 89t-85 254q0 113 35 228t102.5 210.5t164.5 153.5t219 58q93 0 162.5 -45t99.5 -103l81 381q5 22 7.5 40.5t2.5 32.5q0 35 -14.5 52t-44.5 22l-79 14l12 53l355 23l-258 -1206q-3 -20 -5.5 -37.5t-2.5 -31.5q0 -58 36 -84.5t121 -26.5l-12 -55
q-36 -9 -70.5 -14t-82.5 -5q-93 0 -137.5 48.5t-47.5 128.5q-59 -77 -143.5 -128.5t-193.5 -51.5zM452 78q91 0 167 54t125 131l99 471q-20 58 -73.5 105t-133.5 47q-74 0 -132.5 -39.5t-101 -104t-71 -140.5t-42 -151.5t-13.5 -135.5q0 -114 46 -175.5t130 -61.5z" />
    <glyph glyph-name="e" unicode="e" horiz-adv-x="1065" 
d="M503 -17q-138 0 -228.5 51t-135 142.5t-44.5 209.5q0 112 35 217t104.5 188.5t173.5 133t241 49.5q154 0 236 -58t82 -157q0 -68 -37.5 -128.5t-119.5 -106.5t-216 -72t-327 -26l19 35q-3 -15 -5 -39t-2 -50q0 -128 54.5 -216t183.5 -88q105 0 179.5 61.5t101.5 188.5
h134q-37 -160 -149.5 -247.5t-279.5 -87.5zM286 493l-17 7q257 0 390 76.5t133 192.5q0 61 -40 97.5t-118 36.5q-82 0 -151.5 -46t-120 -137t-76.5 -227z" />
    <glyph glyph-name="f" unicode="f" horiz-adv-x="626" 
d="M-163 -359l12 58q104 0 160 68.5t90 231.5l215 1010q36 166 94.5 261t135.5 135t170 40q131 0 184.5 -63t46.5 -148h-183q7 72 -4.5 113.5t-61.5 41.5q-59 0 -101.5 -83.5t-78.5 -248.5l-240 -1123q-24 -113 -78 -177t-133 -90t-180 -26h-48zM126 885l16 73h574l-15 -73
h-575z" />
    <glyph glyph-name="g" unicode="g" horiz-adv-x="1006" 
d="M365 -377q-149 0 -239.5 32.5t-131 84.5t-40.5 110q0 60 31 102.5t82 71.5t112 47t120 27l33 87l148 -1q201 -1 299.5 -62.5t98.5 -178.5q0 -90 -43.5 -151t-116.5 -98.5t-165 -54t-188 -16.5zM381 -309q84 0 154.5 23.5t112.5 70.5t42 119q0 67 -58 103t-201 38l-139 2
q-74 -19 -123 -71t-49 -121q0 -67 61.5 -115.5t199.5 -48.5zM289 64q-124 13 -177.5 60.5t-53.5 98.5q0 60 58 103t167 74l24 -39q-38 -9 -71.5 -35t-35.5 -62q-1 -31 44.5 -55t160.5 -25zM474 317q-170 0 -257.5 83t-87.5 207q0 107 54.5 191t152.5 133.5t226 49.5
q170 0 256.5 -79.5t86.5 -205.5q0 -109 -53 -194.5t-150.5 -135t-227.5 -49.5zM481 382q63 0 109.5 30t77.5 79.5t47 109.5t16 121q0 100 -48 147.5t-124 47.5q-63 0 -110 -29.5t-79 -78t-48 -107t-16 -116.5q0 -104 52 -154t123 -50zM782 889l-26 47q57 96 132.5 132
t194.5 36l-26 -153q-59 3 -107.5 -1.5t-89.5 -19t-78 -41.5z" />
    <glyph glyph-name="h" unicode="h" horiz-adv-x="1164" 
d="M889 -18q-51 0 -89.5 15t-60 49.5t-21.5 92.5q0 21 3 44.5t9 49.5l85 409q5 21 7 38.5t2 33.5q0 58 -28.5 98t-94.5 40q-57 0 -111.5 -34t-102 -89t-87.5 -118l-131 -611l-187 -1l260 1209q5 24 7.5 43t2.5 34q0 34 -14 50.5t-44 21.5l-79 13l12 53l348 24l-153 -730
q41 62 96 119.5t124 95t154 37.5q111 0 165 -58.5t54 -166.5q0 -29 -4 -62t-12 -68l-84 -389q-3 -17 -5 -32t-2 -28q0 -56 36.5 -82.5t122.5 -26.5l-12 -55q-36 -9 -77.5 -14t-88.5 -5z" />
    <glyph glyph-name="i" unicode="i" horiz-adv-x="586" 
d="M296 -8q-75 0 -122 38.5t-47 128.5q0 24 3.5 52.5t11.5 60.5l103 453q5 22 8 41t3 34q0 35 -14.5 52t-44.5 22l-80 13l12 53l356 24l-159 -705q-5 -24 -8 -44.5t-3 -38.5q0 -61 36.5 -86t116.5 -25l-11 -55q-38 -8 -77 -13t-84 -5zM432 1149q-55 0 -88 32.5t-33 78.5
t33 78.5t88 32.5q56 0 88 -32.5t32 -78.5t-32 -78.5t-88 -32.5z" />
    <glyph glyph-name="j" unicode="j" horiz-adv-x="562" 
d="M-197 -359l12 58q77 0 130 29t87.5 92.5t58.5 169.5l165 735q17 76 5.5 108.5t-54.5 40.5l-79 13l12 53l356 24l-215 -982q-30 -137 -83.5 -211t-135 -102t-197.5 -28h-62zM443 1149q-55 0 -88 32.5t-33 78.5t33 78.5t88 32.5t87 -32.5t32 -78.5t-32 -78.5t-87 -32.5z
" />
    <glyph glyph-name="k" unicode="k" horiz-adv-x="1045" 
d="M84 0l257 1210q17 76 6.5 108.5t-53.5 39.5l-79 14l12 52l355 24l-308 -1448h-190zM686 0l-302 505v5l317 286q89 79 160 120.5t158 41.5h32l-31 -138h-58q-61 0 -119 -18.5t-129 -82.5l-164 -146l241 -401q39 -62 73 -88t73 -26h23l-13 -58h-261z" />
    <glyph glyph-name="l" unicode="l" horiz-adv-x="585" 
d="M295 -8q-75 0 -121 39.5t-46 129.5q0 24 3 51.5t10 59.5l202 937q5 22 7.5 41t2.5 34q0 35 -14.5 52t-44.5 22l-79 14l12 52l356 24l-258 -1189q-5 -23 -7.5 -43.5t-2.5 -37.5q0 -62 36 -87.5t117 -25.5l-12 -55q-37 -8 -76 -13t-85 -5z" />
    <glyph glyph-name="m" unicode="m" horiz-adv-x="1732" 
d="M98 0l157 725q5 24 7.5 43t2.5 34q0 34 -14 50.5t-43 21.5l-80 13l12 53l339 24l-41 -247q41 62 95 120t122.5 95t151.5 37q100 0 150.5 -58.5t50.5 -164.5q0 -30 -3.5 -63t-11.5 -68l-132 -615h-188l137 647q4 18 5.5 35t1.5 34q0 56 -25 96t-80 40q-56 0 -109 -34
t-99 -89t-85 -118l-132 -611h-189zM1462 -18q-48 0 -88 16t-63 52.5t-23 96.5q0 20 3 43t8 47l85 410q3 18 5 35t2 34q0 57 -25 96.5t-80 39.5q-57 0 -110 -33.5t-99.5 -88t-86.5 -118.5l5 97q46 68 104 127.5t128 96t153 36.5q101 0 151.5 -58.5t50.5 -164.5
q0 -30 -3.5 -63t-11.5 -68l-84 -390q-4 -17 -6 -32t-2 -29q0 -55 37 -81.5t122 -26.5l-12 -55q-36 -9 -73.5 -14t-86.5 -5z" />
    <glyph glyph-name="n" unicode="n" horiz-adv-x="1179" 
d="M907 -18q-51 0 -89.5 15t-59.5 49.5t-21 92.5q0 21 3 47t9 51l84 405q4 21 6.5 38.5t2.5 34.5q0 58 -28.5 97.5t-93.5 39.5q-59 0 -113 -34t-101.5 -89t-86.5 -118l-132 -611h-189l157 725q5 24 7.5 43t2.5 34q0 34 -14 50.5t-43 21.5l-80 13l12 53l339 24l-41 -247
q42 62 96.5 120t124.5 95t155 37q111 0 165.5 -58t54.5 -166q0 -29 -4 -62t-12 -68l-85 -390q-3 -17 -5 -32t-2 -29q0 -55 36 -81.5t120 -26.5l-12 -55q-35 -9 -75.5 -14t-87.5 -5z" />
    <glyph glyph-name="o" unicode="o" horiz-adv-x="1102" 
d="M475 -17q-181 0 -281 111t-100 288q0 98 29.5 202t93.5 193t166 144t247 55q181 0 279.5 -110.5t98.5 -288.5q0 -102 -30.5 -206.5t-95 -192.5t-165.5 -141.5t-242 -53.5zM483 53q76 0 133 41t96.5 106.5t63.5 142.5t35 151t11 130q0 121 -48.5 202t-151.5 81
q-76 0 -133 -39.5t-96.5 -103.5t-63.5 -139.5t-35.5 -148.5t-11.5 -129q0 -81 21.5 -148.5t66 -106.5t113.5 -39z" />
    <glyph glyph-name="p" unicode="p" horiz-adv-x="1175" 
d="M19 -358l236 1093q5 23 7.5 41t2.5 32q0 32 -14 45t-44 18l-80 13l12 53l345 24l-28 -154q58 73 139.5 120t186.5 47q137 0 222 -89.5t85 -261.5q0 -76 -17 -163.5t-54.5 -172t-96.5 -153.5t-142 -110.5t-193 -41.5q-99 0 -170.5 46t-106.5 102l-103 -488h-187zM554 72
q73 0 129 40.5t97 106t67.5 142t39.5 151t13 131.5q0 114 -46.5 175.5t-130.5 61.5q-91 0 -165 -51t-123 -121l-103 -484q23 -53 79 -102.5t143 -49.5z" />
    <glyph glyph-name="q" unicode="q" horiz-adv-x="1143" 
d="M614 -358l110 521q-58 -77 -141.5 -128.5t-192.5 -51.5q-137 0 -222 89t-85 254q0 115 35.5 230t104 210t167 152.5t222.5 57.5q89 0 157 -45t97 -103l48 130h168l-281 -1316h-187zM452 78q61 0 116 26.5t100.5 70t78.5 93.5l100 466q-23 58 -77 105t-134 47
q-74 0 -132.5 -39.5t-101 -104t-71 -140.5t-42 -151.5t-13.5 -135.5q0 -114 46 -175.5t130 -61.5z" />
    <glyph glyph-name="r" unicode="r" horiz-adv-x="881" 
d="M712 675q14 81 -1.5 127.5t-65.5 46.5q-42 0 -84.5 -39.5t-80.5 -99.5t-67 -122l-126 -588l-190 -1l158 726q17 76 6.5 108.5t-53.5 40.5l-80 13l12 53l339 24l-37 -231q32 61 73.5 114t94 86t115.5 33q99 0 138.5 -80.5t18.5 -210.5h-170z" />
    <glyph glyph-name="s" unicode="s" horiz-adv-x="991" 
d="M442 -18q-116 0 -206.5 35t-140.5 107.5t-45 185.5h182q-2 -142 57.5 -201.5t160.5 -59.5q97 0 152.5 49t55.5 129q0 57 -45.5 106.5t-163.5 98.5q-140 58 -210.5 127.5t-70.5 158.5q0 69 30.5 118t82.5 79.5t119 44.5t141 14q112 0 196.5 -35t131 -101t41.5 -158h-182
q2 106 -47.5 166.5t-151.5 60.5q-73 0 -125 -35t-52 -108q0 -59 53.5 -106.5t173.5 -95.5q141 -57 202.5 -130t61.5 -159q0 -102 -53 -166.5t-143.5 -94.5t-204.5 -30z" />
    <glyph glyph-name="t" unicode="t" horiz-adv-x="673" 
d="M361 -11q-141 0 -195 76t-18 247l121 571h-163l16 75h165l50 234l190 16l-53 -250h249l-17 -75h-248l-125 -588q-16 -76 -11.5 -127t44 -77t126.5 -26h64l-14 -63q-36 -5 -80.5 -9t-100.5 -4z" />
    <glyph glyph-name="u" unicode="u" horiz-adv-x="1190" 
d="M362 -18q-111 0 -165 58.5t-54 165.5q0 29 4 62t12 68l85 389q5 24 8 43t3 34q0 34 -14.5 50.5t-43.5 21.5l-80 13l12 53l356 24l-143 -660q-4 -18 -5.5 -34t-1.5 -31q0 -60 29.5 -100t92.5 -40q58 0 112 33.5t102 88t86 116.5l131 600l195 14l-154 -698q-5 -24 -8 -44
t-3 -37q0 -56 35.5 -79.5t119.5 -23.5l-12 -55q-37 -9 -78.5 -15.5t-88.5 -6.5q-50 0 -87 16.5t-56 53.5t-19 98q0 16 1 33.5t4 37.5q-39 -58 -94 -115.5t-125 -95.5t-156 -38z" />
    <glyph glyph-name="v" unicode="v" horiz-adv-x="985" 
d="M266 0l-65 725q-7 76 -17 107.5t-53 41.5l-61 13l12 53l279 23l72 -836q174 185 272 375t106 388q0 16 -0.5 32t-2.5 33h178q-4 -120 -53.5 -243.5t-131 -246t-182.5 -240t-209 -225.5h-144z" />
    <glyph glyph-name="w" unicode="w" horiz-adv-x="1529" 
d="M810 0l-84 943l178 2l74 -818q174 185 272 375.5t105 388.5q0 16 -0.5 31.5t-2.5 32.5h178q-3 -120 -52.5 -243.5t-131.5 -246t-183 -240t-209 -225.5h-144zM266 0l-65 725q-7 76 -17 107.5t-53 41.5l-61 13l12 53l279 23l72 -836q123 135 209 256.5t148 233.5l49 -59
q-52 -87 -116.5 -178t-142.5 -186t-170 -194h-144z" />
    <glyph glyph-name="x" unicode="x" horiz-adv-x="960" 
d="M-74 0l30 137h36q42 0 86 5t89.5 28.5t87.5 79.5l417 546q72 93 135 127.5t146 34.5h44l-31 -138h-34q-41 0 -82 -4.5t-80.5 -25.5t-78.5 -71l-425 -557q-71 -91 -131 -126.5t-142 -35.5h-67zM569 0l-294 786q-26 68 -58.5 90.5t-73.5 22.5h-23l13 59h269l294 -786
q25 -68 58.5 -91t73.5 -23h23l-14 -58h-268z" />
    <glyph glyph-name="y" unicode="y" horiz-adv-x="969" 
d="M-200 -366l17 65q89 0 170.5 30.5t158 88t152.5 138.5l32 33l-137 742q-9 51 -15.5 79.5t-19 43t-38.5 20.5l-62 13l12 53l276 23l140 -829q146 178 224.5 357t85.5 365q0 23 -1.5 48t-4.5 51h179q-4 -120 -47 -239.5t-113.5 -236t-156.5 -229t-173 -219.5
q-86 -103 -150.5 -178t-126 -123.5t-133.5 -72t-173 -23.5h-96z" />
    <glyph glyph-name="z" unicode="z" horiz-adv-x="967" 
d="M-41 0l13 52l742 846h-246q-67 0 -120 -35t-91 -87t-64 -102h-59l80 284h729l-12 -58l-729 -839h327q80 0 133 40t88.5 97t60.5 107h58l-84 -305l-7 1v-1h-819z" />
    <glyph glyph-name="braceleft" unicode="{" horiz-adv-x="661" 
d="M328 -358q-76 0 -126 32.5t-67.5 96.5t2.5 156l66 314q23 106 16 164t-45.5 81t-109.5 23l15 70q71 0 119.5 24t79.5 80t51 149l70 332q21 94 65.5 157t108 94t139.5 31h99l-15 -67h-50q-66 0 -105.5 -52t-58.5 -139l-71 -332q-21 -100 -58 -163t-87 -97.5t-110 -49.5
q55 -17 89.5 -55.5t44 -103t-11.5 -162.5l-69 -325q-19 -88 -1.5 -139t84.5 -51h50l-15 -68h-99z" />
    <glyph glyph-name="bar" unicode="|" horiz-adv-x="465" 
d="M193 -358v1804h93v-1804h-93z" />
    <glyph glyph-name="braceright" unicode="}" horiz-adv-x="661" 
d="M-121 -358l15 68h50q66 0 105.5 51t58.5 139l69 325q21 98 58 162.5t87.5 103t113.5 55.5q-55 15 -90.5 49.5t-46 97.5t11.5 163l70 332q19 87 1.5 139t-84.5 52h-50l15 67h99q77 0 126.5 -31t68 -94t-2.5 -157l-70 -332q-20 -93 -12.5 -149t45.5 -80t109 -24l-15 -70
q-71 0 -119 -23t-79.5 -81t-54.5 -164l-66 -314q-20 -92 -65 -156t-108 -96.5t-141 -32.5h-99z" />
    <glyph glyph-name="asciitilde" unicode="~" 
d="M837 515q-69 0 -129 31t-127 83q-68 53 -118.5 83t-108.5 30q-166 0 -176 -228h-84q8 153 80 239t196 86q77 0 141.5 -38t130.5 -88q60 -45 105.5 -72t105.5 -27q165 0 175 228h84q-6 -154 -78 -240.5t-197 -86.5z" />
    <glyph glyph-name="uni00A0" unicode="&#xa0;" horiz-adv-x="463" 
 />
    <glyph glyph-name="exclamdown" unicode="&#xa1;" horiz-adv-x="593" 
d="M19 -362l7 34q31 162 74.5 320t89.5 303t85 265h78q-12 -120 -30 -265t-42.5 -303.5t-56.5 -319.5l-6 -34h-199zM377 727q-59 0 -98 37.5t-39 95.5q0 57 39 96t98 39q60 0 98.5 -39t38.5 -96q0 -58 -38.5 -95.5t-98.5 -37.5z" />
    <glyph glyph-name="cent" unicode="&#xa2;" horiz-adv-x="1088" 
d="M506 -18q-137 0 -235.5 61t-142 176.5t-18.5 278.5q27 164 99 269.5t177 157t229 51.5q113 0 195.5 -41.5t126 -115t37.5 -173.5h-186q6 117 -42 189t-142 72q-88 0 -149.5 -50.5t-100.5 -142.5t-60 -219q-34 -213 28 -328t191 -115q119 0 191 71.5t95 205.5h129
q-37 -177 -144 -262t-278 -85zM367 -217l296 1393h77l-296 -1393h-77z" />
    <glyph glyph-name="sterling" unicode="&#xa3;" 
d="M11 0l29 133q150 54 214.5 117t79.5 134q13 62 2.5 127t-38.5 151q-25 82 -42 173.5t3 188.5q20 89 78 156.5t152 105.5t221 38q130 0 224 -43.5t141 -128.5t34 -211h-183q11 115 -16.5 183t-81.5 98t-123 30q-110 0 -172 -58t-85 -157q-16 -77 -5.5 -161.5t37.5 -167.5
q31 -95 40.5 -169t-4.5 -141q-13 -58 -51 -109t-109.5 -92t-183.5 -71l12 25h760l-34 -151h-899zM111 584l16 78h754l-17 -78h-753z" />
    <glyph glyph-name="currency" unicode="&#xa4;" 
d="M604 299q-106 0 -192.5 52t-138.5 138.5t-52 190.5q0 106 52 192.5t138.5 138.5t192.5 52q105 0 191.5 -52t137.5 -138.5t51 -192.5q0 -104 -51 -190.5t-137.5 -138.5t-191.5 -52zM258 253l-76 76l149 149l80 -72zM335 886l-143 143l71 71l147 -147zM876 871l-71 82
l143 142l76 -76zM958 263l-149 149l74 67l146 -146zM603 401q78 0 141 37.5t100.5 101t37.5 141.5t-37.5 141.5t-100.5 100.5t-141 37t-141.5 -37t-101 -100.5t-37.5 -141.5t37.5 -141.5t101 -101t141.5 -37.5z" />
    <glyph glyph-name="yen" unicode="&#xa5;" 
d="M166 0l14 65h150q15 0 29.5 9t18.5 30l99 464l-189 649q-9 34 -26.5 49t-44.5 15h-55l14 65h481l-13 -65h-109q-17 0 -28 -7t-14 -20q-2 -11 0.5 -29t7.5 -34l147 -537l375 522q14 20 27.5 42t16.5 34q3 15 -5 22t-29 7h-98l13 65h365l-13 -65h-40q-25 0 -63.5 -21
t-74.5 -71l-439 -608l-101 -479q-5 -21 6.5 -29t23.5 -8h150l-13 -65h-583zM102 301l17 78h837l-17 -78h-837zM151 533l17 78h837l-17 -78h-837z" />
    <glyph glyph-name="brokenbar" unicode="&#xa6;" horiz-adv-x="465" 
d="M193 686v760h93v-760h-93zM193 -358v760h93v-760h-93z" />
    <glyph glyph-name="section" unicode="&#xa7;" horiz-adv-x="956" 
d="M411 -10q-107 0 -192.5 29.5t-132 96t-39.5 176.5h161q-5 -136 55 -189t158 -53q86 0 138.5 41t64.5 107q16 88 -28.5 141t-175.5 102q-154 59 -218 139.5t-44 182.5q13 68 60.5 110t116 64.5t146.5 29.5l15 -50q-52 -12 -104 -39.5t-65 -89.5q-8 -42 7 -77.5t63 -68
t135 -68.5q160 -65 223 -143.5t41 -204.5q-21 -109 -116 -172.5t-269 -63.5zM607 430l-18 51q59 12 97.5 49.5t48.5 91.5q15 82 -30 129.5t-177 103.5q-149 62 -214 141.5t-42 191.5q21 98 113.5 150t238.5 52q100 0 177 -32.5t119.5 -96.5t38.5 -157h-175
q4 107 -38.5 166.5t-126.5 59.5q-73 0 -119.5 -29t-59.5 -89q-9 -43 5.5 -81.5t62 -74.5t137.5 -72q159 -63 221.5 -139.5t42.5 -184.5q-14 -72 -55.5 -118t-105 -72t-141.5 -40z" />
    <glyph glyph-name="dieresis" unicode="&#xa8;" horiz-adv-x="1130" 
d="M725 1141q-39 0 -67 27.5t-28 67.5t28 67.5t67 27.5q38 0 66 -27.5t28 -67.5t-28 -67.5t-66 -27.5zM367 1141q-39 0 -67 27.5t-28 67.5t28 67.5t67 27.5q38 0 65.5 -27.5t27.5 -67.5t-27.5 -67.5t-65.5 -27.5z" />
    <glyph glyph-name="copyright" unicode="&#xa9;" horiz-adv-x="1534" 
d="M807 -18q-143 0 -268 53.5t-220 148.5t-148.5 220t-53.5 268q0 144 53.5 269.5t148.5 220.5t220 148.5t268 53.5q144 0 269.5 -53.5t220.5 -148.5t148.5 -220.5t53.5 -269.5q0 -143 -53.5 -268t-148.5 -220t-220.5 -148.5t-269.5 -53.5zM807 48q129 0 242 48.5
t198.5 134.5t134 199t48.5 242q0 130 -48.5 243t-134.5 199t-198.5 134.5t-241.5 48.5q-128 0 -241 -48.5t-198 -134.5t-133.5 -199t-48.5 -243q0 -129 48.5 -242.5t134 -199t198 -134t240.5 -48.5zM832 234q-204 0 -305 122.5t-101 312.5q0 127 45 225t135 154.5t226 56.5
q78 0 141.5 -23.5t92.5 -48.5l-1 -174q-20 82 -79 136t-154 54q-94 0 -152.5 -50.5t-85 -136.5t-26.5 -193q0 -104 27.5 -189t88 -134.5t158.5 -49.5q106 0 175 56t80 168h68q-16 -148 -107 -217t-226 -69zM1065 859l-1 235h58l20 -235h-77z" />
    <glyph glyph-name="ordfeminine" unicode="&#xaa;" horiz-adv-x="887" 
d="M361 558q-89 0 -153 51.5t-64 145.5q0 100 53 154.5t139 78t189 28.5t202 6l12 53q5 27 8 50t3 43q0 76 -38.5 105.5t-94.5 29.5q-74 0 -126.5 -44t-69.5 -133h-164q25 125 125.5 181.5t250.5 56.5q79 0 141.5 -23.5t98.5 -72t36 -126.5q0 -18 -2 -37t-6 -39l-101 -489
h-159l26 143q-60 -73 -135 -117.5t-171 -44.5zM428 643q73 0 138.5 48.5t112.5 109.5l36 167q-69 -1 -139 -7.5t-128.5 -26.5t-94 -61t-35.5 -111q0 -54 28 -86.5t82 -32.5z" />
    <glyph glyph-name="guillemotleft" unicode="&#xab;" horiz-adv-x="926" 
d="M384 117l-275 319l20 88l409 320l-18 -87l-254 -277l136 -275zM731 117l-274 319l19 88l409 320l-18 -87l-254 -277l136 -275z" />
    <glyph glyph-name="logicalnot" unicode="&#xac;" 
d="M938 361v516h-776v101h884v-617h-108z" />
    <glyph glyph-name="uni00AD" unicode="&#xad;" horiz-adv-x="721" 
d="M88 414l36 166h511l-34 -166h-513z" />
    <glyph glyph-name="registered" unicode="&#xae;" horiz-adv-x="961" 
d="M585 602q-102 0 -186.5 51t-135 136.5t-50.5 187.5q0 104 50.5 189t135 135.5t186.5 50.5q104 0 189 -50.5t135.5 -135.5t50.5 -189q0 -102 -50.5 -187.5t-135.5 -136.5t-189 -51zM585 641q93 0 168 45.5t120 122t45 168.5q0 94 -45 170t-120 121t-168 45
q-90 0 -164.5 -45t-120 -121t-45.5 -170q0 -92 45.5 -168.5t120 -122t164.5 -45.5zM410 788v25h43q10 0 10 10v323q0 10 -10 10h-43v25h198q50 0 92.5 -24.5t42.5 -76.5q0 -38 -26.5 -65t-66.5 -35q31 -5 52 -27t32 -63l17 -64q2 -10 8 -11.5t14 -1.5h25v-25h-104l-25 98
q-10 37 -21.5 59t-39.5 22h-79v-144q0 -10 11 -10h37v-25h-167zM529 992h76q28 0 48.5 22.5t20.5 61.5q0 80 -69 80h-76v-164z" />
    <glyph glyph-name="macron" unicode="&#xaf;" horiz-adv-x="1130" 
d="M280 1189l21 98h550l-21 -98h-550z" />
    <glyph glyph-name="degree" unicode="&#xb0;" horiz-adv-x="755" 
d="M489 682q-88 0 -160.5 43.5t-116 116.5t-43.5 161q0 89 43.5 162t116 116t160.5 43q89 0 161.5 -43t116 -116t43.5 -162q0 -88 -43.5 -161t-116 -116.5t-161.5 -43.5zM489 764q66 0 120 32t85.5 86.5t31.5 120.5t-31.5 120t-85.5 86.5t-120 32.5q-65 0 -119 -32.5
t-85.5 -86.5t-31.5 -119q0 -67 31.5 -121.5t85.5 -86.5t119 -32z" />
    <glyph glyph-name="plusminus" unicode="&#xb1;" 
d="M549 256v883h108v-883h-108zM161 75v101h884v-101h-884zM161 658v101h884v-101h-884z" />
    <glyph glyph-name="uni00B2" unicode="&#xb2;" horiz-adv-x="705" 
d="M156 975l14 69l351 257q93 68 139 128.5t59 120.5q15 71 -9.5 119.5t-98.5 48.5q-83 0 -129.5 -56t-64.5 -141h-139q24 116 109.5 183.5t228.5 67.5q134 0 197.5 -69.5t40.5 -175.5q-18 -88 -89 -147.5t-195 -139.5l-228 -146h440l-24 -119h-602z" />
    <glyph glyph-name="uni00B3" unicode="&#xb3;" horiz-adv-x="705" 
d="M467 964q-139 0 -211.5 62.5t-46.5 183.5h138q-20 -91 14 -141.5t113 -50.5q74 0 122 44t65 125q21 96 -15.5 135t-115.5 39h-52l12 53h56q70 0 117.5 39.5t62.5 110.5q16 77 -13.5 115.5t-91.5 38.5q-67 0 -116 -47.5t-66 -130.5h-137q16 78 64 129.5t116 77t145 25.5
q75 0 133 -25t87 -74t14 -121q-13 -63 -66.5 -104.5t-135.5 -59.5q76 -13 120 -70t24 -149q-22 -103 -112 -154t-224 -51z" />
    <glyph glyph-name="acute" unicode="&#xb4;" horiz-adv-x="1130" 
d="M438 1109l236 271h220l-357 -271h-99z" />
    <glyph glyph-name="mu" unicode="&#xb5;" horiz-adv-x="1169" 
d="M393 -18q-94 0 -159.5 43t-92 123.5t-3.5 192.5l125 597l201 26l-139 -642q-22 -102 7 -162.5t116 -60.5q84 0 153.5 64t134.5 174l134 604l193 17l-155 -705q-14 -68 -7.5 -108.5t42.5 -58t110 -17.5l-12 -55q-37 -9 -81.5 -15.5t-91.5 -6.5q-60 0 -97 23.5t-51 74
t-3 129.5q-36 -57 -82 -112t-105 -90t-137 -35zM-14 -361q20 92 39.5 183.5t39.5 180.5t38 174t35 164l92 -94q-8 -101 -7.5 -200.5t-2.5 -200t-22 -207.5h-212z" />
    <glyph glyph-name="paragraph" unicode="&#xb6;" horiz-adv-x="1163" 
d="M387 -197l176 826h-74q-108 0 -177 53t-94 142t-2 197q35 163 148.5 244t276.5 81h644l-15 -74h-178l-312 -1469h-85l313 1469h-222l-313 -1469h-86z" />
    <glyph glyph-name="periodcentered" unicode="&#xb7;" horiz-adv-x="593" 
d="M305 386q-59 0 -98 39t-39 96q0 58 39 95.5t98 37.5t98 -37.5t39 -95.5q0 -57 -39 -96t-98 -39z" />
    <glyph glyph-name="cedilla" unicode="&#xb8;" horiz-adv-x="1130" 
d="M521 -377q-63 0 -106 10.5t-78 25.5l37 82q27 -15 67.5 -27t83.5 -12q36 0 63 15t34 52q7 42 -18 66.5t-101 35.5l-43 5l157 168l63 -42l-84 -89l-27 22q100 -4 149 -53.5t33 -127.5q-15 -75 -80 -103t-150 -28z" />
    <glyph glyph-name="uni00B9" unicode="&#xb9;" horiz-adv-x="705" 
d="M235 975l13 58h148q14 0 28 8.5t18 29.5l127 597q-35 -29 -97 -66.5t-147 -52.5l16 74q58 13 106.5 34.5t87.5 49t69 58.5h136l-149 -699q-3 -18 8.5 -25.5t24.5 -7.5h142l-13 -58h-518z" />
    <glyph glyph-name="ordmasculine" unicode="&#xba;" horiz-adv-x="939" 
d="M527 558q-150 0 -239 88.5t-89 240.5q0 77 22.5 160t72 154.5t129 116.5t192.5 45q149 0 239.5 -89t90.5 -243q0 -73 -20.5 -155.5t-68 -155t-128.5 -117.5t-201 -45zM530 619q74 0 123.5 50t79.5 123.5t43.5 149t13.5 126.5q0 105 -44.5 169t-135.5 64q-73 0 -122 -49
t-78.5 -122.5t-42.5 -148.5t-13 -128q0 -104 43.5 -169t132.5 -65z" />
    <glyph glyph-name="guillemotright" unicode="&#xbb;" horiz-adv-x="926" 
d="M41 117l18 88l254 276l-136 275l18 88l274 -319l-19 -88zM390 116l18 87l254 277l-136 275l18 88l274 -319l-19 -88z" />
    <glyph glyph-name="onequarter" unicode="&#xbc;" horiz-adv-x="1564" 
d="M72 528l13 58h148q14 0 28 8.5t18 29.5l127 597q-35 -29 -97 -66.5t-147 -52.5l16 74q58 13 106.5 34.5t87.5 49t69 58.5h136l-149 -699q-3 -18 8.5 -25.5t24.5 -7.5h142l-13 -58h-518zM210 0l1072 1306h103l-1072 -1306h-103zM1153 0l35 161h-391l18 85l516 542h135
l-110 -519h110l-22 -108h-111l-35 -161h-145zM917 269h296l84 400z" />
    <glyph glyph-name="onehalf" unicode="&#xbd;" horiz-adv-x="1679" 
d="M72 528l13 58h148q14 0 28 8.5t18 29.5l127 597q-35 -29 -97 -66.5t-147 -52.5l16 74q58 13 106.5 34.5t87.5 49t69 58.5h136l-149 -699q-3 -18 8.5 -25.5t24.5 -7.5h142l-13 -58h-518zM227 0l1072 1306h103l-1072 -1306h-103zM923 0l14 69l351 257q93 68 139 128.5
t59 120.5q15 71 -9.5 119.5t-98.5 48.5q-83 0 -129.5 -56t-64.5 -141h-139q24 116 109.5 183.5t228.5 67.5q134 0 197.5 -69.5t40.5 -175.5q-18 -88 -89 -147.5t-195 -139.5l-228 -146h440l-24 -119h-602z" />
    <glyph glyph-name="threequarters" unicode="&#xbe;" horiz-adv-x="1766" 
d="M372 517q-139 0 -211.5 62.5t-46.5 183.5h138q-20 -91 14 -141.5t113 -50.5q74 0 122 44t65 125q21 96 -15.5 135t-115.5 39h-52l12 53h56q70 0 117.5 39.5t62.5 110.5q16 77 -13.5 115.5t-91.5 38.5q-67 0 -116 -47.5t-66 -130.5h-137q16 78 64 129.5t116 77t145 25.5
q75 0 133 -25t87 -74t14 -121q-13 -63 -66.5 -104.5t-135.5 -59.5q76 -13 120 -70t24 -149q-22 -103 -112 -154t-224 -51zM355 0l1072 1306h103l-1072 -1306h-103zM1302 0l35 161h-391l18 85l516 542h135l-110 -519h110l-22 -108h-111l-35 -161h-145zM1066 269h296l84 400z
" />
    <glyph glyph-name="questiondown" unicode="&#xbf;" horiz-adv-x="990" 
d="M571 555q3 -22 2 -53.5t-9 -69.5q-14 -69 -61.5 -131t-140.5 -128q-83 -57 -127 -109t-61 -126q-23 -109 15.5 -179.5t133.5 -70.5q101 0 171.5 75t98.5 218h193q-40 -185 -163 -273t-311 -88q-120 0 -199 49t-110 131.5t-10 180.5q23 107 88 170.5t170 129.5
q76 48 118.5 89t65 85t37.5 100h99zM555 991q61 0 100 -39t39 -96q0 -58 -39 -95.5t-100 -37.5q-59 0 -97.5 37.5t-38.5 95.5q0 57 38.5 96t97.5 39z" />
    <glyph glyph-name="Agrave" unicode="&#xc0;" horiz-adv-x="1333" 
d="M-104 0l13 65h113q15 0 28 8t27 32l722 1241h113l183 -1241q4 -23 14 -31.5t29 -8.5h109l-13 -65h-528l13 65h137q17 0 30.5 9t11.5 37l-141 1076l36 13l-617 -1083q-18 -31 -8 -41.5t28 -10.5h150l-14 -65h-436zM329 463l22 75h649l-21 -75h-650zM873 1459l-242 271h208
l119 -271h-85z" />
    <glyph glyph-name="Aacute" unicode="&#xc1;" horiz-adv-x="1333" 
d="M-104 0l13 65h113q15 0 28 8t27 32l722 1241h113l183 -1241q4 -23 14 -31.5t29 -8.5h109l-13 -65h-528l13 65h137q17 0 30.5 9t11.5 37l-141 1076l36 13l-617 -1083q-18 -31 -8 -41.5t28 -10.5h150l-14 -65h-436zM329 463l22 75h649l-21 -75h-650zM781 1459l236 271h220
l-357 -271h-99z" />
    <glyph glyph-name="Acircumflex" unicode="&#xc2;" horiz-adv-x="1333" 
d="M-104 0l13 65h113q15 0 28 8t27 32l722 1241h113l183 -1241q4 -23 14 -31.5t29 -8.5h109l-13 -65h-528l13 65h137q17 0 30.5 9t11.5 37l-141 1076l36 13l-617 -1083q-18 -31 -8 -41.5t28 -10.5h150l-14 -65h-436zM329 463l22 75h649l-21 -75h-650zM577 1458l260 271h185
l149 -271h-95l-162 172l-233 -172h-104z" />
    <glyph glyph-name="Atilde" unicode="&#xc3;" horiz-adv-x="1333" 
d="M-104 0l13 65h113q15 0 28 8t27 32l722 1241h113l183 -1241q4 -23 14 -31.5t29 -8.5h109l-13 -65h-528l13 65h137q17 0 30.5 9t11.5 37l-141 1076l36 13l-617 -1083q-18 -31 -8 -41.5t28 -10.5h150l-14 -65h-436zM329 463l22 75h649l-21 -75h-650zM590 1480
q24 109 76.5 159t118.5 50q45 0 80.5 -14t67.5 -30q32 -15 56.5 -25.5t50.5 -10.5q30 0 51 20t34 63h83q-28 -105 -73 -153t-111 -48q-45 0 -77.5 12t-69.5 29q-32 17 -58 27t-53 10q-32 0 -56 -21t-39 -68h-81z" />
    <glyph glyph-name="Adieresis" unicode="&#xc4;" horiz-adv-x="1333" 
d="M-104 0l13 65h113q15 0 28 8t27 32l722 1241h113l183 -1241q4 -23 14 -31.5t29 -8.5h109l-13 -65h-528l13 65h137q17 0 30.5 9t11.5 37l-141 1076l36 13l-617 -1083q-18 -31 -8 -41.5t28 -10.5h150l-14 -65h-436zM329 463l22 75h649l-21 -75h-650zM1066 1492
q-39 0 -67 28t-28 68q0 39 28 67t67 28t66 -28t27 -67q0 -40 -27 -68t-66 -28zM709 1492q-41 0 -68.5 28t-27.5 68q0 39 27.5 67t68.5 28q37 0 65 -28t28 -67q0 -40 -28 -68t-65 -28z" />
    <glyph glyph-name="Aring" unicode="&#xc5;" horiz-adv-x="1333" 
d="M-104 0l13 65h113q15 0 28 8t27 32l722 1241h113l183 -1241q4 -23 14 -31.5t29 -8.5h109l-13 -65h-528l13 65h137q17 0 30.5 9t11.5 37l-141 1076l36 13l-617 -1083q-18 -31 -8 -41.5t28 -10.5h150l-14 -65h-436zM329 463l22 75h649l-21 -75h-650zM879 1376
q-85 0 -145.5 57.5t-60.5 141.5q0 87 59.5 146.5t146.5 59.5q85 0 144.5 -58t59.5 -144t-59.5 -144.5t-144.5 -58.5zM879 1467q46 0 78 32.5t32 79.5t-32 79.5t-78 32.5q-47 0 -79 -32.5t-32 -79.5t32 -79.5t79 -32.5z" />
    <glyph glyph-name="AE" unicode="&#xc6;" horiz-adv-x="1872" 
d="M-104 0l13 65h121q20 0 34.5 11t27.5 30l793 1086q8 11 16.5 26t10.5 28q8 35 -28 35h-154l14 65h1188l-59 -339h-92q7 63 -1 123.5t-33.5 100t-72.5 39.5h-382l-115 -541h525l-17 -76h-525l-122 -577h388q51 0 92.5 31t73 78.5t55.5 99.5t40 94h91l-101 -379h-1049
l14 65h151q14 0 28.5 9t18.5 30l75 357h-460l-200 -281q-21 -29 -35 -52t-16 -37q-4 -16 6.5 -21t21.5 -5h171l-14 -65h-493zM510 538h423l154 731h-53z" />
    <glyph glyph-name="Ccedilla" unicode="&#xc7;" horiz-adv-x="1363" 
d="M688 -18q-176 0 -299.5 68.5t-188 195.5t-64.5 301q0 160 47 306.5t140.5 262t234.5 182t328 66.5q142 0 242.5 -39.5t139.5 -79.5l21 101h80l-58 -396h-112q-9 103 -46.5 179t-106.5 119t-169 44q-111 0 -196.5 -50t-147.5 -133.5t-102 -186t-59 -210t-19 -203.5
q0 -198 87 -320.5t272 -122.5q163 0 277.5 94t157.5 294h111q-50 -236 -195 -354t-375 -118zM576 -377q-63 0 -106 10.5t-78 25.5l37 82q27 -15 67.5 -27t83.5 -12q36 0 63 15t34 52q7 42 -18 66.5t-101 35.5l-43 5l157 168l63 -42l-84 -89l-27 22q100 -4 149 -53.5
t33 -127.5q-15 -75 -80 -103t-150 -28z" />
    <glyph glyph-name="Egrave" unicode="&#xc8;" horiz-adv-x="1187" 
d="M-56 0l14 65h150q13 0 27.5 7.5t19.5 28.5l242 1142q5 21 -6 29.5t-24 8.5h-151l14 65h1017l-60 -339h-91q8 64 -0.5 124t-34.5 99.5t-72 39.5h-382l-115 -541h524l-16 -76h-525l-122 -577h388q51 0 92.5 31t73.5 78t55.5 99.5t39.5 94.5h91l-100 -379h-1049zM801 1459
l-242 271h208l119 -271h-85z" />
    <glyph glyph-name="Eacute" unicode="&#xc9;" horiz-adv-x="1187" 
d="M-56 0l14 65h150q13 0 27.5 7.5t19.5 28.5l242 1142q5 21 -6 29.5t-24 8.5h-151l14 65h1017l-60 -339h-91q8 64 -0.5 124t-34.5 99.5t-72 39.5h-382l-115 -541h524l-16 -76h-525l-122 -577h388q51 0 92.5 31t73.5 78t55.5 99.5t39.5 94.5h91l-100 -379h-1049zM709 1459
l236 271h220l-357 -271h-99z" />
    <glyph glyph-name="Ecircumflex" unicode="&#xca;" horiz-adv-x="1187" 
d="M-56 0l14 65h150q13 0 27.5 7.5t19.5 28.5l242 1142q5 21 -6 29.5t-24 8.5h-151l14 65h1017l-60 -339h-91q8 64 -0.5 124t-34.5 99.5t-72 39.5h-382l-115 -541h524l-16 -76h-525l-122 -577h388q51 0 92.5 31t73.5 78t55.5 99.5t39.5 94.5h91l-100 -379h-1049zM505 1458
l260 271h185l149 -271h-95l-162 172l-233 -172h-104z" />
    <glyph glyph-name="Edieresis" unicode="&#xcb;" horiz-adv-x="1187" 
d="M-56 0l14 65h150q13 0 27.5 7.5t19.5 28.5l242 1142q5 21 -6 29.5t-24 8.5h-151l14 65h1017l-60 -339h-91q8 64 -0.5 124t-34.5 99.5t-72 39.5h-382l-115 -541h524l-16 -76h-525l-122 -577h388q51 0 92.5 31t73.5 78t55.5 99.5t39.5 94.5h91l-100 -379h-1049zM993 1492
q-39 0 -67 28t-28 68q0 39 28 67t67 28t66 -28t27 -67q0 -40 -27 -68t-66 -28zM636 1492q-41 0 -68.5 28t-27.5 68q0 39 27.5 67t68.5 28q37 0 65 -28t28 -67q0 -40 -28 -68t-65 -28z" />
    <glyph glyph-name="Igrave" unicode="&#xcc;" horiz-adv-x="677" 
d="M-56 0l14 65h150q13 0 27.5 7.5t19.5 28.5l242 1142q5 21 -6 29.5t-24 8.5h-151l14 65h582l-14 -65h-150q-13 0 -27.5 -7.5t-19.5 -28.5l-242 -1142q-4 -21 6.5 -29.5t23.5 -8.5h151l-14 -65h-582zM544 1459l-242 271h208l119 -271h-85z" />
    <glyph glyph-name="Iacute" unicode="&#xcd;" horiz-adv-x="677" 
d="M-56 0l14 65h150q13 0 27.5 7.5t19.5 28.5l242 1142q5 21 -6 29.5t-24 8.5h-151l14 65h582l-14 -65h-150q-13 0 -27.5 -7.5t-19.5 -28.5l-242 -1142q-4 -21 6.5 -29.5t23.5 -8.5h151l-14 -65h-582zM452 1459l236 271h220l-357 -271h-99z" />
    <glyph glyph-name="Icircumflex" unicode="&#xce;" horiz-adv-x="677" 
d="M-56 0l14 65h150q13 0 27.5 7.5t19.5 28.5l242 1142q5 21 -6 29.5t-24 8.5h-151l14 65h582l-14 -65h-150q-13 0 -27.5 -7.5t-19.5 -28.5l-242 -1142q-4 -21 6.5 -29.5t23.5 -8.5h151l-14 -65h-582zM248 1458l260 271h185l149 -271h-95l-162 172l-233 -172h-104z" />
    <glyph glyph-name="Idieresis" unicode="&#xcf;" horiz-adv-x="677" 
d="M-56 0l14 65h150q13 0 27.5 7.5t19.5 28.5l242 1142q5 21 -6 29.5t-24 8.5h-151l14 65h582l-14 -65h-150q-13 0 -27.5 -7.5t-19.5 -28.5l-242 -1142q-4 -21 6.5 -29.5t23.5 -8.5h151l-14 -65h-582zM736 1492q-39 0 -67 28t-28 68q0 39 28 67t67 28t66 -28t27 -67
q0 -40 -27 -68t-66 -28zM379 1492q-41 0 -68.5 28t-27.5 68q0 39 27.5 67t68.5 28q37 0 65 -28t28 -67q0 -40 -28 -68t-65 -28z" />
    <glyph glyph-name="Eth" unicode="&#xd0;" horiz-adv-x="1477" 
d="M92 644l16 78h652l-17 -78h-651zM-55 0l13 65h151q12 0 26.5 7.5t19.5 26.5l241 1140q1 4 1.5 8t0.5 7q0 15 -9.5 21t-21.5 6h-151l14 65h584q193 0 328 -68.5t206.5 -194t71.5 -297.5q0 -113 -27 -226t-85.5 -213.5t-154 -178.5t-232.5 -123t-321 -45h-655zM353 76h218
q157 0 267.5 47.5t182 127t111.5 176.5t56 197.5t16 187.5q0 212 -103 335.5t-312 123.5h-183z" />
    <glyph glyph-name="Ntilde" unicode="&#xd1;" horiz-adv-x="1552" 
d="M-56 0l14 65h150q14 0 28.5 9t18.5 30l242 1138q5 21 -5.5 30t-24.5 9h-151l14 65h371l580 -1085l208 981q5 21 -5.5 30t-24.5 9h-160l14 65h475l-14 -65h-150q-14 0 -28 -9t-19 -30l-264 -1242h-105l-642 1185l-229 -1081q-5 -21 5.5 -30t24.5 -9h160l-14 -65h-469z
M668 1480q24 109 76.5 159t118.5 50q45 0 80.5 -14t67.5 -30q32 -15 56.5 -25.5t50.5 -10.5q30 0 51 20t34 63h83q-28 -105 -73 -153t-111 -48q-45 0 -77.5 12t-69.5 29q-32 17 -58 27t-53 10q-32 0 -56 -21t-39 -68h-81z" />
    <glyph glyph-name="Ograve" unicode="&#xd2;" horiz-adv-x="1507" 
d="M694 -19q-177 0 -302 71t-191 198t-66 295q0 143 42 288.5t132.5 266t235 193.5t350.5 73q178 0 302 -71.5t189.5 -199t65.5 -295.5q0 -142 -41 -286t-130.5 -264.5t-234.5 -194.5t-352 -74zM705 54q114 0 201.5 52.5t150 139.5t102.5 193t58.5 215t18.5 204
q0 126 -37 224.5t-114.5 154.5t-197.5 56q-118 0 -206.5 -52t-151 -138.5t-101.5 -193t-57 -215t-18 -203.5q0 -125 37 -224t115 -156t200 -57zM914 1460l-242 271h208l119 -271h-85z" />
    <glyph glyph-name="Oacute" unicode="&#xd3;" horiz-adv-x="1507" 
d="M694 -19q-177 0 -302 71t-191 198t-66 295q0 143 42 288.5t132.5 266t235 193.5t350.5 73q178 0 302 -71.5t189.5 -199t65.5 -295.5q0 -142 -41 -286t-130.5 -264.5t-234.5 -194.5t-352 -74zM705 54q114 0 201.5 52.5t150 139.5t102.5 193t58.5 215t18.5 204
q0 126 -37 224.5t-114.5 154.5t-197.5 56q-118 0 -206.5 -52t-151 -138.5t-101.5 -193t-57 -215t-18 -203.5q0 -125 37 -224t115 -156t200 -57zM822 1460l236 271h220l-357 -271h-99z" />
    <glyph glyph-name="Ocircumflex" unicode="&#xd4;" horiz-adv-x="1507" 
d="M694 -19q-177 0 -302 71t-191 198t-66 295q0 143 42 288.5t132.5 266t235 193.5t350.5 73q178 0 302 -71.5t189.5 -199t65.5 -295.5q0 -142 -41 -286t-130.5 -264.5t-234.5 -194.5t-352 -74zM705 54q114 0 201.5 52.5t150 139.5t102.5 193t58.5 215t18.5 204
q0 126 -37 224.5t-114.5 154.5t-197.5 56q-118 0 -206.5 -52t-151 -138.5t-101.5 -193t-57 -215t-18 -203.5q0 -125 37 -224t115 -156t200 -57zM618 1459l260 271h185l149 -271h-95l-162 172l-233 -172h-104z" />
    <glyph glyph-name="Otilde" unicode="&#xd5;" horiz-adv-x="1507" 
d="M694 -19q-177 0 -302 71t-191 198t-66 295q0 143 42 288.5t132.5 266t235 193.5t350.5 73q178 0 302 -71.5t189.5 -199t65.5 -295.5q0 -142 -41 -286t-130.5 -264.5t-234.5 -194.5t-352 -74zM705 54q114 0 201.5 52.5t150 139.5t102.5 193t58.5 215t18.5 204
q0 126 -37 224.5t-114.5 154.5t-197.5 56q-118 0 -206.5 -52t-151 -138.5t-101.5 -193t-57 -215t-18 -203.5q0 -125 37 -224t115 -156t200 -57zM631 1481q24 109 76.5 159t118.5 50q45 0 80.5 -14t67.5 -30q32 -15 56.5 -25.5t50.5 -10.5q30 0 51 20t34 63h83
q-28 -105 -73 -153t-111 -48q-45 0 -77.5 12t-69.5 29q-32 17 -58 27t-53 10q-32 0 -56 -21t-39 -68h-81z" />
    <glyph glyph-name="Odieresis" unicode="&#xd6;" horiz-adv-x="1507" 
d="M694 -19q-177 0 -302 71t-191 198t-66 295q0 143 42 288.5t132.5 266t235 193.5t350.5 73q178 0 302 -71.5t189.5 -199t65.5 -295.5q0 -142 -41 -286t-130.5 -264.5t-234.5 -194.5t-352 -74zM705 54q114 0 201.5 52.5t150 139.5t102.5 193t58.5 215t18.5 204
q0 126 -37 224.5t-114.5 154.5t-197.5 56q-118 0 -206.5 -52t-151 -138.5t-101.5 -193t-57 -215t-18 -203.5q0 -125 37 -224t115 -156t200 -57zM1107 1493q-39 0 -67 28t-28 68q0 39 28 67t67 28t66 -28t27 -67q0 -40 -27 -68t-66 -28zM750 1493q-41 0 -68.5 28t-27.5 68
q0 39 27.5 67t68.5 28q37 0 65 -28t28 -67q0 -40 -28 -68t-65 -28z" />
    <glyph glyph-name="multiply" unicode="&#xd7;" 
d="M258 248l-76 77l354 355l-344 344l71 72l345 -345l340 340l76 -77l-340 -339l345 -346l-71 -71l-345 345z" />
    <glyph glyph-name="Oslash" unicode="&#xd8;" horiz-adv-x="1507" 
d="M72 -52l-51 53l1488 1395l49 -52zM694 -19q-177 0 -302 71t-191 198t-66 295q0 143 42 288.5t132.5 266t235 193.5t350.5 73q178 0 302 -71.5t189.5 -199t65.5 -295.5q0 -142 -41 -286t-130.5 -264.5t-234.5 -194.5t-352 -74zM705 54q114 0 201.5 52.5t150 139.5
t102.5 193t58.5 215t18.5 204q0 126 -37 224.5t-114.5 154.5t-197.5 56q-118 0 -206.5 -52t-151 -138.5t-101.5 -193t-57 -215t-18 -203.5q0 -125 37 -224t115 -156t200 -57z" />
    <glyph glyph-name="Ugrave" unicode="&#xd9;" horiz-adv-x="1482" 
d="M691 -19q-146 0 -253 42.5t-165 129.5t-58 221q0 37 4.5 78t15.5 89l148 699q1 5 1 8v5q0 15 -9.5 21.5t-21.5 6.5h-150l13 65h592l-14 -65h-159q-14 0 -28.5 -9t-19.5 -30l-158 -743q-9 -42 -13.5 -80.5t-4.5 -72.5q0 -141 77 -210.5t229 -69.5q174 0 291.5 91
t164.5 311l164 773q1 5 1 11q0 16 -10 22.5t-21 6.5h-161l14 65h472l-14 -65h-150q-14 0 -28 -9t-19 -30l-166 -786q-35 -162 -104 -267t-182 -156.5t-278 -51.5zM966 1459l-242 271h208l119 -271h-85z" />
    <glyph glyph-name="Uacute" unicode="&#xda;" horiz-adv-x="1482" 
d="M691 -19q-146 0 -253 42.5t-165 129.5t-58 221q0 37 4.5 78t15.5 89l148 699q1 5 1 8v5q0 15 -9.5 21.5t-21.5 6.5h-150l13 65h592l-14 -65h-159q-14 0 -28.5 -9t-19.5 -30l-158 -743q-9 -42 -13.5 -80.5t-4.5 -72.5q0 -141 77 -210.5t229 -69.5q174 0 291.5 91
t164.5 311l164 773q1 5 1 11q0 16 -10 22.5t-21 6.5h-161l14 65h472l-14 -65h-150q-14 0 -28 -9t-19 -30l-166 -786q-35 -162 -104 -267t-182 -156.5t-278 -51.5zM874 1459l236 271h220l-357 -271h-99z" />
    <glyph glyph-name="Ucircumflex" unicode="&#xdb;" horiz-adv-x="1482" 
d="M691 -19q-146 0 -253 42.5t-165 129.5t-58 221q0 37 4.5 78t15.5 89l148 699q1 5 1 8v5q0 15 -9.5 21.5t-21.5 6.5h-150l13 65h592l-14 -65h-159q-14 0 -28.5 -9t-19.5 -30l-158 -743q-9 -42 -13.5 -80.5t-4.5 -72.5q0 -141 77 -210.5t229 -69.5q174 0 291.5 91
t164.5 311l164 773q1 5 1 11q0 16 -10 22.5t-21 6.5h-161l14 65h472l-14 -65h-150q-14 0 -28 -9t-19 -30l-166 -786q-35 -162 -104 -267t-182 -156.5t-278 -51.5zM670 1458l260 271h185l149 -271h-95l-162 172l-233 -172h-104z" />
    <glyph glyph-name="Udieresis" unicode="&#xdc;" horiz-adv-x="1482" 
d="M691 -19q-146 0 -253 42.5t-165 129.5t-58 221q0 37 4.5 78t15.5 89l148 699q1 5 1 8v5q0 15 -9.5 21.5t-21.5 6.5h-150l13 65h592l-14 -65h-159q-14 0 -28.5 -9t-19.5 -30l-158 -743q-9 -42 -13.5 -80.5t-4.5 -72.5q0 -141 77 -210.5t229 -69.5q174 0 291.5 91
t164.5 311l164 773q1 5 1 11q0 16 -10 22.5t-21 6.5h-161l14 65h472l-14 -65h-150q-14 0 -28 -9t-19 -30l-166 -786q-35 -162 -104 -267t-182 -156.5t-278 -51.5zM1158 1492q-39 0 -67 28t-28 68q0 39 28 67t67 28t66 -28t27 -67q0 -40 -27 -68t-66 -28zM801 1492
q-41 0 -68.5 28t-27.5 68q0 39 27.5 67t68.5 28q37 0 65 -28t28 -67q0 -40 -28 -68t-65 -28z" />
    <glyph glyph-name="Yacute" unicode="&#xdd;" horiz-adv-x="1295" 
d="M244 0l13 65h151q14 0 29 9t19 30l100 475l-235 638q-12 33 -28.5 48.5t-49.5 15.5h-55l14 65h521l-14 -65h-131q-37 0 -44 -29q-2 -10 1 -28t8 -33l184 -536l425 529q16 20 27.5 38t13.5 30q6 29 -30 29h-120l14 65h406l-14 -65h-48q-34 0 -72.5 -22.5t-79.5 -72.5
l-486 -594l-103 -488q-5 -21 5 -30t24 -9h151l-14 -65h-582zM767 1459l236 271h220l-357 -271h-99z" />
    <glyph glyph-name="Thorn" unicode="&#xde;" horiz-adv-x="1233" 
d="M-56 0l14 65h150q13 0 27.5 7.5t18.5 27.5l242 1137q2 9 2 16q0 15 -10 21.5t-21 6.5h-151l14 65h582l-14 -65h-150q-13 0 -27 -7.5t-19 -27.5l-36 -168l229 1q115 0 201 -41t134 -115.5t48 -177.5q0 -144 -70.5 -245.5t-190 -154t-268.5 -52.5h-250l-39 -184
q-1 -6 -1.5 -9.5t-0.5 -6.5q0 -15 10 -21.5t21 -6.5h151l-14 -65h-582zM415 368h217q87 0 150.5 36t104 95.5t60.5 130t20 138.5q0 112 -58 173.5t-151 61.5h-208z" />
    <glyph glyph-name="germandbls" unicode="&#xdf;" horiz-adv-x="1124" 
d="M-234 -359l12 58q77 0 130 28.5t88.5 92.5t57.5 170l217 1015q31 142 85 242.5t148 154.5t242 54q160 0 246.5 -83.5t86.5 -220.5q0 -61 -18.5 -126.5t-65 -124.5t-131 -100.5t-214.5 -55.5l1 30q115 -10 192.5 -57.5t117.5 -122.5t40 -169q0 -140 -60 -238t-168.5 -149
t-256.5 -51q-52 0 -86 3t-63 9l17 73q27 -7 54.5 -10.5t60.5 -3.5q97 0 158.5 43.5t95.5 109t47.5 135.5t13.5 124q0 127 -66.5 194.5t-177.5 67.5h-72l13 70h75q93 0 154 38.5t97 99t51 127t15 122.5q0 93 -43 148.5t-122 55.5q-90 0 -142 -50t-84 -146t-62 -235l-208 -984
q-29 -137 -82 -210.5t-135 -100.5t-197 -27h-62z" />
    <glyph glyph-name="agrave" unicode="&#xe0;" horiz-adv-x="1174" 
d="M390 -17q-137 0 -222 89t-85 254q0 115 35.5 230t104 210t167 152.5t222.5 57.5q89 0 157 -45t97 -103l48 130h168l-154 -718q-3 -20 -5.5 -37.5t-2.5 -31.5q0 -58 36 -84.5t121 -26.5l-12 -55q-36 -9 -70.5 -14t-82.5 -5q-93 0 -137.5 48.5t-47.5 128.5
q-59 -77 -143.5 -128.5t-193.5 -51.5zM452 78q91 0 167 54t125 131l99 471q-20 58 -73.5 105t-133.5 47q-74 0 -132.5 -39.5t-101 -104t-71 -140.5t-42 -151.5t-13.5 -135.5q0 -114 46 -175.5t130 -61.5zM679 1109l-241 271h208l119 -271h-86z" />
    <glyph glyph-name="aacute" unicode="&#xe1;" horiz-adv-x="1174" 
d="M390 -17q-137 0 -222 89t-85 254q0 115 35.5 230t104 210t167 152.5t222.5 57.5q89 0 157 -45t97 -103l48 130h168l-154 -718q-3 -20 -5.5 -37.5t-2.5 -31.5q0 -58 36 -84.5t121 -26.5l-12 -55q-36 -9 -70.5 -14t-82.5 -5q-93 0 -137.5 48.5t-47.5 128.5
q-59 -77 -143.5 -128.5t-193.5 -51.5zM452 78q91 0 167 54t125 131l99 471q-20 58 -73.5 105t-133.5 47q-74 0 -132.5 -39.5t-101 -104t-71 -140.5t-42 -151.5t-13.5 -135.5q0 -114 46 -175.5t130 -61.5zM592 1109l236 271h220l-357 -271h-99z" />
    <glyph glyph-name="acircumflex" unicode="&#xe2;" horiz-adv-x="1174" 
d="M390 -17q-137 0 -222 89t-85 254q0 115 35.5 230t104 210t167 152.5t222.5 57.5q89 0 157 -45t97 -103l48 130h168l-154 -718q-3 -20 -5.5 -37.5t-2.5 -31.5q0 -58 36 -84.5t121 -26.5l-12 -55q-36 -9 -70.5 -14t-82.5 -5q-93 0 -137.5 48.5t-47.5 128.5
q-59 -77 -143.5 -128.5t-193.5 -51.5zM452 78q91 0 167 54t125 131l99 471q-20 58 -73.5 105t-133.5 47q-74 0 -132.5 -39.5t-101 -104t-71 -140.5t-42 -151.5t-13.5 -135.5q0 -114 46 -175.5t130 -61.5zM386 1109l260 271h185l149 -271h-95l-162 172l-233 -172h-104z" />
    <glyph glyph-name="atilde" unicode="&#xe3;" horiz-adv-x="1174" 
d="M390 -17q-137 0 -222 89t-85 254q0 115 35.5 230t104 210t167 152.5t222.5 57.5q89 0 157 -45t97 -103l48 130h168l-154 -718q-3 -20 -5.5 -37.5t-2.5 -31.5q0 -58 36 -84.5t121 -26.5l-12 -55q-36 -9 -70.5 -14t-82.5 -5q-93 0 -137.5 48.5t-47.5 128.5
q-59 -77 -143.5 -128.5t-193.5 -51.5zM452 78q91 0 167 54t125 131l99 471q-20 58 -73.5 105t-133.5 47q-74 0 -132.5 -39.5t-101 -104t-71 -140.5t-42 -151.5t-13.5 -135.5q0 -114 46 -175.5t130 -61.5zM381 1130q24 109 76 158.5t119 49.5q45 0 80.5 -14t67.5 -30
q32 -15 56.5 -25t49.5 -10q31 0 52 20t34 63h83q-28 -105 -73 -153t-111 -48q-45 0 -77.5 12t-69.5 29q-33 16 -58.5 26.5t-52.5 10.5q-32 0 -56 -21t-39 -68h-81z" />
    <glyph glyph-name="adieresis" unicode="&#xe4;" horiz-adv-x="1174" 
d="M390 -17q-137 0 -222 89t-85 254q0 115 35.5 230t104 210t167 152.5t222.5 57.5q89 0 157 -45t97 -103l48 130h168l-154 -718q-3 -20 -5.5 -37.5t-2.5 -31.5q0 -58 36 -84.5t121 -26.5l-12 -55q-36 -9 -70.5 -14t-82.5 -5q-93 0 -137.5 48.5t-47.5 128.5
q-59 -77 -143.5 -128.5t-193.5 -51.5zM452 78q91 0 167 54t125 131l99 471q-20 58 -73.5 105t-133.5 47q-74 0 -132.5 -39.5t-101 -104t-71 -140.5t-42 -151.5t-13.5 -135.5q0 -114 46 -175.5t130 -61.5zM876 1141q-39 0 -67 27.5t-28 67.5t28 67.5t67 27.5q38 0 66 -27.5
t28 -67.5t-28 -67.5t-66 -27.5zM518 1141q-39 0 -67 27.5t-28 67.5t28 67.5t67 27.5q38 0 65.5 -27.5t27.5 -67.5t-27.5 -67.5t-65.5 -27.5z" />
    <glyph glyph-name="aring" unicode="&#xe5;" horiz-adv-x="1174" 
d="M390 -17q-137 0 -222 89t-85 254q0 115 35.5 230t104 210t167 152.5t222.5 57.5q89 0 157 -45t97 -103l48 130h168l-154 -718q-3 -20 -5.5 -37.5t-2.5 -31.5q0 -58 36 -84.5t121 -26.5l-12 -55q-36 -9 -70.5 -14t-82.5 -5q-93 0 -137.5 48.5t-47.5 128.5
q-59 -77 -143.5 -128.5t-193.5 -51.5zM452 78q91 0 167 54t125 131l99 471q-20 58 -73.5 105t-133.5 47q-74 0 -132.5 -39.5t-101 -104t-71 -140.5t-42 -151.5t-13.5 -135.5q0 -114 46 -175.5t130 -61.5zM698 1079q-92 0 -150.5 55.5t-58.5 147.5q0 90 58.5 145.5
t150.5 55.5t150.5 -55.5t58.5 -145.5q0 -92 -58.5 -147.5t-150.5 -55.5zM698 1153q56 0 91 36t35 93t-35 92.5t-91 35.5q-55 0 -90 -35.5t-35 -92.5t35 -93t90 -36z" />
    <glyph glyph-name="ae" unicode="&#xe6;" horiz-adv-x="1752" 
d="M383 -17q-126 0 -213 89t-87 258q0 113 35.5 227t103.5 209t164.5 152.5t218.5 57.5q92 0 161 -45t101 -103l41 130h90l-64 -453l-111 -505h-96l8 165q-36 -45 -86 -86.5t-116 -68.5t-150 -27zM453 78q62 0 115.5 27t96 67.5t72.5 81.5l102 490q-23 51 -76 96.5
t-134 45.5q-72 0 -129.5 -40t-99.5 -105t-69.5 -141.5t-41 -151t-13.5 -133.5q0 -114 46.5 -175.5t130.5 -61.5zM1190 -17q-138 0 -228.5 51t-135 142.5t-44.5 209.5q0 112 35 217t104.5 188.5t173.5 133t241 49.5q154 0 236 -58t82 -157q0 -68 -37.5 -128.5t-120.5 -106.5
t-218 -72t-329 -26l19 35q-3 -15 -5 -39t-2 -50q0 -128 55.5 -216t187.5 -88q105 0 179.5 61.5t101.5 188.5h134q-37 -160 -149.5 -247.5t-279.5 -87.5zM968 493l-17 7q260 0 394 76.5t134 192.5q0 61 -40 97.5t-118 36.5q-84 0 -154.5 -46t-121 -137t-77.5 -227z" />
    <glyph glyph-name="ccedilla" unicode="&#xe7;" horiz-adv-x="1053" 
d="M494 -18q-119 0 -208.5 47t-139.5 137t-50 218q0 112 32 217t96.5 190t161 135t224.5 50q110 0 192.5 -39.5t127.5 -113t39 -177.5h-186q2 50 -8 96.5t-32.5 84t-58.5 59t-85 21.5q-73 0 -127 -39t-90.5 -102.5t-59 -137t-32.5 -144t-10 -122.5q0 -146 61.5 -223.5
t169.5 -77.5q116 0 187 71t94 196l131 1q-37 -172 -146.5 -259.5t-282.5 -87.5zM365 -377q-63 0 -106 10.5t-78 25.5l37 82q27 -15 67.5 -27t83.5 -12q36 0 63 15t34 52q7 42 -18 66.5t-101 35.5l-43 5l157 168l63 -42l-84 -89l-27 22q100 -4 149 -53.5t33 -127.5
q-15 -75 -80 -103t-150 -28z" />
    <glyph glyph-name="egrave" unicode="&#xe8;" horiz-adv-x="1065" 
d="M503 -17q-138 0 -228.5 51t-135 142.5t-44.5 209.5q0 112 35 217t104.5 188.5t173.5 133t241 49.5q154 0 236 -58t82 -157q0 -68 -37.5 -128.5t-119.5 -106.5t-216 -72t-327 -26l19 35q-3 -15 -5 -39t-2 -50q0 -128 54.5 -216t183.5 -88q105 0 179.5 61.5t101.5 188.5
h134q-37 -160 -149.5 -247.5t-279.5 -87.5zM286 493l-17 7q257 0 390 76.5t133 192.5q0 61 -40 97.5t-118 36.5q-82 0 -151.5 -46t-120 -137t-76.5 -227zM638 1109l-241 271h208l119 -271h-86z" />
    <glyph glyph-name="eacute" unicode="&#xe9;" horiz-adv-x="1065" 
d="M503 -17q-138 0 -228.5 51t-135 142.5t-44.5 209.5q0 112 35 217t104.5 188.5t173.5 133t241 49.5q154 0 236 -58t82 -157q0 -68 -37.5 -128.5t-119.5 -106.5t-216 -72t-327 -26l19 35q-3 -15 -5 -39t-2 -50q0 -128 54.5 -216t183.5 -88q105 0 179.5 61.5t101.5 188.5
h134q-37 -160 -149.5 -247.5t-279.5 -87.5zM286 493l-17 7q257 0 390 76.5t133 192.5q0 61 -40 97.5t-118 36.5q-82 0 -151.5 -46t-120 -137t-76.5 -227zM551 1109l236 271h220l-357 -271h-99z" />
    <glyph glyph-name="ecircumflex" unicode="&#xea;" horiz-adv-x="1065" 
d="M503 -17q-138 0 -228.5 51t-135 142.5t-44.5 209.5q0 112 35 217t104.5 188.5t173.5 133t241 49.5q154 0 236 -58t82 -157q0 -68 -37.5 -128.5t-119.5 -106.5t-216 -72t-327 -26l19 35q-3 -15 -5 -39t-2 -50q0 -128 54.5 -216t183.5 -88q105 0 179.5 61.5t101.5 188.5
h134q-37 -160 -149.5 -247.5t-279.5 -87.5zM286 493l-17 7q257 0 390 76.5t133 192.5q0 61 -40 97.5t-118 36.5q-82 0 -151.5 -46t-120 -137t-76.5 -227zM345 1109l260 271h185l149 -271h-95l-162 172l-233 -172h-104z" />
    <glyph glyph-name="edieresis" unicode="&#xeb;" horiz-adv-x="1065" 
d="M503 -17q-138 0 -228.5 51t-135 142.5t-44.5 209.5q0 112 35 217t104.5 188.5t173.5 133t241 49.5q154 0 236 -58t82 -157q0 -68 -37.5 -128.5t-119.5 -106.5t-216 -72t-327 -26l19 35q-3 -15 -5 -39t-2 -50q0 -128 54.5 -216t183.5 -88q105 0 179.5 61.5t101.5 188.5
h134q-37 -160 -149.5 -247.5t-279.5 -87.5zM286 493l-17 7q257 0 390 76.5t133 192.5q0 61 -40 97.5t-118 36.5q-82 0 -151.5 -46t-120 -137t-76.5 -227zM835 1141q-39 0 -67 27.5t-28 67.5t28 67.5t67 27.5q38 0 66 -27.5t28 -67.5t-28 -67.5t-66 -27.5zM477 1141
q-39 0 -67 27.5t-28 67.5t28 67.5t67 27.5q38 0 65.5 -27.5t27.5 -67.5t-27.5 -67.5t-65.5 -27.5z" />
    <glyph glyph-name="igrave" unicode="&#xec;" horiz-adv-x="586" 
d="M296 -8q-75 0 -122 38.5t-47 128.5q0 24 3.5 52.5t11.5 60.5l103 453q5 22 8 41t3 34q0 35 -14.5 52t-44.5 22l-80 13l12 53l356 24l-159 -705q-5 -24 -8 -44.5t-3 -38.5q0 -61 36.5 -86t116.5 -25l-11 -55q-38 -8 -77 -13t-84 -5zM391 1109l-241 271h208l119 -271h-86z
" />
    <glyph glyph-name="iacute" unicode="&#xed;" horiz-adv-x="586" 
d="M296 -8q-75 0 -122 38.5t-47 128.5q0 24 3.5 52.5t11.5 60.5l103 453q5 22 8 41t3 34q0 35 -14.5 52t-44.5 22l-80 13l12 53l356 24l-159 -705q-5 -24 -8 -44.5t-3 -38.5q0 -61 36.5 -86t116.5 -25l-11 -55q-38 -8 -77 -13t-84 -5zM304 1109l236 271h220l-357 -271h-99z
" />
    <glyph glyph-name="icircumflex" unicode="&#xee;" horiz-adv-x="586" 
d="M296 -8q-75 0 -122 38.5t-47 128.5q0 24 3.5 52.5t11.5 60.5l103 453q5 22 8 41t3 34q0 35 -14.5 52t-44.5 22l-80 13l12 53l356 24l-159 -705q-5 -24 -8 -44.5t-3 -38.5q0 -61 36.5 -86t116.5 -25l-11 -55q-38 -8 -77 -13t-84 -5zM98 1109l260 271h185l149 -271h-95
l-162 172l-233 -172h-104z" />
    <glyph glyph-name="idieresis" unicode="&#xef;" horiz-adv-x="586" 
d="M296 -8q-75 0 -122 38.5t-47 128.5q0 24 3.5 52.5t11.5 60.5l103 453q5 22 8 41t3 34q0 35 -14.5 52t-44.5 22l-80 13l12 53l356 24l-159 -705q-5 -24 -8 -44.5t-3 -38.5q0 -61 36.5 -86t116.5 -25l-11 -55q-38 -8 -77 -13t-84 -5zM562 1141q-39 0 -66.5 27.5t-27.5 67.5
t27.5 67.5t66.5 27.5t66.5 -27.5t27.5 -67.5t-27.5 -67.5t-66.5 -27.5zM262 1141q-40 0 -68 27.5t-28 67.5t28 67.5t68 27.5q38 0 65 -27.5t27 -67.5t-27 -67.5t-65 -27.5z" />
    <glyph glyph-name="eth" unicode="&#xf0;" horiz-adv-x="1137" 
d="M482 -17q-116 0 -203.5 48t-136.5 137t-49 214q0 109 34.5 213t101 187.5t164.5 132.5t225 49q87 0 150.5 -24.5t106 -68t65.5 -100.5l-69 -21q1 11 3 25t2 30q0 85 -25.5 175.5t-82 172.5t-147.5 142.5t-222 86.5l14 64q196 -30 337.5 -123.5t218.5 -243t77 -349.5
q0 -93 -16.5 -196t-55 -200.5t-103 -177t-160.5 -126.5t-229 -47zM492 53q76 0 134 43t99 112.5t66.5 149.5t37.5 155.5t12 130.5q0 112 -50.5 180t-165.5 68q-76 0 -133.5 -37.5t-98 -99t-66 -134t-37.5 -143.5t-12 -128q0 -126 54 -211.5t160 -85.5zM430 1104l15 74
l634 230l-15 -73z" />
    <glyph glyph-name="ntilde" unicode="&#xf1;" horiz-adv-x="1179" 
d="M907 -18q-51 0 -89.5 15t-59.5 49.5t-21 92.5q0 21 3 47t9 51l84 405q4 21 6.5 38.5t2.5 34.5q0 58 -28.5 97.5t-93.5 39.5q-59 0 -113 -34t-101.5 -89t-86.5 -118l-132 -611h-189l157 725q5 24 7.5 43t2.5 34q0 34 -14 50.5t-43 21.5l-80 13l12 53l339 24l-41 -247
q42 62 96.5 120t124.5 95t155 37q111 0 165.5 -58t54.5 -166q0 -29 -4 -62t-12 -68l-85 -390q-3 -17 -5 -32t-2 -29q0 -55 36 -81.5t120 -26.5l-12 -55q-35 -9 -75.5 -14t-87.5 -5zM412 1130q24 109 76 158.5t119 49.5q45 0 80.5 -14t67.5 -30q32 -15 56.5 -25t49.5 -10
q31 0 52 20t34 63h83q-28 -105 -73 -153t-111 -48q-45 0 -77.5 12t-69.5 29q-33 16 -58.5 26.5t-52.5 10.5q-32 0 -56 -21t-39 -68h-81z" />
    <glyph glyph-name="ograve" unicode="&#xf2;" horiz-adv-x="1102" 
d="M475 -17q-181 0 -281 111t-100 288q0 98 29.5 202t93.5 193t166 144t247 55q181 0 279.5 -110.5t98.5 -288.5q0 -102 -30.5 -206.5t-95 -192.5t-165.5 -141.5t-242 -53.5zM483 53q76 0 133 41t96.5 106.5t63.5 142.5t35 151t11 130q0 121 -48.5 202t-151.5 81
q-76 0 -133 -39.5t-96.5 -103.5t-63.5 -139.5t-35.5 -148.5t-11.5 -129q0 -81 21.5 -148.5t66 -106.5t113.5 -39zM651 1092l-241 271h208l119 -271h-86z" />
    <glyph glyph-name="oacute" unicode="&#xf3;" horiz-adv-x="1102" 
d="M475 -17q-181 0 -281 111t-100 288q0 98 29.5 202t93.5 193t166 144t247 55q181 0 279.5 -110.5t98.5 -288.5q0 -102 -30.5 -206.5t-95 -192.5t-165.5 -141.5t-242 -53.5zM483 53q76 0 133 41t96.5 106.5t63.5 142.5t35 151t11 130q0 121 -48.5 202t-151.5 81
q-76 0 -133 -39.5t-96.5 -103.5t-63.5 -139.5t-35.5 -148.5t-11.5 -129q0 -81 21.5 -148.5t66 -106.5t113.5 -39zM564 1092l236 271h220l-357 -271h-99z" />
    <glyph glyph-name="ocircumflex" unicode="&#xf4;" horiz-adv-x="1102" 
d="M475 -17q-181 0 -281 111t-100 288q0 98 29.5 202t93.5 193t166 144t247 55q181 0 279.5 -110.5t98.5 -288.5q0 -102 -30.5 -206.5t-95 -192.5t-165.5 -141.5t-242 -53.5zM483 53q76 0 133 41t96.5 106.5t63.5 142.5t35 151t11 130q0 121 -48.5 202t-151.5 81
q-76 0 -133 -39.5t-96.5 -103.5t-63.5 -139.5t-35.5 -148.5t-11.5 -129q0 -81 21.5 -148.5t66 -106.5t113.5 -39zM358 1092l260 271h185l149 -271h-95l-162 172l-233 -172h-104z" />
    <glyph glyph-name="otilde" unicode="&#xf5;" horiz-adv-x="1102" 
d="M475 -17q-181 0 -281 111t-100 288q0 98 29.5 202t93.5 193t166 144t247 55q181 0 279.5 -110.5t98.5 -288.5q0 -102 -30.5 -206.5t-95 -192.5t-165.5 -141.5t-242 -53.5zM483 53q76 0 133 41t96.5 106.5t63.5 142.5t35 151t11 130q0 121 -48.5 202t-151.5 81
q-76 0 -133 -39.5t-96.5 -103.5t-63.5 -139.5t-35.5 -148.5t-11.5 -129q0 -81 21.5 -148.5t66 -106.5t113.5 -39zM353 1113q24 109 76 158.5t119 49.5q45 0 80.5 -14t67.5 -30q32 -15 56.5 -25t49.5 -10q31 0 52 20t34 63h83q-28 -105 -73 -153t-111 -48q-45 0 -77.5 12
t-69.5 29q-33 16 -58.5 26.5t-52.5 10.5q-32 0 -56 -21t-39 -68h-81z" />
    <glyph glyph-name="odieresis" unicode="&#xf6;" horiz-adv-x="1102" 
d="M475 -17q-181 0 -281 111t-100 288q0 98 29.5 202t93.5 193t166 144t247 55q181 0 279.5 -110.5t98.5 -288.5q0 -102 -30.5 -206.5t-95 -192.5t-165.5 -141.5t-242 -53.5zM483 53q76 0 133 41t96.5 106.5t63.5 142.5t35 151t11 130q0 121 -48.5 202t-151.5 81
q-76 0 -133 -39.5t-96.5 -103.5t-63.5 -139.5t-35.5 -148.5t-11.5 -129q0 -81 21.5 -148.5t66 -106.5t113.5 -39zM848 1124q-39 0 -67 27.5t-28 67.5t28 67.5t67 27.5q38 0 66 -27.5t28 -67.5t-28 -67.5t-66 -27.5zM490 1124q-39 0 -67 27.5t-28 67.5t28 67.5t67 27.5
q38 0 65.5 -27.5t27.5 -67.5t-27.5 -67.5t-65.5 -27.5z" />
    <glyph glyph-name="divide" unicode="&#xf7;" 
d="M161 630v100h884v-100h-884zM604 274q-43 0 -71 28.5t-28 69.5t28 67.5t71 26.5q42 0 69.5 -26.5t27.5 -67.5t-27.5 -69.5t-69.5 -28.5zM604 894q-43 0 -71 28t-28 68q0 41 28 69t71 28q42 0 69.5 -28t27.5 -69q0 -40 -27.5 -68t-69.5 -28z" />
    <glyph glyph-name="oslash" unicode="&#xf8;" horiz-adv-x="1102" 
d="M475 -16q-180 0 -280.5 110.5t-100.5 287.5q0 99 30 202.5t94 192.5t166 144t247 55q181 0 279.5 -110t98.5 -288q0 -102 -31 -206.5t-95 -192.5t-165 -141.5t-243 -53.5zM483 53q77 0 134.5 40.5t97 106t64 142.5t35.5 151t11 131q0 122 -48.5 202.5t-153.5 80.5
q-77 0 -134.5 -39.5t-97.5 -103t-64.5 -138.5t-35.5 -148t-11 -130q0 -82 21.5 -149t66.5 -106.5t115 -39.5zM151 -59l-54 45l856 1026l54 -43z" />
    <glyph glyph-name="ugrave" unicode="&#xf9;" horiz-adv-x="1190" 
d="M362 -18q-111 0 -165 58.5t-54 165.5q0 29 4 62t12 68l85 389q5 24 8 43t3 34q0 34 -14.5 50.5t-43.5 21.5l-80 13l12 53l356 24l-143 -660q-4 -18 -5.5 -34t-1.5 -31q0 -60 29.5 -100t92.5 -40q58 0 112 33.5t102 88t86 116.5l131 600l195 14l-154 -698q-5 -24 -8 -44
t-3 -37q0 -56 35.5 -79.5t119.5 -23.5l-12 -55q-37 -9 -78.5 -15.5t-88.5 -6.5q-50 0 -87 16.5t-56 53.5t-19 98q0 16 1 33.5t4 37.5q-39 -58 -94 -115.5t-125 -95.5t-156 -38zM692 1109l-241 271h208l119 -271h-86z" />
    <glyph glyph-name="uacute" unicode="&#xfa;" horiz-adv-x="1190" 
d="M362 -18q-111 0 -165 58.5t-54 165.5q0 29 4 62t12 68l85 389q5 24 8 43t3 34q0 34 -14.5 50.5t-43.5 21.5l-80 13l12 53l356 24l-143 -660q-4 -18 -5.5 -34t-1.5 -31q0 -60 29.5 -100t92.5 -40q58 0 112 33.5t102 88t86 116.5l131 600l195 14l-154 -698q-5 -24 -8 -44
t-3 -37q0 -56 35.5 -79.5t119.5 -23.5l-12 -55q-37 -9 -78.5 -15.5t-88.5 -6.5q-50 0 -87 16.5t-56 53.5t-19 98q0 16 1 33.5t4 37.5q-39 -58 -94 -115.5t-125 -95.5t-156 -38zM605 1109l236 271h220l-357 -271h-99z" />
    <glyph glyph-name="ucircumflex" unicode="&#xfb;" horiz-adv-x="1190" 
d="M362 -18q-111 0 -165 58.5t-54 165.5q0 29 4 62t12 68l85 389q5 24 8 43t3 34q0 34 -14.5 50.5t-43.5 21.5l-80 13l12 53l356 24l-143 -660q-4 -18 -5.5 -34t-1.5 -31q0 -60 29.5 -100t92.5 -40q58 0 112 33.5t102 88t86 116.5l131 600l195 14l-154 -698q-5 -24 -8 -44
t-3 -37q0 -56 35.5 -79.5t119.5 -23.5l-12 -55q-37 -9 -78.5 -15.5t-88.5 -6.5q-50 0 -87 16.5t-56 53.5t-19 98q0 16 1 33.5t4 37.5q-39 -58 -94 -115.5t-125 -95.5t-156 -38zM399 1109l260 271h185l149 -271h-95l-162 172l-233 -172h-104z" />
    <glyph glyph-name="udieresis" unicode="&#xfc;" horiz-adv-x="1190" 
d="M362 -18q-111 0 -165 58.5t-54 165.5q0 29 4 62t12 68l85 389q5 24 8 43t3 34q0 34 -14.5 50.5t-43.5 21.5l-80 13l12 53l356 24l-143 -660q-4 -18 -5.5 -34t-1.5 -31q0 -60 29.5 -100t92.5 -40q58 0 112 33.5t102 88t86 116.5l131 600l195 14l-154 -698q-5 -24 -8 -44
t-3 -37q0 -56 35.5 -79.5t119.5 -23.5l-12 -55q-37 -9 -78.5 -15.5t-88.5 -6.5q-50 0 -87 16.5t-56 53.5t-19 98q0 16 1 33.5t4 37.5q-39 -58 -94 -115.5t-125 -95.5t-156 -38zM889 1141q-39 0 -67 27.5t-28 67.5t28 67.5t67 27.5q38 0 66 -27.5t28 -67.5t-28 -67.5
t-66 -27.5zM531 1141q-39 0 -67 27.5t-28 67.5t28 67.5t67 27.5q38 0 65.5 -27.5t27.5 -67.5t-27.5 -67.5t-65.5 -27.5z" />
    <glyph glyph-name="yacute" unicode="&#xfd;" horiz-adv-x="969" 
d="M-200 -366l17 65q89 0 170.5 30.5t158 88t152.5 138.5l32 33l-137 742q-9 51 -15.5 79.5t-19 43t-38.5 20.5l-62 13l12 53l276 23l140 -829q146 178 224.5 357t85.5 365q0 23 -1.5 48t-4.5 51h179q-4 -120 -47 -239.5t-113.5 -236t-156.5 -229t-173 -219.5
q-86 -103 -150.5 -178t-126 -123.5t-133.5 -72t-173 -23.5h-96zM500 1109l236 271h220l-357 -271h-99z" />
    <glyph glyph-name="thorn" unicode="&#xfe;" horiz-adv-x="1166" 
d="M577 -18q-99 0 -170 45.5t-104 98.5l-100 -484h-195l333 1568q5 23 7.5 42t2.5 34q0 34 -13.5 50.5t-43.5 21.5l-79 14l12 52l355 24l-135 -641q58 71 139.5 117.5t186.5 46.5q137 0 222 -89t85 -261q0 -77 -17.5 -164.5t-54.5 -171t-96.5 -152.5t-142.5 -110t-192 -41z
M545 72q73 0 129 40.5t97 106t67.5 142t39.5 150.5t13 130q0 114 -46.5 174.5t-130.5 60.5q-91 0 -165 -50t-123 -118l-103 -486q24 -51 79.5 -100.5t142.5 -49.5z" />
    <glyph glyph-name="ydieresis" unicode="&#xff;" horiz-adv-x="969" 
d="M-200 -366l17 65q89 0 170.5 30.5t158 88t152.5 138.5l32 33l-137 742q-9 51 -15.5 79.5t-19 43t-38.5 20.5l-62 13l12 53l276 23l140 -829q146 178 224.5 357t85.5 365q0 23 -1.5 48t-4.5 51h179q-4 -120 -47 -239.5t-113.5 -236t-156.5 -229t-173 -219.5
q-86 -103 -150.5 -178t-126 -123.5t-133.5 -72t-173 -23.5h-96zM784 1141q-39 0 -67 27.5t-28 67.5t28 67.5t67 27.5q38 0 66 -27.5t28 -67.5t-28 -67.5t-66 -27.5zM426 1141q-39 0 -67 27.5t-28 67.5t28 67.5t67 27.5q38 0 65.5 -27.5t27.5 -67.5t-27.5 -67.5t-65.5 -27.5z
" />
    <glyph glyph-name="Amacron" unicode="&#x100;" horiz-adv-x="1333" 
d="M-104 0l13 65h113q15 0 28 8t27 32l722 1241h113l183 -1241q4 -23 14 -31.5t29 -8.5h109l-13 -65h-528l13 65h137q17 0 30.5 9t11.5 37l-141 1076l36 13l-617 -1083q-18 -31 -8 -41.5t28 -10.5h150l-14 -65h-436zM329 463l22 75h649l-21 -75h-650zM617 1539l20 98h550
l-21 -98h-549z" />
    <glyph glyph-name="amacron" unicode="&#x101;" horiz-adv-x="1174" 
d="M390 -17q-137 0 -222 89t-85 254q0 115 35.5 230t104 210t167 152.5t222.5 57.5q89 0 157 -45t97 -103l48 130h168l-154 -718q-3 -20 -5.5 -37.5t-2.5 -31.5q0 -58 36 -84.5t121 -26.5l-12 -55q-36 -9 -70.5 -14t-82.5 -5q-93 0 -137.5 48.5t-47.5 128.5
q-59 -77 -143.5 -128.5t-193.5 -51.5zM452 78q91 0 167 54t125 131l99 471q-20 58 -73.5 105t-133.5 47q-74 0 -132.5 -39.5t-101 -104t-71 -140.5t-42 -151.5t-13.5 -135.5q0 -114 46 -175.5t130 -61.5zM432 1189l21 98h550l-21 -98h-550z" />
    <glyph glyph-name="Abreve" unicode="&#x102;" horiz-adv-x="1333" 
d="M-104 0l13 65h113q15 0 28 8t27 32l722 1241h113l183 -1241q4 -23 14 -31.5t29 -8.5h109l-13 -65h-528l13 65h137q17 0 30.5 9t11.5 37l-141 1076l36 13l-617 -1083q-18 -31 -8 -41.5t28 -10.5h150l-14 -65h-436zM329 463l22 75h649l-21 -75h-650zM876 1474
q-122 0 -187.5 67.5t-54.5 189.5h104q-4 -51 16 -82t55.5 -44.5t77.5 -13.5t84.5 14t77 45t52.5 81h102q-40 -120 -123 -188.5t-204 -68.5z" />
    <glyph glyph-name="abreve" unicode="&#x103;" horiz-adv-x="1174" 
d="M390 -17q-137 0 -222 89t-85 254q0 115 35.5 230t104 210t167 152.5t222.5 57.5q89 0 157 -45t97 -103l48 130h168l-154 -718q-3 -20 -5.5 -37.5t-2.5 -31.5q0 -58 36 -84.5t121 -26.5l-12 -55q-36 -9 -70.5 -14t-82.5 -5q-93 0 -137.5 48.5t-47.5 128.5
q-59 -77 -143.5 -128.5t-193.5 -51.5zM452 78q91 0 167 54t125 131l99 471q-20 58 -73.5 105t-133.5 47q-74 0 -132.5 -39.5t-101 -104t-71 -140.5t-42 -151.5t-13.5 -135.5q0 -114 46 -175.5t130 -61.5zM704 1115q-120 0 -182.5 68.5t-55.5 189.5h104q-2 -52 17.5 -83
t53 -44.5t74.5 -13.5q61 0 120.5 32.5t85.5 108.5h102q-37 -119 -118.5 -188.5t-200.5 -69.5z" />
    <glyph glyph-name="Aogonek" unicode="&#x104;" horiz-adv-x="1333" 
d="M-104 0l13 65h113q15 0 28 8t27 32l722 1241h113l183 -1241q4 -23 14 -31.5t29 -8.5h109l-13 -65h-528l13 65h137q17 0 30.5 9t11.5 37l-141 1076l36 13l-617 -1083q-18 -31 -8 -41.5t28 -10.5h150l-14 -65h-436zM329 463l22 75h649l-21 -75h-650zM903 -379
q-79 0 -122.5 43t-26.5 118q16 79 101.5 148.5t209.5 99.5l34 -28q-91 -42 -140 -99.5t-61 -114.5q-10 -48 6 -73.5t61 -25.5q23 0 52.5 7t57.5 20l-13 -59q-31 -16 -71.5 -26t-87.5 -10z" />
    <glyph glyph-name="aogonek" unicode="&#x105;" horiz-adv-x="1174" 
d="M390 -17q-137 0 -222 89t-85 254q0 115 35.5 230t104 210t167 152.5t222.5 57.5q89 0 157 -45t97 -103l48 130h168l-154 -718q-3 -20 -5.5 -37.5t-2.5 -31.5q0 -58 36 -84.5t121 -26.5l-12 -55q-36 -9 -70.5 -14t-82.5 -5q-93 0 -137.5 48.5t-47.5 128.5
q-59 -77 -143.5 -128.5t-193.5 -51.5zM452 78q91 0 167 54t125 131l99 471q-20 58 -73.5 105t-133.5 47q-74 0 -132.5 -39.5t-101 -104t-71 -140.5t-42 -151.5t-13.5 -135.5q0 -114 46 -175.5t130 -61.5zM758 -373q-79 0 -122.5 43t-26.5 118q16 79 101.5 148.5t209.5 99.5
l34 -28q-91 -42 -140 -99.5t-61 -114.5q-10 -48 6 -73.5t61 -25.5q23 0 52.5 7t57.5 20l-13 -59q-31 -16 -71.5 -26t-87.5 -10z" />
    <glyph glyph-name="Cacute" unicode="&#x106;" horiz-adv-x="1363" 
d="M688 -18q-176 0 -299.5 68.5t-188 195.5t-64.5 301q0 160 47 306.5t140.5 262t234.5 182t328 66.5q142 0 242.5 -39.5t139.5 -79.5l21 101h80l-58 -396h-112q-9 103 -46.5 179t-106.5 119t-169 44q-111 0 -196.5 -50t-147.5 -133.5t-102 -186t-59 -210t-19 -203.5
q0 -198 87 -320.5t272 -122.5q163 0 277.5 94t157.5 294h111q-50 -236 -195 -354t-375 -118zM818 1460l236 271h220l-357 -271h-99z" />
    <glyph glyph-name="cacute" unicode="&#x107;" horiz-adv-x="1053" 
d="M494 -18q-119 0 -208.5 47t-139.5 137t-50 218q0 112 32 217t96.5 190t161 135t224.5 50q110 0 192.5 -39.5t127.5 -113t39 -177.5h-186q2 50 -8 96.5t-32.5 84t-58.5 59t-85 21.5q-73 0 -127 -39t-90.5 -102.5t-59 -137t-32.5 -144t-10 -122.5q0 -146 61.5 -223.5
t169.5 -77.5q116 0 187 71t94 196l131 1q-37 -172 -146.5 -259.5t-282.5 -87.5zM531 1109l236 271h220l-357 -271h-99z" />
    <glyph glyph-name="Ccircumflex" unicode="&#x108;" horiz-adv-x="1363" 
d="M688 -18q-176 0 -299.5 68.5t-188 195.5t-64.5 301q0 160 47 306.5t140.5 262t234.5 182t328 66.5q142 0 242.5 -39.5t139.5 -79.5l21 101h80l-58 -396h-112q-9 103 -46.5 179t-106.5 119t-169 44q-111 0 -196.5 -50t-147.5 -133.5t-102 -186t-59 -210t-19 -203.5
q0 -198 87 -320.5t272 -122.5q163 0 277.5 94t157.5 294h111q-50 -236 -195 -354t-375 -118zM614 1459l260 271h185l149 -271h-95l-162 172l-233 -172h-104z" />
    <glyph glyph-name="ccircumflex" unicode="&#x109;" horiz-adv-x="1053" 
d="M494 -18q-119 0 -208.5 47t-139.5 137t-50 218q0 112 32 217t96.5 190t161 135t224.5 50q110 0 192.5 -39.5t127.5 -113t39 -177.5h-186q2 50 -8 96.5t-32.5 84t-58.5 59t-85 21.5q-73 0 -127 -39t-90.5 -102.5t-59 -137t-32.5 -144t-10 -122.5q0 -146 61.5 -223.5
t169.5 -77.5q116 0 187 71t94 196l131 1q-37 -172 -146.5 -259.5t-282.5 -87.5zM325 1109l260 271h185l149 -271h-95l-162 172l-233 -172h-104z" />
    <glyph glyph-name="Cdotaccent" unicode="&#x10a;" horiz-adv-x="1363" 
d="M688 -18q-176 0 -299.5 68.5t-188 195.5t-64.5 301q0 160 47 306.5t140.5 262t234.5 182t328 66.5q142 0 242.5 -39.5t139.5 -79.5l21 101h80l-58 -396h-112q-9 103 -46.5 179t-106.5 119t-169 44q-111 0 -196.5 -50t-147.5 -133.5t-102 -186t-59 -210t-19 -203.5
q0 -198 87 -320.5t272 -122.5q163 0 277.5 94t157.5 294h111q-50 -236 -195 -354t-375 -118zM917 1506q-53 0 -84 30.5t-31 74.5q0 43 31 74t84 31q51 0 82 -31t31 -74q0 -44 -31 -74.5t-82 -30.5z" />
    <glyph glyph-name="cdotaccent" unicode="&#x10b;" horiz-adv-x="1053" 
d="M494 -18q-119 0 -208.5 47t-139.5 137t-50 218q0 112 32 217t96.5 190t161 135t224.5 50q110 0 192.5 -39.5t127.5 -113t39 -177.5h-186q2 50 -8 96.5t-32.5 84t-58.5 59t-85 21.5q-73 0 -127 -39t-90.5 -102.5t-59 -137t-32.5 -144t-10 -122.5q0 -146 61.5 -223.5
t169.5 -77.5q116 0 187 71t94 196l131 1q-37 -172 -146.5 -259.5t-282.5 -87.5zM655 1147q-53 0 -84 30t-31 75q0 43 31 73.5t84 30.5q51 0 81.5 -30.5t30.5 -73.5q0 -45 -30.5 -75t-81.5 -30z" />
    <glyph glyph-name="Ccaron" unicode="&#x10c;" horiz-adv-x="1363" 
d="M688 -18q-176 0 -299.5 68.5t-188 195.5t-64.5 301q0 160 47 306.5t140.5 262t234.5 182t328 66.5q142 0 242.5 -39.5t139.5 -79.5l21 101h80l-58 -396h-112q-9 103 -46.5 179t-106.5 119t-169 44q-111 0 -196.5 -50t-147.5 -133.5t-102 -186t-59 -210t-19 -203.5
q0 -198 87 -320.5t272 -122.5q163 0 277.5 94t157.5 294h111q-50 -236 -195 -354t-375 -118zM809 1460l-145 271h92l167 -171l242 171h93l-263 -271h-186z" />
    <glyph glyph-name="ccaron" unicode="&#x10d;" horiz-adv-x="1053" 
d="M494 -18q-119 0 -208.5 47t-139.5 137t-50 218q0 112 32 217t96.5 190t161 135t224.5 50q110 0 192.5 -39.5t127.5 -113t39 -177.5h-186q2 50 -8 96.5t-32.5 84t-58.5 59t-85 21.5q-73 0 -127 -39t-90.5 -102.5t-59 -137t-32.5 -144t-10 -122.5q0 -146 61.5 -223.5
t169.5 -77.5q116 0 187 71t94 196l131 1q-37 -172 -146.5 -259.5t-282.5 -87.5zM534 1109l-146 271h93l167 -172l242 172h93l-264 -271h-185z" />
    <glyph glyph-name="Dcaron" unicode="&#x10e;" horiz-adv-x="1477" 
d="M-55 0l13 65h151q12 0 26.5 7.5t19.5 26.5l241 1140q1 4 1.5 8t0.5 7q0 15 -9.5 21t-21.5 6h-151l14 65h584q193 0 328 -68.5t206.5 -194t71.5 -297.5q0 -113 -27 -226t-85.5 -213.5t-154 -178.5t-232.5 -123t-321 -45h-655zM353 76h218q157 0 267.5 47.5t182 127
t111.5 176.5t56 197.5t16 187.5q0 212 -103 335.5t-312 123.5h-183zM747 1459l-145 271h92l167 -171l242 171h93l-263 -271h-186z" />
    <glyph glyph-name="dcaron" unicode="&#x10f;" horiz-adv-x="1174" 
d="M390 -17q-137 0 -222 89t-85 254q0 113 35 228t102.5 210.5t164.5 153.5t219 58q93 0 162.5 -45t99.5 -103l81 381q5 22 7.5 40.5t2.5 32.5q0 35 -14.5 52t-44.5 22l-79 14l12 53l355 23l-258 -1206q-3 -20 -5.5 -37.5t-2.5 -31.5q0 -58 36 -84.5t121 -26.5l-12 -55
q-36 -9 -70.5 -14t-82.5 -5q-93 0 -137.5 48.5t-47.5 128.5q-59 -77 -143.5 -128.5t-193.5 -51.5zM452 78q91 0 167 54t125 131l99 471q-20 58 -73.5 105t-133.5 47q-74 0 -132.5 -39.5t-101 -104t-71 -140.5t-42 -151.5t-13.5 -135.5q0 -114 46 -175.5t130 -61.5z
M1188 1011l-11 45q52 20 94 58t59 87l8 -8q-47 0 -69.5 33.5t-14.5 74.5q9 42 38 63.5t73 21.5q51 0 77.5 -36.5t14.5 -97.5q-12 -54 -51 -100t-95.5 -82t-122.5 -59z" />
    <glyph glyph-name="Dcroat" unicode="&#x110;" horiz-adv-x="1477" 
d="M92 644l16 78h652l-17 -78h-651zM-55 0l13 65h151q12 0 26.5 7.5t19.5 26.5l241 1140q1 4 1.5 8t0.5 7q0 15 -9.5 21t-21.5 6h-151l14 65h584q193 0 328 -68.5t206.5 -194t71.5 -297.5q0 -113 -27 -226t-85.5 -213.5t-154 -178.5t-232.5 -123t-321 -45h-655zM353 76h218
q157 0 267.5 47.5t182 127t111.5 176.5t56 197.5t16 187.5q0 212 -103 335.5t-312 123.5h-183z" />
    <glyph glyph-name="dcroat" unicode="&#x111;" horiz-adv-x="1174" 
d="M679 1138l15 69h601l-14 -69h-602zM390 -17q-137 0 -222 89t-85 254q0 113 35 228t102.5 210.5t164.5 153.5t219 58q93 0 162.5 -45t99.5 -103l81 381q5 22 7.5 40.5t2.5 32.5q0 35 -14.5 52t-44.5 22l-79 14l12 53l355 23l-258 -1206q-3 -20 -5.5 -37.5t-2.5 -31.5
q0 -58 36 -84.5t121 -26.5l-12 -55q-36 -9 -70.5 -14t-82.5 -5q-93 0 -137.5 48.5t-47.5 128.5q-59 -77 -143.5 -128.5t-193.5 -51.5zM452 78q91 0 167 54t125 131l99 471q-20 58 -73.5 105t-133.5 47q-74 0 -132.5 -39.5t-101 -104t-71 -140.5t-42 -151.5t-13.5 -135.5
q0 -114 46 -175.5t130 -61.5z" />
    <glyph glyph-name="Emacron" unicode="&#x112;" horiz-adv-x="1187" 
d="M-56 0l14 65h150q13 0 27.5 7.5t19.5 28.5l242 1142q5 21 -6 29.5t-24 8.5h-151l14 65h1017l-60 -339h-91q8 64 -0.5 124t-34.5 99.5t-72 39.5h-382l-115 -541h524l-16 -76h-525l-122 -577h388q51 0 92.5 31t73.5 78t55.5 99.5t39.5 94.5h91l-100 -379h-1049zM544 1539
l20 98h550l-21 -98h-549z" />
    <glyph glyph-name="emacron" unicode="&#x113;" horiz-adv-x="1065" 
d="M503 -17q-138 0 -228.5 51t-135 142.5t-44.5 209.5q0 112 35 217t104.5 188.5t173.5 133t241 49.5q154 0 236 -58t82 -157q0 -68 -37.5 -128.5t-119.5 -106.5t-216 -72t-327 -26l19 35q-3 -15 -5 -39t-2 -50q0 -128 54.5 -216t183.5 -88q105 0 179.5 61.5t101.5 188.5
h134q-37 -160 -149.5 -247.5t-279.5 -87.5zM286 493l-17 7q257 0 390 76.5t133 192.5q0 61 -40 97.5t-118 36.5q-82 0 -151.5 -46t-120 -137t-76.5 -227zM391 1189l21 98h550l-21 -98h-550z" />
    <glyph glyph-name="Ebreve" unicode="&#x114;" horiz-adv-x="1187" 
d="M-56 0l14 65h150q13 0 27.5 7.5t19.5 28.5l242 1142q5 21 -6 29.5t-24 8.5h-151l14 65h1017l-60 -339h-91q8 64 -0.5 124t-34.5 99.5t-72 39.5h-382l-115 -541h524l-16 -76h-525l-122 -577h388q51 0 92.5 31t73.5 78t55.5 99.5t39.5 94.5h91l-100 -379h-1049zM803 1474
q-122 0 -187.5 67.5t-54.5 189.5h104q-4 -51 16 -82t55.5 -44.5t77.5 -13.5t84.5 14t77 45t52.5 81h102q-40 -120 -123 -188.5t-204 -68.5z" />
    <glyph glyph-name="ebreve" unicode="&#x115;" horiz-adv-x="1065" 
d="M503 -17q-138 0 -228.5 51t-135 142.5t-44.5 209.5q0 112 35 217t104.5 188.5t173.5 133t241 49.5q154 0 236 -58t82 -157q0 -68 -37.5 -128.5t-119.5 -106.5t-216 -72t-327 -26l19 35q-3 -15 -5 -39t-2 -50q0 -128 54.5 -216t183.5 -88q105 0 179.5 61.5t101.5 188.5
h134q-37 -160 -149.5 -247.5t-279.5 -87.5zM286 493l-17 7q257 0 390 76.5t133 192.5q0 61 -40 97.5t-118 36.5q-82 0 -151.5 -46t-120 -137t-76.5 -227zM663 1115q-120 0 -182.5 68.5t-55.5 189.5h104q-2 -52 17.5 -83t53 -44.5t74.5 -13.5q61 0 120.5 32.5t85.5 108.5h102
q-37 -119 -118.5 -188.5t-200.5 -69.5z" />
    <glyph glyph-name="Edotaccent" unicode="&#x116;" horiz-adv-x="1187" 
d="M-56 0l14 65h150q13 0 27.5 7.5t19.5 28.5l242 1142q5 21 -6 29.5t-24 8.5h-151l14 65h1017l-60 -339h-91q8 64 -0.5 124t-34.5 99.5t-72 39.5h-382l-115 -541h524l-16 -76h-525l-122 -577h388q51 0 92.5 31t73.5 78t55.5 99.5t39.5 94.5h91l-100 -379h-1049zM808 1505
q-53 0 -84 30.5t-31 74.5q0 43 31 74t84 31q51 0 82 -31t31 -74q0 -44 -31 -74.5t-82 -30.5z" />
    <glyph glyph-name="edotaccent" unicode="&#x117;" horiz-adv-x="1065" 
d="M503 -17q-138 0 -228.5 51t-135 142.5t-44.5 209.5q0 112 35 217t104.5 188.5t173.5 133t241 49.5q154 0 236 -58t82 -157q0 -68 -37.5 -128.5t-119.5 -106.5t-216 -72t-327 -26l19 35q-3 -15 -5 -39t-2 -50q0 -128 54.5 -216t183.5 -88q105 0 179.5 61.5t101.5 188.5
h134q-37 -160 -149.5 -247.5t-279.5 -87.5zM286 493l-17 7q257 0 390 76.5t133 192.5q0 61 -40 97.5t-118 36.5q-82 0 -151.5 -46t-120 -137t-76.5 -227zM675 1147q-53 0 -84 30t-31 75q0 43 31 73.5t84 30.5q51 0 81.5 -30.5t30.5 -73.5q0 -45 -30.5 -75t-81.5 -30z" />
    <glyph glyph-name="Eogonek" unicode="&#x118;" horiz-adv-x="1187" 
d="M-56 0l14 65h150q13 0 27.5 7.5t19.5 28.5l242 1142q5 21 -6 29.5t-24 8.5h-151l14 65h1017l-60 -339h-91q8 64 -0.5 124t-34.5 99.5t-72 39.5h-382l-115 -541h524l-16 -76h-525l-122 -577h388q51 0 92.5 31t73.5 78t55.5 99.5t39.5 94.5h91l-100 -379h-1049zM711 -381
q-79 0 -122.5 43t-26.5 118q16 79 101.5 148.5t209.5 99.5l34 -28q-91 -42 -140 -99.5t-61 -114.5q-10 -48 6 -73.5t61 -25.5q23 0 52.5 7t57.5 20l-13 -59q-31 -16 -71.5 -26t-87.5 -10z" />
    <glyph glyph-name="eogonek" unicode="&#x119;" horiz-adv-x="1065" 
d="M503 -17q-138 0 -228.5 51t-135 142.5t-44.5 209.5q0 112 35 217t104.5 188.5t173.5 133t241 49.5q154 0 236 -58t82 -157q0 -68 -37.5 -128.5t-119.5 -106.5t-216 -72t-327 -26l19 35q-3 -15 -5 -39t-2 -50q0 -128 54.5 -216t183.5 -88q105 0 179.5 61.5t101.5 188.5
h134q-37 -160 -149.5 -247.5t-279.5 -87.5zM286 493l-17 7q257 0 390 76.5t133 192.5q0 61 -40 97.5t-118 36.5q-82 0 -151.5 -46t-120 -137t-76.5 -227zM473 -373q-79 0 -122.5 43t-26.5 118q16 79 101.5 148.5t209.5 99.5l34 -28q-91 -42 -140 -99.5t-61 -114.5
q-10 -48 6 -73.5t61 -25.5q23 0 52.5 7t57.5 20l-13 -59q-31 -16 -71.5 -26t-87.5 -10z" />
    <glyph glyph-name="Ecaron" unicode="&#x11a;" horiz-adv-x="1187" 
d="M-56 0l14 65h150q13 0 27.5 7.5t19.5 28.5l242 1142q5 21 -6 29.5t-24 8.5h-151l14 65h1017l-60 -339h-91q8 64 -0.5 124t-34.5 99.5t-72 39.5h-382l-115 -541h524l-16 -76h-525l-122 -577h388q51 0 92.5 31t73.5 78t55.5 99.5t39.5 94.5h91l-100 -379h-1049zM700 1459
l-145 271h92l167 -171l242 171h93l-263 -271h-186z" />
    <glyph glyph-name="ecaron" unicode="&#x11b;" horiz-adv-x="1065" 
d="M503 -17q-138 0 -228.5 51t-135 142.5t-44.5 209.5q0 112 35 217t104.5 188.5t173.5 133t241 49.5q154 0 236 -58t82 -157q0 -68 -37.5 -128.5t-119.5 -106.5t-216 -72t-327 -26l19 35q-3 -15 -5 -39t-2 -50q0 -128 54.5 -216t183.5 -88q105 0 179.5 61.5t101.5 188.5
h134q-37 -160 -149.5 -247.5t-279.5 -87.5zM286 493l-17 7q257 0 390 76.5t133 192.5q0 61 -40 97.5t-118 36.5q-82 0 -151.5 -46t-120 -137t-76.5 -227zM554 1109l-146 271h93l167 -172l242 172h93l-264 -271h-185z" />
    <glyph glyph-name="Gcircumflex" unicode="&#x11c;" horiz-adv-x="1448" 
d="M695 -19q-178 0 -303 70.5t-190.5 198t-65.5 297.5q0 114 26.5 230.5t83 221.5t147.5 187.5t219.5 130.5t299.5 48q89 0 166 -17.5t136 -43t92 -50.5l20 92h81l-59 -402h-112q-10 152 -94 250.5t-240 98.5q-127 0 -220.5 -51t-157.5 -136t-103 -189t-56 -212t-17 -202
q0 -194 86.5 -316t271.5 -122q135 0 228 63t148.5 176t77.5 260h-341l17 76h546l-17 -78q-37 -171 -118 -302t-216 -205t-336 -74zM638 1458l260 271h185l149 -271h-95l-162 172l-233 -172h-104z" />
    <glyph glyph-name="gcircumflex" unicode="&#x11d;" horiz-adv-x="1006" 
d="M365 -377q-149 0 -239.5 32.5t-131 84.5t-40.5 110q0 60 31 102.5t82 71.5t112 47t120 27l33 87l148 -1q201 -1 299.5 -62.5t98.5 -178.5q0 -90 -43.5 -151t-116.5 -98.5t-165 -54t-188 -16.5zM381 -309q84 0 154.5 23.5t112.5 70.5t42 119q0 67 -58 103t-201 38l-139 2
q-74 -19 -123 -71t-49 -121q0 -67 61.5 -115.5t199.5 -48.5zM289 64q-124 13 -177.5 60.5t-53.5 98.5q0 60 58 103t167 74l24 -39q-38 -9 -71.5 -35t-35.5 -62q-1 -31 44.5 -55t160.5 -25zM474 317q-170 0 -257.5 83t-87.5 207q0 107 54.5 191t152.5 133.5t226 49.5
q170 0 256.5 -79.5t86.5 -205.5q0 -109 -53 -194.5t-150.5 -135t-227.5 -49.5zM481 382q63 0 109.5 30t77.5 79.5t47 109.5t16 121q0 100 -48 147.5t-124 47.5q-63 0 -110 -29.5t-79 -78t-48 -107t-16 -116.5q0 -104 52 -154t123 -50zM782 889l-26 47q57 96 132.5 132
t194.5 36l-26 -153q-59 3 -107.5 -1.5t-89.5 -19t-78 -41.5zM291 1113l260 271h185l149 -271h-95l-162 172l-233 -172h-104z" />
    <glyph glyph-name="Gbreve" unicode="&#x11e;" horiz-adv-x="1448" 
d="M695 -19q-178 0 -303 70.5t-190.5 198t-65.5 297.5q0 114 26.5 230.5t83 221.5t147.5 187.5t219.5 130.5t299.5 48q89 0 166 -17.5t136 -43t92 -50.5l20 92h81l-59 -402h-112q-10 152 -94 250.5t-240 98.5q-127 0 -220.5 -51t-157.5 -136t-103 -189t-56 -212t-17 -202
q0 -194 86.5 -316t271.5 -122q135 0 228 63t148.5 176t77.5 260h-341l17 76h546l-17 -78q-37 -171 -118 -302t-216 -205t-336 -74zM937 1474q-122 0 -187.5 67.5t-54.5 189.5h104q-4 -51 16 -82t55.5 -44.5t77.5 -13.5t84.5 14t77 45t52.5 81h102q-40 -120 -123 -188.5
t-204 -68.5z" />
    <glyph glyph-name="gbreve" unicode="&#x11f;" horiz-adv-x="1006" 
d="M365 -377q-149 0 -239.5 32.5t-131 84.5t-40.5 110q0 60 31 102.5t82 71.5t112 47t120 27l33 87l148 -1q201 -1 299.5 -62.5t98.5 -178.5q0 -90 -43.5 -151t-116.5 -98.5t-165 -54t-188 -16.5zM381 -309q84 0 154.5 23.5t112.5 70.5t42 119q0 67 -58 103t-201 38l-139 2
q-74 -19 -123 -71t-49 -121q0 -67 61.5 -115.5t199.5 -48.5zM289 64q-124 13 -177.5 60.5t-53.5 98.5q0 60 58 103t167 74l24 -39q-38 -9 -71.5 -35t-35.5 -62q-1 -31 44.5 -55t160.5 -25zM474 317q-170 0 -257.5 83t-87.5 207q0 107 54.5 191t152.5 133.5t226 49.5
q170 0 256.5 -79.5t86.5 -205.5q0 -109 -53 -194.5t-150.5 -135t-227.5 -49.5zM481 382q63 0 109.5 30t77.5 79.5t47 109.5t16 121q0 100 -48 147.5t-124 47.5q-63 0 -110 -29.5t-79 -78t-48 -107t-16 -116.5q0 -104 52 -154t123 -50zM782 889l-26 47q57 96 132.5 132
t194.5 36l-26 -153q-59 3 -107.5 -1.5t-89.5 -19t-78 -41.5zM609 1119q-120 0 -182.5 68.5t-55.5 189.5h104q-2 -52 17.5 -83t53 -44.5t74.5 -13.5q61 0 120.5 32.5t85.5 108.5h102q-37 -119 -118.5 -188.5t-200.5 -69.5z" />
    <glyph glyph-name="Gdotaccent" unicode="&#x120;" horiz-adv-x="1448" 
d="M695 -19q-178 0 -303 70.5t-190.5 198t-65.5 297.5q0 114 26.5 230.5t83 221.5t147.5 187.5t219.5 130.5t299.5 48q89 0 166 -17.5t136 -43t92 -50.5l20 92h81l-59 -402h-112q-10 152 -94 250.5t-240 98.5q-127 0 -220.5 -51t-157.5 -136t-103 -189t-56 -212t-17 -202
q0 -194 86.5 -316t271.5 -122q135 0 228 63t148.5 176t77.5 260h-341l17 76h546l-17 -78q-37 -171 -118 -302t-216 -205t-336 -74zM941 1505q-53 0 -84 30.5t-31 74.5q0 43 31 74t84 31q51 0 82 -31t31 -74q0 -44 -31 -74.5t-82 -30.5z" />
    <glyph glyph-name="gdotaccent" unicode="&#x121;" horiz-adv-x="1006" 
d="M365 -377q-149 0 -239.5 32.5t-131 84.5t-40.5 110q0 60 31 102.5t82 71.5t112 47t120 27l33 87l148 -1q201 -1 299.5 -62.5t98.5 -178.5q0 -90 -43.5 -151t-116.5 -98.5t-165 -54t-188 -16.5zM381 -309q84 0 154.5 23.5t112.5 70.5t42 119q0 67 -58 103t-201 38l-139 2
q-74 -19 -123 -71t-49 -121q0 -67 61.5 -115.5t199.5 -48.5zM289 64q-124 13 -177.5 60.5t-53.5 98.5q0 60 58 103t167 74l24 -39q-38 -9 -71.5 -35t-35.5 -62q-1 -31 44.5 -55t160.5 -25zM474 317q-170 0 -257.5 83t-87.5 207q0 107 54.5 191t152.5 133.5t226 49.5
q170 0 256.5 -79.5t86.5 -205.5q0 -109 -53 -194.5t-150.5 -135t-227.5 -49.5zM481 382q63 0 109.5 30t77.5 79.5t47 109.5t16 121q0 100 -48 147.5t-124 47.5q-63 0 -110 -29.5t-79 -78t-48 -107t-16 -116.5q0 -104 52 -154t123 -50zM782 889l-26 47q57 96 132.5 132
t194.5 36l-26 -153q-59 3 -107.5 -1.5t-89.5 -19t-78 -41.5zM618 1151q-53 0 -84 30t-31 75q0 43 31 73.5t84 30.5q51 0 81.5 -30.5t30.5 -73.5q0 -45 -30.5 -75t-81.5 -30z" />
    <glyph glyph-name="uni0122" unicode="&#x122;" horiz-adv-x="1448" 
d="M695 -19q-178 0 -303 70.5t-190.5 198t-65.5 297.5q0 114 26.5 230.5t83 221.5t147.5 187.5t219.5 130.5t299.5 48q89 0 166 -17.5t136 -43t92 -50.5l20 92h81l-59 -402h-112q-10 152 -94 250.5t-240 98.5q-127 0 -220.5 -51t-157.5 -136t-103 -189t-56 -212t-17 -202
q0 -194 86.5 -316t271.5 -122q135 0 228 63t148.5 176t77.5 260h-341l17 76h546l-17 -78q-37 -171 -118 -302t-216 -205t-336 -74zM514 -400l-13 45q46 15 79 43t51 65q-40 4 -60.5 32t-12.5 67q7 37 35 58t76 21t76.5 -33t15.5 -97q-17 -79 -88.5 -131.5t-158.5 -69.5z" />
    <glyph glyph-name="uni0123" unicode="&#x123;" horiz-adv-x="1006" 
d="M365 -377q-149 0 -239.5 32.5t-131 84.5t-40.5 110q0 60 31 102.5t82 71.5t112 47t120 27l33 87l148 -1q201 -1 299.5 -62.5t98.5 -178.5q0 -90 -43.5 -151t-116.5 -98.5t-165 -54t-188 -16.5zM381 -309q84 0 154.5 23.5t112.5 70.5t42 119q0 67 -58 103t-201 38l-139 2
q-74 -19 -123 -71t-49 -121q0 -67 61.5 -115.5t199.5 -48.5zM289 64q-124 13 -177.5 60.5t-53.5 98.5q0 60 58 103t167 74l24 -39q-38 -9 -71.5 -35t-35.5 -62q-1 -31 44.5 -55t160.5 -25zM474 317q-170 0 -257.5 83t-87.5 207q0 107 54.5 191t152.5 133.5t226 49.5
q170 0 256.5 -79.5t86.5 -205.5q0 -109 -53 -194.5t-150.5 -135t-227.5 -49.5zM481 382q63 0 109.5 30t77.5 79.5t47 109.5t16 121q0 100 -48 147.5t-124 47.5q-63 0 -110 -29.5t-79 -78t-48 -107t-16 -116.5q0 -104 52 -154t123 -50zM782 889l-26 47q57 96 132.5 132
t194.5 36l-26 -153q-59 3 -107.5 -1.5t-89.5 -19t-78 -41.5zM593 1122q-47 0 -78.5 35.5t-18.5 101.5q12 51 50.5 91t93 68t111.5 39l15 -50q-38 -15 -74.5 -38.5t-57.5 -62.5q42 -6 62 -34t12 -67q-7 -37 -36.5 -60t-78.5 -23z" />
    <glyph glyph-name="Hcircumflex" unicode="&#x124;" horiz-adv-x="1558" 
d="M-56 0l14 65h150q13 0 27.5 7.5t19.5 28.5l242 1142q5 21 -6 29.5t-24 8.5h-151l14 65h592l-14 -65h-160q-13 0 -27.5 -7.5t-19.5 -28.5l-105 -497h678l105 495q5 21 -6 29.5t-24 8.5h-161l14 65h592l-14 -65h-150q-13 0 -27.5 -7.5t-19.5 -28.5l-242 -1142
q-4 -21 6.5 -29.5t23.5 -8.5h151l-14 -65h-592l14 65h160q13 0 27.5 8t19.5 28l121 572h-678l-121 -570q-4 -21 6.5 -29.5t23.5 -8.5h160l-13 -65h-592zM689 1458l260 271h185l149 -271h-95l-162 172l-233 -172h-104z" />
    <glyph glyph-name="hcircumflex" unicode="&#x125;" horiz-adv-x="1164" 
d="M889 -18q-51 0 -89.5 15t-60 49.5t-21.5 92.5q0 21 3 44.5t9 49.5l85 409q5 21 7 38.5t2 33.5q0 58 -28.5 98t-94.5 40q-57 0 -111.5 -34t-102 -89t-87.5 -118l-131 -611l-187 -1l260 1209q5 24 7.5 43t2.5 34q0 34 -14 50.5t-44 21.5l-79 13l12 53l348 24l-153 -730
q41 62 96 119.5t124 95t154 37.5q111 0 165 -58.5t54 -166.5q0 -29 -4 -62t-12 -68l-84 -389q-3 -17 -5 -32t-2 -28q0 -56 36.5 -82.5t122.5 -26.5l-12 -55q-36 -9 -77.5 -14t-88.5 -5zM483 1580l260 271h185l149 -271h-95l-162 172l-233 -172h-104z" />
    <glyph glyph-name="Hbar" unicode="&#x126;" horiz-adv-x="1558" 
d="M165 979l17 77h1432l-17 -77h-1432zM-56 0l14 65h150q13 0 27.5 7.5t19.5 28.5l242 1142q5 21 -6 29.5t-24 8.5h-151l14 65h592l-14 -65h-160q-13 0 -27.5 -7.5t-19.5 -28.5l-105 -497h678l105 495q5 21 -6 29.5t-24 8.5h-161l14 65h592l-14 -65h-150q-13 0 -27.5 -7.5
t-19.5 -28.5l-242 -1142q-4 -21 6.5 -29.5t23.5 -8.5h151l-14 -65h-592l14 65h160q13 0 27.5 8t19.5 28l121 572h-678l-121 -570q-4 -21 6.5 -29.5t23.5 -8.5h160l-13 -65h-592z" />
    <glyph glyph-name="hbar" unicode="&#x127;" horiz-adv-x="1164" 
d="M186 1138l15 69h602l-15 -69h-602zM889 -18q-51 0 -89.5 15t-60 49.5t-21.5 92.5q0 21 3 44.5t9 49.5l85 409q5 21 7 38.5t2 33.5q0 58 -28.5 98t-94.5 40q-57 0 -111.5 -34t-102 -89t-87.5 -118l-131 -611l-187 -1l260 1209q5 24 7.5 43t2.5 34q0 34 -14 50.5t-44 21.5
l-79 13l12 53l348 24l-153 -730q41 62 96 119.5t124 95t154 37.5q111 0 165 -58.5t54 -166.5q0 -29 -4 -62t-12 -68l-84 -389q-3 -17 -5 -32t-2 -28q0 -56 36.5 -82.5t122.5 -26.5l-12 -55q-36 -9 -77.5 -14t-88.5 -5z" />
    <glyph glyph-name="Itilde" unicode="&#x128;" horiz-adv-x="677" 
d="M-56 0l14 65h150q13 0 27.5 7.5t19.5 28.5l242 1142q5 21 -6 29.5t-24 8.5h-151l14 65h582l-14 -65h-150q-13 0 -27.5 -7.5t-19.5 -28.5l-242 -1142q-4 -21 6.5 -29.5t23.5 -8.5h151l-14 -65h-582zM260 1480q24 109 76.5 159t118.5 50q45 0 80.5 -14t67.5 -30
q32 -15 56.5 -25.5t50.5 -10.5q30 0 51 20t34 63h83q-28 -105 -73 -153t-111 -48q-45 0 -77.5 12t-69.5 29q-32 17 -58 27t-53 10q-32 0 -56 -21t-39 -68h-81z" />
    <glyph glyph-name="itilde" unicode="&#x129;" horiz-adv-x="586" 
d="M296 -8q-75 0 -122 38.5t-47 128.5q0 24 3.5 52.5t11.5 60.5l103 453q5 22 8 41t3 34q0 35 -14.5 52t-44.5 22l-80 13l12 53l356 24l-159 -705q-5 -24 -8 -44.5t-3 -38.5q0 -61 36.5 -86t116.5 -25l-11 -55q-38 -8 -77 -13t-84 -5zM93 1130q24 109 76 158.5t119 49.5
q45 0 80.5 -14t67.5 -30q32 -15 56.5 -25t49.5 -10q31 0 52 20t34 63h83q-28 -105 -73 -153t-111 -48q-45 0 -77.5 12t-69.5 29q-33 16 -58.5 26.5t-52.5 10.5q-32 0 -56 -21t-39 -68h-81z" />
    <glyph glyph-name="Imacron" unicode="&#x12a;" horiz-adv-x="677" 
d="M-56 0l14 65h150q13 0 27.5 7.5t19.5 28.5l242 1142q5 21 -6 29.5t-24 8.5h-151l14 65h582l-14 -65h-150q-13 0 -27.5 -7.5t-19.5 -28.5l-242 -1142q-4 -21 6.5 -29.5t23.5 -8.5h151l-14 -65h-582zM287 1539l20 98h550l-21 -98h-549z" />
    <glyph glyph-name="imacron" unicode="&#x12b;" horiz-adv-x="586" 
d="M296 -8q-75 0 -122 38.5t-47 128.5q0 24 3.5 52.5t11.5 60.5l103 453q5 22 8 41t3 34q0 35 -14.5 52t-44.5 22l-80 13l12 53l356 24l-159 -705q-5 -24 -8 -44.5t-3 -38.5q0 -61 36.5 -86t116.5 -25l-11 -55q-38 -8 -77 -13t-84 -5zM144 1189l21 98h550l-21 -98h-550z" />
    <glyph glyph-name="Ibreve" unicode="&#x12c;" horiz-adv-x="677" 
d="M-56 0l14 65h150q13 0 27.5 7.5t19.5 28.5l242 1142q5 21 -6 29.5t-24 8.5h-151l14 65h582l-14 -65h-150q-13 0 -27.5 -7.5t-19.5 -28.5l-242 -1142q-4 -21 6.5 -29.5t23.5 -8.5h151l-14 -65h-582zM546 1474q-122 0 -187.5 67.5t-54.5 189.5h104q-4 -51 16 -82
t55.5 -44.5t77.5 -13.5t84.5 14t77 45t52.5 81h102q-40 -120 -123 -188.5t-204 -68.5z" />
    <glyph glyph-name="ibreve" unicode="&#x12d;" horiz-adv-x="586" 
d="M296 -8q-75 0 -122 38.5t-47 128.5q0 24 3.5 52.5t11.5 60.5l103 453q5 22 8 41t3 34q0 35 -14.5 52t-44.5 22l-80 13l12 53l356 24l-159 -705q-5 -24 -8 -44.5t-3 -38.5q0 -61 36.5 -86t116.5 -25l-11 -55q-38 -8 -77 -13t-84 -5zM416 1115q-120 0 -182.5 68.5
t-55.5 189.5h104q-2 -52 17.5 -83t53 -44.5t74.5 -13.5q61 0 120.5 32.5t85.5 108.5h102q-37 -119 -118.5 -188.5t-200.5 -69.5z" />
    <glyph glyph-name="Iogonek" unicode="&#x12e;" horiz-adv-x="677" 
d="M-56 0l14 65h150q13 0 27.5 7.5t19.5 28.5l242 1142q5 21 -6 29.5t-24 8.5h-151l14 65h582l-14 -65h-150q-13 0 -27.5 -7.5t-19.5 -28.5l-242 -1142q-4 -21 6.5 -29.5t23.5 -8.5h151l-14 -65h-582zM162 -378q-79 0 -122.5 43t-26.5 118q16 79 101.5 148.5t209.5 99.5
l34 -28q-91 -42 -140 -99.5t-61 -114.5q-10 -48 6 -73.5t61 -25.5q23 0 52.5 7t57.5 20l-13 -59q-31 -16 -71.5 -26t-87.5 -10z" />
    <glyph glyph-name="iogonek" unicode="&#x12f;" horiz-adv-x="586" 
d="M296 -8q-75 0 -122 38.5t-47 128.5q0 24 3.5 52.5t11.5 60.5l103 453q5 22 8 41t3 34q0 35 -14.5 52t-44.5 22l-80 13l12 53l356 24l-159 -705q-5 -24 -8 -44.5t-3 -38.5q0 -61 36.5 -86t116.5 -25l-11 -55q-38 -8 -77 -13t-84 -5zM428 1147q-53 0 -84 30t-31 75
q0 43 31 73.5t84 30.5q51 0 81.5 -30.5t30.5 -73.5q0 -45 -30.5 -75t-81.5 -30zM217 -373q-79 0 -122.5 43t-26.5 118q16 79 101.5 148.5t209.5 99.5l34 -28q-91 -42 -140 -99.5t-61 -114.5q-10 -48 6 -73.5t61 -25.5q23 0 52.5 7t57.5 20l-13 -59q-31 -16 -71.5 -26
t-87.5 -10z" />
    <glyph glyph-name="Idotaccent" unicode="&#x130;" horiz-adv-x="677" 
d="M-56 0l14 65h150q13 0 27.5 7.5t19.5 28.5l242 1142q5 21 -6 29.5t-24 8.5h-151l14 65h582l-14 -65h-150q-13 0 -27.5 -7.5t-19.5 -28.5l-242 -1142q-4 -21 6.5 -29.5t23.5 -8.5h151l-14 -65h-582zM551 1505q-53 0 -84 30.5t-31 74.5q0 43 31 74t84 31q51 0 82 -31
t31 -74q0 -44 -31 -74.5t-82 -30.5z" />
    <glyph glyph-name="dotlessi" unicode="&#x131;" horiz-adv-x="586" 
d="M296 -8q-75 0 -122 38.5t-47 128.5q0 24 3.5 52.5t11.5 60.5l103 453q5 22 8 41t3 34q0 35 -14.5 52t-44.5 22l-80 13l12 53l356 24l-159 -705q-5 -24 -8 -44.5t-3 -38.5q0 -61 36.5 -86t116.5 -25l-11 -55q-38 -8 -77 -13t-84 -5z" />
    <glyph glyph-name="IJ" unicode="&#x132;" horiz-adv-x="1641" 
d="M-56 0l14 65h150q13 0 27.5 7.5t19.5 28.5l242 1142q5 21 -6 29.5t-24 8.5h-151l14 65h582l-14 -65h-150q-13 0 -27.5 -7.5t-19.5 -28.5l-242 -1142q-4 -21 6.5 -29.5t23.5 -8.5h151l-14 -65h-582zM977 -18q-173 0 -245 77.5t-51 215.5h186q-17 -102 13.5 -161t101.5 -59
q63 0 101 36t61.5 100.5t41.5 150.5l191 901q5 21 -6 29.5t-25 8.5h-150l14 65h582l-14 -65h-150q-14 0 -28.5 -7.5t-18.5 -28.5l-193 -910q-21 -99 -68.5 -179t-131 -127t-211.5 -47z" />
    <glyph glyph-name="ij" unicode="&#x133;" horiz-adv-x="1148" 
d="M296 -8q-75 0 -122 38.5t-47 128.5q0 24 3.5 52.5t11.5 60.5l103 453q5 22 8 41t3 34q0 35 -14.5 52t-44.5 22l-80 13l12 53l356 24l-159 -705q-5 -24 -8 -44.5t-3 -38.5q0 -61 36.5 -86t116.5 -25l-11 -55q-38 -8 -77 -13t-84 -5zM432 1149q-55 0 -88 32.5t-33 78.5
t33 78.5t88 32.5q56 0 88 -32.5t32 -78.5t-32 -78.5t-88 -32.5zM389 -359l12 58q77 0 130 29t87.5 92.5t58.5 169.5l165 735q17 76 5.5 108.5t-54.5 40.5l-79 13l12 53l356 24l-215 -982q-30 -137 -83.5 -211t-135 -102t-197.5 -28h-62zM1029 1149q-55 0 -88 32.5t-33 78.5
t33 78.5t88 32.5t87 -32.5t32 -78.5t-32 -78.5t-87 -32.5z" />
    <glyph glyph-name="Jcircumflex" unicode="&#x134;" horiz-adv-x="965" 
d="M300 -18q-173 0 -245 77.5t-51 215.5h186q-17 -102 13.5 -161t101.5 -59q63 0 101 36t61.5 100.5t41.5 150.5l191 901q5 21 -6 29.5t-25 8.5h-150l14 65h582l-14 -65h-150q-14 0 -28.5 -7.5t-18.5 -28.5l-193 -910q-21 -99 -68.5 -179t-131 -127t-211.5 -47zM529 1451
l260 271h185l149 -271h-95l-162 172l-233 -172h-104z" />
    <glyph glyph-name="jcircumflex" unicode="&#x135;" horiz-adv-x="562" 
d="M-197 -359l12 58q77 0 130 29t87.5 92.5t58.5 169.5l165 735q17 76 5.5 108.5t-54.5 40.5l-79 13l12 53l356 24l-215 -982q-30 -137 -83.5 -211t-135 -102t-197.5 -28h-62zM80 1109l260 271h185l149 -271h-95l-162 172l-233 -172h-104z" />
    <glyph glyph-name="uni0136" unicode="&#x136;" horiz-adv-x="1286" 
d="M-56 0l14 65h150q14 0 28.5 9t18.5 30l242 1138q5 21 -5.5 30t-24.5 9h-151l14 65h592l-14 -65h-160q-14 0 -28 -9t-19 -30l-117 -552l555 481q22 20 41.5 41.5t22.5 38.5q4 18 -6 24t-26 6h-116l14 65h445l-14 -65h-43q-50 0 -87 -19t-70 -47l-541 -470l370 -615
q22 -36 45 -50.5t63 -14.5h61l-14 -65h-308l-394 681l-123 -577q-4 -21 6.5 -30t23.5 -9h160l-13 -65h-592zM452 -400l-13 45q46 15 79 43t51 65q-40 4 -60.5 32t-12.5 67q7 37 35 58t76 21t76.5 -33t15.5 -97q-17 -79 -88.5 -131.5t-158.5 -69.5z" />
    <glyph glyph-name="uni0137" unicode="&#x137;" horiz-adv-x="1045" 
d="M84 0l257 1210q17 76 6.5 108.5t-53.5 39.5l-79 14l12 52l355 24l-308 -1448h-190zM686 0l-302 505v5l317 286q89 79 160 120.5t158 41.5h32l-31 -138h-58q-61 0 -119 -18.5t-129 -82.5l-164 -146l241 -401q39 -62 73 -88t73 -26h23l-13 -58h-261zM290 -400l-13 45
q46 15 79 43t51 65q-40 4 -60.5 32t-12.5 67q7 37 35 58t76 21t76.5 -33t15.5 -97q-17 -79 -88.5 -131.5t-158.5 -69.5z" />
    <glyph glyph-name="kgreenlandic" unicode="&#x138;" horiz-adv-x="1055" 
d="M696 0l-302 505v5l317 286q89 79 160 120.5t159 41.5h31l-30 -138h-58q-62 0 -120 -18.5t-129 -82.5l-164 -146l242 -401q38 -62 72 -88t74 -26h23l-13 -58h-262zM98 0l157 725q17 76 6.5 108.5t-53.5 40.5l-80 13l12 53l348 24l-201 -964h-189z" />
    <glyph glyph-name="Lacute" unicode="&#x139;" horiz-adv-x="1162" 
d="M-56 0l14 65h150q14 0 28.5 9t18.5 30l242 1138q5 21 -5.5 30t-24.5 9h-151l14 65h592l-14 -65h-160q-14 0 -28 -9t-19 -30l-248 -1166h388q51 0 92.5 31t73.5 78.5t56 99.5t39 94h91l-100 -379h-1049zM493 1459l236 271h220l-357 -271h-99z" />
    <glyph glyph-name="lacute" unicode="&#x13a;" horiz-adv-x="585" 
d="M295 -8q-75 0 -121 39.5t-46 129.5q0 24 3 51.5t10 59.5l202 937q5 22 7.5 41t2.5 34q0 35 -14.5 52t-44.5 22l-79 14l12 52l356 24l-258 -1189q-5 -23 -7.5 -43.5t-2.5 -37.5q0 -62 36 -87.5t117 -25.5l-12 -55q-37 -8 -76 -13t-85 -5zM415 1580l236 271h220l-357 -271
h-99z" />
    <glyph glyph-name="uni013B" unicode="&#x13b;" horiz-adv-x="1162" 
d="M-56 0l14 65h150q14 0 28.5 9t18.5 30l242 1138q5 21 -5.5 30t-24.5 9h-151l14 65h592l-14 -65h-160q-14 0 -28 -9t-19 -30l-248 -1166h388q51 0 92.5 31t73.5 78.5t56 99.5t39 94h91l-100 -379h-1049zM397 -400l-13 45q46 15 79 43t51 65q-40 4 -60.5 32t-12.5 67
q7 37 35 58t76 21t76.5 -33t15.5 -97q-17 -79 -88.5 -131.5t-158.5 -69.5z" />
    <glyph glyph-name="uni013C" unicode="&#x13c;" horiz-adv-x="585" 
d="M295 -8q-75 0 -121 39.5t-46 129.5q0 24 3 51.5t10 59.5l202 937q5 22 7.5 41t2.5 34q0 35 -14.5 52t-44.5 22l-79 14l12 52l356 24l-258 -1189q-5 -23 -7.5 -43.5t-2.5 -37.5q0 -62 36 -87.5t117 -25.5l-12 -55q-37 -8 -76 -13t-85 -5zM64 -400l-13 45q46 15 79 43
t51 65q-40 4 -60.5 32t-12.5 67q7 37 35 58t76 21t76.5 -33t15.5 -97q-17 -79 -88.5 -131.5t-158.5 -69.5z" />
    <glyph glyph-name="Lcaron" unicode="&#x13d;" horiz-adv-x="1162" 
d="M-56 0l14 65h150q14 0 28.5 9t18.5 30l242 1138q5 21 -5.5 30t-24.5 9h-151l14 65h592l-14 -65h-160q-14 0 -28 -9t-19 -30l-248 -1166h388q51 0 92.5 31t73.5 78.5t56 99.5t39 94h91l-100 -379h-1049zM907 981l-11 45q52 20 94 58t59 87l8 -8q-47 0 -69.5 33.5
t-14.5 74.5q9 42 38 63.5t73 21.5q51 0 77.5 -36.5t14.5 -97.5q-12 -54 -51 -100t-95.5 -82t-122.5 -59z" />
    <glyph glyph-name="lcaron" unicode="&#x13e;" horiz-adv-x="585" 
d="M295 -8q-75 0 -121 39.5t-46 129.5q0 24 3 51.5t10 59.5l202 937q5 22 7.5 41t2.5 34q0 35 -14.5 52t-44.5 22l-79 14l12 52l356 24l-258 -1189q-5 -23 -7.5 -43.5t-2.5 -37.5q0 -62 36 -87.5t117 -25.5l-12 -55q-37 -8 -76 -13t-85 -5zM540 981l-11 45q52 20 94 58
t59 87l8 -8q-47 0 -69.5 33.5t-14.5 74.5q9 42 38 63.5t73 21.5q51 0 77.5 -36.5t14.5 -97.5q-12 -54 -51 -100t-95.5 -82t-122.5 -59z" />
    <glyph glyph-name="Ldot" unicode="&#x13f;" horiz-adv-x="1162" 
d="M-56 0l14 65h150q14 0 28.5 9t18.5 30l242 1138q5 21 -5.5 30t-24.5 9h-151l14 65h592l-14 -65h-160q-14 0 -28 -9t-19 -30l-248 -1166h388q51 0 92.5 31t73.5 78.5t56 99.5t39 94h91l-100 -379h-1049zM947 621q-59 0 -98 39t-39 96q0 58 39 95.5t98 37.5t98 -37.5
t39 -95.5q0 -57 -39 -96t-98 -39z" />
    <glyph glyph-name="ldot" unicode="&#x140;" horiz-adv-x="645" 
d="M295 -8q-75 0 -121 39.5t-46 129.5q0 24 3 51.5t10 59.5l202 937q5 22 7.5 41t2.5 34q0 35 -14.5 52t-44.5 22l-79 14l12 52l356 24l-258 -1189q-5 -23 -7.5 -43.5t-2.5 -37.5q0 -62 36 -87.5t117 -25.5l-12 -55q-37 -8 -76 -13t-85 -5zM646 576q-59 0 -98 39t-39 96
q0 58 39 95.5t98 37.5t98 -37.5t39 -95.5q0 -57 -39 -96t-98 -39z" />
    <glyph glyph-name="Lslash" unicode="&#x141;" horiz-adv-x="1162" 
d="M47 437l18 86l722 376l-18 -85zM-56 0l14 65h150q14 0 28.5 9t18.5 30l242 1138q5 21 -5.5 30t-24.5 9h-151l14 65h592l-14 -65h-160q-14 0 -28 -9t-19 -30l-248 -1166h388q51 0 92.5 31t73.5 78.5t56 99.5t39 94h91l-100 -379h-1049z" />
    <glyph glyph-name="lslash" unicode="&#x142;" horiz-adv-x="585" 
d="M329 719l18 87l300 195l-18 -86zM60 560l17 86l274 178l-18 -85zM295 -8q-75 0 -121 39.5t-46 129.5q0 24 3 51.5t10 59.5l202 937q5 22 7.5 41t2.5 34q0 35 -14.5 52t-44.5 22l-79 14l12 52l356 24l-258 -1189q-5 -23 -7.5 -43.5t-2.5 -37.5q0 -62 36 -87.5t117 -25.5
l-12 -55q-37 -8 -76 -13t-85 -5z" />
    <glyph glyph-name="Nacute" unicode="&#x143;" horiz-adv-x="1552" 
d="M-56 0l14 65h150q14 0 28.5 9t18.5 30l242 1138q5 21 -5.5 30t-24.5 9h-151l14 65h371l580 -1085l208 981q5 21 -5.5 30t-24.5 9h-160l14 65h475l-14 -65h-150q-14 0 -28 -9t-19 -30l-264 -1242h-105l-642 1185l-229 -1081q-5 -21 5.5 -30t24.5 -9h160l-14 -65h-469z
M859 1459l236 271h220l-357 -271h-99z" />
    <glyph glyph-name="nacute" unicode="&#x144;" horiz-adv-x="1179" 
d="M907 -18q-51 0 -89.5 15t-59.5 49.5t-21 92.5q0 21 3 47t9 51l84 405q4 21 6.5 38.5t2.5 34.5q0 58 -28.5 97.5t-93.5 39.5q-59 0 -113 -34t-101.5 -89t-86.5 -118l-132 -611h-189l157 725q5 24 7.5 43t2.5 34q0 34 -14 50.5t-43 21.5l-80 13l12 53l339 24l-41 -247
q42 62 96.5 120t124.5 95t155 37q111 0 165.5 -58t54.5 -166q0 -29 -4 -62t-12 -68l-85 -390q-3 -17 -5 -32t-2 -29q0 -55 36 -81.5t120 -26.5l-12 -55q-35 -9 -75.5 -14t-87.5 -5zM623 1109l236 271h220l-357 -271h-99z" />
    <glyph glyph-name="uni0145" unicode="&#x145;" horiz-adv-x="1552" 
d="M-56 0l14 65h150q14 0 28.5 9t18.5 30l242 1138q5 21 -5.5 30t-24.5 9h-151l14 65h371l580 -1085l208 981q5 21 -5.5 30t-24.5 9h-160l14 65h475l-14 -65h-150q-14 0 -28 -9t-19 -30l-264 -1242h-105l-642 1185l-229 -1081q-5 -21 5.5 -30t24.5 -9h160l-14 -65h-469z
M524 -400l-13 45q46 15 79 43t51 65q-40 4 -60.5 32t-12.5 67q7 37 35 58t76 21t76.5 -33t15.5 -97q-17 -79 -88.5 -131.5t-158.5 -69.5z" />
    <glyph glyph-name="uni0146" unicode="&#x146;" horiz-adv-x="1179" 
d="M907 -18q-51 0 -89.5 15t-59.5 49.5t-21 92.5q0 21 3 47t9 51l84 405q4 21 6.5 38.5t2.5 34.5q0 58 -28.5 97.5t-93.5 39.5q-59 0 -113 -34t-101.5 -89t-86.5 -118l-132 -611h-189l157 725q5 24 7.5 43t2.5 34q0 34 -14 50.5t-43 21.5l-80 13l12 53l339 24l-41 -247
q42 62 96.5 120t124.5 95t155 37q111 0 165.5 -58t54.5 -166q0 -29 -4 -62t-12 -68l-85 -390q-3 -17 -5 -32t-2 -29q0 -55 36 -81.5t120 -26.5l-12 -55q-35 -9 -75.5 -14t-87.5 -5zM365 -400l-13 45q46 15 79 43t51 65q-40 4 -60.5 32t-12.5 67q7 37 35 58t76 21t76.5 -33
t15.5 -97q-17 -79 -88.5 -131.5t-158.5 -69.5z" />
    <glyph glyph-name="Ncaron" unicode="&#x147;" horiz-adv-x="1552" 
d="M-56 0l14 65h150q14 0 28.5 9t18.5 30l242 1138q5 21 -5.5 30t-24.5 9h-151l14 65h371l580 -1085l208 981q5 21 -5.5 30t-24.5 9h-160l14 65h475l-14 -65h-150q-14 0 -28 -9t-19 -30l-264 -1242h-105l-642 1185l-229 -1081q-5 -21 5.5 -30t24.5 -9h160l-14 -65h-469z
M850 1459l-145 271h92l167 -171l242 171h93l-263 -271h-186z" />
    <glyph glyph-name="ncaron" unicode="&#x148;" horiz-adv-x="1179" 
d="M907 -18q-51 0 -89.5 15t-59.5 49.5t-21 92.5q0 21 3 47t9 51l84 405q4 21 6.5 38.5t2.5 34.5q0 58 -28.5 97.5t-93.5 39.5q-59 0 -113 -34t-101.5 -89t-86.5 -118l-132 -611h-189l157 725q5 24 7.5 43t2.5 34q0 34 -14 50.5t-43 21.5l-80 13l12 53l339 24l-41 -247
q42 62 96.5 120t124.5 95t155 37q111 0 165.5 -58t54.5 -166q0 -29 -4 -62t-12 -68l-85 -390q-3 -17 -5 -32t-2 -29q0 -55 36 -81.5t120 -26.5l-12 -55q-35 -9 -75.5 -14t-87.5 -5zM626 1109l-146 271h93l167 -172l242 172h93l-264 -271h-185z" />
    <glyph glyph-name="napostrophe" unicode="&#x149;" horiz-adv-x="1344" 
d="M1068 -18q-51 0 -89.5 15t-59.5 49.5t-21 92.5q0 21 3 47t9 51l84 405q4 21 6.5 38.5t2.5 34.5q0 58 -28.5 97.5t-93.5 39.5q-59 0 -113 -34t-101.5 -89t-86.5 -118l-132 -611h-189l157 725q5 24 7.5 43t2.5 34q0 34 -14 50.5t-43 21.5l-80 13l12 53l339 24l-41 -247
q42 62 96.5 120t124.5 95t155 37q111 0 165.5 -58t54.5 -166q0 -29 -4 -62t-12 -68l-85 -390q-3 -17 -5 -32t-2 -29q0 -55 36 -81.5t120 -26.5l-12 -55q-35 -9 -75.5 -14t-87.5 -5zM13 846l-21 57q73 26 132 78.5t87 125.5l7 -11q-69 4 -104 50.5t-21 112.5q12 50 47.5 78.5
t87.5 28.5q74 0 110.5 -55t14.5 -159q-17 -87 -69 -146t-123.5 -97.5t-147.5 -62.5z" />
    <glyph glyph-name="Eng" unicode="&#x14a;" horiz-adv-x="1552" 
d="M1213 0q-32 -152 -81.5 -229.5t-117.5 -104t-156 -26.5h-96l9 45q152 0 228 80.5t109 234.5h105zM-56 0l14 65h150q14 0 28.5 9t18.5 30l242 1138q5 21 -5.5 30t-24.5 9h-151l14 65h371l580 -1085l208 981q5 21 -5.5 30t-24.5 9h-160l14 65h475l-14 -65h-150
q-14 0 -28 -9t-19 -30l-264 -1242h-105l-642 1185l-229 -1081q-5 -21 5.5 -30t24.5 -9h160l-14 -65h-469z" />
    <glyph glyph-name="eng" unicode="&#x14b;" horiz-adv-x="1151" 
d="M404 -359l11 58q117 0 183 67t99 225l137 656q4 18 6 34.5t2 33.5q0 58 -28.5 97.5t-93.5 39.5q-59 0 -113 -34t-101.5 -89t-86.5 -118l-132 -611h-189l157 725q5 24 7.5 43t2.5 34q0 34 -14 50.5t-43 21.5l-80 13l12 53l339 24l-41 -247q42 62 96.5 120t124.5 95t155 37
q111 0 165 -58t54 -166q0 -29 -4 -63t-11 -67l-137 -633q-29 -137 -82.5 -211t-135.5 -102t-197 -28h-62z" />
    <glyph glyph-name="Omacron" unicode="&#x14c;" horiz-adv-x="1507" 
d="M694 -19q-177 0 -302 71t-191 198t-66 295q0 143 42 288.5t132.5 266t235 193.5t350.5 73q178 0 302 -71.5t189.5 -199t65.5 -295.5q0 -142 -41 -286t-130.5 -264.5t-234.5 -194.5t-352 -74zM705 54q114 0 201.5 52.5t150 139.5t102.5 193t58.5 215t18.5 204
q0 126 -37 224.5t-114.5 154.5t-197.5 56q-118 0 -206.5 -52t-151 -138.5t-101.5 -193t-57 -215t-18 -203.5q0 -125 37 -224t115 -156t200 -57zM658 1540l20 98h550l-21 -98h-549z" />
    <glyph glyph-name="omacron" unicode="&#x14d;" horiz-adv-x="1102" 
d="M475 -17q-181 0 -281 111t-100 288q0 98 29.5 202t93.5 193t166 144t247 55q181 0 279.5 -110.5t98.5 -288.5q0 -102 -30.5 -206.5t-95 -192.5t-165.5 -141.5t-242 -53.5zM483 53q76 0 133 41t96.5 106.5t63.5 142.5t35 151t11 130q0 121 -48.5 202t-151.5 81
q-76 0 -133 -39.5t-96.5 -103.5t-63.5 -139.5t-35.5 -148.5t-11.5 -129q0 -81 21.5 -148.5t66 -106.5t113.5 -39zM404 1172l21 98h550l-21 -98h-550z" />
    <glyph glyph-name="Obreve" unicode="&#x14e;" horiz-adv-x="1507" 
d="M694 -19q-177 0 -302 71t-191 198t-66 295q0 143 42 288.5t132.5 266t235 193.5t350.5 73q178 0 302 -71.5t189.5 -199t65.5 -295.5q0 -142 -41 -286t-130.5 -264.5t-234.5 -194.5t-352 -74zM705 54q114 0 201.5 52.5t150 139.5t102.5 193t58.5 215t18.5 204
q0 126 -37 224.5t-114.5 154.5t-197.5 56q-118 0 -206.5 -52t-151 -138.5t-101.5 -193t-57 -215t-18 -203.5q0 -125 37 -224t115 -156t200 -57zM917 1475q-122 0 -187.5 67.5t-54.5 189.5h104q-4 -51 16 -82t55.5 -44.5t77.5 -13.5t84.5 14t77 45t52.5 81h102
q-40 -120 -123 -188.5t-204 -68.5z" />
    <glyph glyph-name="obreve" unicode="&#x14f;" horiz-adv-x="1102" 
d="M475 -17q-181 0 -281 111t-100 288q0 98 29.5 202t93.5 193t166 144t247 55q181 0 279.5 -110.5t98.5 -288.5q0 -102 -30.5 -206.5t-95 -192.5t-165.5 -141.5t-242 -53.5zM483 53q76 0 133 41t96.5 106.5t63.5 142.5t35 151t11 130q0 121 -48.5 202t-151.5 81
q-76 0 -133 -39.5t-96.5 -103.5t-63.5 -139.5t-35.5 -148.5t-11.5 -129q0 -81 21.5 -148.5t66 -106.5t113.5 -39zM676 1098q-120 0 -182.5 68.5t-55.5 189.5h104q-2 -52 17.5 -83t53 -44.5t74.5 -13.5q61 0 120.5 32.5t85.5 108.5h102q-37 -119 -118.5 -188.5t-200.5 -69.5z
" />
    <glyph glyph-name="Ohungarumlaut" unicode="&#x150;" horiz-adv-x="1507" 
d="M694 -19q-177 0 -302 71t-191 198t-66 295q0 143 42 288.5t132.5 266t235 193.5t350.5 73q178 0 302 -71.5t189.5 -199t65.5 -295.5q0 -142 -41 -286t-130.5 -264.5t-234.5 -194.5t-352 -74zM705 54q114 0 201.5 52.5t150 139.5t102.5 193t58.5 215t18.5 204
q0 126 -37 224.5t-114.5 154.5t-197.5 56q-118 0 -206.5 -52t-151 -138.5t-101.5 -193t-57 -215t-18 -203.5q0 -125 37 -224t115 -156t200 -57zM651 1460l235 271h220l-356 -271h-99zM970 1460l236 271h220l-357 -271h-99z" />
    <glyph glyph-name="ohungarumlaut" unicode="&#x151;" horiz-adv-x="1102" 
d="M475 -17q-181 0 -281 111t-100 288q0 98 29.5 202t93.5 193t166 144t247 55q181 0 279.5 -110.5t98.5 -288.5q0 -102 -30.5 -206.5t-95 -192.5t-165.5 -141.5t-242 -53.5zM483 53q76 0 133 41t96.5 106.5t63.5 142.5t35 151t11 130q0 121 -48.5 202t-151.5 81
q-76 0 -133 -39.5t-96.5 -103.5t-63.5 -139.5t-35.5 -148.5t-11.5 -129q0 -81 21.5 -148.5t66 -106.5t113.5 -39zM398 1092l235 271h220l-356 -271h-99zM717 1092l236 271h220l-357 -271h-99z" />
    <glyph glyph-name="OE" unicode="&#x152;" horiz-adv-x="1861" 
d="M808 0l271 1280l-91 66h933l-60 -339h-91q3 33 2 77.5t-11.5 87t-34 70.5t-63.5 28h-382l-115 -541h525l-16 -76h-525l-123 -577h388q51 0 92 31t73 78.5t56 99.5t40 94h91l-101 -379h-858zM1015 39q-67 -26 -148 -37t-168 -11q-179 0 -305 70t-192 196t-66 292
q0 109 25.5 223t80.5 218t144 187t215.5 131t295.5 48q61 0 120 -6t112 -19t95 -35l-105 -77q-41 25 -98 44.5t-132 19.5q-121 0 -211 -52t-152.5 -137.5t-101 -190t-55.5 -210t-17 -195.5q0 -124 37.5 -222.5t117 -154.5t203.5 -56q58 0 109.5 10t94.5 25z" />
    <glyph glyph-name="oe" unicode="&#x153;" horiz-adv-x="1777" 
d="M474 -16q-181 0 -281 110.5t-100 287.5q0 35 4 71t12 74q32 151 106 250.5t180.5 149t233.5 49.5q178 0 271 -110t93 -288q0 -35 -4 -72.5t-12 -76.5q-47 -224 -180.5 -334.5t-322.5 -110.5zM482 53q125 0 205 104.5t118 292.5q9 47 14 91t5 83q0 122 -49 202.5
t-154 80.5q-126 0 -207 -105t-119 -295q-8 -41 -12.5 -81t-4.5 -78q0 -82 22 -149t67 -106.5t115 -39.5zM1215 -17q-137 0 -227.5 51t-135 142.5t-44.5 209.5q0 112 35 217t104.5 188.5t173.5 133t240 49.5q154 0 236.5 -58t82.5 -157q0 -68 -37.5 -128.5t-120 -106.5
t-216.5 -72t-327 -26l20 35q-4 -15 -5.5 -39t-1.5 -50q0 -128 54 -216t184 -88q105 0 179 61.5t101 188.5h135q-37 -160 -150 -247.5t-280 -87.5zM998 493l-16 7q256 0 389.5 76.5t133.5 192.5q0 61 -40 97.5t-118 36.5q-83 0 -152 -46t-119.5 -137t-77.5 -227z" />
    <glyph glyph-name="Racute" unicode="&#x154;" horiz-adv-x="1326" 
d="M-56 0l14 65h150q14 0 28.5 9t18.5 30l241 1133q2 10 2 16q0 15 -10 21.5t-21 6.5h-151l14 65h636q171 0 277.5 -78t106.5 -225q0 -164 -96 -255.5t-257 -137.5q77 -12 115.5 -51t53.5 -105t22 -162l16 -214q3 -39 17 -46t45 -7h91l-14 -65h-333l-17 298q-5 93 -16.5 164
t-46.5 111t-111 40h-252l-108 -508q-1 -4 -1 -7v-5q0 -15 10 -21.5t21 -6.5h166l-14 -65h-597zM483 686h222q79 0 140.5 33t104 88t64.5 122.5t22 135.5q0 92 -50 150t-153 58h-225zM714 1459l236 271h220l-357 -271h-99z" />
    <glyph glyph-name="racute" unicode="&#x155;" horiz-adv-x="881" 
d="M712 675q14 81 -1.5 127.5t-65.5 46.5q-42 0 -84.5 -39.5t-80.5 -99.5t-67 -122l-126 -588l-190 -1l158 726q17 76 6.5 108.5t-53.5 40.5l-80 13l12 53l339 24l-37 -231q32 61 73.5 114t94 86t115.5 33q99 0 138.5 -80.5t18.5 -210.5h-170zM503 1109l236 271h220
l-357 -271h-99z" />
    <glyph glyph-name="uni0156" unicode="&#x156;" horiz-adv-x="1326" 
d="M-56 0l14 65h150q14 0 28.5 9t18.5 30l241 1133q2 10 2 16q0 15 -10 21.5t-21 6.5h-151l14 65h636q171 0 277.5 -78t106.5 -225q0 -164 -96 -255.5t-257 -137.5q77 -12 115.5 -51t53.5 -105t22 -162l16 -214q3 -39 17 -46t45 -7h91l-14 -65h-333l-17 298q-5 93 -16.5 164
t-46.5 111t-111 40h-252l-108 -508q-1 -4 -1 -7v-5q0 -15 10 -21.5t21 -6.5h166l-14 -65h-597zM483 686h222q79 0 140.5 33t104 88t64.5 122.5t22 135.5q0 92 -50 150t-153 58h-225zM477 -400l-13 45q46 15 79 43t51 65q-40 4 -60.5 32t-12.5 67q7 37 35 58t76 21t76.5 -33
t15.5 -97q-17 -79 -88.5 -131.5t-158.5 -69.5z" />
    <glyph glyph-name="uni0157" unicode="&#x157;" horiz-adv-x="881" 
d="M712 675q14 81 -1.5 127.5t-65.5 46.5q-42 0 -84.5 -39.5t-80.5 -99.5t-67 -122l-126 -588l-190 -1l158 726q17 76 6.5 108.5t-53.5 40.5l-80 13l12 53l339 24l-37 -231q32 61 73.5 114t94 86t115.5 33q99 0 138.5 -80.5t18.5 -210.5h-170zM19 -400l-13 45q46 15 79 43
t51 65q-40 4 -60.5 32t-12.5 67q7 37 35 58t76 21t76.5 -33t15.5 -97q-17 -79 -88.5 -131.5t-158.5 -69.5z" />
    <glyph glyph-name="Rcaron" unicode="&#x158;" horiz-adv-x="1326" 
d="M-56 0l14 65h150q14 0 28.5 9t18.5 30l241 1133q2 10 2 16q0 15 -10 21.5t-21 6.5h-151l14 65h636q171 0 277.5 -78t106.5 -225q0 -164 -96 -255.5t-257 -137.5q77 -12 115.5 -51t53.5 -105t22 -162l16 -214q3 -39 17 -46t45 -7h91l-14 -65h-333l-17 298q-5 93 -16.5 164
t-46.5 111t-111 40h-252l-108 -508q-1 -4 -1 -7v-5q0 -15 10 -21.5t21 -6.5h166l-14 -65h-597zM483 686h222q79 0 140.5 33t104 88t64.5 122.5t22 135.5q0 92 -50 150t-153 58h-225zM705 1459l-145 271h92l167 -171l242 171h93l-263 -271h-186z" />
    <glyph glyph-name="rcaron" unicode="&#x159;" horiz-adv-x="881" 
d="M712 675q14 81 -1.5 127.5t-65.5 46.5q-42 0 -84.5 -39.5t-80.5 -99.5t-67 -122l-126 -588l-190 -1l158 726q17 76 6.5 108.5t-53.5 40.5l-80 13l12 53l339 24l-37 -231q32 61 73.5 114t94 86t115.5 33q99 0 138.5 -80.5t18.5 -210.5h-170zM506 1109l-146 271h93
l167 -172l242 172h93l-264 -271h-185z" />
    <glyph glyph-name="Sacute" unicode="&#x15a;" horiz-adv-x="1156" 
d="M541 -17q-91 0 -173 20t-143 50.5t-91 62.5l-25 -128h-81l63 412h101q3 -101 46 -178.5t120.5 -121t185.5 -43.5q143 0 217 79.5t74 203.5q0 62 -27 110t-89 90t-167 87q-100 43 -173.5 95t-113.5 120.5t-40 161.5q0 121 60.5 201t163.5 120t230 40q120 0 214 -36
t134 -74l20 90h80l-51 -350h-106q-8 131 -83.5 213t-215.5 82q-79 0 -137.5 -27t-91.5 -78.5t-33 -125.5q0 -54 25 -99t83 -86.5t157 -85.5q118 -51 196.5 -105t117.5 -123.5t39 -166.5q0 -136 -63 -227.5t-173 -137t-250 -45.5zM631 1460l236 271h220l-357 -271h-99z" />
    <glyph glyph-name="sacute" unicode="&#x15b;" horiz-adv-x="991" 
d="M442 -18q-116 0 -206.5 35t-140.5 107.5t-45 185.5h182q-2 -142 57.5 -201.5t160.5 -59.5q97 0 152.5 49t55.5 129q0 57 -45.5 106.5t-163.5 98.5q-140 58 -210.5 127.5t-70.5 158.5q0 69 30.5 118t82.5 79.5t119 44.5t141 14q112 0 196.5 -35t131 -101t41.5 -158h-182
q2 106 -47.5 166.5t-151.5 60.5q-73 0 -125 -35t-52 -108q0 -59 53.5 -106.5t173.5 -95.5q141 -57 202.5 -130t61.5 -159q0 -102 -53 -166.5t-143.5 -94.5t-204.5 -30zM485 1109l236 271h220l-357 -271h-99z" />
    <glyph glyph-name="Scircumflex" unicode="&#x15c;" horiz-adv-x="1156" 
d="M541 -17q-91 0 -173 20t-143 50.5t-91 62.5l-25 -128h-81l63 412h101q3 -101 46 -178.5t120.5 -121t185.5 -43.5q143 0 217 79.5t74 203.5q0 62 -27 110t-89 90t-167 87q-100 43 -173.5 95t-113.5 120.5t-40 161.5q0 121 60.5 201t163.5 120t230 40q120 0 214 -36
t134 -74l20 90h80l-51 -350h-106q-8 131 -83.5 213t-215.5 82q-79 0 -137.5 -27t-91.5 -78.5t-33 -125.5q0 -54 25 -99t83 -86.5t157 -85.5q118 -51 196.5 -105t117.5 -123.5t39 -166.5q0 -136 -63 -227.5t-173 -137t-250 -45.5zM427 1459l260 271h185l149 -271h-95
l-162 172l-233 -172h-104z" />
    <glyph glyph-name="scircumflex" unicode="&#x15d;" horiz-adv-x="991" 
d="M442 -18q-116 0 -206.5 35t-140.5 107.5t-45 185.5h182q-2 -142 57.5 -201.5t160.5 -59.5q97 0 152.5 49t55.5 129q0 57 -45.5 106.5t-163.5 98.5q-140 58 -210.5 127.5t-70.5 158.5q0 69 30.5 118t82.5 79.5t119 44.5t141 14q112 0 196.5 -35t131 -101t41.5 -158h-182
q2 106 -47.5 166.5t-151.5 60.5q-73 0 -125 -35t-52 -108q0 -59 53.5 -106.5t173.5 -95.5q141 -57 202.5 -130t61.5 -159q0 -102 -53 -166.5t-143.5 -94.5t-204.5 -30zM279 1109l260 271h185l149 -271h-95l-162 172l-233 -172h-104z" />
    <glyph glyph-name="Scedilla" unicode="&#x15e;" horiz-adv-x="1156" 
d="M541 -17q-91 0 -173 20t-143 50.5t-91 62.5l-25 -128h-81l63 412h101q3 -101 46 -178.5t120.5 -121t185.5 -43.5q143 0 217 79.5t74 203.5q0 62 -27 110t-89 90t-167 87q-100 43 -173.5 95t-113.5 120.5t-40 161.5q0 121 60.5 201t163.5 120t230 40q120 0 214 -36
t134 -74l20 90h80l-51 -350h-106q-8 131 -83.5 213t-215.5 82q-79 0 -137.5 -27t-91.5 -78.5t-33 -125.5q0 -54 25 -99t83 -86.5t157 -85.5q118 -51 196.5 -105t117.5 -123.5t39 -166.5q0 -136 -63 -227.5t-173 -137t-250 -45.5zM402 -377q-63 0 -106 10.5t-78 25.5l37 82
q27 -15 67.5 -27t83.5 -12q36 0 63 15t34 52q7 42 -18 66.5t-101 35.5l-43 5l157 168l63 -42l-84 -89l-27 22q100 -4 149 -53.5t33 -127.5q-15 -75 -80 -103t-150 -28z" />
    <glyph glyph-name="scedilla" unicode="&#x15f;" horiz-adv-x="991" 
d="M442 -18q-116 0 -206.5 35t-140.5 107.5t-45 185.5h182q-2 -142 57.5 -201.5t160.5 -59.5q97 0 152.5 49t55.5 129q0 57 -45.5 106.5t-163.5 98.5q-140 58 -210.5 127.5t-70.5 158.5q0 69 30.5 118t82.5 79.5t119 44.5t141 14q112 0 196.5 -35t131 -101t41.5 -158h-182
q2 106 -47.5 166.5t-151.5 60.5q-73 0 -125 -35t-52 -108q0 -59 53.5 -106.5t173.5 -95.5q141 -57 202.5 -130t61.5 -159q0 -102 -53 -166.5t-143.5 -94.5t-204.5 -30zM353 -377q-63 0 -106 10.5t-78 25.5l37 82q27 -15 67.5 -27t83.5 -12q36 0 63 15t34 52q7 42 -18 66.5
t-101 35.5l-43 5l157 168l63 -42l-84 -89l-27 22q100 -4 149 -53.5t33 -127.5q-15 -75 -80 -103t-150 -28z" />
    <glyph glyph-name="Scaron" unicode="&#x160;" horiz-adv-x="1156" 
d="M541 -17q-91 0 -173 20t-143 50.5t-91 62.5l-25 -128h-81l63 412h101q3 -101 46 -178.5t120.5 -121t185.5 -43.5q143 0 217 79.5t74 203.5q0 62 -27 110t-89 90t-167 87q-100 43 -173.5 95t-113.5 120.5t-40 161.5q0 121 60.5 201t163.5 120t230 40q120 0 214 -36
t134 -74l20 90h80l-51 -350h-106q-8 131 -83.5 213t-215.5 82q-79 0 -137.5 -27t-91.5 -78.5t-33 -125.5q0 -54 25 -99t83 -86.5t157 -85.5q118 -51 196.5 -105t117.5 -123.5t39 -166.5q0 -136 -63 -227.5t-173 -137t-250 -45.5zM622 1460l-145 271h92l167 -171l242 171h93
l-263 -271h-186z" />
    <glyph glyph-name="scaron" unicode="&#x161;" horiz-adv-x="991" 
d="M442 -18q-116 0 -206.5 35t-140.5 107.5t-45 185.5h182q-2 -142 57.5 -201.5t160.5 -59.5q97 0 152.5 49t55.5 129q0 57 -45.5 106.5t-163.5 98.5q-140 58 -210.5 127.5t-70.5 158.5q0 69 30.5 118t82.5 79.5t119 44.5t141 14q112 0 196.5 -35t131 -101t41.5 -158h-182
q2 106 -47.5 166.5t-151.5 60.5q-73 0 -125 -35t-52 -108q0 -59 53.5 -106.5t173.5 -95.5q141 -57 202.5 -130t61.5 -159q0 -102 -53 -166.5t-143.5 -94.5t-204.5 -30zM488 1109l-146 271h93l167 -172l242 172h93l-264 -271h-185z" />
    <glyph glyph-name="uni0162" unicode="&#x162;" horiz-adv-x="1219" 
d="M200 0l14 65h168q14 0 28.5 9t18.5 30l248 1169h-192q-50 -1 -96.5 -41.5t-82.5 -102t-56 -128.5h-91l85 345h1100l-61 -345h-91q7 67 -2.5 128.5t-38 102t-79.5 41.5h-191l-248 -1169q-4 -21 6 -30t24 -9h168l-14 -65h-617zM408 -377q-63 0 -106 10.5t-78 25.5l37 82
q27 -15 67.5 -27t83.5 -12q36 0 63 15t34 52q7 42 -18 66.5t-101 35.5l-43 5l157 168l63 -42l-84 -89l-27 22q100 -4 149 -53.5t33 -127.5q-15 -75 -80 -103t-150 -28z" />
    <glyph glyph-name="uni0163" unicode="&#x163;" horiz-adv-x="673" 
d="M361 -11q-141 0 -195 76t-18 247l121 571h-163l16 75h165l50 234l190 16l-53 -250h249l-17 -75h-248l-125 -588q-16 -76 -11.5 -127t44 -77t126.5 -26h64l-14 -63q-36 -5 -80.5 -9t-100.5 -4zM185 -377q-63 0 -106 10.5t-78 25.5l37 82q27 -15 67.5 -27t83.5 -12
q36 0 63 15t34 52q7 42 -18 66.5t-101 35.5l-43 5l157 168l63 -42l-84 -89l-27 22q100 -4 149 -53.5t33 -127.5q-15 -75 -80 -103t-150 -28z" />
    <glyph glyph-name="Tcaron" unicode="&#x164;" horiz-adv-x="1219" 
d="M200 0l14 65h168q14 0 28.5 9t18.5 30l248 1169h-192q-50 -1 -96.5 -41.5t-82.5 -102t-56 -128.5h-91l85 345h1100l-61 -345h-91q7 67 -2.5 128.5t-38 102t-79.5 41.5h-191l-248 -1169q-4 -21 6 -30t24 -9h168l-14 -65h-617zM716 1459l-145 271h92l167 -171l242 171h93
l-263 -271h-186z" />
    <glyph glyph-name="tcaron" unicode="&#x165;" horiz-adv-x="673" 
d="M361 -11q-141 0 -195 76t-18 247l121 571h-163l16 75h165l50 234l190 16l-53 -250h249l-17 -75h-248l-125 -588q-16 -76 -11.5 -127t44 -77t126.5 -26h64l-14 -63q-36 -5 -80.5 -9t-100.5 -4zM608 1079l-11 45q52 20 94 58t59 87l8 -8q-47 0 -69.5 33.5t-14.5 74.5
q9 42 38 63.5t73 21.5q51 0 77.5 -36.5t14.5 -97.5q-12 -54 -51 -100t-95.5 -82t-122.5 -59z" />
    <glyph glyph-name="Tbar" unicode="&#x166;" horiz-adv-x="1219" 
d="M320 644l17 78h651l-17 -78h-651zM200 0l14 65h168q14 0 28.5 9t18.5 30l248 1169h-192q-50 -1 -96.5 -41.5t-82.5 -102t-56 -128.5h-91l85 345h1100l-61 -345h-91q7 67 -2.5 128.5t-38 102t-79.5 41.5h-191l-248 -1169q-4 -21 6 -30t24 -9h168l-14 -65h-617z" />
    <glyph glyph-name="tbar" unicode="&#x167;" horiz-adv-x="673" 
d="M41 484l15 69h578l-14 -69h-579zM361 -11q-141 0 -195 76t-18 247l121 571h-163l16 75h165l50 234l190 16l-53 -250h249l-17 -75h-248l-125 -588q-16 -76 -11.5 -127t44 -77t126.5 -26h64l-14 -63q-36 -5 -80.5 -9t-100.5 -4z" />
    <glyph glyph-name="Utilde" unicode="&#x168;" horiz-adv-x="1482" 
d="M691 -19q-146 0 -253 42.5t-165 129.5t-58 221q0 37 4.5 78t15.5 89l148 699q1 5 1 8v5q0 15 -9.5 21.5t-21.5 6.5h-150l13 65h592l-14 -65h-159q-14 0 -28.5 -9t-19.5 -30l-158 -743q-9 -42 -13.5 -80.5t-4.5 -72.5q0 -141 77 -210.5t229 -69.5q174 0 291.5 91
t164.5 311l164 773q1 5 1 11q0 16 -10 22.5t-21 6.5h-161l14 65h472l-14 -65h-150q-14 0 -28 -9t-19 -30l-166 -786q-35 -162 -104 -267t-182 -156.5t-278 -51.5zM682 1480q24 109 76.5 159t118.5 50q45 0 80.5 -14t67.5 -30q32 -15 56.5 -25.5t50.5 -10.5q30 0 51 20t34 63
h83q-28 -105 -73 -153t-111 -48q-45 0 -77.5 12t-69.5 29q-32 17 -58 27t-53 10q-32 0 -56 -21t-39 -68h-81z" />
    <glyph glyph-name="utilde" unicode="&#x169;" horiz-adv-x="1190" 
d="M362 -18q-111 0 -165 58.5t-54 165.5q0 29 4 62t12 68l85 389q5 24 8 43t3 34q0 34 -14.5 50.5t-43.5 21.5l-80 13l12 53l356 24l-143 -660q-4 -18 -5.5 -34t-1.5 -31q0 -60 29.5 -100t92.5 -40q58 0 112 33.5t102 88t86 116.5l131 600l195 14l-154 -698q-5 -24 -8 -44
t-3 -37q0 -56 35.5 -79.5t119.5 -23.5l-12 -55q-37 -9 -78.5 -15.5t-88.5 -6.5q-50 0 -87 16.5t-56 53.5t-19 98q0 16 1 33.5t4 37.5q-39 -58 -94 -115.5t-125 -95.5t-156 -38zM394 1130q24 109 76 158.5t119 49.5q45 0 80.5 -14t67.5 -30q32 -15 56.5 -25t49.5 -10
q31 0 52 20t34 63h83q-28 -105 -73 -153t-111 -48q-45 0 -77.5 12t-69.5 29q-33 16 -58.5 26.5t-52.5 10.5q-32 0 -56 -21t-39 -68h-81z" />
    <glyph glyph-name="Umacron" unicode="&#x16a;" horiz-adv-x="1482" 
d="M691 -19q-146 0 -253 42.5t-165 129.5t-58 221q0 37 4.5 78t15.5 89l148 699q1 5 1 8v5q0 15 -9.5 21.5t-21.5 6.5h-150l13 65h592l-14 -65h-159q-14 0 -28.5 -9t-19.5 -30l-158 -743q-9 -42 -13.5 -80.5t-4.5 -72.5q0 -141 77 -210.5t229 -69.5q174 0 291.5 91
t164.5 311l164 773q1 5 1 11q0 16 -10 22.5t-21 6.5h-161l14 65h472l-14 -65h-150q-14 0 -28 -9t-19 -30l-166 -786q-35 -162 -104 -267t-182 -156.5t-278 -51.5zM709 1539l20 98h550l-21 -98h-549z" />
    <glyph glyph-name="umacron" unicode="&#x16b;" horiz-adv-x="1190" 
d="M362 -18q-111 0 -165 58.5t-54 165.5q0 29 4 62t12 68l85 389q5 24 8 43t3 34q0 34 -14.5 50.5t-43.5 21.5l-80 13l12 53l356 24l-143 -660q-4 -18 -5.5 -34t-1.5 -31q0 -60 29.5 -100t92.5 -40q58 0 112 33.5t102 88t86 116.5l131 600l195 14l-154 -698q-5 -24 -8 -44
t-3 -37q0 -56 35.5 -79.5t119.5 -23.5l-12 -55q-37 -9 -78.5 -15.5t-88.5 -6.5q-50 0 -87 16.5t-56 53.5t-19 98q0 16 1 33.5t4 37.5q-39 -58 -94 -115.5t-125 -95.5t-156 -38zM445 1189l21 98h550l-21 -98h-550z" />
    <glyph glyph-name="Ubreve" unicode="&#x16c;" horiz-adv-x="1482" 
d="M691 -19q-146 0 -253 42.5t-165 129.5t-58 221q0 37 4.5 78t15.5 89l148 699q1 5 1 8v5q0 15 -9.5 21.5t-21.5 6.5h-150l13 65h592l-14 -65h-159q-14 0 -28.5 -9t-19.5 -30l-158 -743q-9 -42 -13.5 -80.5t-4.5 -72.5q0 -141 77 -210.5t229 -69.5q174 0 291.5 91
t164.5 311l164 773q1 5 1 11q0 16 -10 22.5t-21 6.5h-161l14 65h472l-14 -65h-150q-14 0 -28 -9t-19 -30l-166 -786q-35 -162 -104 -267t-182 -156.5t-278 -51.5zM968 1474q-122 0 -187.5 67.5t-54.5 189.5h104q-4 -51 16 -82t55.5 -44.5t77.5 -13.5t84.5 14t77 45t52.5 81
h102q-40 -120 -123 -188.5t-204 -68.5z" />
    <glyph glyph-name="ubreve" unicode="&#x16d;" horiz-adv-x="1190" 
d="M362 -18q-111 0 -165 58.5t-54 165.5q0 29 4 62t12 68l85 389q5 24 8 43t3 34q0 34 -14.5 50.5t-43.5 21.5l-80 13l12 53l356 24l-143 -660q-4 -18 -5.5 -34t-1.5 -31q0 -60 29.5 -100t92.5 -40q58 0 112 33.5t102 88t86 116.5l131 600l195 14l-154 -698q-5 -24 -8 -44
t-3 -37q0 -56 35.5 -79.5t119.5 -23.5l-12 -55q-37 -9 -78.5 -15.5t-88.5 -6.5q-50 0 -87 16.5t-56 53.5t-19 98q0 16 1 33.5t4 37.5q-39 -58 -94 -115.5t-125 -95.5t-156 -38zM717 1115q-120 0 -182.5 68.5t-55.5 189.5h104q-2 -52 17.5 -83t53 -44.5t74.5 -13.5
q61 0 120.5 32.5t85.5 108.5h102q-37 -119 -118.5 -188.5t-200.5 -69.5z" />
    <glyph glyph-name="Uring" unicode="&#x16e;" horiz-adv-x="1482" 
d="M691 -19q-146 0 -253 42.5t-165 129.5t-58 221q0 37 4.5 78t15.5 89l148 699q1 5 1 8v5q0 15 -9.5 21.5t-21.5 6.5h-150l13 65h592l-14 -65h-159q-14 0 -28.5 -9t-19.5 -30l-158 -743q-9 -42 -13.5 -80.5t-4.5 -72.5q0 -141 77 -210.5t229 -69.5q174 0 291.5 91
t164.5 311l164 773q1 5 1 11q0 16 -10 22.5t-21 6.5h-161l14 65h472l-14 -65h-150q-14 0 -28 -9t-19 -30l-166 -786q-35 -162 -104 -267t-182 -156.5t-278 -51.5zM971 1376q-85 0 -145.5 57.5t-60.5 141.5q0 87 59.5 146.5t146.5 59.5q85 0 144.5 -58t59.5 -144
t-59.5 -144.5t-144.5 -58.5zM971 1467q46 0 78 32.5t32 79.5t-32 79.5t-78 32.5q-47 0 -79 -32.5t-32 -79.5t32 -79.5t79 -32.5z" />
    <glyph glyph-name="uring" unicode="&#x16f;" horiz-adv-x="1190" 
d="M362 -18q-111 0 -165 58.5t-54 165.5q0 29 4 62t12 68l85 389q5 24 8 43t3 34q0 34 -14.5 50.5t-43.5 21.5l-80 13l12 53l356 24l-143 -660q-4 -18 -5.5 -34t-1.5 -31q0 -60 29.5 -100t92.5 -40q58 0 112 33.5t102 88t86 116.5l131 600l195 14l-154 -698q-5 -24 -8 -44
t-3 -37q0 -56 35.5 -79.5t119.5 -23.5l-12 -55q-37 -9 -78.5 -15.5t-88.5 -6.5q-50 0 -87 16.5t-56 53.5t-19 98q0 16 1 33.5t4 37.5q-39 -58 -94 -115.5t-125 -95.5t-156 -38zM711 1079q-92 0 -150.5 55.5t-58.5 147.5q0 90 58.5 145.5t150.5 55.5t150.5 -55.5t58.5 -145.5
q0 -92 -58.5 -147.5t-150.5 -55.5zM711 1153q56 0 91 36t35 93t-35 92.5t-91 35.5q-55 0 -90 -35.5t-35 -92.5t35 -93t90 -36z" />
    <glyph glyph-name="Uhungarumlaut" unicode="&#x170;" horiz-adv-x="1482" 
d="M691 -19q-146 0 -253 42.5t-165 129.5t-58 221q0 37 4.5 78t15.5 89l148 699q1 5 1 8v5q0 15 -9.5 21.5t-21.5 6.5h-150l13 65h592l-14 -65h-159q-14 0 -28.5 -9t-19.5 -30l-158 -743q-9 -42 -13.5 -80.5t-4.5 -72.5q0 -141 77 -210.5t229 -69.5q174 0 291.5 91
t164.5 311l164 773q1 5 1 11q0 16 -10 22.5t-21 6.5h-161l14 65h472l-14 -65h-150q-14 0 -28 -9t-19 -30l-166 -786q-35 -162 -104 -267t-182 -156.5t-278 -51.5zM703 1459l235 271h220l-356 -271h-99zM1022 1459l236 271h220l-357 -271h-99z" />
    <glyph glyph-name="uhungarumlaut" unicode="&#x171;" horiz-adv-x="1190" 
d="M362 -18q-111 0 -165 58.5t-54 165.5q0 29 4 62t12 68l85 389q5 24 8 43t3 34q0 34 -14.5 50.5t-43.5 21.5l-80 13l12 53l356 24l-143 -660q-4 -18 -5.5 -34t-1.5 -31q0 -60 29.5 -100t92.5 -40q58 0 112 33.5t102 88t86 116.5l131 600l195 14l-154 -698q-5 -24 -8 -44
t-3 -37q0 -56 35.5 -79.5t119.5 -23.5l-12 -55q-37 -9 -78.5 -15.5t-88.5 -6.5q-50 0 -87 16.5t-56 53.5t-19 98q0 16 1 33.5t4 37.5q-39 -58 -94 -115.5t-125 -95.5t-156 -38zM439 1109l235 271h220l-356 -271h-99zM758 1109l236 271h220l-357 -271h-99z" />
    <glyph glyph-name="Uogonek" unicode="&#x172;" horiz-adv-x="1482" 
d="M691 -19q-146 0 -253 42.5t-165 129.5t-58 221q0 37 4.5 78t15.5 89l148 699q1 5 1 8v5q0 15 -9.5 21.5t-21.5 6.5h-150l13 65h592l-14 -65h-159q-14 0 -28.5 -9t-19.5 -30l-158 -743q-9 -42 -13.5 -80.5t-4.5 -72.5q0 -141 77 -210.5t229 -69.5q174 0 291.5 91
t164.5 311l164 773q1 5 1 11q0 16 -10 22.5t-21 6.5h-161l14 65h472l-14 -65h-150q-14 0 -28 -9t-19 -30l-166 -786q-35 -162 -104 -267t-182 -156.5t-278 -51.5zM672 -381q-79 0 -122.5 43t-26.5 118q16 79 101.5 148.5t209.5 99.5l34 -28q-91 -42 -140 -99.5t-61 -114.5
q-10 -48 6 -73.5t61 -25.5q23 0 52.5 7t57.5 20l-13 -59q-31 -16 -71.5 -26t-87.5 -10z" />
    <glyph glyph-name="uogonek" unicode="&#x173;" horiz-adv-x="1190" 
d="M362 -18q-111 0 -165 58.5t-54 165.5q0 29 4 62t12 68l85 389q5 24 8 43t3 34q0 34 -14.5 50.5t-43.5 21.5l-80 13l12 53l356 24l-143 -660q-4 -18 -5.5 -34t-1.5 -31q0 -60 29.5 -100t92.5 -40q58 0 112 33.5t102 88t86 116.5l131 600l195 14l-154 -698q-5 -24 -8 -44
t-3 -37q0 -56 35.5 -79.5t119.5 -23.5l-12 -55q-37 -9 -78.5 -15.5t-88.5 -6.5q-50 0 -87 16.5t-56 53.5t-19 98q0 16 1 33.5t4 37.5q-39 -58 -94 -115.5t-125 -95.5t-156 -38zM773 -381q-79 0 -122.5 43t-26.5 118q16 79 101.5 148.5t209.5 99.5l34 -28q-91 -42 -140 -99.5
t-61 -114.5q-10 -48 6 -73.5t61 -25.5q23 0 52.5 7t57.5 20l-13 -59q-31 -16 -71.5 -26t-87.5 -10z" />
    <glyph glyph-name="Wcircumflex" unicode="&#x174;" horiz-adv-x="2032" 
d="M1220 1l-181 1233q-5 30 -15 38.5t-28 8.5h-88l14 65h506l-14 -65h-135q-28 0 -36 -20.5t-3 -52.5l145 -1044l-47 -12l600 1043q21 37 26 61.5t-32 24.5h-133l14 65h411l-13 -65h-94q-19 0 -33 -9t-31 -38l-719 -1233h-114zM492 1l-182 1244q-3 22 -13.5 29t-28.5 7h-109
l13 65h527l-13 -65h-135q-17 0 -32 -10t-10 -39l148 -1065l-45 -13l520 906l29 -107l-556 -952h-113zM931 1458l260 271h185l149 -271h-95l-162 172l-233 -172h-104z" />
    <glyph glyph-name="wcircumflex" unicode="&#x175;" horiz-adv-x="1529" 
d="M810 0l-84 943l178 2l74 -818q174 185 272 375.5t105 388.5q0 16 -0.5 31.5t-2.5 32.5h178q-3 -120 -52.5 -243.5t-131.5 -246t-183 -240t-209 -225.5h-144zM266 0l-65 725q-7 76 -17 107.5t-53 41.5l-61 13l12 53l279 23l72 -836q123 135 209 256.5t148 233.5l49 -59
q-52 -87 -116.5 -178t-142.5 -186t-170 -194h-144zM590 1092l260 271h185l149 -271h-95l-162 172l-233 -172h-104z" />
    <glyph glyph-name="Ycircumflex" unicode="&#x176;" horiz-adv-x="1295" 
d="M244 0l13 65h151q14 0 29 9t19 30l100 475l-235 638q-12 33 -28.5 48.5t-49.5 15.5h-55l14 65h521l-14 -65h-131q-37 0 -44 -29q-2 -10 1 -28t8 -33l184 -536l425 529q16 20 27.5 38t13.5 30q6 29 -30 29h-120l14 65h406l-14 -65h-48q-34 0 -72.5 -22.5t-79.5 -72.5
l-486 -594l-103 -488q-5 -21 5 -30t24 -9h151l-14 -65h-582zM563 1458l260 271h185l149 -271h-95l-162 172l-233 -172h-104z" />
    <glyph glyph-name="ycircumflex" unicode="&#x177;" horiz-adv-x="969" 
d="M-200 -366l17 65q89 0 170.5 30.5t158 88t152.5 138.5l32 33l-137 742q-9 51 -15.5 79.5t-19 43t-38.5 20.5l-62 13l12 53l276 23l140 -829q146 178 224.5 357t85.5 365q0 23 -1.5 48t-4.5 51h179q-4 -120 -47 -239.5t-113.5 -236t-156.5 -229t-173 -219.5
q-86 -103 -150.5 -178t-126 -123.5t-133.5 -72t-173 -23.5h-96zM294 1109l260 271h185l149 -271h-95l-162 172l-233 -172h-104z" />
    <glyph glyph-name="Ydieresis" unicode="&#x178;" horiz-adv-x="1295" 
d="M244 0l13 65h151q14 0 29 9t19 30l100 475l-235 638q-12 33 -28.5 48.5t-49.5 15.5h-55l14 65h521l-14 -65h-131q-37 0 -44 -29q-2 -10 1 -28t8 -33l184 -536l425 529q16 20 27.5 38t13.5 30q6 29 -30 29h-120l14 65h406l-14 -65h-48q-34 0 -72.5 -22.5t-79.5 -72.5
l-486 -594l-103 -488q-5 -21 5 -30t24 -9h151l-14 -65h-582zM1051 1492q-39 0 -67 28t-28 68q0 39 28 67t67 28t66 -28t27 -67q0 -40 -27 -68t-66 -28zM694 1492q-41 0 -68.5 28t-27.5 68q0 39 27.5 67t68.5 28q37 0 65 -28t28 -67q0 -40 -28 -68t-65 -28z" />
    <glyph glyph-name="Zacute" unicode="&#x179;" horiz-adv-x="1182" 
d="M-29 0l14 70l990 1197h-433q-43 0 -80 -31t-68 -77.5t-54.5 -98t-40.5 -93.5h-91l101 379h915l-13 -63l-996 -1204h517q47 0 88.5 31t75.5 77.5t60 98t41 93.5h92l-101 -379h-1017zM689 1459l236 271h220l-357 -271h-99z" />
    <glyph glyph-name="zacute" unicode="&#x17a;" horiz-adv-x="967" 
d="M-41 0l13 52l742 846h-246q-67 0 -120 -35t-91 -87t-64 -102h-59l80 284h729l-12 -58l-729 -839h327q80 0 133 40t88.5 97t60.5 107h58l-84 -305l-7 1v-1h-819zM487 1109l236 271h220l-357 -271h-99z" />
    <glyph glyph-name="Zdotaccent" unicode="&#x17b;" horiz-adv-x="1182" 
d="M-29 0l14 70l990 1197h-433q-43 0 -80 -31t-68 -77.5t-54.5 -98t-40.5 -93.5h-91l101 379h915l-13 -63l-996 -1204h517q47 0 88.5 31t75.5 77.5t60 98t41 93.5h92l-101 -379h-1017zM788 1505q-53 0 -84 30.5t-31 74.5q0 43 31 74t84 31q51 0 82 -31t31 -74
q0 -44 -31 -74.5t-82 -30.5z" />
    <glyph glyph-name="zdotaccent" unicode="&#x17c;" horiz-adv-x="967" 
d="M-41 0l13 52l742 846h-246q-67 0 -120 -35t-91 -87t-64 -102h-59l80 284h729l-12 -58l-729 -839h327q80 0 133 40t88.5 97t60.5 107h58l-84 -305l-7 1v-1h-819zM611 1147q-53 0 -84 30t-31 75q0 43 31 73.5t84 30.5q51 0 81.5 -30.5t30.5 -73.5q0 -45 -30.5 -75
t-81.5 -30z" />
    <glyph glyph-name="Zcaron" unicode="&#x17d;" horiz-adv-x="1182" 
d="M-29 0l14 70l990 1197h-433q-43 0 -80 -31t-68 -77.5t-54.5 -98t-40.5 -93.5h-91l101 379h915l-13 -63l-996 -1204h517q47 0 88.5 31t75.5 77.5t60 98t41 93.5h92l-101 -379h-1017zM680 1459l-145 271h92l167 -171l242 171h93l-263 -271h-186z" />
    <glyph glyph-name="zcaron" unicode="&#x17e;" horiz-adv-x="967" 
d="M-41 0l13 52l742 846h-246q-67 0 -120 -35t-91 -87t-64 -102h-59l80 284h729l-12 -58l-729 -839h327q80 0 133 40t88.5 97t60.5 107h58l-84 -305l-7 1v-1h-819zM490 1109l-146 271h93l167 -172l242 172h93l-264 -271h-185z" />
    <glyph glyph-name="longs" unicode="&#x17f;" horiz-adv-x="560" 
d="M-163 -359l12 58q104 0 160 68.5t90 231.5l215 1010q36 166 94.5 261t135.5 135t170 40q131 0 184.5 -63t46.5 -148h-183q7 72 -4.5 113.5t-61.5 41.5q-59 0 -101.5 -83.5t-78.5 -248.5l-240 -1123q-24 -113 -78 -177t-133 -90t-180 -26h-48zM126 885l16 73h307l-16 -73
h-307z" />
    <glyph glyph-name="uni0181" unicode="&#x181;" horiz-adv-x="1542" 
d="M149 0l14 65h150q14 0 28.5 7.5t18.5 28.5l264 1245l430 1q193 0 299.5 -79.5t106.5 -218.5q0 -133 -84 -221.5t-221 -116.5q122 -27 193 -99t71 -195q0 -109 -47 -187.5t-129 -129.5t-187 -75.5t-220 -24.5h-687zM558 74h268q119 0 205.5 46.5t133 128t46.5 182.5
q0 121 -71.5 179t-191.5 58h-265zM148 950l18 89q24 109 87 176.5t158.5 99t213.5 31.5l-6 -72q-106 -3 -180 -58.5t-98 -175.5l-19 -90h-174zM698 743h235q109 0 183 41t112.5 113.5t38.5 164.5q0 102 -61.5 155.5t-175.5 53.5h-220z" />
    <glyph glyph-name="uni0186" unicode="&#x186;" horiz-adv-x="1499" 
d="M680 -19q-234 0 -375.5 123t-171.5 329h203q8 -77 32 -145t66.5 -121t107.5 -83t154 -30q98 0 175.5 37.5t137 101t101.5 145.5t68.5 172.5t39 179t12.5 166.5q0 127 -37.5 226t-116.5 155t-203 56q-185 0 -299 -112t-175 -293h-212q78 223 252 350.5t442 127.5
q180 0 306 -71.5t192.5 -199t66.5 -295.5q0 -113 -26.5 -229t-82.5 -221.5t-145.5 -188.5t-216.5 -131.5t-295 -48.5z" />
    <glyph glyph-name="uni0189" unicode="&#x189;" horiz-adv-x="1477" 
d="M92 644l16 78h652l-17 -78h-651zM-55 0l13 65h151q12 0 26.5 7.5t19.5 26.5l241 1140q1 4 1.5 8t0.5 7q0 15 -9.5 21t-21.5 6h-151l14 65h584q193 0 328 -68.5t206.5 -194t71.5 -297.5q0 -113 -27 -226t-85.5 -213.5t-154 -178.5t-232.5 -123t-321 -45h-655zM353 76h218
q157 0 267.5 47.5t182 127t111.5 176.5t56 197.5t16 187.5q0 212 -103 335.5t-312 123.5h-183z" />
    <glyph glyph-name="uni018A" unicode="&#x18a;" horiz-adv-x="1683" 
d="M150 0l14 65h150q13 0 27.5 7.5t18.5 26.5l265 1247h395q192 0 327.5 -68.5t207 -194t71.5 -297.5q0 -113 -27 -226t-86 -213.5t-154.5 -178.5t-232 -123t-320.5 -45h-656zM148 950l18 89q24 109 87 176.5t158.5 99t213.5 31.5l-14 -72q-106 -3 -176 -58.5t-94 -175.5
l-19 -90h-174zM559 76h217q158 0 268.5 47.5t182 127t111.5 176.5t55.5 197.5t15.5 187.5q0 212 -102.5 335.5t-311.5 123.5h-183z" />
    <glyph glyph-name="uni018E" unicode="&#x18e;" horiz-adv-x="1189" 
d="M-10 0l61 379h91q-2 -42 -0.5 -94.5t14 -99.5t40.5 -78t78 -31h388l122 577h-525l17 76h524l116 541h-383q-45 -1 -87.5 -40t-76.5 -99t-54 -124h-92l85 339h1017l-14 -65h-150q-13 0 -28 -7.5t-19 -28.5l-242 -1142q-4 -21 6 -29.5t24 -8.5h150l-13 -65h-1049z" />
    <glyph glyph-name="uni018F" unicode="&#x18f;" horiz-adv-x="1372" 
d="M638 -18q-172 0 -298 77.5t-183 225t-23 357.5l198 -64q-20 -149 8.5 -267t106 -186.5t203.5 -68.5q127 0 211 69t138.5 198t92.5 309q29 136 26.5 253.5t-39 206.5t-109.5 139t-185 50q-163 0 -291 -94.5t-193 -294.5h-113q77 237 232 354.5t383 117.5q206 0 332 -100
t168 -273.5t-6 -393.5q-63 -301 -226 -458t-433 -157zM169 565l-35 77h1053l-16 -77h-1002z" />
    <glyph glyph-name="uni0190" unicode="&#x190;" horiz-adv-x="1227" 
d="M556 -17q-220 0 -349.5 89t-129.5 257q0 115 54 197.5t145.5 130t200.5 60.5q-105 28 -164.5 102t-59.5 174q0 85 34 153.5t98.5 118t155.5 75t205 25.5q93 0 170.5 -20t132.5 -49t79 -55l-68 -276q1 138 -77 232.5t-222 94.5q-88 0 -146 -30.5t-91.5 -78.5t-48 -103
t-14.5 -106q0 -103 65 -162.5t174 -59.5h100l-18 -83h-97q-89 0 -161 -25t-123.5 -71.5t-79 -111t-27.5 -143.5q0 -126 76 -189t202 -63q172 0 289.5 102.5t166.5 286.5h114q-41 -150 -120.5 -256t-196 -161t-269.5 -55zM1060 965l85 382h81l-55 -382h-111z" />
    <glyph glyph-name="uni0191" unicode="&#x191;" horiz-adv-x="1157" 
d="M-178 -359l12 58q123 0 192 65t98 203l269 1266q7 30 -4.5 39t-23.5 9h-151l14 65h1010l-57 -339h-91q8 64 -0.5 124.5t-34.5 99.5t-71 39h-378l-116 -541h487l-15 -75h-487l-150 -701q-26 -122 -82.5 -190t-137.5 -95t-182 -27h-101z" />
    <glyph glyph-name="florin" unicode="&#x192;" horiz-adv-x="799" 
d="M-163 -359l12 58q104 0 160 68.5t90 231.5l215 1010q36 166 94.5 261t135.5 135t170 40q131 0 184.5 -63t46.5 -148h-183q7 72 -4.5 113.5t-61.5 41.5q-59 0 -101.5 -83.5t-78.5 -248.5l-240 -1123q-24 -113 -78 -177t-133 -90t-180 -26h-48zM126 885l16 73h574l-15 -73
h-575z" />
    <glyph glyph-name="uni0194" unicode="&#x194;" horiz-adv-x="1281" 
d="M542 -18q-65 0 -102 36t-37 96q0 56 28 118t79.5 134.5t121.5 158.5l558 699q18 21 18 36q0 11 -9.5 16t-21.5 5h-150l14 65h433l-14 -65h-107q-15 0 -31.5 -10.5t-34.5 -31.5l-609 -757q-96 -118 -144 -214.5t-48 -151.5q0 -23 11 -41t37 -18q28 0 44.5 27.5t24 68
t7.5 81.5q0 60 -15 128t-40 141l-242 740q-7 21 -17 29.5t-28 8.5h-109l14 65h534l-14 -65h-135q-15 0 -30 -6t-15 -22q0 -5 1 -11t4 -15l202 -622q29 -83 47 -161.5t18 -151.5q0 -74 -24.5 -145t-78.5 -118t-140 -47z" />
    <glyph glyph-name="uni0198" unicode="&#x198;" horiz-adv-x="1286" 
d="M-56 0l14 65h151q14 0 28 9t19 30l241 1138q5 21 -5.5 30t-24.5 9h-151l14 65h592l-14 -65h-160q-14 0 -28 -9t-19 -30l-117 -552l471 434q81 74 148 125t132 77.5t140 26.5h37l-32 -151h-48q-66 0 -121 -16t-106 -48.5t-105 -81.5l-341 -312l369 -614q22 -36 44 -50.5
t66 -14.5h60l-14 -65h-311l-392 677l-121 -573q-5 -21 5.5 -30t24.5 -9h160l-14 -65h-592z" />
    <glyph glyph-name="uni0199" unicode="&#x199;" horiz-adv-x="1045" 
d="M62 0l240 1130q26 125 80.5 193t134.5 95.5t180 27.5h99l-12 -58q-125 0 -192.5 -56t-96.5 -188l-244 -1144h-189zM663 0l-302 505v5l317 286q89 79 160 120.5t158 41.5h32l-31 -138h-57q-62 0 -120 -18.5t-129 -82.5l-164 -146l242 -401q38 -62 72 -88t74 -26h23
l-14 -58h-261z" />
    <glyph glyph-name="Ohorn" unicode="&#x1a0;" horiz-adv-x="1554" 
d="M1392 1000l-9 63q79 29 136.5 75t78.5 114l9 -9q-52 4 -80 42t-16 93q10 49 45 77t92 28q64 0 97.5 -45.5t15.5 -127.5q-17 -79 -71 -141t-131.5 -104t-166.5 -65zM694 -19q-177 0 -302 71t-191 198t-66 295q0 143 42 288.5t132.5 266t235 193.5t350.5 73
q178 0 302 -71.5t189.5 -199t65.5 -295.5q0 -142 -41 -286t-130.5 -264.5t-234.5 -194.5t-352 -74zM705 54q114 0 201.5 52.5t150 139.5t102.5 193t58.5 215t18.5 204q0 126 -37 224.5t-114.5 154.5t-197.5 56q-118 0 -206.5 -52t-151 -138.5t-101.5 -193t-57 -215
t-18 -203.5q0 -125 37 -224t115 -156t200 -57z" />
    <glyph glyph-name="ohorn" unicode="&#x1a1;" horiz-adv-x="1132" 
d="M949 753l-14 51q70 29 120.5 71t68.5 104l9 -9q-57 0 -89.5 38t-22.5 92q9 49 44 76.5t87 27.5q61 0 96 -43t21 -122q-13 -73 -58.5 -129.5t-113.5 -95.5t-148 -61zM475 -17q-181 0 -281 111t-100 288q0 98 29.5 202t93.5 193t166 144t247 55q181 0 279.5 -110.5
t98.5 -288.5q0 -102 -30.5 -206.5t-95 -192.5t-165.5 -141.5t-242 -53.5zM483 53q76 0 133 41t96.5 106.5t63.5 142.5t35 151t11 130q0 121 -48.5 202t-151.5 81q-76 0 -133 -39.5t-96.5 -103.5t-63.5 -139.5t-35.5 -148.5t-11.5 -129q0 -81 21.5 -148.5t66 -106.5
t113.5 -39z" />
    <glyph glyph-name="Uhorn" unicode="&#x1af;" horiz-adv-x="1571" 
d="M691 -19q-173 0 -290 58.5t-163.5 177.5t-8.5 299l154 726q5 21 -5.5 30t-24.5 9h-150l13 65h592l-14 -65h-159q-14 0 -28.5 -9t-19.5 -30l-158 -743q-46 -219 27 -326.5t261 -107.5q174 0 291.5 91.5t164.5 311.5l164 774q5 21 -5.5 30t-24.5 9h-161l14 65h285
l-189 -885q-35 -164 -104 -270.5t-181.5 -158t-279.5 -51.5zM1360 992l7 70q54 20 106.5 47t92.5 62.5t54 80.5l9 -9q-52 4 -80 42t-16 93q10 49 45 77t92 28q64 0 97 -45.5t16 -127.5q-12 -60 -52.5 -110t-99 -89.5t-128.5 -69t-143 -49.5z" />
    <glyph glyph-name="uhorn" unicode="&#x1b0;" horiz-adv-x="1241" 
d="M1036 753l-14 51q83 29 141 71t80 104l9 -9q-58 0 -90 38t-22 92q9 49 44 76.5t86 27.5q61 0 96 -43t21 -122q-12 -73 -62.5 -130t-125.5 -95.5t-163 -60.5zM362 -18q-111 0 -165 58.5t-54 165.5q0 29 4 62t12 68l85 389q5 24 8 43t3 34q0 34 -14.5 50.5t-43.5 21.5
l-80 13l12 53l356 24l-143 -660q-4 -18 -5.5 -34t-1.5 -31q0 -60 29.5 -100t92.5 -40q58 0 112 33.5t102 88t86 116.5l131 600l195 14l-154 -698q-5 -24 -8 -44t-3 -37q0 -56 35.5 -79.5t119.5 -23.5l-12 -55q-37 -9 -78.5 -15.5t-88.5 -6.5q-50 0 -87 16.5t-56 53.5t-19 98
q0 16 1 33.5t4 37.5q-39 -58 -94 -115.5t-125 -95.5t-156 -38z" />
    <glyph glyph-name="uni01B2" unicode="&#x1b2;" horiz-adv-x="1432" 
d="M691 -19q-147 0 -254 42.5t-165 129t-58 219.5q0 36 4.5 75t13.5 81l151 714q1 4 1 11q0 15 -9.5 21.5t-21.5 6.5h-150l13 65h592l-14 -65h-159q-14 0 -28.5 -9t-19.5 -30l-158 -743q-9 -42 -13.5 -80.5t-4.5 -72.5q0 -141 77 -210.5t229 -69.5q174 0 291.5 90.5
t162.5 304.5l111 519q6 26 8.5 48t2.5 41q0 79 -41.5 106t-103.5 27h-45l33 151h33q57 0 106.5 -18.5t81 -64.5t31.5 -130q0 -26 -4 -56.5t-11 -65.5l-119 -566q-34 -160 -102 -264t-181 -155.5t-280 -51.5z" />
    <glyph glyph-name="uni01B3" unicode="&#x1b3;" horiz-adv-x="1247" 
d="M244 0l14 65h150q14 0 28 9t19 30l102 475l-236 638q-12 33 -28 48.5t-43 15.5h-62l14 65h521l-14 -65h-134q-35 0 -40 -27q-2 -12 0.5 -30t8.5 -33l186 -529l294 443q51 75 99.5 132t104 88.5t126.5 31.5h33l-32 -151h-51q-54 0 -96 -22t-77.5 -60t-69.5 -88l-298 -444
l-105 -495q-4 -17 7.5 -24.5t23.5 -7.5h151l-14 -65h-582z" />
    <glyph glyph-name="uni01B4" unicode="&#x1b4;" horiz-adv-x="1147" 
d="M-200 -366l17 65q139 0 257.5 61t228.5 188l31 37l-141 746q-9 51 -16 79.5t-19 43t-38 20.5l-62 13l12 53l276 23l138 -814l476 853q65 116 134.5 159.5t163.5 43.5h43l-30 -137h-24q-44 0 -85.5 -8t-81.5 -40t-81 -102l-504 -875q-87 -151 -173.5 -240.5t-188.5 -129
t-237 -39.5h-96z" />
    <glyph glyph-name="uni01B7" unicode="&#x1b7;" horiz-adv-x="1229" 
d="M555 -17q-244 0 -364 121.5t-120 336.5h114q0 -115 38 -199.5t117.5 -130.5t203.5 -46q102 0 170 34t107.5 89.5t56.5 122t17 132.5q0 125 -85 197t-237 72h-50l15 69l490 486h-412q-56 0 -100.5 -42t-76.5 -98.5t-52 -100.5h-91l88 320h877l-14 -63l-505 -493
q107 -5 190.5 -47.5t131.5 -116.5t48 -175q0 -102 -38 -188t-110 -148.5t-175 -97t-234 -34.5z" />
    <glyph glyph-name="uni01DD" unicode="&#x1dd;" horiz-adv-x="1064" 
d="M415 -17q-153 0 -235.5 58t-82.5 157q0 68 37.5 128.5t119.5 106.5t216 72t327 26l-19 -35q3 15 5 39t2 50q0 129 -54 216.5t-184 87.5q-104 0 -178.5 -61t-101.5 -189h-135q37 160 150 247.5t279 87.5q138 0 228.5 -51t135 -142t44.5 -210q0 -111 -35 -216.5
t-104.5 -189t-173.5 -133t-241 -49.5zM430 54q83 0 152 46t119.5 137t76.5 226l17 -6q-257 0 -390 -76t-133 -193q0 -61 40 -97.5t118 -36.5z" />
    <glyph glyph-name="Gcaron" unicode="&#x1e6;" horiz-adv-x="1448" 
d="M695 -19q-178 0 -303 70.5t-190.5 198t-65.5 297.5q0 114 26.5 230.5t83 221.5t147.5 187.5t219.5 130.5t299.5 48q89 0 166 -17.5t136 -43t92 -50.5l20 92h81l-59 -402h-112q-10 152 -94 250.5t-240 98.5q-127 0 -220.5 -51t-157.5 -136t-103 -189t-56 -212t-17 -202
q0 -194 86.5 -316t271.5 -122q135 0 228 63t148.5 176t77.5 260h-341l17 76h546l-17 -78q-37 -171 -118 -302t-216 -205t-336 -74zM833 1459l-145 271h92l167 -171l242 171h93l-263 -271h-186z" />
    <glyph glyph-name="gcaron" unicode="&#x1e7;" horiz-adv-x="1006" 
d="M365 -377q-149 0 -239.5 32.5t-131 84.5t-40.5 110q0 60 31 102.5t82 71.5t112 47t120 27l33 87l148 -1q201 -1 299.5 -62.5t98.5 -178.5q0 -90 -43.5 -151t-116.5 -98.5t-165 -54t-188 -16.5zM381 -309q84 0 154.5 23.5t112.5 70.5t42 119q0 67 -58 103t-201 38l-139 2
q-74 -19 -123 -71t-49 -121q0 -67 61.5 -115.5t199.5 -48.5zM289 64q-124 13 -177.5 60.5t-53.5 98.5q0 60 58 103t167 74l24 -39q-38 -9 -71.5 -35t-35.5 -62q-1 -31 44.5 -55t160.5 -25zM474 317q-170 0 -257.5 83t-87.5 207q0 107 54.5 191t152.5 133.5t226 49.5
q170 0 256.5 -79.5t86.5 -205.5q0 -109 -53 -194.5t-150.5 -135t-227.5 -49.5zM481 382q63 0 109.5 30t77.5 79.5t47 109.5t16 121q0 100 -48 147.5t-124 47.5q-63 0 -110 -29.5t-79 -78t-48 -107t-16 -116.5q0 -104 52 -154t123 -50zM782 889l-26 47q57 96 132.5 132
t194.5 36l-26 -153q-59 3 -107.5 -1.5t-89.5 -19t-78 -41.5zM500 1113l-146 271h93l167 -172l242 172h93l-264 -271h-185z" />
    <glyph glyph-name="uni01EA" unicode="&#x1ea;" horiz-adv-x="1507" 
d="M694 -19q-177 0 -302 71t-191 198t-66 295q0 143 42 288.5t132.5 266t235 193.5t350.5 73q178 0 302 -71.5t189.5 -199t65.5 -295.5q0 -142 -41 -286t-130.5 -264.5t-234.5 -194.5t-352 -74zM705 54q114 0 201.5 52.5t150 139.5t102.5 193t58.5 215t18.5 204
q0 126 -37 224.5t-114.5 154.5t-197.5 56q-118 0 -206.5 -52t-151 -138.5t-101.5 -193t-57 -215t-18 -203.5q0 -125 37 -224t115 -156t200 -57zM688 -378q-79 0 -122.5 43t-26.5 118q16 79 101.5 148.5t209.5 99.5l34 -28q-91 -42 -140 -99.5t-61 -114.5q-10 -48 6 -73.5
t61 -25.5q23 0 52.5 7t57.5 20l-13 -59q-31 -16 -71.5 -26t-87.5 -10z" />
    <glyph glyph-name="uni01EB" unicode="&#x1eb;" horiz-adv-x="1102" 
d="M475 -17q-181 0 -281 111t-100 288q0 98 29.5 202t93.5 193t166 144t247 55q181 0 279.5 -110.5t98.5 -288.5q0 -102 -30.5 -206.5t-95 -192.5t-165.5 -141.5t-242 -53.5zM483 53q76 0 133 41t96.5 106.5t63.5 142.5t35 151t11 130q0 121 -48.5 202t-151.5 81
q-76 0 -133 -39.5t-96.5 -103.5t-63.5 -139.5t-35.5 -148.5t-11.5 -129q0 -81 21.5 -148.5t66 -106.5t113.5 -39zM413 -381q-79 0 -122.5 43t-26.5 118q16 79 101.5 148.5t209.5 99.5l34 -28q-91 -42 -140 -99.5t-61 -114.5q-10 -48 6 -73.5t61 -25.5q23 0 52.5 7t57.5 20
l-13 -59q-31 -16 -71.5 -26t-87.5 -10z" />
    <glyph glyph-name="uni01F8" unicode="&#x1f8;" horiz-adv-x="1552" 
d="M-56 0l14 65h150q14 0 28.5 9t18.5 30l242 1138q5 21 -5.5 30t-24.5 9h-151l14 65h371l580 -1085l208 981q5 21 -5.5 30t-24.5 9h-160l14 65h475l-14 -65h-150q-14 0 -28 -9t-19 -30l-264 -1242h-105l-642 1185l-229 -1081q-5 -21 5.5 -30t24.5 -9h160l-14 -65h-469z
M951 1459l-242 271h208l119 -271h-85z" />
    <glyph glyph-name="uni01F9" unicode="&#x1f9;" horiz-adv-x="1179" 
d="M907 -18q-51 0 -89.5 15t-59.5 49.5t-21 92.5q0 21 3 47t9 51l84 405q4 21 6.5 38.5t2.5 34.5q0 58 -28.5 97.5t-93.5 39.5q-59 0 -113 -34t-101.5 -89t-86.5 -118l-132 -611h-189l157 725q5 24 7.5 43t2.5 34q0 34 -14 50.5t-43 21.5l-80 13l12 53l339 24l-41 -247
q42 62 96.5 120t124.5 95t155 37q111 0 165.5 -58t54.5 -166q0 -29 -4 -62t-12 -68l-85 -390q-3 -17 -5 -32t-2 -29q0 -55 36 -81.5t120 -26.5l-12 -55q-35 -9 -75.5 -14t-87.5 -5zM710 1109l-241 271h208l119 -271h-86z" />
    <glyph glyph-name="Aringacute" unicode="&#x1fa;" horiz-adv-x="1333" 
d="M-104 0l13 65h113q15 0 28 8t27 32l722 1241h113l183 -1241q4 -23 14 -31.5t29 -8.5h109l-13 -65h-528l13 65h137q17 0 30.5 9t11.5 37l-141 1076l36 13l-617 -1083q-18 -31 -8 -41.5t28 -10.5h150l-14 -65h-436zM329 463l22 75h649l-21 -75h-650zM863 1256
q-85 0 -145.5 57.5t-60.5 141.5q0 87 59.5 146.5t146.5 59.5q85 0 144.5 -58t59.5 -144t-59.5 -144.5t-144.5 -58.5zM863 1347q46 0 78 32.5t32 79.5t-32 79.5t-78 32.5q-47 0 -79 -32.5t-32 -79.5t32 -79.5t79 -32.5zM782 1693l236 271h220l-357 -271h-99z" />
    <glyph glyph-name="aringacute" unicode="&#x1fb;" horiz-adv-x="1174" 
d="M390 -17q-137 0 -222 89t-85 254q0 115 35.5 230t104 210t167 152.5t222.5 57.5q89 0 157 -45t97 -103l48 130h168l-154 -718q-3 -20 -5.5 -37.5t-2.5 -31.5q0 -58 36 -84.5t121 -26.5l-12 -55q-36 -9 -70.5 -14t-82.5 -5q-93 0 -137.5 48.5t-47.5 128.5
q-59 -77 -143.5 -128.5t-193.5 -51.5zM452 78q91 0 167 54t125 131l99 471q-20 58 -73.5 105t-133.5 47q-74 0 -132.5 -39.5t-101 -104t-71 -140.5t-42 -151.5t-13.5 -135.5q0 -114 46 -175.5t130 -61.5zM698 1079q-92 0 -150.5 55.5t-58.5 147.5q0 90 58.5 145.5
t150.5 55.5t150.5 -55.5t58.5 -145.5q0 -92 -58.5 -147.5t-150.5 -55.5zM698 1153q56 0 91 36t35 93t-35 92.5t-91 35.5q-55 0 -90 -35.5t-35 -92.5t35 -93t90 -36zM642 1519l236 271h220l-357 -271h-99z" />
    <glyph glyph-name="AEacute" unicode="&#x1fc;" horiz-adv-x="1872" 
d="M-104 0l13 65h121q20 0 34.5 11t27.5 30l793 1086q8 11 16.5 26t10.5 28q8 35 -28 35h-154l14 65h1188l-59 -339h-92q7 63 -1 123.5t-33.5 100t-72.5 39.5h-382l-115 -541h525l-17 -76h-525l-122 -577h388q51 0 92.5 31t73 78.5t55.5 99.5t40 94h91l-101 -379h-1049
l14 65h151q14 0 28.5 9t18.5 30l75 357h-460l-200 -281q-21 -29 -35 -52t-16 -37q-4 -16 6.5 -21t21.5 -5h171l-14 -65h-493zM510 538h423l154 731h-53zM1234 1459l236 271h220l-357 -271h-99z" />
    <glyph glyph-name="aeacute" unicode="&#x1fd;" horiz-adv-x="1752" 
d="M383 -17q-126 0 -213 89t-87 258q0 113 35.5 227t103.5 209t164.5 152.5t218.5 57.5q92 0 161 -45t101 -103l41 130h90l-64 -453l-111 -505h-96l8 165q-36 -45 -86 -86.5t-116 -68.5t-150 -27zM453 78q62 0 115.5 27t96 67.5t72.5 81.5l102 490q-23 51 -76 96.5
t-134 45.5q-72 0 -129.5 -40t-99.5 -105t-69.5 -141.5t-41 -151t-13.5 -133.5q0 -114 46.5 -175.5t130.5 -61.5zM1190 -17q-138 0 -228.5 51t-135 142.5t-44.5 209.5q0 112 35 217t104.5 188.5t173.5 133t241 49.5q154 0 236 -58t82 -157q0 -68 -37.5 -128.5t-120.5 -106.5
t-218 -72t-329 -26l19 35q-3 -15 -5 -39t-2 -50q0 -128 55.5 -216t187.5 -88q105 0 179.5 61.5t101.5 188.5h134q-37 -160 -149.5 -247.5t-279.5 -87.5zM968 493l-17 7q260 0 394 76.5t134 192.5q0 61 -40 97.5t-118 36.5q-84 0 -154.5 -46t-121 -137t-77.5 -227zM906 1092
l236 271h220l-357 -271h-99z" />
    <glyph glyph-name="Oslashacute" unicode="&#x1fe;" horiz-adv-x="1507" 
d="M72 -52l-51 53l1488 1395l49 -52zM694 -19q-177 0 -302 71t-191 198t-66 295q0 143 42 288.5t132.5 266t235 193.5t350.5 73q178 0 302 -71.5t189.5 -199t65.5 -295.5q0 -142 -41 -286t-130.5 -264.5t-234.5 -194.5t-352 -74zM705 54q114 0 201.5 52.5t150 139.5
t102.5 193t58.5 215t18.5 204q0 126 -37 224.5t-114.5 154.5t-197.5 56q-118 0 -206.5 -52t-151 -138.5t-101.5 -193t-57 -215t-18 -203.5q0 -125 37 -224t115 -156t200 -57zM867 1459l236 271h220l-357 -271h-99z" />
    <glyph glyph-name="oslashacute" unicode="&#x1ff;" horiz-adv-x="1102" 
d="M475 -16q-180 0 -280.5 110.5t-100.5 287.5q0 99 30 202.5t94 192.5t166 144t247 55q181 0 279.5 -110t98.5 -288q0 -102 -31 -206.5t-95 -192.5t-165 -141.5t-243 -53.5zM483 53q77 0 134.5 40.5t97 106t64 142.5t35.5 151t11 131q0 122 -48.5 202.5t-153.5 80.5
q-77 0 -134.5 -39.5t-97.5 -103t-64.5 -138.5t-35.5 -148t-11 -130q0 -82 21.5 -149t66.5 -106.5t115 -39.5zM151 -59l-54 45l856 1026l54 -43zM567 1092l236 271h220l-357 -271h-99z" />
    <glyph glyph-name="uni0218" unicode="&#x218;" horiz-adv-x="1156" 
d="M541 -17q-91 0 -173 20t-143 50.5t-91 62.5l-25 -128h-81l63 412h101q3 -101 46 -178.5t120.5 -121t185.5 -43.5q143 0 217 79.5t74 203.5q0 62 -27 110t-89 90t-167 87q-100 43 -173.5 95t-113.5 120.5t-40 161.5q0 121 60.5 201t163.5 120t230 40q120 0 214 -36
t134 -74l20 90h80l-51 -350h-106q-8 131 -83.5 213t-215.5 82q-79 0 -137.5 -27t-91.5 -78.5t-33 -125.5q0 -54 25 -99t83 -86.5t157 -85.5q118 -51 196.5 -105t117.5 -123.5t39 -166.5q0 -136 -63 -227.5t-173 -137t-250 -45.5zM321 -400l-13 45q46 15 79 43t51 65
q-40 4 -60.5 32t-12.5 67q7 37 35 58t76 21t76.5 -33t15.5 -97q-17 -79 -88.5 -131.5t-158.5 -69.5z" />
    <glyph glyph-name="uni0219" unicode="&#x219;" horiz-adv-x="991" 
d="M442 -18q-116 0 -206.5 35t-140.5 107.5t-45 185.5h182q-2 -142 57.5 -201.5t160.5 -59.5q97 0 152.5 49t55.5 129q0 57 -45.5 106.5t-163.5 98.5q-140 58 -210.5 127.5t-70.5 158.5q0 69 30.5 118t82.5 79.5t119 44.5t141 14q112 0 196.5 -35t131 -101t41.5 -158h-182
q2 106 -47.5 166.5t-151.5 60.5q-73 0 -125 -35t-52 -108q0 -59 53.5 -106.5t173.5 -95.5q141 -57 202.5 -130t61.5 -159q0 -102 -53 -166.5t-143.5 -94.5t-204.5 -30zM272 -400l-13 45q46 15 79 43t51 65q-40 4 -60.5 32t-12.5 67q7 37 35 58t76 21t76.5 -33t15.5 -97
q-17 -79 -88.5 -131.5t-158.5 -69.5z" />
    <glyph glyph-name="uni021A" unicode="&#x21a;" horiz-adv-x="1219" 
d="M200 0l14 65h168q14 0 28.5 9t18.5 30l248 1169h-192q-50 -1 -96.5 -41.5t-82.5 -102t-56 -128.5h-91l85 345h1100l-61 -345h-91q7 67 -2.5 128.5t-38 102t-79.5 41.5h-191l-248 -1169q-4 -21 6 -30t24 -9h168l-14 -65h-617zM337 -400l-13 45q46 15 79 43t51 65
q-40 4 -60.5 32t-12.5 67q7 37 35 58t76 21t76.5 -33t15.5 -97q-17 -79 -88.5 -131.5t-158.5 -69.5z" />
    <glyph glyph-name="uni021B" unicode="&#x21b;" horiz-adv-x="673" 
d="M361 -11q-141 0 -195 76t-18 247l121 571h-163l16 75h165l50 234l190 16l-53 -250h249l-17 -75h-248l-125 -588q-16 -76 -11.5 -127t44 -77t126.5 -26h64l-14 -63q-36 -5 -80.5 -9t-100.5 -4zM103 -400l-13 45q46 15 79 43t51 65q-40 4 -60.5 32t-12.5 67q7 37 35 58
t76 21t76.5 -33t15.5 -97q-17 -79 -88.5 -131.5t-158.5 -69.5z" />
    <glyph glyph-name="uni0232" unicode="&#x232;" horiz-adv-x="1295" 
d="M244 0l13 65h151q14 0 29 9t19 30l100 475l-235 638q-12 33 -28.5 48.5t-49.5 15.5h-55l14 65h521l-14 -65h-131q-37 0 -44 -29q-2 -10 1 -28t8 -33l184 -536l425 529q16 20 27.5 38t13.5 30q6 29 -30 29h-120l14 65h406l-14 -65h-48q-34 0 -72.5 -22.5t-79.5 -72.5
l-486 -594l-103 -488q-5 -21 5 -30t24 -9h151l-14 -65h-582zM602 1539l20 98h550l-21 -98h-549z" />
    <glyph glyph-name="uni0233" unicode="&#x233;" horiz-adv-x="969" 
d="M-200 -366l17 65q89 0 170.5 30.5t158 88t152.5 138.5l32 33l-137 742q-9 51 -15.5 79.5t-19 43t-38.5 20.5l-62 13l12 53l276 23l140 -829q146 178 224.5 357t85.5 365q0 23 -1.5 48t-4.5 51h179q-4 -120 -47 -239.5t-113.5 -236t-156.5 -229t-173 -219.5
q-86 -103 -150.5 -178t-126 -123.5t-133.5 -72t-173 -23.5h-96zM340 1189l21 98h550l-21 -98h-550z" />
    <glyph glyph-name="uni0237" unicode="&#x237;" horiz-adv-x="562" 
d="M-197 -359l12 58q77 0 130 29t87.5 92.5t58.5 169.5l165 735q17 76 5.5 108.5t-54.5 40.5l-79 13l12 53l356 24l-215 -982q-30 -137 -83.5 -211t-135 -102t-197.5 -28h-62z" />
    <glyph glyph-name="uni0253" unicode="&#x253;" horiz-adv-x="1144" 
d="M555 -18q-98 0 -170 46t-107 102l-48 -130h-167l238 1130q27 125 81.5 193t134.5 95.5t180 27.5h98l-12 -58q-124 0 -192 -56t-96 -188l-70 -337q58 71 139.5 117.5t186.5 46.5q138 0 222.5 -89t84.5 -261q0 -77 -17.5 -164.5t-54.5 -171t-96.5 -152.5t-142.5 -110
t-192 -41zM523 72q73 0 129 40.5t97 106t67.5 142t39.5 150.5t13 130q0 114 -46.5 174.5t-130.5 60.5q-91 0 -165 -50t-123 -118l-103 -484q24 -53 80 -102.5t142 -49.5z" />
    <glyph glyph-name="uni0254" unicode="&#x254;" horiz-adv-x="1093" 
d="M466 -16q-168 0 -266.5 95.5t-111.5 251.5h188q5 -78 27 -141t64.5 -100t107.5 -37q74 0 130 41t95.5 107t64.5 143t36.5 151t11.5 129q0 122 -48.5 202.5t-151.5 80.5q-102 0 -174.5 -73t-115.5 -207h-193q62 176 192 262.5t299 86.5q181 0 279.5 -110t98.5 -288
q0 -102 -30.5 -206.5t-95 -192.5t-165.5 -141.5t-242 -53.5z" />
    <glyph glyph-name="uni0256" unicode="&#x256;" horiz-adv-x="1174" 
d="M935 -358q-124 0 -194.5 42t-70.5 160q0 24 3 53t10 62l44 204q-59 -77 -143.5 -128.5t-193.5 -51.5q-137 0 -222 89t-85 254q0 113 35 228t102.5 210.5t164.5 153.5t219 58q93 0 162.5 -45t99.5 -103l81 381q5 22 7.5 40.5t2.5 32.5q0 35 -14.5 52t-44.5 22l-79 14
l12 53l355 23l-326 -1502q-6 -26 -9 -49t-3 -43q0 -82 48.5 -116.5t148.5 -34.5l-12 -59h-98zM452 78q91 0 167 54t125 131l99 471q-20 58 -73.5 105t-133.5 47q-74 0 -132.5 -39.5t-101 -104t-71 -140.5t-42 -151.5t-13.5 -135.5q0 -114 46 -175.5t130 -61.5z" />
    <glyph glyph-name="uni0257" unicode="&#x257;" horiz-adv-x="1174" 
d="M390 -17q-137 0 -222 89t-85 254q0 113 35 228t102.5 210.5t164.5 153.5t219 58q93 0 162.5 -45t99.5 -103l64 302q26 125 80 193t133.5 95.5t180.5 27.5h98l-12 -58q-125 0 -192.5 -56t-95.5 -188l-194 -904q-3 -20 -5.5 -37.5t-2.5 -31.5q0 -58 36 -84.5t121 -26.5
l-12 -55q-36 -9 -70.5 -14t-82.5 -5q-93 0 -137.5 48.5t-47.5 128.5q-59 -77 -143.5 -128.5t-193.5 -51.5zM452 78q91 0 167 54t125 131l99 471q-20 58 -73.5 105t-133.5 47q-74 0 -132.5 -39.5t-101 -104t-71 -140.5t-42 -151.5t-13.5 -135.5q0 -114 46 -175.5t130 -61.5z
" />
    <glyph glyph-name="uni0259" unicode="&#x259;" horiz-adv-x="1064" 
d="M415 -17q-153 0 -235.5 58t-82.5 157q0 68 37.5 128.5t119.5 106.5t216 72t327 26l-19 -35q3 15 5 39t2 50q0 129 -54 216.5t-184 87.5q-104 0 -178.5 -61t-101.5 -189h-135q37 160 150 247.5t279 87.5q138 0 228.5 -51t135 -142t44.5 -210q0 -111 -35 -216.5
t-104.5 -189t-173.5 -133t-241 -49.5zM430 54q83 0 152 46t119.5 137t76.5 226l17 -6q-257 0 -390 -76t-133 -193q0 -61 40 -97.5t118 -36.5z" />
    <glyph glyph-name="uni025B" unicode="&#x25b;" horiz-adv-x="1017" 
d="M425 -16q-127 0 -216.5 39t-129 111t-18.5 169q14 68 60 112.5t110 70t132 32.5q-93 23 -135.5 94t-24.5 155q12 54 52 102t120 77t211 29q121 0 199 -35.5t113.5 -96.5t30.5 -140h-171q5 80 -39 141t-143 61q-94 0 -139.5 -44t-60.5 -111q-18 -84 23 -142.5t122 -58.5
h137l-15 -71h-142q-109 0 -175.5 -52t-84.5 -133q-23 -109 28 -173.5t166 -64.5q122 0 202.5 57t113.5 190h131q-46 -165 -158 -241.5t-299 -76.5z" />
    <glyph glyph-name="uni0263" unicode="&#x263;" horiz-adv-x="1017" 
d="M351 -361q-81 0 -115 54t-16 141q13 59 51 127t111 171l-180 710q-8 30 -16 43.5t-26 13.5h-88l13 59h476l-12 -59h-111q-20 0 -36.5 -13.5t-9.5 -43.5l129 -527l378 527q20 29 10 43t-29 14h-100l13 59h344l-13 -59h-69q-22 0 -37.5 -14.5t-39.5 -46.5l-436 -607
q20 -83 31 -150.5t11 -125.5t-13 -115q-19 -93 -79 -147t-141 -54zM337 -293q28 0 45.5 26.5t25.5 61.5q11 52 8 115t-15 132q-47 -71 -73.5 -122t-36.5 -99q-11 -52 1 -83t45 -31z" />
    <glyph glyph-name="uni0283" unicode="&#x283;" horiz-adv-x="538" 
d="M-125 -369q-135 0 -190 63t-48 148h183q-8 -72 4.5 -113.5t62.5 -41.5q58 2 102 66.5t74 211.5l233 1102q31 146 87.5 228t132.5 116t166 34q135 0 190 -63t48 -148h-183q8 72 -4 113.5t-63 40.5q-57 0 -100 -65t-74 -213l-235 -1101q-31 -146 -87.5 -228.5t-132.5 -116
t-166 -33.5z" />
    <glyph glyph-name="uni028B" unicode="&#x28b;" horiz-adv-x="1185" 
d="M514 -9q-182 0 -270.5 70.5t-88.5 205.5q0 28 4 59.5t11 66.5l74 332q5 24 8 43t3 34q0 34 -14.5 50.5t-43.5 21.5l-80 13l12 53l355 26l-131 -610q-6 -30 -9 -56t-3 -50q0 -97 48.5 -143t132.5 -46q87 0 141.5 32t86 92t49.5 142l71 333q5 29 8.5 53.5t3.5 45.5
q0 78 -43 111.5t-134 33.5l12 59h78q126 0 201 -43.5t75 -164.5q0 -23 -3 -50t-10 -58l-64 -298q-38 -178 -152 -268t-328 -90z" />
    <glyph glyph-name="uni0292" unicode="&#x292;" horiz-adv-x="1021" 
d="M364 -377q-214 0 -319 103t-90 260l157 1q-5 -76 21.5 -143.5t85.5 -108.5t151 -41q120 0 194.5 75t103.5 212q24 116 -6.5 204t-112.5 137t-211 49h-15l11 51l468 476h-565l12 60h761l-10 -47l-472 -480q71 -8 138 -41t116 -90.5t69 -140t-4 -190.5q-35 -168 -165 -257
t-318 -89zM170 682l79 276l253 -60q-72 0 -123.5 -33.5t-87.5 -84t-62 -98.5h-59z" />
    <glyph glyph-name="circumflex" unicode="&#x2c6;" horiz-adv-x="1130" 
d="M232 1109l260 271h185l149 -271h-95l-162 172l-233 -172h-104z" />
    <glyph glyph-name="caron" unicode="&#x2c7;" horiz-adv-x="1130" 
d="M441 1109l-146 271h93l167 -172l242 172h93l-264 -271h-185z" />
    <glyph glyph-name="breve" unicode="&#x2d8;" horiz-adv-x="1130" 
d="M550 1115q-120 0 -182.5 68.5t-55.5 189.5h104q-2 -52 17.5 -83t53 -44.5t74.5 -13.5q61 0 120.5 32.5t85.5 108.5h102q-37 -119 -118.5 -188.5t-200.5 -69.5z" />
    <glyph glyph-name="dotaccent" unicode="&#x2d9;" horiz-adv-x="1130" 
d="M564 1147q-53 0 -84 30t-31 75q0 43 31 73.5t84 30.5q51 0 81.5 -30.5t30.5 -73.5q0 -45 -30.5 -75t-81.5 -30z" />
    <glyph glyph-name="ring" unicode="&#x2da;" horiz-adv-x="1130" 
d="M525 1079q-92 0 -150.5 55.5t-58.5 147.5q0 90 58.5 145.5t150.5 55.5t150.5 -55.5t58.5 -145.5q0 -92 -58.5 -147.5t-150.5 -55.5zM525 1153q56 0 91 36t35 93t-35 92.5t-91 35.5q-55 0 -90 -35.5t-35 -92.5t35 -93t90 -36z" />
    <glyph glyph-name="ogonek" unicode="&#x2db;" horiz-adv-x="1130" 
d="M525 -376q-79 0 -122.5 43t-26.5 118q16 79 101.5 148.5t209.5 99.5l34 -28q-91 -42 -140 -99.5t-61 -114.5q-10 -48 6 -73.5t61 -25.5q23 0 52.5 7t57.5 20l-13 -59q-31 -16 -71.5 -26t-87.5 -10z" />
    <glyph glyph-name="tilde" unicode="&#x2dc;" horiz-adv-x="1130" 
d="M229 1130q24 109 76 158.5t119 49.5q45 0 80.5 -14t67.5 -30q32 -15 56.5 -25t49.5 -10q31 0 52 20t34 63h83q-28 -105 -73 -153t-111 -48q-45 0 -77.5 12t-69.5 29q-33 16 -58.5 26.5t-52.5 10.5q-32 0 -56 -21t-39 -68h-81z" />
    <glyph glyph-name="hungarumlaut" unicode="&#x2dd;" horiz-adv-x="1130" 
d="M272 1109l235 271h220l-356 -271h-99zM591 1109l236 271h220l-357 -271h-99z" />
    <glyph glyph-name="gravecomb" unicode="&#x300;" horiz-adv-x="0" 
d="M525 1109l-241 271h208l119 -271h-86z" />
    <glyph glyph-name="acutecomb" unicode="&#x301;" horiz-adv-x="0" 
d="M438 1109l236 271h220l-357 -271h-99z" />
    <glyph glyph-name="uni0302" unicode="&#x302;" horiz-adv-x="0" 
d="M232 1109l260 271h185l149 -271h-95l-162 172l-233 -172h-104z" />
    <glyph glyph-name="tildecomb" unicode="&#x303;" horiz-adv-x="0" 
d="M229 1130q24 109 76 158.5t119 49.5q45 0 80.5 -14t67.5 -30q32 -15 56.5 -25t49.5 -10q31 0 52 20t34 63h83q-28 -105 -73 -153t-111 -48q-45 0 -77.5 12t-69.5 29q-33 16 -58.5 26.5t-52.5 10.5q-32 0 -56 -21t-39 -68h-81z" />
    <glyph glyph-name="uni0304" unicode="&#x304;" horiz-adv-x="0" 
d="M280 1189l21 98h550l-21 -98h-550z" />
    <glyph glyph-name="uni0306" unicode="&#x306;" horiz-adv-x="0" 
d="M550 1115q-120 0 -182.5 68.5t-55.5 189.5h104q-2 -52 17.5 -83t53 -44.5t74.5 -13.5q61 0 120.5 32.5t85.5 108.5h102q-37 -119 -118.5 -188.5t-200.5 -69.5z" />
    <glyph glyph-name="uni0307" unicode="&#x307;" horiz-adv-x="0" 
d="M564 1147q-53 0 -84 30t-31 75q0 43 31 73.5t84 30.5q51 0 81.5 -30.5t30.5 -73.5q0 -45 -30.5 -75t-81.5 -30z" />
    <glyph glyph-name="uni0308" unicode="&#x308;" horiz-adv-x="0" 
d="M725 1141q-39 0 -67 27.5t-28 67.5t28 67.5t67 27.5q38 0 66 -27.5t28 -67.5t-28 -67.5t-66 -27.5zM367 1141q-39 0 -67 27.5t-28 67.5t28 67.5t67 27.5q38 0 65.5 -27.5t27.5 -67.5t-27.5 -67.5t-65.5 -27.5z" />
    <glyph glyph-name="hookabovecomb" unicode="&#x309;" horiz-adv-x="0" 
d="M534 1152l-38 63q26 8 47 26t26 45q7 37 -16.5 49t-72.5 12h-15l15 87h35q124 0 179.5 -32.5t43.5 -103.5q-10 -59 -67 -97.5t-137 -48.5zM496 1215l86 -20l-16 -89h-88z" />
    <glyph glyph-name="uni030A" unicode="&#x30a;" horiz-adv-x="0" 
d="M525 1079q-92 0 -150.5 55.5t-58.5 147.5q0 90 58.5 145.5t150.5 55.5t150.5 -55.5t58.5 -145.5q0 -92 -58.5 -147.5t-150.5 -55.5zM525 1153q56 0 91 36t35 93t-35 92.5t-91 35.5q-55 0 -90 -35.5t-35 -92.5t35 -93t90 -36z" />
    <glyph glyph-name="uni030B" unicode="&#x30b;" horiz-adv-x="0" 
d="M272 1109l235 271h220l-356 -271h-99zM591 1109l236 271h220l-357 -271h-99z" />
    <glyph glyph-name="uni030C" unicode="&#x30c;" horiz-adv-x="0" 
d="M441 1109l-146 271h93l167 -172l242 172h93l-264 -271h-185z" />
    <glyph glyph-name="uni0312" unicode="&#x312;" horiz-adv-x="0" 
d="M102 1118q-47 0 -78.5 35.5t-18.5 101.5q12 51 50.5 91t93 68t111.5 39l15 -50q-38 -15 -74.5 -38.5t-57.5 -62.5q42 -6 62 -34t12 -67q-7 -37 -36.5 -60t-78.5 -23z" />
    <glyph glyph-name="uni031B" unicode="&#x31b;" horiz-adv-x="0" 
d="M-84 704l-18 93q60 24 110.5 67.5t72.5 104.5l8 -11q-55 4 -83 46.5t-17 101.5q11 48 46 73.5t80 25.5q70 0 104 -48t16 -136q-17 -87 -67 -149.5t-116.5 -103.5t-135.5 -64z" />
    <glyph glyph-name="dotbelowcomb" unicode="&#x323;" horiz-adv-x="0" 
d="M-1 -301q-53 0 -84 30t-31 75q0 43 31 73.5t84 30.5q51 0 81.5 -30.5t30.5 -73.5q0 -45 -30.5 -75t-81.5 -30z" />
    <glyph glyph-name="uni0326" unicode="&#x326;" horiz-adv-x="0" 
d="M434 -400l-13 45q46 15 79 43t51 65q-40 4 -60.5 32t-12.5 67q7 37 35 58t76 21t76.5 -33t15.5 -97q-17 -79 -88.5 -131.5t-158.5 -69.5z" />
    <glyph glyph-name="uni0327" unicode="&#x327;" horiz-adv-x="0" 
d="M521 -377q-63 0 -106 10.5t-78 25.5l37 82q27 -15 67.5 -27t83.5 -12q36 0 63 15t34 52q7 42 -18 66.5t-101 35.5l-43 5l157 168l63 -42l-84 -89l-27 22q100 -4 149 -53.5t33 -127.5q-15 -75 -80 -103t-150 -28z" />
    <glyph glyph-name="uni0328" unicode="&#x328;" horiz-adv-x="0" 
d="M525 -376q-79 0 -122.5 43t-26.5 118q16 79 101.5 148.5t209.5 99.5l34 -28q-91 -42 -140 -99.5t-61 -114.5q-10 -48 6 -73.5t61 -25.5q23 0 52.5 7t57.5 20l-13 -59q-31 -16 -71.5 -26t-87.5 -10z" />
    <glyph glyph-name="uni0335" unicode="&#x335;" horiz-adv-x="0" 
d="M6 381l25 116h552l-25 -116h-552z" />
    <glyph glyph-name="uni0336" unicode="&#x336;" horiz-adv-x="0" 
d="M24 602l34 163h723l-34 -163h-723z" />
    <glyph glyph-name="uni0345" unicode="&#x345;" horiz-adv-x="0" 
d="M29 -358q-106 0 -126 50t-3 130l26 123h141l-23 -105q-7 -36 -3.5 -60t47.5 -24h30l-25 -114h-64z" />
    <glyph glyph-name="uni0370" unicode="&#x370;" horiz-adv-x="933" 
d="M-56 0l14 65h150q14 0 28.5 9t18.5 30l242 1138q5 21 -5.5 30t-24.5 9h-151l14 65h592l-14 -65h-160q-14 0 -28 -9t-19 -30l-105 -495h446l-16 -77h-447l-120 -566q-4 -21 6.5 -30t23.5 -9h160l-13 -65h-592z" />
    <glyph glyph-name="uni0371" unicode="&#x371;" horiz-adv-x="752" 
d="M-61 0l12 58h123q13 0 26.5 8t17.5 28l163 769q5 20 -5 28t-23 8h-122l12 59h510l-11 -59h-126q-13 0 -26 -8t-18 -28l-163 -769q-4 -20 5.5 -28t22.5 -8h125l-12 -58h-511zM368 529h366l-15 -69h-366z" />
    <glyph glyph-name="uni0372" unicode="&#x372;" horiz-adv-x="1219" 
d="M200 0l14 65h168q14 0 28.5 9t18.5 30l248 1169h-192q-50 -1 -96.5 -41.5t-82.5 -102t-56 -128.5h-91l85 345h1100l-61 -345h-91q7 67 -2.5 128.5t-38 102t-79.5 41.5h-191l-248 -1169q-4 -21 6 -30t24 -9h168l-14 -65h-617z" />
    <glyph glyph-name="uni0373" unicode="&#x373;" horiz-adv-x="975" 
d="M129 0l13 58h124q13 0 26.5 8t17.5 28l275 1290h-80q-63 -1 -109.5 -42t-78 -98t-48.5 -105h-82l85 307h842l-46 -307h-81q1 48 -5.5 105t-35.5 98.5t-93 41.5h-79l-273 -1290q-5 -20 5 -28t22 -8h125l-13 -58h-511z" />
    <glyph glyph-name="uni0374" unicode="&#x374;" horiz-adv-x="506" 
d="M193 1109l236 271h220l-357 -271h-99z" />
    <glyph glyph-name="uni0375" unicode="&#x375;" horiz-adv-x="506" 
d="M-75 -136l236 271h220l-357 -271h-99z" />
    <glyph glyph-name="uni0376" unicode="&#x376;" horiz-adv-x="1556" 
d="M936 0l14 65h160q13 0 27.5 8t19.5 28l228 1076l-1144 -1177h-105l264 1243q5 21 -5.5 29.5t-24.5 8.5h-150l13 65h476l-14 -65h-160q-13 0 -27.5 -8t-19.5 -28l-204 -960l1032 1061h375l-13 -65h-151q-13 0 -27.5 -7.5t-18.5 -28.5l-243 -1142q-4 -21 6.5 -29.5
t24.5 -8.5h150l-14 -65h-469z" />
    <glyph glyph-name="uni0377" unicode="&#x377;" horiz-adv-x="1293" 
d="M738 0l12 58h145q11 0 23 6.5t15 21.5l157 739l-893 -825h-88l185 872q3 16 -5.5 22t-20.5 6h-137l12 58h418l-12 -58h-145q-12 0 -24 -6t-15 -22l-140 -659l801 745h328l-12 -58h-138q-11 0 -22.5 -6t-15.5 -22l-166 -786q-4 -15 5 -21.5t20 -6.5h137l-12 -58h-412z" />
    <glyph glyph-name="uni037A" unicode="&#x37a;" horiz-adv-x="1229" 
d="M271 -358q-106 0 -126 50t-3 130l26 123h141l-23 -105q-7 -36 -3.5 -60t47.5 -24h30l-25 -114h-64z" />
    <glyph glyph-name="uni037B" unicode="&#x37b;" horiz-adv-x="1032" 
d="M409 -18q-173 0 -255.5 87.5t-82.5 238.5h108q0 -115 53 -185.5t172 -70.5q125 0 207 98t124 297q45 211 -9 327.5t-184 116.5q-117 0 -192 -63.5t-106 -182.5h-111q43 166 156.5 247.5t277.5 81.5q136 0 228.5 -68.5t127.5 -193.5t-1 -294q-46 -215 -184 -325.5
t-329 -110.5z" />
    <glyph glyph-name="uni037C" unicode="&#x37c;" horiz-adv-x="1033" 
d="M466 -18q-136 0 -228.5 69t-127 194t0.5 293q46 216 184 326t329 110q173 0 255.5 -87t82.5 -239h-108q0 116 -53 186.5t-172 70.5q-124 0 -206.5 -98.5t-124.5 -296.5q-45 -211 9 -327.5t184 -116.5q118 0 192.5 63t105.5 182h111q-43 -166 -156 -247.5t-278 -81.5z
M569 412q-46 0 -74 26.5t-28 66.5t28 66.5t74 26.5t73.5 -26.5t27.5 -66.5t-27.5 -66.5t-73.5 -26.5z" />
    <glyph glyph-name="uni037D" unicode="&#x37d;" horiz-adv-x="1032" 
d="M409 -18q-173 0 -255.5 87.5t-82.5 238.5h108q0 -115 53 -185.5t172 -70.5q125 0 207 98t124 297q45 211 -9 327.5t-184 116.5q-117 0 -192 -63.5t-106 -182.5h-111q43 166 156.5 247.5t277.5 81.5q136 0 228.5 -68.5t127.5 -193.5t-1 -294q-46 -215 -184 -325.5
t-329 -110.5zM465 412q-47 0 -74 26.5t-27 66.5t27 66.5t74 26.5q46 0 73.5 -26.5t27.5 -66.5t-27.5 -66.5t-73.5 -26.5z" />
    <glyph glyph-name="uni037E" unicode="&#x37e;" horiz-adv-x="566" 
d="M371 707q-59 0 -98 40t-39 94q0 60 39 97.5t98 37.5q60 0 99 -37.5t39 -97.5q0 -54 -39 -94t-99 -40zM5 -261l-21 57q73 26 132 78.5t87 125.5l7 -11q-69 4 -104 50.5t-21 112.5q12 50 47.5 78.5t87.5 28.5q74 0 110.5 -55t14.5 -159q-17 -87 -69 -146t-123.5 -97.5
t-147.5 -62.5z" />
    <glyph glyph-name="uni037F" unicode="&#x37f;" horiz-adv-x="965" 
d="M300 -18q-173 0 -245 77.5t-51 215.5h186q-17 -102 13.5 -161t101.5 -59q63 0 101 36t61.5 100.5t41.5 150.5l191 901q5 21 -6 29.5t-25 8.5h-150l14 65h582l-14 -65h-150q-14 0 -28.5 -7.5t-18.5 -28.5l-193 -910q-21 -99 -68.5 -179t-131 -127t-211.5 -47z" />
    <glyph glyph-name="tonos" unicode="&#x384;" horiz-adv-x="1130" 
d="M449 1109l114 314h201l-259 -314h-56z" />
    <glyph glyph-name="dieresistonos" unicode="&#x385;" horiz-adv-x="1130" 
d="M458 1102l109 314h201l-254 -314h-56zM344 1130q-42 0 -69 26t-27 66q0 41 27 67t69 26q40 0 67.5 -26t27.5 -67q0 -40 -27.5 -66t-67.5 -26zM800 1130q-40 0 -67.5 26t-27.5 66q0 41 27.5 67t67.5 26q41 0 68.5 -26t27.5 -67q0 -40 -27.5 -66t-68.5 -26z" />
    <glyph glyph-name="Alphatonos" unicode="&#x386;" horiz-adv-x="1333" 
d="M-104 0l13 65h113q15 0 28 8t27 32l722 1241h113l183 -1241q4 -23 14 -31.5t29 -8.5h109l-13 -65h-528l13 65h137q17 0 30.5 9t11.5 37l-141 1076l36 13l-617 -1083q-18 -31 -8 -41.5t28 -10.5h150l-14 -65h-436zM329 463l22 75h649l-21 -75h-650zM200 1032l115 314h201
l-260 -314h-56z" />
    <glyph glyph-name="anoteleia" unicode="&#x387;" horiz-adv-x="593" 
d="M305 386q-59 0 -98 39t-39 96q0 58 39 95.5t98 37.5t98 -37.5t39 -95.5q0 -57 -39 -96t-98 -39z" />
    <glyph glyph-name="Epsilontonos" unicode="&#x388;" horiz-adv-x="1187" 
d="M-56 0l14 65h150q13 0 27.5 7.5t19.5 28.5l242 1142q5 21 -6 29.5t-24 8.5h-151l14 65h1017l-60 -339h-91q8 64 -0.5 124t-34.5 99.5t-72 39.5h-382l-115 -541h524l-16 -76h-525l-122 -577h388q51 0 92.5 31t73.5 78t55.5 99.5t39.5 94.5h91l-100 -379h-1049zM-114 1032
l115 314h201l-260 -314h-56z" />
    <glyph glyph-name="Etatonos" unicode="&#x389;" horiz-adv-x="1558" 
d="M-56 0l14 65h150q13 0 27.5 7.5t19.5 28.5l242 1142q5 21 -6 29.5t-24 8.5h-151l14 65h592l-14 -65h-160q-13 0 -27.5 -7.5t-19.5 -28.5l-105 -497h678l105 495q5 21 -6 29.5t-24 8.5h-161l14 65h592l-14 -65h-150q-13 0 -27.5 -7.5t-19.5 -28.5l-242 -1142
q-4 -21 6.5 -29.5t23.5 -8.5h151l-14 -65h-592l14 65h160q13 0 27.5 8t19.5 28l121 572h-678l-121 -570q-4 -21 6.5 -29.5t23.5 -8.5h160l-13 -65h-592zM-115 1032l115 314h201l-260 -314h-56z" />
    <glyph glyph-name="Iotatonos" unicode="&#x38a;" horiz-adv-x="677" 
d="M-56 0l14 65h150q13 0 27.5 7.5t19.5 28.5l242 1142q5 21 -6 29.5t-24 8.5h-151l14 65h582l-14 -65h-150q-13 0 -27.5 -7.5t-19.5 -28.5l-242 -1142q-4 -21 6.5 -29.5t23.5 -8.5h151l-14 -65h-582zM-115 1032l115 314h201l-260 -314h-56z" />
    <glyph glyph-name="Omicrontonos" unicode="&#x38c;" horiz-adv-x="1507" 
d="M694 -19q-177 0 -302 71t-191 198t-66 295q0 143 42 288.5t132.5 266t235 193.5t350.5 73q178 0 302 -71.5t189.5 -199t65.5 -295.5q0 -142 -41 -286t-130.5 -264.5t-234.5 -194.5t-352 -74zM705 54q114 0 201.5 52.5t150 139.5t102.5 193t58.5 215t18.5 204
q0 126 -37 224.5t-114.5 154.5t-197.5 56q-118 0 -206.5 -52t-151 -138.5t-101.5 -193t-57 -215t-18 -203.5q0 -125 37 -224t115 -156t200 -57zM30 1032l115 314h201l-260 -314h-56z" />
    <glyph glyph-name="Upsilontonos" unicode="&#x38e;" horiz-adv-x="1295" 
d="M244 0l13 65h151q14 0 29 9t19 30l100 475l-235 638q-12 33 -28.5 48.5t-49.5 15.5h-55l14 65h521l-14 -65h-131q-37 0 -44 -29q-2 -10 1 -28t8 -33l184 -536l425 529q16 20 27.5 38t13.5 30q6 29 -30 29h-120l14 65h406l-14 -65h-48q-34 0 -72.5 -22.5t-79.5 -72.5
l-486 -594l-103 -488q-5 -21 5 -30t24 -9h151l-14 -65h-582zM-148 1032l115 314h201l-260 -314h-56z" />
    <glyph glyph-name="Omegatonos" unicode="&#x38f;" horiz-adv-x="1506" 
d="M530 109q-147 63 -229 179t-104 262t10 296q53 245 218.5 381.5t464.5 136.5q201 0 324.5 -83t168 -227t4.5 -328q-41 -195 -196 -358.5t-414 -258.5l-43 24q133 75 223 171t144 206t79 224q33 156 13.5 282.5t-96 201.5t-215.5 75t-233.5 -61.5t-152.5 -170.5t-88 -253
q-27 -126 -23 -253.5t51 -237t149 -184.5zM-10 0l27 337h91q-2 -46 6.5 -93t34.5 -79t76 -32h360l-29 -133h-566zM705 0l29 133h359q51 0 90 32t67 79t45 93h91l-115 -337h-566zM31 1032l115 314h201l-260 -314h-56z" />
    <glyph glyph-name="iotadieresistonos" unicode="&#x390;" horiz-adv-x="598" 
d="M344 -11q-138 0 -195.5 75t-21.5 243l138 651h189l-141 -662q-16 -74 -10.5 -125.5t45 -78.5t124.5 -27h41l-13 -63q-37 -5 -68.5 -9t-87.5 -4zM327 1102l109 314h201l-254 -314h-56zM213 1130q-42 0 -69 26t-27 66q0 41 27 67t69 26q40 0 67.5 -26t27.5 -67
q0 -40 -27.5 -66t-67.5 -26zM669 1130q-40 0 -67.5 26t-27.5 66q0 41 27.5 67t67.5 26q41 0 68.5 -26t27.5 -67q0 -40 -27.5 -66t-68.5 -26z" />
    <glyph glyph-name="Alpha" unicode="&#x391;" horiz-adv-x="1333" 
d="M-104 0l13 65h113q15 0 28 8t27 32l722 1241h113l183 -1241q4 -23 14 -31.5t29 -8.5h109l-13 -65h-528l13 65h137q17 0 30.5 9t11.5 37l-141 1076l36 13l-617 -1083q-18 -31 -8 -41.5t28 -10.5h150l-14 -65h-436zM329 463l22 75h649l-21 -75h-650z" />
    <glyph glyph-name="Beta" unicode="&#x392;" horiz-adv-x="1337" 
d="M-55 0l13 65h151q13 0 27.5 7.5t18.5 28.5l241 1137q2 6 2.5 11t0.5 9q0 13 -10 18t-22 5h-151l14 65l620 1q192 0 298.5 -79.5t106.5 -218.5q0 -133 -84 -221.5t-221 -116.5q122 -27 193 -99t71 -195q0 -109 -47 -187.5t-129 -129.5t-187 -75.5t-220 -24.5h-686zM353 74
h269q119 0 205 46.5t132.5 128t46.5 182.5q0 121 -71 179t-192 58h-265zM493 743h236q108 0 182.5 41t112.5 113.5t38 164.5q0 102 -61.5 155.5t-175.5 53.5h-219z" />
    <glyph glyph-name="Gamma" unicode="&#x393;" horiz-adv-x="1084" 
d="M-56 0l14 65h150q14 0 28.5 9t18.5 30l242 1138q5 21 -5.5 30t-24.5 9h-151l14 65h971l-60 -379h-92q3 44 1.5 96.5t-13.5 99t-40.5 77t-79.5 30.5h-311l-247 -1166q-4 -21 6.5 -30t23.5 -9h160l-13 -65h-592z" />
    <glyph glyph-name="uni0394" unicode="&#x394;" horiz-adv-x="1217" 
d="M-38 0l9 43l72 39h918l102 -39l-9 -43h-1092zM-29 43l782 1303h115l195 -1303l-189 -26l-176 1208l60 -2l-716 -1206z" />
    <glyph glyph-name="Epsilon" unicode="&#x395;" horiz-adv-x="1187" 
d="M-56 0l14 65h150q13 0 27.5 7.5t19.5 28.5l242 1142q5 21 -6 29.5t-24 8.5h-151l14 65h1017l-60 -339h-91q8 64 -0.5 124t-34.5 99.5t-72 39.5h-382l-115 -541h524l-16 -76h-525l-122 -577h388q51 0 92.5 31t73.5 78t55.5 99.5t39.5 94.5h91l-100 -379h-1049z" />
    <glyph glyph-name="Zeta" unicode="&#x396;" horiz-adv-x="1182" 
d="M-29 0l14 70l990 1197h-433q-43 0 -80 -31t-68 -77.5t-54.5 -98t-40.5 -93.5h-91l101 379h915l-13 -63l-996 -1204h517q47 0 88.5 31t75.5 77.5t60 98t41 93.5h92l-101 -379h-1017z" />
    <glyph glyph-name="Eta" unicode="&#x397;" horiz-adv-x="1558" 
d="M-56 0l14 65h150q13 0 27.5 7.5t19.5 28.5l242 1142q5 21 -6 29.5t-24 8.5h-151l14 65h592l-14 -65h-160q-13 0 -27.5 -7.5t-19.5 -28.5l-105 -497h678l105 495q5 21 -6 29.5t-24 8.5h-161l14 65h592l-14 -65h-150q-13 0 -27.5 -7.5t-19.5 -28.5l-242 -1142
q-4 -21 6.5 -29.5t23.5 -8.5h151l-14 -65h-592l14 65h160q13 0 27.5 8t19.5 28l121 572h-678l-121 -570q-4 -21 6.5 -29.5t23.5 -8.5h160l-13 -65h-592z" />
    <glyph glyph-name="Theta" unicode="&#x398;" horiz-adv-x="1507" 
d="M489 512l77 359h74q-4 -46 10.5 -86.5t60.5 -40.5h185q47 0 78.5 40.5t46.5 86.5h74l-77 -359h-74q5 47 -9 87t-61 40h-185q-46 0 -78 -40t-48 -87h-74zM694 -19q-177 0 -302 71t-191 198t-66 295q0 143 42 288.5t132.5 266t235 193.5t350.5 73q178 0 302 -71.5
t189.5 -199t65.5 -295.5q0 -142 -41 -286t-130.5 -264.5t-234.5 -194.5t-352 -74zM705 54q114 0 201.5 52.5t150 139.5t102.5 193t58.5 215t18.5 204q0 126 -37 224.5t-114.5 154.5t-197.5 56q-118 0 -206.5 -52t-151 -138.5t-101.5 -193t-57 -215t-18 -203.5
q0 -125 37 -224t115 -156t200 -57z" />
    <glyph glyph-name="Iota" unicode="&#x399;" horiz-adv-x="677" 
d="M-56 0l14 65h150q13 0 27.5 7.5t19.5 28.5l242 1142q5 21 -6 29.5t-24 8.5h-151l14 65h582l-14 -65h-150q-13 0 -27.5 -7.5t-19.5 -28.5l-242 -1142q-4 -21 6.5 -29.5t23.5 -8.5h151l-14 -65h-582z" />
    <glyph glyph-name="Kappa" unicode="&#x39a;" horiz-adv-x="1286" 
d="M-56 0l14 65h150q14 0 28.5 9t18.5 30l242 1138q5 21 -5.5 30t-24.5 9h-151l14 65h592l-14 -65h-160q-14 0 -28 -9t-19 -30l-117 -552l555 481q22 20 41.5 41.5t22.5 38.5q4 18 -6 24t-26 6h-116l14 65h445l-14 -65h-43q-50 0 -87 -19t-70 -47l-541 -470l370 -615
q22 -36 45 -50.5t63 -14.5h61l-14 -65h-308l-394 681l-123 -577q-4 -21 6.5 -30t23.5 -9h160l-13 -65h-592z" />
    <glyph glyph-name="Lambda" unicode="&#x39b;" horiz-adv-x="1318" 
d="M909 1345l182 -1244q3 -22 13.5 -29t28.5 -7h109l-13 -65h-528l14 65h134q18 0 32 11t10 51l-146 1052l44 13l-615 -1076q-18 -32 -8 -41.5t27 -9.5h151l-14 -65h-439l13 65h113q15 0 28 8.5t27 31.5l724 1240h113z" />
    <glyph glyph-name="Mu" unicode="&#x39c;" horiz-adv-x="1674" 
d="M-56 0l14 65h150q14 0 28.5 9t18.5 30l240 1131q6 27 -4 36.5t-24 9.5h-151l14 65h356l247 -825l583 825h394l-14 -65h-151q-13 0 -27.5 -9t-19.5 -30l-241 -1138q-5 -21 5.5 -30t24.5 -9h150l-14 -65h-589l14 65h160q14 0 28.5 9t18.5 30l226 1063l-620 -876h-57
l-249 843l-218 -1030q-5 -21 5.5 -30t24.5 -9h160l-14 -65h-469z" />
    <glyph glyph-name="Nu" unicode="&#x39d;" horiz-adv-x="1552" 
d="M-56 0l14 65h150q14 0 28.5 9t18.5 30l242 1138q5 21 -5.5 30t-24.5 9h-151l14 65h371l580 -1085l208 981q5 21 -5.5 30t-24.5 9h-160l14 65h475l-14 -65h-150q-14 0 -28 -9t-19 -30l-264 -1242h-105l-642 1185l-229 -1081q-5 -21 5.5 -30t24.5 -9h160l-14 -65h-469z" />
    <glyph glyph-name="Xi" unicode="&#x39e;" horiz-adv-x="1213" 
d="M-16 0l66 373h91q-4 -50 5 -105.5t36.5 -94.5t77.5 -39h548q50 0 93.5 39t76 94.5t49.5 105.5h91l-92 -373h-1042zM331 522l82 381h74q-3 -30 1.5 -62.5t20 -54.5t46.5 -22h233q31 0 56 22t43.5 54.5t28.5 62.5h74l-82 -381h-74q4 31 -0.5 63t-20.5 54t-47 22h-233
q-31 0 -56 -22t-43 -54t-29 -63h-74zM235 1023l82 323h948l-56 -323h-91q5 51 -5.5 97t-38.5 76t-76 30h-459q-48 0 -89.5 -30t-73 -76t-49.5 -97h-92z" />
    <glyph glyph-name="Omicron" unicode="&#x39f;" horiz-adv-x="1507" 
d="M694 -19q-177 0 -302 71t-191 198t-66 295q0 143 42 288.5t132.5 266t235 193.5t350.5 73q178 0 302 -71.5t189.5 -199t65.5 -295.5q0 -142 -41 -286t-130.5 -264.5t-234.5 -194.5t-352 -74zM705 54q114 0 201.5 52.5t150 139.5t102.5 193t58.5 215t18.5 204
q0 126 -37 224.5t-114.5 154.5t-197.5 56q-118 0 -206.5 -52t-151 -138.5t-101.5 -193t-57 -215t-18 -203.5q0 -125 37 -224t115 -156t200 -57z" />
    <glyph glyph-name="Pi" unicode="&#x3a0;" horiz-adv-x="1531" 
d="M-56 0l14 65h150q14 0 28.5 9t18.5 30l242 1138q5 21 -5.5 30t-24.5 9h-151l14 65h1437l-14 -65h-150q-14 0 -28 -9t-19 -30l-242 -1138q-4 -21 6 -30t24 -9h150l-13 -65h-592l14 65h160q14 0 28.5 9t18.5 30l248 1166h-652l-247 -1166q-4 -21 6.5 -30t23.5 -9h160
l-13 -65h-592z" />
    <glyph glyph-name="Rho" unicode="&#x3a1;" horiz-adv-x="1235" 
d="M-56 0l14 65h150q14 0 28.5 9t18.5 30l241 1132q1 5 1.5 9.5t0.5 7.5q0 15 -10 21.5t-21 6.5h-151l14 65h582q202 0 313 -92.5t111 -246.5q0 -143 -68.5 -242.5t-187 -151.5t-269.5 -52h-255l-97 -457q-1 -4 -1 -11q0 -15 10 -21.5t21 -6.5h189l-14 -65h-620zM473 632
h210q89 0 153 37t105 97.5t60.5 132t19.5 140.5q0 113 -59.5 175.5t-170.5 62.5h-182z" />
    <glyph glyph-name="Sigma" unicode="&#x3a3;" horiz-adv-x="1201" 
d="M-29 0l21 102l679 676l-71 -116l-309 622l13 62h948l-56 -325h-91q6 60 -3 117t-36 94.5t-75 37.5h-495l256 -519l-693 -683l23 79h716q47 0 91 40t78 97t52 109h91l-97 -393h-1042z" />
    <glyph glyph-name="Tau" unicode="&#x3a4;" horiz-adv-x="1219" 
d="M200 0l14 65h168q14 0 28.5 9t18.5 30l248 1169h-192q-50 -1 -96.5 -41.5t-82.5 -102t-56 -128.5h-91l85 345h1100l-61 -345h-91q7 67 -2.5 128.5t-38 102t-79.5 41.5h-191l-248 -1169q-4 -21 6 -30t24 -9h168l-14 -65h-617z" />
    <glyph glyph-name="Upsilon" unicode="&#x3a5;" horiz-adv-x="1295" 
d="M244 0l13 65h151q14 0 29 9t19 30l100 475l-235 638q-12 33 -28.5 48.5t-49.5 15.5h-55l14 65h521l-14 -65h-131q-37 0 -44 -29q-2 -10 1 -28t8 -33l184 -536l425 529q16 20 27.5 38t13.5 30q6 29 -30 29h-120l14 65h406l-14 -65h-48q-34 0 -72.5 -22.5t-79.5 -72.5
l-486 -594l-103 -488q-5 -21 5 -30t24 -9h151l-14 -65h-582z" />
    <glyph glyph-name="Phi" unicode="&#x3a6;" horiz-adv-x="1569" 
d="M397 0l14 65h150q14 0 28 7.5t18 27.5l244 1143q5 21 -6 29.5t-25 8.5h-150l13 65h577l-14 -65h-150q-13 0 -27.5 -7.5t-18.5 -27.5l-243 -1143q-5 -21 5.5 -29.5t24.5 -8.5h151l-14 -65h-577zM644 214q-169 0 -291.5 63t-177.5 179t-21 276q30 143 122 236t231 138
t308 45h63l-13 -61h-52q-181 0 -298.5 -87.5t-160.5 -287.5q-30 -142 1.5 -240.5t112.5 -149.5t199 -51h39l-13 -60h-49zM778 214l12 60h53q180 0 298 88t161 289q30 142 -1.5 240t-112 148.5t-200.5 50.5h-38l13 61h48q170 0 292.5 -63t177 -179.5t20.5 -278.5
q-30 -141 -122 -233.5t-230.5 -137.5t-308.5 -45h-62z" />
    <glyph glyph-name="Chi" unicode="&#x3a7;" horiz-adv-x="1294" 
d="M657 0l13 65h124q33 0 40 29q3 10 -2.5 26.5t-11.5 30.5l-429 1066q-13 33 -33 48.5t-50 15.5h-62l14 65h516l-14 -65h-123q-34 0 -41 -29q-2 -10 0.5 -24t8.5 -30l437 -1072q17 -41 43.5 -51t63.5 -10h38l-14 -65h-518zM-77 0l14 65h60q28 0 53 11.5t50 38.5l587 632
l399 437q17 19 31.5 37.5t17.5 30.5q3 15 -4 22t-25 7h-122l14 65h406l-14 -65h-57q-13 0 -33 -6.5t-48 -27.5t-68 -65l-467 -500l-452 -497q-17 -19 -38.5 -46.5t-24.5 -41.5q-7 -32 29 -32h127l-14 -65h-421z" />
    <glyph glyph-name="Psi" unicode="&#x3a8;" horiz-adv-x="1794" 
d="M504 0l14 65h150q14 0 28.5 9t19.5 30l241 1138q5 21 -5.5 30t-24.5 9h-142l14 65h559l-13 -65h-142q-14 0 -28.5 -9t-19.5 -30l-241 -1138q-4 -21 6 -30t24 -9h150l-13 -65h-577zM773 430q-162 0 -279.5 53t-168.5 163t-15 280l67 316q5 21 -5.5 30t-24.5 9h-151l14 65
h397l-93 -441q-45 -210 35 -307.5t249 -97.5h52l-15 -70h-62zM934 430l15 70h97q156 0 260 94t145 284l100 469h400l-14 -65h-150q-14 0 -28.5 -8.5t-19.5 -30.5l-80 -365q-31 -146 -116 -246t-209.5 -151t-277.5 -51h-122z" />
    <glyph glyph-name="uni03A9" unicode="&#x3a9;" horiz-adv-x="1464" 
d="M530 109q-147 63 -229 179t-104 262t10 296q53 245 218.5 381.5t464.5 136.5q201 0 324.5 -83t168 -227t4.5 -328q-41 -195 -196 -358.5t-414 -258.5l-43 24q133 75 223 171t144 206t79 224q33 156 13.5 282.5t-96 201.5t-215.5 75t-233.5 -61.5t-152.5 -170.5t-88 -253
q-27 -126 -23 -253.5t51 -237t149 -184.5zM-10 0l27 337h91q-2 -46 6.5 -93t34.5 -79t76 -32h360l-29 -133h-566zM705 0l29 133h359q51 0 90 32t67 79t45 93h91l-115 -337h-566z" />
    <glyph glyph-name="Iotadieresis" unicode="&#x3aa;" horiz-adv-x="677" 
d="M-56 0l14 65h150q13 0 27.5 7.5t19.5 28.5l242 1142q5 21 -6 29.5t-24 8.5h-151l14 65h582l-14 -65h-150q-13 0 -27.5 -7.5t-19.5 -28.5l-242 -1142q-4 -21 6.5 -29.5t23.5 -8.5h151l-14 -65h-582zM736 1492q-39 0 -67 28t-28 68q0 39 28 67t67 28t66 -28t27 -67
q0 -40 -27 -68t-66 -28zM379 1492q-41 0 -68.5 28t-27.5 68q0 39 27.5 67t68.5 28q37 0 65 -28t28 -67q0 -40 -28 -68t-65 -28z" />
    <glyph glyph-name="Upsilondieresis" unicode="&#x3ab;" horiz-adv-x="1295" 
d="M244 0l13 65h151q14 0 29 9t19 30l100 475l-235 638q-12 33 -28.5 48.5t-49.5 15.5h-55l14 65h521l-14 -65h-131q-37 0 -44 -29q-2 -10 1 -28t8 -33l184 -536l425 529q16 20 27.5 38t13.5 30q6 29 -30 29h-120l14 65h406l-14 -65h-48q-34 0 -72.5 -22.5t-79.5 -72.5
l-486 -594l-103 -488q-5 -21 5 -30t24 -9h151l-14 -65h-582zM1051 1492q-39 0 -67 28t-28 68q0 39 28 67t67 28t66 -28t27 -67q0 -40 -27 -68t-66 -28zM694 1492q-41 0 -68.5 28t-27.5 68q0 39 27.5 67t68.5 28q37 0 65 -28t28 -67q0 -40 -28 -68t-65 -28z" />
    <glyph glyph-name="alphatonos" unicode="&#x3ac;" horiz-adv-x="1177" 
d="M388 -18q-107 0 -184.5 57t-107.5 169t4 276q34 155 109.5 264.5t182 167.5t234.5 58q99 0 162 -38.5t101 -110.5q12 33 27.5 66.5t34.5 66.5h168q-14 -38 -34 -103.5t-42.5 -146t-44 -163.5t-40 -158t-30.5 -131q-23 -106 8 -149.5t111 -43.5l-11 -55q-32 -7 -66 -13.5
t-76 -6.5q-84 0 -130.5 48.5t-40.5 121.5q-69 -79 -149 -127.5t-186 -48.5zM442 75q93 0 167.5 51.5t126.5 121.5q25 117 57 238.5t65 242.5q-19 66 -71.5 112t-135.5 46q-89 0 -159 -51.5t-119.5 -145.5t-76.5 -222q-40 -186 2 -289.5t144 -103.5zM649 1109l114 314h201
l-259 -314h-56z" />
    <glyph glyph-name="epsilontonos" unicode="&#x3ad;" horiz-adv-x="1017" 
d="M425 -16q-127 0 -216.5 39t-129 111t-18.5 169q14 68 60 112.5t110 70t132 32.5q-93 23 -135.5 94t-24.5 155q12 54 52 102t120 77t211 29q121 0 199 -35.5t113.5 -96.5t30.5 -140h-171q5 80 -39 141t-143 61q-94 0 -139.5 -44t-60.5 -111q-18 -84 23 -142.5t122 -58.5
h137l-15 -71h-142q-109 0 -175.5 -52t-84.5 -133q-23 -109 28 -173.5t166 -64.5q122 0 202.5 57t113.5 190h131q-46 -165 -158 -241.5t-299 -76.5zM544 1109l114 314h201l-259 -314h-56z" />
    <glyph glyph-name="etatonos" unicode="&#x3ae;" horiz-adv-x="1142" 
d="M610 -358l205 962q27 122 3.5 189.5t-108.5 67.5q-58 0 -109.5 -23t-95 -59t-78.5 -77l-149 -702h-191l154 721q19 87 -12 124t-102 37l13 57q31 8 70 12t72 4q66 0 111 -37t44 -140q39 49 89 93.5t115 73.5t147 29q142 0 199.5 -93.5t13.5 -296.5l-200 -942h-191z
M619 1109l114 314h201l-259 -314h-56z" />
    <glyph glyph-name="iotatonos" unicode="&#x3af;" horiz-adv-x="598" 
d="M344 -11q-138 0 -195.5 75t-21.5 243l138 651h189l-141 -662q-16 -74 -10.5 -125.5t45 -78.5t124.5 -27h41l-13 -63q-37 -5 -68.5 -9t-87.5 -4zM325 1109l114 314h201l-259 -314h-56z" />
    <glyph glyph-name="upsilondieresistonos" unicode="&#x3b0;" horiz-adv-x="1068" 
d="M481 -16q-134 0 -218 51t-113.5 144.5t-2.5 221.5q11 54 23 100t26 104t33 147q16 73 -11 111t-98 38l11 55q28 5 65.5 9.5t75.5 4.5q56 0 93.5 -24t52.5 -71.5t-1 -121.5q-18 -85 -41 -176t-46 -193q-21 -98 -15.5 -172t48.5 -115.5t130 -41.5q100 0 169.5 52t114.5 145
t71 219q17 80 19 163t-10 165t-36 159h154q7 -73 8.5 -148.5t-6.5 -160.5t-30 -188q-30 -142 -89 -249.5t-151.5 -167.5t-225.5 -60zM560 1102l109 314h201l-254 -314h-56zM446 1130q-42 0 -69 26t-27 66q0 41 27 67t69 26q40 0 67.5 -26t27.5 -67q0 -40 -27.5 -66
t-67.5 -26zM902 1130q-40 0 -67.5 26t-27.5 66q0 41 27.5 67t67.5 26q41 0 68.5 -26t27.5 -67q0 -40 -27.5 -66t-68.5 -26z" />
    <glyph glyph-name="alpha" unicode="&#x3b1;" horiz-adv-x="1177" 
d="M388 -18q-107 0 -184.5 57t-107.5 169t4 276q34 155 109.5 264.5t182 167.5t234.5 58q99 0 162 -38.5t101 -110.5q12 33 27.5 66.5t34.5 66.5h168q-14 -38 -34 -103.5t-42.5 -146t-44 -163.5t-40 -158t-30.5 -131q-23 -106 8 -149.5t111 -43.5l-11 -55q-32 -7 -66 -13.5
t-76 -6.5q-84 0 -130.5 48.5t-40.5 121.5q-69 -79 -149 -127.5t-186 -48.5zM442 75q93 0 167.5 51.5t126.5 121.5q25 117 57 238.5t65 242.5q-19 66 -71.5 112t-135.5 46q-89 0 -159 -51.5t-119.5 -145.5t-76.5 -222q-40 -186 2 -289.5t144 -103.5z" />
    <glyph glyph-name="beta" unicode="&#x3b2;" horiz-adv-x="1134" 
d="M530 -12q-78 0 -148.5 17t-130.5 51l15 73q60 -36 122.5 -53.5t126.5 -17.5q117 0 194 71.5t113 238.5q26 123 2 204t-83.5 121.5t-141.5 40.5h-59l15 69h68q106 0 184.5 63t109.5 208q31 146 -13.5 232.5t-141.5 86.5q-74 0 -127 -41t-91.5 -129.5t-68.5 -231.5
l-287 -1349h-189l292 1370q50 233 171.5 337.5t301.5 104.5q120 0 201 -50.5t114.5 -138.5t9.5 -203q-25 -117 -107.5 -186t-203.5 -102q140 -35 202 -153t27 -281q-29 -134 -98.5 -211t-167.5 -109t-211 -32z" />
    <glyph glyph-name="gamma" unicode="&#x3b3;" horiz-adv-x="1021" 
d="M176 -358q37 98 66 189t55 195q-16 199 -39 383.5t-57 316.5q-22 88 -44 127t-86 39l12 57q30 8 67 12t70 4q67 0 104.5 -39t61.5 -143q16 -73 32 -181.5t29.5 -233t22.5 -247.5q88 88 160 193t122.5 215.5t72.5 214.5q15 71 17 123.5t-2 90.5h169q4 -32 1 -77t-15 -100
q-17 -79 -64.5 -173.5t-118 -195.5t-156.5 -199t-180 -186q-16 -65 -33.5 -129.5t-37 -128t-43.5 -127.5h-186z" />
    <glyph glyph-name="delta" unicode="&#x3b4;" horiz-adv-x="1097" 
d="M480 -18q-143 0 -239.5 63.5t-136 169t-12.5 232.5q26 123 99 201t174 124t209 69q-120 109 -169 197t-28 195q19 96 113 159.5t250 63.5q113 0 194.5 -33.5t121.5 -99.5t25 -163h-165q16 118 -33.5 173.5t-144.5 55.5q-100 0 -149 -42t-61 -99q-11 -53 10.5 -104
t79.5 -110.5t156 -138.5q146 -117 188.5 -251t11.5 -282q-39 -184 -170.5 -282t-323.5 -98zM485 51q120 0 195 83.5t105 227.5q31 141 -13.5 242.5t-155.5 193.5q-78 -25 -148.5 -70t-122.5 -118t-76 -183q-21 -99 -3.5 -185t73 -138.5t146.5 -52.5z" />
    <glyph glyph-name="epsilon" unicode="&#x3b5;" horiz-adv-x="1017" 
d="M425 -16q-127 0 -216.5 39t-129 111t-18.5 169q14 68 60 112.5t110 70t132 32.5q-93 23 -135.5 94t-24.5 155q12 54 52 102t120 77t211 29q121 0 199 -35.5t113.5 -96.5t30.5 -140h-171q5 80 -39 141t-143 61q-94 0 -139.5 -44t-60.5 -111q-18 -84 23 -142.5t122 -58.5
h137l-15 -71h-142q-109 0 -175.5 -52t-84.5 -133q-23 -109 28 -173.5t166 -64.5q122 0 202.5 57t113.5 190h131q-46 -165 -158 -241.5t-299 -76.5z" />
    <glyph glyph-name="zeta" unicode="&#x3b6;" horiz-adv-x="874" 
d="M405 -348l30 134h62q52 0 90 23.5t46 61.5q12 54 -34 81.5t-156 38.5l-93 9q-99 10 -169 57.5t-97 133.5t-1 214q25 113 93.5 213t164 193t199.5 184l383 341q-121 -13 -256.5 -20t-287.5 -7l29 137h654l-22 -97l-376 -360q-151 -145 -256 -286t-135 -283
q-29 -137 15.5 -196t151.5 -72l51 -5q125 -14 189.5 -74t36.5 -188q-16 -75 -62.5 -127t-111.5 -79t-138 -27z" />
    <glyph glyph-name="eta" unicode="&#x3b7;" horiz-adv-x="1142" 
d="M610 -358l205 962q27 122 3.5 189.5t-108.5 67.5q-58 0 -109.5 -23t-95 -59t-78.5 -77l-149 -702h-191l154 721q19 87 -12 124t-102 37l13 57q31 8 70 12t72 4q66 0 111 -37t44 -140q39 49 89 93.5t115 73.5t147 29q142 0 199.5 -93.5t13.5 -296.5l-200 -942h-191z" />
    <glyph glyph-name="theta" unicode="&#x3b8;" horiz-adv-x="1134" 
d="M469 -18q-120 0 -195.5 57.5t-109.5 163.5t-30 253t42 326q30 142 78.5 266t120 218t168.5 147t223 53q122 0 196.5 -62.5t108 -172t31 -252.5t-36.5 -304q-47 -220 -123.5 -375.5t-192 -236.5t-280.5 -81zM481 52q82 0 143.5 44t108 128t83.5 205t69 275
q22 102 34.5 202t12 188t-18 156.5t-56.5 107t-102 38.5q-83 0 -147.5 -53.5t-113.5 -145.5t-85 -209.5t-63 -244.5q-33 -154 -45.5 -280.5t0 -218.5t56.5 -142t124 -50zM324 703l16 75h576l-16 -75h-576z" />
    <glyph glyph-name="iota" unicode="&#x3b9;" horiz-adv-x="598" 
d="M344 -11q-138 0 -195.5 75t-21.5 243l138 651h189l-141 -662q-16 -74 -10.5 -125.5t45 -78.5t124.5 -27h41l-13 -63q-37 -5 -68.5 -9t-87.5 -4z" />
    </font>
</defs>
</svg>
