<svg xmlns="http://www.w3.org/2000/svg">
<defs>
<font id="Aptos-Narrow-Italic" horiz-adv-x="1038" >
  <font-face 
    font-family="Aptos Narrow"
    font-weight="400"
    font-style="italic"
    font-stretch="semi-condensed"
    units-per-em="2048"
    panose-1="2 11 0 4 2 2 2 9 2 4"
    ascent="1638"
    descent="-410"
    x-height="1000"
    cap-height="1346"
    bbox="-865 -563 2201 2068"
    underline-thickness="50"
    underline-position="-125"
    slope="-12"
    unicode-range="U+000D-FDFC"
  />
<missing-glyph horiz-adv-x="873" 
d="M28 0l28 1354h873l-28 -1354h-873zM465 223q-34 0 -57 23t-23 57q0 36 23.5 59t57.5 23t57 -23t23 -57q0 -35 -23.5 -58.5t-57.5 -23.5zM94 66h744l27 1220h-746zM417 503q-1 84 26 137.5t82 98.5q54 46 79.5 84t25.5 97q0 56 -34.5 94t-106.5 38q-74 0 -117.5 -44.5
t-46.5 -126.5h-108q3 124 78 192t194 68q117 0 185.5 -60t68.5 -164q0 -83 -38 -134.5t-99 -103.5q-49 -43 -66.5 -81t-22.5 -95h-100z" />
    <glyph glyph-name="fi" unicode="fi" horiz-adv-x="983" 
d="M56 0l188 888h-145l27 128h145l6 28q16 77 37.5 133.5t57.5 94t92.5 56t141.5 18.5h101l-28 -126h-82q-78 0 -110.5 -48.5t-50.5 -133.5l-5 -22h204l-28 -128h-201l-188 -888h-162zM585 0l215 1016h162l-215 -1016h-162zM923 1165q-44 0 -70.5 26.5t-26.5 65.5
q0 38 27 66t71 28q45 0 71.5 -27.5t26.5 -65.5q0 -39 -27 -66t-72 -27z" />
    <glyph glyph-name="fl" unicode="fl" horiz-adv-x="1027" 
d="M56 0l188 888h-145l27 128h145l6 28q16 77 37.5 133.5t57.5 94t92.5 56t141.5 18.5h101l-28 -126h-82q-78 0 -110.5 -48.5t-50.5 -133.5l-5 -22h204l-28 -128h-201l-188 -888h-162zM853 0q-108 0 -160.5 38t-61 109.5t12.5 171.5l217 1027h163l-217 -1026
q-23 -103 -7 -147t85 -44h41l-27 -129h-46z" />
    <glyph glyph-name="f_f" unicode="ff" horiz-adv-x="1083" 
d="M56 0l188 888h-145l27 128h145l6 28q16 77 37.5 133.5t57.5 94t92.5 56t141.5 18.5h101l-28 -126h-82q-78 0 -110.5 -48.5t-50.5 -133.5l-5 -22h204l-28 -128h-201l-188 -888h-162zM597 0l188 888h-145l27 128h145l6 28q16 77 37.5 133.5t57.5 94t92.5 56t141.5 18.5h101
l-28 -126h-82q-78 0 -110.5 -48.5t-50.5 -133.5l-5 -22h204l-28 -128h-201l-188 -888h-162z" />
    <glyph glyph-name="rial" unicode="&#xfdfc;" horiz-adv-x="1669" arabic-form="isolated" 
d="M338 86q-131 0 -195.5 67.5t-64.5 198.5q0 38 6 80.5t19 88.5l130 -2q-10 -40 -16 -83.5t-6 -80.5q0 -74 32.5 -104.5t99.5 -30.5q110 0 166.5 58t56.5 213v664h139v-664q0 -209 -91.5 -307t-275.5 -98zM754 -10q-30 0 -49.5 21.5t-19.5 52.5q0 30 19.5 51.5t49.5 21.5
q29 0 49.5 -21t20.5 -52t-20.5 -52.5t-49.5 -21.5zM960 -10q-30 0 -50 21.5t-20 52.5q0 30 20 51.5t50 21.5q29 0 49.5 -21t20.5 -52t-20.5 -52.5t-49.5 -21.5zM1157 0v132h26q104 0 156.5 50t52.5 139q0 55 -12 116.5t-36 138.5h138q21 -79 30.5 -140t9.5 -122
q0 -142 -77.5 -228t-259.5 -86h-28zM1033 221q-113 0 -171.5 64t-58.5 201v669h139v-669q0 -69 23 -101t69 -32q50 0 77.5 24.5t27.5 74.5q0 35 -5.5 79t-19.5 104h131q13 -59 19 -104.5t6 -87.5q0 -103 -60 -162.5t-177 -59.5z" />
    <glyph glyph-name=".notdef" horiz-adv-x="873" 
d="M28 0l28 1354h873l-28 -1354h-873zM465 223q-34 0 -57 23t-23 57q0 36 23.5 59t57.5 23t57 -23t23 -57q0 -35 -23.5 -58.5t-57.5 -23.5zM94 66h744l27 1220h-746zM417 503q-1 84 26 137.5t82 98.5q54 46 79.5 84t25.5 97q0 56 -34.5 94t-106.5 38q-74 0 -117.5 -44.5
t-46.5 -126.5h-108q3 124 78 192t194 68q117 0 185.5 -60t68.5 -164q0 -83 -38 -134.5t-99 -103.5q-49 -43 -66.5 -81t-22.5 -95h-100z" />
    <glyph glyph-name=".null" horiz-adv-x="0" 
 />
    <glyph glyph-name="nonmarkingreturn" horiz-adv-x="682" 
 />
    <glyph glyph-name="CR" unicode="&#xd;" horiz-adv-x="0" 
 />
    <glyph glyph-name="space" unicode=" " horiz-adv-x="383" 
 />
    <glyph glyph-name="exclam" unicode="!" horiz-adv-x="667" 
d="M264 409q10 127 29.5 271t48.5 285l82 381h169l-81 -381q-19 -93 -45 -192t-54.5 -193t-56.5 -171h-92zM249 -11q-52 0 -86.5 36t-34.5 87q0 53 34.5 87.5t86.5 34.5t86 -34.5t34 -86.5t-34.5 -88t-85.5 -36z" />
    <glyph glyph-name="quotedbl" unicode="&#x22;" horiz-adv-x="675" 
d="M522 880q8 95 20 185t33 192l19 89h154l-18 -89q-24 -107 -48.5 -192.5t-57.5 -184.5h-102zM220 880q7 89 19.5 181t34.5 196l18 89h154l-19 -89q-23 -106 -47.5 -192.5t-56.5 -184.5h-103z" />
    <glyph glyph-name="numbersign" unicode="#" horiz-adv-x="1020" 
d="M80 0l138 407h-194l24 109h209l92 275h-194l23 108h209l137 406h120l-139 -406h248l138 406h119l-138 -406h186l-22 -108h-201l-93 -275h187l-24 -109h-202l-137 -407h-119l137 407h-247l-138 -407h-119zM375 516h248l92 275h-246z" />
    <glyph glyph-name="dollar" unicode="$" 
d="M477 -18q-136 0 -245.5 42.5t-169 133.5t-44.5 237h164q-15 -151 73.5 -216.5t242.5 -65.5q73 0 137.5 18.5t109 62.5t55.5 121q18 114 -47 184.5t-235 119.5q-208 62 -293 170t-51 263q28 125 143.5 198t299.5 73q122 0 219.5 -41t150 -122t38.5 -200h-167
q15 114 -60.5 173t-199.5 59q-127 0 -193 -48t-79 -119q-18 -95 42 -155t230 -114q206 -64 295.5 -172.5t58.5 -288.5q-27 -156 -151.5 -234.5t-323.5 -78.5zM300 -217l376 1765h106l-376 -1765h-106z" />
    <glyph glyph-name="percent" unicode="%" horiz-adv-x="1641" 
d="M401 513q-96 0 -151 56t-68.5 154t12.5 225q25 116 70.5 199.5t111 129t148.5 45.5q93 0 148.5 -57t70.5 -158t-14 -233q-24 -107 -69.5 -188.5t-111 -127t-147.5 -45.5zM411 628q55 0 92 41t61 106.5t40 138.5q19 80 17.5 146.5t-27 106.5t-80.5 40q-56 0 -93.5 -41
t-62 -106.5t-39.5 -141.5q-16 -78 -14.5 -144t26.5 -106t80 -40zM1179 -17q-97 0 -152 56t-68.5 154t12.5 225q25 115 70.5 198.5t111 129t148.5 45.5q94 0 149.5 -57t70.5 -158t-14 -231q-24 -108 -70 -189.5t-111 -127t-147 -45.5zM1189 98q55 0 92 41t61.5 106t39.5 139
q18 80 16.5 146.5t-27 106t-80.5 39.5t-93 -40.5t-62 -106.5t-40 -141q-16 -79 -14.5 -144.5t26.5 -105.5t81 -40zM286 0l998 1307h137l-995 -1307h-140z" />
    <glyph glyph-name="ampersand" unicode="&#x26;" horiz-adv-x="1234" 
d="M438 -15q-126 0 -216 54.5t-129 150t-13 218.5q22 104 88.5 176.5t160.5 127.5t196 103l12 -2q104 48 179 109.5t93 147.5q17 82 -17 124.5t-93 42.5q-63 0 -104.5 -35.5t-54.5 -97.5q-17 -72 5.5 -149.5t76.5 -168.5l472 -786h-181l-416 699q-46 77 -75.5 149.5t-39 142
t4.5 137.5q11 52 37 95.5t67 75t95.5 48.5t121.5 17q90 0 153 -39.5t90 -110t7 -161.5q-17 -83 -67 -143t-118.5 -104t-142.5 -81l-11 -1q-92 -44 -170 -89t-131 -101.5t-71 -136.5q-25 -116 32.5 -194t183.5 -78q96 0 179 44.5t155 136.5h13q54 65 95.5 152.5t66.5 201.5
h168q-32 -147 -95 -263t-150 -201l-14 -4q-61 -65 -127 -111t-143 -71t-173 -25z" />
    <glyph glyph-name="quotesingle" unicode="'" horiz-adv-x="371" 
d="M218 880q5 57 12 117t17.5 125t25.5 135l18 89h153l-19 -89q-15 -71 -31 -131.5t-33 -119.5t-39 -126h-104z" />
    <glyph glyph-name="parenleft" unicode="(" horiz-adv-x="623" 
d="M202 -357q-49 145 -74 281.5t-22.5 278.5t34.5 300q49 235 149.5 447.5t250.5 403.5h137q-147 -199 -243.5 -426t-145.5 -467q-27 -138 -30 -281.5t17 -280.5t60 -256h-133z" />
    <glyph glyph-name="parenright" unicode=")" horiz-adv-x="623" 
d="M-59 -357q146 200 243 426.5t144 465.5q28 139 31 283t-17 281.5t-60 254.5h134q48 -138 73 -273.5t23.5 -279t-35.5 -307.5q-48 -234 -149 -448t-250 -403h-137z" />
    <glyph glyph-name="asterisk" unicode="*" horiz-adv-x="1020" 
d="M416 757l-70 78l184 173l-205 128l54 91l200 -134l53 250l103 -22l-52 -250l235 32l14 -105l-239 -27l97 -235l-100 -44l-94 242z" />
    <glyph glyph-name="plus" unicode="+" 
d="M122 741h862v-142h-862v142zM482 239v862h142v-862h-142z" />
    <glyph glyph-name="comma" unicode="," horiz-adv-x="506" 
d="M-8 -275l-17 91q61 28 110 75.5t71 108.5l6 -10q-53 5 -78.5 47t-14.5 99q12 47 43.5 73t76.5 26q65 0 96 -49t11 -144q-17 -84 -65 -145t-111.5 -102.5t-127.5 -69.5z" />
    <glyph glyph-name="hyphen" unicode="-" horiz-adv-x="628" 
d="M74 449l30 141h454l-30 -141h-454z" />
    <glyph glyph-name="period" unicode="." horiz-adv-x="534" 
d="M189 -10q-53 0 -87 36t-34 87q0 53 34 87.5t87 34.5q51 0 85 -34.5t34 -87.5q0 -51 -34 -87t-85 -36z" />
    <glyph glyph-name="slash" unicode="/" horiz-adv-x="637" 
d="M-88 0l741 1346h155l-742 -1346h-154z" />
    <glyph glyph-name="zero" unicode="0" 
d="M458 -15q-117 1 -192 53.5t-112 148t-39 226t27 285.5q34 186 99.5 326t166 218.5t237.5 77.5q117 -1 191.5 -54t111 -149t38.5 -225.5t-27 -285.5q-34 -186 -99 -325.5t-164.5 -217.5t-237.5 -78zM470 127q67 0 118 39.5t90 108.5t66.5 159t46.5 191q23 122 28.5 222.5
t-10.5 174.5t-58.5 114.5t-116.5 40.5q-68 0 -121 -40t-93 -109t-68 -158t-47 -187q-20 -104 -27.5 -202.5t6.5 -178.5t58 -127.5t128 -47.5z" />
    <glyph glyph-name="one" unicode="1" 
d="M374 0l235 1106q-33 -35 -88.5 -70t-127 -62.5t-154.5 -39.5l31 148q84 13 160.5 51t139.5 86.5t102 90.5h146l-278 -1310h-166zM84 0l30 142h711l-30 -142h-711z" />
    <glyph glyph-name="two" unicode="2" 
d="M-37 0l27 130l536 419q99 76 163 137t99.5 118t48.5 119q22 111 -27.5 182.5t-172.5 71.5q-131 0 -201.5 -65.5t-93.5 -191.5h-163q34 198 150 300t323 102q134 0 222 -55t123 -150.5t8 -218.5q-19 -89 -72 -162.5t-133.5 -143.5t-182.5 -148l-396 -300h675l-31 -144
h-902z" />
    <glyph glyph-name="three" unicode="3" 
d="M454 -18q-204 0 -316.5 106t-90.5 303h161q-11 -123 54 -196t201 -73q122 0 197 53.5t94 171.5q21 132 -48 200.5t-204 68.5h-79l23 138h79q133 0 211.5 59.5t94.5 161.5q17 101 -42.5 154t-161.5 53q-125 0 -193 -65t-83 -170h-163q28 171 140.5 273.5t308.5 102.5
q112 0 199 -42.5t131.5 -122.5t25.5 -194q-16 -105 -95 -179t-207 -97q75 -15 133 -62.5t86 -124.5t11 -181q-29 -165 -150.5 -251.5t-316.5 -86.5z" />
    <glyph glyph-name="four" unicode="4" 
d="M546 0l56 266h-620l32 145l808 902h165l-194 -905h174l-29 -142h-174l-56 -266h-162zM173 408h459l148 679z" />
    <glyph glyph-name="five" unicode="5" 
d="M450 -18q-129 0 -225 44.5t-146 128t-39 199.5h164q-9 -107 60.5 -170t192.5 -63q135 0 211.5 73.5t97.5 209.5q26 157 -39.5 231t-185.5 74q-85 0 -151 -27.5t-111 -74.5h-149l169 698h703l-32 -145h-563l-100 -408q38 33 107 63.5t167 30.5q84 0 155.5 -29t122 -86.5
t71.5 -143t2 -198.5q-32 -199 -154.5 -303t-327.5 -104z" />
    <glyph glyph-name="six" unicode="6" 
d="M509 -18q-142 0 -248 78.5t-151 240t-5 413.5q35 203 114.5 337.5t193.5 202.5t253 68q102 0 181 -38.5t126.5 -112.5t55.5 -179h-166q-11 90 -65.5 140t-143.5 50q-142 0 -241.5 -123t-142.5 -366l-5 -34q-33 -186 -5.5 -305t97 -175.5t159.5 -56.5q116 0 182.5 75.5
t83.5 185.5q23 132 -40.5 210t-175.5 78q-123 0 -217 -62.5t-154 -146.5l-7 127q46 63 109.5 113t141.5 80t169 30q112 0 197 -53t126 -153t19 -241q-17 -111 -74 -197.5t-149.5 -136t-217.5 -49.5z" />
    <glyph glyph-name="seven" unicode="7" 
d="M153 0l796 1156h-752l31 149h927l-30 -143l-786 -1162h-186z" />
    <glyph glyph-name="eight" unicode="8" 
d="M456 -18q-99 0 -182.5 28t-141 83t-81 136.5t-2.5 186.5q23 117 113.5 192t210.5 96q-46 21 -87.5 65t-62.5 110t-7 150q24 150 140 222t276 72q108 0 196.5 -45.5t136 -129.5t29.5 -201q-17 -112 -89 -176t-167 -91q60 -19 108.5 -69.5t73 -125t8.5 -167.5
q-18 -109 -78 -184t-159 -113.5t-235 -38.5zM467 120q125 0 202 55.5t94 169.5q13 89 -18 150t-90 92t-131 31q-113 0 -200.5 -52t-108.5 -171q-23 -128 50.5 -201.5t201.5 -73.5zM587 755q96 0 163 50.5t81 145.5q18 114 -46.5 175.5t-166.5 61.5q-97 0 -161 -47.5
t-79 -141.5q-13 -76 12.5 -130.5t77.5 -84t119 -29.5z" />
    <glyph glyph-name="nine" unicode="9" 
d="M444 -18q-108 0 -190.5 38t-131.5 111t-58 179h163q10 -85 69 -136.5t156 -51.5q87 0 164.5 54t135 164.5t80.5 279.5l9 55q26 186 -4 297.5t-96 160.5t-151 49q-115 0 -185 -71t-89 -187q-22 -134 39 -213.5t184 -79.5q118 0 207.5 58.5t154.5 152.5l7 -129
q-44 -61 -105.5 -111.5t-137 -80t-162.5 -29.5q-122 0 -210 56.5t-127 157.5t-16 232q31 178 150 281t301 103q98 0 183 -39.5t144 -125t79 -224t-12 -337.5q-35 -212 -114.5 -347.5t-191.5 -201t-245 -65.5z" />
    <glyph glyph-name="colon" unicode=":" horiz-adv-x="534" 
d="M349 782q-51 0 -85 35t-34 85q0 54 35 88.5t86 34.5t85 -34.5t34 -86.5q0 -51 -35 -86.5t-86 -35.5zM186 -10q-50 0 -83.5 35.5t-33.5 86.5q0 53 34.5 87.5t85.5 34.5t85 -34t34 -86q0 -51 -34.5 -87.5t-87.5 -36.5z" />
    <glyph glyph-name="semicolon" unicode=";" horiz-adv-x="507" 
d="M-8 -275l-17 91q61 28 110 75.5t71 108.5l6 -10q-53 5 -78.5 47t-14.5 99q12 47 43.5 73t76.5 26q65 0 96 -49t11 -144q-17 -84 -65 -145t-111.5 -102.5t-127.5 -69.5zM345 782q-51 0 -85 35t-34 86q0 53 34.5 88t86.5 35q51 0 84.5 -34.5t33.5 -87.5q0 -50 -34.5 -86
t-85.5 -36z" />
    <glyph glyph-name="less" unicode="&#x3c;" 
d="M141 757l781 389v-139l-781 -382v132zM141 582v134l781 -386v-140z" />
    <glyph glyph-name="equal" unicode="=" 
d="M165 436v141h777v-141h-777zM165 765v139h777v-139h-777z" />
    <glyph glyph-name="greater" unicode="&#x3e;" 
d="M944 757v-132l-781 382v139zM944 582l-781 -392v140l781 386v-134z" />
    <glyph glyph-name="question" unicode="?" horiz-adv-x="939" 
d="M369 411q14 80 41 138t71.5 105.5t109.5 95.5q61 45 104 81.5t69 75.5t37 93q13 60 -2.5 112t-61 84.5t-121.5 32.5q-108 0 -182 -62.5t-95 -194.5h-163q30 196 147.5 292t307.5 96q116 0 199 -48t120 -134t14 -200q-15 -72 -48 -123t-85.5 -96t-126.5 -99
q-59 -44 -94.5 -80.5t-56 -75.5t-35.5 -93h-149zM409 -10q-53 0 -87 36t-34 87q0 53 34 87.5t87 34.5q51 0 85 -34.5t34 -87.5q0 -51 -34 -87t-85 -36z" />
    <glyph glyph-name="at" unicode="@" horiz-adv-x="1667" 
d="M701 -215q-164 0 -290 58t-203.5 168.5t-99.5 268t20 356.5q45 216 167 380t302 256t400 92q163 0 288 -58.5t203 -167t101.5 -259t-16.5 -334.5q-27 -131 -83.5 -215t-132.5 -124t-165 -40q-103 0 -156.5 56.5t-27.5 181.5h-12l118 553h151l-114 -537
q-16 -75 4.5 -104.5t70.5 -29.5q57 0 100.5 37.5t74 101.5t46.5 144q43 209 -1 362t-161.5 236.5t-296.5 83.5t-330.5 -77.5t-257.5 -219t-146 -335.5q-50 -235 -4 -395.5t167.5 -243t298.5 -82.5q97 0 186.5 20.5t159.5 52.5l-26 -124q-72 -30 -156 -46t-179 -16zM724 166
q-96 0 -159.5 52t-85 145.5t5.5 220.5q25 113 82 200.5t139 136.5t180 48q117 -3 175 -90t26 -236l-39 -195q-20 -78 -66 -142t-112 -102t-146 -38zM774 287q74 0 125.5 40.5t84 105.5t48.5 136q16 74 9.5 137t-42 101.5t-107.5 38.5q-105 0 -169.5 -81t-88.5 -196
q-15 -76 -10.5 -140t40 -103t110.5 -39z" />
    <glyph glyph-name="A" unicode="A" horiz-adv-x="1096" 
d="M-99 0l740 1346h183l163 -1346h-174l-30 384h-499l-198 -384h-185zM362 530h403l-64 647z" />
    <glyph glyph-name="B" unicode="B" horiz-adv-x="1143" 
d="M58 0l286 1346h377q131 1 216.5 -47.5t119.5 -135.5t8 -205q-20 -91 -88 -157t-161 -87q72 -21 124.5 -70.5t74.5 -125.5t0 -180q-21 -99 -85 -175.5t-171.5 -119.5t-259.5 -43h-441zM261 144h253q130 0 217 55.5t110 166.5q28 131 -34 198.5t-188 67.5h-255zM394 771
h220q120 0 192.5 54.5t92.5 151.5q22 105 -29 166t-171 61h-212z" />
    <glyph glyph-name="C" unicode="C" horiz-adv-x="1303" 
d="M626 -18q-187 0 -306.5 93.5t-164.5 259.5t-9 383q33 187 120.5 333t226 229.5t322.5 83.5q133 0 237.5 -48.5t163.5 -145t56 -239.5h-174q2 96 -36 160.5t-105.5 97t-155.5 32.5q-139 0 -237.5 -72t-159 -192t-85.5 -267q-26 -163 -2.5 -291t102.5 -201t218 -73
q145 0 243.5 76.5t141.5 240.5h175q-57 -238 -203.5 -349t-367.5 -111z" />
    <glyph glyph-name="D" unicode="D" horiz-adv-x="1280" 
d="M58 0l286 1346h372q149 0 257.5 -53.5t173 -152t80.5 -236t-20 -306.5q-66 -312 -253 -455t-481 -143h-415zM261 143h208q156 0 268 45.5t184.5 150.5t110.5 283q38 175 15 306t-110.5 202.5t-242.5 71.5h-207z" />
    <glyph glyph-name="E" unicode="E" 
d="M58 0l286 1346h780l-29 -143h-608l-94 -440h559l-30 -140h-560l-101 -480h607l-29 -143h-781z" />
    <glyph glyph-name="F" unicode="F" horiz-adv-x="1013" 
d="M58 0l286 1346h763l-30 -143h-590l-94 -440h534l-31 -140h-534l-131 -623h-173z" />
    <glyph glyph-name="G" unicode="G" horiz-adv-x="1322" 
d="M623 -18q-186 0 -304 92.5t-163.5 254.5t-12.5 369q31 193 118.5 343.5t230 236.5t339.5 86q90 0 170 -27.5t141.5 -81.5t96.5 -133t35 -183h-176q2 72 -29 136.5t-95 105t-162 40.5q-141 0 -242 -68.5t-163.5 -190t-89.5 -280.5t-3 -285.5t103.5 -199t218.5 -72.5
q125 0 211.5 54.5t140.5 147.5t77 208h-347l24 141h519l-21 -116q-23 -127 -71 -233t-124 -183.5t-181 -119.5t-241 -42z" />
    <glyph glyph-name="H" unicode="H" horiz-adv-x="1322" 
d="M58 0l286 1346h174l-122 -568h652l122 568h173l-287 -1346h-173l135 629h-653l-134 -629h-173z" />
    <glyph glyph-name="I" unicode="I" horiz-adv-x="497" 
d="M58 0l286 1346h174l-287 -1346h-173z" />
    <glyph glyph-name="J" unicode="J" horiz-adv-x="624" 
d="M-74 -13l32 146h74q113 0 170 65t86 202l203 946h169l-204 -965q-30 -138 -81 -225t-135.5 -128t-217.5 -41h-96z" />
    <glyph glyph-name="K" unicode="K" horiz-adv-x="1053" 
d="M58 0l286 1346h174l-138 -646l624 646h204l-646 -659l400 -687h-188l-396 691l-147 -691h-173z" />
    <glyph glyph-name="L" unicode="L" horiz-adv-x="930" 
d="M58 0l286 1346h174l-257 -1199h563l-30 -147h-736z" />
    <glyph glyph-name="M" unicode="M" horiz-adv-x="1477" 
d="M58 0l286 1346h187l230 -735l532 735h205l-286 -1346h-173l234 1098l-486 -676h-117l-212 676l-233 -1098h-167z" />
    <glyph glyph-name="N" unicode="N" horiz-adv-x="1318" 
d="M58 0l286 1346h175l429 -1107l231 1107h159l-285 -1346h-175l-427 1101l-233 -1101h-160z" />
    <glyph glyph-name="O" unicode="O" horiz-adv-x="1365" 
d="M618 -18q-188 0 -307 95.5t-162 261.5t-3 378q36 196 124 341.5t227.5 226.5t330.5 81q186 0 304.5 -95.5t162 -262t3.5 -379.5q-36 -193 -122.5 -339t-226 -227t-331.5 -81zM630 120q144 0 244.5 71t162.5 193t88 274q28 152 7.5 281t-98 208t-221.5 79
q-142 0 -242.5 -70.5t-162 -192t-89.5 -275.5q-27 -152 -7 -281t97.5 -208t220.5 -79z" />
    <glyph glyph-name="P" unicode="P" horiz-adv-x="1107" 
d="M58 0l286 1346h389q135 0 226 -55t128.5 -157t7.5 -245q-25 -124 -92.5 -202t-164.5 -115t-214 -37h-279l-114 -535h-173zM374 678h256q108 0 187.5 54.5t106.5 176.5q32 150 -27 223t-174 73h-236z" />
    <glyph glyph-name="Q" unicode="Q" horiz-adv-x="1365" 
d="M1050 -290q-111 0 -188 23t-130 65t-88.5 98.5t-62.5 123.5l126 33q39 -66 84.5 -108.5t114 -62.5t177.5 -20h36l-35 -152h-34zM618 -18q-188 0 -307 95.5t-162 261.5t-3 378q36 196 124 341.5t227.5 226.5t330.5 81q186 0 304.5 -95.5t162 -262t3.5 -379.5
q-36 -193 -122.5 -339t-226 -227t-331.5 -81zM630 120q144 0 244.5 71t162.5 193t88 274q28 152 7.5 281t-98 208t-221.5 79q-142 0 -242.5 -70.5t-162 -192t-89.5 -275.5q-27 -152 -7 -281t97.5 -208t220.5 -79z" />
    <glyph glyph-name="R" unicode="R" horiz-adv-x="1133" 
d="M58 0l286 1346h414q123 0 211 -50.5t126 -144t9 -223.5q-26 -115 -108 -189.5t-220 -96.5q52 -17 86 -50.5t53.5 -93.5t28.5 -161l29 -337h-178l-21 317q-7 97 -24 153.5t-50 80.5t-89 24h-258l-122 -575h-173zM384 718h268q114 0 187 61.5t94 158.5q29 130 -24.5 198.5
t-170.5 68.5h-251z" />
    <glyph glyph-name="S" unicode="S" horiz-adv-x="1056" 
d="M477 -18q-134 0 -231 46t-148.5 140.5t-48.5 239.5h175q-2 -152 64 -219t200 -67q112 0 187.5 49.5t93.5 157.5q13 77 -6.5 131.5t-78 97.5t-163.5 84q-113 45 -187.5 106.5t-105 142.5t-11.5 184q18 92 75 156.5t148 99t209 33.5q119 0 208.5 -42t139 -125.5
t47.5 -208.5h-174q1 117 -60.5 177.5t-172.5 60.5q-109 0 -176.5 -47t-80.5 -127q-10 -57 8.5 -105t76 -91t165.5 -86q119 -48 194 -106.5t105 -142t10 -206.5q-18 -111 -79.5 -185t-159 -111t-223.5 -37z" />
    <glyph glyph-name="T" unicode="T" horiz-adv-x="894" 
d="M257 0l256 1202h-343l30 144h860l-30 -144h-344l-257 -1202h-172z" />
    <glyph glyph-name="U" unicode="U" horiz-adv-x="1271" 
d="M570 -18q-157 0 -262 68t-144.5 197.5t-0.5 310.5l164 788h177l-169 -802q-28 -138 -6.5 -231t87.5 -140.5t169 -47.5q150 0 238 84.5t132 290.5l177 846h176l-183 -855q-35 -171 -102.5 -284t-177.5 -169t-275 -56z" />
    <glyph glyph-name="V" unicode="V" horiz-adv-x="1085" 
d="M336 0l-151 1346h177l108 -1164l602 1164h192l-725 -1346h-203z" />
    <glyph glyph-name="W" unicode="W" horiz-adv-x="1665" 
d="M253 0l-72 1346h176l29 -1133l525 1133h191l44 -1133l513 1133h182l-644 -1346h-181l-48 1149l-531 -1149h-184z" />
    <glyph glyph-name="X" unicode="X" horiz-adv-x="1034" 
d="M-91 0l553 697l-239 649h186l169 -533l403 533h197l-518 -653l259 -693h-189l-185 564l-436 -564h-200z" />
    <glyph glyph-name="Y" unicode="Y" horiz-adv-x="1009" 
d="M310 0l116 539l-246 807h179l181 -657l449 657h200l-589 -808l-115 -538h-175z" />
    <glyph glyph-name="Z" unicode="Z" horiz-adv-x="949" 
d="M-77 0l29 135l874 1067h-604l30 144h811l-27 -131l-877 -1072h684l-30 -143h-890z" />
    <glyph glyph-name="bracketleft" unicode="[" horiz-adv-x="549" 
d="M-56 -360l365 1714h366l-30 -133h-210l-305 -1447h208l-29 -134h-365z" />
    <glyph glyph-name="backslash" unicode="\" horiz-adv-x="638" 
d="M372 0l-164 1346h138l164 -1346h-138z" />
    <glyph glyph-name="bracketright" unicode="]" horiz-adv-x="542" 
d="M-118 -360l28 135h210l305 1446h-208l28 133h366l-363 -1714h-366z" />
    <glyph glyph-name="asciicircum" unicode="^" 
d="M231 780l297 566h130l297 -566h-158l-204 409l-205 -409h-157z" />
    <glyph glyph-name="underscore" unicode="_" horiz-adv-x="852" 
d="M-156 -236l19 95h856l-18 -95h-857z" />
    <glyph glyph-name="grave" unicode="`" horiz-adv-x="1022" 
d="M466 1110l-199 269h184l135 -269h-120z" />
    <glyph glyph-name="a" unicode="a" horiz-adv-x="993" 
d="M297 -18q-90 0 -151.5 38.5t-86 110.5t-5.5 170q24 120 111.5 183.5t229 87.5t324.5 27l16 71q20 95 4.5 149t-57.5 76t-99 22q-83 0 -140.5 -34t-77.5 -110h-157q32 138 131 199.5t252 61.5q101 0 179 -37.5t113.5 -121t5.5 -219.5l-139 -656h-150l24 138
q-64 -65 -142.5 -110.5t-184.5 -45.5zM340 102q61 0 116 23t103.5 61t88.5 82l49 234q-239 -4 -353.5 -54t-137.5 -162q-15 -78 18.5 -131t115.5 -53z" />
    <glyph glyph-name="b" unicode="b" horiz-adv-x="1052" 
d="M514 -18q-96 0 -168 44t-113 116l-37 -142h-153l287 1346h161l-99 -470q51 65 123 109.5t175 44.5q108 0 179 -68.5t93 -198t-17 -310.5q-53 -244 -165.5 -357.5t-265.5 -113.5zM500 111q107 0 176 88.5t109 271.5q45 206 5.5 318t-143.5 112q-60 0 -112 -25t-96.5 -67
t-81.5 -93l-92 -436q35 -73 93.5 -121t141.5 -48z" />
    <glyph glyph-name="c" unicode="c" horiz-adv-x="989" 
d="M447 -18q-121 0 -209 64t-125.5 186.5t-8.5 296.5q43 260 166.5 382.5t309.5 122.5q106 0 180 -36.5t114 -103.5t41 -158h-159q-3 51 -23.5 90t-61 61t-103.5 22q-129 0 -203.5 -105.5t-104.5 -284.5q-33 -200 21 -306t181 -106q92 0 150 47t77 131h158
q-35 -156 -137.5 -229.5t-262.5 -73.5z" />
    <glyph glyph-name="d" unicode="d" horiz-adv-x="1060" 
d="M370 -18q-109 0 -181 69.5t-94.5 198.5t13.5 306q52 246 166 361.5t269 115.5q97 0 168.5 -45t112.5 -118l103 476h158l-286 -1346h-152l23 143q-53 -70 -125.5 -115.5t-174.5 -45.5zM413 111q62 0 114 25.5t96 68t79 91.5l92 441q-23 48 -57.5 85t-79.5 58t-100 21
q-111 0 -182 -91t-112 -275q-28 -128 -19 -223.5t52.5 -148t116.5 -52.5z" />
    <glyph glyph-name="e" unicode="e" horiz-adv-x="993" 
d="M453 -18q-142 0 -227.5 72t-115.5 197t-5 284q24 148 84.5 260t157 175.5t225.5 63.5q128 0 209 -68t108.5 -193t-5.5 -296h-628q-15 -106 -0.5 -190.5t65 -133.5t142.5 -49q81 0 140.5 38.5t81.5 124.5h159q-36 -140 -137 -212.5t-254 -72.5zM277 596h465
q13 93 -3.5 164t-60.5 111.5t-115 40.5q-106 0 -179.5 -79.5t-106.5 -236.5z" />
    <glyph glyph-name="f" unicode="f" horiz-adv-x="542" 
d="M56 0l188 888h-145l27 128h145l6 28q16 77 37.5 133.5t57.5 94t92.5 56t141.5 18.5h101l-28 -126h-82q-78 0 -110.5 -48.5t-50.5 -133.5l-5 -22h204l-28 -128h-201l-188 -888h-162z" />
    <glyph glyph-name="g" unicode="g" horiz-adv-x="903" 
d="M295 -377q-143 0 -223 42t-108 106.5t-16 131.5q16 94 99 155.5t221 86.5l37 53h86q231 0 318.5 -77.5t59.5 -225.5q-21 -118 -142.5 -195t-331.5 -77zM309 -260q145 0 218 47.5t87 118.5q9 50 -7.5 86.5t-69.5 56.5t-157 20h-118q-71 -18 -113 -63.5t-51 -98.5
q-12 -71 35 -119t176 -48zM247 85q-79 12 -123.5 43t-60.5 69.5t-10 74.5q10 52 58 96t131 67l77 -49q-54 -12 -89.5 -39t-42.5 -59q-5 -24 7 -43.5t49.5 -32t106.5 -14.5zM434 352q-116 0 -187.5 49.5t-98 132.5t-8.5 182q15 81 63.5 151.5t130.5 114.5t194 44
q172 0 246.5 -102t45.5 -258q-14 -81 -61.5 -152.5t-128.5 -116.5t-196 -45zM443 462q85 0 146.5 56.5t79.5 160.5q23 124 -21 181.5t-128 57.5q-86 0 -148.5 -57.5t-81.5 -160.5q-15 -81 3.5 -134t59 -78.5t90.5 -25.5zM754 915l-53 68q53 93 120 128t175 35l-23 -136
q-76 0 -126 -19.5t-93 -75.5z" />
    <glyph glyph-name="h" unicode="h" horiz-adv-x="1037" 
d="M44 0l286 1346h161l-99 -468q55 58 128 107t184 49q95 0 155 -45.5t80 -130t-5 -199.5l-141 -659h-161l142 661q24 111 -6 175t-123 64q-58 0 -108.5 -23.5t-93 -59t-78.5 -71.5l-160 -746h-161z" />
    <glyph glyph-name="i" unicode="i" horiz-adv-x="441" 
d="M43 0l215 1016h162l-215 -1016h-162zM381 1165q-44 0 -70.5 26.5t-26.5 65.5q0 38 27 66t71 28q45 0 71.5 -27.5t26.5 -65.5q0 -39 -27 -66t-72 -27z" />
    <glyph glyph-name="j" unicode="j" horiz-adv-x="441" 
d="M-203 -360l27 130h48q65 0 101.5 35.5t53.5 116.5l233 1094h161l-237 -1110q-26 -124 -94 -195t-213 -71h-80zM382 1165q-45 0 -71.5 26.5t-26.5 65.5t27 66.5t72 27.5t71 -27.5t26 -65.5q0 -39 -27 -66t-71 -27z" />
    <glyph glyph-name="k" unicode="k" horiz-adv-x="918" 
d="M43 0l287 1346h161l-172 -800l492 470h196l-514 -481l328 -535h-180l-323 538l-113 -538h-162z" />
    <glyph glyph-name="l" unicode="l" horiz-adv-x="486" 
d="M311 0q-108 0 -160.5 38t-61 109.5t12.5 171.5l217 1027h163l-217 -1026q-23 -103 -7 -147t85 -44h41l-27 -129h-46z" />
    <glyph glyph-name="m" unicode="m" horiz-adv-x="1600" 
d="M45 0l215 1016h157l-25 -141q53 58 123 106.5t181 48.5q92 0 150.5 -45.5t78.5 -129.5t-5 -199l-138 -656h-162l140 657q24 112 -6 176t-117 64t-154.5 -50t-119.5 -107l-157 -740h-161zM1196 0l140 657q24 112 -6 176t-117 64q-57 0 -108.5 -25.5t-96.5 -65.5t-85 -83
v123q70 74 153 129t195 55q93 0 151 -45.5t78.5 -129t-4.5 -199.5l-139 -656h-161z" />
    <glyph glyph-name="n" unicode="n" horiz-adv-x="1037" 
d="M45 0l215 1016h156l-25 -142q54 58 127 107t184 49q94 0 154 -45t80.5 -129t-4.5 -201l-138 -655h-161l140 657q23 112 -6.5 176t-120.5 64q-87 0 -158 -49.5t-124 -105.5l-158 -742h-161z" />
    <glyph glyph-name="o" unicode="o" horiz-adv-x="1032" 
d="M456 -18q-135 0 -226.5 71.5t-124 203.5t5.5 310q47 222 169.5 344t312.5 122q132 0 219 -72t118.5 -203t-5.5 -310q-46 -222 -164.5 -344t-304.5 -122zM467 107q124 0 194.5 99.5t105.5 264.5q28 120 17.5 219.5t-60.5 158.5t-144 59q-86 0 -147 -45t-101 -126t-63 -189
q-27 -125 -15.5 -225t64 -158t149.5 -58z" />
    <glyph glyph-name="p" unicode="p" horiz-adv-x="1052" 
d="M-33 -361l294 1377h154l-24 -143q52 69 124.5 114t174.5 45q110 0 181 -68t92.5 -198t-18.5 -316q-52 -243 -164.5 -355.5t-265.5 -112.5q-96 0 -168 44t-112 116l-107 -503h-161zM501 111q108 0 176.5 89t108.5 268q45 207 7.5 320.5t-146.5 113.5q-91 0 -163 -51.5
t-125 -130.5l-93 -440q33 -76 92.5 -122.5t142.5 -46.5z" />
    <glyph glyph-name="q" unicode="q" horiz-adv-x="1057" 
d="M560 -361l109 505q-52 -68 -124.5 -115t-175.5 -47q-109 0 -180.5 70.5t-94 198.5t13.5 301q34 164 97.5 270.5t150 158t188.5 51.5q98 0 169 -44t112 -117l36 145h153l-295 -1377h-159zM412 111q93 0 164 56t125 136l93 426q-34 79 -93.5 125.5t-142.5 46.5
q-110 0 -181 -92t-111 -274q-27 -127 -18.5 -222.5t50 -148.5t114.5 -53z" />
    <glyph glyph-name="r" unicode="r" horiz-adv-x="630" 
d="M45 0l215 1016h152l-28 -165q52 73 121 125t174 52h35l-31 -147h-21q-60 0 -113 -17.5t-99 -51.5t-88 -83l-156 -729h-161z" />
    <glyph glyph-name="s" unicode="s" horiz-adv-x="905" 
d="M393 -18q-105 0 -187 33.5t-126 103.5t-37 179h155q-5 -108 50.5 -152.5t152.5 -44.5q87 0 137 36t62 101q10 50 -3.5 90t-57 74t-124.5 65q-148 57 -209.5 142t-37.5 205q21 104 112 160.5t229 56.5q102 0 176.5 -35.5t114.5 -101.5t36 -159h-155q1 84 -42 130.5
t-139 46.5q-67 0 -115.5 -26t-61.5 -89q-14 -66 29 -117t170 -100q149 -58 203 -143t32 -211q-19 -112 -108 -178t-256 -66z" />
    <glyph glyph-name="t" unicode="t" horiz-adv-x="588" 
d="M353 0q-111 0 -165 40t-64 113.5t11 173.5l118 561h-146l28 128h146l47 222h162l-47 -222h213l-27 -128h-214l-122 -574q-20 -91 -3 -138t91 -47h87l-26 -129h-89z" />
    <glyph glyph-name="u" unicode="u" horiz-adv-x="1037" 
d="M335 -14q-95 0 -155 45t-80 129.5t4 200.5l140 655h161l-141 -658q-23 -111 7.5 -174.5t121.5 -63.5q60 0 111 24.5t93.5 61.5t77.5 74l156 736h162l-216 -1016h-157l28 146q-37 -39 -81 -76t-101 -60.5t-131 -23.5z" />
    <glyph glyph-name="v" unicode="v" horiz-adv-x="847" 
d="M233 0l-120 1016h163l74 -859l440 859h170l-548 -1016h-179z" />
    <glyph glyph-name="w" unicode="w" horiz-adv-x="1344" 
d="M186 0l-71 1000h158l35 -820l375 820h179l38 -821l373 821h165l-489 -1000h-169l-41 826l-382 -826h-171z" />
    <glyph glyph-name="x" unicode="x" horiz-adv-x="832" 
d="M-96 0l448 557l62 45l318 414h175l-424 -519l-54 -41l-351 -456h-174zM564 0l-174 451l-36 57l-204 508h158l145 -414l40 -59l228 -543h-157z" />
    <glyph glyph-name="y" unicode="y" horiz-adv-x="847" 
d="M-82 -361l28 132h77q56 0 96.5 31t79.5 103l53 95l-135 1016h164l84 -844l427 844h173l-609 -1127q-37 -69 -71.5 -117t-72.5 -77.5t-84.5 -42.5t-107.5 -13h-102z" />
    <glyph glyph-name="z" unicode="z" horiz-adv-x="817" 
d="M-41 0l26 122l634 766h-432l27 128h628l-25 -113l-640 -774h501l-26 -129h-693z" />
    <glyph glyph-name="braceleft" unicode="{" horiz-adv-x="596" 
d="M285 -360q-66 0 -113.5 30.5t-65.5 93t2 156.5l51 238q23 105 19 164.5t-36 84.5t-98 25l29 129q64 0 107 25t72 84.5t50 160.5l58 273q18 82 52.5 137.5t86 84t117.5 28.5h106l-26 -123h-48q-55 0 -88.5 -39t-49.5 -112l-60 -287q-20 -97 -51 -156t-70.5 -89.5
t-84.5 -45.5q40 -18 64.5 -52t29.5 -93t-15 -156l-57 -271q-17 -84 -1.5 -125t71.5 -41h48l-27 -124h-72z" />
    <glyph glyph-name="bar" unicode="|" horiz-adv-x="946" 
d="M401 -358v1704h136v-1704h-136z" />
    <glyph glyph-name="braceright" unicode="}" horiz-adv-x="597" 
d="M-123 -360l29 124h48q56 0 88 40t47 110l60 287q21 98 51.5 156t70 89t85.5 47q-40 18 -65 51.5t-29.5 93.5t14.5 155l57 272q18 83 2.5 124.5t-72.5 41.5h-48l29 123h71q67 0 113.5 -30.5t65 -92.5t-2.5 -156l-50 -239q-22 -103 -18.5 -163t36 -85t96.5 -25l-27 -128
q-64 0 -107 -25t-72 -84.5t-51 -161.5l-58 -275q-16 -79 -51 -135t-86.5 -85t-119.5 -29h-106z" />
    <glyph glyph-name="asciitilde" unicode="~" 
d="M744 505q-71 0 -123 37.5t-99 81.5q-35 34 -64.5 60t-74.5 26t-70.5 -47.5t-28.5 -152.5h-137q6 158 66 249t165 91q73 0 123.5 -37t95.5 -80q41 -39 72 -63t70 -24q44 0 69.5 48t28.5 153h138q-6 -160 -65.5 -251t-165.5 -91z" />
    <glyph glyph-name="nbspace" unicode="&#xa0;" horiz-adv-x="383" 
 />
    <glyph glyph-name="exclamdown" unicode="&#xa1;" horiz-adv-x="667" 
d="M56 -346l81 380q21 94 46.5 192.5t54 192t55.5 171.5h92q-5 -75 -16 -168.5t-26 -193t-36 -194.5l-80 -380h-171zM406 782q-52 0 -86 35t-34 87q0 51 34.5 86.5t86.5 35.5q51 0 85.5 -35t34.5 -86q0 -53 -34.5 -88t-86.5 -35z" />
    <glyph glyph-name="cent" unicode="&#xa2;" horiz-adv-x="1020" 
d="M315 -217l299 1393h104l-297 -1393h-106zM462 -18q-131 0 -225 63t-135.5 179t-16.5 276q42 257 172 374t326 117q112 0 194 -41t126 -117t39 -179h-157q2 59 -21 106.5t-71.5 76t-123.5 28.5q-139 0 -220 -98t-109 -273q-30 -184 34 -284.5t204 -100.5q111 0 176.5 57
t86.5 164h156q-38 -178 -146.5 -263t-288.5 -85z" />
    <glyph glyph-name="sterling" unicode="&#xa3;" 
d="M-5 0l30 133q145 58 208 120t78 134q12 57 4.5 119.5t-34.5 149.5q-29 93 -42 189.5t6 187.5q27 128 140.5 209t293.5 81q126 0 215.5 -43.5t133.5 -128.5t31 -210h-155q10 90 -20 143t-88 76.5t-133 23.5q-113 0 -177.5 -53t-82.5 -131q-15 -71 -5 -145.5t36 -151.5
q32 -99 42 -174.5t-6 -146.5q-11 -55 -45.5 -109t-105.5 -101t-194 -77l11 52h755l-33 -147h-863zM75 530l23 114h754l-22 -114h-755z" />
    <glyph glyph-name="currency" unicode="&#xa4;" horiz-adv-x="1020" 
d="M237 227l-92 95l118 125q-28 45 -43.5 99t-15.5 116q0 122 59 215l-118 125l92 93l115 -122q40 29 88 45.5t102 16.5q55 0 103 -16.5t88 -45.5l115 122l92 -93l-119 -126q28 -44 43 -98.5t15 -115.5q0 -62 -15 -116t-43 -99l119 -125l-92 -95l-115 123q-40 -29 -88 -45
t-103 -16q-54 0 -102 16t-88 45zM542 421q60 0 107 31.5t74.5 86t27.5 123.5t-27.5 123.5t-74.5 85.5t-107 31t-107 -31t-74 -85.5t-27 -123.5t27 -123.5t74 -86t107 -31.5z" />
    <glyph glyph-name="yen" unicode="&#xa5;" 
d="M114 513l24 113h813l-25 -113h-812zM64 277l24 114h813l-25 -114h-812zM326 0l112 525l-259 780h173l195 -634l465 634h187l-596 -780l-111 -525h-166z" />
    <glyph glyph-name="brokenbar" unicode="&#xa6;" horiz-adv-x="1020" 
d="M436 686v660h139v-660h-139zM436 -358v659h139v-659h-139z" />
    <glyph glyph-name="section" unicode="&#xa7;" horiz-adv-x="900" 
d="M379 -15q-100 0 -177.5 35.5t-119 110t-34.5 190.5h155q-6 -120 47 -168.5t141 -48.5q76 0 125.5 33t61.5 97q9 51 -4 89.5t-55.5 71.5t-122.5 63q-150 58 -208 135.5t-38 180.5q17 84 87 134.5t173 66.5l39 -85q-50 -13 -93.5 -38t-55.5 -83q-8 -43 9 -77t67 -65.5
t138 -66.5q133 -51 183 -130t28 -206q-19 -106 -102 -172.5t-244 -66.5zM618 395l-67 85q55 15 90 50.5t45 90.5q9 50 -6 85.5t-60.5 65.5t-128.5 61q-142 53 -197.5 134.5t-33.5 189.5q21 98 105.5 154t211.5 56q97 0 169.5 -38.5t111 -110t32.5 -171.5h-155
q4 95 -38.5 148t-131.5 53q-59 0 -102.5 -23t-56.5 -83q-14 -67 29 -113.5t168 -93.5q141 -53 197 -127.5t36 -189.5q-15 -83 -70 -139.5t-148 -83.5z" />
    <glyph glyph-name="dieresis" unicode="&#xa8;" horiz-adv-x="1022" 
d="M669 1148q-33 0 -57 25t-24 60q0 36 24.5 61t58.5 25q33 0 57 -24.5t24 -59.5q0 -36 -24.5 -61.5t-58.5 -25.5zM350 1148q-35 0 -59 25t-24 60q0 36 24.5 61t59.5 25q32 0 56 -24.5t24 -59.5q0 -36 -24.5 -61.5t-56.5 -25.5z" />
    <glyph glyph-name="copyright" unicode="&#xa9;" horiz-adv-x="1387" 
d="M734 -18q-134 0 -248 51.5t-198.5 144.5t-131 219t-46.5 275q0 150 46.5 276.5t131 219.5t198.5 144.5t248 51.5q135 0 249.5 -51.5t199 -144.5t131 -219.5t46.5 -276.5q0 -149 -46.5 -275t-131 -219t-199 -144.5t-249.5 -51.5zM734 107q108 0 199.5 42t159 118.5
t105 179.5t37.5 225q0 123 -37.5 226t-105 180t-159 119t-199.5 42q-107 0 -198.5 -42.5t-159 -119t-104.5 -180t-37 -225.5t37.5 -225.5t105 -179.5t158.5 -118t198 -42zM750 272q-154 0 -243.5 108t-89.5 292q0 186 89.5 293.5t243.5 107.5q127 0 209 -78t86 -208h-133
q0 75 -44.5 120t-117.5 45q-96 0 -148 -72.5t-52 -207.5q0 -134 52 -206t148 -72q81 0 121.5 48t43.5 131h133q-5 -142 -86.5 -221.5t-211.5 -79.5z" />
    <glyph glyph-name="ordfeminine" unicode="&#xaa;" horiz-adv-x="800" 
d="M333 557q-63 0 -112.5 31t-71.5 88t-5 136q22 105 92.5 153t182 62t256.5 17l11 43q24 97 -14 133.5t-102 36.5q-65 0 -116 -36.5t-68 -117.5h-140q26 138 117 199.5t224 61.5q85 0 146 -31t86.5 -97t2.5 -172l-102 -487h-136l18 110q-59 -61 -123 -95.5t-146 -34.5z
M387 666q70 0 132.5 41.5t105.5 93.5l34 154q-179 -4 -265 -35t-102 -112q-12 -62 12.5 -102t82.5 -40z" />
    <glyph glyph-name="guillemetleft" unicode="&#xab;" horiz-adv-x="732" 
d="M609 188l-227 282l18 93l349 281l-35 -164l-201 -171l128 -169zM284 188l-229 282l18 93l350 281l-36 -164l-201 -171l130 -169z" />
    <glyph glyph-name="logicalnot" unicode="&#xac;" 
d="M156 970h773v-139h-773v139zM791 370v600h138v-600h-138z" />
    <glyph glyph-name="softhyphen" unicode="&#xad;" horiz-adv-x="628" 
d="M74 449l30 141h454l-30 -141h-454z" />
    <glyph glyph-name="registered" unicode="&#xae;" horiz-adv-x="890" 
d="M545 599q-97 0 -173 49t-120 134t-44 192q0 108 44 192.5t120 133t173 48.5q98 0 174.5 -48.5t120.5 -133t44 -192.5q0 -107 -44 -192t-120.5 -134t-174.5 -49zM545 682q73 0 130.5 38t90.5 104t33 150t-33 150t-90.5 104t-130.5 38q-72 0 -129 -38t-90.5 -104
t-33.5 -150t33.5 -150t90.5 -104t129 -38zM420 797v366h141q56 0 89 -27t33 -75q0 -41 -21.5 -65t-54.5 -34v15q27 -7 44 -26t26 -52l27 -102h-78l-23 88q-9 32 -19 43t-32 11h-56v-142h-76zM496 1004h59q24 0 36.5 13t12.5 33q0 44 -47 44h-61v-90z" />
    <glyph glyph-name="macron" unicode="&#xaf;" horiz-adv-x="1022" 
d="M266 1183l24 115h496l-25 -115h-495z" />
    <glyph glyph-name="degree" unicode="&#xb0;" horiz-adv-x="748" 
d="M484 682q-88 0 -160 43t-114.5 114t-42.5 158q0 88 42.5 160t114.5 115t160 43q87 0 158.5 -43t114 -115t42.5 -160q0 -87 -42.5 -158t-114 -114t-158.5 -43zM484 816q75 0 128.5 53t53.5 128q0 77 -53.5 130.5t-128.5 53.5q-76 0 -129.5 -53.5t-53.5 -130.5
q0 -75 53.5 -128t129.5 -53z" />
    <glyph glyph-name="plusminus" unicode="&#xb1;" 
d="M134 826h784v-129h-784v129zM456 438v647h140v-647h-140zM134 383h784v-128h-784v128z" />
    <glyph glyph-name="twosuperior" unicode="&#xb2;" horiz-adv-x="674" 
d="M165 974l21 102l336 252q68 53 111 95.5t54 96.5q12 59 -15.5 96t-99.5 37q-74 0 -109.5 -40t-49.5 -106h-130q23 122 95 192.5t206 70.5q83 0 142 -32.5t85 -92.5t9 -141q-11 -57 -44 -100.5t-83 -83t-113 -84.5l-192 -141h357l-26 -121h-554z" />
    <glyph glyph-name="threesuperior" unicode="&#xb3;" horiz-adv-x="674" 
d="M468 962q-141 0 -209 66t-60 188h129q-3 -75 34 -110t113 -35q70 0 110 29t54 90q14 69 -25 106.5t-114 37.5h-51l22 102h53q73 0 118 29.5t55 77.5q13 60 -22 89.5t-92 29.5q-68 0 -111 -30t-55 -96h-128q24 125 105.5 179.5t198.5 54.5q73 0 131 -26.5t87 -78.5
t14 -126q-13 -59 -59 -99t-117 -55q62 -18 99.5 -73t17.5 -148q-20 -100 -96 -151t-202 -51z" />
    <glyph glyph-name="acute" unicode="&#xb4;" horiz-adv-x="1022" 
d="M402 1110l226 269h198l-294 -269h-130z" />
    <glyph glyph-name="micro" unicode="&#xb5;" horiz-adv-x="1067" 
d="M-31 -361l291 1377h161l-135 -645q-15 -75 -10 -128.5t38.5 -82.5t99.5 -29q92 0 164 43t126 107l157 735h160l-214 -1016h-155l26 146q-68 -77 -139.5 -116.5t-154.5 -39.5q-72 0 -129 34t-82 99.5t-6 160.5h96l-138 -645h-156z" />
    <glyph glyph-name="paragraph" unicode="&#xb6;" horiz-adv-x="1054" 
d="M305 -195l176 824h-69q-146 0 -214.5 97.5t-33.5 260.5t144.5 261t257.5 98h514l-328 -1541h-142l297 1403h-161l-297 -1403h-144z" />
    <glyph glyph-name="periodcentered" unicode="&#xb7;" horiz-adv-x="534" 
d="M274 419q-53 0 -87 36t-34 87q0 53 34 87.5t87 34.5q51 0 85 -34.5t34 -87.5q0 -51 -34 -87t-85 -36z" />
    <glyph glyph-name="cedilla" unicode="&#xb8;" horiz-adv-x="1022" 
d="M463 -382q-57 0 -96 9.5t-70 23.5l46 91q20 -12 55.5 -20t73.5 -8q33 0 58.5 14t30.5 43q9 37 -15 57.5t-96 30.5l-39 5l152 177l72 -41l-79 -93l-25 27q86 -5 123.5 -55.5t21.5 -125.5q-11 -51 -42.5 -80t-76 -42t-94.5 -13z" />
    <glyph glyph-name="onesuperior" unicode="&#xb9;" horiz-adv-x="674" 
d="M419 974l132 619q-34 -33 -92 -63t-140 -41l28 132q57 13 104.5 34.5t85.5 49.5t65 57h129l-169 -788h-143z" />
    <glyph glyph-name="ordmasculine" unicode="&#xba;" horiz-adv-x="830" 
d="M459 557q-111 0 -181.5 56.5t-94.5 157.5t4 233q38 176 136.5 267.5t246.5 91.5q110 0 181 -55.5t96.5 -156t-4.5 -237.5q-24 -115 -76.5 -195t-130 -121t-177.5 -41zM468 670q100 0 157 72.5t84 194.5q20 87 13 158t-46 113.5t-116 42.5q-99 0 -156.5 -74t-84.5 -196
q-18 -86 -10 -156.5t46.5 -112.5t112.5 -42z" />
    <glyph glyph-name="guillemetright" unicode="&#xbb;" horiz-adv-x="733" 
d="M-5 188l35 164l202 170l-129 170l31 152l228 -281l-18 -93zM319 188l36 164l201 170l-127 170l31 152l227 -281l-17 -93z" />
    <glyph glyph-name="onequarter" unicode="&#xbc;" horiz-adv-x="1459" 
d="M248 527l132 619q-34 -33 -92 -63t-140 -41l28 132q57 13 104.5 34.5t85.5 49.5t65 57h129l-169 -788h-143zM162 0l990 1307h145l-988 -1307h-147zM1082 0l31 152h-379l24 112l490 524h130l-112 -527h110l-24 -109h-110l-32 -152h-128zM890 261h249l76 354z" />
    <glyph glyph-name="onehalf" unicode="&#xbd;" horiz-adv-x="1571" 
d="M248 527l132 619q-34 -33 -92 -63t-140 -41l28 132q57 13 104.5 34.5t85.5 49.5t65 57h129l-169 -788h-143zM175 0l990 1307h145l-988 -1307h-147zM862 0l21 102l336 252q68 53 111 95.5t54 96.5q12 59 -15.5 96t-99.5 37q-74 0 -109.5 -40t-49.5 -106h-130
q23 122 95 192.5t206 70.5q83 0 142 -32.5t85 -92.5t9 -141q-11 -57 -44 -100.5t-83 -83t-113 -84.5l-192 -141h357l-26 -121h-554z" />
    <glyph glyph-name="threequarters" unicode="&#xbe;" horiz-adv-x="1660" 
d="M373 515q-141 0 -209 66t-60 188h129q-3 -75 34 -110t113 -35q70 0 110 29t54 90q14 69 -25 106.5t-114 37.5h-51l22 102h53q73 0 118 29.5t55 77.5q13 60 -22 89.5t-92 29.5q-68 0 -111 -30t-55 -96h-128q24 125 105.5 179.5t198.5 54.5q73 0 131 -26.5t87 -78.5
t14 -126q-13 -59 -59 -99t-117 -55q62 -18 99.5 -73t17.5 -148q-20 -100 -96 -151t-202 -51zM327 0l990 1307h145l-988 -1307h-147zM1235 0l31 152h-379l24 112l490 524h130l-112 -527h110l-24 -109h-110l-32 -152h-128zM1043 261h249l76 354z" />
    <glyph glyph-name="questiondown" unicode="&#xbf;" horiz-adv-x="939" 
d="M572 612q-14 -80 -41 -138t-71 -106t-110 -95q-61 -45 -104 -81.5t-69 -75t-37 -93.5q-12 -59 3 -111.5t60.5 -85t121.5 -32.5q108 0 182 63t94 194h164q-30 -195 -147.5 -291.5t-307.5 -96.5q-116 0 -199 48t-119.5 134.5t-14.5 199.5q15 73 48 123.5t86 95.5t126 99
q59 45 94.5 81t56 75.5t35.5 92.5h149zM532 1033q53 0 87 -36t34 -87q0 -52 -34 -87t-87 -35q-51 0 -85 34.5t-34 87.5q0 51 34 87t85 36z" />
    <glyph glyph-name="Agrave" unicode="&#xc0;" horiz-adv-x="1096" 
d="M-99 0l740 1346h183l163 -1346h-174l-30 384h-499l-198 -384h-185zM362 530h403l-64 647zM714 1463l-194 270h185l132 -270h-123z" />
    <glyph glyph-name="Aacute" unicode="&#xc1;" horiz-adv-x="1096" 
d="M-99 0l740 1346h183l163 -1346h-174l-30 384h-499l-198 -384h-185zM362 530h403l-64 647zM667 1463l222 268h194l-284 -268h-132z" />
    <glyph glyph-name="Acircumflex" unicode="&#xc2;" horiz-adv-x="1096" 
d="M-99 0l740 1346h183l163 -1346h-174l-30 384h-499l-198 -384h-185zM362 530h403l-64 647zM474 1461l252 270h159l136 -270h-127l-99 177l-179 -177h-142z" />
    <glyph glyph-name="Atilde" unicode="&#xc3;" horiz-adv-x="1096" 
d="M-99 0l740 1346h183l163 -1346h-174l-30 384h-499l-198 -384h-185zM362 530h403l-64 647zM474 1491q22 106 69.5 151.5t104.5 45.5q41 0 72 -13t64 -31q31 -16 52 -24.5t39 -8.5q23 0 39.5 20t27.5 62h94q-24 -101 -65 -146.5t-101 -45.5q-39 0 -68 12t-64 30
q-32 17 -53.5 26t-41.5 9q-25 0 -44.5 -21t-30.5 -66h-94z" />
    <glyph glyph-name="Adieresis" unicode="&#xc4;" horiz-adv-x="1096" 
d="M-99 0l740 1346h183l163 -1346h-174l-30 384h-499l-198 -384h-185zM362 530h403l-64 647zM920 1503q-35 0 -58.5 24t-23.5 60t24 61.5t59 25.5q33 0 56.5 -25t23.5 -60q0 -36 -24 -61t-57 -25zM600 1503q-35 0 -59 24t-24 60t24 61.5t60 25.5q33 0 57 -25t24 -60
q0 -36 -24 -61t-58 -25z" />
    <glyph glyph-name="Aring" unicode="&#xc5;" horiz-adv-x="1096" 
d="M-99 0l740 1346h183l163 -1346h-174l-30 384h-499l-198 -384h-185zM362 530h403l-64 647zM753 1378q-84 0 -144 58t-60 141q0 86 59.5 145t144.5 59q84 0 143.5 -58.5t59.5 -143.5q0 -84 -59.5 -142.5t-143.5 -58.5zM753 1462q49 0 82 34.5t33 82.5q0 50 -33 83.5
t-82 33.5t-82 -33.5t-33 -83.5q0 -48 33 -82.5t82 -34.5z" />
    <glyph glyph-name="AE" unicode="&#xc6;" horiz-adv-x="1622" 
d="M-99 0l810 1346h273l-17 -137h-169l-435 -741v-10l-264 -458h-198zM286 384l-1 144h577l1 -144h-577zM644 0l284 1346h781l-29 -143h-608l-94 -440h559l-30 -140h-559l-102 -480h607l-29 -143h-780z" />
    <glyph glyph-name="Ccedilla" unicode="&#xc7;" horiz-adv-x="1303" 
d="M626 -18q-187 0 -306.5 93.5t-164.5 259.5t-9 383q33 187 120.5 333t226 229.5t322.5 83.5q133 0 237.5 -48.5t163.5 -145t56 -239.5h-174q2 96 -36 160.5t-105.5 97t-155.5 32.5q-139 0 -237.5 -72t-159 -192t-85.5 -267q-26 -163 -2.5 -291t102.5 -201t218 -73
q145 0 243.5 76.5t141.5 240.5h175q-57 -238 -203.5 -349t-367.5 -111zM512 -382q-57 0 -96 9.5t-70 23.5l46 91q20 -12 55.5 -20t73.5 -8q33 0 58.5 14t30.5 43q9 37 -15 57.5t-96 30.5l-39 5l152 177l72 -41l-79 -93l-25 27q86 -5 123.5 -55.5t21.5 -125.5
q-11 -51 -42.5 -80t-76 -42t-94.5 -13z" />
    <glyph glyph-name="Egrave" unicode="&#xc8;" 
d="M58 0l286 1346h780l-29 -143h-608l-94 -440h559l-30 -140h-560l-101 -480h607l-29 -143h-781zM728 1463l-194 270h185l132 -270h-123z" />
    <glyph glyph-name="Eacute" unicode="&#xc9;" 
d="M58 0l286 1346h780l-29 -143h-608l-94 -440h559l-30 -140h-560l-101 -480h607l-29 -143h-781zM681 1463l222 268h194l-284 -268h-132z" />
    <glyph glyph-name="Ecircumflex" unicode="&#xca;" 
d="M58 0l286 1346h780l-29 -143h-608l-94 -440h559l-30 -140h-560l-101 -480h607l-29 -143h-781zM488 1461l252 270h159l136 -270h-127l-99 177l-179 -177h-142z" />
    <glyph glyph-name="Edieresis" unicode="&#xcb;" 
d="M58 0l286 1346h780l-29 -143h-608l-94 -440h559l-30 -140h-560l-101 -480h607l-29 -143h-781zM933 1503q-35 0 -58.5 24t-23.5 60t24 61.5t59 25.5q33 0 56.5 -25t23.5 -60q0 -36 -24 -61t-57 -25zM613 1503q-35 0 -59 24t-24 60t24 61.5t60 25.5q33 0 57 -25t24 -60
q0 -36 -24 -61t-58 -25z" />
    <glyph glyph-name="Igrave" unicode="&#xcc;" horiz-adv-x="497" 
d="M58 0l286 1346h174l-287 -1346h-173zM419 1463l-194 270h185l132 -270h-123z" />
    <glyph glyph-name="Iacute" unicode="&#xcd;" horiz-adv-x="497" 
d="M58 0l286 1346h174l-287 -1346h-173zM372 1463l222 268h194l-284 -268h-132z" />
    <glyph glyph-name="Icircumflex" unicode="&#xce;" horiz-adv-x="497" 
d="M58 0l286 1346h174l-287 -1346h-173zM179 1461l252 270h159l136 -270h-127l-99 177l-179 -177h-142z" />
    <glyph glyph-name="Idieresis" unicode="&#xcf;" horiz-adv-x="497" 
d="M58 0l286 1346h174l-287 -1346h-173zM625 1503q-35 0 -58.5 24t-23.5 60t24 61.5t59 25.5q33 0 56.5 -25t23.5 -60q0 -36 -24 -61t-57 -25zM305 1503q-35 0 -59 24t-24 60t24 61.5t60 25.5q33 0 57 -25t24 -60q0 -36 -24 -61t-58 -25z" />
    <glyph glyph-name="Eth" unicode="&#xd0;" horiz-adv-x="1280" 
d="M32 617l28 137h653l-30 -137h-651zM58 0l286 1346h372q149 0 257.5 -53.5t173 -152t80.5 -236t-20 -306.5q-66 -312 -253 -455t-481 -143h-415zM261 143h208q156 0 268 45.5t184.5 150.5t110.5 283q38 175 15 306t-110.5 202.5t-242.5 71.5h-207z" />
    <glyph glyph-name="Ntilde" unicode="&#xd1;" horiz-adv-x="1318" 
d="M58 0l286 1346h175l429 -1107l231 1107h159l-285 -1346h-175l-427 1101l-233 -1101h-160zM576 1491q22 106 69.5 151.5t104.5 45.5q41 0 72 -13t64 -31q31 -16 52 -24.5t39 -8.5q23 0 39.5 20t27.5 62h94q-24 -101 -65 -146.5t-101 -45.5q-39 0 -68 12t-64 30
q-32 17 -53.5 26t-41.5 9q-25 0 -44.5 -21t-30.5 -66h-94z" />
    <glyph glyph-name="Ograve" unicode="&#xd2;" horiz-adv-x="1365" 
d="M618 -18q-188 0 -307 95.5t-162 261.5t-3 378q36 196 124 341.5t227.5 226.5t330.5 81q186 0 304.5 -95.5t162 -262t3.5 -379.5q-36 -193 -122.5 -339t-226 -227t-331.5 -81zM630 120q144 0 244.5 71t162.5 193t88 274q28 152 7.5 281t-98 208t-221.5 79
q-142 0 -242.5 -70.5t-162 -192t-89.5 -275.5q-27 -152 -7 -281t97.5 -208t220.5 -79zM815 1463l-194 270h185l132 -270h-123z" />
    <glyph glyph-name="Oacute" unicode="&#xd3;" horiz-adv-x="1365" 
d="M618 -18q-188 0 -307 95.5t-162 261.5t-3 378q36 196 124 341.5t227.5 226.5t330.5 81q186 0 304.5 -95.5t162 -262t3.5 -379.5q-36 -193 -122.5 -339t-226 -227t-331.5 -81zM630 120q144 0 244.5 71t162.5 193t88 274q28 152 7.5 281t-98 208t-221.5 79
q-142 0 -242.5 -70.5t-162 -192t-89.5 -275.5q-27 -152 -7 -281t97.5 -208t220.5 -79zM768 1463l222 268h194l-284 -268h-132z" />
    <glyph glyph-name="Ocircumflex" unicode="&#xd4;" horiz-adv-x="1365" 
d="M618 -18q-188 0 -307 95.5t-162 261.5t-3 378q36 196 124 341.5t227.5 226.5t330.5 81q186 0 304.5 -95.5t162 -262t3.5 -379.5q-36 -193 -122.5 -339t-226 -227t-331.5 -81zM630 120q144 0 244.5 71t162.5 193t88 274q28 152 7.5 281t-98 208t-221.5 79
q-142 0 -242.5 -70.5t-162 -192t-89.5 -275.5q-27 -152 -7 -281t97.5 -208t220.5 -79zM575 1461l252 270h159l136 -270h-127l-99 177l-179 -177h-142z" />
    <glyph glyph-name="Otilde" unicode="&#xd5;" horiz-adv-x="1365" 
d="M618 -18q-188 0 -307 95.5t-162 261.5t-3 378q36 196 124 341.5t227.5 226.5t330.5 81q186 0 304.5 -95.5t162 -262t3.5 -379.5q-36 -193 -122.5 -339t-226 -227t-331.5 -81zM630 120q144 0 244.5 71t162.5 193t88 274q28 152 7.5 281t-98 208t-221.5 79
q-142 0 -242.5 -70.5t-162 -192t-89.5 -275.5q-27 -152 -7 -281t97.5 -208t220.5 -79zM575 1491q22 106 69.5 151.5t104.5 45.5q41 0 72 -13t64 -31q31 -16 52 -24.5t39 -8.5q23 0 39.5 20t27.5 62h94q-24 -101 -65 -146.5t-101 -45.5q-39 0 -68 12t-64 30q-32 17 -53.5 26
t-41.5 9q-25 0 -44.5 -21t-30.5 -66h-94z" />
    <glyph glyph-name="Odieresis" unicode="&#xd6;" horiz-adv-x="1365" 
d="M618 -18q-188 0 -307 95.5t-162 261.5t-3 378q36 196 124 341.5t227.5 226.5t330.5 81q186 0 304.5 -95.5t162 -262t3.5 -379.5q-36 -193 -122.5 -339t-226 -227t-331.5 -81zM630 120q144 0 244.5 71t162.5 193t88 274q28 152 7.5 281t-98 208t-221.5 79
q-142 0 -242.5 -70.5t-162 -192t-89.5 -275.5q-27 -152 -7 -281t97.5 -208t220.5 -79zM1021 1503q-35 0 -58.5 24t-23.5 60t24 61.5t59 25.5q33 0 56.5 -25t23.5 -60q0 -36 -24 -61t-57 -25zM701 1503q-35 0 -59 24t-24 60t24 61.5t60 25.5q33 0 57 -25t24 -60
q0 -36 -24 -61t-58 -25z" />
    <glyph glyph-name="multiply" unicode="&#xd7;" 
d="M199 415l609 608l102 -98l-608 -610zM300 1025l609 -609l-101 -101l-608 609z" />
    <glyph glyph-name="Oslash" unicode="&#xd8;" horiz-adv-x="1365" 
d="M82 -62l-78 77l233 233l11 6l879 916l13 6l230 232l77 -78l-234 -234l-11 -6l-880 -915l-12 -6zM618 -18q-186 0 -304.5 95.5t-162.5 261.5t-5 378q36 195 123.5 341t227 227t331.5 81q186 0 304 -96t161.5 -263t4.5 -379q-36 -193 -123 -338.5t-226.5 -226.5t-330.5 -81
zM631 120q144 0 243.5 70.5t161 193t89.5 278.5q27 153 6 281t-98 204.5t-219 76.5q-143 0 -243.5 -70t-162 -191t-89.5 -276q-27 -151 -6.5 -280.5t98 -208t220.5 -78.5z" />
    <glyph glyph-name="Ugrave" unicode="&#xd9;" horiz-adv-x="1271" 
d="M570 -18q-157 0 -262 68t-144.5 197.5t-0.5 310.5l164 788h177l-169 -802q-28 -138 -6.5 -231t87.5 -140.5t169 -47.5q150 0 238 84.5t132 290.5l177 846h176l-183 -855q-35 -171 -102.5 -284t-177.5 -169t-275 -56zM794 1463l-194 270h185l132 -270h-123z" />
    <glyph glyph-name="Uacute" unicode="&#xda;" horiz-adv-x="1271" 
d="M570 -18q-157 0 -262 68t-144.5 197.5t-0.5 310.5l164 788h177l-169 -802q-28 -138 -6.5 -231t87.5 -140.5t169 -47.5q150 0 238 84.5t132 290.5l177 846h176l-183 -855q-35 -171 -102.5 -284t-177.5 -169t-275 -56zM747 1463l222 268h194l-284 -268h-132z" />
    <glyph glyph-name="Ucircumflex" unicode="&#xdb;" horiz-adv-x="1271" 
d="M570 -18q-157 0 -262 68t-144.5 197.5t-0.5 310.5l164 788h177l-169 -802q-28 -138 -6.5 -231t87.5 -140.5t169 -47.5q150 0 238 84.5t132 290.5l177 846h176l-183 -855q-35 -171 -102.5 -284t-177.5 -169t-275 -56zM554 1461l252 270h159l136 -270h-127l-99 177
l-179 -177h-142z" />
    <glyph glyph-name="Udieresis" unicode="&#xdc;" horiz-adv-x="1271" 
d="M570 -18q-157 0 -262 68t-144.5 197.5t-0.5 310.5l164 788h177l-169 -802q-28 -138 -6.5 -231t87.5 -140.5t169 -47.5q150 0 238 84.5t132 290.5l177 846h176l-183 -855q-35 -171 -102.5 -284t-177.5 -169t-275 -56zM1000 1503q-35 0 -58.5 24t-23.5 60t24 61.5t59 25.5
q33 0 56.5 -25t23.5 -60q0 -36 -24 -61t-57 -25zM680 1503q-35 0 -59 24t-24 60t24 61.5t60 25.5q33 0 57 -25t24 -60q0 -36 -24 -61t-58 -25z" />
    <glyph glyph-name="Yacute" unicode="&#xdd;" horiz-adv-x="1009" 
d="M310 0l116 539l-246 807h179l181 -657l449 657h200l-589 -808l-115 -538h-175zM621 1463l222 268h194l-284 -268h-132z" />
    <glyph glyph-name="Thorn" unicode="&#xde;" horiz-adv-x="1106" 
d="M133 268l30 142h412q109 0 192 60.5t106 176.5q28 142 -31 215t-180 73h-388l31 142h370q141 0 231 -59t125 -161t8 -231q-38 -183 -165.5 -270.5t-314.5 -87.5h-426zM58 0l286 1346h174l-287 -1346h-173z" />
    <glyph glyph-name="germandbls" unicode="&#xdf;" 
d="M442 -12q-44 0 -75 3t-57 9l28 132q24 -8 50 -12.5t65 -4.5q116 0 190.5 56.5t100.5 178.5q30 142 -33.5 219t-193.5 77h-69l24 123h73q102 0 176.5 50t99.5 172q23 106 -22 171t-138 65q-100 0 -166 -70.5t-98 -220.5l-199 -936h-162l201 943q43 200 150 310.5
t286 110.5q115 0 190.5 -50t106 -137.5t4.5 -199.5q-18 -89 -65.5 -148.5t-123 -93.5t-181.5 -47l-60 61q97 0 173 -30.5t124.5 -86.5t66 -133t-2.5 -170q-26 -125 -89.5 -199.5t-158 -108t-215.5 -33.5z" />
    <glyph glyph-name="agrave" unicode="&#xe0;" horiz-adv-x="993" 
d="M297 -18q-90 0 -151.5 38.5t-86 110.5t-5.5 170q24 120 111.5 183.5t229 87.5t324.5 27l16 71q20 95 4.5 149t-57.5 76t-99 22q-83 0 -140.5 -34t-77.5 -110h-157q32 138 131 199.5t252 61.5q101 0 179 -37.5t113.5 -121t5.5 -219.5l-139 -656h-150l24 138
q-64 -65 -142.5 -110.5t-184.5 -45.5zM340 102q61 0 116 23t103.5 61t88.5 82l49 234q-239 -4 -353.5 -54t-137.5 -162q-15 -78 18.5 -131t115.5 -53zM585 1152l-199 269h184l135 -269h-120z" />
    <glyph glyph-name="aacute" unicode="&#xe1;" horiz-adv-x="993" 
d="M297 -18q-90 0 -151.5 38.5t-86 110.5t-5.5 170q24 120 111.5 183.5t229 87.5t324.5 27l16 71q20 95 4.5 149t-57.5 76t-99 22q-83 0 -140.5 -34t-77.5 -110h-157q32 138 131 199.5t252 61.5q101 0 179 -37.5t113.5 -121t5.5 -219.5l-139 -656h-150l24 138
q-64 -65 -142.5 -110.5t-184.5 -45.5zM340 102q61 0 116 23t103.5 61t88.5 82l49 234q-239 -4 -353.5 -54t-137.5 -162q-15 -78 18.5 -131t115.5 -53zM521 1152l226 269h198l-294 -269h-130z" />
    <glyph glyph-name="acircumflex" unicode="&#xe2;" horiz-adv-x="993" 
d="M297 -18q-90 0 -151.5 38.5t-86 110.5t-5.5 170q24 120 111.5 183.5t229 87.5t324.5 27l16 71q20 95 4.5 149t-57.5 76t-99 22q-83 0 -140.5 -34t-77.5 -110h-157q32 138 131 199.5t252 61.5q101 0 179 -37.5t113.5 -121t5.5 -219.5l-139 -656h-150l24 138
q-64 -65 -142.5 -110.5t-184.5 -45.5zM340 102q61 0 116 23t103.5 61t88.5 82l49 234q-239 -4 -353.5 -54t-137.5 -162q-15 -78 18.5 -131t115.5 -53zM336 1152l250 269h161l136 -269h-125l-102 175l-182 -175h-138z" />
    <glyph glyph-name="atilde" unicode="&#xe3;" horiz-adv-x="993" 
d="M297 -18q-90 0 -151.5 38.5t-86 110.5t-5.5 170q24 120 111.5 183.5t229 87.5t324.5 27l16 71q20 95 4.5 149t-57.5 76t-99 22q-83 0 -140.5 -34t-77.5 -110h-157q32 138 131 199.5t252 61.5q101 0 179 -37.5t113.5 -121t5.5 -219.5l-139 -656h-150l24 138
q-64 -65 -142.5 -110.5t-184.5 -45.5zM340 102q61 0 116 23t103.5 61t88.5 82l49 234q-239 -4 -353.5 -54t-137.5 -162q-15 -78 18.5 -131t115.5 -53zM367 1181q22 106 69.5 151.5t104.5 45.5q40 0 71 -13t65 -31q31 -16 52 -24.5t39 -8.5q23 0 39.5 20t26.5 61h95
q-24 -101 -65 -146.5t-101 -45.5q-40 0 -68.5 12t-64.5 31q-32 17 -53.5 26t-40.5 9q-25 0 -44.5 -21t-30.5 -66h-94z" />
    <glyph glyph-name="adieresis" unicode="&#xe4;" horiz-adv-x="993" 
d="M297 -18q-90 0 -151.5 38.5t-86 110.5t-5.5 170q24 120 111.5 183.5t229 87.5t324.5 27l16 71q20 95 4.5 149t-57.5 76t-99 22q-83 0 -140.5 -34t-77.5 -110h-157q32 138 131 199.5t252 61.5q101 0 179 -37.5t113.5 -121t5.5 -219.5l-139 -656h-150l24 138
q-64 -65 -142.5 -110.5t-184.5 -45.5zM340 102q61 0 116 23t103.5 61t88.5 82l49 234q-239 -4 -353.5 -54t-137.5 -162q-15 -78 18.5 -131t115.5 -53zM786 1190q-33 0 -57 25t-24 60q0 36 24.5 61t58.5 25q33 0 57 -24.5t24 -59.5q0 -36 -24.5 -61.5t-58.5 -25.5zM467 1190
q-35 0 -59 25t-24 60q0 36 24.5 61t59.5 25q32 0 56 -24.5t24 -59.5q0 -36 -24.5 -61.5t-56.5 -25.5z" />
    <glyph glyph-name="aring" unicode="&#xe5;" horiz-adv-x="993" 
d="M297 -18q-90 0 -151.5 38.5t-86 110.5t-5.5 170q24 120 111.5 183.5t229 87.5t324.5 27l16 71q20 95 4.5 149t-57.5 76t-99 22q-83 0 -140.5 -34t-77.5 -110h-157q32 138 131 199.5t252 61.5q101 0 179 -37.5t113.5 -121t5.5 -219.5l-139 -656h-150l24 138
q-64 -65 -142.5 -110.5t-184.5 -45.5zM340 102q61 0 116 23t103.5 61t88.5 82l49 234q-239 -4 -353.5 -54t-137.5 -162q-15 -78 18.5 -131t115.5 -53zM636 1119q-84 0 -144 58t-60 144q0 85 59 144.5t145 59.5q84 0 144 -58.5t60 -143.5q0 -87 -60 -145.5t-144 -58.5z
M636 1206q49 0 82 34t33 83q0 50 -33 82.5t-82 32.5t-82.5 -32.5t-33.5 -82.5q0 -49 33.5 -83t82.5 -34z" />
    <glyph glyph-name="ae" unicode="&#xe6;" horiz-adv-x="1570" 
d="M299 -18q-91 0 -153.5 41t-87 114t-3.5 168q20 91 75 148t143.5 88t207 43t265.5 12h643l-64 -10q20 107 5 179t-60.5 109t-117.5 37q-119 0 -191 -89t-108 -265l-3 -15h-159l34 147q19 85 2 134t-58 69.5t-92 20.5q-82 0 -138.5 -37t-73.5 -114h-157q30 138 129 203
t257 65q73 0 137 -22.5t103.5 -74.5t36.5 -142h-74q58 109 146.5 174t226.5 65q112 0 190 -56t109.5 -168.5t2.5 -282.5l-6 -34h-735l2 8q-173 1 -283.5 -19t-168.5 -66t-74 -125q-17 -83 19.5 -133.5t118.5 -50.5q86 0 171 52.5t163 166.5l50 -62q-42 -75 -105.5 -138.5
t-145.5 -101.5t-179 -38zM1023 -18q-133 0 -218.5 69.5t-117 191t-2.5 277.5l159 -7q-24 -111 -13.5 -205t60 -150t143.5 -56q95 0 149 38.5t75 111.5h161q-37 -129 -136.5 -199.5t-259.5 -70.5z" />
    <glyph glyph-name="ccedilla" unicode="&#xe7;" horiz-adv-x="989" 
d="M447 -18q-121 0 -209 64t-125.5 186.5t-8.5 296.5q43 260 166.5 382.5t309.5 122.5q106 0 180 -36.5t114 -103.5t41 -158h-159q-3 51 -23.5 90t-61 61t-103.5 22q-129 0 -203.5 -105.5t-104.5 -284.5q-33 -200 21 -306t181 -106q92 0 150 47t77 131h158
q-35 -156 -137.5 -229.5t-262.5 -73.5zM335 -382q-57 0 -96 9.5t-70 23.5l46 91q20 -12 55.5 -20t73.5 -8q33 0 58.5 14t30.5 43q9 37 -15 57.5t-96 30.5l-39 5l152 177l72 -41l-79 -93l-25 27q86 -5 123.5 -55.5t21.5 -125.5q-11 -51 -42.5 -80t-76 -42t-94.5 -13z" />
    <glyph glyph-name="egrave" unicode="&#xe8;" horiz-adv-x="993" 
d="M453 -18q-142 0 -227.5 72t-115.5 197t-5 284q24 148 84.5 260t157 175.5t225.5 63.5q128 0 209 -68t108.5 -193t-5.5 -296h-628q-15 -106 -0.5 -190.5t65 -133.5t142.5 -49q81 0 140.5 38.5t81.5 124.5h159q-36 -140 -137 -212.5t-254 -72.5zM277 596h465
q13 93 -3.5 164t-60.5 111.5t-115 40.5q-106 0 -179.5 -79.5t-106.5 -236.5zM581 1152l-199 269h184l135 -269h-120z" />
    <glyph glyph-name="eacute" unicode="&#xe9;" horiz-adv-x="993" 
d="M453 -18q-142 0 -227.5 72t-115.5 197t-5 284q24 148 84.5 260t157 175.5t225.5 63.5q128 0 209 -68t108.5 -193t-5.5 -296h-628q-15 -106 -0.5 -190.5t65 -133.5t142.5 -49q81 0 140.5 38.5t81.5 124.5h159q-36 -140 -137 -212.5t-254 -72.5zM277 596h465
q13 93 -3.5 164t-60.5 111.5t-115 40.5q-106 0 -179.5 -79.5t-106.5 -236.5zM517 1152l226 269h198l-294 -269h-130z" />
    <glyph glyph-name="ecircumflex" unicode="&#xea;" horiz-adv-x="993" 
d="M453 -18q-142 0 -227.5 72t-115.5 197t-5 284q24 148 84.5 260t157 175.5t225.5 63.5q128 0 209 -68t108.5 -193t-5.5 -296h-628q-15 -106 -0.5 -190.5t65 -133.5t142.5 -49q81 0 140.5 38.5t81.5 124.5h159q-36 -140 -137 -212.5t-254 -72.5zM277 596h465
q13 93 -3.5 164t-60.5 111.5t-115 40.5q-106 0 -179.5 -79.5t-106.5 -236.5zM332 1152l250 269h161l136 -269h-125l-102 175l-182 -175h-138z" />
    <glyph glyph-name="edieresis" unicode="&#xeb;" horiz-adv-x="993" 
d="M453 -18q-142 0 -227.5 72t-115.5 197t-5 284q24 148 84.5 260t157 175.5t225.5 63.5q128 0 209 -68t108.5 -193t-5.5 -296h-628q-15 -106 -0.5 -190.5t65 -133.5t142.5 -49q81 0 140.5 38.5t81.5 124.5h159q-36 -140 -137 -212.5t-254 -72.5zM277 596h465
q13 93 -3.5 164t-60.5 111.5t-115 40.5q-106 0 -179.5 -79.5t-106.5 -236.5zM782 1190q-33 0 -57 25t-24 60q0 36 24.5 61t58.5 25q33 0 57 -24.5t24 -59.5q0 -36 -24.5 -61.5t-58.5 -25.5zM463 1190q-35 0 -59 25t-24 60q0 36 24.5 61t59.5 25q32 0 56 -24.5t24 -59.5
q0 -36 -24.5 -61.5t-56.5 -25.5z" />
    <glyph glyph-name="igrave" unicode="&#xec;" horiz-adv-x="466" 
d="M44 0l216 1016h162l-220 -1016h-158zM334 1152l-199 269h184l135 -269h-120z" />
    <glyph glyph-name="iacute" unicode="&#xed;" horiz-adv-x="466" 
d="M44 0l216 1016h162l-220 -1016h-158zM270 1152l226 269h198l-294 -269h-130z" />
    <glyph glyph-name="icircumflex" unicode="&#xee;" horiz-adv-x="466" 
d="M44 0l216 1016h162l-220 -1016h-158zM85 1152l250 269h161l136 -269h-125l-102 175l-182 -175h-138z" />
    <glyph glyph-name="idieresis" unicode="&#xef;" horiz-adv-x="466" 
d="M44 0l216 1016h162l-220 -1016h-158zM509 1190q-33 0 -57.5 25t-24.5 60q0 36 24.5 61t59.5 25q32 0 56.5 -24.5t24.5 -59.5q0 -36 -24.5 -61.5t-58.5 -25.5zM242 1190q-35 0 -59 25t-24 60q0 36 24.5 61t59.5 25q33 0 56.5 -24.5t23.5 -59.5q0 -36 -24 -61.5t-57 -25.5z
" />
    <glyph glyph-name="eth" unicode="&#xf0;" horiz-adv-x="1026" 
d="M450 -16q-128 0 -219.5 64t-127.5 188t2 302q27 126 93 223t164 152.5t218 55.5q84 0 137 -26.5t79.5 -75t31.5 -117.5h-31q-7 56 -20.5 104.5t-36.5 96t-60 100.5t-93 119l-146 176h177l90 -106q99 -113 157.5 -233.5t73.5 -257.5t-19 -301q-28 -141 -92.5 -245.5
t-159.5 -161.5t-218 -57zM459 107q82 0 141.5 46.5t99 125.5t60.5 177q26 116 15.5 203.5t-61 136t-143.5 48.5q-91 0 -152.5 -45.5t-99 -119.5t-56.5 -159q-26 -125 -13 -218t65.5 -144t143.5 -51zM337 1020l25 123l296 107v-4l293 108l-26 -121l-266 -97l-16 -1z" />
    <glyph glyph-name="ntilde" unicode="&#xf1;" horiz-adv-x="1037" 
d="M45 0l215 1016h156l-25 -142q54 58 127 107t184 49q94 0 154 -45t80.5 -129t-4.5 -201l-138 -655h-161l140 657q23 112 -6.5 176t-120.5 64q-87 0 -158 -49.5t-124 -105.5l-158 -742h-161zM402 1181q22 106 69.5 151.5t104.5 45.5q40 0 71 -13t65 -31q31 -16 52 -24.5
t39 -8.5q23 0 39.5 20t26.5 61h95q-24 -101 -65 -146.5t-101 -45.5q-40 0 -68.5 12t-64.5 31q-32 17 -53.5 26t-40.5 9q-25 0 -44.5 -21t-30.5 -66h-94z" />
    <glyph glyph-name="ograve" unicode="&#xf2;" horiz-adv-x="1032" 
d="M456 -18q-135 0 -226.5 71.5t-124 203.5t5.5 310q47 222 169.5 344t312.5 122q132 0 219 -72t118.5 -203t-5.5 -310q-46 -222 -164.5 -344t-304.5 -122zM467 107q124 0 194.5 99.5t105.5 264.5q28 120 17.5 219.5t-60.5 158.5t-144 59q-86 0 -147 -45t-101 -126t-63 -189
q-27 -125 -15.5 -225t64 -158t149.5 -58zM591 1152l-199 269h184l135 -269h-120z" />
    <glyph glyph-name="oacute" unicode="&#xf3;" horiz-adv-x="1032" 
d="M456 -18q-135 0 -226.5 71.5t-124 203.5t5.5 310q47 222 169.5 344t312.5 122q132 0 219 -72t118.5 -203t-5.5 -310q-46 -222 -164.5 -344t-304.5 -122zM467 107q124 0 194.5 99.5t105.5 264.5q28 120 17.5 219.5t-60.5 158.5t-144 59q-86 0 -147 -45t-101 -126t-63 -189
q-27 -125 -15.5 -225t64 -158t149.5 -58zM527 1152l226 269h198l-294 -269h-130z" />
    <glyph glyph-name="ocircumflex" unicode="&#xf4;" horiz-adv-x="1032" 
d="M456 -18q-135 0 -226.5 71.5t-124 203.5t5.5 310q47 222 169.5 344t312.5 122q132 0 219 -72t118.5 -203t-5.5 -310q-46 -222 -164.5 -344t-304.5 -122zM467 107q124 0 194.5 99.5t105.5 264.5q28 120 17.5 219.5t-60.5 158.5t-144 59q-86 0 -147 -45t-101 -126t-63 -189
q-27 -125 -15.5 -225t64 -158t149.5 -58zM342 1152l250 269h161l136 -269h-125l-102 175l-182 -175h-138z" />
    <glyph glyph-name="otilde" unicode="&#xf5;" horiz-adv-x="1032" 
d="M456 -18q-135 0 -226.5 71.5t-124 203.5t5.5 310q47 222 169.5 344t312.5 122q132 0 219 -72t118.5 -203t-5.5 -310q-46 -222 -164.5 -344t-304.5 -122zM467 107q124 0 194.5 99.5t105.5 264.5q28 120 17.5 219.5t-60.5 158.5t-144 59q-86 0 -147 -45t-101 -126t-63 -189
q-27 -125 -15.5 -225t64 -158t149.5 -58zM373 1181q22 106 69.5 151.5t104.5 45.5q40 0 71 -13t65 -31q31 -16 52 -24.5t39 -8.5q23 0 39.5 20t26.5 61h95q-24 -101 -65 -146.5t-101 -45.5q-40 0 -68.5 12t-64.5 31q-32 17 -53.5 26t-40.5 9q-25 0 -44.5 -21t-30.5 -66h-94z
" />
    <glyph glyph-name="odieresis" unicode="&#xf6;" horiz-adv-x="1032" 
d="M456 -18q-135 0 -226.5 71.5t-124 203.5t5.5 310q47 222 169.5 344t312.5 122q132 0 219 -72t118.5 -203t-5.5 -310q-46 -222 -164.5 -344t-304.5 -122zM467 107q124 0 194.5 99.5t105.5 264.5q28 120 17.5 219.5t-60.5 158.5t-144 59q-86 0 -147 -45t-101 -126t-63 -189
q-27 -125 -15.5 -225t64 -158t149.5 -58zM792 1190q-33 0 -57 25t-24 60q0 36 24.5 61t58.5 25q33 0 57 -24.5t24 -59.5q0 -36 -24.5 -61.5t-58.5 -25.5zM473 1190q-35 0 -59 25t-24 60q0 36 24.5 61t59.5 25q32 0 56 -24.5t24 -59.5q0 -36 -24.5 -61.5t-56.5 -25.5z" />
    <glyph glyph-name="divide" unicode="&#xf7;" 
d="M126 741h854v-142h-854v142zM554 222q-52 0 -87 35t-35 86t35 85t87 34q51 0 85.5 -34t34.5 -85t-34.5 -86t-85.5 -35zM554 879q-52 0 -87 34.5t-35 84.5q0 51 35 85.5t87 34.5q51 0 85.5 -34.5t34.5 -85.5q0 -50 -34.5 -84.5t-85.5 -34.5z" />
    <glyph glyph-name="oslash" unicode="&#xf8;" horiz-adv-x="1026" 
d="M43 -66l-65 66l1017 1071l65 -64zM454 -16q-136 0 -227 71t-124 201.5t4 307.5q48 222 170 343.5t311 121.5q136 0 223 -71.5t117.5 -202.5t-7.5 -310q-46 -218 -163.5 -339.5t-303.5 -121.5zM465 109q84 0 143 44.5t98 125.5t63 190q26 119 18 217.5t-59 158t-153 59.5
q-87 0 -148.5 -45t-102 -127t-65.5 -192q-25 -119 -13.5 -217t65.5 -156t154 -58z" />
    <glyph glyph-name="ugrave" unicode="&#xf9;" horiz-adv-x="1037" 
d="M335 -14q-95 0 -155 45t-80 129.5t4 200.5l140 655h161l-141 -658q-23 -111 7.5 -174.5t121.5 -63.5q60 0 111 24.5t93.5 61.5t77.5 74l156 736h162l-216 -1016h-157l28 146q-37 -39 -81 -76t-101 -60.5t-131 -23.5zM619 1152l-199 269h184l135 -269h-120z" />
    <glyph glyph-name="uacute" unicode="&#xfa;" horiz-adv-x="1037" 
d="M335 -14q-95 0 -155 45t-80 129.5t4 200.5l140 655h161l-141 -658q-23 -111 7.5 -174.5t121.5 -63.5q60 0 111 24.5t93.5 61.5t77.5 74l156 736h162l-216 -1016h-157l28 146q-37 -39 -81 -76t-101 -60.5t-131 -23.5zM555 1152l226 269h198l-294 -269h-130z" />
    <glyph glyph-name="ucircumflex" unicode="&#xfb;" horiz-adv-x="1037" 
d="M335 -14q-95 0 -155 45t-80 129.5t4 200.5l140 655h161l-141 -658q-23 -111 7.5 -174.5t121.5 -63.5q60 0 111 24.5t93.5 61.5t77.5 74l156 736h162l-216 -1016h-157l28 146q-37 -39 -81 -76t-101 -60.5t-131 -23.5zM370 1152l250 269h161l136 -269h-125l-102 175
l-182 -175h-138z" />
    <glyph glyph-name="udieresis" unicode="&#xfc;" horiz-adv-x="1037" 
d="M335 -14q-95 0 -155 45t-80 129.5t4 200.5l140 655h161l-141 -658q-23 -111 7.5 -174.5t121.5 -63.5q60 0 111 24.5t93.5 61.5t77.5 74l156 736h162l-216 -1016h-157l28 146q-37 -39 -81 -76t-101 -60.5t-131 -23.5zM820 1190q-33 0 -57 25t-24 60q0 36 24.5 61t58.5 25
q33 0 57 -24.5t24 -59.5q0 -36 -24.5 -61.5t-58.5 -25.5zM501 1190q-35 0 -59 25t-24 60q0 36 24.5 61t59.5 25q32 0 56 -24.5t24 -59.5q0 -36 -24.5 -61.5t-56.5 -25.5z" />
    <glyph glyph-name="yacute" unicode="&#xfd;" horiz-adv-x="847" 
d="M-82 -361l28 132h77q56 0 96.5 31t79.5 103l53 95l-135 1016h164l84 -844l427 844h173l-609 -1127q-37 -69 -71.5 -117t-72.5 -77.5t-84.5 -42.5t-107.5 -13h-102zM467 1152l226 269h198l-294 -269h-130z" />
    <glyph glyph-name="thorn" unicode="&#xfe;" horiz-adv-x="1053" 
d="M-33 -361l366 1707h156l-105 -501q53 70 126 119t175 49q110 0 181 -68t94 -194.5t-14 -300.5q-53 -244 -166 -356t-266 -112q-95 0 -167.5 44t-112.5 116l-106 -503h-161zM501 111q108 0 176.5 88t108.5 269q28 125 20 218.5t-49 145.5t-115 52q-64 0 -117 -26.5
t-95.5 -68t-75.5 -88.5l-88 -421q32 -78 93 -123.5t142 -45.5z" />
    <glyph glyph-name="ydieresis" unicode="&#xff;" horiz-adv-x="847" 
d="M-82 -361l28 132h77q56 0 96.5 31t79.5 103l53 95l-135 1016h164l84 -844l427 844h173l-609 -1127q-37 -69 -71.5 -117t-72.5 -77.5t-84.5 -42.5t-107.5 -13h-102zM731 1190q-33 0 -57 25t-24 60q0 36 24.5 61t58.5 25q33 0 57 -24.5t24 -59.5q0 -36 -24.5 -61.5
t-58.5 -25.5zM412 1190q-35 0 -59 25t-24 60q0 36 24.5 61t59.5 25q32 0 56 -24.5t24 -59.5q0 -36 -24.5 -61.5t-56.5 -25.5z" />
    <glyph glyph-name="Amacron" unicode="&#x100;" horiz-adv-x="1096" 
d="M-99 0l740 1346h183l163 -1346h-174l-30 384h-499l-198 -384h-185zM362 530h403l-64 647zM505 1535l25 116h496l-26 -116h-495z" />
    <glyph glyph-name="amacron" unicode="&#x101;" horiz-adv-x="993" 
d="M297 -18q-90 0 -151.5 38.5t-86 110.5t-5.5 170q24 120 111.5 183.5t229 87.5t324.5 27l16 71q20 95 4.5 149t-57.5 76t-99 22q-83 0 -140.5 -34t-77.5 -110h-157q32 138 131 199.5t252 61.5q101 0 179 -37.5t113.5 -121t5.5 -219.5l-139 -656h-150l24 138
q-64 -65 -142.5 -110.5t-184.5 -45.5zM340 102q61 0 116 23t103.5 61t88.5 82l49 234q-239 -4 -353.5 -54t-137.5 -162q-15 -78 18.5 -131t115.5 -53zM384 1225l24 115h496l-25 -115h-495z" />
    <glyph glyph-name="Abreve" unicode="&#x102;" horiz-adv-x="1096" 
d="M-99 0l740 1346h183l163 -1346h-174l-30 384h-499l-198 -384h-185zM362 530h403l-64 647zM764 1483q-114 0 -172 66.5t-48 183.5h95q-6 -73 33.5 -108.5t99.5 -35.5q39 0 78 15t71.5 46.5t49.5 82.5h93q-35 -116 -110 -183t-190 -67z" />
    <glyph glyph-name="abreve" unicode="&#x103;" horiz-adv-x="993" 
d="M297 -18q-90 0 -151.5 38.5t-86 110.5t-5.5 170q24 120 111.5 183.5t229 87.5t324.5 27l16 71q20 95 4.5 149t-57.5 76t-99 22q-83 0 -140.5 -34t-77.5 -110h-157q32 138 131 199.5t252 61.5q101 0 179 -37.5t113.5 -121t5.5 -219.5l-139 -656h-150l24 138
q-64 -65 -142.5 -110.5t-184.5 -45.5zM340 102q61 0 116 23t103.5 61t88.5 82l49 234q-239 -4 -353.5 -54t-137.5 -162q-15 -78 18.5 -131t115.5 -53zM631 1161q-116 0 -173.5 66t-45.5 184h93q-4 -51 14.5 -83t50.5 -46.5t70 -14.5q39 0 78.5 15t71.5 47t49 82h93
q-36 -116 -112 -183t-189 -67z" />
    <glyph glyph-name="Aogonek" unicode="&#x104;" horiz-adv-x="1096" 
d="M-99 0l740 1346h183l163 -1346h-174l-30 384h-499l-198 -384h-185zM362 530h403l-64 647zM786 -375q-73 0 -117 45t-28 127q15 70 85 136t175 101l58 -18q-89 -58 -131 -110t-50 -91q-8 -40 6.5 -59.5t42.5 -19.5q29 0 57 8.5t61 22.5l-22 -108q-24 -14 -57 -24t-80 -10z
" />
    <glyph glyph-name="aogonek" unicode="&#x105;" horiz-adv-x="993" 
d="M297 -18q-90 0 -151.5 38.5t-86 110.5t-5.5 170q24 120 111.5 183.5t229 87.5t324.5 27l16 71q20 95 4.5 149t-57.5 76t-99 22q-83 0 -140.5 -34t-77.5 -110h-157q32 138 131 199.5t252 61.5q101 0 179 -37.5t113.5 -121t5.5 -219.5l-139 -656h-150l24 138
q-64 -65 -142.5 -110.5t-184.5 -45.5zM340 102q61 0 116 23t103.5 61t88.5 82l49 234q-239 -4 -353.5 -54t-137.5 -162q-15 -78 18.5 -131t115.5 -53zM556 -375q-73 0 -117 45t-28 127q15 70 85 136t175 101l58 -18q-89 -58 -131 -110t-50 -91q-8 -40 6.5 -59.5t42.5 -19.5
q29 0 57 8.5t61 22.5l-22 -108q-24 -14 -57 -24t-80 -10z" />
    <glyph glyph-name="Cacute" unicode="&#x106;" horiz-adv-x="1303" 
d="M626 -18q-187 0 -306.5 93.5t-164.5 259.5t-9 383q33 187 120.5 333t226 229.5t322.5 83.5q133 0 237.5 -48.5t163.5 -145t56 -239.5h-174q2 96 -36 160.5t-105.5 97t-155.5 32.5q-139 0 -237.5 -72t-159 -192t-85.5 -267q-26 -163 -2.5 -291t102.5 -201t218 -73
q145 0 243.5 76.5t141.5 240.5h175q-57 -238 -203.5 -349t-367.5 -111zM763 1463l222 268h194l-284 -268h-132z" />
    <glyph glyph-name="cacute" unicode="&#x107;" horiz-adv-x="989" 
d="M447 -18q-121 0 -209 64t-125.5 186.5t-8.5 296.5q43 260 166.5 382.5t309.5 122.5q106 0 180 -36.5t114 -103.5t41 -158h-159q-3 51 -23.5 90t-61 61t-103.5 22q-129 0 -203.5 -105.5t-104.5 -284.5q-33 -200 21 -306t181 -106q92 0 150 47t77 131h158
q-35 -156 -137.5 -229.5t-262.5 -73.5zM511 1153l226 269h198l-294 -269h-130z" />
    <glyph glyph-name="Ccircumflex" unicode="&#x108;" horiz-adv-x="1303" 
d="M626 -18q-187 0 -306.5 93.5t-164.5 259.5t-9 383q33 187 120.5 333t226 229.5t322.5 83.5q133 0 237.5 -48.5t163.5 -145t56 -239.5h-174q2 96 -36 160.5t-105.5 97t-155.5 32.5q-139 0 -237.5 -72t-159 -192t-85.5 -267q-26 -163 -2.5 -291t102.5 -201t218 -73
q145 0 243.5 76.5t141.5 240.5h175q-57 -238 -203.5 -349t-367.5 -111zM570 1461l252 270h159l136 -270h-127l-99 177l-179 -177h-142z" />
    <glyph glyph-name="ccircumflex" unicode="&#x109;" horiz-adv-x="989" 
d="M447 -18q-121 0 -209 64t-125.5 186.5t-8.5 296.5q43 260 166.5 382.5t309.5 122.5q106 0 180 -36.5t114 -103.5t41 -158h-159q-3 51 -23.5 90t-61 61t-103.5 22q-129 0 -203.5 -105.5t-104.5 -284.5q-33 -200 21 -306t181 -106q92 0 150 47t77 131h158
q-35 -156 -137.5 -229.5t-262.5 -73.5zM326 1153l250 269h161l136 -269h-125l-102 175l-182 -175h-138z" />
    <glyph glyph-name="Cdotaccent" unicode="&#x10a;" horiz-adv-x="1303" 
d="M626 -18q-187 0 -306.5 93.5t-164.5 259.5t-9 383q33 187 120.5 333t226 229.5t322.5 83.5q133 0 237.5 -48.5t163.5 -145t56 -239.5h-174q2 96 -36 160.5t-105.5 97t-155.5 32.5q-139 0 -237.5 -72t-159 -192t-85.5 -267q-26 -163 -2.5 -291t102.5 -201t218 -73
q145 0 243.5 76.5t141.5 240.5h175q-57 -238 -203.5 -349t-367.5 -111zM862 1509q-44 0 -71.5 27.5t-27.5 66.5t28 67t73 28q43 0 69 -27.5t26 -66.5q0 -40 -26.5 -67.5t-70.5 -27.5z" />
    <glyph glyph-name="cdotaccent" unicode="&#x10b;" horiz-adv-x="989" 
d="M447 -18q-121 0 -209 64t-125.5 186.5t-8.5 296.5q43 260 166.5 382.5t309.5 122.5q106 0 180 -36.5t114 -103.5t41 -158h-159q-3 51 -23.5 90t-61 61t-103.5 22q-129 0 -203.5 -105.5t-104.5 -284.5q-33 -200 21 -306t181 -106q92 0 150 47t77 131h158
q-35 -156 -137.5 -229.5t-262.5 -73.5zM640 1203q-44 0 -71.5 27t-27.5 66t28 67t73 28q43 0 69 -27.5t26 -66.5q0 -40 -26.5 -67t-70.5 -27z" />
    <glyph glyph-name="Ccaron" unicode="&#x10c;" horiz-adv-x="1303" 
d="M626 -18q-187 0 -306.5 93.5t-164.5 259.5t-9 383q33 187 120.5 333t226 229.5t322.5 83.5q133 0 237.5 -48.5t163.5 -145t56 -239.5h-174q2 96 -36 160.5t-105.5 97t-155.5 32.5q-139 0 -237.5 -72t-159 -192t-85.5 -267q-26 -163 -2.5 -291t102.5 -201t218 -73
q145 0 243.5 76.5t141.5 240.5h175q-57 -238 -203.5 -349t-367.5 -111zM764 1463l-135 270h127l99 -177l179 177h141l-252 -270h-159z" />
    <glyph glyph-name="ccaron" unicode="&#x10d;" horiz-adv-x="989" 
d="M447 -18q-121 0 -209 64t-125.5 186.5t-8.5 296.5q43 260 166.5 382.5t309.5 122.5q106 0 180 -36.5t114 -103.5t41 -158h-159q-3 51 -23.5 90t-61 61t-103.5 22q-129 0 -203.5 -105.5t-104.5 -284.5q-33 -200 21 -306t181 -106q92 0 150 47t77 131h158
q-35 -156 -137.5 -229.5t-262.5 -73.5zM526 1153l-135 269h125l102 -172l181 172h138l-252 -269h-159z" />
    <glyph glyph-name="Dcaron" unicode="&#x10e;" horiz-adv-x="1280" 
d="M58 0l286 1346h372q149 0 257.5 -53.5t173 -152t80.5 -236t-20 -306.5q-66 -312 -253 -455t-481 -143h-415zM261 143h208q156 0 268 45.5t184.5 150.5t110.5 283q38 175 15 306t-110.5 202.5t-242.5 71.5h-207zM652 1463l-135 270h127l99 -177l179 177h141l-252 -270
h-159z" />
    <glyph glyph-name="dcaron" unicode="&#x10f;" horiz-adv-x="1060" 
d="M370 -18q-109 0 -181 69.5t-94.5 198.5t13.5 306q52 246 166 361.5t269 115.5q97 0 168.5 -45t112.5 -118l103 476h158l-286 -1346h-152l23 143q-53 -70 -125.5 -115.5t-174.5 -45.5zM413 111q62 0 114 25.5t96 68t79 91.5l92 441q-23 48 -57.5 85t-79.5 58t-100 21
q-111 0 -182 -91t-112 -275q-28 -128 -19 -223.5t52.5 -148t116.5 -52.5zM1091 1036l108 310h172l-170 -310h-110z" />
    <glyph glyph-name="Dcroat" unicode="&#x110;" horiz-adv-x="1280" 
d="M32 617l28 137h653l-30 -137h-651zM58 0l286 1346h372q149 0 257.5 -53.5t173 -152t80.5 -236t-20 -306.5q-66 -312 -253 -455t-481 -143h-415zM261 143h208q156 0 268 45.5t184.5 150.5t110.5 283q38 175 15 306t-110.5 202.5t-242.5 71.5h-207z" />
    <glyph glyph-name="dcroat" unicode="&#x111;" horiz-adv-x="1060" 
d="M677 1120l22 105h484l-22 -105h-484zM370 -18q-109 0 -181 69.5t-94.5 198.5t13.5 306q52 246 166 361.5t269 115.5q97 0 168.5 -45t112.5 -118l103 476h158l-286 -1346h-152l23 143q-53 -70 -125.5 -115.5t-174.5 -45.5zM413 111q62 0 114 25.5t96 68t79 91.5l92 441
q-23 48 -57.5 85t-79.5 58t-100 21q-111 0 -182 -91t-112 -275q-28 -128 -19 -223.5t52.5 -148t116.5 -52.5z" />
    <glyph glyph-name="Emacron" unicode="&#x112;" 
d="M58 0l286 1346h780l-29 -143h-608l-94 -440h559l-30 -140h-560l-101 -480h607l-29 -143h-781zM519 1535l25 116h496l-26 -116h-495z" />
    <glyph glyph-name="emacron" unicode="&#x113;" horiz-adv-x="993" 
d="M453 -18q-142 0 -227.5 72t-115.5 197t-5 284q24 148 84.5 260t157 175.5t225.5 63.5q128 0 209 -68t108.5 -193t-5.5 -296h-628q-15 -106 -0.5 -190.5t65 -133.5t142.5 -49q81 0 140.5 38.5t81.5 124.5h159q-36 -140 -137 -212.5t-254 -72.5zM277 596h465
q13 93 -3.5 164t-60.5 111.5t-115 40.5q-106 0 -179.5 -79.5t-106.5 -236.5zM380 1225l24 115h496l-25 -115h-495z" />
    <glyph glyph-name="Ebreve" unicode="&#x114;" 
d="M58 0l286 1346h780l-29 -143h-608l-94 -440h559l-30 -140h-560l-101 -480h607l-29 -143h-781zM777 1483q-114 0 -172 66.5t-48 183.5h95q-6 -73 33.5 -108.5t99.5 -35.5q39 0 78 15t71.5 46.5t49.5 82.5h93q-35 -116 -110 -183t-190 -67z" />
    <glyph glyph-name="ebreve" unicode="&#x115;" horiz-adv-x="993" 
d="M453 -18q-142 0 -227.5 72t-115.5 197t-5 284q24 148 84.5 260t157 175.5t225.5 63.5q128 0 209 -68t108.5 -193t-5.5 -296h-628q-15 -106 -0.5 -190.5t65 -133.5t142.5 -49q81 0 140.5 38.5t81.5 124.5h159q-36 -140 -137 -212.5t-254 -72.5zM277 596h465
q13 93 -3.5 164t-60.5 111.5t-115 40.5q-106 0 -179.5 -79.5t-106.5 -236.5zM627 1161q-116 0 -173.5 66t-45.5 184h93q-4 -51 14.5 -83t50.5 -46.5t70 -14.5q39 0 78.5 15t71.5 47t49 82h93q-36 -116 -112 -183t-189 -67z" />
    <glyph glyph-name="Edotaccent" unicode="&#x116;" 
d="M58 0l286 1346h780l-29 -143h-608l-94 -440h559l-30 -140h-560l-101 -480h607l-29 -143h-781zM779 1509q-44 0 -71.5 27.5t-27.5 66.5t28 67t73 28q43 0 69 -27.5t26 -66.5q0 -40 -26.5 -67.5t-70.5 -27.5z" />
    <glyph glyph-name="edotaccent" unicode="&#x117;" horiz-adv-x="993" 
d="M453 -18q-142 0 -227.5 72t-115.5 197t-5 284q24 148 84.5 260t157 175.5t225.5 63.5q128 0 209 -68t108.5 -193t-5.5 -296h-628q-15 -106 -0.5 -190.5t65 -133.5t142.5 -49q81 0 140.5 38.5t81.5 124.5h159q-36 -140 -137 -212.5t-254 -72.5zM277 596h465
q13 93 -3.5 164t-60.5 111.5t-115 40.5q-106 0 -179.5 -79.5t-106.5 -236.5zM647 1202q-44 0 -71.5 27t-27.5 66t28 67t73 28q43 0 69 -27.5t26 -66.5q0 -40 -26.5 -67t-70.5 -27z" />
    <glyph glyph-name="Eogonek" unicode="&#x118;" 
d="M58 0l286 1346h780l-29 -143h-608l-94 -440h559l-30 -140h-560l-101 -480h607l-29 -143h-781zM559 -375q-73 0 -117 45t-28 127q15 70 85 136t175 101l58 -18q-89 -58 -131 -110t-50 -91q-8 -40 6.5 -59.5t42.5 -19.5q29 0 57 8.5t61 22.5l-22 -108q-24 -14 -57 -24
t-80 -10z" />
    <glyph glyph-name="eogonek" unicode="&#x119;" horiz-adv-x="993" 
d="M453 -18q-142 0 -227.5 72t-115.5 197t-5 284q24 148 84.5 260t157 175.5t225.5 63.5q128 0 209 -68t108.5 -193t-5.5 -296h-628q-15 -106 -0.5 -190.5t65 -133.5t142.5 -49q81 0 140.5 38.5t81.5 124.5h159q-36 -140 -137 -212.5t-254 -72.5zM277 596h465
q13 93 -3.5 164t-60.5 111.5t-115 40.5q-106 0 -179.5 -79.5t-106.5 -236.5zM449 -375q-73 0 -117 45t-28 127q15 70 85 136t175 101l58 -18q-89 -58 -131 -110t-50 -91q-8 -40 6.5 -59.5t42.5 -19.5q29 0 57 8.5t61 22.5l-22 -108q-24 -14 -57 -24t-80 -10z" />
    <glyph glyph-name="Ecaron" unicode="&#x11a;" 
d="M58 0l286 1346h780l-29 -143h-608l-94 -440h559l-30 -140h-560l-101 -480h607l-29 -143h-781zM682 1463l-135 270h127l99 -177l179 177h141l-252 -270h-159z" />
    <glyph glyph-name="ecaron" unicode="&#x11b;" horiz-adv-x="993" 
d="M453 -18q-142 0 -227.5 72t-115.5 197t-5 284q24 148 84.5 260t157 175.5t225.5 63.5q128 0 209 -68t108.5 -193t-5.5 -296h-628q-15 -106 -0.5 -190.5t65 -133.5t142.5 -49q81 0 140.5 38.5t81.5 124.5h159q-36 -140 -137 -212.5t-254 -72.5zM277 596h465
q13 93 -3.5 164t-60.5 111.5t-115 40.5q-106 0 -179.5 -79.5t-106.5 -236.5zM533 1152l-135 269h125l102 -172l181 172h138l-252 -269h-159z" />
    <glyph glyph-name="Gcircumflex" unicode="&#x11c;" horiz-adv-x="1322" 
d="M623 -18q-186 0 -304 92.5t-163.5 254.5t-12.5 369q31 193 118.5 343.5t230 236.5t339.5 86q90 0 170 -27.5t141.5 -81.5t96.5 -133t35 -183h-176q2 72 -29 136.5t-95 105t-162 40.5q-141 0 -242 -68.5t-163.5 -190t-89.5 -280.5t-3 -285.5t103.5 -199t218.5 -72.5
q125 0 211.5 54.5t140.5 147.5t77 208h-347l24 141h519l-21 -116q-23 -127 -71 -233t-124 -183.5t-181 -119.5t-241 -42zM567 1461l252 270h159l136 -270h-127l-99 177l-179 -177h-142z" />
    <glyph glyph-name="gcircumflex" unicode="&#x11d;" horiz-adv-x="903" 
d="M295 -377q-143 0 -223 42t-108 106.5t-16 131.5q16 94 99 155.5t221 86.5l37 53h86q231 0 318.5 -77.5t59.5 -225.5q-21 -118 -142.5 -195t-331.5 -77zM309 -260q145 0 218 47.5t87 118.5q9 50 -7.5 86.5t-69.5 56.5t-157 20h-118q-71 -18 -113 -63.5t-51 -98.5
q-12 -71 35 -119t176 -48zM247 85q-79 12 -123.5 43t-60.5 69.5t-10 74.5q10 52 58 96t131 67l77 -49q-54 -12 -89.5 -39t-42.5 -59q-5 -24 7 -43.5t49.5 -32t106.5 -14.5zM434 352q-116 0 -187.5 49.5t-98 132.5t-8.5 182q15 81 63.5 151.5t130.5 114.5t194 44
q172 0 246.5 -102t45.5 -258q-14 -81 -61.5 -152.5t-128.5 -116.5t-196 -45zM443 462q85 0 146.5 56.5t79.5 160.5q23 124 -21 181.5t-128 57.5q-86 0 -148.5 -57.5t-81.5 -160.5q-15 -81 3.5 -134t59 -78.5t90.5 -25.5zM754 915l-53 68q53 93 120 128t175 35l-23 -136
q-76 0 -126 -19.5t-93 -75.5zM274 1152l250 269h161l136 -269h-125l-102 175l-182 -175h-138z" />
    <glyph glyph-name="Gbreve" unicode="&#x11e;" horiz-adv-x="1322" 
d="M623 -18q-186 0 -304 92.5t-163.5 254.5t-12.5 369q31 193 118.5 343.5t230 236.5t339.5 86q90 0 170 -27.5t141.5 -81.5t96.5 -133t35 -183h-176q2 72 -29 136.5t-95 105t-162 40.5q-141 0 -242 -68.5t-163.5 -190t-89.5 -280.5t-3 -285.5t103.5 -199t218.5 -72.5
q125 0 211.5 54.5t140.5 147.5t77 208h-347l24 141h519l-21 -116q-23 -127 -71 -233t-124 -183.5t-181 -119.5t-241 -42zM856 1483q-114 0 -172 66.5t-48 183.5h95q-6 -73 33.5 -108.5t99.5 -35.5q39 0 78 15t71.5 46.5t49.5 82.5h93q-35 -116 -110 -183t-190 -67z" />
    <glyph glyph-name="gbreve" unicode="&#x11f;" horiz-adv-x="903" 
d="M295 -377q-143 0 -223 42t-108 106.5t-16 131.5q16 94 99 155.5t221 86.5l37 53h86q231 0 318.5 -77.5t59.5 -225.5q-21 -118 -142.5 -195t-331.5 -77zM309 -260q145 0 218 47.5t87 118.5q9 50 -7.5 86.5t-69.5 56.5t-157 20h-118q-71 -18 -113 -63.5t-51 -98.5
q-12 -71 35 -119t176 -48zM247 85q-79 12 -123.5 43t-60.5 69.5t-10 74.5q10 52 58 96t131 67l77 -49q-54 -12 -89.5 -39t-42.5 -59q-5 -24 7 -43.5t49.5 -32t106.5 -14.5zM434 352q-116 0 -187.5 49.5t-98 132.5t-8.5 182q15 81 63.5 151.5t130.5 114.5t194 44
q172 0 246.5 -102t45.5 -258q-14 -81 -61.5 -152.5t-128.5 -116.5t-196 -45zM443 462q85 0 146.5 56.5t79.5 160.5q23 124 -21 181.5t-128 57.5q-86 0 -148.5 -57.5t-81.5 -160.5q-15 -81 3.5 -134t59 -78.5t90.5 -25.5zM754 915l-53 68q53 93 120 128t175 35l-23 -136
q-76 0 -126 -19.5t-93 -75.5zM569 1161q-116 0 -173.5 66t-45.5 184h93q-4 -51 14.5 -83t50.5 -46.5t70 -14.5q39 0 78.5 15t71.5 47t49 82h93q-36 -116 -112 -183t-189 -67z" />
    <glyph glyph-name="Gdotaccent" unicode="&#x120;" horiz-adv-x="1322" 
d="M623 -18q-186 0 -304 92.5t-163.5 254.5t-12.5 369q31 193 118.5 343.5t230 236.5t339.5 86q90 0 170 -27.5t141.5 -81.5t96.5 -133t35 -183h-176q2 72 -29 136.5t-95 105t-162 40.5q-141 0 -242 -68.5t-163.5 -190t-89.5 -280.5t-3 -285.5t103.5 -199t218.5 -72.5
q125 0 211.5 54.5t140.5 147.5t77 208h-347l24 141h519l-21 -116q-23 -127 -71 -233t-124 -183.5t-181 -119.5t-241 -42zM858 1509q-44 0 -71.5 27.5t-27.5 66.5t28 67t73 28q43 0 69 -27.5t26 -66.5q0 -40 -26.5 -67.5t-70.5 -27.5z" />
    <glyph glyph-name="gdotaccent" unicode="&#x121;" horiz-adv-x="903" 
d="M295 -377q-143 0 -223 42t-108 106.5t-16 131.5q16 94 99 155.5t221 86.5l37 53h86q231 0 318.5 -77.5t59.5 -225.5q-21 -118 -142.5 -195t-331.5 -77zM309 -260q145 0 218 47.5t87 118.5q9 50 -7.5 86.5t-69.5 56.5t-157 20h-118q-71 -18 -113 -63.5t-51 -98.5
q-12 -71 35 -119t176 -48zM247 85q-79 12 -123.5 43t-60.5 69.5t-10 74.5q10 52 58 96t131 67l77 -49q-54 -12 -89.5 -39t-42.5 -59q-5 -24 7 -43.5t49.5 -32t106.5 -14.5zM434 352q-116 0 -187.5 49.5t-98 132.5t-8.5 182q15 81 63.5 151.5t130.5 114.5t194 44
q172 0 246.5 -102t45.5 -258q-14 -81 -61.5 -152.5t-128.5 -116.5t-196 -45zM443 462q85 0 146.5 56.5t79.5 160.5q23 124 -21 181.5t-128 57.5q-86 0 -148.5 -57.5t-81.5 -160.5q-15 -81 3.5 -134t59 -78.5t90.5 -25.5zM754 915l-53 68q53 93 120 128t175 35l-23 -136
q-76 0 -126 -19.5t-93 -75.5zM594 1202q-44 0 -71.5 27t-27.5 66t28 67t73 28q43 0 69 -27.5t26 -66.5q0 -40 -26.5 -67t-70.5 -27z" />
    <glyph glyph-name="Gcommaaccent" unicode="&#x122;" horiz-adv-x="1322" 
d="M623 -18q-186 0 -304 92.5t-163.5 254.5t-12.5 369q31 193 118.5 343.5t230 236.5t339.5 86q90 0 170 -27.5t141.5 -81.5t96.5 -133t35 -183h-176q2 72 -29 136.5t-95 105t-162 40.5q-141 0 -242 -68.5t-163.5 -190t-89.5 -280.5t-3 -285.5t103.5 -199t218.5 -72.5
q125 0 211.5 54.5t140.5 147.5t77 208h-347l24 141h519l-21 -116q-23 -127 -71 -233t-124 -183.5t-181 -119.5t-241 -42zM447 -391l-8 64q33 11 65 33t48 53q-36 6 -52 33.5t-9 61.5q7 35 32 55t68 20q40 0 65.5 -30t13.5 -89q-16 -77 -80.5 -129.5t-142.5 -71.5z" />
    <glyph glyph-name="gcommaaccent" unicode="&#x123;" horiz-adv-x="903" 
d="M295 -377q-143 0 -223 42t-108 106.5t-16 131.5q16 94 99 155.5t221 86.5l37 53h86q231 0 318.5 -77.5t59.5 -225.5q-21 -118 -142.5 -195t-331.5 -77zM309 -260q145 0 218 47.5t87 118.5q9 50 -7.5 86.5t-69.5 56.5t-157 20h-118q-71 -18 -113 -63.5t-51 -98.5
q-12 -71 35 -119t176 -48zM247 85q-79 12 -123.5 43t-60.5 69.5t-10 74.5q10 52 58 96t131 67l77 -49q-54 -12 -89.5 -39t-42.5 -59q-5 -24 7 -43.5t49.5 -32t106.5 -14.5zM434 352q-116 0 -187.5 49.5t-98 132.5t-8.5 182q15 81 63.5 151.5t130.5 114.5t194 44
q172 0 246.5 -102t45.5 -258q-14 -81 -61.5 -152.5t-128.5 -116.5t-196 -45zM443 462q85 0 146.5 56.5t79.5 160.5q23 124 -21 181.5t-128 57.5q-86 0 -148.5 -57.5t-81.5 -160.5q-15 -81 3.5 -134t59 -78.5t90.5 -25.5zM754 915l-53 68q53 93 120 128t175 35l-23 -136
q-76 0 -126 -19.5t-93 -75.5zM581 1111q-44 0 -70 34.5t-13 93.5q11 49 45 90.5t83 70.5t102 41l6 -67q-34 -15 -65 -36t-48 -53q36 -7 52.5 -34.5t8.5 -62.5q-6 -35 -33 -56t-68 -21z" />
    <glyph glyph-name="Hcircumflex" unicode="&#x124;" horiz-adv-x="1322" 
d="M58 0l286 1346h174l-122 -568h652l122 568h173l-287 -1346h-173l135 629h-653l-134 -629h-173zM567 1461l252 270h159l136 -270h-127l-99 177l-179 -177h-142z" />
    <glyph glyph-name="hcircumflex" unicode="&#x125;" horiz-adv-x="1037" 
d="M44 0l286 1346h161l-99 -468q55 58 128 107t184 49q95 0 155 -45.5t80 -130t-5 -199.5l-141 -659h-161l142 661q24 111 -6 175t-123 64q-58 0 -108.5 -23.5t-93 -59t-78.5 -71.5l-160 -746h-161zM433 1482l250 269h161l136 -269h-125l-102 175l-182 -175h-138z" />
    <glyph glyph-name="Hbar" unicode="&#x126;" horiz-adv-x="1322" 
d="M127 998l24 112h1280l-24 -112h-1280zM58 0l286 1346h174l-122 -568h652l122 568h173l-287 -1346h-173l135 629h-653l-134 -629h-173z" />
    <glyph glyph-name="hbar" unicode="&#x127;" horiz-adv-x="1037" 
d="M150 1120l22 105h484l-23 -105h-483zM45 0l286 1348h161l-111 -516q56 58 128.5 107t183.5 49q96 0 155.5 -45.5t79.5 -129.5t-5 -200l-130 -613h-160l131 615q23 111 -6.5 175t-122.5 64q-59 0 -110 -24t-93.5 -61t-77.5 -76l-148 -693h-161z" />
    <glyph glyph-name="Itilde" unicode="&#x128;" horiz-adv-x="497" 
d="M58 0l286 1346h174l-287 -1346h-173zM186 1491q22 106 69.5 151.5t104.5 45.5q41 0 72 -13t64 -31q31 -16 52 -24.5t39 -8.5q23 0 39.5 20t27.5 62h94q-24 -101 -65 -146.5t-101 -45.5q-39 0 -68 12t-64 30q-32 17 -53.5 26t-41.5 9q-25 0 -44.5 -21t-30.5 -66h-94z" />
    <glyph glyph-name="itilde" unicode="&#x129;" horiz-adv-x="466" 
d="M44 0l216 1016h162l-220 -1016h-158zM116 1181q22 106 69.5 151.5t104.5 45.5q40 0 71 -13t65 -31q31 -16 52 -24.5t39 -8.5q23 0 39.5 20t26.5 61h95q-24 -101 -65 -146.5t-101 -45.5q-40 0 -68.5 12t-64.5 31q-32 17 -53.5 26t-40.5 9q-25 0 -44.5 -21t-30.5 -66h-94z
" />
    <glyph glyph-name="Imacron" unicode="&#x12a;" horiz-adv-x="497" 
d="M58 0l286 1346h174l-287 -1346h-173zM210 1535l25 116h496l-26 -116h-495z" />
    <glyph glyph-name="imacron" unicode="&#x12b;" horiz-adv-x="466" 
d="M44 0l216 1016h162l-220 -1016h-158zM133 1225l24 115h496l-25 -115h-495z" />
    <glyph glyph-name="Ibreve" unicode="&#x12c;" horiz-adv-x="497" 
d="M58 0l286 1346h174l-287 -1346h-173zM469 1483q-114 0 -172 66.5t-48 183.5h95q-6 -73 33.5 -108.5t99.5 -35.5q39 0 78 15t71.5 46.5t49.5 82.5h93q-35 -116 -110 -183t-190 -67z" />
    <glyph glyph-name="ibreve" unicode="&#x12d;" horiz-adv-x="466" 
d="M44 0l216 1016h162l-220 -1016h-158zM380 1161q-116 0 -173.5 66t-45.5 184h93q-4 -51 14.5 -83t50.5 -46.5t70 -14.5q39 0 78.5 15t71.5 47t49 82h93q-36 -116 -112 -183t-189 -67z" />
    <glyph glyph-name="Iogonek" unicode="&#x12e;" horiz-adv-x="497" 
d="M58 0l286 1346h174l-287 -1346h-173zM38 -375q-73 0 -117 45t-28 127q15 70 85 136t175 101l58 -18q-89 -58 -131 -110t-50 -91q-8 -40 6.5 -59.5t42.5 -19.5q29 0 57 8.5t61 22.5l-22 -108q-24 -14 -57 -24t-80 -10z" />
    <glyph glyph-name="iogonek" unicode="&#x12f;" horiz-adv-x="466" 
d="M44 0l216 1016h162l-220 -1016h-158zM400 1202q-44 0 -71.5 27t-27.5 66t28 67t73 28q43 0 69 -27.5t26 -66.5q0 -40 -26.5 -67t-70.5 -27zM14 -375q-73 0 -117 45t-28 127q15 70 85 136t175 101l58 -18q-89 -58 -131 -110t-50 -91q-8 -40 6.5 -59.5t42.5 -19.5
q29 0 57 8.5t61 22.5l-22 -108q-24 -14 -57 -24t-80 -10z" />
    <glyph glyph-name="Idotaccent" unicode="&#x130;" horiz-adv-x="497" 
d="M58 0l286 1346h174l-287 -1346h-173zM474 1509q-44 0 -71.5 27.5t-27.5 66.5t28 67t73 28q43 0 69 -27.5t26 -66.5q0 -40 -26.5 -67.5t-70.5 -27.5z" />
    <glyph glyph-name="idotless" unicode="&#x131;" horiz-adv-x="466" 
d="M44 0l216 1016h162l-220 -1016h-158z" />
    <glyph glyph-name="IJ" unicode="&#x132;" horiz-adv-x="1120" 
d="M58 0l286 1346h174l-287 -1346h-173zM423 -13l32 146h74q113 0 170 65t86 202l203 946h169l-204 -965q-30 -138 -81 -225t-135.5 -128t-217.5 -41h-96z" />
    <glyph glyph-name="ij" unicode="&#x133;" horiz-adv-x="882" 
d="M43 0l215 1016h162l-215 -1016h-162zM381 1165q-44 0 -70.5 26.5t-26.5 65.5q0 38 27 66t71 28q45 0 71.5 -27.5t26.5 -65.5q0 -39 -27 -66t-72 -27zM238 -360l27 130h48q65 0 101.5 35.5t53.5 116.5l233 1094h161l-237 -1110q-26 -124 -94 -195t-213 -71h-80zM823 1165
q-45 0 -71.5 26.5t-26.5 65.5t27 66.5t72 27.5t71 -27.5t26 -65.5q0 -39 -27 -66t-71 -27z" />
    <glyph glyph-name="Jcircumflex" unicode="&#x134;" horiz-adv-x="624" 
d="M-74 -13l32 146h74q113 0 170 65t86 202l203 946h169l-204 -965q-30 -138 -81 -225t-135.5 -128t-217.5 -41h-96zM307 1461l252 270h159l136 -270h-127l-99 177l-179 -177h-142z" />
    <glyph glyph-name="jcircumflex" unicode="&#x135;" horiz-adv-x="465" 
d="M-203 -360l27 130h48q65 0 101.5 35.5t53.5 116.5l230 1086h162l-235 -1102q-26 -125 -94.5 -195.5t-212.5 -70.5h-80zM83 1144l250 269h161l136 -269h-125l-102 175l-182 -175h-138z" />
    <glyph glyph-name="Kcommaaccent" unicode="&#x136;" horiz-adv-x="1053" 
d="M58 0l286 1346h174l-138 -646l624 646h204l-646 -659l400 -687h-188l-396 691l-147 -691h-173zM327 -391l-8 64q33 11 65 33t48 53q-36 6 -52 33.5t-9 61.5q7 35 32 55t68 20q40 0 65.5 -30t13.5 -89q-16 -77 -80.5 -129.5t-142.5 -71.5z" />
    <glyph glyph-name="kcommaaccent" unicode="&#x137;" horiz-adv-x="918" 
d="M43 0l287 1346h161l-172 -800l492 470h196l-514 -481l328 -535h-180l-323 538l-113 -538h-162zM254 -391l-8 64q33 11 65 33t48 53q-36 6 -52 33.5t-9 61.5q7 35 32 55t68 20q40 0 65.5 -30t13.5 -89q-16 -77 -80.5 -129.5t-142.5 -71.5z" />
    <glyph glyph-name="kgreenlandic" unicode="&#x138;" horiz-adv-x="918" 
d="M43 0l219 1016h161l-105 -478l490 478h196l-513 -491l330 -525h-180l-325 528l-111 -528h-162z" />
    <glyph glyph-name="Lacute" unicode="&#x139;" horiz-adv-x="930" 
d="M58 0l286 1346h174l-257 -1199h563l-30 -147h-736zM391 1463l222 268h194l-284 -268h-132z" />
    <glyph glyph-name="lacute" unicode="&#x13a;" horiz-adv-x="486" 
d="M311 0q-108 0 -160.5 38t-61 109.5t12.5 171.5l217 1027h163l-217 -1026q-23 -103 -7 -147t85 -44h41l-27 -129h-46zM355 1482l226 269h198l-294 -269h-130z" />
    <glyph glyph-name="Lcommaaccent" unicode="&#x13b;" horiz-adv-x="930" 
d="M58 0l286 1346h174l-257 -1199h563l-30 -147h-736zM263 -391l-8 64q33 11 65 33t48 53q-36 6 -52 33.5t-9 61.5q7 35 32 55t68 20q40 0 65.5 -30t13.5 -89q-16 -77 -80.5 -129.5t-142.5 -71.5z" />
    <glyph glyph-name="lcommaaccent" unicode="&#x13c;" horiz-adv-x="486" 
d="M311 0q-108 0 -160.5 38t-61 109.5t12.5 171.5l217 1027h163l-217 -1026q-23 -103 -7 -147t85 -44h41l-27 -129h-46zM36 -391l-8 64q33 11 65 33t48 53q-36 6 -52 33.5t-9 61.5q7 35 32 55t68 20q40 0 65.5 -30t13.5 -89q-16 -77 -80.5 -129.5t-142.5 -71.5z" />
    <glyph glyph-name="Lcaron" unicode="&#x13d;" horiz-adv-x="930" 
d="M58 0l286 1346h174l-257 -1199h563l-30 -147h-736zM654 1036l108 310h172l-170 -310h-110z" />
    <glyph glyph-name="lcaron" unicode="&#x13e;" horiz-adv-x="486" 
d="M311 0q-108 0 -160.5 38t-61 109.5t12.5 171.5l217 1027h163l-217 -1026q-23 -103 -7 -147t85 -44h41l-27 -129h-46zM486 1036l108 310h172l-170 -310h-110z" />
    <glyph glyph-name="Ldot" unicode="&#x13f;" horiz-adv-x="955" 
d="M58 0l286 1346h174l-257 -1199h563l-30 -147h-736zM727 652q-53 0 -87 36t-34 87q0 53 34 87.5t87 34.5q51 0 85 -34.5t34 -87.5q0 -51 -34 -87t-85 -36z" />
    <glyph glyph-name="ldot" unicode="&#x140;" horiz-adv-x="569" 
d="M311 0q-108 0 -160.5 38t-61 109.5t12.5 171.5l217 1027h163l-217 -1026q-23 -103 -7 -147t85 -44h41l-27 -129h-46zM548 609q-53 0 -87 36t-34 87q0 53 34 87.5t87 34.5q51 0 85 -34.5t34 -87.5q0 -51 -34 -87t-85 -36z" />
    <glyph glyph-name="Lslash" unicode="&#x141;" horiz-adv-x="930" 
d="M-20 381l30 143l656 378l-31 -144zM58 0l286 1346h174l-257 -1199h563l-30 -147h-736z" />
    <glyph glyph-name="lslash" unicode="&#x142;" horiz-adv-x="486" 
d="M4 489l31 142l515 365l-29 -142zM311 0q-108 0 -160.5 38t-61 109.5t12.5 171.5l217 1027h163l-217 -1026q-23 -103 -7 -147t85 -44h41l-27 -129h-46z" />
    <glyph glyph-name="Nacute" unicode="&#x143;" horiz-adv-x="1318" 
d="M58 0l286 1346h175l429 -1107l231 1107h159l-285 -1346h-175l-427 1101l-233 -1101h-160zM769 1463l222 268h194l-284 -268h-132z" />
    <glyph glyph-name="nacute" unicode="&#x144;" horiz-adv-x="1037" 
d="M45 0l215 1016h156l-25 -142q54 58 127 107t184 49q94 0 154 -45t80.5 -129t-4.5 -201l-138 -655h-161l140 657q23 112 -6.5 176t-120.5 64q-87 0 -158 -49.5t-124 -105.5l-158 -742h-161zM556 1152l226 269h198l-294 -269h-130z" />
    <glyph glyph-name="Ncommaaccent" unicode="&#x145;" horiz-adv-x="1318" 
d="M58 0l286 1346h175l429 -1107l231 1107h159l-285 -1346h-175l-427 1101l-233 -1101h-160zM388 -391l-8 64q33 11 65 33t48 53q-36 6 -52 33.5t-9 61.5q7 35 32 55t68 20q40 0 65.5 -30t13.5 -89q-16 -77 -80.5 -129.5t-142.5 -71.5z" />
    <glyph glyph-name="ncommaaccent" unicode="&#x146;" horiz-adv-x="1037" 
d="M45 0l215 1016h156l-25 -142q54 58 127 107t184 49q94 0 154 -45t80.5 -129t-4.5 -201l-138 -655h-161l140 657q23 112 -6.5 176t-120.5 64q-87 0 -158 -49.5t-124 -105.5l-158 -742h-161zM254 -391l-8 64q33 11 65 33t48 53q-36 6 -52 33.5t-9 61.5q7 35 32 55t68 20
q40 0 65.5 -30t13.5 -89q-16 -77 -80.5 -129.5t-142.5 -71.5z" />
    <glyph glyph-name="Ncaron" unicode="&#x147;" horiz-adv-x="1318" 
d="M58 0l286 1346h175l429 -1107l231 1107h159l-285 -1346h-175l-427 1101l-233 -1101h-160zM770 1463l-135 270h127l99 -177l179 177h141l-252 -270h-159z" />
    <glyph glyph-name="ncaron" unicode="&#x148;" horiz-adv-x="1037" 
d="M45 0l215 1016h156l-25 -142q54 58 127 107t184 49q94 0 154 -45t80.5 -129t-4.5 -201l-138 -655h-161l140 657q23 112 -6.5 176t-120.5 64q-87 0 -158 -49.5t-124 -105.5l-158 -742h-161zM572 1152l-135 269h125l102 -172l181 172h138l-252 -269h-159z" />
    <glyph glyph-name="napostrophe" unicode="&#x149;" horiz-adv-x="1133" 
d="M141 0l215 1016h156l-25 -142q54 58 127 107t184 49q94 0 154 -45t80.5 -129t-4.5 -201l-138 -655h-161l140 657q23 112 -6.5 176t-120.5 64q-87 0 -158 -49.5t-124 -105.5l-158 -742h-161zM-1 851l-17 91q61 28 110 75.5t71 108.5l6 -10q-53 5 -78.5 47.5t-14.5 98.5
q12 48 43.5 74t76.5 26q65 0 96 -49.5t11 -144.5q-17 -84 -65 -145t-111 -102.5t-128 -69.5z" />
    <glyph glyph-name="Eng" unicode="&#x14a;" horiz-adv-x="1311" 
d="M526 -358l30 146h68q112 0 167.5 54.5t85.5 174.5l-429 1084l-233 -1101h-161l285 1346h177l430 -1091l228 1091h160l-279 -1320q-30 -141 -84 -225.5t-142.5 -121.5t-221.5 -37h-81z" />
    <glyph glyph-name="eng" unicode="&#x14b;" horiz-adv-x="1036" 
d="M384 -358l27 130h55q58 0 95 34.5t55 116.5l157 734q24 112 -6 176t-121 64q-88 0 -159 -51.5t-124 -110.5l-157 -735h-161l215 1016h156l-25 -142q54 58 127 107t184 49q94 0 154 -45t80.5 -129t-4.5 -201l-164 -770q-23 -110 -95.5 -176.5t-198.5 -66.5h-90z" />
    <glyph glyph-name="Omacron" unicode="&#x14c;" horiz-adv-x="1365" 
d="M618 -18q-188 0 -307 95.5t-162 261.5t-3 378q36 196 124 341.5t227.5 226.5t330.5 81q186 0 304.5 -95.5t162 -262t3.5 -379.5q-36 -193 -122.5 -339t-226 -227t-331.5 -81zM630 120q144 0 244.5 71t162.5 193t88 274q28 152 7.5 281t-98 208t-221.5 79
q-142 0 -242.5 -70.5t-162 -192t-89.5 -275.5q-27 -152 -7 -281t97.5 -208t220.5 -79zM606 1535l25 116h496l-26 -116h-495z" />
    <glyph glyph-name="omacron" unicode="&#x14d;" horiz-adv-x="1032" 
d="M456 -18q-135 0 -226.5 71.5t-124 203.5t5.5 310q47 222 169.5 344t312.5 122q132 0 219 -72t118.5 -203t-5.5 -310q-46 -222 -164.5 -344t-304.5 -122zM467 107q124 0 194.5 99.5t105.5 264.5q28 120 17.5 219.5t-60.5 158.5t-144 59q-86 0 -147 -45t-101 -126t-63 -189
q-27 -125 -15.5 -225t64 -158t149.5 -58zM390 1225l24 115h496l-25 -115h-495z" />
    <glyph glyph-name="Obreve" unicode="&#x14e;" horiz-adv-x="1365" 
d="M618 -18q-188 0 -307 95.5t-162 261.5t-3 378q36 196 124 341.5t227.5 226.5t330.5 81q186 0 304.5 -95.5t162 -262t3.5 -379.5q-36 -193 -122.5 -339t-226 -227t-331.5 -81zM630 120q144 0 244.5 71t162.5 193t88 274q28 152 7.5 281t-98 208t-221.5 79
q-142 0 -242.5 -70.5t-162 -192t-89.5 -275.5q-27 -152 -7 -281t97.5 -208t220.5 -79zM864 1483q-114 0 -172 66.5t-48 183.5h95q-6 -73 33.5 -108.5t99.5 -35.5q39 0 78 15t71.5 46.5t49.5 82.5h93q-35 -116 -110 -183t-190 -67z" />
    <glyph glyph-name="obreve" unicode="&#x14f;" horiz-adv-x="1032" 
d="M456 -18q-135 0 -226.5 71.5t-124 203.5t5.5 310q47 222 169.5 344t312.5 122q132 0 219 -72t118.5 -203t-5.5 -310q-46 -222 -164.5 -344t-304.5 -122zM467 107q124 0 194.5 99.5t105.5 264.5q28 120 17.5 219.5t-60.5 158.5t-144 59q-86 0 -147 -45t-101 -126t-63 -189
q-27 -125 -15.5 -225t64 -158t149.5 -58zM637 1161q-116 0 -173.5 66t-45.5 184h93q-4 -51 14.5 -83t50.5 -46.5t70 -14.5q39 0 78.5 15t71.5 47t49 82h93q-36 -116 -112 -183t-189 -67z" />
    <glyph glyph-name="Ohungarumlaut" unicode="&#x150;" horiz-adv-x="1365" 
d="M618 -18q-188 0 -307 95.5t-162 261.5t-3 378q36 196 124 341.5t227.5 226.5t330.5 81q186 0 304.5 -95.5t162 -262t3.5 -379.5q-36 -193 -122.5 -339t-226 -227t-331.5 -81zM630 120q144 0 244.5 71t162.5 193t88 274q28 152 7.5 281t-98 208t-221.5 79
q-142 0 -242.5 -70.5t-162 -192t-89.5 -275.5q-27 -152 -7 -281t97.5 -208t220.5 -79zM870 1463l212 269h159l-259 -269h-112zM608 1463l212 269h159l-259 -269h-112z" />
    <glyph glyph-name="ohungarumlaut" unicode="&#x151;" horiz-adv-x="1032" 
d="M456 -18q-135 0 -226.5 71.5t-124 203.5t5.5 310q47 222 169.5 344t312.5 122q132 0 219 -72t118.5 -203t-5.5 -310q-46 -222 -164.5 -344t-304.5 -122zM467 107q124 0 194.5 99.5t105.5 264.5q28 120 17.5 219.5t-60.5 158.5t-144 59q-86 0 -147 -45t-101 -126t-63 -189
q-27 -125 -15.5 -225t64 -158t149.5 -58zM653 1152l212 269h159l-259 -269h-112zM391 1152l212 269h159l-259 -269h-112z" />
    <glyph glyph-name="OE" unicode="&#x152;" horiz-adv-x="1965" 
d="M609 -18q-181 0 -298.5 95.5t-161 262.5t-2.5 382q37 196 124.5 340.5t224 224t320.5 79.5q132 0 225.5 -49t146.5 -143t64 -228.5t-22 -306.5q-39 -208 -118.5 -355t-203.5 -224.5t-299 -77.5zM631 120q144 0 244 71.5t161.5 193.5t88.5 275q28 153 7 281t-99 205.5
t-223 77.5q-142 0 -242 -70.5t-160.5 -192.5t-88.5 -274q-27 -152 -7 -281t98 -207.5t221 -78.5zM986 0l286 1346h780l-29 -143h-608l-94 -440h559l-30 -140h-560l-102 -480h608l-30 -143h-780z" />
    <glyph glyph-name="oe" unicode="&#x153;" horiz-adv-x="1655" 
d="M451 -16q-133 0 -223 70.5t-123 200.5t5 307q48 225 169.5 348.5t309.5 123.5q125 0 208.5 -73t113 -206.5t-9.5 -316.5q-46 -216 -156.5 -335t-293.5 -119zM467 107q125 0 191.5 96t100.5 255q28 125 19.5 227t-57.5 163t-146 61q-124 0 -197.5 -99t-109.5 -266
q-27 -123 -16 -222t63.5 -157t151.5 -58zM1113 -16q-138 0 -221.5 70t-113 192.5t-4.5 279.5q23 147 84 261t159 179t230 65q123 0 201.5 -66.5t105.5 -189.5t-5 -293h-627q-15 -103 -2 -189.5t63 -138t144 -51.5q81 0 139.5 34.5t80.5 116.5h159q-37 -134 -137.5 -202
t-255.5 -68zM941 600h470q12 91 -4 160.5t-58.5 109.5t-111.5 40q-111 0 -185.5 -79t-110.5 -231z" />
    <glyph glyph-name="Racute" unicode="&#x154;" horiz-adv-x="1133" 
d="M58 0l286 1346h414q123 0 211 -50.5t126 -144t9 -223.5q-26 -115 -108 -189.5t-220 -96.5q52 -17 86 -50.5t53.5 -93.5t28.5 -161l29 -337h-178l-21 317q-7 97 -24 153.5t-50 80.5t-89 24h-258l-122 -575h-173zM384 718h268q114 0 187 61.5t94 158.5q29 130 -24.5 198.5
t-170.5 68.5h-251zM644 1463l222 268h194l-284 -268h-132z" />
    <glyph glyph-name="racute" unicode="&#x155;" horiz-adv-x="630" 
d="M45 0l215 1016h152l-28 -165q52 73 121 125t174 52h35l-31 -147h-21q-60 0 -113 -17.5t-99 -51.5t-88 -83l-156 -729h-161zM403 1152l226 269h198l-294 -269h-130z" />
    <glyph glyph-name="Rcommaaccent" unicode="&#x156;" horiz-adv-x="1133" 
d="M58 0l286 1346h414q123 0 211 -50.5t126 -144t9 -223.5q-26 -115 -108 -189.5t-220 -96.5q52 -17 86 -50.5t53.5 -93.5t28.5 -161l29 -337h-178l-21 317q-7 97 -24 153.5t-50 80.5t-89 24h-258l-122 -575h-173zM384 718h268q114 0 187 61.5t94 158.5q29 130 -24.5 198.5
t-170.5 68.5h-251zM364 -391l-8 64q33 11 65 33t48 53q-36 6 -52 33.5t-9 61.5q7 35 32 55t68 20q40 0 65.5 -30t13.5 -89q-16 -77 -80.5 -129.5t-142.5 -71.5z" />
    <glyph glyph-name="rcommaaccent" unicode="&#x157;" horiz-adv-x="630" 
d="M45 0l215 1016h152l-28 -165q52 73 121 125t174 52h35l-31 -147h-21q-60 0 -113 -17.5t-99 -51.5t-88 -83l-156 -729h-161zM-37 -391l-8 64q33 11 65 33t48 53q-36 6 -52 33.5t-9 61.5q7 35 32 55t68 20q40 0 65.5 -30t13.5 -89q-16 -77 -80.5 -129.5t-142.5 -71.5z" />
    <glyph glyph-name="Rcaron" unicode="&#x158;" horiz-adv-x="1133" 
d="M58 0l286 1346h414q123 0 211 -50.5t126 -144t9 -223.5q-26 -115 -108 -189.5t-220 -96.5q52 -17 86 -50.5t53.5 -93.5t28.5 -161l29 -337h-178l-21 317q-7 97 -24 153.5t-50 80.5t-89 24h-258l-122 -575h-173zM384 718h268q114 0 187 61.5t94 158.5q29 130 -24.5 198.5
t-170.5 68.5h-251zM645 1463l-135 270h127l99 -177l179 177h141l-252 -270h-159z" />
    <glyph glyph-name="rcaron" unicode="&#x159;" horiz-adv-x="630" 
d="M45 0l215 1016h152l-28 -165q52 73 121 125t174 52h35l-31 -147h-21q-60 0 -113 -17.5t-99 -51.5t-88 -83l-156 -729h-161zM419 1152l-135 269h125l102 -172l181 172h138l-252 -269h-159z" />
    <glyph glyph-name="Sacute" unicode="&#x15a;" horiz-adv-x="1056" 
d="M477 -18q-134 0 -231 46t-148.5 140.5t-48.5 239.5h175q-2 -152 64 -219t200 -67q112 0 187.5 49.5t93.5 157.5q13 77 -6.5 131.5t-78 97.5t-163.5 84q-113 45 -187.5 106.5t-105 142.5t-11.5 184q18 92 75 156.5t148 99t209 33.5q119 0 208.5 -42t139 -125.5
t47.5 -208.5h-174q1 117 -60.5 177.5t-172.5 60.5q-109 0 -176.5 -47t-80.5 -127q-10 -57 8.5 -105t76 -91t165.5 -86q119 -48 194 -106.5t105 -142t10 -206.5q-18 -111 -79.5 -185t-159 -111t-223.5 -37zM600 1463l222 268h194l-284 -268h-132z" />
    <glyph glyph-name="sacute" unicode="&#x15b;" horiz-adv-x="905" 
d="M393 -18q-105 0 -187 33.5t-126 103.5t-37 179h155q-5 -108 50.5 -152.5t152.5 -44.5q87 0 137 36t62 101q10 50 -3.5 90t-57 74t-124.5 65q-148 57 -209.5 142t-37.5 205q21 104 112 160.5t229 56.5q102 0 176.5 -35.5t114.5 -101.5t36 -159h-155q1 84 -42 130.5
t-139 46.5q-67 0 -115.5 -26t-61.5 -89q-14 -66 29 -117t170 -100q149 -58 203 -143t32 -211q-19 -112 -108 -178t-256 -66zM467 1152l226 269h198l-294 -269h-130z" />
    <glyph glyph-name="Scircumflex" unicode="&#x15c;" horiz-adv-x="1056" 
d="M477 -18q-134 0 -231 46t-148.5 140.5t-48.5 239.5h175q-2 -152 64 -219t200 -67q112 0 187.5 49.5t93.5 157.5q13 77 -6.5 131.5t-78 97.5t-163.5 84q-113 45 -187.5 106.5t-105 142.5t-11.5 184q18 92 75 156.5t148 99t209 33.5q119 0 208.5 -42t139 -125.5
t47.5 -208.5h-174q1 117 -60.5 177.5t-172.5 60.5q-109 0 -176.5 -47t-80.5 -127q-10 -57 8.5 -105t76 -91t165.5 -86q119 -48 194 -106.5t105 -142t10 -206.5q-18 -111 -79.5 -185t-159 -111t-223.5 -37zM407 1461l252 270h159l136 -270h-127l-99 177l-179 -177h-142z" />
    <glyph glyph-name="scircumflex" unicode="&#x15d;" horiz-adv-x="905" 
d="M393 -18q-105 0 -187 33.5t-126 103.5t-37 179h155q-5 -108 50.5 -152.5t152.5 -44.5q87 0 137 36t62 101q10 50 -3.5 90t-57 74t-124.5 65q-148 57 -209.5 142t-37.5 205q21 104 112 160.5t229 56.5q102 0 176.5 -35.5t114.5 -101.5t36 -159h-155q1 84 -42 130.5
t-139 46.5q-67 0 -115.5 -26t-61.5 -89q-14 -66 29 -117t170 -100q149 -58 203 -143t32 -211q-19 -112 -108 -178t-256 -66zM282 1152l250 269h161l136 -269h-125l-102 175l-182 -175h-138z" />
    <glyph glyph-name="Scedilla" unicode="&#x15e;" horiz-adv-x="1056" 
d="M477 -18q-134 0 -231 46t-148.5 140.5t-48.5 239.5h175q-2 -152 64 -219t200 -67q112 0 187.5 49.5t93.5 157.5q13 77 -6.5 131.5t-78 97.5t-163.5 84q-113 45 -187.5 106.5t-105 142.5t-11.5 184q18 92 75 156.5t148 99t209 33.5q119 0 208.5 -42t139 -125.5
t47.5 -208.5h-174q1 117 -60.5 177.5t-172.5 60.5q-109 0 -176.5 -47t-80.5 -127q-10 -57 8.5 -105t76 -91t165.5 -86q119 -48 194 -106.5t105 -142t10 -206.5q-18 -111 -79.5 -185t-159 -111t-223.5 -37zM395 -382q-57 0 -96 9.5t-70 23.5l46 91q20 -12 55.5 -20t73.5 -8
q33 0 58.5 14t30.5 43q9 37 -15 57.5t-96 30.5l-39 5l152 177l72 -41l-79 -93l-25 27q86 -5 123.5 -55.5t21.5 -125.5q-11 -51 -42.5 -80t-76 -42t-94.5 -13z" />
    <glyph glyph-name="scedilla" unicode="&#x15f;" horiz-adv-x="905" 
d="M393 -18q-105 0 -187 33.5t-126 103.5t-37 179h155q-5 -108 50.5 -152.5t152.5 -44.5q87 0 137 36t62 101q10 50 -3.5 90t-57 74t-124.5 65q-148 57 -209.5 142t-37.5 205q21 104 112 160.5t229 56.5q102 0 176.5 -35.5t114.5 -101.5t36 -159h-155q1 84 -42 130.5
t-139 46.5q-67 0 -115.5 -26t-61.5 -89q-14 -66 29 -117t170 -100q149 -58 203 -143t32 -211q-19 -112 -108 -178t-256 -66zM292 -382q-57 0 -96 9.5t-70 23.5l46 91q20 -12 55.5 -20t73.5 -8q33 0 58.5 14t30.5 43q9 37 -15 57.5t-96 30.5l-39 5l152 177l72 -41l-79 -93
l-25 27q86 -5 123.5 -55.5t21.5 -125.5q-11 -51 -42.5 -80t-76 -42t-94.5 -13z" />
    <glyph glyph-name="Scaron" unicode="&#x160;" horiz-adv-x="1056" 
d="M477 -18q-134 0 -231 46t-148.5 140.5t-48.5 239.5h175q-2 -152 64 -219t200 -67q112 0 187.5 49.5t93.5 157.5q13 77 -6.5 131.5t-78 97.5t-163.5 84q-113 45 -187.5 106.5t-105 142.5t-11.5 184q18 92 75 156.5t148 99t209 33.5q119 0 208.5 -42t139 -125.5
t47.5 -208.5h-174q1 117 -60.5 177.5t-172.5 60.5q-109 0 -176.5 -47t-80.5 -127q-10 -57 8.5 -105t76 -91t165.5 -86q119 -48 194 -106.5t105 -142t10 -206.5q-18 -111 -79.5 -185t-159 -111t-223.5 -37zM601 1463l-135 270h127l99 -177l179 177h141l-252 -270h-159z" />
    <glyph glyph-name="scaron" unicode="&#x161;" horiz-adv-x="905" 
d="M393 -18q-105 0 -187 33.5t-126 103.5t-37 179h155q-5 -108 50.5 -152.5t152.5 -44.5q87 0 137 36t62 101q10 50 -3.5 90t-57 74t-124.5 65q-148 57 -209.5 142t-37.5 205q21 104 112 160.5t229 56.5q102 0 176.5 -35.5t114.5 -101.5t36 -159h-155q1 84 -42 130.5
t-139 46.5q-67 0 -115.5 -26t-61.5 -89q-14 -66 29 -117t170 -100q149 -58 203 -143t32 -211q-19 -112 -108 -178t-256 -66zM483 1152l-135 269h125l102 -172l181 172h138l-252 -269h-159z" />
    <glyph glyph-name="Tcedilla" unicode="&#x162;" horiz-adv-x="894" 
d="M257 0l256 1202h-343l30 144h860l-30 -144h-344l-257 -1202h-172zM235 -382q-57 0 -96 9.5t-70 23.5l46 91q20 -12 55.5 -20t73.5 -8q33 0 58.5 14t30.5 43q9 37 -15 57.5t-96 30.5l-39 5l152 177l72 -41l-79 -93l-25 27q86 -5 123.5 -55.5t21.5 -125.5
q-11 -51 -42.5 -80t-76 -42t-94.5 -13z" />
    <glyph glyph-name="tcedilla" unicode="&#x163;" horiz-adv-x="588" 
d="M353 0q-111 0 -165 40t-64 113.5t11 173.5l118 561h-146l28 128h146l47 222h162l-47 -222h213l-27 -128h-214l-122 -574q-20 -91 -3 -138t91 -47h87l-26 -129h-89zM154 -381q-57 0 -96 9.5t-70 23.5l46 91q20 -12 55.5 -20t73.5 -8q33 0 58.5 14t30.5 43q9 37 -15 57.5
t-96 30.5l-39 5l152 177l72 -41l-79 -93l-25 27q86 -5 123.5 -55.5t21.5 -125.5q-11 -51 -42.5 -80t-76 -42t-94.5 -13z" />
    <glyph glyph-name="Tcaron" unicode="&#x164;" horiz-adv-x="894" 
d="M257 0l256 1202h-343l30 144h860l-30 -144h-344l-257 -1202h-172zM564 1463l-135 270h127l99 -177l179 177h141l-252 -270h-159z" />
    <glyph glyph-name="tcaron" unicode="&#x165;" horiz-adv-x="588" 
d="M353 0q-111 0 -165 40t-64 113.5t11 173.5l118 561h-146l28 128h146l47 222h162l-47 -222h213l-27 -128h-214l-122 -574q-20 -91 -3 -138t91 -47h87l-26 -129h-89zM537 1103l108 310h172l-170 -310h-110z" />
    <glyph glyph-name="Tbar" unicode="&#x166;" horiz-adv-x="894" 
d="M183 596l28 131h573l-27 -131h-574zM257 0l256 1202h-343l30 144h860l-30 -144h-344l-257 -1202h-172z" />
    <glyph glyph-name="tbar" unicode="&#x167;" horiz-adv-x="588" 
d="M40 516l23 104h481l-24 -104h-480zM353 0q-111 0 -165 40t-64 113.5t11 173.5l118 561h-146l28 128h146l47 222h162l-47 -222h213l-27 -128h-214l-122 -574q-20 -91 -3 -138t91 -47h87l-26 -129h-89z" />
    <glyph glyph-name="Utilde" unicode="&#x168;" horiz-adv-x="1271" 
d="M570 -18q-157 0 -262 68t-144.5 197.5t-0.5 310.5l164 788h177l-169 -802q-28 -138 -6.5 -231t87.5 -140.5t169 -47.5q150 0 238 84.5t132 290.5l177 846h176l-183 -855q-35 -171 -102.5 -284t-177.5 -169t-275 -56zM554 1491q22 106 69.5 151.5t104.5 45.5q41 0 72 -13
t64 -31q31 -16 52 -24.5t39 -8.5q23 0 39.5 20t27.5 62h94q-24 -101 -65 -146.5t-101 -45.5q-39 0 -68 12t-64 30q-32 17 -53.5 26t-41.5 9q-25 0 -44.5 -21t-30.5 -66h-94z" />
    <glyph glyph-name="utilde" unicode="&#x169;" horiz-adv-x="1037" 
d="M335 -14q-95 0 -155 45t-80 129.5t4 200.5l140 655h161l-141 -658q-23 -111 7.5 -174.5t121.5 -63.5q60 0 111 24.5t93.5 61.5t77.5 74l156 736h162l-216 -1016h-157l28 146q-37 -39 -81 -76t-101 -60.5t-131 -23.5zM401 1181q22 106 69.5 151.5t104.5 45.5q40 0 71 -13
t65 -31q31 -16 52 -24.5t39 -8.5q23 0 39.5 20t26.5 61h95q-24 -101 -65 -146.5t-101 -45.5q-40 0 -68.5 12t-64.5 31q-32 17 -53.5 26t-40.5 9q-25 0 -44.5 -21t-30.5 -66h-94z" />
    <glyph glyph-name="Umacron" unicode="&#x16a;" horiz-adv-x="1271" 
d="M570 -18q-157 0 -262 68t-144.5 197.5t-0.5 310.5l164 788h177l-169 -802q-28 -138 -6.5 -231t87.5 -140.5t169 -47.5q150 0 238 84.5t132 290.5l177 846h176l-183 -855q-35 -171 -102.5 -284t-177.5 -169t-275 -56zM585 1535l25 116h496l-26 -116h-495z" />
    <glyph glyph-name="umacron" unicode="&#x16b;" horiz-adv-x="1037" 
d="M335 -14q-95 0 -155 45t-80 129.5t4 200.5l140 655h161l-141 -658q-23 -111 7.5 -174.5t121.5 -63.5q60 0 111 24.5t93.5 61.5t77.5 74l156 736h162l-216 -1016h-157l28 146q-37 -39 -81 -76t-101 -60.5t-131 -23.5zM418 1225l24 115h496l-25 -115h-495z" />
    <glyph glyph-name="Ubreve" unicode="&#x16c;" horiz-adv-x="1271" 
d="M570 -18q-157 0 -262 68t-144.5 197.5t-0.5 310.5l164 788h177l-169 -802q-28 -138 -6.5 -231t87.5 -140.5t169 -47.5q150 0 238 84.5t132 290.5l177 846h176l-183 -855q-35 -171 -102.5 -284t-177.5 -169t-275 -56zM844 1483q-114 0 -172 66.5t-48 183.5h95
q-6 -73 33.5 -108.5t99.5 -35.5q39 0 78 15t71.5 46.5t49.5 82.5h93q-35 -116 -110 -183t-190 -67z" />
    <glyph glyph-name="ubreve" unicode="&#x16d;" horiz-adv-x="1037" 
d="M335 -14q-95 0 -155 45t-80 129.5t4 200.5l140 655h161l-141 -658q-23 -111 7.5 -174.5t121.5 -63.5q60 0 111 24.5t93.5 61.5t77.5 74l156 736h162l-216 -1016h-157l28 146q-37 -39 -81 -76t-101 -60.5t-131 -23.5zM665 1161q-116 0 -173.5 66t-45.5 184h93
q-4 -51 14.5 -83t50.5 -46.5t70 -14.5q39 0 78.5 15t71.5 47t49 82h93q-36 -116 -112 -183t-189 -67z" />
    <glyph glyph-name="Uring" unicode="&#x16e;" horiz-adv-x="1271" 
d="M570 -18q-157 0 -262 68t-144.5 197.5t-0.5 310.5l164 788h177l-169 -802q-28 -138 -6.5 -231t87.5 -140.5t169 -47.5q150 0 238 84.5t132 290.5l177 846h176l-183 -855q-35 -171 -102.5 -284t-177.5 -169t-275 -56zM833 1378q-84 0 -144 58t-60 141q0 86 59.5 145
t144.5 59q84 0 143.5 -58.5t59.5 -143.5q0 -84 -59.5 -142.5t-143.5 -58.5zM833 1462q49 0 82 34.5t33 82.5q0 50 -33 83.5t-82 33.5t-82 -33.5t-33 -83.5q0 -48 33 -82.5t82 -34.5z" />
    <glyph glyph-name="uring" unicode="&#x16f;" horiz-adv-x="1037" 
d="M335 -14q-95 0 -155 45t-80 129.5t4 200.5l140 655h161l-141 -658q-23 -111 7.5 -174.5t121.5 -63.5q60 0 111 24.5t93.5 61.5t77.5 74l156 736h162l-216 -1016h-157l28 146q-37 -39 -81 -76t-101 -60.5t-131 -23.5zM670 1119q-84 0 -144 58t-60 144q0 85 59 144.5
t145 59.5q84 0 144 -58.5t60 -143.5q0 -87 -60 -145.5t-144 -58.5zM670 1206q49 0 82 34t33 83q0 50 -33 82.5t-82 32.5t-82.5 -32.5t-33.5 -82.5q0 -49 33.5 -83t82.5 -34z" />
    <glyph glyph-name="Uhungarumlaut" unicode="&#x170;" horiz-adv-x="1271" 
d="M570 -18q-157 0 -262 68t-144.5 197.5t-0.5 310.5l164 788h177l-169 -802q-28 -138 -6.5 -231t87.5 -140.5t169 -47.5q150 0 238 84.5t132 290.5l177 846h176l-183 -855q-35 -171 -102.5 -284t-177.5 -169t-275 -56zM849 1463l212 269h159l-259 -269h-112zM587 1463
l212 269h159l-259 -269h-112z" />
    <glyph glyph-name="uhungarumlaut" unicode="&#x171;" horiz-adv-x="1037" 
d="M335 -14q-95 0 -155 45t-80 129.5t4 200.5l140 655h161l-141 -658q-23 -111 7.5 -174.5t121.5 -63.5q60 0 111 24.5t93.5 61.5t77.5 74l156 736h162l-216 -1016h-157l28 146q-37 -39 -81 -76t-101 -60.5t-131 -23.5zM681 1152l212 269h159l-259 -269h-112zM419 1152
l212 269h159l-259 -269h-112z" />
    <glyph glyph-name="Uogonek" unicode="&#x172;" horiz-adv-x="1271" 
d="M570 -18q-157 0 -262 68t-144.5 197.5t-0.5 310.5l164 788h177l-169 -802q-28 -138 -6.5 -231t87.5 -140.5t169 -47.5q150 0 238 84.5t132 290.5l177 846h176l-183 -855q-35 -171 -102.5 -284t-177.5 -169t-275 -56zM549 -375q-73 0 -117 45t-28 127q15 70 85 136
t175 101l58 -18q-89 -58 -131 -110t-50 -91q-8 -40 6.5 -59.5t42.5 -19.5q29 0 57 8.5t61 22.5l-22 -108q-24 -14 -57 -24t-80 -10z" />
    <glyph glyph-name="uogonek" unicode="&#x173;" horiz-adv-x="1037" 
d="M335 -14q-95 0 -155 45t-80 129.5t4 200.5l140 655h161l-141 -658q-23 -111 7.5 -174.5t121.5 -63.5q60 0 111 24.5t93.5 61.5t77.5 74l156 736h162l-216 -1016h-157l28 146q-37 -39 -81 -76t-101 -60.5t-131 -23.5zM570 -375q-73 0 -117 45t-28 127q15 70 85 136
t175 101l58 -18q-89 -58 -131 -110t-50 -91q-8 -40 6.5 -59.5t42.5 -19.5q29 0 57 8.5t61 22.5l-22 -108q-24 -14 -57 -24t-80 -10z" />
    <glyph glyph-name="Wcircumflex" unicode="&#x174;" horiz-adv-x="1665" 
d="M253 0l-72 1346h176l29 -1133l525 1133h191l44 -1133l513 1133h182l-644 -1346h-181l-48 1149l-531 -1149h-184zM764 1461l252 270h159l136 -270h-127l-99 177l-179 -177h-142z" />
    <glyph glyph-name="wcircumflex" unicode="&#x175;" horiz-adv-x="1344" 
d="M186 0l-71 1000h158l35 -820l375 820h179l38 -821l373 821h165l-489 -1000h-169l-41 826l-382 -826h-171zM526 1136l250 269h161l136 -269h-125l-102 175l-182 -175h-138z" />
    <glyph glyph-name="Ycircumflex" unicode="&#x176;" horiz-adv-x="1009" 
d="M310 0l116 539l-246 807h179l181 -657l449 657h200l-589 -808l-115 -538h-175zM428 1461l252 270h159l136 -270h-127l-99 177l-179 -177h-142z" />
    <glyph glyph-name="ycircumflex" unicode="&#x177;" horiz-adv-x="847" 
d="M-82 -361l28 132h77q56 0 96.5 31t79.5 103l53 95l-135 1016h164l84 -844l427 844h173l-609 -1127q-37 -69 -71.5 -117t-72.5 -77.5t-84.5 -42.5t-107.5 -13h-102zM282 1152l250 269h161l136 -269h-125l-102 175l-182 -175h-138z" />
    <glyph glyph-name="Ydieresis" unicode="&#x178;" horiz-adv-x="1009" 
d="M310 0l116 539l-246 807h179l181 -657l449 657h200l-589 -808l-115 -538h-175zM873 1503q-35 0 -58.5 24t-23.5 60t24 61.5t59 25.5q33 0 56.5 -25t23.5 -60q0 -36 -24 -61t-57 -25zM553 1503q-35 0 -59 24t-24 60t24 61.5t60 25.5q33 0 57 -25t24 -60q0 -36 -24 -61
t-58 -25z" />
    <glyph glyph-name="Zacute" unicode="&#x179;" horiz-adv-x="949" 
d="M-77 0l29 135l874 1067h-604l30 144h811l-27 -131l-877 -1072h684l-30 -143h-890zM571 1463l222 268h194l-284 -268h-132z" />
    <glyph glyph-name="zacute" unicode="&#x17a;" horiz-adv-x="817" 
d="M-41 0l26 122l634 766h-432l27 128h628l-25 -113l-640 -774h501l-26 -129h-693zM451 1152l226 269h198l-294 -269h-130z" />
    <glyph glyph-name="Zdotaccent" unicode="&#x17b;" horiz-adv-x="949" 
d="M-77 0l29 135l874 1067h-604l30 144h811l-27 -131l-877 -1072h684l-30 -143h-890zM669 1509q-44 0 -71.5 27.5t-27.5 66.5t28 67t73 28q43 0 69 -27.5t26 -66.5q0 -40 -26.5 -67.5t-70.5 -27.5z" />
    <glyph glyph-name="zdotaccent" unicode="&#x17c;" horiz-adv-x="817" 
d="M-41 0l26 122l634 766h-432l27 128h628l-25 -113l-640 -774h501l-26 -129h-693zM581 1202q-44 0 -71.5 27t-27.5 66t28 67t73 28q43 0 69 -27.5t26 -66.5q0 -40 -26.5 -67t-70.5 -27z" />
    <glyph glyph-name="Zcaron" unicode="&#x17d;" horiz-adv-x="949" 
d="M-77 0l29 135l874 1067h-604l30 144h811l-27 -131l-877 -1072h684l-30 -143h-890zM572 1463l-135 270h127l99 -177l179 177h141l-252 -270h-159z" />
    <glyph glyph-name="zcaron" unicode="&#x17e;" horiz-adv-x="817" 
d="M-41 0l26 122l634 766h-432l27 128h628l-25 -113l-640 -774h501l-26 -129h-693zM467 1152l-135 269h125l102 -172l181 172h138l-252 -269h-159z" />
    <glyph glyph-name="longs" unicode="&#x17f;" horiz-adv-x="487" 
d="M56 0l190 888h-148l27 128h148l9 43q21 95 57 159t99 96t164 32h105l-29 -126h-81q-78 0 -109.5 -48.5t-51.5 -141.5l-219 -1030h-161z" />
    <glyph glyph-name="Bhook" unicode="&#x181;" horiz-adv-x="1323" 
d="M121 975l18 81q23 102 72 166t128 94t190 30l-23 -141q-94 0 -146 -37t-72 -122l-17 -71h-150zM238 0l286 1346h377q131 1 216.5 -47.5t119.5 -135.5t8 -205q-20 -91 -88 -157t-161 -87q71 -21 124 -70.5t75 -125.5t-1 -180q-20 -99 -84 -175.5t-171.5 -119.5t-259.5 -43
h-441zM441 144h253q130 0 217 55.5t110 166.5q28 131 -34.5 198.5t-187.5 67.5h-255zM574 771h220q120 0 192 54.5t93 151.5q22 105 -29 166t-171 61h-212z" />
    <glyph glyph-name="Oopen" unicode="&#x186;" horiz-adv-x="1303" 
d="M566 -18q-132 0 -240 49.5t-169.5 147.5t-54.5 243h174q-2 -99 37.5 -165.5t108 -100t153.5 -33.5q144 0 241.5 71t155 192t82.5 272q27 162 4.5 289.5t-100 201t-216.5 73.5q-143 0 -246 -78.5t-146 -247.5h-175q38 161 119 264.5t199 153.5t263 50q184 0 301.5 -92.5
t162 -257.5t7.5 -383q-32 -192 -116.5 -338.5t-221 -228.5t-323.5 -82z" />
    <glyph glyph-name="Dafrican" unicode="&#x189;" horiz-adv-x="1280" 
d="M32 617l28 137h653l-30 -137h-651zM58 0l286 1346h372q149 0 257.5 -53.5t173 -152t80.5 -236t-20 -306.5q-66 -312 -253 -455t-481 -143h-415zM261 143h208q156 0 268 45.5t184.5 150.5t110.5 283q38 175 15 306t-110.5 202.5t-242.5 71.5h-207z" />
    <glyph glyph-name="Dhook" unicode="&#x18a;" horiz-adv-x="1458" 
d="M121 975l18 81q23 102 72 166t128 94t189 30l-24 -141q-92 0 -144 -37t-72 -122l-17 -71h-150zM236 0l286 1346h371q150 0 258.5 -53.5t173 -152t80.5 -236t-20 -306.5q-67 -312 -254 -455t-480 -143h-415zM438 143h209q156 0 268 45.5t184.5 150.5t110.5 283
q38 175 15 306t-110.5 202.5t-243.5 71.5h-206z" />
    <glyph glyph-name="Ereversed" unicode="&#x18e;" horiz-adv-x="1028" 
d="M-18 0l30 143h607l104 480h-559l29 140h559l94 440h-608l31 143h780l-286 -1346h-781z" />
    <glyph glyph-name="Schwa" unicode="&#x18f;" horiz-adv-x="1321" 
d="M621 -18q-170 0 -287.5 79.5t-170 235.5t-25.5 387h947q25 154 1.5 276t-100.5 192.5t-215 70.5q-149 0 -251.5 -78t-152.5 -239h-178q46 155 128 256.5t199.5 151.5t267.5 50q144 0 247 -57t163 -161t74 -245t-22 -309q-38 -183 -119.5 -320.5t-207 -213.5t-298.5 -76z
M306 546q-12 -196 72.5 -310t252.5 -114q114 0 196 54.5t138 150.5t89 219h-748z" />
    <glyph glyph-name="Eopen" unicode="&#x190;" horiz-adv-x="1053" 
d="M460 -18q-137 0 -233.5 56.5t-137 157t-12.5 236.5q26 125 111 198.5t198 91.5q-87 32 -126.5 127t-14.5 216q31 147 147.5 224t280.5 77q122 0 210 -48.5t132 -135.5t31 -203h-172q16 108 -38 178.5t-177 70.5q-100 0 -166 -47.5t-87 -144.5q-23 -109 18 -183.5
t148 -74.5h101l-28 -137h-87q-118 0 -201 -50t-109 -174q-30 -141 35.5 -219t193.5 -78q136 0 210 78.5t98 204.5h172q-25 -134 -87 -228t-163.5 -143.5t-246.5 -49.5z" />
    <glyph glyph-name="Fhook" unicode="&#x191;" horiz-adv-x="1011" 
d="M-174 -358l31 146h45q63 0 95.5 43.5t50.5 130.5l294 1384h762l-29 -143h-590l-92 -440h532l-30 -140h-534l-142 -672q-33 -156 -108.5 -232.5t-225.5 -76.5h-59z" />
    <glyph glyph-name="florin" unicode="&#x192;" horiz-adv-x="542" 
d="M-190 -360l27 130h48q65 0 101.5 34.5t53.5 119.5l196 921h-146l27 129h146l12 59q16 80 38.5 139t58 97.5t92 57.5t142.5 19h101l-28 -126h-82q-78 0 -110.5 -49t-52.5 -144l-11 -53h204l-28 -129h-201l-201 -939q-18 -86 -53 -145t-96 -90t-159 -31h-79z" />
    <glyph glyph-name="Gammaafrican" unicode="&#x194;" horiz-adv-x="963" 
d="M402 -20q-60 0 -103 19t-68.5 54t-32 84.5t6.5 110.5q8 35 26.5 76.5t49 90.5t73 105.5t96.5 120.5l50 59l8 12l443 634h191l-608 -807q-75 -101 -121.5 -178t-60.5 -138q-12 -56 5.5 -86t52.5 -30q32 0 53.5 26t32.5 79q14 68 -1 156t-47 186l-263 792h182l172 -630
l10 -15l22 -60q34 -92 55.5 -172t28 -151t-7.5 -135q-21 -101 -82.5 -152t-162.5 -51z" />
    <glyph glyph-name="Khook" unicode="&#x198;" horiz-adv-x="1050" 
d="M55 0l287 1346h173l-140 -651l323 369q97 112 166 172.5t133.5 85t144.5 24.5h66l-33 -147h-39q-50 0 -94 -18t-97 -65.5t-131 -135.5l-258 -288l403 -692h-188l-397 688l-146 -688h-173z" />
    <glyph glyph-name="khook" unicode="&#x199;" horiz-adv-x="918" 
d="M45 0l225 1061q21 98 60.5 161t102 93.5t152.5 30.5h74l-29 -131h-41q-62 0 -101 -37t-57 -122l-109 -512l487 472h196l-509 -483l326 -533h-180l-322 534l-114 -534h-161z" />
    <glyph glyph-name="Ohorn" unicode="&#x1a0;" horiz-adv-x="1394" 
d="M1261 991l-18 84q72 26 135.5 72t92.5 107l6 -9q-49 5 -72.5 45.5t-12.5 95.5q9 43 39.5 67.5t71.5 24.5q61 0 90 -46t12 -132q-16 -81 -69.5 -141t-126.5 -101t-148 -67zM618 -18q-188 0 -307 95.5t-162 261.5t-3 378q36 196 124 341.5t227.5 226.5t330.5 81
q186 0 304.5 -95.5t162 -262t3.5 -379.5q-36 -193 -122.5 -339t-226 -227t-331.5 -81zM630 120q144 0 244.5 71t162.5 193t88 274q28 152 7.5 281t-98 208t-221.5 79q-142 0 -242.5 -70.5t-162 -192t-89.5 -275.5q-27 -152 -7 -281t97.5 -208t220.5 -79z" />
    <glyph glyph-name="ohorn" unicode="&#x1a1;" horiz-adv-x="1057" 
d="M883 714l-16 86q66 26 124 71.5t83 106.5l7 -9q-49 5 -72.5 46t-13.5 92q10 47 41 71t70 24q62 0 91.5 -46t12.5 -131q-16 -81 -67.5 -141t-120.5 -101.5t-139 -68.5zM456 -18q-135 0 -226.5 71.5t-124 203.5t5.5 310q47 222 169.5 344t312.5 122q132 0 219 -72
t118.5 -203t-5.5 -310q-46 -222 -164.5 -344t-304.5 -122zM467 107q124 0 194.5 99.5t105.5 264.5q28 120 17.5 219.5t-60.5 158.5t-144 59q-86 0 -147 -45t-101 -126t-63 -189q-27 -125 -15.5 -225t64 -158t149.5 -58z" />
    <glyph glyph-name="Uhorn" unicode="&#x1af;" horiz-adv-x="1403" 
d="M1216 970l14 103q80 20 148.5 70t99.5 113l7 -9q-49 4 -73 44.5t-13 94.5q10 46 40.5 70t70.5 24q62 0 91.5 -45t14.5 -122q-13 -66 -50 -118.5t-91 -94.5t-120.5 -74t-138.5 -56zM570 -18q-157 0 -262 68t-144.5 197.5t-0.5 310.5l164 788h177l-169 -802
q-28 -138 -6.5 -231t87.5 -140.5t169 -47.5q150 0 238 84.5t132 290.5l177 846h176l-183 -855q-35 -171 -102.5 -284t-177.5 -169t-275 -56z" />
    <glyph glyph-name="uhorn" unicode="&#x1b0;" horiz-adv-x="1129" 
d="M915 701l1 94q75 21 141 70.5t96 112.5l6 -9q-47 5 -72 44.5t-13 94.5q10 45 40.5 69.5t69.5 24.5q64 0 92.5 -45.5t13.5 -121.5q-12 -64 -47 -116.5t-85.5 -93.5t-112.5 -72t-130 -52zM335 -14q-95 0 -155 45t-80 129.5t4 200.5l140 655h161l-141 -658
q-23 -111 7.5 -174.5t121.5 -63.5q60 0 111 24.5t93.5 61.5t77.5 74l156 736h162l-216 -1016h-157l28 146q-37 -39 -81 -76t-101 -60.5t-131 -23.5z" />
    <glyph glyph-name="Vhook" unicode="&#x1b2;" horiz-adv-x="1269" 
d="M574 -24q-167 0 -271.5 73.5t-141.5 204.5t-1 302l167 790h177l-171 -804q-28 -134 -5.5 -228.5t89 -144t168.5 -49.5t174.5 40.5t121 127.5t76.5 228l87 424q28 137 -0.5 198t-139.5 61h-59l31 147h64q190 0 254.5 -102t22.5 -309l-89 -431q-35 -171 -103 -288.5
t-178 -178.5t-273 -61z" />
    <glyph glyph-name="Yhook" unicode="&#x1b3;" horiz-adv-x="1035" 
d="M309 0l115 539l-244 807h177l186 -680l57 -127l-115 -539h-176zM600 539l-122 59l276 454q74 121 130.5 184.5t113 86.5t129.5 23h75l-32 -147h-44q-42 0 -78 -18t-76.5 -66.5t-97.5 -139.5z" />
    <glyph glyph-name="yhook" unicode="&#x1b4;" horiz-adv-x="1047" 
d="M-78 -358l29 131h75q55 0 92.5 33t77.5 102l52 92l-138 997h166l90 -821l469 904q45 87 94 138.5t108.5 73.5t136.5 22h49l-28 -132h-34q-52 0 -93.5 -31t-83.5 -110l-632 -1166q-48 -89 -96 -139.5t-106 -72t-135 -21.5h-93z" />
    <glyph glyph-name="Ezh" unicode="&#x1b7;" horiz-adv-x="1056" 
d="M458 -18q-140 0 -235 53t-139 148.5t-32 219.5h171q-11 -129 51 -206.5t191 -77.5q122 0 193.5 56.5t95.5 173.5q34 154 -44 244.5t-234 90.5h-100l28 132l75 -5q167 0 277.5 -60t154.5 -170.5t12 -262.5q-22 -104 -80.5 -179.5t-154.5 -116t-230 -40.5zM530 757l-126 58
l450 387h-572l31 144h779l-29 -135z" />
    <glyph glyph-name="eturned" unicode="&#x1dd;" horiz-adv-x="990" 
d="M418 -18q-126 0 -206 68t-107 193.5t5 294.5h627q16 107 1.5 192t-65 134.5t-143.5 49.5q-82 0 -142.5 -43.5t-84.5 -139.5h-158q36 149 138.5 226t257.5 77q142 0 227.5 -72t115.5 -196.5t4 -284.5q-21 -140 -82 -253.5t-158 -179.5t-230 -66zM426 103q111 0 184.5 80.5
t106.5 237.5h-466q-12 -93 4 -165t59 -112.5t112 -40.5z" />
    <glyph glyph-name="Gcaron" unicode="&#x1e6;" horiz-adv-x="1322" 
d="M623 -18q-186 0 -304 92.5t-163.5 254.5t-12.5 369q31 193 118.5 343.5t230 236.5t339.5 86q90 0 170 -27.5t141.5 -81.5t96.5 -133t35 -183h-176q2 72 -29 136.5t-95 105t-162 40.5q-141 0 -242 -68.5t-163.5 -190t-89.5 -280.5t-3 -285.5t103.5 -199t218.5 -72.5
q125 0 211.5 54.5t140.5 147.5t77 208h-347l24 141h519l-21 -116q-23 -127 -71 -233t-124 -183.5t-181 -119.5t-241 -42zM761 1463l-135 270h127l99 -177l179 177h141l-252 -270h-159z" />
    <glyph glyph-name="gcaron" unicode="&#x1e7;" horiz-adv-x="903" 
d="M295 -377q-143 0 -223 42t-108 106.5t-16 131.5q16 94 99 155.5t221 86.5l37 53h86q231 0 318.5 -77.5t59.5 -225.5q-21 -118 -142.5 -195t-331.5 -77zM309 -260q145 0 218 47.5t87 118.5q9 50 -7.5 86.5t-69.5 56.5t-157 20h-118q-71 -18 -113 -63.5t-51 -98.5
q-12 -71 35 -119t176 -48zM247 85q-79 12 -123.5 43t-60.5 69.5t-10 74.5q10 52 58 96t131 67l77 -49q-54 -12 -89.5 -39t-42.5 -59q-5 -24 7 -43.5t49.5 -32t106.5 -14.5zM434 352q-116 0 -187.5 49.5t-98 132.5t-8.5 182q15 81 63.5 151.5t130.5 114.5t194 44
q172 0 246.5 -102t45.5 -258q-14 -81 -61.5 -152.5t-128.5 -116.5t-196 -45zM443 462q85 0 146.5 56.5t79.5 160.5q23 124 -21 181.5t-128 57.5q-86 0 -148.5 -57.5t-81.5 -160.5q-15 -81 3.5 -134t59 -78.5t90.5 -25.5zM754 915l-53 68q53 93 120 128t175 35l-23 -136
q-76 0 -126 -19.5t-93 -75.5zM475 1152l-135 269h125l102 -172l181 172h138l-252 -269h-159z" />
    <glyph glyph-name="Oogonek" unicode="&#x1ea;" horiz-adv-x="1365" 
d="M618 -18q-188 0 -307 95.5t-162 261.5t-3 378q36 196 124 341.5t227.5 226.5t330.5 81q186 0 304.5 -95.5t162 -262t3.5 -379.5q-36 -193 -122.5 -339t-226 -227t-331.5 -81zM630 120q144 0 244.5 71t162.5 193t88 274q28 152 7.5 281t-98 208t-221.5 79
q-142 0 -242.5 -70.5t-162 -192t-89.5 -275.5q-27 -152 -7 -281t97.5 -208t220.5 -79zM623 -375q-73 0 -117 45t-28 127q15 70 85 136t175 101l58 -18q-89 -58 -131 -110t-50 -91q-8 -40 6.5 -59.5t42.5 -19.5q29 0 57 8.5t61 22.5l-22 -108q-24 -14 -57 -24t-80 -10z" />
    <glyph glyph-name="oogonek" unicode="&#x1eb;" horiz-adv-x="1032" 
d="M456 -18q-135 0 -226.5 71.5t-124 203.5t5.5 310q47 222 169.5 344t312.5 122q132 0 219 -72t118.5 -203t-5.5 -310q-46 -222 -164.5 -344t-304.5 -122zM467 107q124 0 194.5 99.5t105.5 264.5q28 120 17.5 219.5t-60.5 158.5t-144 59q-86 0 -147 -45t-101 -126t-63 -189
q-27 -125 -15.5 -225t64 -158t149.5 -58zM443 -375q-73 0 -117 45t-28 127q15 70 85 136t175 101l58 -18q-89 -58 -131 -110t-50 -91q-8 -40 6.5 -59.5t42.5 -19.5q29 0 57 8.5t61 22.5l-22 -108q-24 -14 -57 -24t-80 -10z" />
    <glyph glyph-name="Ngrave" unicode="&#x1f8;" horiz-adv-x="1318" 
d="M58 0l286 1346h175l429 -1107l231 1107h159l-285 -1346h-175l-427 1101l-233 -1101h-160zM816 1463l-194 270h185l132 -270h-123z" />
    <glyph glyph-name="ngrave" unicode="&#x1f9;" horiz-adv-x="1037" 
d="M45 0l215 1016h156l-25 -142q54 58 127 107t184 49q94 0 154 -45t80.5 -129t-4.5 -201l-138 -655h-161l140 657q23 112 -6.5 176t-120.5 64q-87 0 -158 -49.5t-124 -105.5l-158 -742h-161zM620 1152l-199 269h184l135 -269h-120z" />
    <glyph glyph-name="Aringacute" unicode="&#x1fa;" horiz-adv-x="1096" 
d="M-99 0l740 1346h183l163 -1346h-174l-30 384h-499l-198 -384h-185zM362 530h403l-64 647zM732 1264q-84 0 -144 58t-60 141q0 86 59.5 145t144.5 59q84 0 143.5 -58.5t59.5 -143.5q0 -84 -59.5 -142.5t-143.5 -58.5zM732 1348q49 0 82 34.5t33 82.5q0 50 -33 83.5
t-82 33.5t-82 -33.5t-33 -83.5q0 -48 33 -82.5t82 -34.5zM677 1699l222 268h194l-284 -268h-132z" />
    <glyph glyph-name="aringacute" unicode="&#x1fb;" horiz-adv-x="993" 
d="M297 -18q-90 0 -151.5 38.5t-86 110.5t-5.5 170q24 120 111.5 183.5t229 87.5t324.5 27l16 71q20 95 4.5 149t-57.5 76t-99 22q-83 0 -140.5 -34t-77.5 -110h-157q32 138 131 199.5t252 61.5q101 0 179 -37.5t113.5 -121t5.5 -219.5l-139 -656h-150l24 138
q-64 -65 -142.5 -110.5t-184.5 -45.5zM340 102q61 0 116 23t103.5 61t88.5 82l49 234q-239 -4 -353.5 -54t-137.5 -162q-15 -78 18.5 -131t115.5 -53zM636 1119q-84 0 -144 58t-60 144q0 85 59 144.5t145 59.5q84 0 144 -58.5t60 -143.5q0 -87 -60 -145.5t-144 -58.5z
M636 1206q49 0 82 34t33 83q0 50 -33 82.5t-82 32.5t-82.5 -32.5t-33.5 -82.5q0 -49 33.5 -83t82.5 -34zM580 1551l226 269h198l-294 -269h-130z" />
    <glyph glyph-name="AEacute" unicode="&#x1fc;" horiz-adv-x="1622" 
d="M-99 0l810 1346h273l-17 -137h-169l-435 -741v-10l-264 -458h-198zM286 384l-1 144h577l1 -144h-577zM644 0l284 1346h781l-29 -143h-608l-94 -440h559l-30 -140h-559l-102 -480h607l-29 -143h-780zM1012 1463l222 268h194l-284 -268h-132z" />
    <glyph glyph-name="aeacute" unicode="&#x1fd;" horiz-adv-x="1570" 
d="M299 -18q-91 0 -153.5 41t-87 114t-3.5 168q20 91 75 148t143.5 88t207 43t265.5 12h643l-64 -10q20 107 5 179t-60.5 109t-117.5 37q-119 0 -191 -89t-108 -265l-3 -15h-159l34 147q19 85 2 134t-58 69.5t-92 20.5q-82 0 -138.5 -37t-73.5 -114h-157q30 138 129 203
t257 65q73 0 137 -22.5t103.5 -74.5t36.5 -142h-74q58 109 146.5 174t226.5 65q112 0 190 -56t109.5 -168.5t2.5 -282.5l-6 -34h-735l2 8q-173 1 -283.5 -19t-168.5 -66t-74 -125q-17 -83 19.5 -133.5t118.5 -50.5q86 0 171 52.5t163 166.5l50 -62q-42 -75 -105.5 -138.5
t-145.5 -101.5t-179 -38zM1023 -18q-133 0 -218.5 69.5t-117 191t-2.5 277.5l159 -7q-24 -111 -13.5 -205t60 -150t143.5 -56q95 0 149 38.5t75 111.5h161q-37 -129 -136.5 -199.5t-259.5 -70.5zM808 1129l226 269h198l-294 -269h-130z" />
    <glyph glyph-name="Oslashacute" unicode="&#x1fe;" horiz-adv-x="1365" 
d="M82 -62l-78 77l233 233l11 6l879 916l13 6l230 232l77 -78l-234 -234l-11 -6l-880 -915l-12 -6zM618 -18q-186 0 -304.5 95.5t-162.5 261.5t-5 378q36 195 123.5 341t227 227t331.5 81q186 0 304 -96t161.5 -263t4.5 -379q-36 -193 -123 -338.5t-226.5 -226.5t-330.5 -81
zM631 120q144 0 243.5 70.5t161 193t89.5 278.5q27 153 6 281t-98 204.5t-219 76.5q-143 0 -243.5 -70t-162 -191t-89.5 -276q-27 -151 -6.5 -280.5t98 -208t220.5 -78.5zM778 1463l222 268h194l-284 -268h-132z" />
    <glyph glyph-name="oslashacute" unicode="&#x1ff;" horiz-adv-x="1026" 
d="M43 -66l-65 66l1017 1071l65 -64zM454 -16q-136 0 -227 71t-124 201.5t4 307.5q48 222 170 343.5t311 121.5q136 0 223 -71.5t117.5 -202.5t-7.5 -310q-46 -218 -163.5 -339.5t-303.5 -121.5zM465 109q84 0 143 44.5t98 125.5t63 190q26 119 18 217.5t-59 158t-153 59.5
q-87 0 -148.5 -45t-102 -127t-65.5 -192q-25 -119 -13.5 -217t65.5 -156t154 -58zM552 1125l226 269h198l-294 -269h-130z" />
    <glyph glyph-name="Scommaaccent" unicode="&#x218;" horiz-adv-x="1056" 
d="M477 -18q-134 0 -231 46t-148.5 140.5t-48.5 239.5h175q-2 -152 64 -219t200 -67q112 0 187.5 49.5t93.5 157.5q13 77 -6.5 131.5t-78 97.5t-163.5 84q-113 45 -187.5 106.5t-105 142.5t-11.5 184q18 92 75 156.5t148 99t209 33.5q119 0 208.5 -42t139 -125.5
t47.5 -208.5h-174q1 117 -60.5 177.5t-172.5 60.5q-109 0 -176.5 -47t-80.5 -127q-10 -57 8.5 -105t76 -91t165.5 -86q119 -48 194 -106.5t105 -142t10 -206.5q-18 -111 -79.5 -185t-159 -111t-223.5 -37zM315 -391l-8 64q33 11 65 33t48 53q-36 6 -52 33.5t-9 61.5
q7 35 32 55t68 20q40 0 65.5 -30t13.5 -89q-16 -77 -80.5 -129.5t-142.5 -71.5z" />
    <glyph glyph-name="scommaaccent" unicode="&#x219;" horiz-adv-x="905" 
d="M393 -18q-105 0 -187 33.5t-126 103.5t-37 179h155q-5 -108 50.5 -152.5t152.5 -44.5q87 0 137 36t62 101q10 50 -3.5 90t-57 74t-124.5 65q-148 57 -209.5 142t-37.5 205q21 104 112 160.5t229 56.5q102 0 176.5 -35.5t114.5 -101.5t36 -159h-155q1 84 -42 130.5
t-139 46.5q-67 0 -115.5 -26t-61.5 -89q-14 -66 29 -117t170 -100q149 -58 203 -143t32 -211q-19 -112 -108 -178t-256 -66zM212 -391l-8 64q33 11 65 33t48 53q-36 6 -52 33.5t-9 61.5q7 35 32 55t68 20q40 0 65.5 -30t13.5 -89q-16 -77 -80.5 -129.5t-142.5 -71.5z" />
    <glyph glyph-name="Tcommaaccent" unicode="&#x21a;" horiz-adv-x="894" 
d="M257 0l256 1202h-343l30 144h860l-30 -144h-344l-257 -1202h-172zM183 -391l-8 64q33 11 65 33t48 53q-36 6 -52 33.5t-9 61.5q7 35 32 55t68 20q40 0 65.5 -30t13.5 -89q-16 -77 -80.5 -129.5t-142.5 -71.5z" />
    <glyph glyph-name="tcommaaccent" unicode="&#x21b;" horiz-adv-x="588" 
d="M353 0q-111 0 -165 40t-64 113.5t11 173.5l118 561h-146l28 128h146l47 222h162l-47 -222h213l-27 -128h-214l-122 -574q-20 -91 -3 -138t91 -47h87l-26 -129h-89zM73 -390l-8 64q33 11 65 33t48 53q-36 6 -52 33.5t-9 61.5q7 35 32 55t68 20q40 0 65.5 -30t13.5 -89
q-16 -77 -80.5 -129.5t-142.5 -71.5z" />
    <glyph glyph-name="Ymacron" unicode="&#x232;" horiz-adv-x="1009" 
d="M310 0l116 539l-246 807h179l181 -657l449 657h200l-589 -808l-115 -538h-175zM459 1535l25 116h496l-26 -116h-495z" />
    <glyph glyph-name="ymacron" unicode="&#x233;" horiz-adv-x="847" 
d="M-82 -361l28 132h77q56 0 96.5 31t79.5 103l53 95l-135 1016h164l84 -844l427 844h173l-609 -1127q-37 -69 -71.5 -117t-72.5 -77.5t-84.5 -42.5t-107.5 -13h-102zM330 1225l24 115h496l-25 -115h-495z" />
    <glyph glyph-name="jdotless" unicode="&#x237;" horiz-adv-x="465" 
d="M-203 -360l27 130h48q65 0 101.5 35.5t53.5 116.5l230 1086h162l-235 -1102q-26 -125 -94.5 -195.5t-212.5 -70.5h-80z" />
    <glyph glyph-name="bhook" unicode="&#x253;" horiz-adv-x="1043" 
d="M510 -18q-96 0 -168 44t-113 116l-37 -142h-153l231 1080q20 93 56 152t98 86.5t160 27.5h75l-28 -131h-41q-65 0 -104 -30.5t-58 -121.5l-48 -219q51 68 123.5 113.5t174.5 45.5q110 0 182 -66t94.5 -191t-14.5 -301q-51 -240 -164 -351.5t-266 -111.5zM495 111
q108 0 177 87t109 266q42 196 2 303t-148 107q-60 0 -112 -25t-96 -66t-80 -92l-86 -413q34 -74 93 -120.5t141 -46.5z" />
    <glyph glyph-name="oopen" unicode="&#x254;" horiz-adv-x="991" 
d="M411 -18q-107 0 -186 40.5t-119 116t-30 178.5h159q-5 -59 15.5 -107t65 -75.5t110.5 -27.5q125 0 199 98.5t103 273.5q33 196 -21 303t-177 107q-99 0 -159.5 -54.5t-81.5 -161.5h-159q38 175 141.5 258t272.5 83q123 0 209.5 -64.5t123 -185t7.5 -292.5
q-42 -256 -165.5 -373t-307.5 -117z" />
    <glyph glyph-name="dtail" unicode="&#x256;" horiz-adv-x="1060" 
d="M368 -18q-109 0 -180.5 68.5t-94.5 195.5t13 301q52 249 167 366t270 117q97 0 168.5 -45t112.5 -118l101 479h158l-285 -1346h-155l25 143q-52 -70 -125 -115.5t-175 -45.5zM410 111q63 0 115.5 26t96 68.5t78.5 92.5l93 434q-22 49 -56.5 86.5t-79.5 59t-99 21.5
q-112 0 -184 -93t-114 -282q-26 -124 -17 -217t52 -144.5t115 -51.5zM839 -284q-83 0 -132.5 34t-65 97.5t1.5 152.5h155q-19 -83 4.5 -118.5t80.5 -35.5h40l-27 -130h-57z" />
    <glyph glyph-name="dhook" unicode="&#x257;" horiz-adv-x="1069" 
d="M367 -18q-109 0 -180.5 67t-94 192.5t13.5 300.5q33 161 96 265.5t149 155.5t188 51q98 0 168.5 -44t111.5 -118l48 228q20 94 57.5 153t99 86t152.5 27h74l-26 -131h-41q-67 0 -106.5 -38t-56.5 -119l-223 -1058h-152l23 142q-53 -69 -125.5 -114.5t-175.5 -45.5z
M410 111q93 0 162.5 52.5t125.5 133.5l90 422q-34 74 -93 119t-141 45q-111 0 -181.5 -88.5t-110.5 -272.5q-41 -189 -1.5 -300t149.5 -111z" />
    <glyph glyph-name="schwa" unicode="&#x259;" horiz-adv-x="990" 
d="M418 -18q-126 0 -206 68t-107 193.5t5 294.5h627q16 107 1.5 192t-65 134.5t-143.5 49.5q-82 0 -142.5 -43.5t-84.5 -139.5h-158q36 149 138.5 226t257.5 77q142 0 227.5 -72t115.5 -196.5t4 -284.5q-21 -140 -82 -253.5t-158 -179.5t-230 -66zM426 103q111 0 184.5 80.5
t106.5 237.5h-466q-12 -93 4 -165t59 -112.5t112 -40.5z" />
    <glyph glyph-name="eopen" unicode="&#x25b;" horiz-adv-x="957" 
d="M402 -16q-126 0 -212.5 42t-124 117t-16.5 173q23 104 100 155.5t176 66.5q-85 27 -129.5 99.5t-24.5 163.5q11 53 49 105.5t115.5 87.5t209.5 35q113 0 188.5 -33.5t114 -93.5t40.5 -136h-152q-2 60 -52 99.5t-152 39.5q-108 0 -158.5 -41t-62.5 -97q-10 -52 13 -90.5
t71 -59.5t112 -21h97l-27 -124h-86q-132 0 -198.5 -43.5t-82.5 -120.5q-15 -69 9 -113t76 -66t124 -22q120 0 184 39.5t82 117.5h154q-32 -142 -132.5 -211t-304.5 -69z" />
    <glyph glyph-name="gamma-latin" unicode="&#x263;" horiz-adv-x="868" 
d="M318 243l-205 773h160l144 -624l392 624h172l-514 -773h-149zM296 -237q34 0 54.5 27t31.5 78q11 52 11 125.5t-23 149.5q-50 -69 -79.5 -135t-40.5 -117q-11 -52 -1 -90t47 -38zM287 -358q-71 0 -117.5 33t-64 93t-1.5 138q18 88 100 214.5t214 261.5q52 -100 81 -197.5
t36 -184t-7 -152.5q-21 -99 -83 -152.5t-158 -53.5z" />
    <glyph glyph-name="esh" unicode="&#x283;" horiz-adv-x="481" 
d="M-174 -315l29 128h41q76 0 108 46.5t52 140.5l218 1032q22 102 60 171.5t105.5 105.5t174.5 36h52l-28 -129h-42q-78 0 -109 -48t-51 -143l-218 -1025q-21 -99 -58.5 -169.5t-104.5 -108t-178 -37.5h-51z" />
    <glyph glyph-name="vhook" unicode="&#x28b;" horiz-adv-x="1065" 
d="M455 -10q-102 0 -175.5 28.5t-117 85.5t-54 141.5t12.5 194.5l122 576h160l-122 -580q-20 -96 -11 -164t55.5 -104.5t137.5 -36.5q90 0 146 34t89.5 101.5t54.5 169.5l57 273q20 91 9.5 140.5t-88.5 49.5h-36l29 129h39q107 0 158.5 -39.5t60.5 -114.5t-14 -182l-55 -268
q-47 -227 -154.5 -330.5t-303.5 -103.5z" />
    <glyph glyph-name="ezh" unicode="&#x292;" horiz-adv-x="919" 
d="M316 -379q-136 0 -221.5 50.5t-122 141.5t-25.5 214h151q-8 -125 46 -202.5t181 -77.5q114 0 182.5 60t93.5 187q33 160 -42 251.5t-235 91.5h-85l26 122l428 429h-476l26 128h668l-25 -113l-457 -453q110 -9 195.5 -65.5t124.5 -158.5t10 -246q-34 -175 -147 -267
t-296 -92z" />
    <glyph glyph-name="circumflex" unicode="&#x2c6;" horiz-adv-x="1022" 
d="M217 1110l250 269h161l136 -269h-125l-102 175l-182 -175h-138z" />
    <glyph glyph-name="caron" unicode="&#x2c7;" horiz-adv-x="1022" 
d="M417 1110l-135 269h125l102 -172l181 172h138l-252 -269h-159z" />
    <glyph glyph-name="breve" unicode="&#x2d8;" horiz-adv-x="1022" 
d="M512 1119q-116 0 -173.5 66t-45.5 184h93q-4 -51 14.5 -83t50.5 -46.5t70 -14.5q39 0 78.5 15t71.5 47t49 82h93q-36 -116 -112 -183t-189 -67z" />
    <glyph glyph-name="dotaccent" unicode="&#x2d9;" horiz-adv-x="1022" 
d="M533 1160q-44 0 -71.5 27t-27.5 66t28 67t73 28q43 0 69 -27.5t26 -66.5q0 -40 -26.5 -67t-70.5 -27z" />
    <glyph glyph-name="ring" unicode="&#x2da;" horiz-adv-x="1022" 
d="M501 1077q-84 0 -144 58t-60 144q0 85 59 144.5t145 59.5q84 0 144 -58.5t60 -143.5q0 -87 -60 -145.5t-144 -58.5zM501 1164q49 0 82 34t33 83q0 50 -33 82.5t-82 32.5t-82.5 -32.5t-33.5 -82.5q0 -49 33.5 -83t82.5 -34z" />
    <glyph glyph-name="ogonek" unicode="&#x2db;" horiz-adv-x="1022" 
d="M475 -377q-73 0 -117 45t-28 127q15 70 85 136t175 101l58 -18q-89 -58 -131 -110t-50 -91q-8 -40 6.5 -59.5t42.5 -19.5q29 0 57 8.5t61 22.5l-22 -108q-24 -14 -57 -24t-80 -10z" />
    <glyph glyph-name="tilde" unicode="&#x2dc;" horiz-adv-x="1022" 
d="M249 1139q22 106 69.5 151.5t104.5 45.5q40 0 71 -13t65 -31q31 -16 52 -24.5t39 -8.5q23 0 39.5 20t26.5 61h95q-24 -101 -65 -146.5t-101 -45.5q-40 0 -68.5 12t-64.5 31q-32 17 -53.5 26t-40.5 9q-25 0 -44.5 -21t-30.5 -66h-94z" />
    <glyph glyph-name="hungarumlaut" unicode="&#x2dd;" horiz-adv-x="1022" 
d="M528 1110l212 269h159l-259 -269h-112zM266 1110l212 269h159l-259 -269h-112z" />
    <glyph glyph-name="gravecomb" unicode="&#x300;" horiz-adv-x="0" 
d="M466 1110l-199 269h184l135 -269h-120z" />
    <glyph glyph-name="acutecomb" unicode="&#x301;" horiz-adv-x="0" 
d="M402 1110l226 269h198l-294 -269h-130z" />
    <glyph glyph-name="circumflexcomb" unicode="&#x302;" horiz-adv-x="0" 
d="M217 1110l250 269h161l136 -269h-125l-102 175l-182 -175h-138z" />
    <glyph glyph-name="tildecomb" unicode="&#x303;" horiz-adv-x="0" 
d="M249 1139q22 106 69.5 151.5t104.5 45.5q40 0 71 -13t65 -31q31 -16 52 -24.5t39 -8.5q23 0 39.5 20t26.5 61h95q-24 -101 -65 -146.5t-101 -45.5q-40 0 -68.5 12t-64.5 31q-32 17 -53.5 26t-40.5 9q-25 0 -44.5 -21t-30.5 -66h-94z" />
    <glyph glyph-name="macroncomb" unicode="&#x304;" horiz-adv-x="0" 
d="M266 1183l24 115h496l-25 -115h-495z" />
    <glyph glyph-name="brevecomb" unicode="&#x306;" horiz-adv-x="0" 
d="M512 1119q-116 0 -173.5 66t-45.5 184h93q-4 -51 14.5 -83t50.5 -46.5t70 -14.5q39 0 78.5 15t71.5 47t49 82h93q-36 -116 -112 -183t-189 -67z" />
    <glyph glyph-name="dotaccentcomb" unicode="&#x307;" horiz-adv-x="0" 
d="M533 1160q-44 0 -71.5 27t-27.5 66t28 67t73 28q43 0 69 -27.5t26 -66.5q0 -40 -26.5 -67t-70.5 -27z" />
    <glyph glyph-name="dieresiscomb" unicode="&#x308;" horiz-adv-x="0" 
d="M669 1148q-33 0 -57 25t-24 60q0 36 24.5 61t58.5 25q33 0 57 -24.5t24 -59.5q0 -36 -24.5 -61.5t-58.5 -25.5zM350 1148q-35 0 -59 25t-24 60q0 36 24.5 61t59.5 25q32 0 56 -24.5t24 -59.5q0 -36 -24.5 -61.5t-56.5 -25.5z" />
    <glyph glyph-name="hookabovecomb" unicode="&#x309;" horiz-adv-x="0" 
d="M456 1134l-27 60q33 10 65 34.5t39 59.5q8 36 -12.5 49t-65.5 13h-12l20 100h31q110 0 156.5 -43t30.5 -116q-9 -46 -39.5 -78t-78 -51.5t-107.5 -27.5zM429 1194l103 -10l-20 -94h-105z" />
    <glyph glyph-name="ringcomb" unicode="&#x30a;" horiz-adv-x="0" 
d="M501 1077q-84 0 -144 58t-60 144q0 85 59 144.5t145 59.5q84 0 144 -58.5t60 -143.5q0 -87 -60 -145.5t-144 -58.5zM501 1164q49 0 82 34t33 83q0 50 -33 82.5t-82 32.5t-82.5 -32.5t-33.5 -82.5q0 -49 33.5 -83t82.5 -34z" />
    <glyph glyph-name="hungarumlautcomb" unicode="&#x30b;" horiz-adv-x="0" 
d="M528 1110l212 269h159l-259 -269h-112zM266 1110l212 269h159l-259 -269h-112z" />
    <glyph glyph-name="caroncomb" unicode="&#x30c;" horiz-adv-x="0" 
d="M417 1110l-135 269h125l102 -172l181 172h138l-252 -269h-159z" />
    <glyph glyph-name="commaturnedabovecomb" unicode="&#x312;" horiz-adv-x="0" 
d="M105 1111q-44 0 -70 34.5t-13 93.5q11 49 45 90.5t83 70.5t102 41l6 -67q-34 -15 -65 -36t-48 -53q36 -7 52.5 -34.5t8.5 -62.5q-6 -35 -33 -56t-68 -21z" />
    <glyph glyph-name="horncomb" unicode="&#x31b;" horiz-adv-x="0" 
d="M-67 714l-17 86q52 24 100.5 69.5t69.5 108.5l7 -9q-49 5 -72.5 46t-13.5 92q10 46 41 70.5t70 24.5q62 0 91.5 -46t12.5 -131q-16 -81 -61.5 -141t-105.5 -101.5t-122 -68.5z" />
    <glyph glyph-name="dotbelowcomb" unicode="&#x323;" horiz-adv-x="0" 
d="M-12 -288q-45 0 -72 27t-27 66t27.5 67t72.5 28q44 0 69.5 -27.5t25.5 -66.5q0 -40 -26.5 -67t-69.5 -27z" />
    <glyph glyph-name="commaaccentcomb" unicode="&#x326;" horiz-adv-x="0" 
d="M379 -391l-8 64q33 11 65 33t48 53q-36 6 -52 33.5t-9 61.5q7 35 32 55t68 20q40 0 65.5 -30t13.5 -89q-16 -77 -80.5 -129.5t-142.5 -71.5z" />
    <glyph glyph-name="cedillacomb" unicode="&#x327;" horiz-adv-x="0" 
d="M463 -382q-57 0 -96 9.5t-70 23.5l46 91q20 -12 55.5 -20t73.5 -8q33 0 58.5 14t30.5 43q9 37 -15 57.5t-96 30.5l-39 5l152 177l72 -41l-79 -93l-25 27q86 -5 123.5 -55.5t21.5 -125.5q-11 -51 -42.5 -80t-76 -42t-94.5 -13z" />
    <glyph glyph-name="ogonekcomb" unicode="&#x328;" horiz-adv-x="0" 
d="M475 -377q-73 0 -117 45t-28 127q15 70 85 136t175 101l58 -18q-89 -58 -131 -110t-50 -91q-8 -40 6.5 -59.5t42.5 -19.5q29 0 57 8.5t61 22.5l-22 -108q-24 -14 -57 -24t-80 -10z" />
    <glyph glyph-name="strokeshortcomb" unicode="&#x335;" horiz-adv-x="0" 
d="M6 386l23 105h491l-22 -105h-492z" />
    <glyph glyph-name="strokelongcomb" unicode="&#x336;" horiz-adv-x="0" 
d="M28 617l28 137h650l-28 -137h-650z" />
    <glyph glyph-name="ypogegrammenicomb" unicode="&#x345;" horiz-adv-x="0" 
d="M9 -358q-96 0 -113 50t0 130l26 123h124l-25 -111q-8 -42 -2.5 -63t41.5 -21h28l-23 -108h-56z" />
    <glyph glyph-name="Heta" unicode="&#x370;" horiz-adv-x="774" 
d="M58 0l287 1346h173l-122 -568h407l-31 -149h-407l-134 -629h-173z" />
    <glyph glyph-name="heta" unicode="&#x371;" horiz-adv-x="660" 
d="M47 0l213 1016h162l-214 -1016h-161zM252 463l26 128h361l-26 -128h-361z" />
    <glyph glyph-name="Archaicsampi" unicode="&#x372;" horiz-adv-x="1036" 
d="M328 0l257 1202h-214l-54 -245h-164l83 389h931l-83 -389h-164l53 245h-215l-256 -1202h-174z" />
    <glyph glyph-name="archaicsampi" unicode="&#x373;" horiz-adv-x="908" 
d="M519 0q-110 0 -161.5 38t-59 108t13.5 167l123 575h-191l-46 -216h-141l73 344h853l-72 -344h-141l45 216h-219l-122 -568q-22 -98 -8 -144.5t89 -46.5h113l-27 -129h-122z" />
    <glyph glyph-name="numeral-greek" unicode="&#x374;" horiz-adv-x="452" 
d="M150 1110l226 269h198l-294 -269h-130z" />
    <glyph glyph-name="lowernumeral-greek" unicode="&#x375;" horiz-adv-x="452" 
d="M-117 -135l226 269h198l-294 -269h-130z" />
    <glyph glyph-name="Pamphyliandigamma" unicode="&#x376;" horiz-adv-x="1318" 
d="M1052 0h-160l231 1084l-885 -1084h-180l287 1346h161l-231 -1083l884 1083h180z" />
    <glyph glyph-name="pamphyliandigamma" unicode="&#x377;" horiz-adv-x="1091" 
d="M46 0l214 1016h154l-164 -778l636 778h160l-216 -1016h-153l165 776l-637 -776h-159z" />
    <glyph glyph-name="ypogegrammeni" unicode="&#x37a;" horiz-adv-x="1111" 
d="M251 -358q-96 0 -113 50t0 130l26 123h124l-25 -111q-8 -42 -2.5 -63t41.5 -21h28l-23 -108h-56z" />
    <glyph glyph-name="sigmaLunateReversedSymbol" unicode="&#x37b;" horiz-adv-x="988" 
d="M408 -18q-107 0 -184 41.5t-116 118.5t-32 184h158q-3 -64 16.5 -113.5t62.5 -77.5t109 -28q130 0 202 95.5t102 273.5q33 207 -17 319.5t-171 112.5q-98 0 -160 -53.5t-85 -151.5h-157q37 166 145 247.5t270 81.5q117 0 202.5 -64t122.5 -190t7 -310
q-42 -255 -166.5 -370.5t-308.5 -115.5z" />
    <glyph glyph-name="sigmaLunateDottedSymbol" unicode="&#x37c;" horiz-adv-x="988" 
d="M447 -18q-121 0 -209 64t-125.5 186.5t-8.5 296.5q43 260 166.5 382.5t309.5 122.5q106 0 180 -37t113.5 -104.5t41.5 -159.5h-159q-5 78 -49.5 127t-138.5 49q-129 0 -203.5 -105.5t-104.5 -284.5q-33 -200 21 -306t181 -106q92 0 150 48t77 134h158
q-35 -158 -137.5 -232.5t-262.5 -74.5zM532 435q-42 0 -67.5 25.5t-25.5 62.5q0 39 26 65.5t68 26.5q40 0 65 -26t25 -64t-25.5 -64t-65.5 -26z" />
    <glyph glyph-name="sigmaLunateDottedReversedSymbol" unicode="&#x37d;" horiz-adv-x="988" 
d="M468 440q-42 0 -67.5 25.5t-25.5 62.5q0 38 26 64.5t68 26.5q41 0 65.5 -26t24.5 -63q0 -38 -25 -64t-66 -26zM408 -18q-107 0 -184.5 41.5t-116 118.5t-32.5 184h159q-3 -64 16.5 -113.5t62.5 -77.5t109 -28q130 0 202 95.5t102 273.5q33 207 -17.5 319.5t-170.5 112.5
q-98 0 -160 -53.5t-85 -151.5h-157q37 167 145 248t270 81q117 0 202.5 -64t122.5 -190t7 -310q-42 -255 -166.5 -370.5t-308.5 -115.5z" />
    <glyph glyph-name="questiongreek" unicode="&#x37e;" horiz-adv-x="506" 
d="M-8 -275l-17 91q61 28 110 75.5t71 108.5l6 -10q-53 5 -78.5 47t-14.5 99q12 47 43.5 73t76.5 26q65 0 96 -49t11 -144q-17 -84 -65 -145t-111.5 -102.5t-127.5 -69.5zM345 782q-51 0 -85 35t-34 86q0 53 34.5 88t86.5 35q51 0 84.5 -34.5t33.5 -87.5q0 -50 -34.5 -86
t-85.5 -36z" />
    <glyph glyph-name="Yot" unicode="&#x37f;" horiz-adv-x="624" 
d="M-74 -13l32 146h74q113 0 170 65t86 202l203 946h169l-204 -965q-30 -138 -81 -225t-135.5 -128t-217.5 -41h-96z" />
    <glyph glyph-name="tonos" unicode="&#x384;" horiz-adv-x="1022" 
d="M415 1112l115 301h174l-189 -301h-100z" />
    <glyph glyph-name="dieresistonos" unicode="&#x385;" horiz-adv-x="1022" 
d="M428 1106l116 306h157l-179 -306h-94zM330 1138q-36 0 -60 23.5t-24 59.5q0 38 25 62.5t61 24.5q35 0 59 -24t24 -60q0 -37 -24.5 -61.5t-60.5 -24.5zM735 1138q-36 0 -59.5 23.5t-23.5 60.5t24 61.5t60 24.5t59.5 -24t23.5 -60q0 -38 -24.5 -62t-59.5 -24z" />
    <glyph glyph-name="Alphatonos" unicode="&#x386;" horiz-adv-x="1096" 
d="M-99 0l740 1346h183l163 -1346h-174l-30 384h-499l-198 -384h-185zM362 530h403l-64 647zM150 1044l115 302h174l-189 -302h-100z" />
    <glyph glyph-name="anoteleia" unicode="&#x387;" horiz-adv-x="534" 
d="M274 419q-53 0 -87 36t-34 87q0 53 34 87.5t87 34.5q51 0 85 -34.5t34 -87.5q0 -51 -34 -87t-85 -36z" />
    <glyph glyph-name="Epsilontonos" unicode="&#x388;" 
d="M58 0l286 1346h780l-29 -143h-608l-94 -440h559l-30 -140h-560l-101 -480h607l-29 -143h-781zM-13 1045l115 302h174l-189 -302h-100z" />
    <glyph glyph-name="Etatonos" unicode="&#x389;" horiz-adv-x="1322" 
d="M58 0l286 1346h174l-122 -568h652l122 568h173l-287 -1346h-173l135 629h-653l-134 -629h-173zM-13 1044l115 302h174l-189 -302h-100z" />
    <glyph glyph-name="Iotatonos" unicode="&#x38a;" horiz-adv-x="497" 
d="M58 0l286 1346h174l-287 -1346h-173zM-13 1044l115 302h174l-189 -302h-100z" />
    <glyph glyph-name="Omicrontonos" unicode="&#x38c;" horiz-adv-x="1365" 
d="M618 -18q-188 0 -307 95.5t-162 261.5t-3 378q36 196 124 341.5t227.5 226.5t330.5 81q186 0 304.5 -95.5t162 -262t3.5 -379.5q-36 -193 -122.5 -339t-226 -227t-331.5 -81zM630 120q144 0 244.5 71t162.5 193t88 274q28 152 7.5 281t-98 208t-221.5 79
q-142 0 -242.5 -70.5t-162 -192t-89.5 -275.5q-27 -152 -7 -281t97.5 -208t220.5 -79zM32 1044l115 302h174l-189 -302h-100z" />
    <glyph glyph-name="Upsilontonos" unicode="&#x38e;" horiz-adv-x="1009" 
d="M310 0l116 539l-246 807h179l181 -657l449 657h200l-589 -808l-115 -538h-175zM-118 1044l115 302h174l-189 -302h-100z" />
    <glyph glyph-name="Omegatonos" unicode="&#x38f;" horiz-adv-x="1358" 
d="M-12 0l30 143h310q-79 64 -121.5 165.5t-49 225t20.5 254.5q38 182 122.5 311t216.5 197t315 68q141 0 241 -54t156.5 -148.5t70.5 -218t-15 -262.5q-43 -201 -136.5 -331t-239.5 -207h285l-29 -143h-487l32 153q165 72 259 198.5t138 333.5q23 106 19.5 202.5t-37 172.5
t-101 120t-171.5 44q-136 0 -230 -62.5t-152 -169t-87 -240.5q-45 -212 -6 -367.5t163 -229.5l-34 -155h-483zM36 1044l115 302h174l-189 -302h-100z" />
    <glyph glyph-name="iotadieresistonos" unicode="&#x390;" horiz-adv-x="484" 
d="M304 0q-154 0 -196.5 88t-6.5 253l146 675h161l-148 -691q-22 -102 -5 -149t85 -47h43l-28 -129h-51zM282 1106l116 306h157l-179 -306h-94zM184 1138q-36 0 -60 23.5t-24 59.5q0 38 25 62.5t61 24.5q35 0 59 -24t24 -60q0 -37 -24.5 -61.5t-60.5 -24.5zM589 1138
q-36 0 -59.5 23.5t-23.5 60.5t24 61.5t60 24.5t59.5 -24t23.5 -60q0 -38 -24.5 -62t-59.5 -24z" />
    <glyph glyph-name="Alpha" unicode="&#x391;" horiz-adv-x="1096" 
d="M-99 0l740 1346h183l163 -1346h-174l-30 384h-499l-198 -384h-185zM362 530h403l-64 647z" />
    <glyph glyph-name="Beta" unicode="&#x392;" horiz-adv-x="1143" 
d="M58 0l286 1346h377q131 1 216.5 -47.5t119.5 -135.5t8 -205q-20 -91 -88 -157t-161 -87q72 -21 124.5 -70.5t74.5 -125.5t0 -180q-21 -99 -85 -175.5t-171.5 -119.5t-259.5 -43h-441zM261 144h253q130 0 217 55.5t110 166.5q28 131 -34 198.5t-188 67.5h-255zM394 771
h220q120 0 192.5 54.5t92.5 151.5q22 105 -29 166t-171 61h-212z" />
    <glyph glyph-name="Gamma" unicode="&#x393;" horiz-adv-x="894" 
d="M345 1346h698l-30 -140h-525l-257 -1206h-173z" />
    <glyph glyph-name="Delta" unicode="&#x394;" horiz-adv-x="1070" 
d="M-66 0l30 135l114 8h782l99 -8l-29 -135h-996zM-36 135l654 1211h203l138 -1211l-150 -91l-120 1134l-604 -1134z" />
    <glyph glyph-name="Epsilon" unicode="&#x395;" 
d="M58 0l286 1346h780l-29 -143h-608l-94 -440h559l-30 -140h-560l-101 -480h607l-29 -143h-781z" />
    <glyph glyph-name="Zeta" unicode="&#x396;" horiz-adv-x="949" 
d="M-77 0l29 135l874 1067h-604l30 144h811l-27 -131l-877 -1072h684l-30 -143h-890z" />
    <glyph glyph-name="Eta" unicode="&#x397;" horiz-adv-x="1322" 
d="M58 0l286 1346h174l-122 -568h652l122 568h173l-287 -1346h-173l135 629h-653l-134 -629h-173z" />
    <glyph glyph-name="Theta" unicode="&#x398;" horiz-adv-x="1365" 
d="M466 611l23 139h468l-23 -139h-468zM618 -18q-188 0 -307 95.5t-162 261.5t-3 378q36 196 124 341.5t227.5 226.5t330.5 81q186 0 304.5 -95.5t162 -262t3.5 -379.5q-36 -193 -122.5 -339t-226 -227t-331.5 -81zM630 120q144 0 244.5 71t162.5 193t88 274q28 152 7.5 281
t-98 208t-221.5 79q-142 0 -242.5 -70.5t-162 -192t-89.5 -275.5q-27 -152 -7 -281t97.5 -208t220.5 -79z" />
    <glyph glyph-name="Iota" unicode="&#x399;" horiz-adv-x="497" 
d="M58 0l286 1346h174l-287 -1346h-173z" />
    <glyph glyph-name="Kappa" unicode="&#x39a;" horiz-adv-x="1053" 
d="M58 0l286 1346h174l-138 -646l624 646h204l-646 -659l400 -687h-188l-396 691l-147 -691h-173z" />
    <glyph glyph-name="Lambda" unicode="&#x39b;" horiz-adv-x="1090" 
d="M-96 0l726 1346h203l149 -1346h-179l-108 1160l-602 -1160h-189z" />
    <glyph glyph-name="Mu" unicode="&#x39c;" horiz-adv-x="1477" 
d="M58 0l286 1346h187l230 -735l532 735h205l-286 -1346h-173l234 1098l-486 -676h-117l-212 676l-233 -1098h-167z" />
    <glyph glyph-name="Nu" unicode="&#x39d;" horiz-adv-x="1318" 
d="M58 0l286 1346h175l429 -1107l231 1107h159l-285 -1346h-175l-427 1101l-233 -1101h-160z" />
    <glyph glyph-name="Xi" unicode="&#x39e;" 
d="M-18 0l30 143h858l-30 -143h-858zM244 623l30 140h598l-29 -140h-599zM275 1203l31 143h783l-29 -143h-785z" />
    <glyph glyph-name="Omicron" unicode="&#x39f;" horiz-adv-x="1365" 
d="M618 -18q-188 0 -307 95.5t-162 261.5t-3 378q36 196 124 341.5t227.5 226.5t330.5 81q186 0 304.5 -95.5t162 -262t3.5 -379.5q-36 -193 -122.5 -339t-226 -227t-331.5 -81zM630 120q144 0 244.5 71t162.5 193t88 274q28 152 7.5 281t-98 208t-221.5 79
q-142 0 -242.5 -70.5t-162 -192t-89.5 -275.5q-27 -152 -7 -281t97.5 -208t220.5 -79z" />
    <glyph glyph-name="Pi" unicode="&#x3a0;" horiz-adv-x="1303" 
d="M58 0l287 1346h979l-287 -1346h-173l256 1201h-634l-255 -1201h-173z" />
    <glyph glyph-name="Rho" unicode="&#x3a1;" horiz-adv-x="1107" 
d="M58 0l286 1346h389q135 0 226 -55t128.5 -157t7.5 -245q-25 -124 -92.5 -202t-164.5 -115t-214 -37h-279l-114 -535h-173zM374 678h256q108 0 187.5 54.5t106.5 176.5q32 150 -27 223t-174 73h-236z" />
    <glyph glyph-name="Sigma" unicode="&#x3a3;" horiz-adv-x="920" 
d="M-76 0l29 138l174 5h685l-29 -143h-859zM209 1206l29 138h779l-29 -143h-642zM386 1202l328 -458l-16 -75l-539 -526l-206 -5l592 587l-336 481z" />
    <glyph glyph-name="Tau" unicode="&#x3a4;" horiz-adv-x="894" 
d="M257 0l256 1202h-343l30 144h860l-30 -144h-344l-257 -1202h-172z" />
    <glyph glyph-name="Upsilon" unicode="&#x3a5;" horiz-adv-x="1009" 
d="M310 0l116 539l-246 807h179l181 -657l449 657h200l-589 -808l-115 -538h-175z" />
    <glyph glyph-name="Phi" unicode="&#x3a6;" horiz-adv-x="1416" 
d="M584 148q-109 0 -203 39t-158.5 114t-88 185.5t7.5 255.5q33 152 121 254t217.5 153t285.5 51h33l-30 -138h-34q-164 0 -277 -86.5t-150 -259.5q-29 -139 2.5 -235t108.5 -145.5t183 -49.5h23l-30 -138h-11zM507 -41l302 1427h172l-303 -1427h-171zM689 148l29 138h39
q163 0 274.5 90t149.5 268q29 136 -2.5 229t-108.5 141t-186 48h-23l29 138h12q109 0 202.5 -38.5t158.5 -113.5t89 -184.5t-7 -251.5q-34 -157 -124.5 -260t-218.5 -153.5t-276 -50.5h-37z" />
    <glyph glyph-name="Chi" unicode="&#x3a7;" horiz-adv-x="1034" 
d="M-91 0l553 697l-239 649h186l169 -533l403 533h197l-518 -653l259 -693h-189l-185 564l-436 -564h-200z" />
    <glyph glyph-name="Psi" unicode="&#x3a8;" horiz-adv-x="1440" 
d="M729 352l31 143h60q153 0 258 87.5t143 266.5l106 497h179l-113 -517q-35 -158 -116.5 -264t-201.5 -159.5t-269 -53.5h-77zM597 352q-107 0 -192.5 34.5t-141 101.5t-74.5 164t8 221l101 473h174l-104 -481q-39 -180 33 -275t226 -95h51l-31 -143h-50zM526 0l286 1346
h174l-286 -1346h-174z" />
    <glyph glyph-name="Omega" unicode="&#x3a9;" horiz-adv-x="1358" 
d="M-12 0l30 143h310q-79 64 -121.5 165.5t-49 225t20.5 254.5q38 182 122.5 311t216.5 197t315 68q141 0 241 -54t156.5 -148.5t70.5 -218t-15 -262.5q-43 -201 -136.5 -331t-239.5 -207h285l-29 -143h-487l32 153q165 72 259 198.5t138 333.5q23 106 19.5 202.5t-37 172.5
t-101 120t-171.5 44q-136 0 -230 -62.5t-152 -169t-87 -240.5q-45 -212 -6 -367.5t163 -229.5l-34 -155h-483z" />
    <glyph glyph-name="Iotadieresis" unicode="&#x3aa;" horiz-adv-x="497" 
d="M58 0l286 1346h174l-287 -1346h-173zM625 1503q-35 0 -58.5 24t-23.5 60t24 61.5t59 25.5q33 0 56.5 -25t23.5 -60q0 -36 -24 -61t-57 -25zM305 1503q-35 0 -59 24t-24 60t24 61.5t60 25.5q33 0 57 -25t24 -60q0 -36 -24 -61t-58 -25z" />
    <glyph glyph-name="Upsilondieresis" unicode="&#x3ab;" horiz-adv-x="1009" 
d="M310 0l116 539l-246 807h179l181 -657l449 657h200l-589 -808l-115 -538h-175zM873 1503q-35 0 -58.5 24t-23.5 60t24 61.5t59 25.5q33 0 56.5 -25t23.5 -60q0 -36 -24 -61t-57 -25zM553 1503q-35 0 -59 24t-24 60t24 61.5t60 25.5q33 0 57 -25t24 -60q0 -36 -24 -61
t-58 -25z" />
    <glyph glyph-name="alphatonos" unicode="&#x3ac;" horiz-adv-x="1047" 
d="M368 -19q-108 0 -179.5 68t-95.5 191.5t11 288.5q39 182 106.5 292t156.5 159.5t191 49.5q70 0 122 -22.5t88.5 -58.5t58.5 -75l30 142h159l-150 -702q-21 -97 -8.5 -145.5t89.5 -48.5h8l-28 -128h-33q-72 0 -115.5 20.5t-65 56.5t-28.5 82q-40 -50 -85 -88.5t-101.5 -60
t-130.5 -21.5zM412 108q94 0 164.5 57.5t125.5 135.5l91 431q-19 62 -73.5 114.5t-154.5 52.5q-105 0 -185.5 -96t-122.5 -295q-24 -120 -14.5 -210t52.5 -140t117 -50zM568 1112l115 301h174l-189 -301h-100z" />
    <glyph glyph-name="epsilontonos" unicode="&#x3ad;" horiz-adv-x="957" 
d="M402 -16q-126 0 -212.5 42t-124 117t-16.5 173q23 104 100 155.5t176 66.5q-85 27 -129.5 99.5t-24.5 163.5q11 53 49 105.5t115.5 87.5t209.5 35q113 0 188.5 -33.5t114 -93.5t40.5 -136h-152q-2 60 -52 99.5t-152 39.5q-108 0 -158.5 -41t-62.5 -97q-10 -52 13 -90.5
t71 -59.5t112 -21h97l-27 -124h-86q-132 0 -198.5 -43.5t-82.5 -120.5q-15 -69 9 -113t76 -66t124 -22q120 0 184 39.5t82 117.5h154q-32 -142 -132.5 -211t-304.5 -69zM529 1112l115 301h174l-189 -301h-100z" />
    <glyph glyph-name="etatonos" unicode="&#x3ae;" horiz-adv-x="1036" 
d="M44 0l216 1016h154l-24 -140q55 58 128 106t184 48q95 0 155 -45t80.5 -128.5t-5.5 -200.5l-216 -1014h-160l217 1015q23 112 -7 176t-122 64q-61 0 -112 -24.5t-92.5 -61t-76.5 -76.5l-158 -735h-161zM571 1112l115 301h174l-189 -301h-100z" />
    <glyph glyph-name="iotatonos" unicode="&#x3af;" horiz-adv-x="484" 
d="M304 0q-154 0 -196.5 88t-6.5 253l146 675h161l-148 -691q-22 -102 -5 -149t85 -47h43l-28 -129h-51zM281 1112l115 301h174l-189 -301h-100z" />
    <glyph glyph-name="upsilondieresistonos" unicode="&#x3b0;" horiz-adv-x="1047" 
d="M447 -15q-126 0 -209 54.5t-114 159t0 254.5l119 563h161l-125 -581q-31 -147 11 -228t169 -81q95 0 154 43.5t93.5 121.5t56.5 181q28 134 40.5 271.5t0.5 272.5h159q9 -137 -3 -285t-42 -288q-47 -223 -157 -340.5t-314 -117.5zM563 1106l116 306h157l-179 -306h-94z
M465 1138q-36 0 -60 23.5t-24 59.5q0 38 25 62.5t61 24.5q35 0 59 -24t24 -60q0 -37 -24.5 -61.5t-60.5 -24.5zM870 1138q-36 0 -59.5 23.5t-23.5 60.5t24 61.5t60 24.5t59.5 -24t23.5 -60q0 -38 -24.5 -62t-59.5 -24z" />
    <glyph glyph-name="alpha" unicode="&#x3b1;" horiz-adv-x="1047" 
d="M368 -19q-108 0 -179.5 68t-95.5 191.5t11 288.5q39 182 106.5 292t156.5 159.5t191 49.5q70 0 122 -22.5t88.5 -58.5t58.5 -75l30 142h159l-150 -702q-21 -97 -8.5 -145.5t89.5 -48.5h8l-28 -128h-33q-72 0 -115.5 20.5t-65 56.5t-28.5 82q-40 -50 -85 -88.5t-101.5 -60
t-130.5 -21.5zM412 108q94 0 164.5 57.5t125.5 135.5l91 431q-19 62 -73.5 114.5t-154.5 52.5q-105 0 -185.5 -96t-122.5 -295q-24 -120 -14.5 -210t52.5 -140t117 -50z" />
    <glyph glyph-name="beta" unicode="&#x3b2;" horiz-adv-x="1027" 
d="M-41 -358l265 1257q51 237 164 351t300 114q104 0 181 -47.5t111.5 -134t8.5 -206.5q-18 -84 -70.5 -145.5t-135 -98.5t-192.5 -47l-59 59q130 0 224 -51t135.5 -148t12.5 -237q-35 -159 -151.5 -239.5t-292.5 -80.5q-83 0 -153 16t-130 47l27 131q58 -35 123 -51.5
t134 -16.5q122 0 193.5 59t91.5 156q23 105 -0.5 175.5t-83.5 106.5t-150 36h-72l26 121h72q111 0 191.5 55.5t104.5 169.5q25 115 -21.5 177.5t-136.5 62.5q-109 0 -180 -77t-111 -266l-264 -1248h-162z" />
    <glyph glyph-name="gamma" unicode="&#x3b3;" horiz-adv-x="847" 
d="M263 16l-152 999h165l94 -827l418 827h170l-536 -998zM182 -358l83 387l160 1l-82 -388h-161z" />
    <glyph glyph-name="delta" unicode="&#x3b4;" horiz-adv-x="1033" 
d="M465 -16q-140 0 -234 65t-130.5 180.5t-4.5 266.5q30 140 104 237t170 156t193 83l-212 249l29 125h685l-30 -138h-485l157 -178q105 -116 159.5 -221t66 -209t-14.5 -219q-41 -195 -162.5 -296t-290.5 -101zM469 110q119 0 191.5 79t99.5 206q24 107 14 195t-44.5 161.5
t-86.5 134.5q-145 -38 -249 -140t-139 -268q-21 -101 -6 -185t69.5 -133.5t150.5 -49.5z" />
    <glyph glyph-name="epsilon" unicode="&#x3b5;" horiz-adv-x="957" 
d="M402 -16q-126 0 -212.5 42t-124 117t-16.5 173q23 104 100 155.5t176 66.5q-85 27 -129.5 99.5t-24.5 163.5q11 53 49 105.5t115.5 87.5t209.5 35q113 0 188.5 -33.5t114 -93.5t40.5 -136h-152q-2 60 -52 99.5t-152 39.5q-108 0 -158.5 -41t-62.5 -97q-10 -52 13 -90.5
t71 -59.5t112 -21h97l-27 -124h-86q-132 0 -198.5 -43.5t-82.5 -120.5q-15 -69 9 -113t76 -66t124 -22q120 0 184 39.5t82 117.5h154q-32 -142 -132.5 -211t-304.5 -69z" />
    <glyph glyph-name="zeta" unicode="&#x3b6;" horiz-adv-x="801" 
d="M443 -248q31 86 37 135.5t-19.5 73t-91.5 29.5l-70 6q-89 9 -153 47t-89 115.5t3 207.5q25 118 86 222.5t144.5 198t175.5 176.5l267 245h-414l29 138h600l-29 -138l-328 -311q-90 -87 -166.5 -174.5t-129 -176t-71.5 -179.5q-27 -129 12.5 -176.5t134.5 -57.5l71 -6
q96 -10 148 -48t55.5 -116.5t-47.5 -210.5h-155z" />
    <glyph glyph-name="eta" unicode="&#x3b7;" horiz-adv-x="1036" 
d="M44 0l216 1016h154l-24 -140q55 58 128 106t184 48q95 0 155 -45t80.5 -128.5t-5.5 -200.5l-216 -1014h-160l217 1015q23 112 -7 176t-122 64q-61 0 -112 -24.5t-92.5 -61t-76.5 -76.5l-158 -735h-161z" />
    <glyph glyph-name="theta" unicode="&#x3b8;" horiz-adv-x="1024" 
d="M430 -18q-112 0 -182.5 54.5t-103 153t-30.5 231t35 287.5q44 207 113 354t171 225.5t245 78.5q111 0 180.5 -54.5t101.5 -152t29.5 -229t-36.5 -284.5q-43 -208 -110.5 -356.5t-167.5 -228t-245 -79.5zM445 107q72 0 126 43t95 120.5t73 181t57 224.5q25 116 34 218.5
t-4 180.5t-52.5 122t-113.5 44q-71 0 -126 -43t-97 -120t-73 -179.5t-57 -221.5q-26 -120 -35 -224t4.5 -181.5t54.5 -121t114 -43.5zM280 622l27 123h520l-27 -123h-520z" />
    <glyph glyph-name="iota" unicode="&#x3b9;" horiz-adv-x="484" 
d="M304 0q-154 0 -196.5 88t-6.5 253l146 675h161l-148 -691q-22 -102 -5 -149t85 -47h43l-28 -129h-51z" />
    <glyph glyph-name="kappa" unicode="&#x3ba;" horiz-adv-x="920" 
d="M46 0l214 1016h162l-96 -456l488 456h188l-480 -444l300 -572h-180l-242 480l-108 -77l-85 -403h-161z" />
    <glyph glyph-name="lambda" unicode="&#x3bb;" horiz-adv-x="847" 
d="M-102 0l597 987h157l92 -987h-156l-60 794l-452 -794h-178zM495 987l-11 92q-7 69 -40.5 102t-90.5 33h-76l29 132h81q77 0 129.5 -25.5t83 -80t40.5 -141.5l12 -112h-157z" />
    <glyph glyph-name="mu" unicode="&#x3bc;" horiz-adv-x="1067" 
d="M-31 -361l291 1377h161l-135 -645q-15 -75 -10 -128.5t38.5 -82.5t99.5 -29q92 0 164 43t126 107l157 735h160l-214 -1016h-155l26 146q-68 -77 -139.5 -116.5t-154.5 -39.5q-72 0 -129 34t-82 99.5t-6 160.5h96l-138 -645h-156z" />
    <glyph glyph-name="nu" unicode="&#x3bd;" horiz-adv-x="847" 
d="M233 0l-120 1016h163l74 -859l440 859h170l-548 -1016h-179z" />
    <glyph glyph-name="xi" unicode="&#x3be;" horiz-adv-x="776" 
d="M432 -256q32 88 37 138.5t-22.5 74t-92.5 29.5l-68 6q-139 15 -201.5 112t-21.5 282q27 119 82 193.5t132 115.5t168 59q-79 31 -125.5 115t-21.5 198q12 60 43.5 110.5t88 88.5t142.5 59t207 21h157l-30 -140h-155q-145 0 -216.5 -43.5t-90.5 -126.5
q-18 -88 34.5 -151.5t169.5 -63.5h117l-30 -141h-126q-158 0 -259 -80t-133 -229q-28 -129 10.5 -181.5t133.5 -62.5l83 -8q68 -7 112.5 -30t63.5 -66t12 -111.5t-44 -167.5h-156z" />
    <glyph glyph-name="omicron" unicode="&#x3bf;" horiz-adv-x="1032" 
d="M456 -18q-135 0 -226.5 71.5t-124 203.5t5.5 310q47 222 169.5 344t312.5 122q132 0 219 -72t118.5 -203t-5.5 -310q-46 -222 -164.5 -344t-304.5 -122zM467 107q124 0 194.5 99.5t105.5 264.5q28 120 17.5 219.5t-60.5 158.5t-144 59q-86 0 -147 -45t-101 -126t-63 -189
q-27 -125 -15.5 -225t64 -158t149.5 -58z" />
    <glyph glyph-name="pi" unicode="&#x3c0;" horiz-adv-x="1075" 
d="M839 0q-108 0 -159.5 37t-59 107t13.5 169l121 575h-647l27 128h1009l-27 -128h-202l-120 -568q-20 -91 -9.5 -141t90.5 -50h51l-26 -129h-62zM84 0l201 955h162l-202 -955h-161z" />
    <glyph glyph-name="rho" unicode="&#x3c1;" horiz-adv-x="1051" 
d="M209 127l30 137q32 -61 96.5 -103.5t154.5 -42.5q77 0 133.5 37t96.5 117t65 207q44 205 -8 312.5t-173 107.5q-73 0 -130.5 -32t-99 -105.5t-68.5 -198.5l-194 -921h-162l203 943q33 151 93 249.5t152 147t219 48.5q130 0 216.5 -68t117 -199t-8.5 -319
q-33 -155 -95 -257t-150.5 -152t-200.5 -50q-99 0 -174 40.5t-113 101.5z" />
    <glyph glyph-name="sigmafinal" unicode="&#x3c2;" horiz-adv-x="792" 
d="M446 -256q32 89 36.5 139t-22.5 73.5t-92 29.5l-45 4q-105 9 -167.5 66.5t-79 165.5t17.5 267q42 192 105 311.5t154 175t215 55.5q97 0 162 -30t96.5 -88t27.5 -144h-158q1 65 -33 101t-110 36q-121 0 -188.5 -107t-113.5 -319q-37 -176 -1.5 -259t142.5 -95l67 -7
q67 -8 111 -31t63.5 -66t12 -111t-44.5 -167h-155z" />
    <glyph glyph-name="sigma" unicode="&#x3c3;" horiz-adv-x="1080" 
d="M465 -18q-136 0 -229.5 71.5t-129 198t-1.5 290.5q55 256 207.5 365t401.5 109h448l-28 -129h-439q-178 0 -284 -83t-149 -285q-23 -113 -9.5 -206t69 -148t155.5 -55q91 0 149 43t93 119.5t56 175.5q36 172 12.5 284t-79.5 169l-21 73q97 0 166 -70.5t94 -195t-9 -287.5
q-48 -221 -167.5 -330t-305.5 -109z" />
    <glyph glyph-name="tau" unicode="&#x3c4;" horiz-adv-x="766" 
d="M456 0q-109 0 -165 39.5t-67.5 114.5t10.5 179l117 555h-248l28 128h710l-27 -128h-302l-116 -557q-20 -100 -4.5 -151t85.5 -51h108l-28 -129h-101z" />
    <glyph glyph-name="upsilon" unicode="&#x3c5;" horiz-adv-x="1047" 
d="M447 -15q-126 0 -209 54.5t-114 159t0 254.5l119 563h161l-125 -581q-31 -147 11 -228t169 -81q95 0 154 43.5t93.5 121.5t56.5 181q28 134 40.5 271.5t0.5 272.5h159q9 -137 -3 -285t-42 -288q-47 -223 -157 -340.5t-314 -117.5z" />
    <glyph glyph-name="phi" unicode="&#x3c6;" horiz-adv-x="1262" 
d="M539 -19q-170 0 -279 71t-148.5 200.5t-3.5 301.5q51 235 203.5 358t407.5 123q174 0 284 -73t149.5 -204t3.5 -304q-50 -230 -203.5 -351.5t-413.5 -121.5zM557 104q138 0 225.5 45.5t137.5 129t74 195.5q20 91 15.5 170.5t-38 139t-99.5 93.5t-169 34q-134 0 -222 -47
t-139 -131.5t-75 -196.5q-19 -91 -14 -169.5t38.5 -137.5t99 -92t166.5 -33zM375 -358l361 1704h151l-360 -1704h-152z" />
    <glyph glyph-name="chi" unicode="&#x3c7;" horiz-adv-x="862" 
d="M-180 -358l545 782l47 30l364 562h174l-459 -665l-53 -53l-442 -656h-176zM522 -358l-242 1096q-15 66 -35.5 100.5t-48.5 47t-64 12.5h-34l29 131h61q74 0 116.5 -24t68 -76.5t45.5 -138.5l265 -1148h-161z" />
    <glyph glyph-name="psi" unicode="&#x3c8;" horiz-adv-x="1315" 
d="M529 -10q-177 -1 -276.5 52.5t-128.5 161t4 266.5l115 546h161l-118 -561q-22 -106 -11.5 -181t73.5 -114.5t198 -39.5h75q125 0 200.5 35t115 96t55.5 138l135 627h162l-137 -643q-25 -118 -90.5 -204t-177.5 -132.5t-279 -46.5h-76zM400 -358l360 1704h152l-360 -1704
h-152z" />
    <glyph glyph-name="omega" unicode="&#x3c9;" horiz-adv-x="1480" 
d="M359 -17q-109 0 -175.5 60.5t-86 172t11.5 264.5q20 93 44.5 179.5t57.5 173.5t77 183h161q-43 -94 -76.5 -182t-60 -178.5t-47.5 -192.5q-20 -93 -17.5 -170t37.5 -122.5t111 -45.5q68 0 117.5 43.5t82 115t49.5 152.5l69 333h161l-66 -319q-17 -86 -7 -160.5
t47.5 -119.5t101.5 -45q78 0 123.5 44t72 120t46.5 171q21 96 30.5 188t10.5 183.5t-5 184.5h160q8 -137 0 -282.5t-40 -301.5q-47 -222 -143.5 -335.5t-258.5 -113.5q-99 0 -169.5 56t-89.5 169q-64 -116 -144.5 -170.5t-184.5 -54.5z" />
    <glyph glyph-name="iotadieresis" unicode="&#x3ca;" horiz-adv-x="484" 
d="M304 0q-154 0 -196.5 88t-6.5 253l146 675h161l-148 -691q-22 -102 -5 -149t85 -47h43l-28 -129h-51zM532 1190q-33 0 -57 25t-24 60q0 36 24.5 61t58.5 25q33 0 57 -24.5t24 -59.5q0 -36 -24.5 -61.5t-58.5 -25.5zM213 1190q-35 0 -59 25t-24 60q0 36 24.5 61t59.5 25
q32 0 56 -24.5t24 -59.5q0 -36 -24.5 -61.5t-56.5 -25.5z" />
    <glyph glyph-name="upsilondieresis" unicode="&#x3cb;" horiz-adv-x="1047" 
d="M447 -15q-126 0 -209 54.5t-114 159t0 254.5l119 563h161l-125 -581q-31 -147 11 -228t169 -81q95 0 154 43.5t93.5 121.5t56.5 181q28 134 40.5 271.5t0.5 272.5h159q9 -137 -3 -285t-42 -288q-47 -223 -157 -340.5t-314 -117.5zM805 1187q-33 0 -57 25t-24 60
q0 36 24.5 61t58.5 25q33 0 57 -24.5t24 -59.5q0 -36 -24.5 -61.5t-58.5 -25.5zM486 1187q-35 0 -59 25t-24 60q0 36 24.5 61t59.5 25q32 0 56 -24.5t24 -59.5q0 -36 -24.5 -61.5t-56.5 -25.5z" />
    <glyph glyph-name="omicrontonos" unicode="&#x3cc;" horiz-adv-x="1032" 
d="M456 -18q-135 0 -226.5 71.5t-124 203.5t5.5 310q47 222 169.5 344t312.5 122q132 0 219 -72t118.5 -203t-5.5 -310q-46 -222 -164.5 -344t-304.5 -122zM467 107q124 0 194.5 99.5t105.5 264.5q28 120 17.5 219.5t-60.5 158.5t-144 59q-86 0 -147 -45t-101 -126t-63 -189
q-27 -125 -15.5 -225t64 -158t149.5 -58zM576 1112l115 301h174l-189 -301h-100z" />
    <glyph glyph-name="upsilontonos" unicode="&#x3cd;" horiz-adv-x="1047" 
d="M447 -15q-126 0 -209 54.5t-114 159t0 254.5l119 563h161l-125 -581q-31 -147 11 -228t169 -81q95 0 154 43.5t93.5 121.5t56.5 181q28 134 40.5 271.5t0.5 272.5h159q9 -137 -3 -285t-42 -288q-47 -223 -157 -340.5t-314 -117.5zM556 1112l115 301h174l-189 -301h-100z
" />
    <glyph glyph-name="omegatonos" unicode="&#x3ce;" horiz-adv-x="1480" 
d="M359 -17q-109 0 -175.5 60.5t-86 172t11.5 264.5q20 93 44.5 179.5t57.5 173.5t77 183h161q-43 -94 -76.5 -182t-60 -178.5t-47.5 -192.5q-20 -93 -17.5 -170t37.5 -122.5t111 -45.5q68 0 117.5 43.5t82 115t49.5 152.5l69 333h161l-66 -319q-17 -86 -7 -160.5
t47.5 -119.5t101.5 -45q78 0 123.5 44t72 120t46.5 171q21 96 30.5 188t10.5 183.5t-5 184.5h160q8 -137 0 -282.5t-40 -301.5q-47 -222 -143.5 -335.5t-258.5 -113.5q-99 0 -169.5 56t-89.5 169q-64 -116 -144.5 -170.5t-184.5 -54.5zM803 1112l115 301h174l-189 -301h-100
z" />
    <glyph glyph-name="KaiSymbol" unicode="&#x3cf;" horiz-adv-x="1053" 
d="M326 -329l30 144h18q100 0 170.5 21t125 62.5t106.5 101.5h186q-83 -121 -169 -193t-193.5 -104t-256.5 -32h-17zM58 0l286 1346h174l-138 -646l623 646h205l-645 -659l399 -687h-186l-398 691l-147 -691h-173z" />
    <glyph glyph-name="betaSymbol" unicode="&#x3d0;" horiz-adv-x="1027" 
d="M-41 -358l265 1257q51 237 164 351t300 114q104 0 181 -47.5t111.5 -134t8.5 -206.5q-18 -84 -70.5 -145.5t-135 -98.5t-192.5 -47l-59 59q130 0 224 -51t135.5 -148t12.5 -237q-35 -159 -151.5 -239.5t-292.5 -80.5q-83 0 -153 16t-130 47l27 131q58 -35 123 -51.5
t134 -16.5q122 0 193.5 59t91.5 156q23 105 -0.5 175.5t-83.5 106.5t-150 36h-72l26 121h72q111 0 191.5 55.5t104.5 169.5q25 115 -21.5 177.5t-136.5 62.5q-109 0 -180 -77t-111 -266l-264 -1248h-162z" />
    <glyph glyph-name="thetaSymbol" unicode="&#x3d1;" horiz-adv-x="1024" 
d="M430 -18q-112 0 -182.5 54.5t-103 153t-30.5 231t35 287.5q44 207 113 354t171 225.5t245 78.5q111 0 180.5 -54.5t101.5 -152t29.5 -229t-36.5 -284.5q-43 -208 -110.5 -356.5t-167.5 -228t-245 -79.5zM445 107q72 0 126 43t95 120.5t73 181t57 224.5q25 116 34 218.5
t-4 180.5t-52.5 122t-113.5 44q-71 0 -126 -43t-97 -120t-73 -179.5t-57 -221.5q-26 -120 -35 -224t4.5 -181.5t54.5 -121t114 -43.5zM280 622l27 123h520l-27 -123h-520z" />
    <glyph glyph-name="UpsilonhookSymbol" unicode="&#x3d2;" horiz-adv-x="1023" 
d="M309 0l115 539l-244 807h178l180 -663l224 365q77 126 134.5 190t116.5 86t139 22h51l-31 -147h-19q-29 0 -56 -5.5t-56 -26t-65 -63.5t-85 -120l-292 -449l-114 -535h-176z" />
    <glyph glyph-name="UpsilonacutehookSymbol" unicode="&#x3d3;" horiz-adv-x="1023" 
d="M309 0l115 539l-244 807h178l180 -663l224 365q77 126 134.5 190t116.5 86t139 22h51l-31 -147h-19q-29 0 -56 -5.5t-56 -26t-65 -63.5t-85 -120l-292 -449l-114 -535h-176zM-120 1044l115 302h174l-189 -302h-100z" />
    <glyph glyph-name="UpsilondieresishookSymbol" unicode="&#x3d4;" horiz-adv-x="1023" 
d="M309 0l115 539l-244 807h178l180 -663l224 365q77 126 134.5 190t116.5 86t139 22h51l-31 -147h-19q-29 0 -56 -5.5t-56 -26t-65 -63.5t-85 -120l-292 -449l-114 -535h-176zM883 1503q-35 0 -58.5 24t-23.5 60t24 61.5t59 25.5q33 0 56.5 -25t23.5 -60q0 -36 -24 -61
t-57 -25zM563 1503q-35 0 -59 24t-24 60t24 61.5t60 25.5q33 0 57 -25t24 -60q0 -36 -24 -61t-58 -25z" />
    <glyph glyph-name="phiSymbol" unicode="&#x3d5;" horiz-adv-x="1262" 
d="M539 -19q-170 0 -279 71t-148.5 200.5t-3.5 301.5q51 235 203.5 358t407.5 123q174 0 284 -73t149.5 -204t3.5 -304q-50 -230 -203.5 -351.5t-413.5 -121.5zM557 104q138 0 225.5 45.5t137.5 129t74 195.5q20 91 15.5 170.5t-38 139t-99.5 93.5t-169 34q-134 0 -222 -47
t-139 -131.5t-75 -196.5q-19 -91 -14 -169.5t38.5 -137.5t99 -92t166.5 -33zM375 -358l361 1704h151l-360 -1704h-152z" />
    <glyph glyph-name="piSymbol" unicode="&#x3d6;" horiz-adv-x="1075" 
d="M839 0q-108 0 -159.5 37t-59 107t13.5 169l121 575h-647l27 128h1009l-27 -128h-202l-120 -568q-20 -91 -9.5 -141t90.5 -50h51l-26 -129h-62zM84 0l201 955h162l-202 -955h-161z" />
    <glyph glyph-name="kaiSymbol" unicode="&#x3d7;" horiz-adv-x="1087" 
d="M834 -12q-87 5 -133.5 44t-58 103.5t4.5 145.5q11 48 30 108.5t43 124t48.5 119t45.5 93.5l-668 -726h-164q79 118 159 295t126 390q25 109 -4 160.5t-91 51.5h-27l27 128h37q90 0 150 -27.5t80.5 -95.5t-5.5 -191q-21 -96 -54.5 -197.5t-91.5 -220.5l662 722h167
q-44 -78 -90.5 -167t-88.5 -182t-74 -183.5t-50 -170.5q-22 -104 8.5 -151.5t114.5 -47.5h22l-12 -52zM358 -370l32 154q139 3 219.5 31t121.5 83.5t58 139.5l158 23q-23 -109 -61 -189t-103 -132.5t-168.5 -80t-256.5 -29.5z" />
    <glyph glyph-name="KoppaArchaic" unicode="&#x3d8;" horiz-adv-x="1365" 
d="M461 -358l85 404h173l-85 -404h-173zM618 -18q-188 0 -307 95.5t-162 261.5t-3 378q36 196 124 341.5t227.5 226.5t330.5 81q186 0 304.5 -95.5t162 -262t3.5 -379.5q-36 -193 -122.5 -339t-226 -227t-331.5 -81zM630 120q144 0 244.5 71t162.5 193t88 274
q28 152 7.5 281t-98 208t-221.5 79q-142 0 -242.5 -70.5t-162 -192t-89.5 -275.5q-27 -152 -7 -281t97.5 -208t220.5 -79z" />
    <glyph glyph-name="koppaArchaic" unicode="&#x3d9;" horiz-adv-x="1032" 
d="M277 -358l86 402h162l-86 -402h-162zM456 -18q-135 0 -226.5 71.5t-124 203.5t5.5 310q47 222 169.5 344t312.5 122q132 0 219 -72t118.5 -203t-5.5 -310q-46 -222 -164.5 -344t-304.5 -122zM467 107q124 0 194.5 99.5t105.5 264.5q28 120 17.5 219.5t-60.5 158.5
t-144 59q-86 0 -147 -45t-101 -126t-63 -189q-27 -125 -15.5 -225t64 -158t149.5 -58z" />
    <glyph glyph-name="Stigma" unicode="&#x3da;" horiz-adv-x="1121" 
d="M687 -254q29 93 31 140.5t-37.5 68.5t-134.5 33q-174 20 -281.5 97.5t-140.5 227t18 385.5q40 190 126.5 340t220 238t315.5 88q115 0 211 -41.5t150.5 -126.5t44.5 -215h-174q2 83 -32.5 137t-92.5 80t-129 26q-131 0 -223.5 -73t-151.5 -198t-92 -280
q-40 -191 -21 -303.5t102 -167t234 -72.5q129 -16 192.5 -56t70 -118.5t-37.5 -209.5h-168z" />
    <glyph glyph-name="stigma" unicode="&#x3db;" horiz-adv-x="838" 
d="M453 -256q32 87 37 138t-22.5 74.5t-92.5 29.5l-51 4q-101 9 -164.5 63.5t-82.5 159t14 263.5q31 141 73.5 240t101.5 161.5t140 95t186 40.5q68 6 116 21.5t77 43t40 68.5h159q-31 -132 -126 -192t-254 -71q-104 -8 -171.5 -56t-109.5 -137t-71 -222q-37 -176 4 -254
t135 -87l74 -8q93 -9 140.5 -49t49 -118.5t-45.5 -207.5h-156z" />
    <glyph glyph-name="Digamma" unicode="&#x3dc;" horiz-adv-x="1013" 
d="M58 0l286 1346h763l-30 -143h-590l-94 -440h537l-83 -389h-160l53 249h-378l-131 -623h-173z" />
    <glyph glyph-name="digamma" unicode="&#x3dd;" horiz-adv-x="850" 
d="M-31 -358l291 1374h162l-291 -1374h-162zM255 459l27 128h508l-26 -128h-509zM346 888l27 128h546l-27 -128h-546z" />
    <glyph glyph-name="Koppa" unicode="&#x3de;" horiz-adv-x="974" 
d="M712 -20q-130 0 -176 58.5t-26 150.5q11 54 39 115t68 136l79 161h-578l164 315q29 57 55 113.5t35 98.5q11 53 -10.5 74t-57.5 21l31 143q89 0 138 -25.5t64 -72t2 -110.5q-12 -56 -38.5 -115.5t-66.5 -136.5l-79 -160h574l-163 -317q-31 -59 -56 -113.5t-35 -99.5
q-11 -52 11.5 -72.5t57.5 -20.5z" />
    <glyph glyph-name="koppa" unicode="&#x3df;" horiz-adv-x="922" 
d="M581 -225q-87 0 -135.5 27t-63 75.5t-1.5 112.5q11 52 39.5 115.5t76.5 152.5l136 270h-531l180 375q29 59 57 122t37 103q11 53 -13 74t-62 21l31 143q92 0 140.5 -26.5t62 -74t-0.5 -111.5q-11 -53 -41.5 -120t-66.5 -142l-106 -229h539l-218 -423q-23 -43 -43.5 -83.5
t-36 -76.5t-22.5 -67q-12 -53 13 -74t62 -21z" />
    <glyph glyph-name="Sampi" unicode="&#x3e0;" horiz-adv-x="1117" 
d="M770 0q41 194 33.5 374t-57 332.5t-134.5 266.5t-199 177.5t-250 63.5l33 152q162 0 298 -71t238 -199.5t162 -300t71 -374t-36 -421.5h-159zM357 239l-82 94l506 461l78 -100zM197 463l-79 94l522 478l78 -98z" />
    <glyph glyph-name="sampi" unicode="&#x3e1;" horiz-adv-x="1148" 
d="M745 -205q98 240 126.5 438.5t2.5 355.5t-94 274t-164.5 194.5t-208 115.5t-225.5 38l33 155q136 0 267 -44t243 -131.5t191.5 -218.5t112 -306t5.5 -392.5t-130 -478.5h-159zM459 183l-83 96l506 461l77 -101zM298 407l-80 96l523 476l76 -97z" />
    <glyph glyph-name="Shei-coptic" unicode="&#x3e2;" horiz-adv-x="1686" 
d="M17 -362l30 142h1026q64 0 104 31t58 113l48 224q-52 -57 -134 -106.5t-202 -49.5q-101 0 -159 47t-72.5 138t13.5 222l201 947h171l-202 -955q-17 -83 -14 -141t32.5 -87.5t88.5 -29.5q96 0 174 47.5t130 104.5l224 1061h172l-300 -1420q-20 -94 -59.5 -158t-106 -97
t-167.5 -33h-1056zM343 -6q-100 0 -157.5 46.5t-72.5 136.5t13 221l201 948h171l-202 -955q-17 -80 -14.5 -137.5t31.5 -89t90 -31.5q96 0 174 44.5t141 109.5l5 -121q-49 -46 -106 -85t-124.5 -63t-149.5 -24z" />
    <glyph glyph-name="shei-coptic" unicode="&#x3e3;" horiz-adv-x="1601" 
d="M904 -12q-92 0 -150.5 45t-78 128.5t4.5 198.5l138 656h162l-140 -657q-23 -109 5.5 -173t117.5 -64q88 0 155.5 50.5t118.5 108.5l157 735h161l-229 -1088l-160 -8l44 226q-53 -57 -124 -107.5t-182 -50.5zM7 -358l27 130h977q66 0 101.5 34.5t53.5 113.5l160 8
q-30 -142 -99.5 -214t-211.5 -72h-1008zM329 -12q-92 0 -151 45.5t-78.5 129t4.5 197.5l139 656h161l-140 -657q-23 -109 6 -173t117 -64q86 0 158 53.5t130 121.5v-124q-70 -73 -152 -129t-194 -56z" />
    <glyph glyph-name="Fei-coptic" unicode="&#x3e4;" horiz-adv-x="1120" 
d="M682 0l100 472q-72 -27 -148 -43.5t-164 -16.5q-132 0 -208 61t-96.5 172t11.5 262q31 142 91.5 241.5t158 152t236.5 52.5h52l-30 -147h-42q-84 0 -142.5 -39.5t-95 -111.5t-57.5 -171q-19 -95 -12 -168.5t50 -114.5t130 -41q62 0 143 14t154 45l153 717h172l-283 -1336
h-173z" />
    <glyph glyph-name="fei-coptic" unicode="&#x3e5;" horiz-adv-x="1049" 
d="M627 0l107 498q-54 -51 -130 -94t-177 -43q-103 0 -165.5 45.5t-81 135t9.5 221.5l44 208q25 120 74 203t132 126.5t209 43.5h44l-29 -142h-45q-97 0 -149 -63.5t-78 -179.5l-44 -204q-26 -116 0 -184t129 -68q86 0 159.5 39t125.5 88l150 716h163l-286 -1346h-162z" />
    <glyph glyph-name="Khei-coptic" unicode="&#x3e6;" horiz-adv-x="1176" 
d="M77 -362l31 148h412q94 0 152 48t79 144l87 410q27 130 -14 183.5t-145 53.5q-71 0 -160.5 -14t-167.5 -42l-120 -569h-172l285 1346h172l-135 -634q59 17 114.5 31t114 22.5t124.5 8.5q74 0 134.5 -21t100.5 -67t52 -120t-11 -181l-87 -417q-23 -113 -78 -186.5
t-136 -108.5t-185 -35h-447z" />
    <glyph glyph-name="khei-coptic" unicode="&#x3e7;" horiz-adv-x="1048" 
d="M51 -370l31 142h336q73 0 117 30.5t69 83t40 119.5l61 284q26 119 1.5 187.5t-128.5 68.5q-86 0 -159 -39t-125 -88l-88 -418h-162l214 1008h162l-98 -458q50 46 126 91.5t180 45.5q103 0 165.5 -47.5t81.5 -136t-8 -212.5l-66 -302q-37 -167 -129 -263t-276 -96h-345z
" />
    <glyph glyph-name="Hori-coptic" unicode="&#x3e8;" horiz-adv-x="1087" 
d="M437 -18q-140 0 -235.5 51t-135.5 142.5t-15 212.5q20 92 73 160.5t151 122.5t254 101q121 37 193 69.5t108 74.5t49 104q20 91 -28.5 148t-149.5 57q-102 0 -177.5 -50t-95.5 -150h-174q38 180 162.5 259.5t298.5 79.5q121 0 203.5 -47.5t117.5 -132.5t11 -198
q-19 -94 -70.5 -153t-140 -100.5t-222.5 -82.5q-132 -40 -213.5 -80t-124 -88.5t-56.5 -114.5q-26 -122 39.5 -183t185.5 -61q100 0 178 34t133 117.5t85 231.5h175q-40 -187 -117.5 -302.5t-193 -168.5t-268.5 -53z" />
    <glyph glyph-name="hori-coptic" unicode="&#x3e9;" horiz-adv-x="966" 
d="M387 -13q-184 0 -278 87t-62 243q24 110 113.5 173t273.5 110q143 37 206 78.5t73 94.5q16 72 -30 103.5t-117 31.5q-88 0 -148 -39.5t-78 -138.5h-155q22 110 77.5 175.5t136.5 95t180 29.5q70 0 128.5 -18t99 -53t56.5 -87.5t1 -122.5q-15 -72 -57 -118t-115.5 -78
t-186.5 -63q-104 -29 -167.5 -55.5t-95.5 -60t-43 -83.5q-19 -93 40.5 -138.5t164.5 -45.5q118 0 189 61t101 203h156q-29 -137 -89.5 -221.5t-153.5 -123.5t-220 -39z" />
    <glyph glyph-name="Gangia-coptic" unicode="&#x3ea;" horiz-adv-x="1070" 
d="M803 44l-123 898q-14 105 -43 165.5t-87.5 86.5t-159.5 26h-74l32 146h80q101 0 171 -24.5t116 -73.5t73.5 -124t42.5 -177l126 -840zM-66 0l28 127l116 16h782l97 -16l-27 -127h-996zM93 44l-131 83l482 842q79 139 161 226.5t181.5 129t230.5 41.5h75l-31 -146h-68
q-96 0 -163.5 -25.5t-122 -85t-113.5 -163.5z" />
    <glyph glyph-name="gangia-coptic" unicode="&#x3eb;" horiz-adv-x="971" 
d="M701 41l-131 587q-23 106 -57.5 162t-92 77.5t-150.5 21.5h-68l26 127h76q99 0 166 -21.5t111 -64.5t72 -107.5t48 -152.5l132 -543zM-41 0l27 127h109h640h98l-27 -127h-847zM99 44l-113 83l367 549q77 115 149.5 190.5t164.5 112.5t226 37h69l-26 -127h-62
q-96 0 -159.5 -21.5t-117 -78t-121.5 -161.5z" />
    <glyph glyph-name="Shima-coptic" unicode="&#x3ec;" horiz-adv-x="1275" 
d="M609 -16q-188 0 -307.5 92.5t-160 263t9.5 403.5q47 219 142.5 351.5t252 192t383.5 59.5h361l-31 -143h-360q-176 0 -291 -47.5t-184.5 -158t-109.5 -298.5q-38 -182 -13.5 -311t106.5 -197t215 -68q157 0 247 80t120 222q36 172 -35 260t-216 88q-85 0 -172.5 -26
t-173 -76.5t-166.5 -126.5l29 153q108 93 232 153.5t283 60.5q141 0 241.5 -57.5t142.5 -172t5 -285.5q-41 -192 -176.5 -302t-373.5 -110z" />
    <glyph glyph-name="shima-coptic" unicode="&#x3ed;" horiz-adv-x="1022" 
d="M442 -16q-138 0 -227 62t-120 179.5t4 285.5q37 175 122.5 280.5t227 153t344.5 47.5h197l-28 -130h-196q-157 0 -261 -36.5t-164.5 -118t-89.5 -220.5q-43 -198 12.5 -289t189.5 -91q130 0 195.5 58t90.5 175q28 131 -27 195t-176 64h-126l27 120h126q128 0 209.5 -47
t112 -134.5t4.5 -210.5q-37 -174 -145 -258.5t-302 -84.5z" />
    <glyph glyph-name="Dei-coptic" unicode="&#x3ee;" horiz-adv-x="1002" 
d="M312 0l287 1346h173l-287 -1346h-173zM38 581q38 214 139.5 310t295.5 96h97l-31 -146h-68q-77 0 -129.5 -26t-84.5 -83t-47 -151h-172zM835 581q15 91 7.5 148.5t-48 84.5t-124.5 27h-55l32 146h44q195 0 273.5 -97.5t42.5 -308.5h-172z" />
    <glyph glyph-name="dei-coptic" unicode="&#x3ef;" horiz-adv-x="802" 
d="M147 -358l345 1618h162l-345 -1618h-162zM78 694l14 65q28 135 118.5 196t233.5 61l-28 -129q-91 0 -135.5 -39.5t-62.5 -120.5l-7 -33h-133zM555 887l27 129h290l-27 -129h-290z" />
    <glyph glyph-name="kappaSymbol" unicode="&#x3f0;" horiz-adv-x="1079" 
d="M882 -11q-116 0 -174 40t-71.5 106t2.5 146q14 60 43.5 144.5t65 166t66.5 134.5l-675 -726h-165q89 129 168.5 305t121.5 377q27 111 -1.5 163t-90.5 52h-27l28 127h37q89 0 148.5 -27.5t80.5 -96t-5 -189.5q-20 -97 -56 -198.5t-98 -219.5l671 722h166
q-47 -80 -95 -169.5t-91 -182.5t-75.5 -182.5t-50.5 -169.5q-22 -105 9.5 -150.5t114.5 -45.5h22l-26 -126h-43z" />
    <glyph glyph-name="rhoSymbol" unicode="&#x3f1;" horiz-adv-x="1043" 
d="M494 -15q-97 0 -171.5 41.5t-105.5 112.5l32 148q22 -73 83 -121t160 -48q112 0 183.5 86t112.5 287q29 133 17 222.5t-60.5 135t-132.5 45.5q-115 0 -190 -80.5t-116 -273.5l-114 -537l-157 19l112 526q33 158 97.5 264t160.5 159.5t224 53.5q127 0 210.5 -70
t112.5 -195.5t-6 -292.5q-36 -174 -98.5 -280t-151 -154t-202.5 -48zM275 -358q-163 0 -220 101t-20 279l157 -19q-26 -115 10.5 -173t119.5 -58h418l-26 -130h-439z" />
    <glyph glyph-name="sigmaLunateSymbol" unicode="&#x3f2;" horiz-adv-x="989" 
d="M447 -18q-121 0 -209 64t-125.5 186.5t-8.5 296.5q43 260 166.5 382.5t309.5 122.5q106 0 180 -36.5t114 -103.5t41 -158h-159q-3 51 -23.5 90t-61 61t-103.5 22q-129 0 -203.5 -105.5t-104.5 -284.5q-33 -200 21 -306t181 -106q92 0 150 47t77 131h158
q-35 -156 -137.5 -229.5t-262.5 -73.5z" />
    <glyph glyph-name="yot" unicode="&#x3f3;" horiz-adv-x="441" 
d="M-203 -360l27 130h48q65 0 101.5 35.5t53.5 116.5l233 1094h161l-237 -1110q-26 -124 -94 -195t-213 -71h-80zM382 1165q-45 0 -71.5 26.5t-26.5 65.5t27 66.5t72 27.5t71 -27.5t26 -65.5q0 -39 -27 -66t-71 -27z" />
    <glyph glyph-name="ThetaSymbol" unicode="&#x3f4;" horiz-adv-x="1365" 
d="M466 611l23 139h468l-23 -139h-468zM618 -18q-188 0 -307 95.5t-162 261.5t-3 378q36 196 124 341.5t227.5 226.5t330.5 81q186 0 304.5 -95.5t162 -262t3.5 -379.5q-36 -193 -122.5 -339t-226 -227t-331.5 -81zM630 120q144 0 244.5 71t162.5 193t88 274q28 152 7.5 281
t-98 208t-221.5 79q-142 0 -242.5 -70.5t-162 -192t-89.5 -275.5q-27 -152 -7 -281t97.5 -208t220.5 -79z" />
    <glyph glyph-name="epsilonLunateSymbol" unicode="&#x3f5;" horiz-adv-x="718" 
d="M586 449h-399l28 133h399zM455 -19q-140 0 -231 67.5t-124 191t3 290.5q35 166 114.5 275.5t193 163.5t249.5 54l93 2l-28 -130h-70q-150 0 -254 -107.5t-142 -285.5q-38 -179 19 -285.5t207 -106.5h91l-28 -129h-93z" />
    <glyph glyph-name="epsilonLunateReversedSymbol" unicode="&#x3f6;" horiz-adv-x="988" 
d="M359 427l27 132h402l-28 -132h-401zM408 -18q-107 0 -184 41.5t-116 118.5t-32 184h158q-3 -64 16.5 -113.5t62.5 -77.5t109 -28q130 0 202 95.5t102 273.5q33 207 -17 319.5t-171 112.5q-98 0 -160 -53.5t-85 -151.5h-157q37 166 145 247.5t270 81.5q117 0 202.5 -64
t122.5 -190t7 -310q-42 -255 -166.5 -370.5t-308.5 -115.5z" />
    <glyph glyph-name="Sho" unicode="&#x3f7;" horiz-adv-x="1106" 
d="M133 268l30 142h412q109 0 192 60.5t106 176.5q28 142 -31 215t-180 73h-388l31 142h370q141 0 231 -59t125 -161t8 -231q-38 -183 -165.5 -270.5t-314.5 -87.5h-426zM58 0l286 1346h174l-287 -1346h-173z" />
    <glyph glyph-name="sho" unicode="&#x3f8;" horiz-adv-x="1053" 
d="M-33 -361l366 1707h156l-105 -501q53 70 126 119t175 49q110 0 181 -68t94 -194.5t-14 -300.5q-53 -244 -166 -356t-266 -112q-95 0 -167.5 44t-112.5 116l-106 -503h-161zM501 111q108 0 176.5 88t108.5 269q28 125 20 218.5t-49 145.5t-115 52q-64 0 -117 -26.5
t-95.5 -68t-75.5 -88.5l-88 -421q32 -78 93 -123.5t142 -45.5z" />
    <glyph glyph-name="SigmaLunateSymbol" unicode="&#x3f9;" horiz-adv-x="1303" 
d="M626 -18q-187 0 -306.5 93.5t-164.5 259.5t-9 383q33 187 120.5 333t226 229.5t322.5 83.5q133 0 237.5 -48.5t163.5 -145t56 -239.5h-174q2 96 -36 160.5t-105.5 97t-155.5 32.5q-139 0 -237.5 -72t-159 -192t-85.5 -267q-26 -163 -2.5 -291t102.5 -201t218 -73
q145 0 243.5 76.5t141.5 240.5h175q-57 -238 -203.5 -349t-367.5 -111z" />
    <glyph glyph-name="San" unicode="&#x3fa;" horiz-adv-x="1477" 
d="M58 0l286 1346h187l230 -735l532 735h205l-286 -1346h-173l234 1098l-486 -676h-117l-212 676l-233 -1098h-167z" />
    <glyph glyph-name="san" unicode="&#x3fb;" horiz-adv-x="1253" 
d="M615 472l416 544h178l-216 -1016h-156l169 791l-367 -482h-108l-163 482l-244 -1149h-155l291 1374h171z" />
    <glyph glyph-name="rhoStrokeSymbol" unicode="&#x3fc;" horiz-adv-x="1051" 
d="M-148 -213l23 104h481l-23 -104h-481zM209 127l30 137q32 -61 96.5 -103.5t154.5 -42.5q77 0 133.5 37t96.5 117t65 207q44 205 -8 312.5t-173 107.5q-73 0 -130.5 -32t-99 -105.5t-68.5 -198.5l-194 -921h-162l203 943q33 151 93 249.5t152 147t219 48.5
q130 0 216.5 -68t117 -199t-8.5 -319q-33 -155 -95 -257t-150.5 -152t-200.5 -50q-99 0 -174 40.5t-113 101.5z" />
    <glyph glyph-name="SigmaLunateReversedSymbol" unicode="&#x3fd;" horiz-adv-x="1303" 
d="M566 -18q-132 0 -240 49.5t-169.5 147.5t-54.5 243h174q-2 -99 37.5 -165.5t108 -100t153.5 -33.5q144 0 241.5 71t155 192t82.5 272q27 162 4.5 289.5t-100 201t-216.5 73.5q-143 0 -246 -78.5t-146 -247.5h-175q38 161 119 264.5t199 153.5t263 50q184 0 301.5 -92.5
t162 -257.5t7.5 -383q-32 -192 -116.5 -338.5t-221 -228.5t-323.5 -82z" />
    <glyph glyph-name="SigmaLunateDottedSymbol" unicode="&#x3fe;" horiz-adv-x="1303" 
d="M626 -18q-187 0 -306.5 93.5t-164.5 259.5t-9 383q33 187 120.5 333t226 229.5t322.5 83.5q133 0 237.5 -48.5t163.5 -145t56 -239.5h-174q2 96 -36 160.5t-105.5 97t-155.5 32.5q-139 0 -237.5 -72t-159 -192t-85.5 -267q-26 -163 -2.5 -291t102.5 -201t218 -73
q145 0 243.5 76.5t141.5 240.5h175q-57 -238 -203.5 -349t-367.5 -111zM717 588q-44 0 -71.5 27t-27.5 66t28 67t73 28q43 0 69 -27.5t26 -66.5q0 -40 -26.5 -67t-70.5 -27z" />
    <glyph glyph-name="SigmaLunateDottedReversedSymbol" unicode="&#x3ff;" horiz-adv-x="1305" 
d="M567 -18q-132 0 -239.5 49.5t-169.5 147.5t-55 243h174q-2 -99 37.5 -165.5t108 -100t153.5 -33.5q144 0 241.5 71t155 192t82.5 272q27 162 4.5 289.5t-100 201t-216.5 73.5q-144 0 -247 -79t-147 -249h-174q37 161 118.5 265t199.5 154.5t265 50.5q184 0 301.5 -92.5
t161.5 -257.5t7 -383q-31 -192 -116 -338.5t-221.5 -228.5t-323.5 -82zM653 575q-44 0 -71.5 27t-27.5 66q0 40 27.5 67.5t73.5 27.5q43 0 69 -27t26 -67t-26.5 -67t-70.5 -27z" />
    <glyph glyph-name="Iegrave-cy" unicode="&#x400;" 
d="M58 0l286 1346h780l-29 -143h-608l-94 -440h559l-30 -140h-560l-101 -480h607l-29 -143h-781zM728 1463l-194 270h185l132 -270h-123z" />
    <glyph glyph-name="Io-cy" unicode="&#x401;" 
d="M58 0l286 1346h780l-29 -143h-608l-94 -440h559l-30 -140h-560l-101 -480h607l-29 -143h-781zM933 1503q-35 0 -58.5 24t-23.5 60t24 61.5t59 25.5q33 0 56.5 -25t23.5 -60q0 -36 -24 -61t-57 -25zM613 1503q-35 0 -59 24t-24 60t24 61.5t60 25.5q33 0 57 -25t24 -60
q0 -36 -24 -61t-58 -25z" />
    <glyph glyph-name="Dje-cy" unicode="&#x402;" horiz-adv-x="1380" 
d="M257 0l256 1202h-343l31 144h857l-30 -144h-343l-255 -1202h-173zM627 -278l30 146h68q80 0 131.5 33.5t84 102t54.5 175.5l73 348q28 132 -22.5 190t-162.5 58q-66 0 -146.5 -14t-155.5 -42l31 137q84 30 158.5 45.5t161.5 15.5q116 0 195 -43.5t110 -133t2 -226.5
l-77 -371q-30 -145 -83 -238t-140.5 -138t-222.5 -45h-89z" />
    <glyph glyph-name="Gje-cy" unicode="&#x403;" horiz-adv-x="894" 
d="M345 1346h698l-30 -140h-525l-257 -1206h-173zM601 1463l222 268h194l-284 -268h-132z" />
    <glyph glyph-name="E-cy" unicode="&#x404;" horiz-adv-x="1303" 
d="M159 623l31 140h649l-31 -140h-649zM616 -18q-181 0 -299 92t-163.5 254.5t-9.5 375.5q33 194 121 343t229 233t330 84q128 0 232 -49.5t163 -147.5t52 -243h-175q3 99 -34.5 166t-103 100.5t-146.5 33.5q-144 0 -245.5 -72.5t-163 -196.5t-87.5 -277q-26 -157 -3 -283
t100.5 -199t216.5 -73q142 0 245.5 78t147.5 250h175q-37 -161 -120.5 -265t-201 -154t-260.5 -50z" />
    <glyph glyph-name="Dze-cy" unicode="&#x405;" horiz-adv-x="1056" 
d="M477 -18q-134 0 -231 46t-148.5 140.5t-48.5 239.5h175q-2 -152 64 -219t200 -67q112 0 187.5 49.5t93.5 157.5q13 77 -6.5 131.5t-78 97.5t-163.5 84q-113 45 -187.5 106.5t-105 142.5t-11.5 184q18 92 75 156.5t148 99t209 33.5q119 0 208.5 -42t139 -125.5
t47.5 -208.5h-174q1 117 -60.5 177.5t-172.5 60.5q-109 0 -176.5 -47t-80.5 -127q-10 -57 8.5 -105t76 -91t165.5 -86q119 -48 194 -106.5t105 -142t10 -206.5q-18 -111 -79.5 -185t-159 -111t-223.5 -37z" />
    <glyph glyph-name="I-cy" unicode="&#x406;" horiz-adv-x="497" 
d="M58 0l286 1346h174l-287 -1346h-173z" />
    <glyph glyph-name="Yi-cy" unicode="&#x407;" horiz-adv-x="497" 
d="M58 0l286 1346h174l-287 -1346h-173zM625 1503q-35 0 -58.5 24t-23.5 60t24 61.5t59 25.5q33 0 56.5 -25t23.5 -60q0 -36 -24 -61t-57 -25zM305 1503q-35 0 -59 24t-24 60t24 61.5t60 25.5q33 0 57 -25t24 -60q0 -36 -24 -61t-58 -25z" />
    <glyph glyph-name="Je-cy" unicode="&#x408;" horiz-adv-x="624" 
d="M-74 -13l32 146h74q113 0 170 65t86 202l203 946h169l-204 -965q-30 -138 -81 -225t-135.5 -128t-217.5 -41h-96z" />
    <glyph glyph-name="Lje-cy" unicode="&#x409;" horiz-adv-x="1808" 
d="M-90 -13l30 146h21q60 0 107.5 31.5t94 112.5t102.5 226t134 370l163 473h165l-170 -504q-67 -202 -122.5 -348t-107 -244t-107 -156t-123 -82.5t-155.5 -24.5h-32zM767 0l253 1200h-474l93 146h585l-285 -1346h-172zM934 137h256q84 0 149.5 19t111 72.5t67.5 157.5
q28 133 -34.5 210.5t-198.5 77.5h-245zM842 0l210 813h250q144 0 239.5 -56.5t134 -158t8.5 -237.5q-27 -129 -91 -208.5t-166.5 -116t-245.5 -36.5h-339z" />
    <glyph glyph-name="Nje-cy" unicode="&#x40a;" horiz-adv-x="1795" 
d="M58 0l287 1346h173l-122 -568h576l-31 -149h-576l-134 -629h-173zM756 0l287 1346h173l-287 -1346h-173zM791 0l267 810h233q143 0 238 -55.5t133.5 -155.5t9.5 -234q-27 -129 -90 -209.5t-166 -118t-248 -37.5h-377zM923 137h255q82 0 147.5 19.5t111.5 73t68 154.5
q29 137 -35 212.5t-196 75.5h-247z" />
    <glyph glyph-name="Tshe-cy" unicode="&#x40b;" horiz-adv-x="1378" 
d="M257 0l256 1202h-343l31 144h857l-30 -144h-343l-75 -346q83 24 166 42.5t180 18.5q113 0 187 -40.5t101.5 -123.5t0.5 -210l-116 -543h-173l115 544q27 128 -16.5 179.5t-143.5 51.5q-74 0 -163.5 -14.5t-165.5 -41.5l-153 -719h-172z" />
    <glyph glyph-name="Kje-cy" unicode="&#x40c;" horiz-adv-x="1053" 
d="M58 0l286 1346h174l-138 -646l624 646h204l-646 -659l400 -687h-188l-396 691l-147 -691h-173zM673 1463l222 268h194l-284 -268h-132z" />
    <glyph glyph-name="Iigrave-cy" unicode="&#x40d;" horiz-adv-x="1318" 
d="M1052 0h-160l231 1084l-885 -1084h-180l287 1346h161l-231 -1083l884 1083h180zM817 1463l-194 270h185l132 -270h-123z" />
    <glyph glyph-name="Ushort-cy" unicode="&#x40e;" horiz-adv-x="1011" 
d="M69 -4l30 142h62q69 0 121.5 30.5t101.5 104.5l13 20l-217 1053h180l158 -874l487 874h186l-648 -1107q-42 -72 -84.5 -119t-89 -74t-100.5 -38.5t-121 -11.5h-79zM695 1483q-86 0 -146.5 32.5t-91.5 88.5t-29 129h143q-2 -46 16.5 -77t50.5 -46t70 -15q41 0 79 13.5
t65.5 44t39.5 80.5h142q-35 -122 -122.5 -186t-216.5 -64z" />
    <glyph glyph-name="Dzhe-cy" unicode="&#x40f;" horiz-adv-x="1303" 
d="M58 0l286 1346h173l-255 -1201h634l255 1201h173l-287 -1346h-979zM405 -287l91 426h164l-91 -426h-164z" />
    <glyph glyph-name="A-cy" unicode="&#x410;" horiz-adv-x="1096" 
d="M-99 0l740 1346h183l163 -1346h-174l-30 384h-499l-198 -384h-185zM362 530h403l-64 647z" />
    <glyph glyph-name="Be-cy" unicode="&#x411;" horiz-adv-x="1132" 
d="M58 0l287 1346h772l-31 -145h-599l-256 -1201h-173zM131 0l250 812h245q151 0 246 -57.5t130 -161t5 -240.5q-25 -120 -90.5 -198t-170 -116.5t-247.5 -38.5h-368zM254 137h258q129 0 214.5 56t113.5 191q30 141 -34 215t-196 74h-247z" />
    <glyph glyph-name="Ve-cy" unicode="&#x412;" horiz-adv-x="1143" 
d="M58 0l286 1346h377q131 1 216.5 -47.5t119.5 -135.5t8 -205q-20 -91 -88 -157t-161 -87q72 -21 124.5 -70.5t74.5 -125.5t0 -180q-21 -99 -85 -175.5t-171.5 -119.5t-259.5 -43h-441zM261 144h253q130 0 217 55.5t110 166.5q28 131 -34 198.5t-188 67.5h-255zM394 771
h220q120 0 192.5 54.5t92.5 151.5q22 105 -29 166t-171 61h-212z" />
    <glyph glyph-name="Ge-cy" unicode="&#x413;" horiz-adv-x="894" 
d="M345 1346h698l-30 -140h-525l-257 -1206h-173z" />
    <glyph glyph-name="De-cy" unicode="&#x414;" horiz-adv-x="1251" 
d="M-149 -287l91 428h129q57 88 118 225t121 302t115.5 340t101.5 338h707l-253 -1203h152l-91 -430h-163l61 287h-864l-61 -287h-164zM252 143h556l222 1058h-388q-26 -97 -61.5 -211.5t-76.5 -235t-84.5 -235t-86 -211.5t-81.5 -165z" />
    <glyph glyph-name="Ie-cy" unicode="&#x415;" 
d="M58 0l286 1346h780l-29 -143h-608l-94 -440h559l-30 -140h-560l-101 -480h607l-29 -143h-781z" />
    <glyph glyph-name="Zhe-cy" unicode="&#x416;" horiz-adv-x="1578" 
d="M598 0l287 1346h166l-138 -648l627 648h194l-646 -651l399 -695h-184l-391 691l-147 -691h-167zM-125 0l698 712l-371 634h177l369 -649l-3 -6l-666 -691h-204z" />
    <glyph glyph-name="Ze-cy" unicode="&#x417;" horiz-adv-x="1055" 
d="M455 -18q-138 0 -233 53t-139 148.5t-31 219.5h169q-11 -129 48.5 -206.5t192.5 -77.5q124 0 196.5 59.5t97.5 177.5q27 128 -32.5 206.5t-184.5 78.5h-87l28 137h108q113 0 183 54.5t90 146.5q18 81 -4.5 137t-75 84.5t-124.5 28.5q-116 0 -187 -59t-96 -191h-170
q24 131 87.5 216.5t160 128t220.5 42.5q116 0 207 -46.5t134.5 -133.5t16.5 -208q-22 -105 -97 -178t-194 -95q66 -17 116 -66t70.5 -127.5t-2.5 -186.5q-22 -108 -82.5 -185t-156.5 -117.5t-229 -40.5z" />
    <glyph glyph-name="Ii-cy" unicode="&#x418;" horiz-adv-x="1318" 
d="M1052 0h-160l231 1084l-885 -1084h-180l287 1346h161l-231 -1083l884 1083h180z" />
    <glyph glyph-name="Iishort-cy" unicode="&#x419;" horiz-adv-x="1318" 
d="M1052 0h-160l231 1084l-885 -1084h-180l287 1346h161l-231 -1083l884 1083h180zM866 1483q-86 0 -146.5 32.5t-91.5 88.5t-29 129h143q-2 -46 16.5 -77t50.5 -46t70 -15q41 0 79 13.5t65.5 44t39.5 80.5h142q-35 -122 -122.5 -186t-216.5 -64z" />
    <glyph glyph-name="Ka-cy" unicode="&#x41a;" horiz-adv-x="1053" 
d="M58 0l286 1346h174l-138 -646l624 646h204l-646 -659l400 -687h-188l-396 691l-147 -691h-173z" />
    <glyph glyph-name="El-cy" unicode="&#x41b;" horiz-adv-x="1225" 
d="M788 0l254 1200h-477l80 146h601l-285 -1346h-173zM-93 -13l30 146h21q60 0 107.5 31.5t94 112.5t102.5 226t133 370l164 473h165l-170 -504q-68 -202 -123.5 -348t-107 -244t-107 -156t-122.5 -82.5t-155 -24.5h-32z" />
    <glyph glyph-name="Em-cy" unicode="&#x41c;" horiz-adv-x="1477" 
d="M58 0l286 1346h187l230 -735l532 735h205l-286 -1346h-173l234 1098l-486 -676h-117l-212 676l-233 -1098h-167z" />
    <glyph glyph-name="En-cy" unicode="&#x41d;" horiz-adv-x="1322" 
d="M58 0l286 1346h174l-122 -568h652l122 568h173l-287 -1346h-173l135 629h-653l-134 -629h-173z" />
    <glyph glyph-name="O-cy" unicode="&#x41e;" horiz-adv-x="1365" 
d="M618 -18q-188 0 -307 95.5t-162 261.5t-3 378q36 196 124 341.5t227.5 226.5t330.5 81q186 0 304.5 -95.5t162 -262t3.5 -379.5q-36 -193 -122.5 -339t-226 -227t-331.5 -81zM630 120q144 0 244.5 71t162.5 193t88 274q28 152 7.5 281t-98 208t-221.5 79
q-142 0 -242.5 -70.5t-162 -192t-89.5 -275.5q-27 -152 -7 -281t97.5 -208t220.5 -79z" />
    <glyph glyph-name="Pe-cy" unicode="&#x41f;" horiz-adv-x="1303" 
d="M58 0l287 1346h979l-287 -1346h-173l256 1201h-634l-255 -1201h-173z" />
    <glyph glyph-name="Er-cy" unicode="&#x420;" horiz-adv-x="1107" 
d="M58 0l286 1346h389q135 0 226 -55t128.5 -157t7.5 -245q-25 -124 -92.5 -202t-164.5 -115t-214 -37h-279l-114 -535h-173zM374 678h256q108 0 187.5 54.5t106.5 176.5q32 150 -27 223t-174 73h-236z" />
    <glyph glyph-name="Es-cy" unicode="&#x421;" horiz-adv-x="1303" 
d="M626 -18q-187 0 -306.5 93.5t-164.5 259.5t-9 383q33 187 120.5 333t226 229.5t322.5 83.5q133 0 237.5 -48.5t163.5 -145t56 -239.5h-174q2 96 -36 160.5t-105.5 97t-155.5 32.5q-139 0 -237.5 -72t-159 -192t-85.5 -267q-26 -163 -2.5 -291t102.5 -201t218 -73
q145 0 243.5 76.5t141.5 240.5h175q-57 -238 -203.5 -349t-367.5 -111z" />
    <glyph glyph-name="Te-cy" unicode="&#x422;" horiz-adv-x="894" 
d="M257 0l256 1202h-343l30 144h860l-30 -144h-344l-257 -1202h-172z" />
    <glyph glyph-name="U-cy" unicode="&#x423;" horiz-adv-x="1011" 
d="M69 -4l30 142h62q69 0 121.5 30.5t101.5 104.5l13 20l-217 1053h180l158 -874l487 874h186l-648 -1107q-42 -72 -84.5 -119t-89 -74t-100.5 -38.5t-121 -11.5h-79z" />
    <glyph glyph-name="Ef-cy" unicode="&#x424;" horiz-adv-x="1416" 
d="M584 148q-109 0 -203 39t-158.5 114t-88 185.5t7.5 255.5q33 152 121 254t217.5 153t285.5 51h33l-30 -138h-34q-164 0 -277 -86.5t-150 -259.5q-29 -139 2.5 -235t108.5 -145.5t183 -49.5h23l-30 -138h-11zM507 -41l302 1427h172l-303 -1427h-171zM689 148l29 138h39
q163 0 274.5 90t149.5 268q29 136 -2.5 229t-108.5 141t-186 48h-23l29 138h12q109 0 202.5 -38.5t158.5 -113.5t89 -184.5t-7 -251.5q-34 -157 -124.5 -260t-218.5 -153.5t-276 -50.5h-37z" />
    <glyph glyph-name="Ha-cy" unicode="&#x425;" horiz-adv-x="1034" 
d="M-91 0l553 697l-239 649h186l169 -533l403 533h197l-518 -653l259 -693h-189l-185 564l-436 -564h-200z" />
    <glyph glyph-name="Tse-cy" unicode="&#x426;" horiz-adv-x="1338" 
d="M58 0l286 1346h173l-256 -1201h634l256 1201h173l-287 -1346h-979zM966 -287l62 287l-6 44l11 99h186l-90 -430h-163z" />
    <glyph glyph-name="Che-cy" unicode="&#x427;" horiz-adv-x="1180" 
d="M741 0l118 557q-71 -22 -147 -41.5t-168 -19.5q-113 0 -193.5 45t-113 136t-2.5 229l94 440h173l-97 -456q-27 -127 22.5 -188.5t163.5 -61.5q70 0 147.5 15t150.5 42l139 649h173l-287 -1346h-173z" />
    <glyph glyph-name="Sha-cy" unicode="&#x428;" horiz-adv-x="1702" 
d="M58 0l286 1346h173l-253 -1201h1031l255 1201h172l-285 -1346h-1379zM671 47l276 1299h172l-276 -1299h-172z" />
    <glyph glyph-name="Shcha-cy" unicode="&#x429;" horiz-adv-x="1747" 
d="M58 0l286 1346h173l-256 -1201h1043l256 1201h173l-286 -1346h-1389zM677 47l276 1299h171l-276 -1299h-171zM1375 -287l62 287l-7 40l13 103h186l-91 -430h-163z" />
    <glyph glyph-name="Hardsign-cy" unicode="&#x42a;" horiz-adv-x="1336" 
d="M260 0l256 1203h-346l31 143h519l-115 -537h228q140 0 235.5 -55.5t134.5 -157t8 -241.5q-25 -124 -89 -202.5t-167.5 -115.5t-248.5 -37h-446zM462 137h256q83 0 148.5 19t111 71.5t66.5 152.5q20 94 -2.5 158.5t-80.5 98t-147 33.5h-238z" />
    <glyph glyph-name="Yeru-cy" unicode="&#x42b;" horiz-adv-x="1486" 
d="M58 0l287 1346h173l-115 -533h191q144 0 239.5 -56.5t133.5 -158t8 -235.5q-27 -130 -91.5 -210t-167 -116.5t-245.5 -36.5h-413zM260 137h223q83 0 148 19.5t110.5 73t66.5 155.5q20 93 -2.5 157.5t-81 98t-148.5 33.5h-201zM1048 0l287 1346h173l-287 -1346h-173z" />
    <glyph glyph-name="Softsign-cy" unicode="&#x42c;" horiz-adv-x="1135" 
d="M58 0l287 1346h173l-287 -1346h-173zM131 0l247 813h252q138 0 234 -55.5t136.5 -158t9.5 -245.5q-27 -125 -90.5 -203t-166 -114.5t-247.5 -36.5h-375zM252 137h261q84 0 150 19.5t112 72t66 150.5q21 97 -1.5 162.5t-81 99t-146.5 33.5h-246z" />
    <glyph glyph-name="Ereversed-cy" unicode="&#x42d;" horiz-adv-x="1286" 
d="M545 -18q-141 0 -249.5 53.5t-167 158t-48.5 257.5h177q-8 -164 71.5 -246t232.5 -82q138 0 234 66.5t157 184.5t93 272q33 158 15.5 289t-93.5 210t-220 79q-79 0 -157 -28.5t-138.5 -94t-88.5 -177.5h-175q36 147 118.5 245t199 146.5t253.5 48.5q188 0 306.5 -96
t158.5 -264.5t-7 -387.5q-41 -193 -129.5 -335.5t-223.5 -220.5t-319 -78zM511 623l29 140h635l-30 -140h-634z" />
    <glyph glyph-name="Iu-cy" unicode="&#x42e;" horiz-adv-x="1794" 
d="M58 0l287 1346h173l-122 -568h325l-31 -149h-325l-134 -629h-173zM1063 -18q-184 0 -296 96t-149.5 261t3.5 372q40 199 127.5 346t223.5 227.5t320 80.5q183 0 294 -97.5t147 -264t-6 -374.5q-40 -196 -126 -342t-219.5 -225.5t-318.5 -79.5zM1078 121q137 0 232.5 68.5
t155 188.5t90.5 272q23 116 19.5 219.5t-36.5 183.5t-97.5 125.5t-165.5 45.5q-136 0 -232 -68.5t-156.5 -189t-91.5 -275.5q-30 -151 -14 -281t88 -209.5t208 -79.5z" />
    <glyph glyph-name="Ia-cy" unicode="&#x42f;" horiz-adv-x="1143" 
d="M-37 0l188 388q37 77 82 131.5t100.5 87t121.5 43.5q-110 40 -153.5 143t-17.5 230q27 124 94 194.5t160 99.5t196 29h431l-287 -1346h-173l122 575h-226q-65 0 -116.5 -25.5t-93.5 -75.5t-78 -126l-163 -348h-187zM635 718h223l104 485h-238q-112 0 -184.5 -52.5
t-95.5 -157.5q-17 -83 5 -145t71.5 -96t114.5 -34z" />
    <glyph glyph-name="a-cy" unicode="&#x430;" horiz-adv-x="993" 
d="M297 -18q-90 0 -151.5 38.5t-86 110.5t-5.5 170q24 120 111.5 183.5t229 87.5t324.5 27l16 71q20 95 4.5 149t-57.5 76t-99 22q-83 0 -140.5 -34t-77.5 -110h-157q32 138 131 199.5t252 61.5q101 0 179 -37.5t113.5 -121t5.5 -219.5l-139 -656h-150l24 138
q-64 -65 -142.5 -110.5t-184.5 -45.5zM340 102q61 0 116 23t103.5 61t88.5 82l49 234q-239 -4 -353.5 -54t-137.5 -162q-15 -78 18.5 -131t115.5 -53z" />
    <glyph glyph-name="be-cy" unicode="&#x431;" horiz-adv-x="1036" 
d="M129 634q30 140 72 249.5t99.5 190t132.5 128.5q73 46 162.5 79.5t207.5 58t274 44.5l16 2l-30 -147l-17 -2q-142 -16 -244.5 -36.5t-174.5 -45t-122 -55.5q-54 -33 -94.5 -97t-66.5 -138.5t-40 -141.5zM460 -16q-137 0 -226 76t-118 221.5t13 352.5l126 89
q29 62 87.5 122.5t139 100t174.5 39.5q107 0 182.5 -57t103 -173t-10.5 -293q-49 -231 -170.5 -354.5t-300.5 -123.5zM466 110q119 0 193.5 94.5t110.5 265.5q40 192 -1 289.5t-159 97.5q-102 0 -185 -57.5t-132 -145.5l-7 -31q-39 -160 -27.5 -275t65.5 -176.5t142 -61.5z
" />
    <glyph glyph-name="ve-cy" unicode="&#x432;" horiz-adv-x="952" 
d="M45 0l216 1016h320q101 0 171.5 -35t100.5 -101.5t10 -160.5q-14 -67 -62.5 -118t-134.5 -71q93 -17 140.5 -94t22.5 -194q-16 -77 -64 -130.5t-130.5 -82.5t-204.5 -29h-385zM232 125h198q61 0 111 11.5t84.5 44t47.5 92.5q19 89 -25.5 141t-141.5 52h-198zM332 585h172
q84 0 136 34t67 105q16 75 -21.5 121.5t-118.5 46.5h-169z" />
    <glyph glyph-name="ge-cy" unicode="&#x433;" horiz-adv-x="696" 
d="M46 0l214 1016h162l-214 -1016h-162zM294 888l19 128h464l-27 -128h-456z" />
    <glyph glyph-name="de-cy" unicode="&#x434;" horiz-adv-x="1075" 
d="M-141 -256l83 387h121q91 170 180.5 389.5t171.5 495.5h587l-187 -885h137l-83 -387h-153l56 256h-705l-56 -256h-152zM232 131h423l159 751h-289q-40 -134 -88 -266t-100 -254t-105 -231z" />
    <glyph glyph-name="ie-cy" unicode="&#x435;" horiz-adv-x="993" 
d="M453 -18q-142 0 -227.5 72t-115.5 197t-5 284q24 148 84.5 260t157 175.5t225.5 63.5q128 0 209 -68t108.5 -193t-5.5 -296h-628q-15 -106 -0.5 -190.5t65 -133.5t142.5 -49q81 0 140.5 38.5t81.5 124.5h159q-36 -140 -137 -212.5t-254 -72.5zM277 596h465
q13 93 -3.5 164t-60.5 111.5t-115 40.5q-106 0 -179.5 -79.5t-106.5 -236.5z" />
    <glyph glyph-name="zhe-cy" unicode="&#x436;" horiz-adv-x="1346" 
d="M-119 0l554 545l-304 471h172l301 -474l98 474h157l-100 -474l488 474h182l-502 -483l322 -533h-178l-312 533l-116 -533h-156l116 533l-526 -533h-196z" />
    <glyph glyph-name="ze-cy" unicode="&#x437;" horiz-adv-x="912" 
d="M362 -18q-172 0 -261.5 81t-79.5 232h151q-7 -86 44.5 -138.5t158.5 -52.5q106 0 164 40.5t74 121.5q22 100 -26.5 153t-150.5 53h-82l25 121h93q91 0 145 41t66 100q19 93 -31.5 137t-137.5 44q-96 0 -155.5 -43t-73.5 -121h-152q17 89 70 153t136 97.5t190 33.5
q101 0 176 -37t110.5 -108t14.5 -170q-16 -73 -76.5 -122t-146.5 -66q57 -13 98.5 -53t59 -99.5t1.5 -134.5q-28 -135 -131 -199t-273 -64z" />
    <glyph glyph-name="ii-cy" unicode="&#x438;" horiz-adv-x="1037" 
d="M335 -14q-95 0 -155 45t-80 129.5t4 200.5l140 655h161l-141 -658q-23 -111 7.5 -174.5t121.5 -63.5q60 0 111 24.5t93.5 61.5t77.5 74l156 736h162l-216 -1016h-157l28 146q-37 -39 -81 -76t-101 -60.5t-131 -23.5z" />
    <glyph glyph-name="iishort-cy" unicode="&#x439;" horiz-adv-x="1037" 
d="M335 -14q-95 0 -155 45t-80 129.5t4 200.5l140 655h161l-141 -658q-23 -111 7.5 -174.5t121.5 -63.5q60 0 111 24.5t93.5 61.5t77.5 74l156 736h162l-216 -1016h-157l28 146q-37 -39 -81 -76t-101 -60.5t-131 -23.5zM640 1119q-125 0 -191 71t-63 179h140
q-2 -68 35.5 -102t93.5 -34q53 0 98.5 32t61.5 104h140q-35 -125 -116.5 -187.5t-198.5 -62.5z" />
    <glyph glyph-name="ka-cy" unicode="&#x43a;" horiz-adv-x="918" 
d="M43 0l219 1016h161l-105 -478l490 478h196l-513 -491l330 -525h-180l-325 528l-111 -528h-162z" />
    <glyph glyph-name="el-cy" unicode="&#x43b;" horiz-adv-x="1007" 
d="M-86 -13l27 129h13q33 0 60.5 18.5t55.5 66.5t64 138t86 233l149 444h595l-217 -1016h-162l190 888h-294l-118 -354q-52 -149 -94.5 -253.5t-86.5 -169.5t-99.5 -94.5t-134.5 -29.5h-34z" />
    <glyph glyph-name="em-cy" unicode="&#x43c;" horiz-adv-x="1253" 
d="M43 0l218 1016h170l180 -537l411 537h188l-218 -1016h-156l169 792l-368 -485h-107l-163 485l-169 -792h-155z" />
    <glyph glyph-name="en-cy" unicode="&#x43d;" horiz-adv-x="1072" 
d="M650 0l216 1016h162l-216 -1016h-162zM46 0l214 1016h162l-214 -1016h-162zM264 463l26 128h513l-26 -128h-513z" />
    <glyph glyph-name="o-cy" unicode="&#x43e;" horiz-adv-x="1032" 
d="M456 -18q-135 0 -226.5 71.5t-124 203.5t5.5 310q47 222 169.5 344t312.5 122q132 0 219 -72t118.5 -203t-5.5 -310q-46 -222 -164.5 -344t-304.5 -122zM467 107q124 0 194.5 99.5t105.5 264.5q28 120 17.5 219.5t-60.5 158.5t-144 59q-86 0 -147 -45t-101 -126t-63 -189
q-27 -125 -15.5 -225t64 -158t149.5 -58z" />
    <glyph glyph-name="pe-cy" unicode="&#x43f;" horiz-adv-x="1055" 
d="M632 0l215 1016h162l-215 -1016h-162zM47 0l213 1016h162l-214 -1016h-161zM346 888l27 128h513l-27 -128h-513z" />
    <glyph glyph-name="er-cy" unicode="&#x440;" horiz-adv-x="1052" 
d="M-33 -361l294 1377h154l-24 -143q52 69 124.5 114t174.5 45q110 0 181 -68t92.5 -198t-18.5 -316q-52 -243 -164.5 -355.5t-265.5 -112.5q-96 0 -168 44t-112 116l-107 -503h-161zM501 111q108 0 176.5 89t108.5 268q45 207 7.5 320.5t-146.5 113.5q-91 0 -163 -51.5
t-125 -130.5l-93 -440q33 -76 92.5 -122.5t142.5 -46.5z" />
    <glyph glyph-name="es-cy" unicode="&#x441;" horiz-adv-x="989" 
d="M447 -18q-121 0 -209 64t-125.5 186.5t-8.5 296.5q43 260 166.5 382.5t309.5 122.5q106 0 180 -36.5t114 -103.5t41 -158h-159q-3 51 -23.5 90t-61 61t-103.5 22q-129 0 -203.5 -105.5t-104.5 -284.5q-33 -200 21 -306t181 -106q92 0 150 47t77 131h158
q-35 -156 -137.5 -229.5t-262.5 -73.5z" />
    <glyph glyph-name="te-cy" unicode="&#x442;" horiz-adv-x="1600" 
d="M45 0l215 1016h157l-25 -141q53 58 123 106.5t181 48.5q92 0 150.5 -45.5t78.5 -129.5t-5 -199l-138 -656h-162l140 657q24 112 -6 176t-117 64t-154.5 -50t-119.5 -107l-157 -740h-161zM1196 0l140 657q24 112 -6 176t-117 64q-57 0 -108.5 -25.5t-96.5 -65.5t-85 -83
v123q70 74 153 129t195 55q93 0 151 -45.5t78.5 -129t-4.5 -199.5l-139 -656h-161z" />
    <glyph glyph-name="u-cy" unicode="&#x443;" horiz-adv-x="847" 
d="M-82 -361l28 132h77q56 0 96.5 31t79.5 103l53 95l-135 1016h164l84 -844l427 844h173l-609 -1127q-37 -69 -71.5 -117t-72.5 -77.5t-84.5 -42.5t-107.5 -13h-102z" />
    </font>
</defs>
</svg>
