<?xml version="1.0" standalone="no"?>
<!DOCTYPE svg PUBLIC "-//W3C//DTD SVG 1.1//EN" "http://www.w3.org/Graphics/SVG/1.1/DTD/svg11.dtd" >
<svg xmlns="http://www.w3.org/2000/svg" xmlns:xlink="http://www.w3.org/1999/xlink" version="1.1">
<metadata>
Created by FontForge 20201107 at Tue May 14 00:11:02 2024
 By 
(c) 2024 Microsoft Corporation. All Rights Reserved. The "kern" table of this font was developed in part using a study by Andre' Fuchs on the relevance of kerning pairs (https://github.com/andre-fuchs/kerning-pairs/blob/master/LICENSE.md). Copyright 2019 Andre' Fuchs. Permission is hereby granted, free of charge, to any person obtaining a copy of this software and associated documentation files (the "Software"), to deal in the Software without restriction, including without limitation the rights to use, copy, modify, merge, publish, distribute, sublicense, and/or sell copies of the Software, and to permit persons to whom the Software is furnished to do so, subject to the following conditions: The above copyright notice and this permission notice shall be included in all copies or substantial portions of the Software.
</metadata>
<defs>
<font id="AptosDisplay" horiz-adv-x="0" >
  <font-face 
    font-family="Aptos Display"
    font-weight="400"
    font-stretch="normal"
    units-per-em="2048"
    panose-1="2 11 0 4 2 2 2 2 2 4"
    ascent="1638"
    descent="-410"
    x-height="974"
    cap-height="1346"
    bbox="-1030 -563 2395 2068"
    underline-thickness="50"
    underline-position="-125"
    unicode-range="U+000D-FDFC"
  />
<missing-glyph horiz-adv-x="965" 
d="M0 0v1354h965v-1354h-965zM478 223q-36 0 -60 23.5t-24 59.5t24 59.5t60 23.5t61 -23.5t25 -59.5t-25 -59.5t-61 -23.5zM67 67h830v1218h-830v-1218zM424 507q-4 82 24.5 134.5t89.5 99.5q58 44 85 79.5t27 89.5q0 59 -41 98.5t-127 39.5q-84 0 -131.5 -44t-47.5 -124
h-112q0 125 81 193t210 68q130 0 207.5 -62t77.5 -169q0 -80 -40 -130t-107 -102q-56 -43 -72.5 -80.5t-20.5 -90.5h-103z" />
    <glyph glyph-name="uniFB01" unicode="fi" horiz-adv-x="1012" 
d="M176 0v839h-162v135h162v56q0 75 12.5 133.5t44.5 99.5t88.5 62t146.5 21h102v-131h-92q-88 0 -111.5 -48.5t-23.5 -139.5v-53h225v-135h-225v-839h-167zM712 0v974h167v-974h-167zM796 1157q-48 0 -76 27.5t-28 69.5t28 69.5t76 27.5q47 0 76 -27.5t29 -69.5t-29 -69.5
t-76 -27.5z" />
    <glyph glyph-name="uniFB02" unicode="fl" horiz-adv-x="1080" 
d="M176 0v839h-162v135h162v56q0 75 12.5 133.5t44.5 99.5t88.5 62t146.5 21h102v-131h-92q-88 0 -111.5 -48.5t-23.5 -139.5v-53h225v-135h-225v-839h-167zM995 0q-118 0 -181 37.5t-86.5 108t-23.5 169.5v1031h167v-1023q0 -91 23.5 -139t111.5 -48h45v-136h-56z" />
    <glyph glyph-name="f_f.liga" unicode="ff" horiz-adv-x="1176" 
d="M176 0v839h-162v135h162v56q0 75 12.5 133.5t44.5 99.5t88.5 62t146.5 21h102v-131h-92q-88 0 -111.5 -48.5t-23.5 -139.5v-53h225v-135h-225v-839h-167zM771 0v839h-162v135h162v56q0 75 12.5 133.5t44.5 99.5t88.5 62t146.5 21h102v-131h-92q-88 0 -111.5 -48.5
t-23.5 -139.5v-53h225v-135h-225v-839h-167z" />
    <glyph glyph-name="uniFDFC" unicode="&#xfdfc;" horiz-adv-x="1744" arabic-form="isolated" 
d="M368 86q-142 0 -212.5 69t-70.5 202q0 39 7 82.5t21 88.5l137 -2q-12 -40 -18 -83.5t-6 -81.5q0 -73 36.5 -104t111.5 -31q123 0 186.5 58t63.5 212v659h145v-661q0 -211 -99.5 -309.5t-301.5 -98.5zM822 -11q-32 0 -53.5 21.5t-21.5 53.5t21.5 53.5t53.5 21.5
q31 0 53 -21.5t22 -53.5t-22 -53.5t-53 -21.5zM1046 -11q-32 0 -53.5 21.5t-21.5 53.5t21.5 53.5t53.5 21.5t53.5 -21.5t21.5 -53.5t-21.5 -53.5t-53.5 -21.5zM1261 -1v138h30q114 0 171.5 49t57.5 137q0 57 -13.5 119t-38.5 138h146q23 -77 34 -138t11 -126
q0 -145 -84.5 -231t-281.5 -86h-32zM1127 221q-122 0 -185 65.5t-63 204.5v664h146v-664q0 -68 26 -99.5t77 -31.5q56 0 87 24t31 73q0 38 -6.5 81t-21.5 103h140q13 -59 19.5 -104t6.5 -89q0 -105 -65 -166t-192 -61z" />
    <glyph glyph-name=".notdef" horiz-adv-x="965" 
d="M0 0v1354h965v-1354h-965zM478 223q-36 0 -60 23.5t-24 59.5t24 59.5t60 23.5t61 -23.5t25 -59.5t-25 -59.5t-61 -23.5zM67 67h830v1218h-830v-1218zM424 507q-4 82 24.5 134.5t89.5 99.5q58 44 85 79.5t27 89.5q0 59 -41 98.5t-127 39.5q-84 0 -131.5 -44t-47.5 -124
h-112q0 125 81 193t210 68q130 0 207.5 -62t77.5 -169q0 -80 -40 -130t-107 -102q-56 -43 -72.5 -80.5t-20.5 -90.5h-103z" />
    <glyph glyph-name=".null" 
 />
    <glyph glyph-name="uni000D" unicode="&#xd;" 
 />
    <glyph glyph-name="space" unicode=" " horiz-adv-x="395" 
 />
    <glyph glyph-name="exclam" unicode="!" horiz-adv-x="504" 
d="M204 413q-15 116 -27 262.5t-12 293.5v377h176v-377q0 -147 -11.5 -294t-29.5 -262h-96zM254 -10q-56 0 -92.5 36.5t-36.5 89.5q0 54 36.5 89t92.5 35q53 0 89 -35t36 -89q0 -53 -36 -89.5t-89 -36.5z" />
    <glyph glyph-name="quotedbl" unicode="&#x22;" horiz-adv-x="757" 
d="M489 846q-12 95 -19.5 183t-7.5 195v92h161v-92q0 -108 -7 -194t-20 -184h-107zM162 846q-12 95 -20 183t-8 195v92h162v-92q0 -108 -7.5 -194t-18.5 -184h-108z" />
    <glyph glyph-name="numbersign" unicode="#" horiz-adv-x="1082" 
d="M187 0l57 405h-207v113h221l40 273h-208v111h222l58 403h123l-57 -403h285l57 403h124l-57 -403h200v-111h-215l-37 -273h198v-113h-214l-56 -405h-123l55 405h-286l-57 -405h-123zM382 518h288l37 273h-286z" />
    <glyph glyph-name="dollar" unicode="$" horiz-adv-x="1071" 
d="M539 -18q-129 0 -237.5 40t-173.5 131t-64 241h171q1 -107 43.5 -166.5t112 -83t151.5 -23.5q83 0 150 24t106.5 74t39.5 130q0 72 -31 120.5t-101.5 83.5t-188.5 63v-6q-145 35 -237 83t-135 117t-43 166q0 111 51 188.5t145.5 118t221.5 40.5q123 0 223.5 -40.5
t160 -121.5t59.5 -203h-173q2 115 -73 171.5t-197 56.5q-117 0 -184 -49.5t-67 -151.5q0 -85 66 -135t232 -92v4q102 -26 183 -57t138.5 -76.5t87 -110t29.5 -157.5q0 -123 -59.5 -208t-164.5 -128t-242 -43zM481 -217v1745h107v-1745h-107z" />
    <glyph glyph-name="percent" unicode="%" horiz-adv-x="1690" 
d="M380 0l794 1305h136l-794 -1305h-136zM383 514q-102 0 -165.5 51t-92.5 142t-29 212q0 122 29 212.5t92.5 141t165.5 50.5q103 0 166 -50.5t92.5 -141t29.5 -212.5q0 -121 -29.5 -212t-93 -142t-165.5 -51zM383 625q62 0 96.5 42t48 109t13.5 143t-13.5 143t-48 108.5
t-96.5 41.5q-61 0 -95.5 -41.5t-48 -108.5t-13.5 -143t13.5 -143t48 -109t95.5 -42zM1307 -17q-101 0 -164.5 50.5t-92.5 141.5t-29 212q0 122 29 212.5t92.5 141t164.5 50.5q103 0 166.5 -50t92.5 -141t29 -213q0 -121 -29 -212t-92.5 -141.5t-166.5 -50.5zM1307 94
q63 0 97 41.5t47.5 108t13.5 143.5q0 76 -13.5 143t-47.5 108t-97 41q-61 0 -95 -41t-47.5 -108t-13.5 -143q0 -77 13.5 -143.5t47.5 -108t95 -41.5z" />
    <glyph glyph-name="ampersand" unicode="&#x26;" horiz-adv-x="1276" 
d="M526 -14q-125 0 -225 47.5t-158 133.5t-58 201q0 121 53 202.5t136 137t172 103.5h16q67 36 123 74t90 85.5t34 112.5q0 66 -38.5 107t-102.5 41q-69 0 -111 -41t-42 -109q0 -66 35 -131.5t105 -145.5l703 -804h-209l-624 716q-72 84 -121 176t-49 194q0 84 40.5 146.5
t111 97t161.5 34.5t157 -36t101 -99t35 -143q0 -93 -40.5 -157t-105.5 -110.5t-137 -88.5l-18 -3q-93 -52 -159 -100t-101.5 -107t-35.5 -147q0 -103 68.5 -174t199.5 -71q117 0 209 51t143 133q44 67 68 152t24 197h176q0 -91 -21 -174.5t-58.5 -155.5t-86.5 -131
q-83 -99 -198.5 -156.5t-261.5 -57.5z" />
    <glyph glyph-name="quotesingle" unicode="'" horiz-adv-x="431" 
d="M162 874q-12 95 -20 183.5t-8 195.5v93h163v-93q0 -109 -8 -195t-19 -184h-108z" />
    <glyph glyph-name="parenleft" unicode="(" horiz-adv-x="603" 
d="M390 -357q-80 140 -138 271.5t-88.5 271.5t-30.5 303q0 160 30 306.5t87.5 285.5t139.5 273h137q-118 -202 -174.5 -430.5t-56.5 -466.5q0 -212 64 -424t167 -390h-137z" />
    <glyph glyph-name="parenright" unicode=")" horiz-adv-x="603" 
d="M75 -357q120 203 176.5 431.5t56.5 467.5q0 212 -65 423t-168 389h137q82 -138 139.5 -269.5t88 -271.5t30.5 -303q0 -160 -30 -307t-88 -286t-140 -274h-137z" />
    <glyph glyph-name="asterisk" unicode="*" horiz-adv-x="780" 
d="M232 709l-89 65l156 210l-246 79l36 106l245 -86v257h112v-257l244 86l37 -106l-250 -79l156 -210l-91 -65l-155 216z" />
    <glyph glyph-name="plus" unicode="+" horiz-adv-x="1071" 
d="M102 742h865v-145h-865v145zM462 237v865h145v-865h-145z" />
    <glyph glyph-name="comma" unicode="," horiz-adv-x="504" 
d="M117 -278l-42 94q58 26 102 73t53 111l11 -10q-56 0 -92.5 36.5t-36.5 89.5q0 55 36.5 90.5t92.5 35.5q55 0 91 -39t36 -120q0 -95 -33.5 -164.5t-90 -117.5t-127.5 -79z" />
    <glyph glyph-name="hyphen" unicode="-" horiz-adv-x="714" 
d="M107 468v148h499v-148h-499z" />
    <glyph glyph-name="period" unicode="." horiz-adv-x="504" 
d="M254 -10q-56 0 -93 36.5t-37 89.5q0 55 37 90.5t93 35.5q54 0 90.5 -35.5t36.5 -90.5q0 -53 -36.5 -89.5t-90.5 -36.5z" />
    <glyph glyph-name="slash" unicode="/" horiz-adv-x="695" 
d="M23 0l490 1346h159l-490 -1346h-159z" />
    <glyph glyph-name="zero" unicode="0" horiz-adv-x="1071" 
d="M535 -18q-122 0 -206 51.5t-135.5 143t-74.5 212.5t-23 261q0 142 23 264t74.5 214t135.5 143.5t206 51.5t206.5 -51t136 -143.5t74.5 -214t23 -262.5t-23 -262.5t-74.5 -213t-135.5 -143t-207 -51.5zM535 131q78 0 128.5 45t79.5 120t40.5 167.5t11.5 188.5t-11.5 189
t-40.5 168t-79.5 119.5t-129.5 44.5q-77 0 -128 -44.5t-79.5 -119.5t-40.5 -168t-12 -189q0 -95 12 -188t40.5 -168t79.5 -120t129 -45z" />
    <glyph glyph-name="one" unicode="1" horiz-adv-x="1071" 
d="M531 0v1096q-27 -37 -76.5 -71.5t-118 -61.5t-151.5 -39v158q82 14 153.5 51t126.5 85t85 92h156v-1310h-175z" />
    <glyph glyph-name="two" unicode="2" horiz-adv-x="1071" 
d="M79 0v132l473 425q120 109 174 195.5t54 187.5q0 102 -56 167.5t-183 65.5q-142 0 -203.5 -72.5t-61.5 -182.5h-167q0 122 48 213t144 141t240 50q132 0 224 -46.5t140 -130.5t48 -198q0 -103 -40 -187t-107.5 -157.5t-151.5 -146.5l-347 -308h684v-148h-912z" />
    <glyph glyph-name="three" unicode="3" horiz-adv-x="1071" 
d="M544 -18q-209 0 -334.5 106t-125.5 304h166q0 -122 77.5 -194.5t215.5 -72.5q127 0 200 61t73 189q0 123 -81 181t-220 58h-78v142h82q125 0 192 61.5t67 163.5q0 98 -65.5 147.5t-173.5 49.5q-121 0 -188.5 -64t-65.5 -168h-166q0 116 52.5 200.5t147 130.5t219.5 46
q112 0 204 -37.5t147 -111t55 -183.5q0 -115 -65.5 -191.5t-172.5 -106.5q123 -22 203 -105.5t80 -219.5q0 -124 -56 -210t-156 -131t-233 -45z" />
    <glyph glyph-name="four" unicode="4" horiz-adv-x="1071" 
d="M674 0v264h-634v151l632 898h170v-902h179v-147h-179v-264h-168zM204 411h472v667z" />
    <glyph glyph-name="five" unicode="5" horiz-adv-x="1071" 
d="M534 -18q-125 0 -225.5 44.5t-159.5 128t-59 201.5h171q0 -107 76.5 -169t196.5 -62q128 0 199 75t71 222q0 145 -71 214.5t-190 69.5q-92 0 -151.5 -26.5t-98.5 -73.5h-151l57 699h693v-149h-559l-35 -413q36 42 102.5 73t167.5 31q114 0 206.5 -45t147.5 -139t55 -241
q0 -146 -57 -243.5t-157 -147t-229 -49.5z" />
    <glyph glyph-name="six" unicode="6" horiz-adv-x="1071" 
d="M563 -18q-139 0 -248 66.5t-172 212.5t-63 383q0 232 60.5 382t169.5 223t253 73q158 0 267.5 -82t140.5 -249h-170q-20 93 -81 140t-157 47q-145 0 -228 -128.5t-83 -405.5v-52q0 -172 43 -274.5t114.5 -147.5t154.5 -45q132 0 194 81t62 201q0 121 -60.5 191t-171.5 70
q-133 0 -231.5 -61t-150.5 -141l-15 128q42 61 104 110.5t141 78.5t175 29q110 0 196.5 -45.5t137 -134.5t50.5 -219q0 -126 -50.5 -223.5t-147 -152.5t-234.5 -55z" />
    <glyph glyph-name="seven" unicode="7" horiz-adv-x="1071" 
d="M245 0l590 1152h-773v153h943v-146l-578 -1159h-182z" />
    <glyph glyph-name="eight" unicode="8" horiz-adv-x="1071" 
d="M536 -18q-91 0 -172 23t-144.5 70t-100 119t-36.5 171q0 125 75.5 210t188.5 113q-97 32 -153.5 109t-56.5 189q0 117 58 192t149 110t190 35q100 0 191 -35.5t149.5 -110t58.5 -191.5q0 -114 -64 -192t-153 -106q118 -28 194 -112t76 -211q0 -99 -36 -171t-98.5 -119
t-144 -70t-171.5 -23zM535 124q76 0 140 26.5t102.5 81.5t38.5 140q0 81 -39.5 136t-103 83t-138.5 26q-70 2 -134 -25t-104.5 -82t-40.5 -138q0 -124 82.5 -186t196.5 -62zM535 756q61 -2 114.5 23t86.5 74.5t33 122.5q0 108 -68.5 158t-164.5 50q-61 0 -114.5 -22
t-86.5 -68t-33 -118t33.5 -121.5t87 -75t112.5 -23.5z" />
    <glyph glyph-name="nine" unicode="9" horiz-adv-x="1071" 
d="M495 -18q-111 0 -198.5 38.5t-142.5 112.5t-72 180h170q15 -85 77.5 -136.5t165.5 -51.5q152 0 239 124t87 397v57q0 178 -40.5 282.5t-108 149.5t-149.5 45q-137 0 -203.5 -81.5t-66.5 -202.5t64 -191t178 -70q91 0 159.5 28t119 73t84.5 94l16 -123q-39 -55 -95.5 -104
t-132 -80t-171.5 -31q-116 0 -205.5 46.5t-140 136t-50.5 216.5q0 125 53.5 222.5t153 153.5t236.5 56q136 0 242.5 -66.5t168 -212.5t61.5 -383q0 -233 -62 -383t-174 -223t-263 -73z" />
    <glyph glyph-name="colon" unicode=":" horiz-adv-x="504" 
d="M254 -10q-56 0 -93 36.5t-37 89.5q0 55 37 90.5t93 35.5q54 0 90.5 -35.5t36.5 -90.5q0 -53 -36.5 -89.5t-90.5 -36.5zM254 722q-56 0 -93 36.5t-37 89.5q0 55 37 90.5t93 35.5q54 0 90.5 -35.5t36.5 -90.5q0 -53 -36.5 -89.5t-90.5 -36.5z" />
    <glyph glyph-name="semicolon" unicode=";" horiz-adv-x="504" 
d="M117 -278l-42 94q58 26 102 73t53 111l11 -10q-56 0 -92.5 36.5t-36.5 89.5q0 55 36.5 90.5t92.5 35.5q55 0 91 -39t36 -120q0 -95 -33.5 -164.5t-90 -117.5t-127.5 -79zM254 722q-56 0 -93 36.5t-37 89.5q0 55 37 90.5t93 35.5q54 0 90.5 -35.5t36.5 -90.5
q0 -53 -36.5 -89.5t-90.5 -36.5z" />
    <glyph glyph-name="less" unicode="&#x3c;" horiz-adv-x="1071" 
d="M104 761l865 388v-146l-865 -379v137zM104 578v139l865 -384v-147z" />
    <glyph glyph-name="equal" unicode="=" horiz-adv-x="1071" 
d="M102 430v147h865v-147h-865zM102 765v145h865v-145h-865z" />
    <glyph glyph-name="greater" unicode="&#x3e;" horiz-adv-x="1071" 
d="M967 761v-137l-865 379v146zM967 578l-865 -392v147l865 384v-139z" />
    <glyph glyph-name="question" unicode="?" horiz-adv-x="996" 
d="M412 415q-1 7 -1 14v15q0 109 43.5 181t128.5 140q81 62 118.5 117t37.5 135q0 88 -57.5 146.5t-178.5 58.5q-117 0 -184 -65.5t-67 -184.5h-170q0 123 53.5 210t148.5 132.5t219 45.5q125 0 217 -41.5t142.5 -118t50.5 -183.5q0 -82 -24.5 -141t-70.5 -107.5t-110 -97.5
q-57 -44 -86.5 -82t-41 -79.5t-14.5 -94.5h-154zM492 -10q-54 0 -90.5 36.5t-36.5 89.5q0 54 36.5 89t90.5 35q55 0 91.5 -35t36.5 -89q0 -53 -36.5 -89.5t-91.5 -36.5z" />
    <glyph glyph-name="at" unicode="@" horiz-adv-x="1799" 
d="M914 -215q-243 0 -428 96.5t-289.5 274t-104.5 419.5q0 179 60 324.5t169 249.5t257 159.5t323 55.5q185 0 333 -57t254.5 -161t163 -244t56.5 -306q0 -157 -46 -252t-121.5 -137.5t-165.5 -42.5q-96 0 -160 40t-83 122q-32 -70 -105 -116t-172 -46q-112 0 -190.5 50.5
t-120 141t-41.5 211.5t44 211t125 139.5t193 49.5q89 0 153.5 -37t93.5 -87l7 112h151v-539q0 -69 30 -98t88 -29q64 0 104 38.5t59 107.5t19 159q0 197 -84.5 342.5t-235 226t-349.5 80.5q-197 0 -348.5 -81.5t-237 -231.5t-85.5 -355q0 -214 88 -363.5t241 -227.5t349 -78
q99 0 194.5 19.5t177.5 53.5v-132q-82 -30 -175.5 -46t-190.5 -16zM877 292q87 0 138 38t74 101t23 138q0 72 -22.5 134t-72 99.5t-130.5 37.5q-85 0 -134.5 -37.5t-70.5 -99.5t-21 -134q0 -74 20.5 -137.5t68 -101.5t127.5 -38z" />
    <glyph glyph-name="A" unicode="A" horiz-adv-x="1188" 
d="M-2 0l504 1346h189l499 -1346h-187l-127 377h-560l-133 -377h-185zM365 528h458l-227 639z" />
    <glyph glyph-name="B" unicode="B" horiz-adv-x="1193" 
d="M151 0v1346h432q203 0 324 -82t121 -250q0 -106 -59 -189t-157 -108q140 -23 223 -111.5t83 -218.5q0 -122 -54.5 -208.5t-163.5 -132.5t-274 -46h-475zM331 150h291q86 0 158 21.5t115.5 76t43.5 150.5q0 116 -84.5 173t-232.5 57h-291v-478zM331 774h251
q130 0 198.5 59.5t68.5 160.5q0 68 -31 113.5t-91 68t-145 22.5h-251v-424z" />
    <glyph glyph-name="C" unicode="C" horiz-adv-x="1343" 
d="M713 -18q-202 0 -340.5 88t-209.5 243t-71 359t71 360t209.5 244t340.5 88q133 0 251 -48t197 -146.5t92 -248.5h-181q-11 101 -63 166.5t-129.5 97.5t-166.5 32q-155 0 -251 -74t-140.5 -197t-44.5 -274q0 -150 44.5 -273t140.5 -195.5t251 -72.5t251 81t113 242h182
q-15 -159 -90 -263.5t-192.5 -156.5t-263.5 -52z" />
    <glyph glyph-name="D" unicode="D" horiz-adv-x="1341" 
d="M151 0v1346h432q211 0 360 -79.5t227.5 -230.5t78.5 -363q0 -213 -79 -364t-227.5 -230t-359.5 -79h-432zM331 151h212q177 0 292 56.5t172 173t57 293.5q0 176 -58 291.5t-173.5 172.5t-289.5 57h-212v-1044z" />
    <glyph glyph-name="E" unicode="E" horiz-adv-x="1107" 
d="M151 0v1346h858v-150h-678v-429h624v-148h-624v-469h678v-150h-858z" />
    <glyph glyph-name="F" unicode="F" horiz-adv-x="1043" 
d="M151 0v1346h838v-150h-658v-430h595v-147h-595v-619h-180z" />
    <glyph glyph-name="G" unicode="G" horiz-adv-x="1375" 
d="M715 -18q-203 0 -342 87t-210 242.5t-71 360.5q0 206 71 362t210 243t342 87q99 0 191 -26.5t166.5 -80t122 -134.5t58.5 -191h-182q-9 77 -54 141.5t-121.5 104t-182.5 39.5q-155 0 -251.5 -73.5t-142 -196.5t-45.5 -275q0 -151 45.5 -273.5t142.5 -194.5t253 -72
q134 0 220 50.5t128.5 141t44.5 208.5h-373v149h548v-105q0 -175 -63.5 -309t-189.5 -209.5t-315 -75.5z" />
    <glyph glyph-name="H" unicode="H" horiz-adv-x="1355" 
d="M151 0v1346h180v-565h695v565h178v-1346h-178v625h-695v-625h-180z" />
    <glyph glyph-name="I" unicode="I" horiz-adv-x="481" 
d="M151 0v1346h180v-1346h-180z" />
    <glyph glyph-name="J" unicode="J" horiz-adv-x="650" 
d="M32 -13v153h72q134 0 183.5 62t49.5 202v942h178v-945q0 -144 -40.5 -236t-128 -135t-229.5 -43h-85z" />
    <glyph glyph-name="K" unicode="K" horiz-adv-x="1134" 
d="M151 0v1346h180v-647l553 647h206l-562 -645l608 -701h-209l-596 691v-691h-180z" />
    <glyph glyph-name="L" unicode="L" horiz-adv-x="992" 
d="M151 0v1346h180v-1191h629v-155h-809z" />
    <glyph glyph-name="M" unicode="M" horiz-adv-x="1567" 
d="M151 0v1346h196l480 -793h-73l469 793h193v-1346h-178v1196h62l-457 -773h-118l-464 773h63v-1196h-173z" />
    <glyph glyph-name="N" unicode="N" horiz-adv-x="1394" 
d="M151 0v1346h183l739 -1071v1071h170v-1346h-184l-738 1073v-1073h-170z" />
    <glyph glyph-name="O" unicode="O" horiz-adv-x="1424" 
d="M714 -18q-206 0 -344 88t-208 243t-70 359t70 360t208 244t344 88q204 0 341.5 -88t207.5 -244t70 -360t-70 -359t-207.5 -243t-341.5 -88zM713 129q155 0 250.5 73t140 196.5t44.5 273.5q0 151 -44.5 274.5t-140 197t-250.5 73.5t-251 -73.5t-140.5 -197t-44.5 -274.5
q0 -150 44.5 -273.5t140.5 -196.5t251 -73z" />
    <glyph glyph-name="P" unicode="P" horiz-adv-x="1138" 
d="M151 0v1346h486q125 0 224.5 -47.5t157.5 -140t58 -226.5q0 -131 -58 -220t-157.5 -135t-224.5 -46h-306v-531h-180zM331 680h292q121 0 197 62.5t76 189.5q0 136 -76 201t-197 65h-292v-518z" />
    <glyph glyph-name="Q" unicode="Q" horiz-adv-x="1424" 
d="M1259 -283q-124 0 -206.5 22.5t-135.5 64.5t-88 99t-66 126l137 40q30 -51 57 -88t64.5 -60t97 -34.5t154.5 -11.5h54v-158h-68zM714 -18q-206 0 -344 88t-208 243t-70 359t70 360t208 244t344 88q204 0 341.5 -88t207.5 -244t70 -360t-70 -359t-207.5 -243t-341.5 -88z
M713 129q155 0 250.5 73t140 196.5t44.5 273.5q0 151 -44.5 274.5t-140 197t-250.5 73.5t-251 -73.5t-140.5 -197t-44.5 -274.5q0 -150 44.5 -273.5t140.5 -196.5t251 -73z" />
    <glyph glyph-name="R" unicode="R" horiz-adv-x="1209" 
d="M151 0v1346h509q116 0 211.5 -37t153.5 -116t58 -205q0 -128 -71.5 -218t-211.5 -122q73 -11 122 -46.5t82.5 -100.5t58.5 -164l88 -337h-183l-78 309q-23 93 -54 150.5t-76 84t-113 26.5h-316v-570h-180zM331 720h306q74 0 134 28t95.5 81t35.5 128q0 113 -66.5 176
t-192.5 63h-312v-476z" />
    <glyph glyph-name="S" unicode="S" horiz-adv-x="1118" 
d="M569 -18q-144 0 -261 44t-185 138t-68 244h180q1 -107 47.5 -168t123 -86t168.5 -25q86 0 156.5 25.5t112.5 77t42 131.5q0 71 -33 116t-109 78.5t-206 66.5q-152 40 -250 87.5t-145.5 118.5t-47.5 180q0 115 54 193.5t154.5 119.5t240.5 41q130 0 238 -42t172.5 -126
t64.5 -209h-181q2 114 -83 172.5t-210 58.5q-128 0 -200.5 -51.5t-72.5 -150.5q0 -59 31 -98.5t107.5 -71.5t211.5 -67q156 -42 253 -90t143 -123t46 -197q0 -130 -65.5 -215.5t-177 -128.5t-251.5 -43z" />
    <glyph glyph-name="T" unicode="T" horiz-adv-x="977" 
d="M398 0v1195h-382v151h943v-151h-381v-1195h-180z" />
    <glyph glyph-name="U" unicode="U" horiz-adv-x="1333" 
d="M666 -29q-186 0 -303 69t-172 189t-55 271v846h182v-824q0 -211 89 -305t259 -94q171 0 260 94t89 305v824h182v-846q0 -151 -54 -271t-171 -189t-306 -69z" />
    <glyph glyph-name="V" unicode="V" horiz-adv-x="1175" 
d="M482 0l-486 1346h191l401 -1156l401 1156h190l-489 -1346h-208z" />
    <glyph glyph-name="W" unicode="W" horiz-adv-x="1814" 
d="M389 0l-393 1346h188l304 -1123l322 1123h200l322 -1123l306 1123h180l-393 -1346h-188l-331 1138l-326 -1138h-191z" />
    <glyph glyph-name="X" unicode="X" horiz-adv-x="1127" 
d="M11 0l449 697l-417 649h203l317 -527l329 527h194l-419 -652l449 -694h-209l-344 558l-354 -558h-198z" />
    <glyph glyph-name="Y" unicode="Y" horiz-adv-x="1095" 
d="M456 0v536l-460 810h196l357 -650l355 650h196l-462 -810v-536h-182z" />
    <glyph glyph-name="Z" unicode="Z" horiz-adv-x="1056" 
d="M39 0v142l729 1053h-682v151h893v-137l-733 -1058h771v-151h-978z" />
    <glyph glyph-name="bracketleft" unicode="[" horiz-adv-x="603" 
d="M136 -360v1714h391v-140h-229v-1433h229v-141h-391z" />
    <glyph glyph-name="backslash" unicode="\" horiz-adv-x="695" 
d="M513 0l-490 1346h159l490 -1346h-159z" />
    <glyph glyph-name="bracketright" unicode="]" horiz-adv-x="603" 
d="M75 -360v141h229v1433h-229v140h391v-1714h-391z" />
    <glyph glyph-name="asciicircum" unicode="^" horiz-adv-x="1071" 
d="M137 780l330 566h136l330 -566h-176l-222 388l-222 -388h-176z" />
    <glyph glyph-name="underscore" unicode="_" horiz-adv-x="942" 
d="M0 -236v95h942v-95h-942z" />
    <glyph glyph-name="grave" unicode="`" horiz-adv-x="1130" 
d="M529 1110l-267 269h192l204 -269h-129z" />
    <glyph glyph-name="a" unicode="a" horiz-adv-x="1002" 
d="M372 -18q-79 0 -144 31t-104 93t-39 154q0 132 77.5 200t219.5 92t332 26v71q0 125 -57 171.5t-143 46.5q-94 0 -158 -49.5t-64 -158.5h-162q0 118 49.5 191.5t136.5 107t198 33.5q70 0 135 -14t117 -51t82 -103.5t30 -171.5v-651h-154l-6 142q-64 -74 -149 -117
t-197 -43zM416 110q95 0 170 44.5t127 116.5v203q-247 -3 -354 -50.5t-107 -156.5q0 -72 41 -114.5t123 -42.5z" />
    <glyph glyph-name="b" unicode="b" horiz-adv-x="1062" 
d="M602 -18q-106 0 -181.5 39.5t-123.5 116.5l-8 -138h-157v1346h168v-526q47 70 124 120.5t183 50.5q114 0 196.5 -56.5t127.5 -168.5t45 -279q0 -166 -45.5 -278.5t-129.5 -169.5t-199 -57zM570 119q119 0 176.5 96.5t57.5 272.5q0 178 -57 273t-172 95
q-100 0 -168.5 -57.5t-106.5 -132.5v-377q38 -78 105.5 -124t164.5 -46z" />
    <glyph glyph-name="c" unicode="c" horiz-adv-x="1009" 
d="M523 -17q-128 0 -227 56t-155 167.5t-56 277.5t55 279t153.5 170t229.5 57q110 0 197.5 -37t140 -111.5t56.5 -188.5h-165q-7 94 -67.5 148t-158.5 54q-133 0 -201 -97.5t-68 -273.5q0 -116 30 -198t90 -125t149 -43q100 0 165 55t68 162h164q-2 -117 -55.5 -195.5
t-143 -117.5t-201.5 -39z" />
    <glyph glyph-name="d" unicode="d" horiz-adv-x="1062" 
d="M459 -18q-114 0 -198 56.5t-130 167.5t-46 275q0 169 47 282.5t134 171t205 57.5q106 0 178.5 -45t117.5 -122v521h163v-1346h-154l-11 147q-47 -74 -123 -119.5t-183 -45.5zM488 119q101 0 168.5 52t105.5 124v378q-37 81 -101.5 131.5t-159.5 50.5q-122 0 -183 -96.5
t-61 -276.5q0 -176 58.5 -269.5t172.5 -93.5z" />
    <glyph glyph-name="e" unicode="e" horiz-adv-x="1012" 
d="M532 -18q-152 0 -251 66.5t-147.5 181t-48.5 257.5q0 149 47 262.5t142.5 177.5t239.5 64q193 0 302 -120t109 -345q0 -15 -0.5 -35.5t-2.5 -29.5h-669q1 -95 29 -174.5t89.5 -127.5t160.5 -48q107 0 166.5 52.5t62.5 151.5h165q-3 -103 -51.5 -177.5t-135.5 -115
t-207 -40.5zM254 583h506q-3 136 -67 208t-179 72q-117 0 -182.5 -71.5t-77.5 -208.5z" />
    <glyph glyph-name="f" unicode="f" horiz-adv-x="580" 
d="M176 0v839h-162v135h162v56q0 75 12.5 133.5t44.5 99.5t88.5 62t146.5 21h102v-131h-92q-88 0 -111.5 -48.5t-23.5 -139.5v-53h225v-135h-225v-839h-167z" />
    <glyph glyph-name="g" unicode="g" horiz-adv-x="900" 
d="M447 -377q-151 0 -242 36t-131.5 96t-40.5 130q0 85 72.5 151t224.5 93l31 55h111q227 0 324.5 -63.5t97.5 -196.5q0 -132 -114 -216.5t-333 -84.5zM443 -256q158 0 224.5 48t66.5 119q0 42 -22 72.5t-80 47.5t-166 17h-135q-69 -17 -104.5 -58t-35.5 -95
q0 -60 58 -105.5t194 -45.5zM328 69q-97 4 -152 31t-78 63.5t-23 67.5q0 46 41 92t131 74l85 -55q-55 -12 -85 -37t-30 -52q0 -19 18 -34.5t62 -24.5t120 -10zM436 315q-115 0 -195 46t-121 122t-41 164q0 93 41.5 169t121 121t195.5 45q119 0 197.5 -45t118 -121t39.5 -169
q0 -90 -40 -165.5t-118.5 -121t-197.5 -45.5zM437 429q88 0 143 55t55 163q0 113 -53.5 167.5t-142.5 54.5t-145 -56t-56 -165q0 -110 60 -164.5t139 -54.5zM682 875l-67 63q37 94 105.5 128t173.5 37v-141q-66 0 -121 -14.5t-91 -72.5z" />
    <glyph glyph-name="h" unicode="h" horiz-adv-x="1036" 
d="M132 0v1346h166v-522q44 58 123.5 108.5t202.5 50.5q153 0 220 -92.5t67 -262.5v-628h-166v605q0 69 -13 123t-47.5 84.5t-101.5 30.5q-102 0 -172 -48.5t-112 -104.5v-690h-167z" />
    <glyph glyph-name="i" unicode="i" horiz-adv-x="431" 
d="M132 0v974h167v-974h-167zM216 1157q-48 0 -76 27.5t-28 69.5t28 69.5t76 27.5q47 0 76 -27.5t29 -69.5t-29 -69.5t-76 -27.5z" />
    <glyph glyph-name="j" unicode="j" horiz-adv-x="431" 
d="M-56 -360v137h44q72 0 108.5 34.5t36.5 115.5v1047h167v-1033q0 -146 -67 -223.5t-220 -77.5h-69zM222 1157q-48 0 -76 27.5t-28 69.5t28 69.5t76 27.5q47 0 76 -27.5t29 -69.5t-29 -69.5t-76 -27.5z" />
    <glyph glyph-name="k" unicode="k" horiz-adv-x="916" 
d="M132 0v1346h167v-831l393 459h190l-394 -457l436 -517h-197l-428 506v-506h-167z" />
    <glyph glyph-name="l" unicode="l" horiz-adv-x="499" 
d="M415 0q-118 0 -181 37.5t-86.5 108t-23.5 169.5v1031h167v-1023q0 -91 23.5 -139t111.5 -48h45v-136h-56z" />
    <glyph glyph-name="m" unicode="m" horiz-adv-x="1638" 
d="M132 0v974h162l4 -150q42 58 119 108.5t192 50.5q160 0 229 -94t69 -261v-628h-166v605q0 69 -13 123t-49.5 84.5t-106.5 30.5q-96 0 -163.5 -48.5t-109.5 -104.5v-690h-167zM1346 0v605q0 69 -13.5 123t-49.5 84.5t-105 30.5q-96 0 -165 -48t-110 -104l-25 123
q55 63 138 116t200 53q157 0 227 -94t70 -261v-628h-167z" />
    <glyph glyph-name="n" unicode="n" horiz-adv-x="1036" 
d="M132 0v974h162l4 -150q43 58 123 108.5t200 50.5q156 0 223 -93t67 -262v-628h-166v605q0 69 -13.5 123t-49 84.5t-101.5 30.5q-101 0 -170.5 -48.5t-111.5 -104.5v-690h-167z" />
    <glyph glyph-name="o" unicode="o" horiz-adv-x="1050" 
d="M519 -16q-137 0 -234 60t-148.5 172.5t-51.5 268.5q0 158 51.5 271.5t148.5 174.5t234 61q140 0 240 -61t153 -174.5t53 -271.5q0 -156 -53 -268.5t-153 -172.5t-240 -60zM519 116q101 0 160.5 48t86 131t26.5 190t-26.5 191t-86 132.5t-160.5 48.5q-95 0 -153 -48.5
t-83.5 -132.5t-25.5 -192q0 -106 25.5 -189t83.5 -131t153 -48z" />
    <glyph glyph-name="p" unicode="p" horiz-adv-x="1062" 
d="M132 -361v1335h166l1 -159q50 80 127 128t181 48q114 0 197 -56.5t127.5 -168.5t44.5 -279q0 -166 -46 -279t-130 -169.5t-198 -56.5q-104 0 -179.5 40.5t-126.5 114.5v-498h-164zM571 119q118 0 175.5 96t57.5 272q0 178 -58.5 273.5t-173.5 95.5q-101 0 -167.5 -56.5
t-104.5 -133.5v-376q38 -74 105 -122.5t166 -48.5z" />
    <glyph glyph-name="q" unicode="q" horiz-adv-x="1062" 
d="M765 -361v508q-48 -76 -126 -123t-182 -47q-113 0 -196.5 57t-129.5 169.5t-46 277.5q0 168 48 280.5t135.5 169t203.5 56.5q106 0 177.5 -43.5t117.5 -118.5l3 149h160v-1335h-165zM486 115q102 0 169.5 53t106.5 128v377q-38 79 -100.5 128.5t-161.5 49.5
q-117 0 -180 -96t-63 -274q0 -177 57.5 -271.5t171.5 -94.5z" />
    <glyph glyph-name="r" unicode="r" horiz-adv-x="635" 
d="M132 0v974h157l6 -165q42 75 115 126t189 51h20v-153h-23q-73 0 -128 -19t-95.5 -52.5t-73.5 -77.5v-684h-167z" />
    <glyph glyph-name="s" unicode="s" horiz-adv-x="948" 
d="M482 -13q-83 0 -156.5 17.5t-129.5 56.5t-87.5 101t-31.5 151h161q0 -112 71 -157t177 -45q95 0 156.5 35.5t61.5 116.5q0 72 -55.5 106t-196.5 69q-114 27 -191 62.5t-116 90t-39 137.5q0 64 27.5 112.5t77 81t116 49t144.5 16.5q77 0 144.5 -18t119.5 -55.5t81.5 -97
t29.5 -141.5h-162q0 101 -61.5 143.5t-151.5 42.5t-146 -31t-56 -97q0 -39 25 -66t84 -48.5t158 -45.5q110 -26 183.5 -62t111 -93t37.5 -147q0 -74 -29 -128t-81.5 -88.5t-123 -51t-152.5 -16.5z" />
    <glyph glyph-name="t" unicode="t" horiz-adv-x="622" 
d="M469 0q-117 0 -180.5 37.5t-87 108t-23.5 169.5v524h-162v135h162v223h167v-223h241v-135h-241v-516q0 -91 23.5 -139t111.5 -48h106v-136h-117z" />
    <glyph glyph-name="u" unicode="u" horiz-adv-x="1036" 
d="M421 -10q-158 0 -227.5 94.5t-69.5 260.5v629h168v-606q0 -68 13.5 -120t50.5 -81.5t106 -29.5q100 0 167 45t108 102v690h167v-974h-161l-4 150q-43 -57 -121.5 -108.5t-196.5 -51.5z" />
    <glyph glyph-name="v" unicode="v" horiz-adv-x="886" 
d="M353 0l-357 974h176l273 -810l275 810h170l-353 -974h-184z" />
    <glyph glyph-name="w" unicode="w" horiz-adv-x="1466" 
d="M318 0l-312 974h174l231 -786l234 786h185l237 -785l229 785h164l-311 -974h-177l-238 793l-239 -793h-177z" />
    <glyph glyph-name="x" unicode="x" horiz-adv-x="902" 
d="M7 0l353 529l76 55l247 390h179l-329 -490l-68 -53l-281 -431h-177zM717 0l-285 431l-64 52l-330 491h179l248 -390l76 -54l354 -530h-178z" />
    <glyph glyph-name="y" unicode="y" horiz-adv-x="886" 
d="M85 -361v138h83q61 0 98 31.5t66 103.5l37 88l-373 974h176l285 -797l263 797h170l-350 -974l-44 -114q-35 -93 -75.5 -147t-96.5 -77t-139 -23h-100z" />
    <glyph glyph-name="z" unicode="z" horiz-adv-x="872" 
d="M64 0v128l516 711h-474v135h674v-119l-523 -720h552v-135h-745z" />
    <glyph glyph-name="braceleft" unicode="{" horiz-adv-x="603" 
d="M437 -360q-73 0 -126.5 29.5t-83 86.5t-29.5 138v267q0 103 -17.5 161.5t-59 82t-114.5 23.5v136q73 0 114.5 25t59 82.5t17.5 155.5v274q0 83 29.5 139t83 85t126.5 29h90v-129h-51q-63 0 -90.5 -40t-27.5 -109v-285q0 -96 -20 -154t-55 -89t-81 -46q47 -18 82 -52
t54.5 -92.5t19.5 -153.5v-286q0 -70 27.5 -109t90.5 -39h51v-130h-90z" />
    <glyph glyph-name="bar" unicode="|" horiz-adv-x="449" 
d="M152 -358v1704h145v-1704h-145z" />
    <glyph glyph-name="braceright" unicode="}" horiz-adv-x="603" 
d="M75 -360v130h52q62 0 89.5 39t27.5 109v286q0 95 19.5 153.5t55 92.5t81.5 52q-45 15 -80.5 46t-55.5 89t-20 154v285q0 69 -27.5 109t-89.5 40h-52v129h91q73 0 127 -29t83.5 -85t29.5 -139v-274q0 -98 17 -155.5t58.5 -82.5t115.5 -25v-136q-74 0 -115.5 -23.5
t-58.5 -82t-17 -161.5v-267q0 -81 -29.5 -138t-83.5 -86.5t-127 -29.5h-91z" />
    <glyph glyph-name="asciitilde" unicode="~" horiz-adv-x="1071" 
d="M753 502q-88 0 -148.5 37t-111.5 79q-46 38 -81.5 61t-87.5 23q-56 0 -88 -46.5t-35 -148.5l-146 7q8 157 76.5 248t188.5 91q87 0 147 -36t111 -79q46 -38 82 -61t89 -23q55 0 86.5 46.5t35.5 149.5l144 -7q-6 -159 -74 -250t-188 -91z" />
    <glyph glyph-name="uni00A0" unicode="&#xa0;" horiz-adv-x="395" 
 />
    <glyph glyph-name="exclamdown" unicode="&#xa1;" horiz-adv-x="504" 
d="M165 -362v376q0 148 12 295t27 261h96q18 -114 29.5 -261t11.5 -295v-376h-176zM254 743q-56 0 -92.5 35.5t-36.5 88.5q0 54 36.5 90t92.5 36q53 0 89 -36t36 -90q0 -53 -36 -88.5t-89 -35.5z" />
    <glyph glyph-name="cent" unicode="&#xa2;" horiz-adv-x="1071" 
d="M508 -217v1393h107v-1393h-107zM555 -17q-129 0 -227.5 56t-154.5 167.5t-56 277.5t55 279t153.5 170t229.5 57q110 0 197.5 -37t140 -111.5t56.5 -188.5h-165q-7 94 -67.5 148t-158.5 54q-134 0 -201.5 -97.5t-67.5 -273.5q0 -175 67.5 -270.5t201.5 -95.5q99 0 165 55
t68 162h164q-2 -117 -55.5 -195.5t-143 -117.5t-201.5 -39z" />
    <glyph glyph-name="sterling" unicode="&#xa3;" horiz-adv-x="1071" 
d="M110 0v138q134 59 182 131t48 145q0 58 -22.5 118t-66.5 139q-53 96 -78.5 164t-25.5 140q0 156 112 252t315 96q130 0 224 -42.5t145 -127.5t51 -213h-163q2 90 -33 142t-93 75t-128 23q-121 0 -193 -58t-72 -154q0 -52 22.5 -108t64.5 -133q52 -93 79.5 -165.5
t27.5 -144.5q0 -55 -21.5 -117.5t-82 -116t-178.5 -82.5v52h770v-153h-884zM74 530v115h770v-115h-770z" />
    <glyph glyph-name="currency" unicode="&#xa4;" horiz-adv-x="1071" 
d="M191 210l-98 99l131 131q-31 45 -49 99t-18 113q0 60 18 114.5t49 99.5l-131 131l98 97l131 -131q45 33 100 50.5t114 17.5t113 -17.5t100 -50.5l130 131l99 -97l-132 -132q32 -45 49.5 -99t17.5 -114q0 -59 -17.5 -112.5t-49.5 -98.5l132 -132l-99 -99l-132 132
q-45 -31 -99 -48.5t-113 -17.5q-58 0 -112 17.5t-101 48.5zM536 413q66 0 120.5 32t86.5 86.5t32 120.5q0 67 -32 121.5t-86.5 86t-121.5 31.5q-66 0 -120.5 -31.5t-86.5 -86t-32 -121.5q0 -66 32 -120.5t86.5 -86.5t121.5 -32z" />
    <glyph glyph-name="yen" unicode="&#xa5;" horiz-adv-x="1071" 
d="M128 511v114h815v-114h-815zM128 274v115h815v-115h-815zM448 0v523l-431 782h187l333 -634l332 634h185l-434 -782v-523h-172z" />
    <glyph glyph-name="brokenbar" unicode="&#xa6;" horiz-adv-x="449" 
d="M152 301h145v-659h-145v659zM152 1346h145v-660h-145v660z" />
    <glyph glyph-name="section" unicode="&#xa7;" horiz-adv-x="913" 
d="M461 -15q-79 0 -148.5 17t-122.5 54.5t-83 97t-30 145.5h154q0 -108 65.5 -151t167.5 -43q92 0 153 33.5t61 111.5q0 70 -53 103t-189 66q-78 19 -140 41.5t-105 53.5t-65.5 73t-22.5 101q0 96 71 160.5t196 64.5l84 -70q-86 -2 -141.5 -35t-55.5 -97q0 -71 69 -103
t190 -62q106 -26 177 -58.5t107 -86t36 -141.5q0 -73 -28.5 -125t-79.5 -85.5t-119.5 -49t-147.5 -15.5zM603 460l-96 61q76 6 125 41t49 106q0 68 -53.5 101.5t-191.5 65.5q-80 19 -142 41.5t-104.5 53.5t-64.5 75t-22 104q0 63 26.5 111t74 79.5t111.5 47t139 15.5
q73 0 138.5 -17t115.5 -53t78.5 -93t28.5 -136h-156q0 97 -59.5 138t-145.5 41q-84 0 -138 -30.5t-54 -95.5q0 -38 24.5 -63t80 -45t149.5 -45q106 -26 177 -59t107 -85.5t36 -138.5q0 -76 -36.5 -124.5t-90.5 -72t-106 -23.5z" />
    <glyph glyph-name="dieresis" unicode="&#xa8;" horiz-adv-x="1130" 
d="M741 1164q-40 0 -66.5 25t-26.5 65q0 39 26.5 64.5t66.5 25.5t67 -25.5t27 -64.5q0 -40 -27 -65t-67 -25zM389 1164q-39 0 -66.5 25t-27.5 65q0 39 27.5 64.5t66.5 25.5q40 0 67 -25.5t27 -64.5q0 -40 -27 -65t-67 -25z" />
    <glyph glyph-name="copyright" unicode="&#xa9;" horiz-adv-x="1534" 
d="M766 -18q-143 0 -268 53.5t-220 148.5t-148.5 220t-53.5 268q0 144 53.5 269.5t148.5 220.5t220 148.5t268 53.5q144 0 269.5 -53.5t220.5 -148.5t148.5 -220.5t53.5 -269.5q0 -143 -53.5 -268t-148.5 -220t-220.5 -148.5t-269.5 -53.5zM766 112q117 0 218 43.5t178 121
t120 178.5t43 217q0 117 -43.5 218.5t-120.5 179t-178.5 120.5t-216.5 43q-116 0 -217 -43.5t-177.5 -121t-119.5 -179t-43 -217.5t43.5 -217.5t120 -178.5t177.5 -120.5t216 -43.5zM784 275q-171 0 -270 107t-99 290q0 185 99 291.5t270 106.5q142 0 231.5 -78.5
t94.5 -207.5h-141q-1 73 -52 117t-133 44q-109 0 -168 -70.5t-59 -202.5q0 -131 59 -201t168 -70q90 0 137 46t50 130h143q-6 -141 -95 -221.5t-235 -80.5z" />
    <glyph glyph-name="ordfeminine" unicode="&#xaa;" horiz-adv-x="879" 
d="M330 557q-66 0 -122.5 26t-90.5 77.5t-34 127.5q0 107 65.5 160.5t184.5 73.5t281 22v54q0 87 -47 121t-119 34q-76 0 -127 -35.5t-51 -114.5h-147q-3 138 89.5 199.5t235.5 61.5q87 0 158.5 -23t114 -80.5t42.5 -162.5v-521h-141l-7 109q-52 -61 -122.5 -95t-162.5 -34z
M375 670q80 0 143 39.5t96 102.5v141q-203 -3 -290.5 -40.5t-87.5 -118.5q0 -58 36.5 -91t102.5 -33z" />
    <glyph glyph-name="guillemotleft" unicode="&#xab;" horiz-adv-x="810" 
d="M742 184l-315 282v100l315 281v-161l-184 -170l184 -170v-162zM385 184l-316 282v100l316 281v-161l-183 -170l183 -170v-162z" />
    <glyph glyph-name="logicalnot" unicode="&#xac;" horiz-adv-x="1071" 
d="M102 973h865v-146h-865v146zM822 367v606h145v-606h-145z" />
    <glyph glyph-name="uni00AD" unicode="&#xad;" horiz-adv-x="714" 
d="M107 468v148h499v-148h-499z" />
    <glyph glyph-name="registered" unicode="&#xae;" horiz-adv-x="918" 
d="M458 602q-102 0 -187 51t-135.5 136.5t-50.5 187.5q0 104 50.5 189t135.5 135.5t187 50.5q104 0 189 -50.5t135.5 -135.5t50.5 -189q0 -102 -50.5 -187.5t-135.5 -136.5t-189 -51zM458 685q80 0 146 39.5t105 106t39 146.5q0 81 -39 147t-105 105t-146 39q-78 0 -143 -39
t-104.5 -105t-39.5 -147q0 -80 39.5 -146.5t104.5 -106t143 -39.5zM321 800v365h155q62 0 98 -27t36 -75q0 -41 -23.5 -65t-61.5 -33l3 14q30 -7 47.5 -25.5t27.5 -52.5l31 -101h-86l-25 87q-10 32 -21 43t-36 11h-63v-141h-82zM403 1007h67q27 0 41.5 12.5t14.5 32.5
q0 43 -54 43h-69v-88z" />
    <glyph glyph-name="macron" unicode="&#xaf;" horiz-adv-x="1130" 
d="M293 1178v123h545v-123h-545z" />
    <glyph glyph-name="degree" unicode="&#xb0;" horiz-adv-x="748" 
d="M374 687q-87 0 -159 43t-115 115.5t-43 159.5q0 88 43 160.5t115 115t159 42.5q88 0 160 -42.5t115 -115t43 -160.5q0 -87 -43 -159.5t-115 -115.5t-160 -43zM374 825q76 0 128.5 53t52.5 127q0 75 -52.5 128t-128.5 53q-75 0 -127.5 -53t-52.5 -128q0 -74 52.5 -127
t127.5 -53z" />
    <glyph glyph-name="plusminus" unicode="&#xb1;" horiz-adv-x="1071" 
d="M102 830h865v-133h-865v133zM462 438v651h145v-651h-145zM102 383h865v-132h-865v132z" />
    <glyph glyph-name="uni00B2" unicode="&#xb2;" horiz-adv-x="696" 
d="M53 974v97l313 260q67 57 99 100.5t32 97.5t-34 90.5t-114 36.5q-88 0 -125.5 -42t-37.5 -105h-127q0 120 74.5 190.5t215.5 70.5q131 0 206 -61.5t75 -169.5q0 -68 -28.5 -119.5t-73 -94t-94.5 -82.5l-193 -155h406v-114h-594z" />
    <glyph glyph-name="uni00B3" unicode="&#xb3;" horiz-adv-x="696" 
d="M356 962q-140 0 -221 65t-81 188h126q0 -64 46 -103t128 -39q78 0 120 33t42 99q0 67 -48 97.5t-130 30.5h-52v107h55q75 0 115 30.5t40 84.5q0 53 -39 79t-104 26q-70 0 -110.5 -33.5t-39.5 -89.5h-126q0 77 35 128.5t97 78t142 26.5q74 0 135.5 -22t98.5 -67t37 -113
q0 -69 -40 -115t-109 -63q76 -14 126.5 -63.5t50.5 -129.5q0 -113 -81 -174t-213 -61z" />
    <glyph glyph-name="acute" unicode="&#xb4;" horiz-adv-x="1130" 
d="M471 1110l203 269h194l-268 -269h-129z" />
    <glyph glyph-name="mu" unicode="&#xb5;" horiz-adv-x="1064" 
d="M132 -361v1335h168v-606q0 -68 15 -120t54 -81.5t110 -29.5q103 0 173 45t113 102v690h167v-974h-161l-4 150q-56 -80 -136 -120t-161 -40q-76 0 -140.5 33.5t-103 99.5t-38.5 164h108v-648h-164z" />
    <glyph glyph-name="paragraph" unicode="&#xb6;" horiz-adv-x="1117" 
d="M508 -195v824h-74q-163 0 -260.5 97.5t-97.5 260.5t97.5 261t260.5 98h551v-1541h-149v1397h-177v-1397h-151z" />
    <glyph glyph-name="periodcentered" unicode="&#xb7;" horiz-adv-x="504" 
d="M254 396q-56 0 -93 36.5t-37 89.5q0 55 37 90.5t93 35.5q54 0 90.5 -35.5t36.5 -90.5q0 -53 -36.5 -89.5t-90.5 -36.5z" />
    <glyph glyph-name="cedilla" unicode="&#xb8;" horiz-adv-x="1130" 
d="M575 -382q-57 0 -100 9.5t-81 24.5l27 93q26 -12 66.5 -20.5t81.5 -8.5q36 0 61 17t25 48q0 33 -30 51t-113 28l-44 5l132 177l87 -30l-74 -100l-30 23q94 -4 145.5 -42t51.5 -109q0 -55 -27 -92t-73 -55.5t-105 -18.5z" />
    <glyph glyph-name="uni00B9" unicode="&#xb9;" horiz-adv-x="696" 
d="M345 974v627q-28 -31 -84 -60.5t-140 -41.5v124q54 12 99.5 34t80.5 50t57 57h123v-790h-136z" />
    <glyph glyph-name="ordmasculine" unicode="&#xba;" horiz-adv-x="915" 
d="M452 557q-114 0 -197 48.5t-127.5 138.5t-44.5 215q0 128 44.5 218.5t127.5 138.5t197 48q118 0 203 -48.5t131.5 -139t46.5 -217.5q0 -125 -46.5 -215t-131.5 -138.5t-203 -48.5zM452 678q125 0 175.5 80t50.5 201q0 82 -22 146t-71 101t-133 37q-117 0 -167 -80
t-50 -204q0 -121 50 -201t167 -80z" />
    <glyph glyph-name="guillemotright" unicode="&#xbb;" horiz-adv-x="810" 
d="M427 184v162l182 170l-182 170v161l315 -281v-100zM69 184v162l183 170l-183 170v161l316 -281v-100z" />
    <glyph glyph-name="onequarter" unicode="&#xbc;" horiz-adv-x="1463" 
d="M261 527v627q-28 -31 -84 -60.5t-140 -41.5v124q54 12 99.5 34t80.5 50t57 57h123v-790h-136zM231 0l794 1305h136l-795 -1305h-135zM1169 0v151h-397v114l396 523h133v-526h111v-111h-111v-151h-132zM896 262h274v352z" />
    <glyph glyph-name="onehalf" unicode="&#xbd;" horiz-adv-x="1572" 
d="M261 527v627q-28 -31 -84 -60.5t-140 -41.5v124q54 12 99.5 34t80.5 50t57 57h123v-790h-136zM251 0l794 1305h136l-795 -1305h-135zM928 0v97l313 260q67 57 99 100.5t32 97.5t-34 90.5t-114 36.5q-88 0 -125.5 -42t-37.5 -105h-127q0 120 74.5 190.5t215.5 70.5
q131 0 206 -61.5t75 -169.5q0 -68 -28.5 -119.5t-73 -94t-94.5 -82.5l-193 -155h406v-114h-594z" />
    <glyph glyph-name="threequarters" unicode="&#xbe;" horiz-adv-x="1629" 
d="M356 515q-140 0 -221 65t-81 188h126q0 -64 46 -103t128 -39q78 0 120 33t42 99q0 67 -48 97.5t-130 30.5h-52v107h55q75 0 115 30.5t40 84.5q0 53 -39 79t-104 26q-70 0 -110.5 -33.5t-39.5 -89.5h-126q0 77 35 128.5t97 78t142 26.5q74 0 135.5 -22t98.5 -67t37 -113
q0 -69 -40 -115t-109 -63q76 -14 126.5 -63.5t50.5 -129.5q0 -113 -81 -174t-213 -61zM377 0l794 1305h136l-795 -1305h-135zM1287 0v151h-397v114l396 523h133v-526h111v-111h-111v-151h-132zM1014 262h274v352z" />
    <glyph glyph-name="questiondown" unicode="&#xbf;" horiz-adv-x="996" 
d="M584 565q0 -6 0.5 -13.5t0.5 -15.5q0 -109 -43.5 -180.5t-129.5 -140.5q-80 -62 -117.5 -117t-37.5 -135q0 -88 57.5 -146.5t178.5 -58.5q117 0 184 66t67 184h169q0 -123 -53 -209.5t-148.5 -132.5t-218.5 -46q-125 0 -217.5 41.5t-143 118.5t-50.5 183q0 82 25 141
t71.5 107.5t109.5 97.5q57 44 86 82t40.5 80t15.5 94h154zM504 990q54 0 90 -36.5t36 -89.5t-36 -88.5t-90 -35.5q-55 0 -91.5 35.5t-36.5 88.5t36.5 89.5t91.5 36.5z" />
    <glyph glyph-name="Agrave" unicode="&#xc0;" horiz-adv-x="1188" 
d="M-2 0l504 1346h189l499 -1346h-187l-127 377h-560l-133 -377h-185zM365 528h458l-227 639zM549 1462l-257 269h193l194 -269h-130z" />
    <glyph glyph-name="Aacute" unicode="&#xc1;" horiz-adv-x="1188" 
d="M-2 0l504 1346h189l499 -1346h-187l-127 377h-560l-133 -377h-185zM365 528h458l-227 639zM509 1462l194 269h193l-257 -269h-130z" />
    <glyph glyph-name="Acircumflex" unicode="&#xc2;" horiz-adv-x="1188" 
d="M-2 0l504 1346h189l499 -1346h-187l-127 377h-560l-133 -377h-185zM365 528h458l-227 639zM296 1462l214 271h167l214 -271h-139l-158 174l-160 -174h-138z" />
    <glyph glyph-name="Atilde" unicode="&#xc3;" horiz-adv-x="1188" 
d="M-2 0l504 1346h189l499 -1346h-187l-127 377h-560l-133 -377h-185zM365 528h458l-227 639zM282 1484q12 92 54.5 146t126.5 54q41 0 80.5 -14t76.5 -31q33 -14 59.5 -23t48.5 -9q32 0 53 20t27 62h98q-11 -89 -51 -141.5t-124 -52.5q-44 0 -83 13.5t-74 28.5
q-34 15 -60 24.5t-49 9.5q-34 0 -56 -21t-29 -66h-98z" />
    <glyph glyph-name="Adieresis" unicode="&#xc4;" horiz-adv-x="1188" 
d="M-2 0l504 1346h189l499 -1346h-187l-127 377h-560l-133 -377h-185zM365 528h458l-227 639zM770 1510q-40 0 -66.5 25t-26.5 65t26.5 65.5t66.5 25.5t67 -25.5t27 -65.5t-27 -65t-67 -25zM418 1510q-39 0 -66.5 25t-27.5 65t27.5 65.5t66.5 25.5q40 0 67 -25.5t27 -65.5
t-27 -65t-67 -25z" />
    <glyph glyph-name="Aring" unicode="&#xc5;" horiz-adv-x="1188" 
d="M-2 0l504 1346h189l499 -1346h-187l-127 377h-560l-133 -377h-185zM365 528h458l-227 639zM594 1377q-92 0 -150 56t-58 147q0 90 58 145.5t150 55.5t150 -55.5t58 -145.5q0 -91 -58 -147t-150 -56zM594 1472q47 0 76 30.5t29 78.5q0 46 -29 76.5t-76 30.5
q-46 0 -75 -30.5t-29 -76.5q0 -48 29 -78.5t75 -30.5z" />
    <glyph glyph-name="AE" unicode="&#xc6;" horiz-adv-x="1900" 
d="M-43 0l870 1346h146v-175h-77l-450 -706v-11l-285 -454h-204zM367 377v151h661v-151h-661zM944 0v1346h858v-150h-678v-429h624v-148h-624v-469h678v-150h-858z" />
    <glyph glyph-name="Ccedilla" unicode="&#xc7;" horiz-adv-x="1343" 
d="M713 -18q-202 0 -340.5 88t-209.5 243t-71 359t71 360t209.5 244t340.5 88q133 0 251 -48t197 -146.5t92 -248.5h-181q-11 101 -63 166.5t-129.5 97.5t-166.5 32q-155 0 -251 -74t-140.5 -197t-44.5 -274q0 -150 44.5 -273t140.5 -195.5t251 -72.5t251 81t113 242h182
q-15 -159 -90 -263.5t-192.5 -156.5t-263.5 -52zM642 -382q-57 0 -100 9.5t-81 24.5l27 93q26 -12 66.5 -20.5t81.5 -8.5q36 0 61 17t25 48q0 33 -30 51t-113 28l-44 5l132 177l87 -30l-74 -100l-30 23q94 -4 145.5 -42t51.5 -109q0 -55 -27 -92t-73 -55.5t-105 -18.5z" />
    <glyph glyph-name="Egrave" unicode="&#xc8;" horiz-adv-x="1107" 
d="M151 0v1346h858v-150h-678v-429h624v-148h-624v-469h678v-150h-858zM535 1462l-257 269h193l194 -269h-130z" />
    <glyph glyph-name="Eacute" unicode="&#xc9;" horiz-adv-x="1107" 
d="M151 0v1346h858v-150h-678v-429h624v-148h-624v-469h678v-150h-858zM495 1462l194 269h193l-257 -269h-130z" />
    <glyph glyph-name="Ecircumflex" unicode="&#xca;" horiz-adv-x="1107" 
d="M151 0v1346h858v-150h-678v-429h624v-148h-624v-469h678v-150h-858zM282 1462l214 271h167l214 -271h-139l-158 174l-160 -174h-138z" />
    <glyph glyph-name="Edieresis" unicode="&#xcb;" horiz-adv-x="1107" 
d="M151 0v1346h858v-150h-678v-429h624v-148h-624v-469h678v-150h-858zM756 1510q-40 0 -66.5 25t-26.5 65t26.5 65.5t66.5 25.5t67 -25.5t27 -65.5t-27 -65t-67 -25zM404 1510q-39 0 -66.5 25t-27.5 65t27.5 65.5t66.5 25.5q40 0 67 -25.5t27 -65.5t-27 -65t-67 -25z" />
    <glyph glyph-name="Igrave" unicode="&#xcc;" horiz-adv-x="481" 
d="M151 0v1346h180v-1346h-180zM195 1462l-257 269h193l194 -269h-130z" />
    <glyph glyph-name="Iacute" unicode="&#xcd;" horiz-adv-x="481" 
d="M151 0v1346h180v-1346h-180zM155 1462l194 269h193l-257 -269h-130z" />
    <glyph glyph-name="Icircumflex" unicode="&#xce;" horiz-adv-x="481" 
d="M151 0v1346h180v-1346h-180zM-58 1462l214 271h167l214 -271h-139l-158 174l-160 -174h-138z" />
    <glyph glyph-name="Idieresis" unicode="&#xcf;" horiz-adv-x="481" 
d="M151 0v1346h180v-1346h-180zM416 1510q-40 0 -66.5 25t-26.5 65t26.5 65.5t66.5 25.5t67 -25.5t27 -65.5t-27 -65t-67 -25zM64 1510q-39 0 -66.5 25t-27.5 65t27.5 65.5t66.5 25.5q40 0 67 -25.5t27 -65.5t-27 -65t-67 -25z" />
    <glyph glyph-name="Eth" unicode="&#xd0;" horiz-adv-x="1341" 
d="M0 613v144h714v-144h-714zM151 0v1346h432q211 0 360 -79.5t227.5 -230.5t78.5 -363q0 -213 -79 -364t-227.5 -230t-359.5 -79h-432zM331 151h212q177 0 292 56.5t172 173t57 293.5q0 176 -58 291.5t-173.5 172.5t-289.5 57h-212v-1044z" />
    <glyph glyph-name="Ntilde" unicode="&#xd1;" horiz-adv-x="1394" 
d="M151 0v1346h183l739 -1071v1071h170v-1346h-184l-738 1073v-1073h-170zM409 1484q12 92 54.5 146t126.5 54q41 0 80.5 -14t76.5 -31q33 -14 59.5 -23t48.5 -9q32 0 53 20t27 62h98q-11 -89 -51 -141.5t-124 -52.5q-44 0 -83 13.5t-74 28.5q-34 15 -60 24.5t-49 9.5
q-34 0 -56 -21t-29 -66h-98z" />
    <glyph glyph-name="Ograve" unicode="&#xd2;" horiz-adv-x="1424" 
d="M714 -18q-206 0 -344 88t-208 243t-70 359t70 360t208 244t344 88q204 0 341.5 -88t207.5 -244t70 -360t-70 -359t-207.5 -243t-341.5 -88zM713 129q155 0 250.5 73t140 196.5t44.5 273.5q0 151 -44.5 274.5t-140 197t-250.5 73.5t-251 -73.5t-140.5 -197t-44.5 -274.5
q0 -150 44.5 -273.5t140.5 -196.5t251 -73zM668 1462l-257 269h193l194 -269h-130z" />
    <glyph glyph-name="Oacute" unicode="&#xd3;" horiz-adv-x="1424" 
d="M714 -18q-206 0 -344 88t-208 243t-70 359t70 360t208 244t344 88q204 0 341.5 -88t207.5 -244t70 -360t-70 -359t-207.5 -243t-341.5 -88zM713 129q155 0 250.5 73t140 196.5t44.5 273.5q0 151 -44.5 274.5t-140 197t-250.5 73.5t-251 -73.5t-140.5 -197t-44.5 -274.5
q0 -150 44.5 -273.5t140.5 -196.5t251 -73zM628 1462l194 269h193l-257 -269h-130z" />
    <glyph glyph-name="Ocircumflex" unicode="&#xd4;" horiz-adv-x="1424" 
d="M714 -18q-206 0 -344 88t-208 243t-70 359t70 360t208 244t344 88q204 0 341.5 -88t207.5 -244t70 -360t-70 -359t-207.5 -243t-341.5 -88zM713 129q155 0 250.5 73t140 196.5t44.5 273.5q0 151 -44.5 274.5t-140 197t-250.5 73.5t-251 -73.5t-140.5 -197t-44.5 -274.5
q0 -150 44.5 -273.5t140.5 -196.5t251 -73zM415 1462l214 271h167l214 -271h-139l-158 174l-160 -174h-138z" />
    <glyph glyph-name="Otilde" unicode="&#xd5;" horiz-adv-x="1424" 
d="M714 -18q-206 0 -344 88t-208 243t-70 359t70 360t208 244t344 88q204 0 341.5 -88t207.5 -244t70 -360t-70 -359t-207.5 -243t-341.5 -88zM713 129q155 0 250.5 73t140 196.5t44.5 273.5q0 151 -44.5 274.5t-140 197t-250.5 73.5t-251 -73.5t-140.5 -197t-44.5 -274.5
q0 -150 44.5 -273.5t140.5 -196.5t251 -73zM401 1484q12 92 54.5 146t126.5 54q41 0 80.5 -14t76.5 -31q33 -14 59.5 -23t48.5 -9q32 0 53 20t27 62h98q-11 -89 -51 -141.5t-124 -52.5q-44 0 -83 13.5t-74 28.5q-34 15 -60 24.5t-49 9.5q-34 0 -56 -21t-29 -66h-98z" />
    <glyph glyph-name="Odieresis" unicode="&#xd6;" horiz-adv-x="1424" 
d="M714 -18q-206 0 -344 88t-208 243t-70 359t70 360t208 244t344 88q204 0 341.5 -88t207.5 -244t70 -360t-70 -359t-207.5 -243t-341.5 -88zM713 129q155 0 250.5 73t140 196.5t44.5 273.5q0 151 -44.5 274.5t-140 197t-250.5 73.5t-251 -73.5t-140.5 -197t-44.5 -274.5
q0 -150 44.5 -273.5t140.5 -196.5t251 -73zM889 1510q-40 0 -66.5 25t-26.5 65t26.5 65.5t66.5 25.5t67 -25.5t27 -65.5t-27 -65t-67 -25zM537 1510q-39 0 -66.5 25t-27.5 65t27.5 65.5t66.5 25.5q40 0 67 -25.5t27 -65.5t-27 -65t-67 -25z" />
    <glyph glyph-name="multiply" unicode="&#xd7;" horiz-adv-x="1071" 
d="M178 415l610 610l105 -100l-612 -612zM280 1028l612 -612l-103 -103l-611 611z" />
    <glyph glyph-name="Oslash" unicode="&#xd8;" horiz-adv-x="1465" 
d="M187 -65l-95 81l1186 1393l96 -80zM734 -18q-212 0 -355 88t-215 243t-72 359t72 360t215 244t355 88q211 0 353 -88t214.5 -244t72.5 -360t-72.5 -359t-214.5 -243t-353 -88zM734 127q162 0 263 73.5t147.5 197t46.5 274.5q0 152 -46.5 275.5t-147.5 197t-263 73.5
q-164 0 -264.5 -73.5t-147.5 -197t-47 -275.5q0 -151 47 -274.5t148 -197t264 -73.5z" />
    <glyph glyph-name="Ugrave" unicode="&#xd9;" horiz-adv-x="1333" 
d="M666 -29q-186 0 -303 69t-172 189t-55 271v846h182v-824q0 -211 89 -305t259 -94q171 0 260 94t89 305v824h182v-846q0 -151 -54 -271t-171 -189t-306 -69zM622 1462l-257 269h193l194 -269h-130z" />
    <glyph glyph-name="Uacute" unicode="&#xda;" horiz-adv-x="1333" 
d="M666 -29q-186 0 -303 69t-172 189t-55 271v846h182v-824q0 -211 89 -305t259 -94q171 0 260 94t89 305v824h182v-846q0 -151 -54 -271t-171 -189t-306 -69zM582 1462l194 269h193l-257 -269h-130z" />
    <glyph glyph-name="Ucircumflex" unicode="&#xdb;" horiz-adv-x="1333" 
d="M666 -29q-186 0 -303 69t-172 189t-55 271v846h182v-824q0 -211 89 -305t259 -94q171 0 260 94t89 305v824h182v-846q0 -151 -54 -271t-171 -189t-306 -69zM369 1462l214 271h167l214 -271h-139l-158 174l-160 -174h-138z" />
    <glyph glyph-name="Udieresis" unicode="&#xdc;" horiz-adv-x="1333" 
d="M666 -29q-186 0 -303 69t-172 189t-55 271v846h182v-824q0 -211 89 -305t259 -94q171 0 260 94t89 305v824h182v-846q0 -151 -54 -271t-171 -189t-306 -69zM843 1510q-40 0 -66.5 25t-26.5 65t26.5 65.5t66.5 25.5t67 -25.5t27 -65.5t-27 -65t-67 -25zM491 1510
q-39 0 -66.5 25t-27.5 65t27.5 65.5t66.5 25.5q40 0 67 -25.5t27 -65.5t-27 -65t-67 -25z" />
    <glyph glyph-name="Yacute" unicode="&#xdd;" horiz-adv-x="1095" 
d="M456 0v536l-460 810h196l357 -650l355 650h196l-462 -810v-536h-182zM464 1462l194 269h193l-257 -269h-130z" />
    <glyph glyph-name="Thorn" unicode="&#xde;" horiz-adv-x="1138" 
d="M151 266v149h471q122 0 198 62t76 189q0 135 -76 200t-198 65h-471v149h486q125 0 224.5 -47.5t157.5 -139.5t58 -227q0 -130 -58 -219t-157.5 -135t-224.5 -46h-486zM151 0v1346h180v-1346h-180z" />
    <glyph glyph-name="germandbls" unicode="&#xdf;" horiz-adv-x="1066" 
d="M540 -12q-38 0 -70.5 3t-63.5 9v137q32 -8 60 -12t60 -4q142 0 212 68.5t70 189.5q0 144 -86.5 204.5t-225.5 60.5h-79v126h80q107 0 176.5 59.5t69.5 179.5q0 102 -56.5 157t-156.5 55q-109 0 -174 -71t-65 -234v-916h-167v913q0 150 49.5 250t141.5 150.5t219 50.5
q117 0 200 -43t128.5 -120.5t45.5 -180.5q0 -93 -36 -163t-106.5 -113t-174.5 -56l-94 82q149 0 257.5 -47.5t167 -136.5t58.5 -212q0 -130 -58 -216t-157.5 -128t-224.5 -42z" />
    <glyph glyph-name="agrave" unicode="&#xe0;" horiz-adv-x="1002" 
d="M372 -18q-79 0 -144 31t-104 93t-39 154q0 132 77.5 200t219.5 92t332 26v71q0 125 -57 171.5t-143 46.5q-94 0 -158 -49.5t-64 -158.5h-162q0 118 49.5 191.5t136.5 107t198 33.5q70 0 135 -14t117 -51t82 -103.5t30 -171.5v-651h-154l-6 142q-64 -74 -149 -117
t-197 -43zM416 110q95 0 170 44.5t127 116.5v203q-247 -3 -354 -50.5t-107 -156.5q0 -72 41 -114.5t123 -42.5zM479 1110l-267 269h192l204 -269h-129z" />
    <glyph glyph-name="aacute" unicode="&#xe1;" horiz-adv-x="1002" 
d="M372 -18q-79 0 -144 31t-104 93t-39 154q0 132 77.5 200t219.5 92t332 26v71q0 125 -57 171.5t-143 46.5q-94 0 -158 -49.5t-64 -158.5h-162q0 118 49.5 191.5t136.5 107t198 33.5q70 0 135 -14t117 -51t82 -103.5t30 -171.5v-651h-154l-6 142q-64 -74 -149 -117
t-197 -43zM416 110q95 0 170 44.5t127 116.5v203q-247 -3 -354 -50.5t-107 -156.5q0 -72 41 -114.5t123 -42.5zM421 1110l203 269h194l-268 -269h-129z" />
    <glyph glyph-name="acircumflex" unicode="&#xe2;" horiz-adv-x="1002" 
d="M372 -18q-79 0 -144 31t-104 93t-39 154q0 132 77.5 200t219.5 92t332 26v71q0 125 -57 171.5t-143 46.5q-94 0 -158 -49.5t-64 -158.5h-162q0 118 49.5 191.5t136.5 107t198 33.5q70 0 135 -14t117 -51t82 -103.5t30 -171.5v-651h-154l-6 142q-64 -74 -149 -117
t-197 -43zM416 110q95 0 170 44.5t127 116.5v203q-247 -3 -354 -50.5t-107 -156.5q0 -72 41 -114.5t123 -42.5zM219 1110l214 269h167l214 -269h-139l-158 172l-160 -172h-138z" />
    <glyph glyph-name="atilde" unicode="&#xe3;" horiz-adv-x="1002" 
d="M372 -18q-79 0 -144 31t-104 93t-39 154q0 132 77.5 200t219.5 92t332 26v71q0 125 -57 171.5t-143 46.5q-94 0 -158 -49.5t-64 -158.5h-162q0 118 49.5 191.5t136.5 107t198 33.5q70 0 135 -14t117 -51t82 -103.5t30 -171.5v-651h-154l-6 142q-64 -74 -149 -117
t-197 -43zM416 110q95 0 170 44.5t127 116.5v203q-247 -3 -354 -50.5t-107 -156.5q0 -72 41 -114.5t123 -42.5zM203 1138q12 92 54.5 146t126.5 54q41 0 80.5 -14t76.5 -31q33 -14 59.5 -23t48.5 -9q32 0 53 20t27 62h98q-11 -89 -51 -141.5t-124 -52.5q-44 0 -83 13.5
t-74 28.5q-34 15 -60 24.5t-49 9.5q-34 0 -56 -21t-29 -66h-98z" />
    <glyph glyph-name="adieresis" unicode="&#xe4;" horiz-adv-x="1002" 
d="M372 -18q-79 0 -144 31t-104 93t-39 154q0 132 77.5 200t219.5 92t332 26v71q0 125 -57 171.5t-143 46.5q-94 0 -158 -49.5t-64 -158.5h-162q0 118 49.5 191.5t136.5 107t198 33.5q70 0 135 -14t117 -51t82 -103.5t30 -171.5v-651h-154l-6 142q-64 -74 -149 -117
t-197 -43zM416 110q95 0 170 44.5t127 116.5v203q-247 -3 -354 -50.5t-107 -156.5q0 -72 41 -114.5t123 -42.5zM691 1164q-40 0 -66.5 25t-26.5 65q0 39 26.5 64.5t66.5 25.5t67 -25.5t27 -64.5q0 -40 -27 -65t-67 -25zM339 1164q-39 0 -66.5 25t-27.5 65q0 39 27.5 64.5
t66.5 25.5q40 0 67 -25.5t27 -64.5q0 -40 -27 -65t-67 -25z" />
    <glyph glyph-name="aring" unicode="&#xe5;" horiz-adv-x="1002" 
d="M372 -18q-79 0 -144 31t-104 93t-39 154q0 132 77.5 200t219.5 92t332 26v71q0 125 -57 171.5t-143 46.5q-94 0 -158 -49.5t-64 -158.5h-162q0 118 49.5 191.5t136.5 107t198 33.5q70 0 135 -14t117 -51t82 -103.5t30 -171.5v-651h-154l-6 142q-64 -74 -149 -117
t-197 -43zM416 110q95 0 170 44.5t127 116.5v203q-247 -3 -354 -50.5t-107 -156.5q0 -72 41 -114.5t123 -42.5zM515 1079q-92 0 -150 55.5t-58 147.5q0 90 58 145.5t150 55.5t150 -55.5t58 -145.5q0 -92 -58 -147.5t-150 -55.5zM515 1174q47 0 76 30t29 78q0 47 -29 77.5
t-76 30.5q-46 0 -75 -30.5t-29 -77.5q0 -48 29 -78t75 -30z" />
    <glyph glyph-name="ae" unicode="&#xe6;" horiz-adv-x="1638" 
d="M1158 -18q-154 0 -253 66.5t-146.5 181t-47.5 257.5q0 149 46 262.5t141 177.5t241 64q193 0 302.5 -120t109.5 -345q0 -15 -1 -35.5t-3 -29.5h-669q1 -95 29.5 -174.5t89.5 -127.5t161 -48q106 0 166 52.5t63 151.5h165q-4 -103 -52 -177.5t-135 -115t-207 -40.5z
M401 -18q-143 0 -229.5 73.5t-86.5 206.5q0 131 77.5 198.5t218 92.5t330.5 27v77q0 80 -27.5 125.5t-71 64.5t-92.5 19q-95 0 -161 -50t-66 -159h-162q0 175 106.5 254.5t281.5 79.5q71 0 138.5 -20.5t117.5 -70t66 -138.5l-75 -288q-188 -1 -301 -21.5t-162.5 -63.5
t-49.5 -113q0 -75 44 -120.5t131 -45.5q69 0 129 24.5t109.5 74.5t89.5 125l67 -70q-32 -75 -91.5 -139.5t-143 -103.5t-187.5 -39zM879 583h507q-4 136 -67.5 208t-179.5 72q-117 0 -183 -72t-77 -208z" />
    <glyph glyph-name="ccedilla" unicode="&#xe7;" horiz-adv-x="1009" 
d="M523 -17q-128 0 -227 56t-155 167.5t-56 277.5t55 279t153.5 170t229.5 57q110 0 197.5 -37t140 -111.5t56.5 -188.5h-165q-7 94 -67.5 148t-158.5 54q-133 0 -201 -97.5t-68 -273.5q0 -116 30 -198t90 -125t149 -43q100 0 165 55t68 162h164q-2 -117 -55.5 -195.5
t-143 -117.5t-201.5 -39zM487 -382q-57 0 -100 9.5t-81 24.5l27 93q26 -12 66.5 -20.5t81.5 -8.5q36 0 61 17t25 48q0 33 -30 51t-113 28l-44 5l132 177l87 -30l-74 -100l-30 23q94 -4 145.5 -42t51.5 -109q0 -55 -27 -92t-73 -55.5t-105 -18.5z" />
    <glyph glyph-name="egrave" unicode="&#xe8;" horiz-adv-x="1012" 
d="M532 -18q-152 0 -251 66.5t-147.5 181t-48.5 257.5q0 149 47 262.5t142.5 177.5t239.5 64q193 0 302 -120t109 -345q0 -15 -0.5 -35.5t-2.5 -29.5h-669q1 -95 29 -174.5t89.5 -127.5t160.5 -48q107 0 166.5 52.5t62.5 151.5h165q-3 -103 -51.5 -177.5t-135.5 -115
t-207 -40.5zM254 583h506q-3 136 -67 208t-179 72q-117 0 -182.5 -71.5t-77.5 -208.5zM473 1110l-267 269h192l204 -269h-129z" />
    <glyph glyph-name="eacute" unicode="&#xe9;" horiz-adv-x="1012" 
d="M532 -18q-152 0 -251 66.5t-147.5 181t-48.5 257.5q0 149 47 262.5t142.5 177.5t239.5 64q193 0 302 -120t109 -345q0 -15 -0.5 -35.5t-2.5 -29.5h-669q1 -95 29 -174.5t89.5 -127.5t160.5 -48q107 0 166.5 52.5t62.5 151.5h165q-3 -103 -51.5 -177.5t-135.5 -115
t-207 -40.5zM254 583h506q-3 136 -67 208t-179 72q-117 0 -182.5 -71.5t-77.5 -208.5zM415 1110l203 269h194l-268 -269h-129z" />
    <glyph glyph-name="ecircumflex" unicode="&#xea;" horiz-adv-x="1012" 
d="M532 -18q-152 0 -251 66.5t-147.5 181t-48.5 257.5q0 149 47 262.5t142.5 177.5t239.5 64q193 0 302 -120t109 -345q0 -15 -0.5 -35.5t-2.5 -29.5h-669q1 -95 29 -174.5t89.5 -127.5t160.5 -48q107 0 166.5 52.5t62.5 151.5h165q-3 -103 -51.5 -177.5t-135.5 -115
t-207 -40.5zM254 583h506q-3 136 -67 208t-179 72q-117 0 -182.5 -71.5t-77.5 -208.5zM213 1110l214 269h167l214 -269h-139l-158 172l-160 -172h-138z" />
    <glyph glyph-name="edieresis" unicode="&#xeb;" horiz-adv-x="1012" 
d="M532 -18q-152 0 -251 66.5t-147.5 181t-48.5 257.5q0 149 47 262.5t142.5 177.5t239.5 64q193 0 302 -120t109 -345q0 -15 -0.5 -35.5t-2.5 -29.5h-669q1 -95 29 -174.5t89.5 -127.5t160.5 -48q107 0 166.5 52.5t62.5 151.5h165q-3 -103 -51.5 -177.5t-135.5 -115
t-207 -40.5zM254 583h506q-3 136 -67 208t-179 72q-117 0 -182.5 -71.5t-77.5 -208.5zM685 1164q-40 0 -66.5 25t-26.5 65q0 39 26.5 64.5t66.5 25.5t67 -25.5t27 -64.5q0 -40 -27 -65t-67 -25zM333 1164q-39 0 -66.5 25t-27.5 65q0 39 27.5 64.5t66.5 25.5q40 0 67 -25.5
t27 -64.5q0 -40 -27 -65t-67 -25z" />
    <glyph glyph-name="igrave" unicode="&#xec;" horiz-adv-x="431" 
d="M132 0v974h167v-974h-167zM180 1110l-267 269h192l204 -269h-129z" />
    <glyph glyph-name="iacute" unicode="&#xed;" horiz-adv-x="431" 
d="M132 0v974h167v-974h-167zM122 1110l203 269h194l-268 -269h-129z" />
    <glyph glyph-name="icircumflex" unicode="&#xee;" horiz-adv-x="431" 
d="M132 0v974h167v-974h-167zM-80 1110l214 269h167l214 -269h-139l-158 172l-160 -172h-138z" />
    <glyph glyph-name="idieresis" unicode="&#xef;" horiz-adv-x="431" 
d="M132 0v974h167v-974h-167zM368 1164q-40 0 -67 25t-27 65q0 39 27 64.5t67 25.5t66 -25.5t26 -64.5q0 -40 -26 -65t-66 -25zM65 1164q-40 0 -66.5 25t-26.5 65q0 39 26.5 64.5t66.5 25.5t66.5 -25.5t26.5 -64.5q0 -40 -26.5 -65t-66.5 -25z" />
    <glyph glyph-name="eth" unicode="&#xf0;" horiz-adv-x="1048" 
d="M524 -16q-138 0 -236 59t-150.5 169.5t-52.5 261.5q0 153 51.5 263.5t147 171t226.5 60.5q126 0 192.5 -58.5t98.5 -160.5h-24q-21 55 -49 101.5t-66.5 91.5t-92 95.5t-126.5 110.5l-234 197h217l132 -110q151 -125 239.5 -243t127 -238.5t38.5 -252.5q0 -164 -52 -280
t-150 -177t-237 -61zM521 116q100 0 159 47.5t85 128.5t26 182q0 102 -26 183t-85 128.5t-159 47.5q-96 0 -154.5 -47.5t-84 -128.5t-25.5 -183q0 -101 25.5 -182t84 -128.5t154.5 -47.5zM195 1017v126l295 107v-4l294 108v-124l-294 -107v3z" />
    <glyph glyph-name="ntilde" unicode="&#xf1;" horiz-adv-x="1036" 
d="M132 0v974h162l4 -150q43 58 123 108.5t200 50.5q156 0 223 -93t67 -262v-628h-166v605q0 69 -13.5 123t-49 84.5t-101.5 30.5q-101 0 -170.5 -48.5t-111.5 -104.5v-690h-167zM228 1138q12 92 54.5 146t126.5 54q41 0 80.5 -14t76.5 -31q33 -14 59.5 -23t48.5 -9
q32 0 53 20t27 62h98q-11 -89 -51 -141.5t-124 -52.5q-44 0 -83 13.5t-74 28.5q-34 15 -60 24.5t-49 9.5q-34 0 -56 -21t-29 -66h-98z" />
    <glyph glyph-name="ograve" unicode="&#xf2;" horiz-adv-x="1050" 
d="M519 -16q-137 0 -234 60t-148.5 172.5t-51.5 268.5q0 158 51.5 271.5t148.5 174.5t234 61q140 0 240 -61t153 -174.5t53 -271.5q0 -156 -53 -268.5t-153 -172.5t-240 -60zM519 116q101 0 160.5 48t86 131t26.5 190t-26.5 191t-86 132.5t-160.5 48.5q-95 0 -153 -48.5
t-83.5 -132.5t-25.5 -192q0 -106 25.5 -189t83.5 -131t153 -48zM489 1110l-267 269h192l204 -269h-129z" />
    <glyph glyph-name="oacute" unicode="&#xf3;" horiz-adv-x="1050" 
d="M519 -16q-137 0 -234 60t-148.5 172.5t-51.5 268.5q0 158 51.5 271.5t148.5 174.5t234 61q140 0 240 -61t153 -174.5t53 -271.5q0 -156 -53 -268.5t-153 -172.5t-240 -60zM519 116q101 0 160.5 48t86 131t26.5 190t-26.5 191t-86 132.5t-160.5 48.5q-95 0 -153 -48.5
t-83.5 -132.5t-25.5 -192q0 -106 25.5 -189t83.5 -131t153 -48zM431 1110l203 269h194l-268 -269h-129z" />
    <glyph glyph-name="ocircumflex" unicode="&#xf4;" horiz-adv-x="1050" 
d="M519 -16q-137 0 -234 60t-148.5 172.5t-51.5 268.5q0 158 51.5 271.5t148.5 174.5t234 61q140 0 240 -61t153 -174.5t53 -271.5q0 -156 -53 -268.5t-153 -172.5t-240 -60zM519 116q101 0 160.5 48t86 131t26.5 190t-26.5 191t-86 132.5t-160.5 48.5q-95 0 -153 -48.5
t-83.5 -132.5t-25.5 -192q0 -106 25.5 -189t83.5 -131t153 -48zM229 1110l214 269h167l214 -269h-139l-158 172l-160 -172h-138z" />
    <glyph glyph-name="otilde" unicode="&#xf5;" horiz-adv-x="1050" 
d="M519 -16q-137 0 -234 60t-148.5 172.5t-51.5 268.5q0 158 51.5 271.5t148.5 174.5t234 61q140 0 240 -61t153 -174.5t53 -271.5q0 -156 -53 -268.5t-153 -172.5t-240 -60zM519 116q101 0 160.5 48t86 131t26.5 190t-26.5 191t-86 132.5t-160.5 48.5q-95 0 -153 -48.5
t-83.5 -132.5t-25.5 -192q0 -106 25.5 -189t83.5 -131t153 -48zM213 1138q12 92 54.5 146t126.5 54q41 0 80.5 -14t76.5 -31q33 -14 59.5 -23t48.5 -9q32 0 53 20t27 62h98q-11 -89 -51 -141.5t-124 -52.5q-44 0 -83 13.5t-74 28.5q-34 15 -60 24.5t-49 9.5q-34 0 -56 -21
t-29 -66h-98z" />
    <glyph glyph-name="odieresis" unicode="&#xf6;" horiz-adv-x="1050" 
d="M519 -16q-137 0 -234 60t-148.5 172.5t-51.5 268.5q0 158 51.5 271.5t148.5 174.5t234 61q140 0 240 -61t153 -174.5t53 -271.5q0 -156 -53 -268.5t-153 -172.5t-240 -60zM519 116q101 0 160.5 48t86 131t26.5 190t-26.5 191t-86 132.5t-160.5 48.5q-95 0 -153 -48.5
t-83.5 -132.5t-25.5 -192q0 -106 25.5 -189t83.5 -131t153 -48zM701 1164q-40 0 -66.5 25t-26.5 65q0 39 26.5 64.5t66.5 25.5t67 -25.5t27 -64.5q0 -40 -27 -65t-67 -25zM349 1164q-39 0 -66.5 25t-27.5 65q0 39 27.5 64.5t66.5 25.5q40 0 67 -25.5t27 -64.5q0 -40 -27 -65
t-67 -25z" />
    <glyph glyph-name="divide" unicode="&#xf7;" horiz-adv-x="1071" 
d="M102 742h865v-145h-865v145zM535 210q-54 0 -90.5 36.5t-36.5 89.5q0 54 36 89.5t91 35.5t91 -35.5t36 -89.5q0 -53 -36 -89.5t-91 -36.5zM535 879q-54 0 -90.5 37t-36.5 88q0 54 36 90t91 36t91 -36t36 -90q0 -51 -36 -88t-91 -37z" />
    <glyph glyph-name="oslash" unicode="&#xf8;" horiz-adv-x="1050" 
d="M131 -70l-80 70l869 1038l81 -69zM520 -16q-137 0 -234.5 60t-149 172.5t-51.5 268.5q0 158 51.5 271.5t149 174.5t234.5 61q140 0 239.5 -61t153 -174.5t53.5 -272.5q0 -155 -53.5 -267.5t-153 -172.5t-239.5 -60zM521 113q100 0 160.5 48t87.5 132.5t27 190.5
q0 109 -27 194t-87.5 134t-160.5 49q-97 0 -155.5 -49t-84.5 -134t-26 -193q0 -107 26 -191.5t84.5 -132.5t155.5 -48z" />
    <glyph glyph-name="ugrave" unicode="&#xf9;" horiz-adv-x="1036" 
d="M421 -10q-158 0 -227.5 94.5t-69.5 260.5v629h168v-606q0 -68 13.5 -120t50.5 -81.5t106 -29.5q100 0 167 45t108 102v690h167v-974h-161l-4 150q-43 -57 -121.5 -108.5t-196.5 -51.5zM490 1110l-267 269h192l204 -269h-129z" />
    <glyph glyph-name="uacute" unicode="&#xfa;" horiz-adv-x="1036" 
d="M421 -10q-158 0 -227.5 94.5t-69.5 260.5v629h168v-606q0 -68 13.5 -120t50.5 -81.5t106 -29.5q100 0 167 45t108 102v690h167v-974h-161l-4 150q-43 -57 -121.5 -108.5t-196.5 -51.5zM432 1110l203 269h194l-268 -269h-129z" />
    <glyph glyph-name="ucircumflex" unicode="&#xfb;" horiz-adv-x="1036" 
d="M421 -10q-158 0 -227.5 94.5t-69.5 260.5v629h168v-606q0 -68 13.5 -120t50.5 -81.5t106 -29.5q100 0 167 45t108 102v690h167v-974h-161l-4 150q-43 -57 -121.5 -108.5t-196.5 -51.5zM230 1110l214 269h167l214 -269h-139l-158 172l-160 -172h-138z" />
    <glyph glyph-name="udieresis" unicode="&#xfc;" horiz-adv-x="1036" 
d="M421 -10q-158 0 -227.5 94.5t-69.5 260.5v629h168v-606q0 -68 13.5 -120t50.5 -81.5t106 -29.5q100 0 167 45t108 102v690h167v-974h-161l-4 150q-43 -57 -121.5 -108.5t-196.5 -51.5zM702 1164q-40 0 -66.5 25t-26.5 65q0 39 26.5 64.5t66.5 25.5t67 -25.5t27 -64.5
q0 -40 -27 -65t-67 -25zM350 1164q-39 0 -66.5 25t-27.5 65q0 39 27.5 64.5t66.5 25.5q40 0 67 -25.5t27 -64.5q0 -40 -27 -65t-67 -25z" />
    <glyph glyph-name="yacute" unicode="&#xfd;" horiz-adv-x="886" 
d="M85 -361v138h83q61 0 98 31.5t66 103.5l37 88l-373 974h176l285 -797l263 797h170l-350 -974l-44 -114q-35 -93 -75.5 -147t-96.5 -77t-139 -23h-100zM352 1110l203 269h194l-268 -269h-129z" />
    <glyph glyph-name="thorn" unicode="&#xfe;" horiz-adv-x="1062" 
d="M132 -361v1707h167v-531q50 80 127 128t181 48q113 0 196.5 -56.5t128 -168.5t44.5 -279t-46 -279t-130 -169t-198 -57q-104 0 -180.5 40.5t-126.5 114.5v-498h-163zM571 119q118 0 175.5 96t57.5 272q0 178 -58 273.5t-173 95.5q-101 0 -168 -56.5t-105 -132.5v-377
q38 -74 105.5 -122.5t165.5 -48.5z" />
    <glyph glyph-name="ydieresis" unicode="&#xff;" horiz-adv-x="886" 
d="M85 -361v138h83q61 0 98 31.5t66 103.5l37 88l-373 974h176l285 -797l263 797h170l-350 -974l-44 -114q-35 -93 -75.5 -147t-96.5 -77t-139 -23h-100zM622 1164q-40 0 -66.5 25t-26.5 65q0 39 26.5 64.5t66.5 25.5t67 -25.5t27 -64.5q0 -40 -27 -65t-67 -25zM270 1164
q-39 0 -66.5 25t-27.5 65q0 39 27.5 64.5t66.5 25.5q40 0 67 -25.5t27 -64.5q0 -40 -27 -65t-67 -25z" />
    <glyph glyph-name="Amacron" unicode="&#x100;" horiz-adv-x="1188" 
d="M-2 0l504 1346h189l499 -1346h-187l-127 377h-560l-133 -377h-185zM365 528h458l-227 639zM322 1524v123h545v-123h-545z" />
    <glyph glyph-name="amacron" unicode="&#x101;" horiz-adv-x="1002" 
d="M372 -18q-79 0 -144 31t-104 93t-39 154q0 132 77.5 200t219.5 92t332 26v71q0 125 -57 171.5t-143 46.5q-94 0 -158 -49.5t-64 -158.5h-162q0 118 49.5 191.5t136.5 107t198 33.5q70 0 135 -14t117 -51t82 -103.5t30 -171.5v-651h-154l-6 142q-64 -74 -149 -117
t-197 -43zM416 110q95 0 170 44.5t127 116.5v203q-247 -3 -354 -50.5t-107 -156.5q0 -72 41 -114.5t123 -42.5zM243 1178v123h545v-123h-545z" />
    <glyph glyph-name="Abreve" unicode="&#x102;" horiz-adv-x="1188" 
d="M-2 0l504 1346h189l499 -1346h-187l-127 377h-560l-133 -377h-185zM365 528h458l-227 639zM591 1481q-80 0 -142 30t-98 85.5t-41 134.5h105q4 -51 30.5 -83.5t65 -48.5t80.5 -16q43 0 81.5 16.5t65.5 49.5t34 82h107q-9 -77 -46.5 -133.5t-99 -86.5t-142.5 -30z" />
    <glyph glyph-name="abreve" unicode="&#x103;" horiz-adv-x="1002" 
d="M372 -18q-79 0 -144 31t-104 93t-39 154q0 132 77.5 200t219.5 92t332 26v71q0 125 -57 171.5t-143 46.5q-94 0 -158 -49.5t-64 -158.5h-162q0 118 49.5 191.5t136.5 107t198 33.5q70 0 135 -14t117 -51t82 -103.5t30 -171.5v-651h-154l-6 142q-64 -74 -149 -117
t-197 -43zM416 110q95 0 170 44.5t127 116.5v203q-247 -3 -354 -50.5t-107 -156.5q0 -72 41 -114.5t123 -42.5zM513 1118q-114 0 -183 66.5t-83 185.5h103q10 -77 57.5 -110t105.5 -33q59 0 107 34t57 109h102q-12 -117 -81.5 -184.5t-184.5 -67.5z" />
    <glyph glyph-name="Aogonek" unicode="&#x104;" horiz-adv-x="1188" 
d="M-2 0l504 1346h189l499 -1346h-187l-127 377h-560l-133 -377h-185zM365 528h458l-227 639zM1040 -375q-76 0 -129.5 43t-53.5 119q0 51 31.5 101t85 89.5t118.5 56.5l63 -18q-88 -57 -122 -109.5t-34 -94.5q0 -35 20.5 -53.5t51.5 -18.5q34 0 63.5 8.5t61.5 22.5v-111
q-29 -16 -63.5 -25.5t-92.5 -9.5z" />
    <glyph glyph-name="aogonek" unicode="&#x105;" horiz-adv-x="1002" 
d="M372 -18q-79 0 -144 31t-104 93t-39 154q0 132 77.5 200t219.5 92t332 26v71q0 125 -57 171.5t-143 46.5q-94 0 -158 -49.5t-64 -158.5h-162q0 118 49.5 191.5t136.5 107t198 33.5q70 0 135 -14t117 -51t82 -103.5t30 -171.5v-651h-154l-6 142q-64 -74 -149 -117
t-197 -43zM416 110q95 0 170 44.5t127 116.5v203q-247 -3 -354 -50.5t-107 -156.5q0 -72 41 -114.5t123 -42.5zM746 -375q-76 0 -129.5 43t-53.5 119q0 51 31.5 101t85 89.5t118.5 56.5l63 -18q-88 -57 -122 -109.5t-34 -94.5q0 -35 20.5 -53.5t51.5 -18.5q34 0 63.5 8.5
t61.5 22.5v-111q-29 -16 -63.5 -25.5t-92.5 -9.5z" />
    <glyph glyph-name="Cacute" unicode="&#x106;" horiz-adv-x="1343" 
d="M713 -18q-202 0 -340.5 88t-209.5 243t-71 359t71 360t209.5 244t340.5 88q133 0 251 -48t197 -146.5t92 -248.5h-181q-11 101 -63 166.5t-129.5 97.5t-166.5 32q-155 0 -251 -74t-140.5 -197t-44.5 -274q0 -150 44.5 -273t140.5 -195.5t251 -72.5t251 81t113 242h182
q-15 -159 -90 -263.5t-192.5 -156.5t-263.5 -52zM596 1462l194 269h193l-257 -269h-130z" />
    <glyph glyph-name="cacute" unicode="&#x107;" horiz-adv-x="1009" 
d="M523 -17q-128 0 -227 56t-155 167.5t-56 277.5t55 279t153.5 170t229.5 57q110 0 197.5 -37t140 -111.5t56.5 -188.5h-165q-7 94 -67.5 148t-158.5 54q-133 0 -201 -97.5t-68 -273.5q0 -116 30 -198t90 -125t149 -43q100 0 165 55t68 162h164q-2 -117 -55.5 -195.5
t-143 -117.5t-201.5 -39zM422 1110l203 269h194l-268 -269h-129z" />
    <glyph glyph-name="Ccircumflex" unicode="&#x108;" horiz-adv-x="1343" 
d="M713 -18q-202 0 -340.5 88t-209.5 243t-71 359t71 360t209.5 244t340.5 88q133 0 251 -48t197 -146.5t92 -248.5h-181q-11 101 -63 166.5t-129.5 97.5t-166.5 32q-155 0 -251 -74t-140.5 -197t-44.5 -274q0 -150 44.5 -273t140.5 -195.5t251 -72.5t251 81t113 242h182
q-15 -159 -90 -263.5t-192.5 -156.5t-263.5 -52zM383 1462l214 271h167l214 -271h-139l-158 174l-160 -174h-138z" />
    <glyph glyph-name="ccircumflex" unicode="&#x109;" horiz-adv-x="1009" 
d="M523 -17q-128 0 -227 56t-155 167.5t-56 277.5t55 279t153.5 170t229.5 57q110 0 197.5 -37t140 -111.5t56.5 -188.5h-165q-7 94 -67.5 148t-158.5 54q-133 0 -201 -97.5t-68 -273.5q0 -116 30 -198t90 -125t149 -43q100 0 165 55t68 162h164q-2 -117 -55.5 -195.5
t-143 -117.5t-201.5 -39zM220 1110l214 269h167l214 -269h-139l-158 172l-160 -172h-138z" />
    <glyph glyph-name="Cdotaccent" unicode="&#x10a;" horiz-adv-x="1343" 
d="M713 -18q-202 0 -340.5 88t-209.5 243t-71 359t71 360t209.5 244t340.5 88q133 0 251 -48t197 -146.5t92 -248.5h-181q-11 101 -63 166.5t-129.5 97.5t-166.5 32q-155 0 -251 -74t-140.5 -197t-44.5 -274q0 -150 44.5 -273t140.5 -195.5t251 -72.5t251 81t113 242h182
q-15 -159 -90 -263.5t-192.5 -156.5t-263.5 -52zM681 1503q-47 0 -76 27.5t-29 69.5t29 69.5t76 27.5t76 -27.5t29 -69.5t-29 -69.5t-76 -27.5z" />
    <glyph glyph-name="cdotaccent" unicode="&#x10b;" horiz-adv-x="1009" 
d="M523 -17q-128 0 -227 56t-155 167.5t-56 277.5t55 279t153.5 170t229.5 57q110 0 197.5 -37t140 -111.5t56.5 -188.5h-165q-7 94 -67.5 148t-158.5 54q-133 0 -201 -97.5t-68 -273.5q0 -116 30 -198t90 -125t149 -43q100 0 165 55t68 162h164q-2 -117 -55.5 -195.5
t-143 -117.5t-201.5 -39zM516 1157q-47 0 -76 27.5t-29 69.5t29 69.5t76 27.5t76 -27.5t29 -69.5t-29 -69.5t-76 -27.5z" />
    <glyph glyph-name="Ccaron" unicode="&#x10c;" horiz-adv-x="1343" 
d="M713 -18q-202 0 -340.5 88t-209.5 243t-71 359t71 360t209.5 244t340.5 88q133 0 251 -48t197 -146.5t92 -248.5h-181q-11 101 -63 166.5t-129.5 97.5t-166.5 32q-155 0 -251 -74t-140.5 -197t-44.5 -274q0 -150 44.5 -273t140.5 -195.5t251 -72.5t251 81t113 242h182
q-15 -159 -90 -263.5t-192.5 -156.5t-263.5 -52zM597 1462l-214 271h138l160 -174l158 174h139l-214 -271h-167z" />
    <glyph glyph-name="ccaron" unicode="&#x10d;" horiz-adv-x="1009" 
d="M523 -17q-128 0 -227 56t-155 167.5t-56 277.5t55 279t153.5 170t229.5 57q110 0 197.5 -37t140 -111.5t56.5 -188.5h-165q-7 94 -67.5 148t-158.5 54q-133 0 -201 -97.5t-68 -273.5q0 -116 30 -198t90 -125t149 -43q100 0 165 55t68 162h164q-2 -117 -55.5 -195.5
t-143 -117.5t-201.5 -39zM432 1110l-214 269h138l160 -172l158 172h139l-214 -269h-167z" />
    <glyph glyph-name="Dcaron" unicode="&#x10e;" horiz-adv-x="1341" 
d="M151 0v1346h432q211 0 360 -79.5t227.5 -230.5t78.5 -363q0 -213 -79 -364t-227.5 -230t-359.5 -79h-432zM331 151h212q177 0 292 56.5t172 173t57 293.5q0 176 -58 291.5t-173.5 172.5t-289.5 57h-212v-1044zM564 1462l-214 271h138l160 -174l158 174h139l-214 -271
h-167z" />
    <glyph glyph-name="dcaron" unicode="&#x10f;" horiz-adv-x="1062" 
d="M459 -18q-114 0 -198 56.5t-130 167.5t-46 275q0 169 47 282.5t134 171t205 57.5q106 0 178.5 -45t117.5 -122v521h163v-1346h-154l-11 147q-47 -74 -123 -119.5t-183 -45.5zM488 119q101 0 168.5 52t105.5 124v378q-37 81 -101.5 131.5t-159.5 50.5q-122 0 -183 -96.5
t-61 -276.5q0 -176 58.5 -269.5t172.5 -93.5zM1005 1028l66 318h166l-120 -318h-112z" />
    <glyph glyph-name="Dcroat" unicode="&#x110;" horiz-adv-x="1341" 
d="M0 613v144h714v-144h-714zM151 0v1346h432q211 0 360 -79.5t227.5 -230.5t78.5 -363q0 -213 -79 -364t-227.5 -230t-359.5 -79h-432zM331 151h212q177 0 292 56.5t172 173t57 293.5q0 176 -58 291.5t-173.5 172.5t-289.5 57h-212v-1044z" />
    <glyph glyph-name="dcroat" unicode="&#x111;" horiz-adv-x="1062" 
d="M561 1117v108h522v-108h-522zM459 -18q-114 0 -198 56.5t-130 167.5t-46 275q0 169 47 282.5t134 171t205 57.5q106 0 178.5 -45t117.5 -122v521h163v-1346h-154l-11 147q-47 -74 -123 -119.5t-183 -45.5zM488 119q101 0 168.5 52t105.5 124v378q-37 81 -101.5 131.5
t-159.5 50.5q-122 0 -183 -96.5t-61 -276.5q0 -176 58.5 -269.5t172.5 -93.5z" />
    <glyph glyph-name="Emacron" unicode="&#x112;" horiz-adv-x="1107" 
d="M151 0v1346h858v-150h-678v-429h624v-148h-624v-469h678v-150h-858zM308 1524v123h545v-123h-545z" />
    <glyph glyph-name="emacron" unicode="&#x113;" horiz-adv-x="1012" 
d="M532 -18q-152 0 -251 66.5t-147.5 181t-48.5 257.5q0 149 47 262.5t142.5 177.5t239.5 64q193 0 302 -120t109 -345q0 -15 -0.5 -35.5t-2.5 -29.5h-669q1 -95 29 -174.5t89.5 -127.5t160.5 -48q107 0 166.5 52.5t62.5 151.5h165q-3 -103 -51.5 -177.5t-135.5 -115
t-207 -40.5zM254 583h506q-3 136 -67 208t-179 72q-117 0 -182.5 -71.5t-77.5 -208.5zM237 1178v123h545v-123h-545z" />
    <glyph glyph-name="Ebreve" unicode="&#x114;" horiz-adv-x="1107" 
d="M151 0v1346h858v-150h-678v-429h624v-148h-624v-469h678v-150h-858zM577 1481q-80 0 -142 30t-98 85.5t-41 134.5h105q4 -51 30.5 -83.5t65 -48.5t80.5 -16q43 0 81.5 16.5t65.5 49.5t34 82h107q-9 -77 -46.5 -133.5t-99 -86.5t-142.5 -30z" />
    <glyph glyph-name="ebreve" unicode="&#x115;" horiz-adv-x="1012" 
d="M532 -18q-152 0 -251 66.5t-147.5 181t-48.5 257.5q0 149 47 262.5t142.5 177.5t239.5 64q193 0 302 -120t109 -345q0 -15 -0.5 -35.5t-2.5 -29.5h-669q1 -95 29 -174.5t89.5 -127.5t160.5 -48q107 0 166.5 52.5t62.5 151.5h165q-3 -103 -51.5 -177.5t-135.5 -115
t-207 -40.5zM254 583h506q-3 136 -67 208t-179 72q-117 0 -182.5 -71.5t-77.5 -208.5zM507 1118q-114 0 -183 66.5t-83 185.5h103q10 -77 57.5 -110t105.5 -33q59 0 107 34t57 109h102q-12 -117 -81.5 -184.5t-184.5 -67.5z" />
    <glyph glyph-name="Edotaccent" unicode="&#x116;" horiz-adv-x="1107" 
d="M151 0v1346h858v-150h-678v-429h624v-148h-624v-469h678v-150h-858zM580 1503q-47 0 -76 27.5t-29 69.5t29 69.5t76 27.5t76 -27.5t29 -69.5t-29 -69.5t-76 -27.5z" />
    <glyph glyph-name="edotaccent" unicode="&#x117;" horiz-adv-x="1012" 
d="M532 -18q-152 0 -251 66.5t-147.5 181t-48.5 257.5q0 149 47 262.5t142.5 177.5t239.5 64q193 0 302 -120t109 -345q0 -15 -0.5 -35.5t-2.5 -29.5h-669q1 -95 29 -174.5t89.5 -127.5t160.5 -48q107 0 166.5 52.5t62.5 151.5h165q-3 -103 -51.5 -177.5t-135.5 -115
t-207 -40.5zM254 583h506q-3 136 -67 208t-179 72q-117 0 -182.5 -71.5t-77.5 -208.5zM509 1157q-47 0 -76 27.5t-29 69.5t29 69.5t76 27.5t76 -27.5t29 -69.5t-29 -69.5t-76 -27.5z" />
    <glyph glyph-name="Eogonek" unicode="&#x118;" horiz-adv-x="1107" 
d="M151 0v1346h858v-150h-678v-429h624v-148h-624v-469h678v-150h-858zM821 -375q-76 0 -129.5 43t-53.5 119q0 51 31.5 101t85 89.5t118.5 56.5l63 -18q-88 -57 -122 -109.5t-34 -94.5q0 -35 20.5 -53.5t51.5 -18.5q34 0 63.5 8.5t61.5 22.5v-111q-29 -16 -63.5 -25.5
t-92.5 -9.5z" />
    <glyph glyph-name="eogonek" unicode="&#x119;" horiz-adv-x="1012" 
d="M532 -18q-152 0 -251 66.5t-147.5 181t-48.5 257.5q0 149 47 262.5t142.5 177.5t239.5 64q193 0 302 -120t109 -345q0 -15 -0.5 -35.5t-2.5 -29.5h-669q1 -95 29 -174.5t89.5 -127.5t160.5 -48q107 0 166.5 52.5t62.5 151.5h165q-3 -103 -51.5 -177.5t-135.5 -115
t-207 -40.5zM254 583h506q-3 136 -67 208t-179 72q-117 0 -182.5 -71.5t-77.5 -208.5zM631 -375q-76 0 -129.5 43t-53.5 119q0 51 31.5 101t85 89.5t118.5 56.5l63 -18q-88 -57 -122 -109.5t-34 -94.5q0 -35 20.5 -53.5t51.5 -18.5q34 0 63.5 8.5t61.5 22.5v-111
q-29 -16 -63.5 -25.5t-92.5 -9.5z" />
    <glyph glyph-name="Ecaron" unicode="&#x11a;" horiz-adv-x="1107" 
d="M151 0v1346h858v-150h-678v-429h624v-148h-624v-469h678v-150h-858zM496 1462l-214 271h138l160 -174l158 174h139l-214 -271h-167z" />
    <glyph glyph-name="ecaron" unicode="&#x11b;" horiz-adv-x="1012" 
d="M532 -18q-152 0 -251 66.5t-147.5 181t-48.5 257.5q0 149 47 262.5t142.5 177.5t239.5 64q193 0 302 -120t109 -345q0 -15 -0.5 -35.5t-2.5 -29.5h-669q1 -95 29 -174.5t89.5 -127.5t160.5 -48q107 0 166.5 52.5t62.5 151.5h165q-3 -103 -51.5 -177.5t-135.5 -115
t-207 -40.5zM254 583h506q-3 136 -67 208t-179 72q-117 0 -182.5 -71.5t-77.5 -208.5zM425 1110l-214 269h138l160 -172l158 172h139l-214 -269h-167z" />
    <glyph glyph-name="Gcircumflex" unicode="&#x11c;" horiz-adv-x="1375" 
d="M715 -18q-203 0 -342 87t-210 242.5t-71 360.5q0 206 71 362t210 243t342 87q99 0 191 -26.5t166.5 -80t122 -134.5t58.5 -191h-182q-9 77 -54 141.5t-121.5 104t-182.5 39.5q-155 0 -251.5 -73.5t-142 -196.5t-45.5 -275q0 -151 45.5 -273.5t142.5 -194.5t253 -72
q134 0 220 50.5t128.5 141t44.5 208.5h-373v149h548v-105q0 -175 -63.5 -309t-189.5 -209.5t-315 -75.5zM415 1462l214 271h167l214 -271h-139l-158 174l-160 -174h-138z" />
    <glyph glyph-name="gcircumflex" unicode="&#x11d;" horiz-adv-x="900" 
d="M447 -377q-151 0 -242 36t-131.5 96t-40.5 130q0 85 72.5 151t224.5 93l31 55h111q227 0 324.5 -63.5t97.5 -196.5q0 -132 -114 -216.5t-333 -84.5zM443 -256q158 0 224.5 48t66.5 119q0 42 -22 72.5t-80 47.5t-166 17h-135q-69 -17 -104.5 -58t-35.5 -95
q0 -60 58 -105.5t194 -45.5zM328 69q-97 4 -152 31t-78 63.5t-23 67.5q0 46 41 92t131 74l85 -55q-55 -12 -85 -37t-30 -52q0 -19 18 -34.5t62 -24.5t120 -10zM436 315q-115 0 -195 46t-121 122t-41 164q0 93 41.5 169t121 121t195.5 45q119 0 197.5 -45t118 -121t39.5 -169
q0 -90 -40 -165.5t-118.5 -121t-197.5 -45.5zM437 429q88 0 143 55t55 163q0 113 -53.5 167.5t-142.5 54.5t-145 -56t-56 -165q0 -110 60 -164.5t139 -54.5zM682 875l-67 63q37 94 105.5 128t173.5 37v-141q-66 0 -121 -14.5t-91 -72.5zM169 1110l214 269h167l214 -269h-139
l-158 172l-160 -172h-138z" />
    <glyph glyph-name="Gbreve" unicode="&#x11e;" horiz-adv-x="1375" 
d="M715 -18q-203 0 -342 87t-210 242.5t-71 360.5q0 206 71 362t210 243t342 87q99 0 191 -26.5t166.5 -80t122 -134.5t58.5 -191h-182q-9 77 -54 141.5t-121.5 104t-182.5 39.5q-155 0 -251.5 -73.5t-142 -196.5t-45.5 -275q0 -151 45.5 -273.5t142.5 -194.5t253 -72
q134 0 220 50.5t128.5 141t44.5 208.5h-373v149h548v-105q0 -175 -63.5 -309t-189.5 -209.5t-315 -75.5zM710 1481q-80 0 -142 30t-98 85.5t-41 134.5h105q4 -51 30.5 -83.5t65 -48.5t80.5 -16q43 0 81.5 16.5t65.5 49.5t34 82h107q-9 -77 -46.5 -133.5t-99 -86.5
t-142.5 -30z" />
    <glyph glyph-name="gbreve" unicode="&#x11f;" horiz-adv-x="900" 
d="M447 -377q-151 0 -242 36t-131.5 96t-40.5 130q0 85 72.5 151t224.5 93l31 55h111q227 0 324.5 -63.5t97.5 -196.5q0 -132 -114 -216.5t-333 -84.5zM443 -256q158 0 224.5 48t66.5 119q0 42 -22 72.5t-80 47.5t-166 17h-135q-69 -17 -104.5 -58t-35.5 -95
q0 -60 58 -105.5t194 -45.5zM328 69q-97 4 -152 31t-78 63.5t-23 67.5q0 46 41 92t131 74l85 -55q-55 -12 -85 -37t-30 -52q0 -19 18 -34.5t62 -24.5t120 -10zM436 315q-115 0 -195 46t-121 122t-41 164q0 93 41.5 169t121 121t195.5 45q119 0 197.5 -45t118 -121t39.5 -169
q0 -90 -40 -165.5t-118.5 -121t-197.5 -45.5zM437 429q88 0 143 55t55 163q0 113 -53.5 167.5t-142.5 54.5t-145 -56t-56 -165q0 -110 60 -164.5t139 -54.5zM682 875l-67 63q37 94 105.5 128t173.5 37v-141q-66 0 -121 -14.5t-91 -72.5zM463 1118q-114 0 -183 66.5
t-83 185.5h103q10 -77 57.5 -110t105.5 -33q59 0 107 34t57 109h102q-12 -117 -81.5 -184.5t-184.5 -67.5z" />
    <glyph glyph-name="Gdotaccent" unicode="&#x120;" horiz-adv-x="1375" 
d="M715 -18q-203 0 -342 87t-210 242.5t-71 360.5q0 206 71 362t210 243t342 87q99 0 191 -26.5t166.5 -80t122 -134.5t58.5 -191h-182q-9 77 -54 141.5t-121.5 104t-182.5 39.5q-155 0 -251.5 -73.5t-142 -196.5t-45.5 -275q0 -151 45.5 -273.5t142.5 -194.5t253 -72
q134 0 220 50.5t128.5 141t44.5 208.5h-373v149h548v-105q0 -175 -63.5 -309t-189.5 -209.5t-315 -75.5zM713 1503q-47 0 -76 27.5t-29 69.5t29 69.5t76 27.5t76 -27.5t29 -69.5t-29 -69.5t-76 -27.5z" />
    <glyph glyph-name="gdotaccent" unicode="&#x121;" horiz-adv-x="900" 
d="M447 -377q-151 0 -242 36t-131.5 96t-40.5 130q0 85 72.5 151t224.5 93l31 55h111q227 0 324.5 -63.5t97.5 -196.5q0 -132 -114 -216.5t-333 -84.5zM443 -256q158 0 224.5 48t66.5 119q0 42 -22 72.5t-80 47.5t-166 17h-135q-69 -17 -104.5 -58t-35.5 -95
q0 -60 58 -105.5t194 -45.5zM328 69q-97 4 -152 31t-78 63.5t-23 67.5q0 46 41 92t131 74l85 -55q-55 -12 -85 -37t-30 -52q0 -19 18 -34.5t62 -24.5t120 -10zM436 315q-115 0 -195 46t-121 122t-41 164q0 93 41.5 169t121 121t195.5 45q119 0 197.5 -45t118 -121t39.5 -169
q0 -90 -40 -165.5t-118.5 -121t-197.5 -45.5zM437 429q88 0 143 55t55 163q0 113 -53.5 167.5t-142.5 54.5t-145 -56t-56 -165q0 -110 60 -164.5t139 -54.5zM682 875l-67 63q37 94 105.5 128t173.5 37v-141q-66 0 -121 -14.5t-91 -72.5zM465 1157q-47 0 -76 27.5t-29 69.5
t29 69.5t76 27.5t76 -27.5t29 -69.5t-29 -69.5t-76 -27.5z" />
    <glyph glyph-name="uni0122" unicode="&#x122;" horiz-adv-x="1375" 
d="M715 -18q-203 0 -342 87t-210 242.5t-71 360.5q0 206 71 362t210 243t342 87q99 0 191 -26.5t166.5 -80t122 -134.5t58.5 -191h-182q-9 77 -54 141.5t-121.5 104t-182.5 39.5q-155 0 -251.5 -73.5t-142 -196.5t-45.5 -275q0 -151 45.5 -273.5t142.5 -194.5t253 -72
q134 0 220 50.5t128.5 141t44.5 208.5h-373v149h548v-105q0 -175 -63.5 -309t-189.5 -209.5t-315 -75.5zM623 -383l-20 66q34 12 64.5 33t39.5 51q-41 4 -65.5 28.5t-24.5 59.5t27 60.5t74 25.5t77.5 -28t30.5 -81q0 -82 -60.5 -141t-142.5 -74z" />
    <glyph glyph-name="uni0123" unicode="&#x123;" horiz-adv-x="900" 
d="M447 -377q-151 0 -242 36t-131.5 96t-40.5 130q0 85 72.5 151t224.5 93l31 55h111q227 0 324.5 -63.5t97.5 -196.5q0 -132 -114 -216.5t-333 -84.5zM443 -256q158 0 224.5 48t66.5 119q0 42 -22 72.5t-80 47.5t-166 17h-135q-69 -17 -104.5 -58t-35.5 -95
q0 -60 58 -105.5t194 -45.5zM328 69q-97 4 -152 31t-78 63.5t-23 67.5q0 46 41 92t131 74l85 -55q-55 -12 -85 -37t-30 -52q0 -19 18 -34.5t62 -24.5t120 -10zM436 315q-115 0 -195 46t-121 122t-41 164q0 93 41.5 169t121 121t195.5 45q119 0 197.5 -45t118 -121t39.5 -169
q0 -90 -40 -165.5t-118.5 -121t-197.5 -45.5zM437 429q88 0 143 55t55 163q0 113 -53.5 167.5t-142.5 54.5t-145 -56t-56 -165q0 -110 60 -164.5t139 -54.5zM682 875l-67 63q37 94 105.5 128t173.5 37v-141q-66 0 -121 -14.5t-91 -72.5zM452 1083q-45 0 -76 28.5t-31 84.5
t28 102t73.5 77.5t99.5 42.5l22 -68q-31 -13 -60.5 -35.5t-41.5 -54.5q38 -6 62 -30t24 -57q0 -38 -27.5 -64t-72.5 -26z" />
    <glyph glyph-name="Hcircumflex" unicode="&#x124;" horiz-adv-x="1355" 
d="M151 0v1346h180v-565h695v565h178v-1346h-178v625h-695v-625h-180zM381 1462l214 271h167l214 -271h-139l-158 174l-160 -174h-138z" />
    <glyph glyph-name="hcircumflex" unicode="&#x125;" horiz-adv-x="1036" 
d="M132 0v1346h166v-522q44 58 123.5 108.5t202.5 50.5q153 0 220 -92.5t67 -262.5v-628h-166v605q0 69 -13 123t-47.5 84.5t-101.5 30.5q-102 0 -172 -48.5t-112 -104.5v-690h-167zM222 1482l214 269h167l214 -269h-139l-158 172l-160 -172h-138z" />
    <glyph glyph-name="Hbar" unicode="&#x126;" horiz-adv-x="1355" 
d="M18 998v115h1319v-115h-1319zM151 0v1346h180v-565h695v565h178v-1346h-178v625h-695v-625h-180z" />
    <glyph glyph-name="hbar" unicode="&#x127;" horiz-adv-x="1036" 
d="M8 1117v108h522v-108h-522zM132 0v1346h166v-522q44 58 123.5 108.5t202.5 50.5q153 0 220 -92.5t67 -262.5v-628h-166v605q0 69 -13 123t-47.5 84.5t-101.5 30.5q-102 0 -172 -48.5t-112 -104.5v-690h-167z" />
    <glyph glyph-name="Itilde" unicode="&#x128;" horiz-adv-x="481" 
d="M151 0v1346h180v-1346h-180zM-72 1484q12 92 54.5 146t126.5 54q41 0 80.5 -14t76.5 -31q33 -14 59.5 -23t48.5 -9q32 0 53 20t27 62h98q-11 -89 -51 -141.5t-124 -52.5q-44 0 -83 13.5t-74 28.5q-34 15 -60 24.5t-49 9.5q-34 0 -56 -21t-29 -66h-98z" />
    <glyph glyph-name="itilde" unicode="&#x129;" horiz-adv-x="431" 
d="M132 0v974h167v-974h-167zM-96 1138q12 92 54.5 146t126.5 54q41 0 80.5 -14t76.5 -31q33 -14 59.5 -23t48.5 -9q32 0 53 20t27 62h98q-11 -89 -51 -141.5t-124 -52.5q-44 0 -83 13.5t-74 28.5q-34 15 -60 24.5t-49 9.5q-34 0 -56 -21t-29 -66h-98z" />
    <glyph glyph-name="Imacron" unicode="&#x12a;" horiz-adv-x="481" 
d="M151 0v1346h180v-1346h-180zM-32 1524v123h545v-123h-545z" />
    <glyph glyph-name="imacron" unicode="&#x12b;" horiz-adv-x="431" 
d="M132 0v974h167v-974h-167zM7 1188v103h419v-103h-419z" />
    <glyph glyph-name="Ibreve" unicode="&#x12c;" horiz-adv-x="481" 
d="M151 0v1346h180v-1346h-180zM237 1481q-80 0 -142 30t-98 85.5t-41 134.5h105q4 -51 30.5 -83.5t65 -48.5t80.5 -16q43 0 81.5 16.5t65.5 49.5t34 82h107q-9 -77 -46.5 -133.5t-99 -86.5t-142.5 -30z" />
    <glyph glyph-name="ibreve" unicode="&#x12d;" horiz-adv-x="431" 
d="M132 0v974h167v-974h-167zM214 1118q-114 0 -183 66.5t-83 185.5h103q10 -77 57.5 -110t105.5 -33q59 0 107 34t57 109h102q-12 -117 -81.5 -184.5t-184.5 -67.5z" />
    <glyph glyph-name="Iogonek" unicode="&#x12e;" horiz-adv-x="481" 
d="M151 0v1346h180v-1346h-180zM203 -389q-76 0 -129.5 43t-53.5 119q0 51 31.5 101t85 89.5t118.5 56.5l63 -18q-88 -57 -122 -109.5t-34 -94.5q0 -35 20.5 -53.5t51.5 -18.5q34 0 63.5 8.5t61.5 22.5v-111q-29 -16 -63.5 -25.5t-92.5 -9.5z" />
    <glyph glyph-name="iogonek" unicode="&#x12f;" horiz-adv-x="431" 
d="M132 0v974h167v-974h-167zM216 1157q-47 0 -76 27.5t-29 69.5t29 69.5t76 27.5t76 -27.5t29 -69.5t-29 -69.5t-76 -27.5zM180 -375q-76 0 -129.5 43t-53.5 119q0 51 31.5 101t85 89.5t118.5 56.5l63 -18q-88 -57 -122 -109.5t-34 -94.5q0 -35 20.5 -53.5t51.5 -18.5
q34 0 63.5 8.5t61.5 22.5v-111q-29 -16 -63.5 -25.5t-92.5 -9.5z" />
    <glyph glyph-name="Idotaccent" unicode="&#x130;" horiz-adv-x="481" 
d="M151 0v1346h180v-1346h-180zM240 1503q-47 0 -76 27.5t-29 69.5t29 69.5t76 27.5t76 -27.5t29 -69.5t-29 -69.5t-76 -27.5z" />
    <glyph glyph-name="dotlessi" unicode="&#x131;" horiz-adv-x="431" 
d="M132 0v974h167v-974h-167z" />
    <glyph glyph-name="IJ" unicode="&#x132;" horiz-adv-x="1131" 
d="M151 0v1346h180v-1346h-180zM513 -13v153h72q134 0 183.5 62t49.5 202v942h178v-945q0 -144 -40.5 -236t-128 -135t-229.5 -43h-85z" />
    <glyph glyph-name="ij" unicode="&#x133;" horiz-adv-x="863" 
d="M132 0v974h167v-974h-167zM216 1157q-48 0 -76 27.5t-28 69.5t28 69.5t76 27.5q47 0 76 -27.5t29 -69.5t-29 -69.5t-76 -27.5zM375 -360v137h44q72 0 108.5 34.5t36.5 115.5v1047h167v-1033q0 -146 -67 -223.5t-220 -77.5h-69zM653 1157q-48 0 -76 27.5t-28 69.5t28 69.5
t76 27.5q47 0 76 -27.5t29 -69.5t-29 -69.5t-76 -27.5z" />
    <glyph glyph-name="Jcircumflex" unicode="&#x134;" horiz-adv-x="650" 
d="M32 -13v153h72q134 0 183.5 62t49.5 202v942h178v-945q0 -144 -40.5 -236t-128 -135t-229.5 -43h-85zM130 1462l214 271h167l214 -271h-139l-158 174l-160 -174h-138z" />
    <glyph glyph-name="jcircumflex" unicode="&#x135;" horiz-adv-x="431" 
d="M-56 -360v137h44q72 0 108.5 34.5t36.5 115.5v1047h167v-1033q0 -146 -67 -223.5t-220 -77.5h-69zM-69 1110l214 269h167l214 -269h-139l-158 172l-160 -172h-138z" />
    <glyph glyph-name="uni0136" unicode="&#x136;" horiz-adv-x="1134" 
d="M151 0v1346h180v-647l553 647h206l-562 -645l608 -701h-209l-596 691v-691h-180zM538 -383l-20 66q34 12 64.5 33t39.5 51q-41 4 -65.5 28.5t-24.5 59.5t27 60.5t74 25.5t77.5 -28t30.5 -81q0 -82 -60.5 -141t-142.5 -74z" />
    <glyph glyph-name="uni0137" unicode="&#x137;" horiz-adv-x="916" 
d="M132 0v1346h167v-831l393 459h190l-394 -457l436 -517h-197l-428 506v-506h-167zM417 -387l-20 66q34 12 64.5 33t39.5 51q-41 4 -65.5 28.5t-24.5 59.5t27 60.5t74 25.5t77.5 -28t30.5 -81q0 -82 -60.5 -141t-142.5 -74z" />
    <glyph glyph-name="kgreenlandic" unicode="&#x138;" horiz-adv-x="916" 
d="M132 0v974h167v-459l393 459h190l-394 -457l436 -517h-197l-428 506v-506h-167z" />
    <glyph glyph-name="Lacute" unicode="&#x139;" horiz-adv-x="992" 
d="M151 0v1346h180v-1191h629v-155h-809zM155 1462l194 269h193l-257 -269h-130z" />
    <glyph glyph-name="lacute" unicode="&#x13a;" horiz-adv-x="499" 
d="M415 0q-118 0 -181 37.5t-86.5 108t-23.5 169.5v1031h167v-1023q0 -91 23.5 -139t111.5 -48h45v-136h-56zM115 1482l203 269h194l-268 -269h-129z" />
    <glyph glyph-name="uni013B" unicode="&#x13b;" horiz-adv-x="992" 
d="M151 0v1346h180v-1191h629v-155h-809zM484 -383l-20 66q34 12 64.5 33t39.5 51q-41 4 -65.5 28.5t-24.5 59.5t27 60.5t74 25.5t77.5 -28t30.5 -81q0 -82 -60.5 -141t-142.5 -74z" />
    <glyph glyph-name="uni013C" unicode="&#x13c;" horiz-adv-x="499" 
d="M415 0q-118 0 -181 37.5t-86.5 108t-23.5 169.5v1031h167v-1023q0 -91 23.5 -139t111.5 -48h45v-136h-56zM227 -383l-20 66q34 12 64.5 33t39.5 51q-41 4 -65.5 28.5t-24.5 59.5t27 60.5t74 25.5t77.5 -28t30.5 -81q0 -82 -60.5 -141t-142.5 -74z" />
    <glyph glyph-name="Lcaron" unicode="&#x13d;" horiz-adv-x="992" 
d="M151 0v1346h180v-1191h629v-155h-809zM600 1028l66 318h166l-120 -318h-112z" />
    <glyph glyph-name="lcaron" unicode="&#x13e;" horiz-adv-x="499" 
d="M415 0q-118 0 -181 37.5t-86.5 108t-23.5 169.5v1031h167v-1023q0 -91 23.5 -139t111.5 -48h45v-136h-56zM362 1028l66 318h166l-120 -318h-112z" />
    <glyph glyph-name="Ldot" unicode="&#x13f;" horiz-adv-x="1023" 
d="M151 0v1346h180v-1191h629v-155h-809zM730 629q-56 0 -93 36.5t-37 89.5q0 55 37 90.5t93 35.5q54 0 90.5 -35.5t36.5 -90.5q0 -53 -36.5 -89.5t-90.5 -36.5z" />
    <glyph glyph-name="ldot" unicode="&#x140;" horiz-adv-x="584" 
d="M415 0q-118 0 -181 37.5t-86.5 108t-23.5 169.5v1031h167v-1023q0 -91 23.5 -139t111.5 -48h45v-136h-56zM484 586q-56 0 -93 36.5t-37 89.5q0 55 37 90.5t93 35.5q54 0 90.5 -35.5t36.5 -90.5q0 -53 -36.5 -89.5t-90.5 -36.5z" />
    <glyph glyph-name="Lslash" unicode="&#x141;" horiz-adv-x="992" 
d="M0 384v145l630 377v-145zM151 0v1346h180v-1191h629v-155h-809z" />
    <glyph glyph-name="lslash" unicode="&#x142;" horiz-adv-x="499" 
d="M227 660v147l247 192v-147zM0 502v145l227 175v-145zM415 0q-118 0 -181 37.5t-86.5 108t-23.5 169.5v1031h167v-1023q0 -91 23.5 -139t111.5 -48h45v-136h-56z" />
    <glyph glyph-name="Nacute" unicode="&#x143;" horiz-adv-x="1394" 
d="M151 0v1346h183l739 -1071v1071h170v-1346h-184l-738 1073v-1073h-170zM636 1462l194 269h193l-257 -269h-130z" />
    <glyph glyph-name="nacute" unicode="&#x144;" horiz-adv-x="1036" 
d="M132 0v974h162l4 -150q43 58 123 108.5t200 50.5q156 0 223 -93t67 -262v-628h-166v605q0 69 -13.5 123t-49 84.5t-101.5 30.5q-101 0 -170.5 -48.5t-111.5 -104.5v-690h-167zM446 1110l203 269h194l-268 -269h-129z" />
    <glyph glyph-name="uni0145" unicode="&#x145;" horiz-adv-x="1394" 
d="M151 0v1346h183l739 -1071v1071h170v-1346h-184l-738 1073v-1073h-170zM600 -383l-20 66q34 12 64.5 33t39.5 51q-41 4 -65.5 28.5t-24.5 59.5t27 60.5t74 25.5t77.5 -28t30.5 -81q0 -82 -60.5 -141t-142.5 -74z" />
    <glyph glyph-name="uni0146" unicode="&#x146;" horiz-adv-x="1036" 
d="M132 0v974h162l4 -150q43 58 123 108.5t200 50.5q156 0 223 -93t67 -262v-628h-166v605q0 69 -13.5 123t-49 84.5t-101.5 30.5q-101 0 -170.5 -48.5t-111.5 -104.5v-690h-167zM447 -383l-20 66q34 12 64.5 33t39.5 51q-41 4 -65.5 28.5t-24.5 59.5t27 60.5t74 25.5
t77.5 -28t30.5 -81q0 -82 -60.5 -141t-142.5 -74z" />
    <glyph glyph-name="Ncaron" unicode="&#x147;" horiz-adv-x="1394" 
d="M151 0v1346h183l739 -1071v1071h170v-1346h-184l-738 1073v-1073h-170zM637 1462l-214 271h138l160 -174l158 174h139l-214 -271h-167z" />
    <glyph glyph-name="ncaron" unicode="&#x148;" horiz-adv-x="1036" 
d="M132 0v974h162l4 -150q43 58 123 108.5t200 50.5q156 0 223 -93t67 -262v-628h-166v605q0 69 -13.5 123t-49 84.5t-101.5 30.5q-101 0 -170.5 -48.5t-111.5 -104.5v-690h-167zM456 1110l-214 269h138l160 -172l158 172h139l-214 -269h-167z" />
    <glyph glyph-name="napostrophe" unicode="&#x149;" horiz-adv-x="1136" 
d="M232 0v974h162l4 -150q43 58 123 108.5t200 50.5q156 0 223 -93t67 -262v-628h-166v605q0 69 -13.5 123t-49 84.5t-101.5 30.5q-101 0 -170.5 -48.5t-111.5 -104.5v-690h-167zM-76 853l-39 87q64 32 105.5 78t48.5 112l11 -9q-55 0 -91.5 34.5t-36.5 86.5q0 55 36 89.5
t92 34.5q57 0 92 -39.5t35 -119.5q0 -89 -33 -159t-90 -119t-130 -76z" />
    <glyph glyph-name="Eng" unicode="&#x14a;" horiz-adv-x="1394" 
d="M151 0v1346h183l739 -1038v1038h170v-1290l-177 -31l-745 1048v-1073h-170zM760 -358v153h72q133 0 183 62t50 203l178 -4q0 -217 -93 -315.5t-304 -98.5h-86z" />
    <glyph glyph-name="eng" unicode="&#x14b;" horiz-adv-x="1036" 
d="M555 -358v136h44q73 0 109.5 33.5t36.5 112.5v173h166v-164q0 -141 -67 -216t-221 -75h-68zM132 0v974h162l4 -150q43 58 123 108.5t200 50.5q156 0 223 -93t67 -262v-628h-166v605q0 69 -13.5 123t-49 84.5t-101.5 30.5q-101 0 -170.5 -48.5t-111.5 -104.5v-690h-167z
" />
    <glyph glyph-name="Omacron" unicode="&#x14c;" horiz-adv-x="1424" 
d="M714 -18q-206 0 -344 88t-208 243t-70 359t70 360t208 244t344 88q204 0 341.5 -88t207.5 -244t70 -360t-70 -359t-207.5 -243t-341.5 -88zM713 129q155 0 250.5 73t140 196.5t44.5 273.5q0 151 -44.5 274.5t-140 197t-250.5 73.5t-251 -73.5t-140.5 -197t-44.5 -274.5
q0 -150 44.5 -273.5t140.5 -196.5t251 -73zM441 1524v123h545v-123h-545z" />
    <glyph glyph-name="omacron" unicode="&#x14d;" horiz-adv-x="1050" 
d="M519 -16q-137 0 -234 60t-148.5 172.5t-51.5 268.5q0 158 51.5 271.5t148.5 174.5t234 61q140 0 240 -61t153 -174.5t53 -271.5q0 -156 -53 -268.5t-153 -172.5t-240 -60zM519 116q101 0 160.5 48t86 131t26.5 190t-26.5 191t-86 132.5t-160.5 48.5q-95 0 -153 -48.5
t-83.5 -132.5t-25.5 -192q0 -106 25.5 -189t83.5 -131t153 -48zM253 1178v123h545v-123h-545z" />
    <glyph glyph-name="Obreve" unicode="&#x14e;" horiz-adv-x="1424" 
d="M714 -18q-206 0 -344 88t-208 243t-70 359t70 360t208 244t344 88q204 0 341.5 -88t207.5 -244t70 -360t-70 -359t-207.5 -243t-341.5 -88zM713 129q155 0 250.5 73t140 196.5t44.5 273.5q0 151 -44.5 274.5t-140 197t-250.5 73.5t-251 -73.5t-140.5 -197t-44.5 -274.5
q0 -150 44.5 -273.5t140.5 -196.5t251 -73zM710 1481q-80 0 -142 30t-98 85.5t-41 134.5h105q4 -51 30.5 -83.5t65 -48.5t80.5 -16q43 0 81.5 16.5t65.5 49.5t34 82h107q-9 -77 -46.5 -133.5t-99 -86.5t-142.5 -30z" />
    <glyph glyph-name="obreve" unicode="&#x14f;" horiz-adv-x="1050" 
d="M519 -16q-137 0 -234 60t-148.5 172.5t-51.5 268.5q0 158 51.5 271.5t148.5 174.5t234 61q140 0 240 -61t153 -174.5t53 -271.5q0 -156 -53 -268.5t-153 -172.5t-240 -60zM519 116q101 0 160.5 48t86 131t26.5 190t-26.5 191t-86 132.5t-160.5 48.5q-95 0 -153 -48.5
t-83.5 -132.5t-25.5 -192q0 -106 25.5 -189t83.5 -131t153 -48zM523 1118q-114 0 -183 66.5t-83 185.5h103q10 -77 57.5 -110t105.5 -33q59 0 107 34t57 109h102q-12 -117 -81.5 -184.5t-184.5 -67.5z" />
    <glyph glyph-name="Ohungarumlaut" unicode="&#x150;" horiz-adv-x="1424" 
d="M714 -18q-206 0 -344 88t-208 243t-70 359t70 360t208 244t344 88q204 0 341.5 -88t207.5 -244t70 -360t-70 -359t-207.5 -243t-341.5 -88zM713 129q155 0 250.5 73t140 196.5t44.5 273.5q0 151 -44.5 274.5t-140 197t-250.5 73.5t-251 -73.5t-140.5 -197t-44.5 -274.5
q0 -150 44.5 -273.5t140.5 -196.5t251 -73zM753 1462l175 270h172l-227 -270h-120zM467 1462l175 270h171l-227 -270h-119z" />
    <glyph glyph-name="ohungarumlaut" unicode="&#x151;" horiz-adv-x="1050" 
d="M519 -16q-137 0 -234 60t-148.5 172.5t-51.5 268.5q0 158 51.5 271.5t148.5 174.5t234 61q140 0 240 -61t153 -174.5t53 -271.5q0 -156 -53 -268.5t-153 -172.5t-240 -60zM519 116q101 0 160.5 48t86 131t26.5 190t-26.5 191t-86 132.5t-160.5 48.5q-95 0 -153 -48.5
t-83.5 -132.5t-25.5 -192q0 -106 25.5 -189t83.5 -131t153 -48zM565 1110l175 269h172l-227 -269h-120zM279 1110l175 269h171l-227 -269h-119z" />
    <glyph glyph-name="OE" unicode="&#x152;" horiz-adv-x="2107" 
d="M705 -18q-201 0 -337.5 87.5t-206 243t-69.5 359.5t69.5 360t206 244t338.5 88q150 0 257 -50t174 -142.5t98.5 -219.5t31.5 -280q0 -152 -31.5 -279t-98.5 -219t-174 -142t-258 -50zM717 129q155 0 250.5 73t139.5 196.5t44 273.5q0 151 -44 274.5t-139.5 197
t-250.5 73.5t-251 -73.5t-141 -197t-45 -274.5q0 -150 45 -273.5t141 -196.5t251 -73zM1151 0v1346h858v-150h-678v-429h624v-148h-624v-469h678v-150h-858z" />
    <glyph glyph-name="oe" unicode="&#x153;" horiz-adv-x="1724" 
d="M511 -16q-133 0 -229 60t-146.5 172.5t-50.5 268.5q0 158 51 271.5t147.5 174.5t232.5 61q140 0 236 -61.5t144.5 -175.5t48.5 -270t-49.5 -268t-146 -172.5t-238.5 -60.5zM516 116q101 0 161.5 48t87.5 131.5t27 189.5q0 107 -27 191t-87.5 132.5t-161.5 48.5
q-95 0 -152 -48.5t-83 -132.5t-26 -191q0 -106 26 -189.5t83 -131.5t152 -48zM1242 -16q-150 0 -247.5 65t-144.5 179t-47 259q0 146 44 259t138 178t241 65q193 0 302 -119.5t109 -343.5q0 -16 -1 -36.5t-3 -29.5l-672 1q0 -95 28 -174t90 -126.5t162 -47.5q106 0 166.5 52
t62.5 152h165q-3 -103 -51.5 -177.5t-136 -115t-205.5 -40.5zM962 583h507q-3 135 -67.5 206.5t-178.5 71.5t-181.5 -71t-79.5 -207z" />
    <glyph glyph-name="Racute" unicode="&#x154;" horiz-adv-x="1209" 
d="M151 0v1346h509q116 0 211.5 -37t153.5 -116t58 -205q0 -128 -71.5 -218t-211.5 -122q73 -11 122 -46.5t82.5 -100.5t58.5 -164l88 -337h-183l-78 309q-23 93 -54 150.5t-76 84t-113 26.5h-316v-570h-180zM331 720h306q74 0 134 28t95.5 81t35.5 128q0 113 -66.5 176
t-192.5 63h-312v-476zM510 1462l194 269h193l-257 -269h-130z" />
    <glyph glyph-name="racute" unicode="&#x155;" horiz-adv-x="635" 
d="M132 0v974h157l6 -165q42 75 115 126t189 51h20v-153h-23q-73 0 -128 -19t-95.5 -52.5t-73.5 -77.5v-684h-167zM221 1110l203 269h194l-268 -269h-129z" />
    <glyph glyph-name="uni0156" unicode="&#x156;" horiz-adv-x="1209" 
d="M151 0v1346h509q116 0 211.5 -37t153.5 -116t58 -205q0 -128 -71.5 -218t-211.5 -122q73 -11 122 -46.5t82.5 -100.5t58.5 -164l88 -337h-183l-78 309q-23 93 -54 150.5t-76 84t-113 26.5h-316v-570h-180zM331 720h306q74 0 134 28t95.5 81t35.5 128q0 113 -66.5 176
t-192.5 63h-312v-476zM561 -383l-20 66q34 12 64.5 33t39.5 51q-41 4 -65.5 28.5t-24.5 59.5t27 60.5t74 25.5t77.5 -28t30.5 -81q0 -82 -60.5 -141t-142.5 -74z" />
    <glyph glyph-name="uni0157" unicode="&#x157;" horiz-adv-x="635" 
d="M132 0v974h157l6 -165q42 75 115 126t189 51h20v-153h-23q-73 0 -128 -19t-95.5 -52.5t-73.5 -77.5v-684h-167zM126 -383l-20 66q34 12 64.5 33t39.5 51q-41 4 -65.5 28.5t-24.5 59.5t27 60.5t74 25.5t77.5 -28t30.5 -81q0 -82 -60.5 -141t-142.5 -74z" />
    <glyph glyph-name="Rcaron" unicode="&#x158;" horiz-adv-x="1209" 
d="M151 0v1346h509q116 0 211.5 -37t153.5 -116t58 -205q0 -128 -71.5 -218t-211.5 -122q73 -11 122 -46.5t82.5 -100.5t58.5 -164l88 -337h-183l-78 309q-23 93 -54 150.5t-76 84t-113 26.5h-316v-570h-180zM331 720h306q74 0 134 28t95.5 81t35.5 128q0 113 -66.5 176
t-192.5 63h-312v-476zM511 1462l-214 271h138l160 -174l158 174h139l-214 -271h-167z" />
    <glyph glyph-name="rcaron" unicode="&#x159;" horiz-adv-x="635" 
d="M132 0v974h157l6 -165q42 75 115 126t189 51h20v-153h-23q-73 0 -128 -19t-95.5 -52.5t-73.5 -77.5v-684h-167zM231 1110l-214 269h138l160 -172l158 172h139l-214 -269h-167z" />
    <glyph glyph-name="Sacute" unicode="&#x15a;" horiz-adv-x="1118" 
d="M569 -18q-144 0 -261 44t-185 138t-68 244h180q1 -107 47.5 -168t123 -86t168.5 -25q86 0 156.5 25.5t112.5 77t42 131.5q0 71 -33 116t-109 78.5t-206 66.5q-152 40 -250 87.5t-145.5 118.5t-47.5 180q0 115 54 193.5t154.5 119.5t240.5 41q130 0 238 -42t172.5 -126
t64.5 -209h-181q2 114 -83 172.5t-210 58.5q-128 0 -200.5 -51.5t-72.5 -150.5q0 -59 31 -98.5t107.5 -71.5t211.5 -67q156 -42 253 -90t143 -123t46 -197q0 -130 -65.5 -215.5t-177 -128.5t-251.5 -43zM474 1462l194 269h193l-257 -269h-130z" />
    <glyph glyph-name="sacute" unicode="&#x15b;" horiz-adv-x="948" 
d="M482 -13q-83 0 -156.5 17.5t-129.5 56.5t-87.5 101t-31.5 151h161q0 -112 71 -157t177 -45q95 0 156.5 35.5t61.5 116.5q0 72 -55.5 106t-196.5 69q-114 27 -191 62.5t-116 90t-39 137.5q0 64 27.5 112.5t77 81t116 49t144.5 16.5q77 0 144.5 -18t119.5 -55.5t81.5 -97
t29.5 -141.5h-162q0 101 -61.5 143.5t-151.5 42.5t-146 -31t-56 -97q0 -39 25 -66t84 -48.5t158 -45.5q110 -26 183.5 -62t111 -93t37.5 -147q0 -74 -29 -128t-81.5 -88.5t-123 -51t-152.5 -16.5zM386 1110l203 269h194l-268 -269h-129z" />
    <glyph glyph-name="Scircumflex" unicode="&#x15c;" horiz-adv-x="1118" 
d="M569 -18q-144 0 -261 44t-185 138t-68 244h180q1 -107 47.5 -168t123 -86t168.5 -25q86 0 156.5 25.5t112.5 77t42 131.5q0 71 -33 116t-109 78.5t-206 66.5q-152 40 -250 87.5t-145.5 118.5t-47.5 180q0 115 54 193.5t154.5 119.5t240.5 41q130 0 238 -42t172.5 -126
t64.5 -209h-181q2 114 -83 172.5t-210 58.5q-128 0 -200.5 -51.5t-72.5 -150.5q0 -59 31 -98.5t107.5 -71.5t211.5 -67q156 -42 253 -90t143 -123t46 -197q0 -130 -65.5 -215.5t-177 -128.5t-251.5 -43zM261 1462l214 271h167l214 -271h-139l-158 174l-160 -174h-138z" />
    <glyph glyph-name="scircumflex" unicode="&#x15d;" horiz-adv-x="948" 
d="M482 -13q-83 0 -156.5 17.5t-129.5 56.5t-87.5 101t-31.5 151h161q0 -112 71 -157t177 -45q95 0 156.5 35.5t61.5 116.5q0 72 -55.5 106t-196.5 69q-114 27 -191 62.5t-116 90t-39 137.5q0 64 27.5 112.5t77 81t116 49t144.5 16.5q77 0 144.5 -18t119.5 -55.5t81.5 -97
t29.5 -141.5h-162q0 101 -61.5 143.5t-151.5 42.5t-146 -31t-56 -97q0 -39 25 -66t84 -48.5t158 -45.5q110 -26 183.5 -62t111 -93t37.5 -147q0 -74 -29 -128t-81.5 -88.5t-123 -51t-152.5 -16.5zM184 1110l214 269h167l214 -269h-139l-158 172l-160 -172h-138z" />
    <glyph glyph-name="Scedilla" unicode="&#x15e;" horiz-adv-x="1118" 
d="M569 -18q-144 0 -261 44t-185 138t-68 244h180q1 -107 47.5 -168t123 -86t168.5 -25q86 0 156.5 25.5t112.5 77t42 131.5q0 71 -33 116t-109 78.5t-206 66.5q-152 40 -250 87.5t-145.5 118.5t-47.5 180q0 115 54 193.5t154.5 119.5t240.5 41q130 0 238 -42t172.5 -126
t64.5 -209h-181q2 114 -83 172.5t-210 58.5q-128 0 -200.5 -51.5t-72.5 -150.5q0 -59 31 -98.5t107.5 -71.5t211.5 -67q156 -42 253 -90t143 -123t46 -197q0 -130 -65.5 -215.5t-177 -128.5t-251.5 -43zM502 -382q-57 0 -100 9.5t-81 24.5l27 93q26 -12 66.5 -20.5
t81.5 -8.5q36 0 61 17t25 48q0 33 -30 51t-113 28l-44 5l132 177l87 -30l-74 -100l-30 23q94 -4 145.5 -42t51.5 -109q0 -55 -27 -92t-73 -55.5t-105 -18.5z" />
    <glyph glyph-name="scedilla" unicode="&#x15f;" horiz-adv-x="948" 
d="M482 -13q-83 0 -156.5 17.5t-129.5 56.5t-87.5 101t-31.5 151h161q0 -112 71 -157t177 -45q95 0 156.5 35.5t61.5 116.5q0 72 -55.5 106t-196.5 69q-114 27 -191 62.5t-116 90t-39 137.5q0 64 27.5 112.5t77 81t116 49t144.5 16.5q77 0 144.5 -18t119.5 -55.5t81.5 -97
t29.5 -141.5h-162q0 101 -61.5 143.5t-151.5 42.5t-146 -31t-56 -97q0 -39 25 -66t84 -48.5t158 -45.5q110 -26 183.5 -62t111 -93t37.5 -147q0 -74 -29 -128t-81.5 -88.5t-123 -51t-152.5 -16.5zM456 -382q-57 0 -100 9.5t-81 24.5l27 93q26 -12 66.5 -20.5t81.5 -8.5
q36 0 61 17t25 48q0 33 -30 51t-113 28l-44 5l132 177l87 -30l-74 -100l-30 23q94 -4 145.5 -42t51.5 -109q0 -55 -27 -92t-73 -55.5t-105 -18.5z" />
    <glyph glyph-name="Scaron" unicode="&#x160;" horiz-adv-x="1118" 
d="M569 -18q-144 0 -261 44t-185 138t-68 244h180q1 -107 47.5 -168t123 -86t168.5 -25q86 0 156.5 25.5t112.5 77t42 131.5q0 71 -33 116t-109 78.5t-206 66.5q-152 40 -250 87.5t-145.5 118.5t-47.5 180q0 115 54 193.5t154.5 119.5t240.5 41q130 0 238 -42t172.5 -126
t64.5 -209h-181q2 114 -83 172.5t-210 58.5q-128 0 -200.5 -51.5t-72.5 -150.5q0 -59 31 -98.5t107.5 -71.5t211.5 -67q156 -42 253 -90t143 -123t46 -197q0 -130 -65.5 -215.5t-177 -128.5t-251.5 -43zM475 1462l-214 271h138l160 -174l158 174h139l-214 -271h-167z" />
    <glyph glyph-name="scaron" unicode="&#x161;" horiz-adv-x="948" 
d="M482 -13q-83 0 -156.5 17.5t-129.5 56.5t-87.5 101t-31.5 151h161q0 -112 71 -157t177 -45q95 0 156.5 35.5t61.5 116.5q0 72 -55.5 106t-196.5 69q-114 27 -191 62.5t-116 90t-39 137.5q0 64 27.5 112.5t77 81t116 49t144.5 16.5q77 0 144.5 -18t119.5 -55.5t81.5 -97
t29.5 -141.5h-162q0 101 -61.5 143.5t-151.5 42.5t-146 -31t-56 -97q0 -39 25 -66t84 -48.5t158 -45.5q110 -26 183.5 -62t111 -93t37.5 -147q0 -74 -29 -128t-81.5 -88.5t-123 -51t-152.5 -16.5zM396 1110l-214 269h138l160 -172l158 172h139l-214 -269h-167z" />
    <glyph glyph-name="uni0162" unicode="&#x162;" horiz-adv-x="977" 
d="M398 0v1195h-382v151h943v-151h-381v-1195h-180zM459 -382q-57 0 -100 9.5t-81 24.5l27 93q26 -12 66.5 -20.5t81.5 -8.5q36 0 61 17t25 48q0 33 -30 51t-113 28l-44 5l132 177l87 -30l-74 -100l-30 23q94 -4 145.5 -42t51.5 -109q0 -55 -27 -92t-73 -55.5t-105 -18.5z
" />
    <glyph glyph-name="uni0163" unicode="&#x163;" horiz-adv-x="622" 
d="M469 0q-117 0 -180.5 37.5t-87 108t-23.5 169.5v524h-162v135h162v223h167v-223h241v-135h-241v-516q0 -91 23.5 -139t111.5 -48h106v-136h-117zM314 -390q-57 0 -100 9.5t-81 24.5l27 93q26 -12 66.5 -20.5t81.5 -8.5q36 0 61 17t25 48q0 33 -30 51t-113 28l-44 5
l132 177l87 -30l-74 -100l-30 23q94 -4 145.5 -42t51.5 -109q0 -55 -27 -92t-73 -55.5t-105 -18.5z" />
    <glyph glyph-name="Tcaron" unicode="&#x164;" horiz-adv-x="977" 
d="M398 0v1195h-382v151h943v-151h-381v-1195h-180zM405 1462l-214 271h138l160 -174l158 174h139l-214 -271h-167z" />
    <glyph glyph-name="tcaron" unicode="&#x165;" horiz-adv-x="622" 
d="M469 0q-117 0 -180.5 37.5t-87 108t-23.5 169.5v524h-162v135h162v223h167v-223h241v-135h-241v-516q0 -91 23.5 -139t111.5 -48h106v-136h-117zM440 1061l66 318h166l-120 -318h-112z" />
    <glyph glyph-name="Tbar" unicode="&#x166;" horiz-adv-x="977" 
d="M178 589v139h624v-139h-624zM398 0v1195h-382v151h943v-151h-381v-1195h-180z" />
    <glyph glyph-name="tbar" unicode="&#x167;" horiz-adv-x="622" 
d="M32 460v107h522v-107h-522zM469 0q-117 0 -180.5 37.5t-87 108t-23.5 169.5v524h-162v135h162v223h167v-223h241v-135h-241v-516q0 -91 23.5 -139t111.5 -48h106v-136h-117z" />
    <glyph glyph-name="Utilde" unicode="&#x168;" horiz-adv-x="1333" 
d="M666 -29q-186 0 -303 69t-172 189t-55 271v846h182v-824q0 -211 89 -305t259 -94q171 0 260 94t89 305v824h182v-846q0 -151 -54 -271t-171 -189t-306 -69zM355 1484q12 92 54.5 146t126.5 54q41 0 80.5 -14t76.5 -31q33 -14 59.5 -23t48.5 -9q32 0 53 20t27 62h98
q-11 -89 -51 -141.5t-124 -52.5q-44 0 -83 13.5t-74 28.5q-34 15 -60 24.5t-49 9.5q-34 0 -56 -21t-29 -66h-98z" />
    <glyph glyph-name="utilde" unicode="&#x169;" horiz-adv-x="1036" 
d="M421 -10q-158 0 -227.5 94.5t-69.5 260.5v629h168v-606q0 -68 13.5 -120t50.5 -81.5t106 -29.5q100 0 167 45t108 102v690h167v-974h-161l-4 150q-43 -57 -121.5 -108.5t-196.5 -51.5zM214 1138q12 92 54.5 146t126.5 54q41 0 80.5 -14t76.5 -31q33 -14 59.5 -23t48.5 -9
q32 0 53 20t27 62h98q-11 -89 -51 -141.5t-124 -52.5q-44 0 -83 13.5t-74 28.5q-34 15 -60 24.5t-49 9.5q-34 0 -56 -21t-29 -66h-98z" />
    <glyph glyph-name="Umacron" unicode="&#x16a;" horiz-adv-x="1333" 
d="M666 -29q-186 0 -303 69t-172 189t-55 271v846h182v-824q0 -211 89 -305t259 -94q171 0 260 94t89 305v824h182v-846q0 -151 -54 -271t-171 -189t-306 -69zM395 1524v123h545v-123h-545z" />
    <glyph glyph-name="umacron" unicode="&#x16b;" horiz-adv-x="1036" 
d="M421 -10q-158 0 -227.5 94.5t-69.5 260.5v629h168v-606q0 -68 13.5 -120t50.5 -81.5t106 -29.5q100 0 167 45t108 102v690h167v-974h-161l-4 150q-43 -57 -121.5 -108.5t-196.5 -51.5zM254 1178v123h545v-123h-545z" />
    <glyph glyph-name="Ubreve" unicode="&#x16c;" horiz-adv-x="1333" 
d="M666 -29q-186 0 -303 69t-172 189t-55 271v846h182v-824q0 -211 89 -305t259 -94q171 0 260 94t89 305v824h182v-846q0 -151 -54 -271t-171 -189t-306 -69zM664 1481q-80 0 -142 30t-98 85.5t-41 134.5h105q4 -51 30.5 -83.5t65 -48.5t80.5 -16q43 0 81.5 16.5t65.5 49.5
t34 82h107q-9 -77 -46.5 -133.5t-99 -86.5t-142.5 -30z" />
    <glyph glyph-name="ubreve" unicode="&#x16d;" horiz-adv-x="1036" 
d="M421 -10q-158 0 -227.5 94.5t-69.5 260.5v629h168v-606q0 -68 13.5 -120t50.5 -81.5t106 -29.5q100 0 167 45t108 102v690h167v-974h-161l-4 150q-43 -57 -121.5 -108.5t-196.5 -51.5zM524 1118q-114 0 -183 66.5t-83 185.5h103q10 -77 57.5 -110t105.5 -33q59 0 107 34
t57 109h102q-12 -117 -81.5 -184.5t-184.5 -67.5z" />
    <glyph glyph-name="Uring" unicode="&#x16e;" horiz-adv-x="1333" 
d="M666 -29q-186 0 -303 69t-172 189t-55 271v846h182v-824q0 -211 89 -305t259 -94q171 0 260 94t89 305v824h182v-846q0 -151 -54 -271t-171 -189t-306 -69zM667 1377q-92 0 -150 56t-58 147q0 90 58 145.5t150 55.5t150 -55.5t58 -145.5q0 -91 -58 -147t-150 -56z
M667 1472q47 0 76 30.5t29 78.5q0 46 -29 76.5t-76 30.5q-46 0 -75 -30.5t-29 -76.5q0 -48 29 -78.5t75 -30.5z" />
    <glyph glyph-name="uring" unicode="&#x16f;" horiz-adv-x="1036" 
d="M421 -10q-158 0 -227.5 94.5t-69.5 260.5v629h168v-606q0 -68 13.5 -120t50.5 -81.5t106 -29.5q100 0 167 45t108 102v690h167v-974h-161l-4 150q-43 -57 -121.5 -108.5t-196.5 -51.5zM526 1079q-92 0 -150 55.5t-58 147.5q0 90 58 145.5t150 55.5t150 -55.5t58 -145.5
q0 -92 -58 -147.5t-150 -55.5zM526 1174q47 0 76 30t29 78q0 47 -29 77.5t-76 30.5q-46 0 -75 -30.5t-29 -77.5q0 -48 29 -78t75 -30z" />
    <glyph glyph-name="Uhungarumlaut" unicode="&#x170;" horiz-adv-x="1333" 
d="M666 -29q-186 0 -303 69t-172 189t-55 271v846h182v-824q0 -211 89 -305t259 -94q171 0 260 94t89 305v824h182v-846q0 -151 -54 -271t-171 -189t-306 -69zM707 1462l175 270h172l-227 -270h-120zM421 1462l175 270h171l-227 -270h-119z" />
    <glyph glyph-name="uhungarumlaut" unicode="&#x171;" horiz-adv-x="1036" 
d="M421 -10q-158 0 -227.5 94.5t-69.5 260.5v629h168v-606q0 -68 13.5 -120t50.5 -81.5t106 -29.5q100 0 167 45t108 102v690h167v-974h-161l-4 150q-43 -57 -121.5 -108.5t-196.5 -51.5zM566 1110l175 269h172l-227 -269h-120zM280 1110l175 269h171l-227 -269h-119z" />
    <glyph glyph-name="Uogonek" unicode="&#x172;" horiz-adv-x="1333" 
d="M666 -29q-186 0 -303 69t-172 189t-55 271v846h182v-824q0 -211 89 -305t259 -94q171 0 260 94t89 305v824h182v-846q0 -151 -54 -271t-171 -189t-306 -69zM800 -375q-76 0 -129.5 43t-53.5 119q0 51 31.5 101t85 89.5t118.5 56.5l63 -18q-88 -57 -122 -109.5t-34 -94.5
q0 -35 20.5 -53.5t51.5 -18.5q34 0 63.5 8.5t61.5 22.5v-111q-29 -16 -63.5 -25.5t-92.5 -9.5z" />
    <glyph glyph-name="uogonek" unicode="&#x173;" horiz-adv-x="1036" 
d="M421 -10q-158 0 -227.5 94.5t-69.5 260.5v629h168v-606q0 -68 13.5 -120t50.5 -81.5t106 -29.5q100 0 167 45t108 102v690h167v-974h-161l-4 150q-43 -57 -121.5 -108.5t-196.5 -51.5zM754 -375q-76 0 -129.5 43t-53.5 119q0 51 31.5 101t85 89.5t118.5 56.5l63 -18
q-88 -57 -122 -109.5t-34 -94.5q0 -35 20.5 -53.5t51.5 -18.5q34 0 63.5 8.5t61.5 22.5v-111q-29 -16 -63.5 -25.5t-92.5 -9.5z" />
    <glyph glyph-name="Wcircumflex" unicode="&#x174;" horiz-adv-x="1814" 
d="M389 0l-393 1346h188l304 -1123l322 1123h200l322 -1123l306 1123h180l-393 -1346h-188l-331 1138l-326 -1138h-191zM612 1462l214 271h167l214 -271h-139l-158 174l-160 -174h-138z" />
    <glyph glyph-name="wcircumflex" unicode="&#x175;" horiz-adv-x="1466" 
d="M318 0l-312 974h174l231 -786l234 786h185l237 -785l229 785h164l-311 -974h-177l-238 793l-239 -793h-177zM442 1110l214 269h167l214 -269h-139l-158 172l-160 -172h-138z" />
    <glyph glyph-name="Ycircumflex" unicode="&#x176;" horiz-adv-x="1095" 
d="M456 0v536l-460 810h196l357 -650l355 650h196l-462 -810v-536h-182zM251 1462l214 271h167l214 -271h-139l-158 174l-160 -174h-138z" />
    <glyph glyph-name="ycircumflex" unicode="&#x177;" horiz-adv-x="886" 
d="M85 -361v138h83q61 0 98 31.5t66 103.5l37 88l-373 974h176l285 -797l263 797h170l-350 -974l-44 -114q-35 -93 -75.5 -147t-96.5 -77t-139 -23h-100zM150 1110l214 269h167l214 -269h-139l-158 172l-160 -172h-138z" />
    <glyph glyph-name="Ydieresis" unicode="&#x178;" horiz-adv-x="1095" 
d="M456 0v536l-460 810h196l357 -650l355 650h196l-462 -810v-536h-182zM725 1510q-40 0 -66.5 25t-26.5 65t26.5 65.5t66.5 25.5t67 -25.5t27 -65.5t-27 -65t-67 -25zM373 1510q-39 0 -66.5 25t-27.5 65t27.5 65.5t66.5 25.5q40 0 67 -25.5t27 -65.5t-27 -65t-67 -25z" />
    <glyph glyph-name="Zacute" unicode="&#x179;" horiz-adv-x="1056" 
d="M39 0v142l729 1053h-682v151h893v-137l-733 -1058h771v-151h-978zM447 1462l194 269h193l-257 -269h-130z" />
    <glyph glyph-name="zacute" unicode="&#x17a;" horiz-adv-x="872" 
d="M64 0v128l516 711h-474v135h674v-119l-523 -720h552v-135h-745zM349 1110l203 269h194l-268 -269h-129z" />
    <glyph glyph-name="Zdotaccent" unicode="&#x17b;" horiz-adv-x="1056" 
d="M39 0v142l729 1053h-682v151h893v-137l-733 -1058h771v-151h-978zM532 1503q-47 0 -76 27.5t-29 69.5t29 69.5t76 27.5t76 -27.5t29 -69.5t-29 -69.5t-76 -27.5z" />
    <glyph glyph-name="zdotaccent" unicode="&#x17c;" horiz-adv-x="872" 
d="M64 0v128l516 711h-474v135h674v-119l-523 -720h552v-135h-745zM443 1157q-47 0 -76 27.5t-29 69.5t29 69.5t76 27.5t76 -27.5t29 -69.5t-29 -69.5t-76 -27.5z" />
    <glyph glyph-name="Zcaron" unicode="&#x17d;" horiz-adv-x="1056" 
d="M39 0v142l729 1053h-682v151h893v-137l-733 -1058h771v-151h-978zM448 1462l-214 271h138l160 -174l158 174h139l-214 -271h-167z" />
    <glyph glyph-name="zcaron" unicode="&#x17e;" horiz-adv-x="872" 
d="M64 0v128l516 711h-474v135h674v-119l-523 -720h552v-135h-745zM359 1110l-214 269h138l160 -172l158 172h139l-214 -269h-167z" />
    <glyph glyph-name="longs" unicode="&#x17f;" horiz-adv-x="558" 
d="M195 0v838h-163v136h163v56q0 100 23.5 170.5t86 108t181.5 37.5h101v-131h-90q-89 0 -112.5 -48t-23.5 -139v-1028h-166z" />
    <glyph glyph-name="uni0181" unicode="&#x181;" horiz-adv-x="1399" 
d="M357 0v1198q-88 -2 -136 -40t-48 -120v-70h-157v80q0 158 95.5 228t245.5 70h433q202 0 323.5 -82t121.5 -250q0 -106 -59.5 -189t-157.5 -108q140 -23 223 -111.5t83 -218.5q0 -122 -54.5 -208.5t-163.5 -132.5t-274 -46h-475zM537 150h291q87 0 158.5 21.5t114.5 76
t43 150.5q0 116 -84 173t-232 57h-291v-478zM537 774h251q129 0 198 59.5t69 160.5q0 68 -31 113.5t-90.5 68t-145.5 22.5h-251v-424z" />
    <glyph glyph-name="uni0186" unicode="&#x186;" horiz-adv-x="1343" 
d="M629 -18q-145 0 -262.5 52t-192 156.5t-90.5 263.5h182q16 -161 112.5 -242t250.5 -81q156 0 252 72.5t140.5 195.5t44.5 273q0 151 -44.5 274t-140.5 197t-251 74q-90 0 -167.5 -32t-129 -97.5t-63.5 -166.5h-180q14 150 92.5 248.5t196.5 146.5t250 48q203 0 341.5 -88
t209.5 -244t71 -360t-71 -359t-209.5 -243t-341.5 -88z" />
    <glyph glyph-name="uni0189" unicode="&#x189;" horiz-adv-x="1341" 
d="M0 613v144h714v-144h-714zM151 0v1346h432q211 0 360 -79.5t227.5 -230.5t78.5 -363q0 -213 -79 -364t-227.5 -230t-359.5 -79h-432zM331 151h212q177 0 292 56.5t172 173t57 293.5q0 176 -58 291.5t-173.5 172.5t-289.5 57h-212v-1044z" />
    <glyph glyph-name="uni018A" unicode="&#x18a;" horiz-adv-x="1547" 
d="M357 0v1198q-88 -2 -136 -40t-48 -120v-70h-157v80q0 158 95.5 228t245.5 70h432q212 0 360.5 -79.5t227 -230.5t78.5 -363q0 -213 -78.5 -364t-227.5 -230t-360 -79h-432zM537 151h212q265 0 393 128.5t128 394.5q0 264 -130 392.5t-391 128.5h-212v-1044z" />
    <glyph glyph-name="uni018E" unicode="&#x18e;" horiz-adv-x="1107" 
d="M98 0v150h679v469h-625v148h625v429h-679v150h859v-1346h-859z" />
    <glyph glyph-name="uni018F" unicode="&#x18f;" horiz-adv-x="1418" 
d="M710 -18q-126 0 -235.5 36t-193.5 117.5t-133.5 217t-55.5 335.5l197 -124q8 -161 69 -256.5t154 -137t198 -41.5q153 0 247.5 71.5t138.5 194.5t44 279q0 155 -43.5 277t-138.5 192.5t-248 70.5q-186 0 -299 -76t-133 -232h-182q20 155 104 256.5t217 151.5t297 50
q200 0 336.5 -87.5t206.5 -242.5t70 -360q0 -204 -70.5 -360t-208 -244t-338.5 -88zM174 543l-82 145h1129v-145h-1047z" />
    <glyph glyph-name="uni0190" unicode="&#x190;" horiz-adv-x="1088" 
d="M544 -18q-140 0 -245.5 46.5t-164.5 136t-59 218.5q0 139 79.5 224.5t200.5 110.5q-109 30 -175.5 108t-66.5 197q0 113 58 189t155.5 115t214.5 39q131 0 230.5 -48.5t155.5 -136.5t56 -208h-178q4 110 -67.5 178t-198.5 68q-112 0 -180.5 -51.5t-68.5 -154.5
q0 -106 63 -169t179 -63h119v-144h-116q-127 0 -201 -60.5t-74 -187.5q0 -133 76.5 -196.5t209.5 -63.5q139 0 218 76t79 204h178q0 -139 -59 -234t-166 -144t-252 -49z" />
    <glyph glyph-name="uni0191" unicode="&#x191;" horiz-adv-x="1043" 
d="M-23 -358v153h52q71 0 96.5 44t25.5 128v1379h838v-150h-658v-430h595v-147h-595v-656q0 -164 -67.5 -242.5t-221.5 -78.5h-65z" />
    <glyph glyph-name="florin" unicode="&#x192;" horiz-adv-x="580" 
d="M-13 -360v137h44q72 0 108.5 34.5t36.5 115.5v912h-162v135h162v56q0 100 23.5 170.5t86.5 108t182 37.5h102v-131h-92q-88 0 -111.5 -48.5t-23.5 -139.5v-53h225v-135h-225v-898q0 -146 -67 -223.5t-220 -77.5h-69z" />
    <glyph glyph-name="uni0194" unicode="&#x194;" horiz-adv-x="1043" 
d="M524 -20q-74 0 -129.5 31t-86.5 86.5t-31 125.5q0 66 23 131.5t65 138.5t97 160l35 57l10 6l347 630h194l-469 -796q-34 -58 -66 -116t-52.5 -111.5t-20.5 -98.5q0 -51 22.5 -81t61.5 -30q37 0 60 30.5t23 82.5q0 67 -45 150.5t-100 177.5l-466 792h202l338 -626l12 -9
l38 -61q56 -89 97.5 -162t64 -137.5t22.5 -127.5q0 -69 -29 -124t-84 -87t-133 -32z" />
    <glyph glyph-name="uni0198" unicode="&#x198;" horiz-adv-x="1133" 
d="M151 0v1346h180v-647l193 10l612 -709h-209l-596 691v-691h-180zM1096 1346v-154h-47q-58 0 -103 -18t-93 -63.5t-114 -129.5l-215 -272l-193 -10l280 361q83 107 144 169.5t123 89.5t148 27h70z" />
    <glyph glyph-name="uni0199" unicode="&#x199;" horiz-adv-x="916" 
d="M132 0v1053l167 2v-540l393 459h190l-394 -457l436 -517h-197l-428 506v-506h-167zM132 1053q0 141 64 217t210 76h77v-137h-43q-71 0 -106.5 -37t-33.5 -118z" />
    <glyph glyph-name="Ohorn" unicode="&#x1a0;" horiz-adv-x="1509" 
d="M1261 997l-38 79q78 31 129 76t59 107l10 -8q-52 0 -86 32t-34 81q0 53 34.5 84.5t87.5 31.5q57 0 92 -37t35 -112q0 -62 -21.5 -115t-61 -95.5t-92 -73.5t-114.5 -50zM714 -18q-206 0 -344 88t-208 243t-70 359t70 360t208 244t344 88q204 0 341.5 -88t207.5 -244
t70 -360t-70 -359t-207.5 -243t-341.5 -88zM713 129q155 0 250.5 73t140 196.5t44.5 273.5q0 151 -44.5 274.5t-140 197t-250.5 73.5t-251 -73.5t-140.5 -197t-44.5 -274.5q0 -150 44.5 -273.5t140.5 -196.5t251 -73z" />
    <glyph glyph-name="ohorn" unicode="&#x1a1;" horiz-adv-x="1114" 
d="M898 719l-37 80q70 31 115 75.5t53 106.5l10 -8q-52 0 -86.5 32t-34.5 82q0 51 34 83t86 32q56 0 90 -36.5t34 -111.5q0 -82 -34 -148.5t-93.5 -113.5t-136.5 -73zM519 -16q-137 0 -234 60t-148.5 172.5t-51.5 268.5q0 158 51.5 271.5t148.5 174.5t234 61q140 0 240 -61
t153 -174.5t53 -271.5q0 -156 -53 -268.5t-153 -172.5t-240 -60zM519 116q101 0 160.5 48t86 131t26.5 190t-26.5 191t-86 132.5t-160.5 48.5q-95 0 -153 -48.5t-83.5 -132.5t-25.5 -192q0 -106 25.5 -189t83.5 -131t153 -48z" />
    <glyph glyph-name="Uhorn" unicode="&#x1af;" horiz-adv-x="1499" 
d="M1183 997l-37 79q107 31 177.5 76t81.5 107l10 -8q-51 0 -85 32t-34 81q0 53 34.5 84.5t87.5 31.5q57 0 91.5 -37t34.5 -112q0 -62 -26.5 -115t-75.5 -95.5t-115 -73.5t-144 -50zM666 -29q-186 0 -303 69t-172 189t-55 271v846h182v-824q0 -211 89 -305t259 -94
q171 0 260 94t89 305v824h182v-846q0 -151 -54 -271t-171 -189t-306 -69z" />
    <glyph glyph-name="uhorn" unicode="&#x1b0;" horiz-adv-x="1143" 
d="M887 697l-6 97q85 32 134.5 77.5t57.5 109.5l10 -8q-51 0 -85.5 32t-34.5 82q0 51 33.5 83t86.5 32q55 0 89.5 -36.5t34.5 -111.5q0 -63 -21.5 -117.5t-62.5 -99t-100.5 -79.5t-135.5 -61zM421 -10q-158 0 -227.5 94.5t-69.5 260.5v629h168v-606q0 -68 13.5 -120
t50.5 -81.5t106 -29.5q100 0 167 45t108 102v690h167v-974h-161l-4 150q-43 -57 -121.5 -108.5t-196.5 -51.5z" />
    <glyph glyph-name="uni01B2" unicode="&#x1b2;" horiz-adv-x="1348" 
d="M673 -29q-188 0 -307 69t-174.5 189t-55.5 271v846h182v-824q0 -211 91.5 -305t264.5 -94q174 0 265.5 94t91.5 305v405l182 4v-431q0 -151 -55.5 -271t-174 -189t-310.5 -69zM1031 927q0 141 -48.5 203t-180.5 62h-57v154h70q212 0 305 -99t93 -316z" />
    <glyph glyph-name="uni01B3" unicode="&#x1b3;" horiz-adv-x="1135" 
d="M456 0v536l-460 810h191l362 -655l89 -155v-536h-182zM638 536l-138 58l201 458q53 120 101.5 184t105.5 87t136 23h74v-154h-47q-50 0 -87.5 -16.5t-73 -64.5t-77.5 -142z" />
    <glyph glyph-name="uni01B4" unicode="&#x1b4;" horiz-adv-x="1145" 
d="M109 -358v138h83q59 0 95 30.5t64 101.5l38 88l-389 974h177l301 -791l314 895q31 89 70.5 141t95.5 74t138 22h54v-139h-37q-59 0 -98 -31t-68 -107l-430 -1161q-33 -89 -72.5 -140t-95.5 -73t-140 -22h-100z" />
    <glyph glyph-name="uni01B7" unicode="&#x1b7;" horiz-adv-x="1120" 
d="M560 -18q-149 0 -260 48.5t-172 142.5t-61 231h179q0 -127 82 -202.5t230 -75.5q140 0 220.5 68.5t80.5 214.5q0 138 -100.5 203.5t-277.5 65.5h-126v135l165 -3q151 0 269.5 -44.5t187 -133.5t68.5 -225t-61 -231t-170.5 -144.5t-253.5 -49.5zM488 754l-133 59l406 382
h-614v151h825v-142z" />
    <glyph glyph-name="uni01DD" unicode="&#x1dd;" horiz-adv-x="1012" 
d="M480 992q153 0 251.5 -66.5t147 -181t48.5 -257.5q0 -149 -47 -262.5t-142 -177.5t-240 -64q-192 0 -301.5 120.5t-109.5 344.5q0 15 1.5 36t2.5 29h668q0 96 -28.5 175t-89.5 127t-161 48q-106 0 -166 -52.5t-63 -151.5h-165q3 103 51.5 177.5t135.5 115t207 40.5z
M758 391h-506q3 -136 67.5 -208t178.5 -72q118 0 183.5 71.5t76.5 208.5z" />
    <glyph glyph-name="Gcaron" unicode="&#x1e6;" horiz-adv-x="1375" 
d="M715 -18q-203 0 -342 87t-210 242.5t-71 360.5q0 206 71 362t210 243t342 87q99 0 191 -26.5t166.5 -80t122 -134.5t58.5 -191h-182q-9 77 -54 141.5t-121.5 104t-182.5 39.5q-155 0 -251.5 -73.5t-142 -196.5t-45.5 -275q0 -151 45.5 -273.5t142.5 -194.5t253 -72
q134 0 220 50.5t128.5 141t44.5 208.5h-373v149h548v-105q0 -175 -63.5 -309t-189.5 -209.5t-315 -75.5zM629 1462l-214 271h138l160 -174l158 174h139l-214 -271h-167z" />
    <glyph glyph-name="gcaron" unicode="&#x1e7;" horiz-adv-x="900" 
d="M447 -377q-151 0 -242 36t-131.5 96t-40.5 130q0 85 72.5 151t224.5 93l31 55h111q227 0 324.5 -63.5t97.5 -196.5q0 -132 -114 -216.5t-333 -84.5zM443 -256q158 0 224.5 48t66.5 119q0 42 -22 72.5t-80 47.5t-166 17h-135q-69 -17 -104.5 -58t-35.5 -95
q0 -60 58 -105.5t194 -45.5zM328 69q-97 4 -152 31t-78 63.5t-23 67.5q0 46 41 92t131 74l85 -55q-55 -12 -85 -37t-30 -52q0 -19 18 -34.5t62 -24.5t120 -10zM436 315q-115 0 -195 46t-121 122t-41 164q0 93 41.5 169t121 121t195.5 45q119 0 197.5 -45t118 -121t39.5 -169
q0 -90 -40 -165.5t-118.5 -121t-197.5 -45.5zM437 429q88 0 143 55t55 163q0 113 -53.5 167.5t-142.5 54.5t-145 -56t-56 -165q0 -110 60 -164.5t139 -54.5zM682 875l-67 63q37 94 105.5 128t173.5 37v-141q-66 0 -121 -14.5t-91 -72.5zM381 1110l-214 269h138l160 -172
l158 172h139l-214 -269h-167z" />
    <glyph glyph-name="uni01EA" unicode="&#x1ea;" horiz-adv-x="1424" 
d="M714 -18q-206 0 -344 88t-208 243t-70 359t70 360t208 244t344 88q204 0 341.5 -88t207.5 -244t70 -360t-70 -359t-207.5 -243t-341.5 -88zM713 129q155 0 250.5 73t140 196.5t44.5 273.5q0 151 -44.5 274.5t-140 197t-250.5 73.5t-251 -73.5t-140.5 -197t-44.5 -274.5
q0 -150 44.5 -273.5t140.5 -196.5t251 -73zM827 -375q-76 0 -129.5 43t-53.5 119q0 51 31.5 101t85 89.5t118.5 56.5l63 -18q-88 -57 -122 -109.5t-34 -94.5q0 -35 20.5 -53.5t51.5 -18.5q34 0 63.5 8.5t61.5 22.5v-111q-29 -16 -63.5 -25.5t-92.5 -9.5z" />
    <glyph glyph-name="uni01EB" unicode="&#x1eb;" horiz-adv-x="1050" 
d="M519 -16q-137 0 -234 60t-148.5 172.5t-51.5 268.5q0 158 51.5 271.5t148.5 174.5t234 61q140 0 240 -61t153 -174.5t53 -271.5q0 -156 -53 -268.5t-153 -172.5t-240 -60zM519 116q101 0 160.5 48t86 131t26.5 190t-26.5 191t-86 132.5t-160.5 48.5q-95 0 -153 -48.5
t-83.5 -132.5t-25.5 -192q0 -106 25.5 -189t83.5 -131t153 -48zM615 -375q-76 0 -129.5 43t-53.5 119q0 51 31.5 101t85 89.5t118.5 56.5l63 -18q-88 -57 -122 -109.5t-34 -94.5q0 -35 20.5 -53.5t51.5 -18.5q34 0 63.5 8.5t61.5 22.5v-111q-29 -16 -63.5 -25.5t-92.5 -9.5z
" />
    <glyph glyph-name="uni01F8" unicode="&#x1f8;" horiz-adv-x="1394" 
d="M151 0v1346h183l739 -1071v1071h170v-1346h-184l-738 1073v-1073h-170zM676 1462l-257 269h193l194 -269h-130z" />
    <glyph glyph-name="uni01F9" unicode="&#x1f9;" horiz-adv-x="1036" 
d="M132 0v974h162l4 -150q43 58 123 108.5t200 50.5q156 0 223 -93t67 -262v-628h-166v605q0 69 -13.5 123t-49 84.5t-101.5 30.5q-101 0 -170.5 -48.5t-111.5 -104.5v-690h-167zM504 1110l-267 269h192l204 -269h-129z" />
    <glyph glyph-name="Aringacute" unicode="&#x1fa;" horiz-adv-x="1188" 
d="M-2 0l504 1346h189l499 -1346h-187l-127 377h-560l-133 -377h-185zM365 528h458l-227 639zM594 1256q-92 0 -150 56t-58 147q0 90 58 145.5t150 55.5t150 -55.5t58 -145.5q0 -91 -58 -147t-150 -56zM594 1351q47 0 76 30.5t29 78.5q0 46 -29 76.5t-76 30.5
q-46 0 -75 -30.5t-29 -76.5q0 -48 29 -78.5t75 -30.5zM496 1691l194 269h193l-257 -269h-130z" />
    <glyph glyph-name="aringacute" unicode="&#x1fb;" horiz-adv-x="1002" 
d="M372 -18q-79 0 -144 31t-104 93t-39 154q0 132 77.5 200t219.5 92t332 26v71q0 125 -57 171.5t-143 46.5q-94 0 -158 -49.5t-64 -158.5h-162q0 118 49.5 191.5t136.5 107t198 33.5q70 0 135 -14t117 -51t82 -103.5t30 -171.5v-651h-154l-6 142q-64 -74 -149 -117
t-197 -43zM416 110q95 0 170 44.5t127 116.5v203q-247 -3 -354 -50.5t-107 -156.5q0 -72 41 -114.5t123 -42.5zM515 1079q-92 0 -150 55.5t-58 147.5q0 90 58 145.5t150 55.5t150 -55.5t58 -145.5q0 -92 -58 -147.5t-150 -55.5zM515 1174q47 0 76 30t29 78q0 47 -29 77.5
t-76 30.5q-46 0 -75 -30.5t-29 -77.5q0 -48 29 -78t75 -30zM418 1506l203 269h194l-268 -269h-129z" />
    <glyph glyph-name="AEacute" unicode="&#x1fc;" horiz-adv-x="1900" 
d="M-43 0l870 1346h146v-175h-77l-450 -706v-11l-285 -454h-204zM367 377v151h661v-151h-661zM944 0v1346h858v-150h-678v-429h624v-148h-624v-469h678v-150h-858zM1101 1462l194 269h193l-257 -269h-130z" />
    <glyph glyph-name="aeacute" unicode="&#x1fd;" horiz-adv-x="1638" 
d="M1158 -18q-154 0 -253 66.5t-146.5 181t-47.5 257.5q0 149 46 262.5t141 177.5t241 64q193 0 302.5 -120t109.5 -345q0 -15 -1 -35.5t-3 -29.5h-669q1 -95 29.5 -174.5t89.5 -127.5t161 -48q106 0 166 52.5t63 151.5h165q-4 -103 -52 -177.5t-135 -115t-207 -40.5z
M401 -18q-143 0 -229.5 73.5t-86.5 206.5q0 131 77.5 198.5t218 92.5t330.5 27v77q0 80 -27.5 125.5t-71 64.5t-92.5 19q-95 0 -161 -50t-66 -159h-162q0 175 106.5 254.5t281.5 79.5q71 0 138.5 -20.5t117.5 -70t66 -138.5l-75 -288q-188 -1 -301 -21.5t-162.5 -63.5
t-49.5 -113q0 -75 44 -120.5t131 -45.5q69 0 129 24.5t109.5 74.5t89.5 125l67 -70q-32 -75 -91.5 -139.5t-143 -103.5t-187.5 -39zM879 583h507q-4 136 -67.5 208t-179.5 72q-117 0 -183 -72t-77 -208zM752 1110l203 269h194l-268 -269h-129z" />
    <glyph glyph-name="Oslashacute" unicode="&#x1fe;" horiz-adv-x="1465" 
d="M187 -65l-95 81l1186 1393l96 -80zM734 -18q-212 0 -355 88t-215 243t-72 359t72 360t215 244t355 88q211 0 353 -88t214.5 -244t72.5 -360t-72.5 -359t-214.5 -243t-353 -88zM734 127q162 0 263 73.5t147.5 197t46.5 274.5q0 152 -46.5 275.5t-147.5 197t-263 73.5
q-164 0 -264.5 -73.5t-147.5 -197t-47 -275.5q0 -151 47 -274.5t148 -197t264 -73.5zM649 1462l194 269h193l-257 -269h-130z" />
    <glyph glyph-name="oslashacute" unicode="&#x1ff;" horiz-adv-x="1050" 
d="M131 -70l-80 70l869 1038l81 -69zM520 -16q-137 0 -234.5 60t-149 172.5t-51.5 268.5q0 158 51.5 271.5t149 174.5t234.5 61q140 0 239.5 -61t153 -174.5t53.5 -272.5q0 -155 -53.5 -267.5t-153 -172.5t-239.5 -60zM521 113q100 0 160.5 48t87.5 132.5t27 190.5
q0 109 -27 194t-87.5 134t-160.5 49q-97 0 -155.5 -49t-84.5 -134t-26 -193q0 -107 26 -191.5t84.5 -132.5t155.5 -48zM470 1110l203 269h194l-268 -269h-129z" />
    <glyph glyph-name="uni0218" unicode="&#x218;" horiz-adv-x="1118" 
d="M569 -18q-144 0 -261 44t-185 138t-68 244h180q1 -107 47.5 -168t123 -86t168.5 -25q86 0 156.5 25.5t112.5 77t42 131.5q0 71 -33 116t-109 78.5t-206 66.5q-152 40 -250 87.5t-145.5 118.5t-47.5 180q0 115 54 193.5t154.5 119.5t240.5 41q130 0 238 -42t172.5 -126
t64.5 -209h-181q2 114 -83 172.5t-210 58.5q-128 0 -200.5 -51.5t-72.5 -150.5q0 -59 31 -98.5t107.5 -71.5t211.5 -67q156 -42 253 -90t143 -123t46 -197q0 -130 -65.5 -215.5t-177 -128.5t-251.5 -43zM473 -383l-20 66q34 12 64.5 33t39.5 51q-41 4 -65.5 28.5t-24.5 59.5
t27 60.5t74 25.5t77.5 -28t30.5 -81q0 -82 -60.5 -141t-142.5 -74z" />
    <glyph glyph-name="uni0219" unicode="&#x219;" horiz-adv-x="948" 
d="M482 -13q-83 0 -156.5 17.5t-129.5 56.5t-87.5 101t-31.5 151h161q0 -112 71 -157t177 -45q95 0 156.5 35.5t61.5 116.5q0 72 -55.5 106t-196.5 69q-114 27 -191 62.5t-116 90t-39 137.5q0 64 27.5 112.5t77 81t116 49t144.5 16.5q77 0 144.5 -18t119.5 -55.5t81.5 -97
t29.5 -141.5h-162q0 101 -61.5 143.5t-151.5 42.5t-146 -31t-56 -97q0 -39 25 -66t84 -48.5t158 -45.5q110 -26 183.5 -62t111 -93t37.5 -147q0 -74 -29 -128t-81.5 -88.5t-123 -51t-152.5 -16.5zM404 -383l-20 66q34 12 64.5 33t39.5 51q-41 4 -65.5 28.5t-24.5 59.5
t27 60.5t74 25.5t77.5 -28t30.5 -81q0 -82 -60.5 -141t-142.5 -74z" />
    <glyph glyph-name="uni021A" unicode="&#x21a;" horiz-adv-x="977" 
d="M398 0v1195h-382v151h943v-151h-381v-1195h-180zM399 -383l-20 66q34 12 64.5 33t39.5 51q-41 4 -65.5 28.5t-24.5 59.5t27 60.5t74 25.5t77.5 -28t30.5 -81q0 -82 -60.5 -141t-142.5 -74z" />
    <glyph glyph-name="uni021B" unicode="&#x21b;" horiz-adv-x="622" 
d="M469 0q-117 0 -180.5 37.5t-87 108t-23.5 169.5v524h-162v135h162v223h167v-223h241v-135h-241v-516q0 -91 23.5 -139t111.5 -48h106v-136h-117zM311 -383l-20 66q34 12 64.5 33t39.5 51q-41 4 -65.5 28.5t-24.5 59.5t27 60.5t74 25.5t77.5 -28t30.5 -81
q0 -82 -60.5 -141t-142.5 -74z" />
    <glyph glyph-name="uni0232" unicode="&#x232;" horiz-adv-x="1095" 
d="M456 0v536l-460 810h196l357 -650l355 650h196l-462 -810v-536h-182zM277 1524v123h545v-123h-545z" />
    <glyph glyph-name="uni0233" unicode="&#x233;" horiz-adv-x="886" 
d="M85 -361v138h83q61 0 98 31.5t66 103.5l37 88l-373 974h176l285 -797l263 797h170l-350 -974l-44 -114q-35 -93 -75.5 -147t-96.5 -77t-139 -23h-100zM174 1178v123h545v-123h-545z" />
    <glyph glyph-name="uni0237" unicode="&#x237;" horiz-adv-x="431" 
d="M-56 -360v137h44q72 0 108.5 34.5t36.5 115.5v1047h167v-1033q0 -146 -67 -223.5t-220 -77.5h-69z" />
    <glyph glyph-name="uni0253" unicode="&#x253;" horiz-adv-x="1058" 
d="M601 -26q-106 0 -181 43.5t-123 120.5l-8 -138h-157v1050l168 9v-239q47 70 123.5 117t182.5 47q112 0 194.5 -57t127.5 -168.5t45 -279.5q0 -166 -45.5 -278.5t-129.5 -169.5t-197 -57zM568 111q118 0 175.5 96.5t57.5 273.5t-57 272.5t-171 95.5q-99 0 -167 -54
t-106 -129v-376q38 -78 105 -128.5t163 -50.5zM132 1050q0 144 65.5 220t214.5 76h78v-137h-44q-73 0 -109.5 -34.5t-36.5 -115.5z" />
    <glyph glyph-name="uni0254" unicode="&#x254;" horiz-adv-x="1009" 
d="M485 -21q-111 0 -200.5 39t-143 117.5t-56.5 196.5h165q4 -107 69 -162.5t163 -55.5q136 0 204.5 96.5t68.5 271.5q0 177 -68.5 275t-204.5 98q-97 0 -157.5 -54t-67.5 -148h-165q4 114 56.5 188.5t140.5 111.5t196 37q132 0 230.5 -56.5t153 -170t54.5 -281.5
q0 -167 -55.5 -279.5t-154.5 -168t-228 -55.5z" />
    <glyph glyph-name="uni0256" unicode="&#x256;" horiz-adv-x="1062" 
d="M456 -23q-113 0 -196.5 57t-129 169.5t-45.5 277.5q0 168 45.5 280.5t130 169t200.5 56.5q105 0 181 -43.5t122 -118.5v521h164v-1343l-165 10l1 134q-49 -76 -126 -123t-182 -47zM1034 -288q-144 0 -207.5 77t-63.5 224l165 -10q-2 -81 33.5 -118t105.5 -37h44v-136h-77
zM485 115q101 0 168.5 53t106.5 127v378q-39 79 -105.5 128.5t-164.5 49.5q-115 0 -174 -96t-59 -273q0 -178 58.5 -272.5t169.5 -94.5z" />
    <glyph glyph-name="uni0257" unicode="&#x257;" horiz-adv-x="1114" 
d="M456 -23q-113 0 -196.5 57t-129 169.5t-45.5 277.5q0 168 45.5 280.5t130 169t200.5 56.5q105 0 181 -43.5t122 -118.5l-1 220l165 9v-1054h-155l-9 147q-49 -76 -126 -123t-182 -47zM485 115q101 0 168.5 53t106.5 127v378q-39 79 -105.5 128.5t-164.5 49.5
q-115 0 -174 -96t-59 -273q0 -178 58.5 -272.5t169.5 -94.5zM763 1045q0 147 64 224t210 77h77v-137h-44q-72 0 -108 -37t-34 -118z" />
    <glyph glyph-name="uni0259" unicode="&#x259;" horiz-adv-x="1012" 
d="M480 992q153 0 251.5 -66.5t147 -181t48.5 -257.5q0 -149 -47 -262.5t-142 -177.5t-240 -64q-192 0 -301.5 120.5t-109.5 344.5q0 15 1.5 36t2.5 29h668q0 96 -28.5 175t-89.5 127t-161 48q-106 0 -166 -52.5t-63 -151.5h-165q3 103 51.5 177.5t135.5 115t207 40.5z
M758 391h-506q3 -136 67.5 -208t178.5 -72q118 0 183.5 71.5t76.5 208.5z" />
    <glyph glyph-name="uni025B" unicode="&#x25b;" horiz-adv-x="941" 
d="M453 -16q-179 0 -281.5 71.5t-102.5 209.5q0 107 60 164t174 83q-106 25 -148.5 88.5t-42.5 135.5q0 60 32 118.5t107 96.5t204 38q167 0 264.5 -70t102.5 -207h-159q0 65 -57.5 107.5t-150.5 42.5q-94 0 -134.5 -39.5t-40.5 -97.5q0 -73 57.5 -111.5t139.5 -38.5h113
v-129h-86q-137 0 -200 -42t-63 -125q0 -87 58.5 -126.5t154.5 -39.5q122 0 189 45t71 144h159q-6 -103 -54 -174t-139 -107.5t-227 -36.5z" />
    <glyph glyph-name="uni0263" unicode="&#x263;" horiz-adv-x="937" 
d="M389 221l-393 753h176l298 -597l301 597h170l-388 -753h-164zM469 -232q42 0 60 29.5t18 80.5q0 46 -18 112t-60 128q-39 -62 -56 -128t-17 -112q0 -51 17 -80.5t56 -29.5zM469 -358q-110 0 -168.5 62t-58.5 168q0 60 27 140.5t78 171.5t123 181q76 -90 127.5 -180
t78 -170.5t26.5 -142.5q0 -106 -60 -168t-173 -62z" />
    <glyph glyph-name="uni0283" unicode="&#x283;" horiz-adv-x="522" 
d="M-2 -318v135h44q89 0 112 48t23 135v1030q0 100 23.5 170.5t86.5 107.5t182 37h55v-135h-45q-88 0 -111 -48.5t-23 -139.5v-1022q0 -101 -23.5 -171.5t-86 -108.5t-182.5 -38h-55z" />
    <glyph glyph-name="uni028B" unicode="&#x28b;" horiz-adv-x="1062" 
d="M514 -10q-136 0 -222.5 47.5t-127 137t-40.5 215.5v584h168v-576q0 -78 18 -137t66 -91.5t137 -32.5q105 0 160.5 34t76 100t20.5 159h168q0 -148 -47.5 -246t-141 -146t-235.5 -48zM770 430v233q0 91 -23 139t-112 48h-35v135h46q120 0 182.5 -37t86 -107.5t23.5 -169.5
v-241h-168z" />
    <glyph glyph-name="uni0292" unicode="&#x292;" horiz-adv-x="1005" 
d="M477 -379q-205 0 -323 95t-118 275h157q0 -114 76 -178.5t207 -64.5q133 0 208 69.5t75 215.5q0 99 -42.5 162.5t-122.5 95t-191 31.5h-124v125l386 392h-541v135h733v-119l-412 -417q148 0 257 -47t168.5 -137.5t59.5 -220.5q0 -196 -123.5 -304t-329.5 -108z" />
    <glyph glyph-name="circumflex" unicode="&#x2c6;" horiz-adv-x="1130" 
d="M269 1110l214 269h167l214 -269h-139l-158 172l-160 -172h-138z" />
    <glyph glyph-name="caron" unicode="&#x2c7;" horiz-adv-x="1130" 
d="M481 1110l-214 269h138l160 -172l158 172h139l-214 -269h-167z" />
    <glyph glyph-name="breve" unicode="&#x2d8;" horiz-adv-x="1130" 
d="M563 1118q-114 0 -183 66.5t-83 185.5h103q10 -77 57.5 -110t105.5 -33q59 0 107 34t57 109h102q-12 -117 -81.5 -184.5t-184.5 -67.5z" />
    <glyph glyph-name="dotaccent" unicode="&#x2d9;" horiz-adv-x="1130" 
d="M565 1157q-47 0 -76 27.5t-29 69.5t29 69.5t76 27.5t76 -27.5t29 -69.5t-29 -69.5t-76 -27.5z" />
    <glyph glyph-name="ring" unicode="&#x2da;" horiz-adv-x="1130" 
d="M565 1079q-92 0 -150 55.5t-58 147.5q0 90 58 145.5t150 55.5t150 -55.5t58 -145.5q0 -92 -58 -147.5t-150 -55.5zM565 1174q47 0 76 30t29 78q0 47 -29 77.5t-76 30.5q-46 0 -75 -30.5t-29 -77.5q0 -48 29 -78t75 -30z" />
    <glyph glyph-name="ogonek" unicode="&#x2db;" horiz-adv-x="1130" 
d="M578 -377q-76 0 -129.5 43t-53.5 119q0 51 31.5 101t85 89.5t118.5 56.5l63 -18q-88 -57 -122 -109.5t-34 -94.5q0 -35 20.5 -53.5t51.5 -18.5q34 0 63.5 8.5t61.5 22.5v-111q-29 -16 -63.5 -25.5t-92.5 -9.5z" />
    <glyph glyph-name="tilde" unicode="&#x2dc;" horiz-adv-x="1130" 
d="M253 1138q12 92 54.5 146t126.5 54q41 0 80.5 -14t76.5 -31q33 -14 59.5 -23t48.5 -9q32 0 53 20t27 62h98q-11 -89 -51 -141.5t-124 -52.5q-44 0 -83 13.5t-74 28.5q-34 15 -60 24.5t-49 9.5q-34 0 -56 -21t-29 -66h-98z" />
    <glyph glyph-name="hungarumlaut" unicode="&#x2dd;" horiz-adv-x="1130" 
d="M605 1110l175 269h172l-227 -269h-120zM319 1110l175 269h171l-227 -269h-119z" />
    <glyph glyph-name="gravecomb" unicode="&#x300;" 
d="M529 1110l-267 269h192l204 -269h-129z" />
    <glyph glyph-name="acutecomb" unicode="&#x301;" 
d="M471 1110l203 269h194l-268 -269h-129z" />
    <glyph glyph-name="uni0302" unicode="&#x302;" 
d="M269 1110l214 269h167l214 -269h-139l-158 172l-160 -172h-138z" />
    <glyph glyph-name="tildecomb" unicode="&#x303;" 
d="M253 1138q12 92 54.5 146t126.5 54q41 0 80.5 -14t76.5 -31q33 -14 59.5 -23t48.5 -9q32 0 53 20t27 62h98q-11 -89 -51 -141.5t-124 -52.5q-44 0 -83 13.5t-74 28.5q-34 15 -60 24.5t-49 9.5q-34 0 -56 -21t-29 -66h-98z" />
    <glyph glyph-name="uni0304" unicode="&#x304;" 
d="M293 1178v123h545v-123h-545z" />
    <glyph glyph-name="uni0306" unicode="&#x306;" 
d="M563 1118q-114 0 -183 66.5t-83 185.5h103q10 -77 57.5 -110t105.5 -33q59 0 107 34t57 109h102q-12 -117 -81.5 -184.5t-184.5 -67.5z" />
    <glyph glyph-name="uni0307" unicode="&#x307;" 
d="M565 1157q-47 0 -76 27.5t-29 69.5t29 69.5t76 27.5t76 -27.5t29 -69.5t-29 -69.5t-76 -27.5z" />
    <glyph glyph-name="uni0308" unicode="&#x308;" 
d="M741 1164q-40 0 -66.5 25t-26.5 65q0 39 26.5 64.5t66.5 25.5t67 -25.5t27 -64.5q0 -40 -27 -65t-67 -25zM389 1164q-39 0 -66.5 25t-27.5 65q0 39 27.5 64.5t66.5 25.5q40 0 67 -25.5t27 -64.5q0 -40 -27 -65t-67 -25z" />
    <glyph glyph-name="hookabovecomb" unicode="&#x309;" 
d="M536 1133l-42 61q35 10 63.5 34t28.5 59q0 37 -25.5 49.5t-75.5 12.5h-13v102h34q117 0 176.5 -35.5t59.5 -110.5q0 -47 -26 -83.5t-72.5 -58.5t-107.5 -30zM494 1194l112 -12v-94h-112v106z" />
    <glyph glyph-name="uni030A" unicode="&#x30a;" 
d="M565 1079q-92 0 -150 55.5t-58 147.5q0 90 58 145.5t150 55.5t150 -55.5t58 -145.5q0 -92 -58 -147.5t-150 -55.5zM565 1174q47 0 76 30t29 78q0 47 -29 77.5t-76 30.5q-46 0 -75 -30.5t-29 -77.5q0 -48 29 -78t75 -30z" />
    <glyph glyph-name="uni030B" unicode="&#x30b;" 
d="M605 1110l175 269h172l-227 -269h-120zM319 1110l175 269h171l-227 -269h-119z" />
    <glyph glyph-name="uni030C" unicode="&#x30c;" 
d="M481 1110l-214 269h138l160 -172l158 172h139l-214 -269h-167z" />
    <glyph glyph-name="uni0312" unicode="&#x312;" 
d="M562 1152q-45 0 -76 28.5t-31 84.5t28 102t73.5 77.5t99.5 42.5l22 -68q-31 -13 -60.5 -35.5t-41.5 -54.5q38 -6 62 -30t24 -57q0 -38 -27.5 -64t-72.5 -26z" />
    <glyph glyph-name="uni031B" unicode="&#x31b;" 
d="M-87 697l-7 97q82 32 128.5 77.5t53.5 109.5l10 -8q-51 0 -85 32t-34 82q0 51 33.5 83t85.5 32q56 0 90.5 -36.5t34.5 -111.5q0 -63 -21 -117.5t-61 -99t-97 -79.5t-131 -61z" />
    <glyph glyph-name="dotbelowcomb" unicode="&#x323;" 
d="M0 -291q-47 0 -76 27.5t-29 69.5t29 69.5t76 27.5t76 -27.5t29 -69.5t-29 -69.5t-76 -27.5z" />
    <glyph glyph-name="uni0326" unicode="&#x326;" 
d="M475 -383l-20 66q34 12 64.5 33t39.5 51q-41 4 -65.5 28.5t-24.5 59.5t27 60.5t74 25.5t77.5 -28t30.5 -81q0 -82 -60.5 -141t-142.5 -74z" />
    <glyph glyph-name="uni0327" unicode="&#x327;" 
d="M575 -382q-57 0 -100 9.5t-81 24.5l27 93q26 -12 66.5 -20.5t81.5 -8.5q36 0 61 17t25 48q0 33 -30 51t-113 28l-44 5l132 177l87 -30l-74 -100l-30 23q94 -4 145.5 -42t51.5 -109q0 -55 -27 -92t-73 -55.5t-105 -18.5z" />
    <glyph glyph-name="uni0328" unicode="&#x328;" 
d="M578 -377q-76 0 -129.5 43t-53.5 119q0 51 31.5 101t85 89.5t118.5 56.5l63 -18q-88 -57 -122 -109.5t-34 -94.5q0 -35 20.5 -53.5t51.5 -18.5q34 0 63.5 8.5t61.5 22.5v-111q-29 -16 -63.5 -25.5t-92.5 -9.5z" />
    <glyph glyph-name="uni0335" unicode="&#x335;" 
d="M34 385v107h535v-107h-535z" />
    <glyph glyph-name="uni0336" unicode="&#x336;" 
d="M0 613v144h714v-144h-714z" />
    <glyph glyph-name="uni0345" unicode="&#x345;" 
d="M61 -358q-106 0 -136.5 50t-30.5 130v123h133v-109q0 -40 10 -62t52 -22h32v-110h-60z" />
    <glyph glyph-name="uni0370" unicode="&#x370;" horiz-adv-x="819" 
d="M151 0v1346h180v-565h455v-156h-455v-625h-180z" />
    <glyph glyph-name="uni0371" unicode="&#x371;" horiz-adv-x="681" 
d="M132 0v974h168v-974h-168zM252 437v135h393v-135h-393z" />
    <glyph glyph-name="uni0372" unicode="&#x372;" horiz-adv-x="1116" 
d="M469 0v1195h-392v151h985v-151h-414v-1195h-179zM54 951v395h171v-395h-171zM891 951v395h171v-395h-171z" />
    <glyph glyph-name="uni0373" unicode="&#x373;" horiz-adv-x="985" 
d="M673 0q-117 0 -180 37.5t-86 108t-23 169.5v524h-218v-214h-150v349h933v-349h-149v214h-250v-516q0 -91 23 -139t112 -48h126v-136h-138z" />
    <glyph glyph-name="uni0374" unicode="&#x374;" horiz-adv-x="494" 
d="M49 1110l203 269h194l-268 -269h-129z" />
    <glyph glyph-name="uni0375" unicode="&#x375;" horiz-adv-x="494" 
d="M49 -135l203 269h194l-268 -269h-129z" />
    <glyph glyph-name="uni0376" unicode="&#x376;" horiz-adv-x="1394" 
d="M1243 0h-169v1099l-740 -1099h-183v1346h170v-1096l738 1096h184v-1346z" />
    <glyph glyph-name="uni0377" unicode="&#x377;" horiz-adv-x="1085" 
d="M132 0v974h158v-738l505 738h157v-974h-157v738l-505 -738h-158z" />
    <glyph glyph-name="uni037A" unicode="&#x37a;" horiz-adv-x="715" 
d="M387 -358q-106 0 -136.5 50t-30.5 130v123h133v-109q0 -40 10 -62t52 -22h32v-110h-60z" />
    <glyph glyph-name="uni037B" unicode="&#x37b;" horiz-adv-x="1025" 
d="M493 -21q-113 0 -205 39t-146 117.5t-57 196.5h165q4 -107 69.5 -162.5t170.5 -55.5q138 0 207.5 96t69.5 272q0 177 -69.5 275t-207.5 98q-104 0 -165 -54t-68 -148h-165q4 114 57.5 188.5t143 111.5t200.5 37q134 0 234.5 -57t156 -169.5t55.5 -281.5
q0 -168 -56.5 -279.5t-157 -167.5t-232.5 -56z" />
    <glyph glyph-name="uni037C" unicode="&#x37c;" horiz-adv-x="1025" 
d="M531 -21q-131 0 -231.5 55.5t-157.5 168t-57 279.5q0 168 56 281.5t156.5 170t233.5 56.5q112 0 201 -36t142.5 -108t57.5 -183h-164q-8 90 -68.5 141t-165.5 51q-138 0 -207.5 -98t-69.5 -275q0 -175 69.5 -271.5t207.5 -96.5q106 0 172 52.5t69 155.5h164
q-2 -114 -56.5 -190.5t-146 -114.5t-205.5 -38zM550 411q-45 0 -72.5 26.5t-27.5 66.5q0 41 27.5 67.5t72.5 26.5q46 0 73 -26.5t27 -67.5q0 -40 -27 -66.5t-73 -26.5z" />
    <glyph glyph-name="uni037D" unicode="&#x37d;" horiz-adv-x="1025" 
d="M493 -21q-113 0 -205 38t-146 114.5t-57 190.5h165q4 -103 69.5 -155.5t170.5 -52.5q138 0 207.5 96t69.5 272q0 177 -69.5 275t-207.5 98q-104 0 -165 -51t-68 -141h-165q4 111 57.5 183t143 108t200.5 36q134 0 234.5 -57t156 -169.5t55.5 -281.5q0 -168 -56.5 -279.5
t-157 -167.5t-232.5 -56zM477 411q-46 0 -73.5 26.5t-27.5 66.5q0 41 27.5 67.5t73.5 26.5q45 0 72.5 -26.5t27.5 -67.5q0 -40 -27.5 -66.5t-72.5 -26.5z" />
    <glyph glyph-name="uni037E" unicode="&#x37e;" horiz-adv-x="553" 
d="M117 -278l-42 94q58 26 102 73t53 111l11 -10q-56 0 -92.5 36.5t-36.5 89.5q0 55 36.5 90.5t92.5 35.5q55 0 91 -39t36 -120q0 -95 -33.5 -164.5t-90 -117.5t-127.5 -79zM254 722q-56 0 -93 36.5t-37 89.5q0 55 37 90.5t93 35.5q54 0 90.5 -35.5t36.5 -90.5
q0 -53 -36.5 -89.5t-90.5 -36.5z" />
    <glyph glyph-name="uni037F" unicode="&#x37f;" horiz-adv-x="650" 
d="M32 -13v153h72q134 0 183.5 62t49.5 202v942h178v-945q0 -144 -40.5 -236t-128 -135t-229.5 -43h-85z" />
    <glyph glyph-name="tonos" unicode="&#x384;" horiz-adv-x="1130" 
d="M483 1110l54 305h184l-134 -305h-104z" />
    <glyph glyph-name="dieresistonos" unicode="&#x385;" horiz-adv-x="1130" 
d="M491 1136l54 310h163l-123 -310h-94zM359 1167q-39 0 -65 24t-26 63q0 38 26 62.5t65 24.5t65 -24.5t26 -62.5q0 -39 -26 -63t-65 -24zM787 1167q-39 0 -64.5 24t-25.5 63q0 38 25.5 62.5t64.5 24.5t65 -24.5t26 -62.5q0 -39 -26 -63t-65 -24z" />
    <glyph glyph-name="Alphatonos" unicode="&#x386;" horiz-adv-x="1188" 
d="M-2 0l504 1346h189l499 -1346h-187l-127 377h-560l-133 -377h-185zM365 528h458l-227 639zM63 1041l54 305h183l-133 -305h-104z" />
    <glyph glyph-name="anoteleia" unicode="&#x387;" horiz-adv-x="587" 
d="M254 396q-56 0 -93 36.5t-37 89.5q0 55 37 90.5t93 35.5q54 0 90.5 -35.5t36.5 -90.5q0 -53 -36.5 -89.5t-90.5 -36.5z" />
    <glyph glyph-name="Epsilontonos" unicode="&#x388;" horiz-adv-x="1107" 
d="M151 0v1346h858v-150h-678v-429h624v-148h-624v-469h678v-150h-858zM-129 1041l54 305h183l-133 -305h-104z" />
    <glyph glyph-name="Etatonos" unicode="&#x389;" horiz-adv-x="1355" 
d="M151 0v1346h180v-565h695v565h178v-1346h-178v625h-695v-625h-180zM-129 1041l54 305h183l-133 -305h-104z" />
    <glyph glyph-name="Iotatonos" unicode="&#x38a;" horiz-adv-x="481" 
d="M151 0v1346h180v-1346h-180zM-129 1041l54 305h183l-133 -305h-104z" />
    <glyph glyph-name="Omicrontonos" unicode="&#x38c;" horiz-adv-x="1424" 
d="M714 -18q-206 0 -344 88t-208 243t-70 359t70 360t208 244t344 88q204 0 341.5 -88t207.5 -244t70 -360t-70 -359t-207.5 -243t-341.5 -88zM713 129q155 0 250.5 73t140 196.5t44.5 273.5q0 151 -44.5 274.5t-140 197t-250.5 73.5t-251 -73.5t-140.5 -197t-44.5 -274.5
q0 -150 44.5 -273.5t140.5 -196.5t251 -73zM-78 1041l54 305h183l-133 -305h-104z" />
    <glyph glyph-name="Upsilontonos" unicode="&#x38e;" horiz-adv-x="1095" 
d="M456 0v536l-460 810h196l357 -650l355 650h196l-462 -810v-536h-182zM-252 1041l54 305h183l-133 -305h-104z" />
    <glyph glyph-name="Omegatonos" unicode="&#x38f;" horiz-adv-x="1406" 
d="M600 66q-248 60 -375.5 230t-127.5 432q0 187 68.5 330.5t203.5 224.5t334 81t333.5 -81t202.5 -224.5t68 -330.5q0 -265 -127 -434.5t-377 -227.5v100q170 72 244.5 211.5t74.5 340.5q0 139 -42.5 252t-135 180t-241.5 67q-150 0 -242 -67t-134 -180t-42 -252
q0 -198 73.5 -338.5t241.5 -213.5v-100zM69 0v150h531v-150h-531zM803 0v150h533v-150h-533zM-78 1041l54 305h183l-133 -305h-104z" />
    <glyph glyph-name="iotadieresistonos" unicode="&#x390;" horiz-adv-x="499" 
d="M415 0q-118 0 -181.5 37.5t-86.5 108t-23 169.5v659h167v-651q0 -91 23 -139t112 -48h45v-136h-56zM161 1136l54 310h163l-123 -310h-94zM29 1167q-39 0 -65 24t-26 63q0 38 26 62.5t65 24.5t65 -24.5t26 -62.5q0 -39 -26 -63t-65 -24zM457 1167q-39 0 -64.5 24t-25.5 63
q0 38 25.5 62.5t64.5 24.5t65 -24.5t26 -62.5q0 -39 -26 -63t-65 -24z" />
    <glyph glyph-name="Alpha" unicode="&#x391;" horiz-adv-x="1188" 
d="M-2 0l504 1346h189l499 -1346h-187l-127 377h-560l-133 -377h-185zM365 528h458l-227 639z" />
    <glyph glyph-name="Beta" unicode="&#x392;" horiz-adv-x="1193" 
d="M151 0v1346h432q203 0 324 -82t121 -250q0 -106 -59 -189t-157 -108q140 -23 223 -111.5t83 -218.5q0 -122 -54.5 -208.5t-163.5 -132.5t-274 -46h-475zM331 150h291q86 0 158 21.5t115.5 76t43.5 150.5q0 116 -84.5 173t-232.5 57h-291v-478zM331 774h251
q130 0 198.5 59.5t68.5 160.5q0 68 -31 113.5t-91 68t-145 22.5h-251v-424z" />
    <glyph glyph-name="Gamma" unicode="&#x393;" horiz-adv-x="951" 
d="M151 0v1346h767v-146h-587v-1200h-180z" />
    <glyph glyph-name="uni0394" unicode="&#x394;" horiz-adv-x="1167" 
d="M39 0v141l123 9h857l111 -9v-141h-1091zM39 141l440 1205h211l440 -1205l-149 -97l-398 1123l-401 -1123z" />
    <glyph glyph-name="Epsilon" unicode="&#x395;" horiz-adv-x="1107" 
d="M151 0v1346h858v-150h-678v-429h624v-148h-624v-469h678v-150h-858z" />
    <glyph glyph-name="Zeta" unicode="&#x396;" horiz-adv-x="1056" 
d="M39 0v142l729 1053h-682v151h893v-137l-733 -1058h771v-151h-978z" />
    <glyph glyph-name="Eta" unicode="&#x397;" horiz-adv-x="1355" 
d="M151 0v1346h180v-565h695v565h178v-1346h-178v625h-695v-625h-180z" />
    <glyph glyph-name="Theta" unicode="&#x398;" horiz-adv-x="1424" 
d="M448 608v146h526v-146h-526zM714 -18q-206 0 -344 88t-208 243t-70 359t70 360t208 244t344 88q204 0 341.5 -88t207.5 -244t70 -360t-70 -359t-207.5 -243t-341.5 -88zM713 129q155 0 250.5 73t140 196.5t44.5 273.5q0 151 -44.5 274.5t-140 197t-250.5 73.5t-251 -73.5
t-140.5 -197t-44.5 -274.5q0 -150 44.5 -273.5t140.5 -196.5t251 -73z" />
    <glyph glyph-name="Iota" unicode="&#x399;" horiz-adv-x="481" 
d="M151 0v1346h180v-1346h-180z" />
    <glyph glyph-name="Kappa" unicode="&#x39a;" horiz-adv-x="1134" 
d="M151 0v1346h180v-647l553 647h206l-562 -645l608 -701h-209l-596 691v-691h-180z" />
    <glyph glyph-name="Lambda" unicode="&#x39b;" horiz-adv-x="1163" 
d="M-2 0l480 1346h211l476 -1346h-191l-392 1150l-394 -1150h-190z" />
    <glyph glyph-name="Mu" unicode="&#x39c;" horiz-adv-x="1567" 
d="M151 0v1346h196l480 -793h-73l469 793h193v-1346h-178v1196h62l-457 -773h-118l-464 773h63v-1196h-173z" />
    <glyph glyph-name="Nu" unicode="&#x39d;" horiz-adv-x="1394" 
d="M151 0v1346h183l739 -1071v1071h170v-1346h-184l-738 1073v-1073h-170z" />
    <glyph glyph-name="Xi" unicode="&#x39e;" horiz-adv-x="1140" 
d="M98 0v150h944v-150h-944zM242 619v148h657v-148h-657zM139 1196v150h862v-150h-862z" />
    <glyph glyph-name="Omicron" unicode="&#x39f;" horiz-adv-x="1424" 
d="M714 -18q-206 0 -344 88t-208 243t-70 359t70 360t208 244t344 88q204 0 341.5 -88t207.5 -244t70 -360t-70 -359t-207.5 -243t-341.5 -88zM713 129q155 0 250.5 73t140 196.5t44.5 273.5q0 151 -44.5 274.5t-140 197t-250.5 73.5t-251 -73.5t-140.5 -197t-44.5 -274.5
q0 -150 44.5 -273.5t140.5 -196.5t251 -73z" />
    <glyph glyph-name="Pi" unicode="&#x3a0;" horiz-adv-x="1334" 
d="M151 0v1346h1032v-1346h-178v1194h-674v-1194h-180z" />
    <glyph glyph-name="Rho" unicode="&#x3a1;" horiz-adv-x="1138" 
d="M151 0v1346h486q125 0 224.5 -47.5t157.5 -140t58 -226.5q0 -131 -58 -220t-157.5 -135t-224.5 -46h-306v-531h-180zM331 680h292q121 0 197 62.5t76 189.5q0 136 -76 201t-197 65h-292v-518z" />
    <glyph glyph-name="Sigma" unicode="&#x3a3;" horiz-adv-x="1024" 
d="M39 0v145l527 566l-496 490v145h858v-150l-651 -1l457 -436v-91l-486 -517l737 -1v-150h-946z" />
    <glyph glyph-name="Tau" unicode="&#x3a4;" horiz-adv-x="977" 
d="M398 0v1195h-382v151h943v-151h-381v-1195h-180z" />
    <glyph glyph-name="Upsilon" unicode="&#x3a5;" horiz-adv-x="1095" 
d="M456 0v536l-460 810h196l357 -650l355 650h196l-462 -810v-536h-182z" />
    <glyph glyph-name="Phi" unicode="&#x3a6;" horiz-adv-x="1467" 
d="M762 146v144h35q195 0 311 97t116 298q0 189 -117 281t-310 92h-35v145h40q174 0 310 -60.5t215 -176t79 -281.5q0 -173 -79 -293.5t-215 -183t-310 -62.5h-40zM644 -41v1427h180v-1427h-180zM705 146h-39q-173 0 -310 62.5t-216 183t-79 293.5q0 166 79 281.5t216 176
t310 60.5h39v-145h-35q-193 0 -309.5 -92t-116.5 -281q0 -201 116 -298t310 -97h35v-144z" />
    <glyph glyph-name="Chi" unicode="&#x3a7;" horiz-adv-x="1127" 
d="M11 0l449 697l-417 649h203l317 -527l329 527h194l-419 -652l449 -694h-209l-344 558l-354 -558h-198z" />
    <glyph glyph-name="Psi" unicode="&#x3a8;" horiz-adv-x="1533" 
d="M809 350v150h55q172 0 274 86.5t102 262.5v497h185l-3 -497q-1 -161 -72.5 -273t-195 -169t-281.5 -57h-64zM656 350q-156 0 -280.5 57t-195.5 169t-71 273v497h180v-497q0 -176 103 -262.5t273 -86.5h56v-150h-65zM674 0v1346h179v-1346h-179z" />
    <glyph glyph-name="uni03A9" unicode="&#x3a9;" horiz-adv-x="1406" 
d="M600 66q-248 60 -375.5 230t-127.5 432q0 187 68.5 330.5t203.5 224.5t334 81t333.5 -81t202.5 -224.5t68 -330.5q0 -265 -127 -434.5t-377 -227.5v100q170 72 244.5 211.5t74.5 340.5q0 139 -42.5 252t-135 180t-241.5 67q-150 0 -242 -67t-134 -180t-42 -252
q0 -198 73.5 -338.5t241.5 -213.5v-100zM69 0v150h531v-150h-531zM803 0v150h533v-150h-533z" />
    <glyph glyph-name="Iotadieresis" unicode="&#x3aa;" horiz-adv-x="482" 
d="M151 0v1346h180v-1346h-180zM416 1510q-40 0 -66.5 25t-26.5 65t26.5 65.5t66.5 25.5t67 -25.5t27 -65.5t-27 -65t-67 -25zM64 1510q-39 0 -66.5 25t-27.5 65t27.5 65.5t66.5 25.5q40 0 67 -25.5t27 -65.5t-27 -65t-67 -25z" />
    <glyph glyph-name="Upsilondieresis" unicode="&#x3ab;" horiz-adv-x="1095" 
d="M456 0v536l-460 810h196l357 -650l355 650h196l-462 -810v-536h-182zM725 1510q-40 0 -66.5 25t-26.5 65t26.5 65.5t66.5 25.5t67 -25.5t27 -65.5t-27 -65t-67 -25zM373 1510q-39 0 -66.5 25t-27.5 65t27.5 65.5t66.5 25.5q40 0 67 -25.5t27 -65.5t-27 -65t-67 -25z" />
    <glyph glyph-name="alphatonos" unicode="&#x3ac;" horiz-adv-x="1083" 
d="M454 -19q-172 0 -270.5 126t-98.5 374q0 167 49 280t138.5 170.5t208.5 57.5q95 0 167 -43.5t110 -112.5v141h165v-657q0 -92 23 -141t112 -49h15v-135h-37q-91 0 -145.5 20.5t-83 56.5t-41.5 82q-52 -75 -130 -122.5t-182 -47.5zM489 117q98 0 164 51.5t105 127.5v379
q-35 78 -96 128t-152 50q-124 0 -188.5 -97.5t-64.5 -274.5q0 -178 59.5 -271t172.5 -93zM474 1110l54 305h184l-134 -305h-104z" />
    <glyph glyph-name="epsilontonos" unicode="&#x3ad;" horiz-adv-x="941" 
d="M453 -16q-179 0 -281.5 71.5t-102.5 209.5q0 107 60 164t174 83q-106 25 -148.5 88.5t-42.5 135.5q0 60 32 118.5t107 96.5t204 38q167 0 264.5 -70t102.5 -207h-159q0 65 -57.5 107.5t-150.5 42.5q-94 0 -134.5 -39.5t-40.5 -97.5q0 -73 57.5 -111.5t139.5 -38.5h113
v-129h-86q-137 0 -200 -42t-63 -125q0 -87 58.5 -126.5t154.5 -39.5q122 0 189 45t71 144h159q-6 -103 -54 -174t-139 -107.5t-227 -36.5zM413 1110l54 305h184l-134 -305h-104z" />
    <glyph glyph-name="etatonos" unicode="&#x3ae;" horiz-adv-x="1032" 
d="M132 0v974h162l4 -150q43 58 122.5 108.5t201.5 50.5q150 0 218 -93t68 -262v-986h-166v963q0 69 -13.5 123t-48 84.5t-99.5 30.5q-102 0 -171 -48.5t-110 -104.5v-690h-168zM458 1110l54 305h184l-134 -305h-104z" />
    <glyph glyph-name="iotatonos" unicode="&#x3af;" horiz-adv-x="499" 
d="M415 0q-118 0 -181.5 37.5t-86.5 108t-23 169.5v659h167v-651q0 -91 23 -139t112 -48h45v-136h-56zM159 1110l54 305h184l-134 -305h-104z" />
    <glyph glyph-name="upsilondieresistonos" unicode="&#x3b0;" horiz-adv-x="1040" 
d="M526 -10q-141 0 -230 48.5t-130.5 139.5t-41.5 217v579h168v-555q0 -83 18.5 -146.5t69 -99.5t144.5 -36q103 0 157 43.5t74 119.5t20 175q0 124 -20.5 249t-61.5 250h167q41 -128 61.5 -258t20.5 -259q0 -146 -46 -250.5t-138.5 -160.5t-231.5 -56zM445 1136l54 310h163
l-123 -310h-94zM313 1167q-39 0 -65 24t-26 63q0 38 26 62.5t65 24.5t65 -24.5t26 -62.5q0 -39 -26 -63t-65 -24zM741 1167q-39 0 -64.5 24t-25.5 63q0 38 25.5 62.5t64.5 24.5t65 -24.5t26 -62.5q0 -39 -26 -63t-65 -24z" />
    <glyph glyph-name="alpha" unicode="&#x3b1;" horiz-adv-x="1083" 
d="M454 -19q-172 0 -270.5 126t-98.5 374q0 167 49 280t138.5 170.5t208.5 57.5q95 0 167 -43.5t110 -112.5v141h165v-657q0 -92 23 -141t112 -49h15v-135h-37q-91 0 -145.5 20.5t-83 56.5t-41.5 82q-52 -75 -130 -122.5t-182 -47.5zM489 117q98 0 164 51.5t105 127.5v379
q-35 78 -96 128t-152 50q-124 0 -188.5 -97.5t-64.5 -274.5q0 -178 59.5 -271t172.5 -93z" />
    <glyph glyph-name="beta" unicode="&#x3b2;" horiz-adv-x="1031" 
d="M124 -358v1280q0 148 48.5 246t138 147t212.5 49q161 0 258 -89.5t97 -246.5q0 -140 -89 -230.5t-241 -107.5l-82 57q230 0 354.5 -92.5t124.5 -281.5q0 -129 -54.5 -214.5t-148 -128t-211.5 -42.5q-60 0 -110.5 7t-97.5 21t-96 34v137q73 -33 142 -49.5t146 -16.5
q127 0 193 66.5t66 185.5q0 147 -86.5 210t-222.5 63h-81v126h82q110 0 178 64.5t68 181.5q0 106 -50 157.5t-139 51.5q-71 0 -123 -30t-80.5 -96t-28.5 -176v-1283h-167z" />
    <glyph glyph-name="gamma" unicode="&#x3b3;" horiz-adv-x="886" 
d="M367 -358l1 402h165v-402h-166zM368 18l-372 956h176l278 -779l270 779h170l-359 -961z" />
    <glyph glyph-name="delta" unicode="&#x3b4;" horiz-adv-x="1048" 
d="M519 -16q-137 0 -234 55.5t-148.5 159t-51.5 247.5t55 247t142.5 169.5t184.5 99.5l-281 250v134h725v-144h-508l274 -229q112 -92 174.5 -177t87 -171t24.5 -183q0 -143 -52.5 -245.5t-152 -157.5t-239.5 -55zM519 116q100 0 159.5 41.5t86 115.5t26.5 169
q0 101 -26 175.5t-76 135.5t-125 124q-87 -28 -156.5 -88t-110 -147t-40.5 -196q0 -95 26 -169.5t83.5 -117.5t152.5 -43z" />
    <glyph glyph-name="epsilon" unicode="&#x3b5;" horiz-adv-x="941" 
d="M453 -16q-179 0 -281.5 71.5t-102.5 209.5q0 107 60 164t174 83q-106 25 -148.5 88.5t-42.5 135.5q0 60 32 118.5t107 96.5t204 38q167 0 264.5 -70t102.5 -207h-159q0 65 -57.5 107.5t-150.5 42.5q-94 0 -134.5 -39.5t-40.5 -97.5q0 -73 57.5 -111.5t139.5 -38.5h113
v-129h-86q-137 0 -200 -42t-63 -125q0 -87 58.5 -126.5t154.5 -39.5q122 0 189 45t71 144h159q-6 -103 -54 -174t-139 -107.5t-227 -36.5z" />
    <glyph glyph-name="zeta" unicode="&#x3b6;" horiz-adv-x="817" 
d="M643 -249q15 87 10 136.5t-39.5 72.5t-110.5 28l-80 6q-99 8 -177.5 44t-123.5 112.5t-45 207.5q0 116 46.5 222t120.5 200.5t155 176.5l239 245h-476v144h655v-144l-288 -310q-74 -80 -138 -164.5t-103 -173.5t-39 -184q0 -128 55.5 -174t161.5 -55l80 -6
q108 -9 173.5 -48.5t87.5 -120t-3 -215.5h-161z" />
    <glyph glyph-name="eta" unicode="&#x3b7;" horiz-adv-x="1032" 
d="M132 0v974h162l4 -150q43 58 122.5 108.5t201.5 50.5q150 0 218 -93t68 -262v-986h-166v963q0 69 -13.5 123t-48 84.5t-99.5 30.5q-102 0 -171 -48.5t-110 -104.5v-690h-168z" />
    <glyph glyph-name="theta" unicode="&#x3b8;" horiz-adv-x="1054" 
d="M526 -18q-158 0 -252 86t-135.5 242t-41.5 364q0 209 41 364.5t135.5 241.5t252.5 86q159 0 253 -86t135.5 -241t41.5 -363q0 -209 -41.5 -365.5t-135.5 -242.5t-253 -86zM526 115q77 0 127.5 42t79 118.5t40 178.5t11.5 222q0 118 -12 219.5t-40.5 177t-78.5 117.5
t-126 42q-78 0 -129 -42t-79 -117.5t-40 -177t-12 -219.5q0 -120 12 -222t40 -178.5t79 -118.5t128 -42zM253 618v132h547v-132h-547z" />
    <glyph glyph-name="iota" unicode="&#x3b9;" horiz-adv-x="499" 
d="M415 0q-118 0 -181.5 37.5t-86.5 108t-23 169.5v659h167v-651q0 -91 23 -139t112 -48h45v-136h-56z" />
    <glyph glyph-name="kappa" unicode="&#x3ba;" horiz-adv-x="969" 
d="M132 0v974h168v-454l439 454h198l-434 -443l475 -531h-208l-384 426l-86 -72v-354h-168z" />
    <glyph glyph-name="lambda" unicode="&#x3bb;" horiz-adv-x="886" 
d="M-4 0l404 987h168l322 -987h-170l-244 811l-304 -811h-176zM400 987l-33 90q-24 70 -66.5 100t-104.5 30h-83v139h100q84 0 141 -22t97.5 -73.5t72.5 -140.5l44 -123h-168z" />
    <glyph glyph-name="uni03BC" unicode="&#x3bc;" horiz-adv-x="1064" 
d="M132 -361v1335h168v-606q0 -68 15 -120t54 -81.5t110 -29.5q103 0 173 45t113 102v690h167v-974h-161l-4 150q-56 -80 -136 -120t-161 -40q-76 0 -140.5 33.5t-103 99.5t-38.5 164h108v-648h-164z" />
    <glyph glyph-name="nu" unicode="&#x3bd;" horiz-adv-x="886" 
d="M353 0l-357 974h176l273 -810l275 810h170l-353 -974h-184z" />
    <glyph glyph-name="xi" unicode="&#x3be;" horiz-adv-x="814" 
d="M640 -256q16 88 9 138t-42.5 73t-109.5 29l-81 6q-102 9 -179 46.5t-119.5 115t-42.5 206.5q0 105 44 186.5t120.5 134.5t173.5 71q-99 32 -168 102.5t-69 175.5q0 60 20.5 117t72 102.5t141.5 72t227 26.5h171v-147h-170q-158 0 -225 -49.5t-67 -133.5q0 -83 74 -138.5
t200 -55.5h126v-147h-117q-174 0 -278 -82.5t-104 -222.5q0 -129 56 -177.5t160 -57.5l93 -9q101 -9 163.5 -48t84 -119.5t-1.5 -214.5h-162z" />
    <glyph glyph-name="omicron" unicode="&#x3bf;" horiz-adv-x="1050" 
d="M519 -16q-137 0 -234 60t-148.5 172.5t-51.5 268.5q0 158 51.5 271.5t148.5 174.5t234 61q140 0 240 -61t153 -174.5t53 -271.5q0 -156 -53 -268.5t-153 -172.5t-240 -60zM519 116q101 0 160.5 48t86 131t26.5 190t-26.5 191t-86 132.5t-160.5 48.5q-95 0 -153 -48.5
t-83.5 -132.5t-25.5 -192q0 -106 25.5 -189t83.5 -131t153 -48z" />
    <glyph glyph-name="pi" unicode="&#x3c0;" horiz-adv-x="1127" 
d="M1003 0q-118 0 -180.5 37.5t-86 108t-23.5 169.5v524h-697v135h1075v-135h-212v-516q0 -91 23.5 -139t111.5 -48h60v-136h-71zM199 0v930h167v-930h-167z" />
    <glyph glyph-name="rho" unicode="&#x3c1;" horiz-adv-x="1060" 
d="M287 136l1 155q39 -74 109.5 -121t173.5 -47q114 0 173 96t59 274q0 194 -62.5 279t-177.5 85q-125 0 -198 -79.5t-73 -263.5v-872h-168v869q0 122 30.5 212.5t88 150.5t138 90t182.5 30q189 0 300.5 -125t111.5 -375q0 -168 -46 -281t-130.5 -170.5t-200.5 -57.5
q-106 0 -184.5 39.5t-126.5 111.5z" />
    <glyph glyph-name="sigma1" unicode="&#x3c2;" horiz-adv-x="855" 
d="M652 -256q14 88 8 138t-42.5 73t-110.5 29l-80 6q-103 9 -180 54.5t-119.5 142t-42.5 257.5q0 176 49 297.5t143.5 185t229.5 63.5q104 0 181 -29.5t120.5 -88t46.5 -148.5h-165q-5 61 -47.5 96t-130.5 35q-92 0 -148 -50.5t-81.5 -142t-25.5 -213.5q0 -113 25 -180
t73.5 -97.5t118.5 -36.5l93 -9q101 -9 163.5 -48t84 -119.5t-2.5 -214.5h-160z" />
    <glyph glyph-name="sigma" unicode="&#x3c3;" horiz-adv-x="1107" 
d="M529 -18q-131 0 -231.5 55.5t-156.5 163t-56 262.5q0 254 133.5 382.5t383.5 128.5h486v-136h-462q-180 0 -274.5 -91.5t-94.5 -283.5q0 -92 25.5 -171t86.5 -127.5t167 -48.5t165.5 44.5t84 119.5t24.5 167q0 159 -54 256.5t-138 157.5l-36 49q105 0 196 -57
t147.5 -160.5t56.5 -243.5q0 -224 -121.5 -345.5t-331.5 -121.5z" />
    <glyph glyph-name="tau" unicode="&#x3c4;" horiz-adv-x="792" 
d="M562 0q-118 0 -180.5 37.5t-85.5 108t-23 169.5v524h-257v135h740v-135h-318v-516q0 -91 23.5 -139t112.5 -48h106v-136h-118z" />
    <glyph glyph-name="upsilon" unicode="&#x3c5;" horiz-adv-x="1040" 
d="M526 -10q-141 0 -230 48.5t-130.5 139.5t-41.5 217v579h168v-555q0 -83 18.5 -146.5t69 -99.5t144.5 -36q103 0 157 43.5t74 119.5t20 175q0 124 -20.5 249t-61.5 250h167q41 -128 61.5 -258t20.5 -259q0 -146 -46 -250.5t-138.5 -160.5t-231.5 -56z" />
    <glyph glyph-name="phi" unicode="&#x3c6;" horiz-adv-x="1324" 
d="M656 -19q-276 0 -423.5 134t-147.5 370q0 239 147.5 374.5t423.5 135.5q282 0 432 -136t150 -374q0 -236 -150 -370t-432 -134zM656 104q151 0 240.5 49.5t129.5 135.5t40 196t-40 197.5t-129.5 137.5t-240.5 50q-145 0 -233 -50t-127 -137t-39 -198q0 -110 39 -196
t127 -135.5t233 -49.5zM585 -358v1704h152v-1704h-152z" />
    <glyph glyph-name="chi" unicode="&#x3c7;" horiz-adv-x="933" 
d="M-4 -358l425 757l50 33l272 542h172l-351 -646l-57 -53l-334 -633h-177zM768 -358l-529 1054q-29 59 -57.5 92t-60 47t-72.5 14h-21v138h48q76 0 126 -20t89 -67.5t82 -131.5l564 -1126h-169z" />
    <glyph glyph-name="psi" unicode="&#x3c8;" horiz-adv-x="1385" 
d="M657 -10q-188 0 -305.5 48.5t-172.5 139.5t-55 217v579h168v-555q0 -86 29 -152t107.5 -103.5t227.5 -37.5h73q149 0 227.5 37.5t107.5 103.5t29 152v555h167v-579q0 -126 -54.5 -217t-171.5 -139.5t-306 -48.5h-71zM613 -358v1704h157v-1704h-157z" />
    <glyph glyph-name="omega" unicode="&#x3c9;" horiz-adv-x="1521" 
d="M454 -17q-118 0 -197.5 54.5t-119 160t-39.5 259.5q0 129 20.5 257t61.5 260h167q-26 -85 -44.5 -168.5t-28 -165.5t-9.5 -165q0 -99 16 -176.5t59.5 -122.5t124.5 -45q80 0 126 45t66 116.5t20 150.5v326h167v-326q0 -79 22.5 -150.5t69.5 -116.5t119 -45q81 0 124.5 45
t59.5 122.5t16 176.5q0 124 -21.5 247.5t-59.5 251.5h167q39 -132 60.5 -260t21.5 -257q0 -154 -40 -259.5t-119 -160t-199 -54.5q-102 0 -181 55.5t-123 171.5q-44 -116 -124 -171.5t-183 -55.5z" />
    <glyph glyph-name="iotadieresis" unicode="&#x3ca;" horiz-adv-x="499" 
d="M415 0q-118 0 -181.5 37.5t-86.5 108t-23 169.5v659h167v-651q0 -91 23 -139t112 -48h45v-136h-56zM397 1164q-40 0 -66.5 25t-26.5 65q0 39 26.5 64.5t66.5 25.5t67 -25.5t27 -64.5q0 -40 -27 -65t-67 -25zM45 1164q-39 0 -66.5 25t-27.5 65q0 39 27.5 64.5t66.5 25.5
q40 0 67 -25.5t27 -64.5q0 -40 -27 -65t-67 -25z" />
    <glyph glyph-name="upsilondieresis" unicode="&#x3cb;" horiz-adv-x="1040" 
d="M526 -10q-141 0 -230 48.5t-130.5 139.5t-41.5 217v579h168v-555q0 -83 18.5 -146.5t69 -99.5t144.5 -36q103 0 157 43.5t74 119.5t20 175q0 124 -20.5 249t-61.5 250h167q41 -128 61.5 -258t20.5 -259q0 -146 -46 -250.5t-138.5 -160.5t-231.5 -56zM692 1164
q-40 0 -66.5 25t-26.5 65q0 39 26.5 64.5t66.5 25.5t67 -25.5t27 -64.5q0 -40 -27 -65t-67 -25zM340 1164q-39 0 -66.5 25t-27.5 65q0 39 27.5 64.5t66.5 25.5q40 0 67 -25.5t27 -64.5q0 -40 -27 -65t-67 -25z" />
    <glyph glyph-name="omicrontonos" unicode="&#x3cc;" horiz-adv-x="1050" 
d="M519 -16q-137 0 -234 60t-148.5 172.5t-51.5 268.5q0 158 51.5 271.5t148.5 174.5t234 61q140 0 240 -61t153 -174.5t53 -271.5q0 -156 -53 -268.5t-153 -172.5t-240 -60zM519 116q101 0 160.5 48t86 131t26.5 190t-26.5 191t-86 132.5t-160.5 48.5q-95 0 -153 -48.5
t-83.5 -132.5t-25.5 -192q0 -106 25.5 -189t83.5 -131t153 -48zM478 1110l54 305h184l-134 -305h-104z" />
    <glyph glyph-name="upsilontonos" unicode="&#x3cd;" horiz-adv-x="1040" 
d="M526 -10q-141 0 -230 48.5t-130.5 139.5t-41.5 217v579h168v-555q0 -83 18.5 -146.5t69 -99.5t144.5 -36q103 0 157 43.5t74 119.5t20 175q0 124 -20.5 249t-61.5 250h167q41 -128 61.5 -258t20.5 -259q0 -146 -46 -250.5t-138.5 -160.5t-231.5 -56zM461 1110l54 305h184
l-134 -305h-104z" />
    <glyph glyph-name="omegatonos" unicode="&#x3ce;" horiz-adv-x="1521" 
d="M454 -17q-118 0 -197.5 54.5t-119 160t-39.5 259.5q0 129 20.5 257t61.5 260h167q-26 -85 -44.5 -168.5t-28 -165.5t-9.5 -165q0 -99 16 -176.5t59.5 -122.5t124.5 -45q80 0 126 45t66 116.5t20 150.5v326h167v-326q0 -79 22.5 -150.5t69.5 -116.5t119 -45q81 0 124.5 45
t59.5 122.5t16 176.5q0 124 -21.5 247.5t-59.5 251.5h167q39 -132 60.5 -260t21.5 -257q0 -154 -40 -259.5t-119 -160t-199 -54.5q-102 0 -181 55.5t-123 171.5q-44 -116 -124 -171.5t-183 -55.5zM699 1110l54 305h184l-134 -305h-104z" />
    <glyph glyph-name="uni03CF" unicode="&#x3cf;" horiz-adv-x="1133" 
d="M944 -12l-613 703v-691h-180v1346h180v-647l553 647h206l-560 -635l606 -711zM521 -332v152h20q110 0 182.5 17.5t124 54.5t96.5 96l192 12q-65 -121 -141.5 -194t-185 -105.5t-270.5 -32.5h-18z" />
    <glyph glyph-name="uni03D0" unicode="&#x3d0;" horiz-adv-x="1031" 
d="M124 -358v1280q0 148 48.5 246t138 147t212.5 49q161 0 258 -89.5t97 -246.5q0 -140 -89 -230.5t-241 -107.5l-82 57q230 0 354.5 -92.5t124.5 -281.5q0 -129 -54.5 -214.5t-148 -128t-211.5 -42.5q-60 0 -110.5 7t-97.5 21t-96 34v137q73 -33 142 -49.5t146 -16.5
q127 0 193 66.5t66 185.5q0 147 -86.5 210t-222.5 63h-81v126h82q110 0 178 64.5t68 181.5q0 106 -50 157.5t-139 51.5q-71 0 -123 -30t-80.5 -96t-28.5 -176v-1283h-167z" />
    <glyph glyph-name="theta1" unicode="&#x3d1;" horiz-adv-x="1054" 
d="M526 -18q-158 0 -252 86t-135.5 242t-41.5 364q0 209 41 364.5t135.5 241.5t252.5 86q159 0 253 -86t135.5 -241t41.5 -363q0 -209 -41.5 -365.5t-135.5 -242.5t-253 -86zM526 115q77 0 127.5 42t79 118.5t40 178.5t11.5 222q0 118 -12 219.5t-40.5 177t-78.5 117.5
t-126 42q-78 0 -129 -42t-79 -117.5t-40 -177t-12 -219.5q0 -120 12 -222t40 -178.5t79 -118.5t128 -42zM253 618v132h547v-132h-547z" />
    <glyph glyph-name="Upsilon1" unicode="&#x3d2;" horiz-adv-x="1111" 
d="M456 0v536l-460 810h192l363 -655l163 353q58 123 104.5 188t103 89.5t144.5 24.5h49v-154h-15q-47 0 -85.5 -14t-75.5 -59.5t-83 -140.5l-218 -446v-532h-182z" />
    <glyph glyph-name="uni03D3" unicode="&#x3d3;" horiz-adv-x="1111" 
d="M456 0v536l-460 810h192l363 -655l163 353q58 123 104.5 188t103 89.5t144.5 24.5h49v-154h-15q-47 0 -85.5 -14t-75.5 -59.5t-83 -140.5l-218 -446v-532h-182zM-252 1041l54 305h183l-133 -305h-104z" />
    <glyph glyph-name="uni03D4" unicode="&#x3d4;" horiz-adv-x="1111" 
d="M456 0v536l-460 810h192l363 -655l163 353q58 123 104.5 188t103 89.5t144.5 24.5h49v-154h-15q-47 0 -85.5 -14t-75.5 -59.5t-83 -140.5l-218 -446v-532h-182zM740 1510q-40 0 -66.5 25t-26.5 65t26.5 65.5t66.5 25.5t67 -25.5t27 -65.5t-27 -65t-67 -25zM388 1510
q-39 0 -66.5 25t-27.5 65t27.5 65.5t66.5 25.5q40 0 67 -25.5t27 -65.5t-27 -65t-67 -25z" />
    <glyph glyph-name="phi1" unicode="&#x3d5;" horiz-adv-x="1324" 
d="M656 -19q-276 0 -423.5 134t-147.5 370q0 239 147.5 374.5t423.5 135.5q282 0 432 -136t150 -374q0 -236 -150 -370t-432 -134zM656 104q151 0 240.5 49.5t129.5 135.5t40 196t-40 197.5t-129.5 137.5t-240.5 50q-145 0 -233 -50t-127 -137t-39 -198q0 -110 39 -196
t127 -135.5t233 -49.5zM585 -358v1704h152v-1704h-152z" />
    <glyph glyph-name="omega1" unicode="&#x3d6;" horiz-adv-x="1127" 
d="M1003 0q-118 0 -180.5 37.5t-86 108t-23.5 169.5v524h-697v135h1075v-135h-212v-516q0 -91 23.5 -139t111.5 -48h60v-136h-71zM199 0v930h167v-930h-167z" />
    <glyph glyph-name="uni03D7" unicode="&#x3d7;" horiz-adv-x="1191" 
d="M1022 -12q-142 8 -203.5 89t-61.5 204q0 55 12 129t30.5 145.5t37.5 117.5l-579 -673h-166q38 73 73.5 172t58.5 219.5t23 254.5q0 103 -44.5 154.5t-114.5 51.5h-29v133h39q96 0 167 -27.5t109.5 -96t38.5 -191.5q0 -84 -14.5 -173.5t-50.5 -192.5l575 670h170
q-25 -58 -54.5 -135t-56 -165t-43 -179t-16.5 -178q0 -104 46 -150.5t140 -46.5h23v-56zM592 -370v161q125 3 209.5 30t127.5 81.5t43 138.5l160 23q0 -219 -134.5 -323.5t-405.5 -110.5z" />
    <glyph glyph-name="uni03D8" unicode="&#x3d8;" horiz-adv-x="1424" 
d="M623 -358v407h180v-407h-180zM714 -18q-206 0 -344 88t-208 243t-70 359t70 360t208 244t344 88q204 0 341.5 -88t207.5 -244t70 -360t-70 -359t-207.5 -243t-341.5 -88zM713 129q155 0 250.5 73t140 196.5t44.5 273.5q0 151 -44.5 274.5t-140 197t-250.5 73.5
t-251 -73.5t-140.5 -197t-44.5 -274.5q0 -150 44.5 -273.5t140.5 -196.5t251 -73z" />
    <glyph glyph-name="uni03D9" unicode="&#x3d9;" horiz-adv-x="1089" 
d="M539 -16q-143 0 -244.5 60t-155.5 172.5t-54 268.5q0 158 54 271.5t155.5 174.5t244.5 61q147 0 250.5 -61t159 -174.5t55.5 -272.5q0 -155 -55.5 -267.5t-159 -172.5t-250.5 -60zM539 116q107 0 171 48t92.5 131t28.5 189q0 108 -28.5 192t-92.5 132.5t-171 48.5
q-102 0 -164.5 -48.5t-89.5 -132t-27 -191.5q0 -106 27 -189.5t89.5 -131.5t164.5 -48zM457 -358v402h168v-402h-168z" />
    <glyph glyph-name="uni03DA" unicode="&#x3da;" horiz-adv-x="1218" 
d="M928 -255q14 87 7 139t-47.5 75t-125.5 23h-124q-163 0 -286 79.5t-191.5 234t-68.5 376.5q0 204 69 360t204 244t332 88q125 0 235 -42t183 -128t86 -217h-181q-10 82 -57 135t-116.5 79t-149.5 26q-150 0 -242 -74t-134.5 -197t-42.5 -274q0 -187 47.5 -306.5t144 -177
t244.5 -57.5h129q161 0 227.5 -91t30.5 -295h-173z" />
    <glyph glyph-name="uni03DB" unicode="&#x3db;" horiz-adv-x="902" 
d="M652 -256q14 88 8 138t-42.5 73t-110.5 29l-80 6q-103 9 -180 54.5t-119.5 142t-42.5 257.5q0 132 28 231t83.5 166.5t136.5 104.5t188 45q112 10 161.5 39.5t54.5 91.5h165q-5 -135 -96.5 -195.5t-260.5 -71.5q-109 -7 -172 -57t-89.5 -138t-26.5 -211q0 -114 25 -180.5
t73.5 -97t118.5 -36.5l93 -9q101 -9 163.5 -48t84 -119.5t-2.5 -214.5h-160z" />
    <glyph glyph-name="uni03DC" unicode="&#x3dc;" horiz-adv-x="1043" 
d="M151 0v1346h838v-150h-658v-430h621v-395h-171v248h-450v-619h-180z" />
    <glyph glyph-name="uni03DD" unicode="&#x3dd;" horiz-adv-x="886" 
d="M132 -358v1332h168v-1332h-168zM252 408v134h557v-134h-557zM252 839v135h598v-135h-598z" />
    <glyph glyph-name="uni03DE" unicode="&#x3de;" horiz-adv-x="1023" 
d="M878 -20q-138 0 -200.5 58.5t-62.5 151.5q0 58 17 119.5t43 134.5l52 153h-642l108 314q18 56 33.5 112.5t15.5 100.5q0 51 -29 71t-68 20v151q97 0 154.5 -27t83 -74.5t25.5 -109.5q0 -57 -16 -118t-41 -135l-51 -152h638l-107 -316q-19 -54 -34.5 -111t-15.5 -101
q0 -52 29.5 -72t67.5 -20v-150z" />
    <glyph glyph-name="uni03DF" unicode="&#x3df;" horiz-adv-x="960" 
d="M779 -225q-141 0 -202 60.5t-61 157.5q0 56 16.5 120.5t48.5 151.5l90 260h-586l110 373q16 56 33 119t17 107q0 51 -31.5 71t-73.5 20v151q99 0 156.5 -27.5t82 -75.5t24.5 -110q0 -57 -18.5 -124.5t-39.5 -141.5l-65 -220h595l-143 -418q-12 -38 -25.5 -79t-22.5 -80
t-9 -71q0 -53 31.5 -73.5t72.5 -20.5v-150z" />
    <glyph glyph-name="uni03E0" unicode="&#x3e0;" horiz-adv-x="1233" 
d="M1018 0q0 192 -51.5 370.5t-143 329.5t-213.5 264t-264.5 175.5t-294.5 62.5v164q179 0 345.5 -71t309 -199t249.5 -299.5t166.5 -374.5t59.5 -422h-163zM484 238l-105 103l457 456l102 -103zM256 465l-101 103l472 472l102 -102z" />
    <glyph glyph-name="uni03E1" unicode="&#x3e1;" horiz-adv-x="1267" 
d="M1018 -205q51 239 35.5 436t-82 353t-170.5 272.5t-229.5 193t-259.5 114.5t-261 38v164q149 0 303.5 -44t298.5 -131t262.5 -218.5t196 -306t99 -392t-29.5 -479.5h-163zM593 178l-104 103l456 457l103 -105zM365 404l-101 103l471 472l103 -101z" />
    <glyph glyph-name="uni03E2" unicode="&#x3e2;" horiz-adv-x="1792" 
d="M191 -363v149h1128q73 0 110 31t37 112v224q-28 -38 -77.5 -75t-119 -61.5t-161.5 -24.5q-110 0 -178 44t-99 125t-31 195v990h177v-966q0 -70 14 -124t52 -84.5t108 -30.5q75 0 135.5 22.5t105.5 57.5t73 73v1052h177v-1404q0 -148 -70 -226.5t-228 -78.5h-1153zM445 -6
q-109 0 -177 42.5t-100 121.5t-32 191v997h177v-966q0 -70 14.5 -124t52.5 -84.5t107 -30.5q76 0 136 22t104.5 56.5t76.5 72.5l35 -122q-67 -67 -164 -121.5t-230 -54.5z" />
    <glyph glyph-name="uni03E3" unicode="&#x3e3;" horiz-adv-x="1692" 
d="M179 -358v136h1068q73 0 110 33t37 115v224q-44 -57 -126 -109t-207 -52q-163 0 -233.5 95t-70.5 262v628h168v-604q0 -70 14.5 -124t53.5 -84.5t111 -30.5q105 0 175.5 48t113.5 105v690h167v-1032q0 -146 -67.5 -223t-221.5 -77h-1092zM428 -9q-107 0 -174 42
t-98.5 121.5t-31.5 191.5v628h168v-604q0 -70 14.5 -124t53.5 -84.5t110 -30.5q105 0 177 47t117 104l24 -122q-58 -63 -146.5 -116t-213.5 -53z" />
    <glyph glyph-name="uni03E4" unicode="&#x3e4;" horiz-adv-x="1162" 
d="M833 0v471q-76 -29 -159 -45t-182 -16q-146 0 -242 55.5t-142.5 160t-46.5 247.5q0 227 99 353.5t325 126.5h60v-154h-47q-96 0 -151.5 -41t-78 -115t-21.5 -174q0 -90 23.5 -158t80.5 -106.5t155 -38.5q75 0 163.5 14.5t163.5 44.5v711h178v-1336h-178z" />
    <glyph glyph-name="uni03E5" unicode="&#x3e5;" horiz-adv-x="1076" 
d="M777 275v699h167v-1332h-167v496q-46 -48 -135 -92t-204 -44t-186.5 42.5t-105.5 122.5t-34 190v261q0 174 82.5 269.5t284.5 95.5h49v-148h-49q-81 0 -124.5 -29.5t-59.5 -81t-16 -119.5v-225q0 -68 15.5 -119.5t57.5 -81t122 -29.5q98 0 177.5 37.5t125.5 87.5z" />
    <glyph glyph-name="uni03E6" unicode="&#x3e6;" horiz-adv-x="1237" 
d="M250 -363v156h462q103 0 156.5 47.5t53.5 141.5v448q0 97 -55 144t-161 47q-85 0 -187.5 -13.5t-188.5 -41.5v-566h-179v1346h179v-630q92 24 187.5 43t209.5 19q110 0 194.5 -36t132 -110.5t47.5 -191.5v-468q0 -114 -47.5 -188.5t-131.5 -110.5t-196 -36h-476z" />
    <glyph glyph-name="uni03E7" unicode="&#x3e7;" horiz-adv-x="1048" 
d="M225 -370v148h358q72 0 109.5 29.5t51 82t13.5 118.5v270q0 67 -13.5 119t-51.5 81.5t-109 29.5q-91 0 -166 -38t-117 -87v-383h-168v974h168v-455q43 48 126.5 92.5t191.5 44.5q109 0 176 -42.5t98.5 -122t31.5 -190.5v-304q0 -175 -76.5 -271t-264.5 -96h-358z" />
    <glyph glyph-name="uni03E8" unicode="&#x3e8;" horiz-adv-x="1139" 
d="M550 -18q-150 0 -261 41t-172.5 123t-61.5 205q0 112 45.5 190t143.5 134t254 102q126 37 196 70.5t98.5 77.5t28.5 106q0 93 -63.5 140t-179.5 47t-194 -48t-77 -147h-181q0 114 62 189.5t165.5 113.5t225.5 38q132 0 226 -39.5t143.5 -114t49.5 -179.5
q0 -104 -41.5 -174t-130.5 -119.5t-230 -91.5q-134 -39 -213.5 -78t-115 -90.5t-35.5 -126.5q0 -107 87.5 -164.5t224.5 -57.5q116 0 196 34.5t122 117t42 224.5h181q0 -148 -41 -248.5t-114 -160.5t-170.5 -87t-209.5 -27z" />
    <glyph glyph-name="uni03E9" unicode="&#x3e9;" horiz-adv-x="994" 
d="M487 -13q-118 0 -210.5 29t-145 89t-52.5 154q0 97 38.5 158t116.5 99t198 65q141 33 196.5 69t55.5 92q0 65 -49.5 92.5t-122.5 27.5q-89 0 -148 -39.5t-59 -134.5h-161q-1 79 28 136t79.5 93.5t117.5 53.5t144 17q71 0 131.5 -15t106.5 -45.5t71.5 -77t25.5 -109.5
q0 -76 -37 -128t-110.5 -87t-185.5 -61q-101 -24 -160 -50t-84.5 -62.5t-25.5 -93.5q0 -76 66 -111.5t176 -35.5q123 0 195.5 62t72.5 200h162q1 -139 -56 -224t-154.5 -124t-219.5 -39z" />
    <glyph glyph-name="uni03EA" unicode="&#x3ea;" horiz-adv-x="1167" 
d="M986 44l-353 893q-42 107 -89 166.5t-115 84t-177 24.5h-77v154h85q111 0 193 -25t143.5 -75t109.5 -126t90 -177l334 -831zM39 0v132l123 18h857l111 -18v-132h-1091zM181 44l-142 88l335 833q40 100 88 175.5t109.5 125.5t144 75t192.5 25h80v-154h-71
q-108 0 -177.5 -25t-116 -84.5t-88.5 -165.5z" />
    <glyph glyph-name="uni03EB" unicode="&#x3eb;" horiz-adv-x="1054" 
d="M865 44l-282 544q-54 104 -103 161t-115 79.5t-171 22.5h-71v134h80q146 0 237 -38.5t154.5 -114.5t122.5 -189l273 -511zM64 0v132l118 2h701l107 -2v-132h-926zM190 44l-126 88l276 515q44 84 89.5 146.5t101.5 105.5t133.5 64.5t186.5 21.5h75v-134h-66
q-104 0 -170 -22.5t-114.5 -79t-102.5 -161.5z" />
    <glyph glyph-name="uni03EC" unicode="&#x3ec;" horiz-adv-x="1333" 
d="M702 -16q-291 0 -450.5 172.5t-159.5 513.5q0 336 168.5 506t534.5 170h369v-150h-369q-188 0 -302 -53.5t-165 -168.5t-51 -304q0 -266 108.5 -403t313.5 -137q185 0 271 95.5t86 245.5t-85.5 222.5t-240.5 72.5q-141 0 -275.5 -56.5t-244.5 -166.5v158
q103 86 235.5 148.5t303.5 62.5q149 0 259.5 -46t172 -143t61.5 -252q0 -148 -62 -257.5t-182 -169.5t-296 -60z" />
    <glyph glyph-name="uni03ED" unicode="&#x3ed;" horiz-adv-x="1042" 
d="M534 -16q-216 0 -332.5 122.5t-116.5 362.5q0 274 150 398.5t468 124.5h207v-135h-207q-163 0 -263 -37t-145 -122t-45 -229q0 -177 73 -267t211 -90q139 0 198.5 66t59.5 184q0 123 -69.5 176.5t-198.5 53.5h-124v125h138q194 0 306.5 -87.5t112.5 -267.5t-108.5 -279
t-314.5 -99z" />
    <glyph glyph-name="uni03EE" unicode="&#x3ee;" horiz-adv-x="1082" 
d="M451 0v1346h179v-1346h-179zM16 581q0 214 93 312t305 98h85v-155h-72q-133 0 -182 -60t-49 -195h-180zM885 581q0 135 -48.5 195t-182.5 60h-72v155h85q212 0 305 -98t93 -312h-180z" />
    <glyph glyph-name="uni03EF" unicode="&#x3ef;" horiz-adv-x="855" 
d="M354 -358v1618h168v-1618h-168zM36 646v67q0 137 83 199t238 62v-136q-101 0 -142 -39t-41 -120v-33h-138zM503 838v136h316v-136h-316z" />
    <glyph glyph-name="uni03F0" unicode="&#x3f0;" horiz-adv-x="1191" 
d="M1092 -11q-130 0 -203 39t-102.5 105t-29.5 148q0 55 12 129t30.5 145.5t37.5 117.5l-579 -673h-166q38 73 73.5 172t58.5 219.5t23 254.5q0 103 -44.5 154.5t-114.5 51.5h-29v133h39q96 0 167 -27.5t109.5 -96t38.5 -191.5q0 -84 -14.5 -173.5t-50.5 -192.5l575 672h170
q-25 -58 -54.5 -135t-56 -166t-43 -180t-16.5 -178q0 -104 46 -149t140 -45h23v-134h-40z" />
    <glyph glyph-name="uni03F1" unicode="&#x3f1;" horiz-adv-x="1060" 
d="M598 -15q-106 0 -184.5 39.5t-126.5 111.5l1 155q39 -74 109.5 -121t173.5 -47q114 0 173 96t59 274q0 195 -63 279.5t-178 84.5q-124 0 -197 -79.5t-73 -263.5v-511l-168 11v497q0 122 30.5 212.5t87.5 150.5t138 90t182 30q190 0 301.5 -125t111.5 -375
q0 -168 -46 -281t-130.5 -170.5t-200.5 -57.5zM462 -358q-180 0 -259 94t-79 278l168 -11q0 -124 48.5 -174.5t144.5 -50.5h425v-136h-448z" />
    <glyph glyph-name="uni03F2" unicode="&#x3f2;" horiz-adv-x="1009" 
d="M523 -17q-128 0 -227 56t-155 167.5t-56 277.5t55 279t153.5 170t229.5 57q110 0 197.5 -37t140 -111.5t56.5 -188.5h-165q-7 94 -67.5 148t-158.5 54q-133 0 -201 -97.5t-68 -273.5q0 -116 30 -198t90 -125t149 -43q100 0 165 55t68 162h164q-2 -117 -55.5 -195.5
t-143 -117.5t-201.5 -39z" />
    <glyph glyph-name="uni03F3" unicode="&#x3f3;" horiz-adv-x="431" 
d="M-56 -360v137h44q72 0 108.5 34.5t36.5 115.5v1047h167v-1033q0 -146 -67 -223.5t-220 -77.5h-69zM222 1157q-48 0 -76 27.5t-28 69.5t28 69.5t76 27.5q47 0 76 -27.5t29 -69.5t-29 -69.5t-76 -27.5z" />
    <glyph glyph-name="uni03F4" unicode="&#x3f4;" horiz-adv-x="1424" 
d="M448 608v146h526v-146h-526zM714 -18q-206 0 -344 88t-208 243t-70 359t70 360t208 244t344 88q204 0 341.5 -88t207.5 -244t70 -360t-70 -359t-207.5 -243t-341.5 -88zM713 129q155 0 250.5 73t140 196.5t44.5 273.5q0 151 -44.5 274.5t-140 197t-250.5 73.5t-251 -73.5
t-140.5 -197t-44.5 -274.5q0 -150 44.5 -273.5t140.5 -196.5t251 -73z" />
    <glyph glyph-name="uni03F5" unicode="&#x3f5;" horiz-adv-x="758" 
d="M598 -17q-150 0 -266 55.5t-181.5 166.5t-65.5 278q0 168 64.5 281t180 169.5t268.5 56.5h79v-135h-76q-171 0 -259.5 -97.5t-88.5 -274.5q0 -174 88.5 -269.5t259.5 -95.5h93v-135h-96zM187 426v135h450v-135h-450z" />
    <glyph glyph-name="uni03F6" unicode="&#x3f6;" horiz-adv-x="1025" 
d="M381 426v135h451v-135h-451zM493 -21q-113 0 -205 39t-146 117.5t-57 196.5h165q4 -107 69.5 -162.5t170.5 -55.5q138 0 207.5 96t69.5 272q0 177 -69.5 275t-207.5 98q-104 0 -165 -54t-68 -148h-165q4 114 57.5 188.5t143 111.5t200.5 37q134 0 234.5 -57t156 -169.5
t55.5 -281.5q0 -168 -56.5 -279.5t-157 -167.5t-232.5 -56z" />
    <glyph glyph-name="uni03F7" unicode="&#x3f7;" horiz-adv-x="1138" 
d="M151 266v149h471q122 0 198 62t76 189q0 135 -76 200t-198 65h-471v149h486q125 0 224.5 -47.5t157.5 -139.5t58 -227q0 -130 -58 -219t-157.5 -135t-224.5 -46h-486zM151 0v1346h180v-1346h-180z" />
    <glyph glyph-name="uni03F8" unicode="&#x3f8;" horiz-adv-x="1062" 
d="M132 -361v1707h167v-531q50 80 127 128t181 48q113 0 196.5 -56.5t128 -168.5t44.5 -279t-46 -279t-130 -169t-198 -57q-104 0 -180.5 40.5t-126.5 114.5v-498h-163zM571 119q118 0 175.5 96t57.5 272q0 178 -58 273.5t-173 95.5q-101 0 -168 -56.5t-105 -132.5v-377
q38 -74 105.5 -122.5t165.5 -48.5z" />
    <glyph glyph-name="uni03F9" unicode="&#x3f9;" horiz-adv-x="1343" 
d="M713 -18q-202 0 -340.5 88t-209.5 243t-71 359t71 360t209.5 244t340.5 88q133 0 251 -48t197 -146.5t92 -248.5h-181q-11 101 -63 166.5t-129.5 97.5t-166.5 32q-155 0 -251 -74t-140.5 -197t-44.5 -274q0 -150 44.5 -273t140.5 -195.5t251 -72.5t251 81t113 242h182
q-15 -159 -90 -263.5t-192.5 -156.5t-263.5 -52z" />
    <glyph glyph-name="uni03FA" unicode="&#x3fa;" horiz-adv-x="1567" 
d="M151 0v1346h196l480 -793h-73l469 793h193v-1346h-178v1196h62l-457 -773h-118l-464 773h63v-1196h-173z" />
    <glyph glyph-name="uni03FB" unicode="&#x3fb;" horiz-adv-x="1298" 
d="M132 -358v1335h185l334 -540l335 540h180v-977h-163v741l-297 -475h-116l-296 475v-1099h-162z" />
    <glyph glyph-name="uni03FC" unicode="&#x3fc;" horiz-adv-x="1060" 
d="M36 -214v107h521v-107h-521zM287 136l1 155q39 -74 109.5 -121t173.5 -47q114 0 173 96t59 274q0 195 -62.5 279.5t-177.5 84.5q-125 0 -198 -79.5t-73 -263.5v-872h-168v869q0 122 30.5 212.5t88 150.5t138 90t182.5 30q189 0 300.5 -125t111.5 -375q0 -168 -46 -281
t-130.5 -170.5t-200.5 -57.5q-106 0 -184.5 39.5t-126.5 111.5z" />
    <glyph glyph-name="uni03FD" unicode="&#x3fd;" horiz-adv-x="1343" 
d="M629 -18q-145 0 -262.5 52t-192 156.5t-90.5 263.5h182q16 -161 112.5 -242t250.5 -81q156 0 252 72.5t140.5 195.5t44.5 273q0 151 -44.5 274t-140.5 197t-251 74q-90 0 -167.5 -32t-129 -97.5t-63.5 -166.5h-180q14 150 92.5 248.5t196.5 146.5t250 48q203 0 341.5 -88
t209.5 -244t71 -360t-71 -359t-209.5 -243t-341.5 -88z" />
    <glyph glyph-name="uni03FE" unicode="&#x3fe;" horiz-adv-x="1343" 
d="M713 -18q-202 0 -340.5 88t-209.5 243t-71 359t71 360t209.5 244t340.5 88q133 0 251 -48t197 -146.5t92 -248.5h-181q-11 101 -63 166.5t-129.5 97.5t-166.5 32q-155 0 -251 -74t-140.5 -197t-44.5 -274q0 -150 44.5 -273t140.5 -195.5t251 -72.5t251 81t113 242h182
q-15 -159 -90 -263.5t-192.5 -156.5t-263.5 -52zM710 581q-47 0 -76 27.5t-29 69.5t29 69.5t76 27.5t76 -27.5t29 -69.5t-29 -69.5t-76 -27.5z" />
    <glyph glyph-name="uni03FF" unicode="&#x3ff;" horiz-adv-x="1343" 
d="M629 -18q-145 0 -262.5 52t-192 156.5t-90.5 263.5h182q16 -161 112.5 -242t250.5 -81q156 0 252 72.5t140.5 195.5t44.5 273q0 151 -44.5 274t-140.5 197t-251 74q-90 0 -167.5 -32t-129 -97.5t-63.5 -166.5h-180q14 150 92.5 248.5t196.5 146.5t250 48q203 0 341.5 -88
t209.5 -244t71 -360t-71 -359t-209.5 -243t-341.5 -88zM644 571q-47 0 -76 27.5t-29 69.5t29 69.5t76 27.5t76 -27.5t29 -69.5t-29 -69.5t-76 -27.5z" />
    <glyph glyph-name="uni0400" unicode="&#x400;" horiz-adv-x="1107" 
d="M151 0v1346h858v-150h-678v-429h624v-148h-624v-469h678v-150h-858zM535 1462l-257 269h193l194 -269h-130z" />
    <glyph glyph-name="uni0401" unicode="&#x401;" horiz-adv-x="1107" 
d="M151 0v1346h858v-150h-678v-429h624v-148h-624v-469h678v-150h-858zM756 1510q-40 0 -66.5 25t-26.5 65t26.5 65.5t66.5 25.5t67 -25.5t27 -65.5t-27 -65t-67 -25zM404 1510q-39 0 -66.5 25t-27.5 65t27.5 65.5t66.5 25.5q40 0 67 -25.5t27 -65.5t-27 -65t-67 -25z" />
    <glyph glyph-name="uni0402" unicode="&#x402;" horiz-adv-x="1486" 
d="M401 0v1195h-383v151h942v-151h-381v-453q83 44 172 73.5t193 29.5q128 0 219 -41t139.5 -127t48.5 -221v-310l-180 2v299q0 127 -62.5 186.5t-186.5 59.5q-91 0 -172.5 -23t-170.5 -71v-599h-178zM868 -282v154h72q133 0 182 66t49 210l180 -2q0 -223 -93 -325.5
t-305 -102.5h-85z" />
    <glyph glyph-name="uni0403" unicode="&#x403;" horiz-adv-x="951" 
d="M151 0v1346h767v-146h-587v-1200h-180zM406 1462l194 269h193l-257 -269h-130z" />
    <glyph glyph-name="uni0404" unicode="&#x404;" horiz-adv-x="1342" 
d="M713 -18q-202 0 -341 88t-209.5 243t-70.5 359t70.5 360t209.5 244t341 88q133 0 251 -48t196.5 -146.5t92.5 -248.5h-181q-12 101 -64.5 166.5t-129.5 97.5t-165 32q-155 0 -250.5 -74t-140 -197t-44.5 -274q0 -150 44.5 -273t140 -195.5t250.5 -72.5t251.5 81
t112.5 242h182q-16 -159 -90 -263.5t-192 -156.5t-264 -52zM156 619v148h673v-148h-673z" />
    <glyph glyph-name="uni0405" unicode="&#x405;" horiz-adv-x="1118" 
d="M569 -18q-144 0 -261 44t-185 138t-68 244h180q1 -107 47.5 -168t123 -86t168.5 -25q86 0 156.5 25.5t112.5 77t42 131.5q0 71 -33 116t-109 78.5t-206 66.5q-152 40 -250 87.5t-145.5 118.5t-47.5 180q0 115 54 193.5t154.5 119.5t240.5 41q130 0 238 -42t172.5 -126
t64.5 -209h-181q2 114 -83 172.5t-210 58.5q-128 0 -200.5 -51.5t-72.5 -150.5q0 -59 31 -98.5t107.5 -71.5t211.5 -67q156 -42 253 -90t143 -123t46 -197q0 -130 -65.5 -215.5t-177 -128.5t-251.5 -43z" />
    <glyph glyph-name="uni0406" unicode="&#x406;" horiz-adv-x="481" 
d="M151 0v1346h180v-1346h-180z" />
    <glyph glyph-name="uni0407" unicode="&#x407;" horiz-adv-x="481" 
d="M151 0v1346h180v-1346h-180zM416 1510q-40 0 -66.5 25t-26.5 65t26.5 65.5t66.5 25.5t67 -25.5t27 -65.5t-27 -65t-67 -25zM64 1510q-39 0 -66.5 25t-27.5 65t27.5 65.5t66.5 25.5q40 0 67 -25.5t27 -65.5t-27 -65t-67 -25z" />
    <glyph glyph-name="uni0408" unicode="&#x408;" horiz-adv-x="650" 
d="M32 -13v153h72q134 0 183.5 62t49.5 202v942h178v-945q0 -144 -40.5 -236t-128 -135t-229.5 -43h-85z" />
    <glyph glyph-name="uni0409" unicode="&#x409;" horiz-adv-x="1956" 
d="M941 0v1194h-506l38 152h647v-1346h-179zM6 -13v153h20q66 0 112 30.5t79.5 110t62 222.5t61.5 368l69 475h173l-70 -508q-34 -246 -69 -410.5t-84.5 -261.5t-125.5 -138t-194 -41h-34zM1119 144h235q94 0 165 24t111 83t40 164q0 144 -88.5 199.5t-227.5 55.5h-235v-526
zM1016 0l34 815h309q165 0 273.5 -46t163 -135.5t54.5 -221.5q0 -139 -54.5 -231t-163.5 -136.5t-274 -44.5h-342z" />
    <glyph glyph-name="uni040A" unicode="&#x40a;" horiz-adv-x="1925" 
d="M1089 815h240q164 0 273 -46t162.5 -135.5t53.5 -221.5q0 -139 -53.5 -231t-162.5 -136.5t-275 -44.5h-418v625h-578v-625h-180v1346h180v-565h578v565h180v-531zM1089 145h235q94 0 164.5 23.5t110.5 82.5t40 164q0 144 -88 199.5t-227 55.5h-235v-525z" />
    <glyph glyph-name="uni040B" unicode="&#x40b;" horiz-adv-x="1484" 
d="M399 0v1195h-383v151h942v-151h-381v-381q84 43 173.5 73t193.5 30q128 0 218.5 -41.5t138.5 -128.5t48 -224v-523h-180v514q0 130 -62 190.5t-185 60.5q-92 0 -174 -23t-171 -71v-671h-178z" />
    <glyph glyph-name="uni040C" unicode="&#x40c;" horiz-adv-x="1134" 
d="M151 0v1346h180v-647l553 647h206l-562 -645l608 -701h-209l-596 691v-691h-180zM480 1462l194 269h193l-257 -269h-130z" />
    <glyph glyph-name="uni040D" unicode="&#x40d;" horiz-adv-x="1394" 
d="M1243 0h-169v1099l-740 -1099h-183v1346h170v-1096l738 1096h184v-1346zM689 1462l-257 269h193l194 -269h-130z" />
    <glyph glyph-name="uni040E" unicode="&#x40e;" horiz-adv-x="1064" 
d="M182 -9v149h68q72 0 118.5 28.5t84.5 102.5l10 20l-467 1055h192l365 -869l332 869h184l-446 -1102q-31 -74 -66 -123t-77 -77.5t-94.5 -40.5t-118.5 -12h-85zM548 1481q-151 0 -231.5 66.5t-98.5 185.5h147q10 -76 65 -110.5t120 -34.5q66 0 121.5 35.5t65.5 109.5h144
q-16 -117 -99 -184.5t-234 -67.5z" />
    <glyph glyph-name="uni040F" unicode="&#x40f;" horiz-adv-x="1375" 
d="M151 0v1346h180v-1194h715v1194h178v-1346h-1073zM603 -288v434h171v-434h-171z" />
    <glyph glyph-name="uni0410" unicode="&#x410;" horiz-adv-x="1188" 
d="M-2 0l504 1346h189l499 -1346h-187l-127 377h-560l-133 -377h-185zM365 528h458l-227 639z" />
    <glyph glyph-name="uni0411" unicode="&#x411;" horiz-adv-x="1193" 
d="M151 0v1346h849v-151h-669v-1195h-180zM227 0l76 794h324q164 0 273 -45t163.5 -132.5t54.5 -216.5q0 -136 -54.5 -224.5t-163.5 -132t-275 -43.5h-398zM331 144h291q94 0 165 22.5t111 79.5t40 157q0 140 -88.5 193.5t-227.5 53.5h-291v-506z" />
    <glyph glyph-name="uni0412" unicode="&#x412;" horiz-adv-x="1193" 
d="M151 0v1346h432q203 0 324 -82t121 -250q0 -106 -59 -189t-157 -108q140 -23 223 -111.5t83 -218.5q0 -122 -54.5 -208.5t-163.5 -132.5t-274 -46h-475zM331 150h291q86 0 158 21.5t115.5 76t43.5 150.5q0 116 -84.5 173t-232.5 57h-291v-478zM331 774h251
q130 0 198.5 59.5t68.5 160.5q0 68 -31 113.5t-91 68t-145 22.5h-251v-424z" />
    <glyph glyph-name="uni0413" unicode="&#x413;" horiz-adv-x="951" 
d="M151 0v1346h767v-146h-587v-1200h-180z" />
    <glyph glyph-name="uni0414" unicode="&#x414;" horiz-adv-x="1341" 
d="M8 -288v437h139q44 89 80.5 226t64.5 300.5t48.5 336.5t32.5 334h769v-1195h165v-439h-169v288h-959v-288h-171zM332 151h632v1043h-441q-7 -93 -19 -204.5t-30 -230t-40.5 -232t-48 -211t-53.5 -165.5z" />
    <glyph glyph-name="uni0415" unicode="&#x415;" horiz-adv-x="1107" 
d="M151 0v1346h858v-150h-678v-429h624v-148h-624v-469h678v-150h-858z" />
    <glyph glyph-name="uni0416" unicode="&#x416;" horiz-adv-x="1689" 
d="M758 0v1346h172v-647l521 647h194l-528 -641l574 -705h-203l-558 691v-691h-172zM-3 0l574 704l-528 642h194l521 -647v-8l-558 -691h-203z" />
    <glyph glyph-name="uni0417" unicode="&#x417;" horiz-adv-x="1136" 
d="M566 -18q-151 0 -263 48.5t-174 142.5t-62 231h179q0 -127 84 -202.5t234 -75.5q144 0 227.5 64t83.5 199q0 127 -85.5 187.5t-236.5 60.5h-115v144h119q138 0 213 63t75 169q0 104 -75.5 156.5t-198.5 52.5q-138 0 -214.5 -67.5t-73.5 -176.5h-178q0 118 58.5 205
t163 135t243.5 48q125 0 228 -39t164 -115t61 -189q0 -119 -76 -197t-198 -108q134 -25 222.5 -110.5t88.5 -224.5q0 -129 -62 -218.5t-173.5 -136t-258.5 -46.5z" />
    <glyph glyph-name="uni0418" unicode="&#x418;" horiz-adv-x="1394" 
d="M1243 0h-169v1099l-740 -1099h-183v1346h170v-1096l738 1096h184v-1346z" />
    <glyph glyph-name="uni0419" unicode="&#x419;" horiz-adv-x="1394" 
d="M1243 0h-169v1099l-740 -1099h-183v1346h170v-1096l738 1096h184v-1346zM726 1481q-151 0 -231.5 66.5t-98.5 185.5h147q10 -76 65 -110.5t120 -34.5q66 0 121.5 35.5t65.5 109.5h144q-16 -117 -99 -184.5t-234 -67.5z" />
    <glyph glyph-name="uni041A" unicode="&#x41a;" horiz-adv-x="1134" 
d="M151 0v1346h180v-647l553 647h206l-562 -645l608 -701h-209l-596 691v-691h-180z" />
    <glyph glyph-name="uni041B" unicode="&#x41b;" horiz-adv-x="1306" 
d="M977 0v1194h-525l57 152h647v-1346h-179zM6 -13v153h20q66 0 112 30.5t79.5 110t62 222.5t61.5 368l69 475h173l-70 -508q-34 -246 -69 -410.5t-84.5 -261.5t-125.5 -138t-194 -41h-34z" />
    <glyph glyph-name="uni041C" unicode="&#x41c;" horiz-adv-x="1567" 
d="M151 0v1346h196l480 -793h-73l469 793h193v-1346h-178v1196h62l-457 -773h-118l-464 773h63v-1196h-173z" />
    <glyph glyph-name="uni041D" unicode="&#x41d;" horiz-adv-x="1355" 
d="M151 0v1346h180v-565h695v565h178v-1346h-178v625h-695v-625h-180z" />
    <glyph glyph-name="uni041E" unicode="&#x41e;" horiz-adv-x="1424" 
d="M714 -18q-206 0 -344 88t-208 243t-70 359t70 360t208 244t344 88q204 0 341.5 -88t207.5 -244t70 -360t-70 -359t-207.5 -243t-341.5 -88zM713 129q155 0 250.5 73t140 196.5t44.5 273.5q0 151 -44.5 274.5t-140 197t-250.5 73.5t-251 -73.5t-140.5 -197t-44.5 -274.5
q0 -150 44.5 -273.5t140.5 -196.5t251 -73z" />
    <glyph glyph-name="uni041F" unicode="&#x41f;" horiz-adv-x="1334" 
d="M151 0v1346h1032v-1346h-178v1194h-674v-1194h-180z" />
    <glyph glyph-name="uni0420" unicode="&#x420;" horiz-adv-x="1138" 
d="M151 0v1346h486q125 0 224.5 -47.5t157.5 -140t58 -226.5q0 -131 -58 -220t-157.5 -135t-224.5 -46h-306v-531h-180zM331 680h292q121 0 197 62.5t76 189.5q0 136 -76 201t-197 65h-292v-518z" />
    <glyph glyph-name="uni0421" unicode="&#x421;" horiz-adv-x="1343" 
d="M713 -18q-202 0 -340.5 88t-209.5 243t-71 359t71 360t209.5 244t340.5 88q133 0 251 -48t197 -146.5t92 -248.5h-181q-11 101 -63 166.5t-129.5 97.5t-166.5 32q-155 0 -251 -74t-140.5 -197t-44.5 -274q0 -150 44.5 -273t140.5 -195.5t251 -72.5t251 81t113 242h182
q-15 -159 -90 -263.5t-192.5 -156.5t-263.5 -52z" />
    <glyph glyph-name="uni0422" unicode="&#x422;" horiz-adv-x="977" 
d="M398 0v1195h-382v151h943v-151h-381v-1195h-180z" />
    <glyph glyph-name="uni0423" unicode="&#x423;" horiz-adv-x="1064" 
d="M182 -9v149h68q72 0 118.5 28.5t84.5 102.5l10 20l-467 1055h192l365 -869l332 869h184l-446 -1102q-31 -74 -66 -123t-77 -77.5t-94.5 -40.5t-118.5 -12h-85z" />
    <glyph glyph-name="uni0424" unicode="&#x424;" horiz-adv-x="1467" 
d="M762 146v144h35q195 0 311 97t116 298q0 189 -117 281t-310 92h-35v145h40q174 0 310 -60.5t215 -176t79 -281.5q0 -173 -79 -293.5t-215 -183t-310 -62.5h-40zM644 -41v1427h180v-1427h-180zM705 146h-39q-173 0 -310 62.5t-216 183t-79 293.5q0 166 79 281.5t216 176
t310 60.5h39v-145h-35q-193 0 -309.5 -92t-116.5 -281q0 -201 116 -298t310 -97h35v-144z" />
    <glyph glyph-name="uni0425" unicode="&#x425;" horiz-adv-x="1127" 
d="M11 0l449 697l-417 649h203l317 -527l329 527h194l-419 -652l449 -694h-209l-344 558l-354 -558h-198z" />
    <glyph glyph-name="uni0426" unicode="&#x426;" horiz-adv-x="1381" 
d="M151 0v1346h180v-1198h674v1198h178v-1346h-1032zM1179 -288v288l-17 44l-11 102h197v-434h-169z" />
    <glyph glyph-name="uni0427" unicode="&#x427;" horiz-adv-x="1236" 
d="M908 0v593q-83 -43 -172.5 -72.5t-193.5 -29.5q-128 0 -218.5 41.5t-139 128.5t-48.5 224v461h180v-452q0 -130 62 -191t187 -61q91 0 172.5 22.5t169.5 71.5v610h179v-1346h-178z" />
    <glyph glyph-name="uni0428" unicode="&#x428;" horiz-adv-x="1818" 
d="M151 0v1346h180v-1194h1159v1194h178v-1346h-1517zM821 47v1299h178v-1299h-178z" />
    <glyph glyph-name="uni0429" unicode="&#x429;" horiz-adv-x="1867" 
d="M151 0v1346h180v-1194h1159v1194h178v-1346h-1517zM821 47v1299h178v-1299h-178zM1664 -288v288l-18 49l-10 102h197v-439h-169z" />
    <glyph glyph-name="uni042A" unicode="&#x42a;" horiz-adv-x="1397" 
d="M477 0l53 815h315q165 0 273.5 -46.5t163 -136.5t54.5 -222q0 -139 -54.5 -230t-163.5 -135.5t-274 -44.5h-367zM401 0v1346h179v-1346h-179zM580 144h260q94 0 165 23.5t111 82.5t40 164q0 145 -88.5 200.5t-227.5 55.5h-260v-526zM16 1195v151h530v-151h-530z" />
    <glyph glyph-name="uni042B" unicode="&#x42b;" horiz-adv-x="1563" 
d="M227 0l76 815h268q164 0 273 -46t163 -135.5t54 -221.5q0 -139 -54.5 -231t-163 -136.5t-274.5 -44.5h-342zM151 0v1346h180v-1346h-180zM331 144h235q94 0 165 23.5t110.5 83t39.5 164.5q0 144 -88 199.5t-227 55.5h-235v-526zM1233 0v1346h180v-1346h-180z" />
    <glyph glyph-name="uni042C" unicode="&#x42c;" horiz-adv-x="1193" 
d="M151 0v1346h180v-1346h-180zM227 0l76 815h293q165 0 273.5 -46t163 -135.5t54.5 -221.5q0 -139 -54.5 -231t-163.5 -136.5t-275 -44.5h-367zM331 144h260q94 0 165 23.5t111 82.5t40 165q0 144 -88.5 199.5t-227.5 55.5h-260v-526z" />
    <glyph glyph-name="uni042D" unicode="&#x42d;" horiz-adv-x="1350" 
d="M653 -18q-150 0 -271 52t-197 156.5t-93 263.5h182q16 -161 117 -242t262 -81q150 0 242 72.5t134.5 195.5t42.5 273q0 151 -42.5 274t-134.5 197t-242 74q-91 0 -172 -32t-135.5 -97.5t-67.5 -166.5h-180q14 150 94.5 248.5t202 146.5t258.5 48q197 0 332 -88
t204.5 -244t69.5 -360t-69.5 -359t-204.5 -243t-332 -88zM522 619v148h673v-148h-673z" />
    <glyph glyph-name="uni042E" unicode="&#x42e;" horiz-adv-x="1916" 
d="M151 0v1346h180v-565h347v-156h-347v-625h-180zM1215 -18q-201 0 -337.5 88t-205 243t-68.5 359t68.5 360t205 244t337.5 88t336.5 -88t204 -244t68.5 -360t-68.5 -359t-204 -243t-336.5 -88zM1215 129q151 0 244.5 73t136.5 196.5t43 273.5q0 151 -43 274.5t-136.5 197
t-244.5 73.5q-152 0 -245.5 -73.5t-136 -197t-42.5 -274.5q0 -150 42.5 -273.5t136 -196.5t245.5 -73z" />
    <glyph glyph-name="uni042F" unicode="&#x42f;" horiz-adv-x="1208" 
d="M58 0l104 337q30 99 69.5 163.5t92.5 100.5t123 47q-139 32 -210.5 122t-71.5 218q0 126 57.5 205t153.5 116t212 37h470v-1346h-180v570h-280q-65 0 -114.5 -27t-86 -84.5t-64.5 -149.5l-94 -309h-181zM610 720h268v476h-273q-127 0 -193.5 -63t-66.5 -176
q0 -75 36 -128t96 -81t133 -28z" />
    <glyph glyph-name="uni0430" unicode="&#x430;" horiz-adv-x="1002" 
d="M372 -18q-79 0 -144 31t-104 93t-39 154q0 132 77.5 200t219.5 92t332 26v71q0 125 -57 171.5t-143 46.5q-94 0 -158 -49.5t-64 -158.5h-162q0 118 49.5 191.5t136.5 107t198 33.5q70 0 135 -14t117 -51t82 -103.5t30 -171.5v-651h-154l-6 142q-64 -74 -149 -117
t-197 -43zM416 110q95 0 170 44.5t127 116.5v203q-247 -3 -354 -50.5t-107 -156.5q0 -72 41 -114.5t123 -42.5z" />
    <glyph glyph-name="uni0431" unicode="&#x431;" horiz-adv-x="1054" 
d="M92 603q0 151 21 270t67 206t123 139q89 59 237.5 100.5t354.5 65.5l18 2v-147l-18 -2q-194 -22 -319 -54t-192 -74q-39 -25 -64 -71t-38.5 -102.5t-19 -112.5t-5.5 -100zM542 -16q-226 0 -338 152.5t-112 466.5l111 120q17 61 66.5 120.5t130 99.5t190.5 40
q105 0 190.5 -50.5t137 -160t51.5 -287.5q0 -232 -110 -366.5t-317 -134.5zM542 116q139 0 197 103t58 266q0 188 -62 276t-178 88q-77 0 -135.5 -28t-98.5 -71t-63 -89v-94q0 -223 71.5 -337t210.5 -114z" />
    <glyph glyph-name="uni0432" unicode="&#x432;" horiz-adv-x="990" 
d="M132 0v974h353q168 0 270 -60t102 -181q0 -76 -48.5 -135.5t-129.5 -78.5q116 -16 183.5 -80t67.5 -159q0 -88 -45.5 -151t-136.5 -96t-229 -33h-387zM301 127h220q65 0 118.5 14t86 49t32.5 97q0 80 -62.5 120.5t-174.5 40.5h-220v-321zM301 570h187q97 0 148.5 40
t51.5 110q0 64 -52 95.5t-148 31.5h-187v-277z" />
    <glyph glyph-name="uni0433" unicode="&#x433;" horiz-adv-x="691" 
d="M132 0v974h168v-974h-168zM179 839v135h496v-135h-496z" />
    <glyph glyph-name="uni0434" unicode="&#x434;" horiz-adv-x="1094" 
d="M18 -256v394h132q37 108 69.5 237.5t58 279.5t41.5 319h610v-836h136v-394h-157v256h-732v-256h-158zM320 138h442v696h-304q-12 -118 -32.5 -239t-47.5 -237t-58 -220z" />
    <glyph glyph-name="uni0435" unicode="&#x435;" horiz-adv-x="1012" 
d="M532 -18q-152 0 -251 66.5t-147.5 181t-48.5 257.5q0 149 47 262.5t142.5 177.5t239.5 64q193 0 302 -120t109 -345q0 -15 -0.5 -35.5t-2.5 -29.5h-669q1 -95 29 -174.5t89.5 -127.5t160.5 -48q107 0 166.5 52.5t62.5 151.5h165q-3 -103 -51.5 -177.5t-135.5 -115
t-207 -40.5zM254 583h506q-3 136 -67 208t-179 72q-117 0 -182.5 -71.5t-77.5 -208.5z" />
    <glyph glyph-name="uni0436" unicode="&#x436;" horiz-adv-x="1480" 
d="M-9 0l483 517l-442 457h190l437 -459v459h162v-459l437 459h190l-442 -457l483 -517h-197l-471 506v-506h-162v506l-471 -506h-197z" />
    <glyph glyph-name="uni0437" unicode="&#x437;" horiz-adv-x="957" 
d="M484 -18q-197 0 -306.5 81t-109.5 235h157q0 -90 68 -139t190 -49q111 0 172.5 40t61.5 128q0 86 -58.5 128t-164.5 42h-100v128h105q94 0 142 44t48 110q0 69 -54.5 103t-145.5 34q-109 0 -170 -44t-58 -117h-158q0 88 49 152.5t135.5 99.5t199.5 35q106 0 189.5 -28.5
t132 -85t48.5 -140.5q0 -86 -57.5 -142t-150.5 -77q105 -18 172.5 -81.5t67.5 -164.5q0 -142 -111.5 -217t-293.5 -75z" />
    <glyph glyph-name="uni0438" unicode="&#x438;" horiz-adv-x="1085" 
d="M132 0v974h158v-738l505 738h157v-974h-157v738l-505 -738h-158z" />
    <glyph glyph-name="uni0439" unicode="&#x439;" horiz-adv-x="1085" 
d="M132 0v974h158v-738l505 738h157v-974h-157v738l-505 -738h-158zM567 1118q-136 0 -208 66.5t-88 185.5h141q9 -75 55.5 -106.5t102.5 -31.5t102.5 33t55.5 105h140q-16 -117 -90 -184.5t-211 -67.5z" />
    <glyph glyph-name="uni043A" unicode="&#x43a;" horiz-adv-x="916" 
d="M132 0v974h167v-459l393 459h190l-394 -457l436 -517h-197l-428 506v-506h-167z" />
    <glyph glyph-name="uni043B" unicode="&#x43b;" horiz-adv-x="1044" 
d="M22 -13v136h13q38 0 64 17t46 64.5t38 136t39 231.5l62 402h628v-974h-167v839h-322l-43 -297q-23 -160 -45.5 -267t-55.5 -170.5t-86.5 -90.5t-138.5 -27h-32z" />
    <glyph glyph-name="uni043C" unicode="&#x43c;" horiz-adv-x="1278" 
d="M132 0v977h180l330 -540l327 540h177v-977h-163v741l-286 -475h-117l-286 475v-741h-162z" />
    <glyph glyph-name="uni043D" unicode="&#x43d;" horiz-adv-x="1080" 
d="M781 0v974h167v-974h-167zM132 0v974h168v-974h-168zM252 437v135h548v-135h-548z" />
    <glyph glyph-name="uni043E" unicode="&#x43e;" horiz-adv-x="1050" 
d="M519 -16q-137 0 -234 60t-148.5 172.5t-51.5 268.5q0 158 51.5 271.5t148.5 174.5t234 61q140 0 240 -61t153 -174.5t53 -271.5q0 -156 -53 -268.5t-153 -172.5t-240 -60zM519 116q101 0 160.5 48t86 131t26.5 190t-26.5 191t-86 132.5t-160.5 48.5q-95 0 -153 -48.5
t-83.5 -132.5t-25.5 -192q0 -106 25.5 -189t83.5 -131t153 -48z" />
    <glyph glyph-name="uni043F" unicode="&#x43f;" horiz-adv-x="1060" 
d="M760 0v974h168v-974h-168zM132 0v974h168v-974h-168zM252 839v135h548v-135h-548z" />
    <glyph glyph-name="uni0440" unicode="&#x440;" horiz-adv-x="1062" 
d="M132 -361v1335h166l1 -159q50 80 127 128t181 48q114 0 197 -56.5t127.5 -168.5t44.5 -279q0 -166 -46 -279t-130 -169.5t-198 -56.5q-104 0 -179.5 40.5t-126.5 114.5v-498h-164zM571 119q118 0 175.5 96t57.5 272q0 178 -58.5 273.5t-173.5 95.5q-101 0 -167.5 -56.5
t-104.5 -133.5v-376q38 -74 105 -122.5t166 -48.5z" />
    <glyph glyph-name="uni0441" unicode="&#x441;" horiz-adv-x="1009" 
d="M523 -17q-128 0 -227 56t-155 167.5t-56 277.5t55 279t153.5 170t229.5 57q110 0 197.5 -37t140 -111.5t56.5 -188.5h-165q-7 94 -67.5 148t-158.5 54q-133 0 -201 -97.5t-68 -273.5q0 -116 30 -198t90 -125t149 -43q100 0 165 55t68 162h164q-2 -117 -55.5 -195.5
t-143 -117.5t-201.5 -39z" />
    <glyph glyph-name="uni0442" unicode="&#x442;" horiz-adv-x="789" 
d="M311 0v974h167v-974h-167zM16 839v135h757v-135h-757z" />
    <glyph glyph-name="uni0443" unicode="&#x443;" horiz-adv-x="886" 
d="M85 -361v138h83q61 0 98 31.5t66 103.5l37 88l-373 974h176l285 -797l263 797h170l-350 -974l-44 -114q-35 -93 -75.5 -147t-96.5 -77t-139 -23h-100z" />
    <glyph glyph-name="uni0444" unicode="&#x444;" horiz-adv-x="1324" 
d="M656 -19q-276 0 -423.5 134t-147.5 370q0 239 147.5 374.5t423.5 135.5q282 0 432 -136t150 -374q0 -236 -150 -370t-432 -134zM656 104q151 0 240.5 49.5t129.5 135.5t40 196t-40 197.5t-129.5 137.5t-240.5 50q-145 0 -233 -50t-127 -137t-39 -198q0 -110 39 -196
t127 -135.5t233 -49.5zM585 -358v1704h152v-1704h-152z" />
    <glyph glyph-name="uni0445" unicode="&#x445;" horiz-adv-x="902" 
d="M7 0l353 529l76 55l247 390h179l-329 -490l-68 -53l-281 -431h-177zM717 0l-285 431l-64 52l-330 491h179l248 -390l76 -54l354 -530h-178z" />
    <glyph glyph-name="uni0446" unicode="&#x446;" horiz-adv-x="1085" 
d="M745 0v974h167v-974h-167zM132 0v974h168v-974h-168zM252 0v135h532v-135h-532zM899 -256v256l-16 15v120h174v-391h-158z" />
    <glyph glyph-name="uni0447" unicode="&#x447;" horiz-adv-x="1035" 
d="M736 0v428q-56 -38 -134 -74t-184 -36q-151 0 -228.5 86t-77.5 239v331h167v-311q0 -86 39 -141.5t135 -55.5q89 0 158.5 29t124.5 65v414h167v-974h-167z" />
    <glyph glyph-name="uni0448" unicode="&#x448;" horiz-adv-x="1606" 
d="M719 0v974h168v-974h-168zM132 0v974h168v-974h-168zM252 0v135h507v-135h-507zM1306 0v974h168v-974h-168zM838 0v135h508v-135h-508z" />
    <glyph glyph-name="uni0449" unicode="&#x449;" horiz-adv-x="1640" 
d="M719 0v974h168v-974h-168zM132 0v974h168v-974h-168zM252 0v135h507v-135h-507zM1306 0v974h168v-974h-168zM838 0v135h508v-135h-508zM1454 -256v256l-16 15v120h173v-391h-157z" />
    <glyph glyph-name="uni044A" unicode="&#x44a;" horiz-adv-x="1163" 
d="M374 0v974h169v-362h154q119 0 208.5 -29t139.5 -95t50 -178q0 -163 -109 -236.5t-288 -73.5h-324zM543 130h152q111 0 170.5 41t59.5 139q0 100 -60 137t-170 37h-152v-354zM16 839v135h480v-135h-480z" />
    <glyph glyph-name="uni044B" unicode="&#x44b;" horiz-adv-x="1277" 
d="M132 0v974h169v-362h154q119 0 209 -29t139.5 -95.5t49.5 -177.5q0 -163 -109 -236.5t-288 -73.5h-324zM301 130h152q110 0 170 41t60 138q0 101 -60 138t-170 37h-152v-354zM978 0v974h167v-974h-167z" />
    <glyph glyph-name="uni044C" unicode="&#x44c;" horiz-adv-x="962" 
d="M132 0v974h169v-362h195q119 0 209 -29t139.5 -95t49.5 -178q0 -163 -109 -236.5t-288 -73.5h-365zM301 130h193q110 0 170 41t60 139q0 100 -60 137t-170 37h-193v-354z" />
    <glyph glyph-name="uni044D" unicode="&#x44d;" horiz-adv-x="1009" 
d="M480 -21q-109 0 -197.5 39t-141.5 117.5t-56 196.5h165q4 -107 66 -162.5t161 -55.5q138 0 208.5 95.5t70.5 272.5q0 190 -65.5 281.5t-196.5 91.5q-106 0 -167.5 -54t-69.5 -148h-165q10 114 63.5 188.5t141.5 111.5t200 37q128 0 224 -55t149 -167.5t53 -285.5
q0 -168 -56.5 -280t-156.5 -167.5t-230 -55.5zM428 426v135h404v-135h-404z" />
    <glyph glyph-name="uni044E" unicode="&#x44e;" horiz-adv-x="1488" 
d="M132 0v974h168v-974h-168zM252 431v135h413v-135h-413zM972 -16q-136 0 -232.5 60t-147.5 172.5t-51 268.5q0 158 51 271.5t147.5 174.5t232.5 61t232.5 -61t147.5 -174.5t51 -271.5q0 -156 -51 -268.5t-147.5 -172.5t-232.5 -60zM972 116q96 0 154 48t84 131t26 189
q0 108 -26 192t-84 132.5t-154 48.5t-154 -48.5t-84 -132.5t-26 -191q0 -106 26 -189.5t84 -131.5t154 -48z" />
    <glyph glyph-name="uni044F" unicode="&#x44f;" horiz-adv-x="960" 
d="M20 0l77 222q34 99 84.5 150.5t142.5 76.5q-106 24 -167 85.5t-61 165.5q0 144 106.5 209.5t277.5 65.5h348v-973h-169v392h-152q-75 0 -122 -22t-77 -71.5t-55 -131.5l-52 -169h-181zM498 518h161v327h-165q-110 0 -169 -34t-58 -128q0 -86 62 -125.5t169 -39.5z" />
    <glyph glyph-name="uni0450" unicode="&#x450;" horiz-adv-x="1012" 
d="M532 -18q-152 0 -251 66.5t-147.5 181t-48.5 257.5q0 149 47 262.5t142.5 177.5t239.5 64q193 0 302 -120t109 -345q0 -15 -0.5 -35.5t-2.5 -29.5h-669q1 -95 29 -174.5t89.5 -127.5t160.5 -48q107 0 166.5 52.5t62.5 151.5h165q-3 -103 -51.5 -177.5t-135.5 -115
t-207 -40.5zM254 583h506q-3 136 -67 208t-179 72q-117 0 -182.5 -71.5t-77.5 -208.5zM473 1110l-267 269h192l204 -269h-129z" />
    <glyph glyph-name="uni0451" unicode="&#x451;" horiz-adv-x="1012" 
d="M532 -18q-152 0 -251 66.5t-147.5 181t-48.5 257.5q0 149 47 262.5t142.5 177.5t239.5 64q193 0 302 -120t109 -345q0 -15 -0.5 -35.5t-2.5 -29.5h-669q1 -95 29 -174.5t89.5 -127.5t160.5 -48q107 0 166.5 52.5t62.5 151.5h165q-3 -103 -51.5 -177.5t-135.5 -115
t-207 -40.5zM254 583h506q-3 136 -67 208t-179 72q-117 0 -182.5 -71.5t-77.5 -208.5zM685 1164q-40 0 -66.5 25t-26.5 65q0 39 26.5 64.5t66.5 25.5t67 -25.5t27 -64.5q0 -40 -27 -65t-67 -25zM333 1164q-39 0 -66.5 25t-27.5 65q0 39 27.5 64.5t66.5 25.5q40 0 67 -25.5
t27 -64.5q0 -40 -27 -65t-67 -25z" />
    <glyph glyph-name="uni0452" unicode="&#x452;" horiz-adv-x="1033" 
d="M132 0v1348h166v-524q43 58 122 108.5t202 50.5q152 0 219 -93t67 -262v-692h-166v669q0 69 -13 123t-47.5 84.5t-100.5 30.5q-102 0 -171 -48.5t-111 -104.5v-690h-167zM552 -358v136h44q73 0 109.5 36.5t36.5 121.5h166q0 -143 -67 -218.5t-221 -75.5h-68zM9 1117v108
h524v-108h-524z" />
    <glyph glyph-name="uni0453" unicode="&#x453;" horiz-adv-x="691" 
d="M132 0v974h168v-974h-168zM179 839v135h496v-135h-496zM279 1110l203 269h194l-268 -269h-129z" />
    <glyph glyph-name="uni0454" unicode="&#x454;" horiz-adv-x="1009" 
d="M198 426v135h414v-135h-414zM523 -17q-128 0 -227 56t-155 167.5t-56 277.5t55 279t153.5 170t229.5 57q110 0 197.5 -37t140 -111.5t56.5 -188.5h-165q-7 94 -67.5 148t-158.5 54q-133 0 -201 -97.5t-68 -273.5q0 -116 30 -198t90 -125t149 -43q100 0 165 55t68 162h164
q-2 -117 -55.5 -195.5t-143 -117.5t-201.5 -39z" />
    <glyph glyph-name="uni0455" unicode="&#x455;" horiz-adv-x="948" 
d="M482 -13q-83 0 -156.5 17.5t-129.5 56.5t-87.5 101t-31.5 151h161q0 -112 71 -157t177 -45q95 0 156.5 35.5t61.5 116.5q0 72 -55.5 106t-196.5 69q-114 27 -191 62.5t-116 90t-39 137.5q0 64 27.5 112.5t77 81t116 49t144.5 16.5q77 0 144.5 -18t119.5 -55.5t81.5 -97
t29.5 -141.5h-162q0 101 -61.5 143.5t-151.5 42.5t-146 -31t-56 -97q0 -39 25 -66t84 -48.5t158 -45.5q110 -26 183.5 -62t111 -93t37.5 -147q0 -74 -29 -128t-81.5 -88.5t-123 -51t-152.5 -16.5z" />
    <glyph glyph-name="uni0456" unicode="&#x456;" horiz-adv-x="431" 
d="M132 0v974h167v-974h-167zM216 1157q-48 0 -76 27.5t-28 69.5t28 69.5t76 27.5q47 0 76 -27.5t29 -69.5t-29 -69.5t-76 -27.5z" />
    <glyph glyph-name="uni0457" unicode="&#x457;" horiz-adv-x="431" 
d="M371 1164q-39 0 -66 25t-27 65q0 39 27 64.5t66 25.5q40 0 67 -25.5t27 -64.5q0 -40 -27 -65t-67 -25zM60 1164q-39 0 -66 25t-27 65q0 39 27 64.5t66 25.5q40 0 67 -25.5t27 -64.5q0 -40 -27 -65t-67 -25zM132 0v974h167v-974h-167z" />
    <glyph glyph-name="uni0458" unicode="&#x458;" horiz-adv-x="431" 
d="M-56 -360v137h44q72 0 108.5 34.5t36.5 115.5v1047h167v-1033q0 -146 -67 -223.5t-220 -77.5h-69zM222 1157q-48 0 -76 27.5t-28 69.5t28 69.5t76 27.5q47 0 76 -27.5t29 -69.5t-29 -69.5t-76 -27.5z" />
    <glyph glyph-name="uni0459" unicode="&#x459;" horiz-adv-x="1493" 
d="M871 612h156q119 0 208.5 -29t139.5 -95t50 -178q0 -163 -109.5 -236.5t-287.5 -73.5h-324v839h-281l-43 -297q-23 -160 -45.5 -267t-55.5 -170.5t-86.5 -90.5t-138.5 -27h-32v136h13q38 0 64 17t46 64.5t38 136t39 231.5l62 402h587v-362zM871 130h154q110 0 170 41
t60 139q0 100 -60 137t-170 37h-154v-354z" />
    <glyph glyph-name="uni045A" unicode="&#x45a;" horiz-adv-x="1534" 
d="M745 0v974h167v-362h155q120 0 209 -29t139.5 -95t50.5 -178q0 -163 -109.5 -236.5t-287.5 -73.5h-324zM132 0v974h168v-974h-168zM252 468v135h512v-135h-512zM912 130h154q110 0 170 41t60 139q0 100 -60 137t-170 37h-154v-354z" />
    </font>
</defs>
</svg>
