<?xml version="1.0" standalone="no"?>
<!DOCTYPE svg PUBLIC "-//W3C//DTD SVG 1.1//EN" "http://www.w3.org/Graphics/SVG/1.1/DTD/svg11.dtd" >
<svg xmlns="http://www.w3.org/2000/svg" xmlns:xlink="http://www.w3.org/1999/xlink" version="1.1">
<metadata>
Created by FontForge 20201107 at Tue May 14 00:21:14 2024
 By 
(c) 2023 Microsoft Corporation. All Rights Reserved.
</metadata>
<defs>
<font id="AptosMono-Bold" horiz-adv-x="1229" >
  <font-face 
    font-family="Aptos Mono"
    font-weight="700"
    font-stretch="normal"
    units-per-em="2048"
    panose-1="2 11 0 9 2 2 2 2 2 4"
    ascent="1638"
    descent="-410"
    x-height="976"
    cap-height="1346"
    bbox="-653 -580 1881 2068"
    underline-thickness="50"
    underline-position="-125"
    unicode-range="U+000D-FDFC"
  />
<missing-glyph 
d="M132 0v1354h965v-1354h-965zM603 222q-50 0 -82 31t-32 76q0 49 32 80t82 31t82.5 -31t32.5 -80q0 -45 -32.5 -76t-82.5 -31zM216 84h796v1184h-796v-1184zM518 537q-5 86 20 134.5t84 89.5q57 38 82 67.5t25 72.5t-28.5 69.5t-90.5 26.5q-60 0 -93.5 -33t-33.5 -89h-181
q0 128 83.5 197t224.5 69t226.5 -63.5t85.5 -176.5q0 -77 -38 -128.5t-116 -102.5q-47 -32 -63.5 -60.5t-22.5 -72.5h-164z" />
    <glyph glyph-name="uniFDFC" unicode="&#xfdfc;" arabic-form="isolated" 
d="M230 86q-110 0 -162.5 79.5t-52.5 224.5q0 44 5 92t15 92l121 -1q-7 -39 -11.5 -85t-4.5 -89q0 -69 23 -100t73 -31q82 0 122.5 57t40.5 197v634h133v-644q0 -220 -76 -323t-226 -103zM577 -25q-26 0 -43.5 26t-17.5 64q0 37 17.5 63t43.5 26q25 0 42.5 -26t17.5 -63
q0 -38 -17.5 -64t-42.5 -26zM749 -25q-25 0 -42.5 26t-17.5 64q0 37 17.5 63t42.5 26t42.5 -26t17.5 -63q0 -38 -17.5 -64t-42.5 -26zM915 -8v180h17q79 0 120 44t41 140q0 53 -8.5 111.5t-25.5 133.5h126q16 -70 24.5 -129.5t8.5 -126.5q0 -171 -67 -262t-217 -91h-19z
M804 221q-99 0 -149 74.5t-50 225.5v635h133v-635q0 -60 17 -89.5t51 -29.5q35 0 55 22t20 69q0 39 -3.5 82.5t-14.5 100.5h122q10 -56 15.5 -102t5.5 -96q0 -118 -50 -187.5t-152 -69.5z" />
    <glyph glyph-name=".notdef" 
d="M132 0v1354h965v-1354h-965zM603 222q-50 0 -82 31t-32 76q0 49 32 80t82 31t82.5 -31t32.5 -80q0 -45 -32.5 -76t-82.5 -31zM216 84h796v1184h-796v-1184zM518 537q-5 86 20 134.5t84 89.5q57 38 82 67.5t25 72.5t-28.5 69.5t-90.5 26.5q-60 0 -93.5 -33t-33.5 -89h-181
q0 128 83.5 197t224.5 69t226.5 -63.5t85.5 -176.5q0 -77 -38 -128.5t-116 -102.5q-47 -32 -63.5 -60.5t-22.5 -72.5h-164z" />
    <glyph glyph-name=".null" horiz-adv-x="0" 
 />
    <glyph glyph-name="uni000D" unicode="&#xd;" 
 />
    <glyph glyph-name="space" unicode=" " 
 />
    <glyph glyph-name="exclam" unicode="!" 
d="M542 458q-21 103 -43 249.5t-22 312.5v326h275v-326q0 -167 -22 -312t-43 -250h-145zM617 -14q-82 0 -133 50t-51 122q0 78 51 126t133 48q79 0 129 -48t50 -126q0 -72 -50 -122t-129 -50z" />
    <glyph glyph-name="quotedbl" unicode="&#x22;" 
d="M748 828q-17 95 -27 183.5t-10 195.5v139h243v-139q0 -109 -10.5 -195t-27.5 -184h-168zM310 828q-16 95 -26 183.5t-10 195.5v139h241v-139q0 -109 -10 -195t-26 -184h-169z" />
    <glyph glyph-name="numbersign" unicode="#" 
d="M235 0l52 376h-206v166h230l33 232h-207v166h230l52 370h182l-50 -370h210l52 370h184l-52 -370h203v-166h-226l-32 -232h201v-166h-223l-52 -376h-184l51 376h-212l-53 -376h-183zM494 542h214l30 232h-211z" />
    <glyph glyph-name="dollar" unicode="$" 
d="M621 -18q-142 0 -257.5 41.5t-183.5 133.5t-68 244h261q2 -84 35 -131.5t88.5 -66.5t126.5 -19t124 18.5t83 57.5t30 100q0 53 -24 90.5t-84 67.5t-170 59v-5q-141 36 -239 86t-149 125.5t-51 186.5q0 123 60 202t163.5 117.5t235.5 38.5q131 0 239 -40.5t173 -123.5
t65 -212h-261q2 90 -56 135t-160 45q-96 0 -150 -36.5t-54 -114.5q0 -65 56.5 -106t197.5 -78v5q98 -27 182.5 -59t148 -79t99 -117t35.5 -174q0 -138 -65 -224.5t-177 -126.5t-254 -40zM553 -217v1745h124v-1745h-124z" />
    <glyph glyph-name="percent" unicode="%" 
d="M149 0l437 672l300 638h191l-438 -676l-301 -634h-189zM290 579q-87 0 -148.5 39.5t-94 121.5t-32.5 208q0 125 32.5 206.5t94 121t148.5 39.5q90 0 152 -40t94.5 -121.5t32.5 -206.5q0 -126 -33 -207.5t-95 -121t-151 -39.5zM290 718q43 0 68 29t36 81t11 119
q0 68 -11 119.5t-36 81t-68 29.5q-40 0 -64.5 -29.5t-35.5 -81t-11 -119.5q0 -67 11 -119t35.5 -81t64.5 -29zM937 -2q-89 0 -150.5 39.5t-93.5 121t-32 207.5q0 127 32 208.5t93.5 120.5t150.5 39t150.5 -39t93.5 -121t32 -209q0 -125 -32.5 -206.5t-94 -121t-149.5 -39.5z
M937 136q42 0 67 29.5t35.5 81t10.5 118.5q0 68 -10.5 119.5t-35.5 81t-67 29.5t-66.5 -29.5t-35 -81t-10.5 -119.5q0 -67 10.5 -118.5t35 -81t66.5 -29.5z" />
    <glyph glyph-name="ampersand" unicode="&#x26;" 
d="M457 -14q-124 0 -225 44.5t-160.5 131.5t-59.5 212q0 127 56 209.5t144 138t184 101.5h24q60 31 109 65.5t78.5 76.5t29.5 97q0 51 -29.5 82t-81.5 31q-54 0 -86.5 -31t-32.5 -86q0 -49 29 -101.5t101 -139.5l680 -817h-271l-578 683q-76 88 -128 182.5t-52 198.5
q0 89 40.5 156.5t116.5 105.5t181 38q155 0 236 -84.5t81 -211.5q0 -94 -39.5 -160t-101.5 -112.5t-129 -85.5l-23 4q-95 -53 -160.5 -99.5t-99.5 -100t-34 -126.5q0 -86 57 -142.5t166 -56.5q104 0 184 44.5t126 104.5q51 60 83 141t32 198h227q0 -114 -25 -204t-69.5 -159
t-103.5 -122q-85 -105 -201.5 -155.5t-274.5 -50.5z" />
    <glyph glyph-name="quotesingle" unicode="'" 
d="M529 829q-17 95 -26.5 183.5t-9.5 195.5v138h243v-138q0 -109 -11 -195t-27 -184h-169z" />
    <glyph glyph-name="parenleft" unicode="(" 
d="M724 -352q-77 144 -131.5 274t-83.5 266t-29 296q0 166 27 308t81.5 278.5t135.5 283.5h224q-106 -203 -162 -426.5t-56 -453.5q0 -218 60.5 -429.5t157.5 -396.5h-224z" />
    <glyph glyph-name="parenright" unicode=")" 
d="M281 -352q105 203 160.5 428t55.5 456q0 216 -59.5 426t-156.5 396h221q78 -143 133 -273t83.5 -264.5t28.5 -294.5q0 -166 -27 -309t-81.5 -280t-136.5 -285h-221z" />
    <glyph glyph-name="asterisk" unicode="*" 
d="M440 579l-146 88l182 248l-283 82l58 169l273 -93v278h180v-278l276 93l56 -169l-284 -82l184 -248l-146 -88l-178 245z" />
    <glyph glyph-name="plus" unicode="+" 
d="M145 774h938v-212h-938v212zM507 198v940h213v-940h-213z" />
    <glyph glyph-name="comma" unicode="," 
d="M461 -341l-43 148q80 24 130.5 71.5t61.5 122.5l20 -15q-88 0 -142.5 53.5t-54.5 130.5q0 84 54.5 135t142.5 51q85 0 137.5 -60t52.5 -179q0 -102 -30.5 -180.5t-82 -135t-115.5 -91.5t-131 -51z" />
    <glyph glyph-name="hyphen" unicode="-" 
d="M237 393v226h754v-226h-754z" />
    <glyph glyph-name="period" unicode="." 
d="M618 -9q-88 0 -142 54t-54 131q0 83 54 134.5t142 51.5q85 0 137 -51.5t52 -134.5q0 -77 -52 -131t-137 -54z" />
    <glyph glyph-name="slash" unicode="/" 
d="M252 0l490 1346h235l-490 -1346h-235z" />
    <glyph glyph-name="zero" unicode="0" 
d="M614 -18q-119 0 -209.5 44t-152 129.5t-92 210.5t-30.5 288t30.5 288.5t92 211t152 129.5t209.5 44q120 0 210.5 -44t151 -129.5t91.5 -211t31 -288.5q0 -162 -31 -287.5t-91.5 -211t-151 -129.5t-210.5 -44zM614 214q66 0 110.5 34.5t71 94.5t38.5 140t12 171
q0 93 -12 172.5t-38.5 140t-71 94.5t-110.5 34q-65 0 -109.5 -34t-72 -94.5t-39 -140t-11.5 -172.5q0 -91 11.5 -171t39 -140t72 -94.5t109.5 -34.5zM403 160l-138 82l527 891l123 -101z" />
    <glyph glyph-name="one" unicode="1" 
d="M669 0v982q-35 -44 -87.5 -84.5t-127 -71.5t-176.5 -46v247q102 26 179 67.5t136 97t103 120.5h255v-1312h-282z" />
    <glyph glyph-name="two" unicode="2" 
d="M130 0v185l512 450q88 79 129 144.5t41 144.5q0 82 -47 129.5t-144 47.5q-116 0 -168.5 -61t-52.5 -160h-250q0 144 56.5 243t162 150.5t252.5 51.5q140 0 243 -46t159.5 -133.5t56.5 -212.5q0 -110 -43.5 -193t-113.5 -150.5t-148 -133.5l-266 -229h590v-227h-969z" />
    <glyph glyph-name="three" unicode="3" 
d="M618 -17q-235 0 -363.5 110.5t-128.5 316.5h251q0 -97 66 -152.5t174 -55.5q100 0 158.5 48t58.5 147q0 93 -63 139t-179 46h-90v206h98q109 0 159.5 47t50.5 124q0 71 -50.5 109.5t-142.5 38.5q-98 0 -151.5 -47t-54.5 -130h-251q0 129 60.5 217t163.5 133.5t232 45.5
q119 0 220.5 -37.5t163.5 -113.5t62 -193q0 -114 -62 -188t-169 -102q117 -23 194 -101.5t77 -215.5q0 -185 -131.5 -288.5t-352.5 -103.5z" />
    <glyph glyph-name="four" unicode="4" 
d="M692 0v240h-596v227l597 846h265v-853h174v-220h-174v-240h-266zM343 460h355v509z" />
    <glyph glyph-name="five" unicode="5" 
d="M617 -18q-139 0 -251.5 44t-178.5 134t-66 228h266q0 -88 65 -137.5t165 -49.5t161 57.5t61 183.5q0 124 -62.5 178.5t-159.5 54.5q-77 0 -127 -25.5t-82 -62.5h-239l57 723h795v-226h-578l-23 -296q36 34 98 58t156 24q115 0 213.5 -43t159 -137t60.5 -248
q0 -160 -64.5 -261.5t-175.5 -150t-250 -48.5z" />
    <glyph glyph-name="six" unicode="6" 
d="M639 -18q-150 0 -266.5 68.5t-183.5 217t-67 388.5q0 230 66 378t182.5 220t266.5 72q190 0 304 -94.5t141 -270.5h-253q-18 72 -65.5 109t-126.5 37q-122 0 -186.5 -112.5t-64.5 -348.5v-60q0 -137 33.5 -222t91.5 -124t129 -39q108 0 161 61t53 155q0 93 -52 145
t-151 52q-112 0 -195.5 -49t-127.5 -124l-17 190q46 57 101.5 102t128.5 71t171 26q111 0 200 -46.5t141.5 -137.5t52.5 -226q0 -196 -120.5 -317t-346.5 -121z" />
    <glyph glyph-name="seven" unicode="7" 
d="M266 0l558 1070h-690v240h960v-218l-539 -1092h-289z" />
    <glyph glyph-name="eight" unicode="8" 
d="M615 -18q-93 0 -182 22t-160 69t-113 121.5t-42 178.5q0 125 74.5 204t193.5 110q-96 32 -155 107t-59 187q0 124 62.5 200.5t163.5 111.5t216 35t216 -35.5t164 -112t63 -199.5q0 -113 -63.5 -189.5t-150.5 -104.5q120 -31 193.5 -110t73.5 -204q0 -104 -41.5 -178.5
t-112.5 -121.5t-159 -69t-182 -22zM614 195q59 0 110.5 21.5t83.5 65.5t32 109q0 64 -31 107t-82 65t-112 21q-58 1 -110 -20.5t-85 -64.5t-33 -108q0 -64 31.5 -108t83.5 -66t112 -22zM615 788q53 -2 98 18t72 59t27 95q0 86 -58.5 126t-138.5 40q-51 0 -96.5 -17.5
t-73.5 -54t-28 -94.5q0 -55 27 -94t72.5 -59.5t98.5 -18.5z" />
    <glyph glyph-name="nine" unicode="9" 
d="M575 -18q-194 0 -309 95.5t-140 267.5h254q15 -70 64.5 -107t130.5 -37q128 0 196.5 101t68.5 331v93q0 145 -32.5 228.5t-87 118.5t-122.5 35q-109 0 -165 -61t-56 -155q0 -92 53.5 -144.5t142.5 -52.5q76 0 134 21.5t104.5 58t85.5 79.5l16 -189q-38 -44 -90.5 -86.5
t-126.5 -70t-175 -27.5q-114 0 -203.5 47.5t-141.5 139t-52 223.5q0 126 56.5 224.5t162.5 155t256 56.5q145 0 259.5 -67t180 -212t65.5 -380q0 -240 -67 -391.5t-186 -223t-276 -71.5z" />
    <glyph glyph-name="colon" unicode=":" 
d="M618 -9q-88 0 -142 54t-54 131q0 83 54 134.5t142 51.5q85 0 137.5 -51.5t52.5 -134.5q0 -77 -52.5 -131t-137.5 -54zM618 654q-88 0 -142 54t-54 131q0 84 54 135t142 51q85 0 137.5 -51t52.5 -135q0 -77 -52.5 -131t-137.5 -54z" />
    <glyph glyph-name="semicolon" unicode=";" 
d="M461 -341l-43 148q80 24 130.5 71.5t61.5 122.5l20 -15q-88 0 -142.5 53.5t-54.5 130.5q0 84 54.5 135t142.5 51q85 0 137.5 -60t52.5 -179q0 -102 -30.5 -180.5t-82 -135t-115.5 -91.5t-131 -51zM618 654q-88 0 -142 54t-54 131q0 84 54 135t142 51q85 0 137 -51
t52 -135q0 -77 -52 -131t-137 -54z" />
    <glyph glyph-name="less" unicode="&#x3c;" 
d="M145 801l938 372v-211l-938 -354v193zM145 534v194l938 -367v-212z" />
    <glyph glyph-name="equal" unicode="=" 
d="M145 362v213h938v-213h-938zM145 764v210h938v-210h-938z" />
    <glyph glyph-name="greater" unicode="&#x3e;" 
d="M1083 801v-193l-938 354v211zM1083 534l-938 -385v212l938 367v-194z" />
    <glyph glyph-name="question" unicode="?" 
d="M484 410q-7 21 -9.5 48.5t-2.5 50.5q0 99 39 163.5t121 122.5q86 60 122 103t36 103q0 64 -42.5 104t-129.5 40q-96 0 -145 -48t-50 -133h-273q0 127 57.5 215.5t162.5 134.5t248 46q139 0 242 -42t161 -122t58 -195q0 -79 -25.5 -138t-73 -106t-116.5 -91
q-55 -36 -84.5 -66.5t-42 -63.5t-16.5 -77h-282zM600 -14q-82 0 -132.5 50t-50.5 122q0 78 50.5 126t132.5 48q79 0 129.5 -48t50.5 -126q0 -72 -50.5 -122t-129.5 -50z" />
    <glyph glyph-name="at" unicode="@" 
d="M629 -215q-181 0 -312 90t-201.5 270.5t-70.5 449.5q0 247 72 418.5t201.5 261t302.5 89.5q152 0 259 -55.5t174 -156.5t98 -237.5t31 -297.5q0 -156 -28.5 -255.5t-84 -147.5t-138.5 -48q-77 0 -130.5 38.5t-74.5 108.5q-23 -66 -69.5 -106.5t-108.5 -40.5
q-119 0 -182 107t-63 291q0 185 66.5 290t190.5 105q56 0 96.5 -31t60.5 -74l8 93h181v-518q0 -66 15.5 -89t36.5 -23t35.5 27t22.5 91.5t8 175.5q0 201 -43 336t-132.5 202.5t-228.5 67.5q-132 0 -225.5 -70.5t-143 -209t-49.5 -342.5q0 -174 27 -298.5t80 -204t131 -117
t179 -37.5q79 0 144 13t113 33v-154q-50 -21 -111.5 -33t-136.5 -12zM604 318q40 0 62 35t30.5 91t8.5 120q0 58 -8 113.5t-29.5 91.5t-60.5 36t-59.5 -35.5t-28.5 -91t-8 -114.5q0 -60 7.5 -116.5t27.5 -93t58 -36.5z" />
    <glyph glyph-name="A" unicode="A" 
d="M29 0l437 1346h298l436 -1346h-277l-343 1181h68l-344 -1181h-275zM268 296v218h689v-218h-689z" />
    <glyph glyph-name="B" unicode="B" 
d="M138 0v1346h463q217 0 345 -81t128 -252q0 -108 -59.5 -185.5t-156.5 -106.5q147 -28 223.5 -115t76.5 -214q0 -130 -61.5 -217.5t-176.5 -131t-276 -43.5h-506zM421 216h215q67 0 121 18.5t85.5 60.5t31.5 114q0 90 -62.5 133t-176.5 43h-214v-369zM421 801h176
q91 0 142 46t51 126q0 81 -53 119t-140 38h-176v-329z" />
    <glyph glyph-name="C" unicode="C" 
d="M632 -18q-178 0 -302 85t-187.5 240t-63.5 365t63.5 365.5t187.5 241t302 85.5q136 0 250.5 -54.5t186 -161t78.5 -262.5h-290q-7 81 -38.5 134.5t-80 80.5t-106.5 27q-101 0 -158.5 -61t-80.5 -164t-23 -231q0 -127 23 -230t80.5 -163.5t158.5 -60.5t159.5 70.5
t67.5 202.5h290q-11 -164 -75.5 -278t-176.5 -172.5t-265 -58.5z" />
    <glyph glyph-name="D" unicode="D" 
d="M110 0v1346h370q201 0 344 -77.5t218.5 -227.5t75.5 -368q0 -333 -169.5 -503t-468.5 -170h-370zM393 236h62q125 0 207.5 45.5t123 142t40.5 249.5q0 151 -43 247.5t-125.5 143t-202.5 46.5h-62v-874z" />
    <glyph glyph-name="E" unicode="E" 
d="M142 0v1346h944v-234h-661v-313h602v-227h-602v-338h661v-234h-944z" />
    <glyph glyph-name="F" unicode="F" 
d="M150 0v1346h928v-234h-645v-313h583v-227h-583v-572h-283z" />
    <glyph glyph-name="G" unicode="G" 
d="M640 -18q-181 0 -306 84t-190 239t-65 367q0 213 65 368t190 239.5t306 84.5q127 0 234.5 -48.5t176.5 -150.5t79 -262h-289q-6 63 -29 114t-67 81t-111 30q-101 0 -159 -60.5t-82.5 -163.5t-24.5 -232q0 -128 27 -231.5t87 -163.5t158 -60q82 0 132.5 38t74 103
t23.5 145h-235v220h515v-126q0 -185 -54.5 -323.5t-167.5 -215t-288 -76.5z" />
    <glyph glyph-name="H" unicode="H" 
d="M143 0v1346h283v-526h376v526h284v-1346h-284v571h-376v-571h-283z" />
    <glyph glyph-name="I" unicode="I" 
d="M474 0v1346h283v-1346h-283zM179 235h871v-235h-871v235zM179 1346h871v-235h-871v235z" />
    <glyph glyph-name="J" unicode="J" 
d="M183 -10v242h324q88 0 145.5 29.5t86.5 95.5t29 174v815h277v-818q0 -277 -124.5 -407.5t-393.5 -130.5h-344zM380 1111v235h577v-235h-577z" />
    <glyph glyph-name="K" unicode="K" 
d="M150 0v1346h283v-642l424 642h313l-439 -631l471 -715h-326l-443 690v-690h-283z" />
    <glyph glyph-name="L" unicode="L" 
d="M223 0v1346h283v-1112h566v-234h-849z" />
    <glyph glyph-name="M" unicode="M" 
d="M97 0v1346h285l281 -710h-78l271 710h275v-1346h-254l24 1196h77l-300 -777h-126l-312 777h82l24 -1196h-249z" />
    <glyph glyph-name="N" unicode="N" 
d="M143 0v1346h279l475 -1023l-66 -7v1030h255v-1346h-277l-479 1028l67 8v-1036h-254z" />
    <glyph glyph-name="O" unicode="O" 
d="M615 -18q-181 0 -300.5 85t-178 240t-58.5 365t58.5 365.5t178 241t300.5 85.5q179 0 298 -85.5t178.5 -241t59.5 -365.5t-59.5 -365t-178.5 -240t-298 -85zM615 217q95 0 148.5 62t75.5 165.5t22 227.5q0 125 -22 228.5t-75.5 165.5t-148.5 62q-97 0 -150.5 -61
t-74.5 -164.5t-21 -230.5t21 -230.5t74.5 -164t150.5 -60.5z" />
    <glyph glyph-name="P" unicode="P" 
d="M158 0v1346h484q132 0 241.5 -46.5t174.5 -141.5t65 -243q0 -149 -65 -246t-174.5 -144t-241.5 -47h-201v-478h-283zM441 705h176q97 0 157 52.5t60 157.5q0 103 -61.5 152.5t-155.5 49.5h-176v-412z" />
    <glyph glyph-name="Q" unicode="Q" 
d="M1091 -321q-145 0 -241.5 25t-158 70.5t-102.5 106t-76 130.5l196 112q32 -53 60.5 -91t68 -62.5t103 -36t164.5 -11.5h54v-243h-68zM604 -18q-181 0 -300.5 85t-178 240t-58.5 365t58.5 365.5t178 241t300.5 85.5q179 0 298 -85.5t178.5 -241t59.5 -365.5t-59.5 -365
t-178.5 -240t-298 -85zM604 217q95 0 148.5 62t75.5 165.5t22 227.5q0 125 -22 228.5t-75.5 165.5t-148.5 62q-97 0 -150.5 -61t-74.5 -164.5t-21 -230.5t21 -230.5t74.5 -164t150.5 -60.5z" />
    <glyph glyph-name="R" unicode="R" 
d="M143 0v1346h507q133 0 238.5 -36.5t166.5 -117.5t61 -217q0 -128 -72.5 -217t-204.5 -127q88 -14 138.5 -52.5t81 -104t56.5 -158.5l88 -316h-288l-66 260q-22 90 -48.5 146.5t-70.5 82.5t-120 26h-184v-515h-283zM426 740h184q64 0 112.5 23.5t75.5 66.5t27 103
q0 93 -53.5 140t-141.5 47h-204v-380z" />
    <glyph glyph-name="S" unicode="S" 
d="M619 -18q-151 0 -273 44.5t-193.5 140.5t-72.5 251h289q3 -80 36 -125.5t90 -65t129 -19.5q70 0 122.5 18t83 54t30.5 91q0 49 -26 82.5t-90.5 62t-182.5 62.5q-138 40 -239 88t-156 124.5t-55 198.5q0 132 63 214t173.5 121t254.5 39q140 0 254.5 -42t183.5 -129
t69 -222h-290q1 85 -60.5 129t-155.5 44q-95 0 -149 -36t-54 -102q0 -40 24.5 -70t91.5 -57.5t194 -64.5q153 -43 250 -93t143 -129t46 -207q0 -142 -71 -230.5t-191.5 -130t-267.5 -41.5z" />
    <glyph glyph-name="T" unicode="T" 
d="M474 0v1112h-396v234h1073v-234h-394v-1112h-283z" />
    <glyph glyph-name="U" unicode="U" 
d="M607 -19q-171 0 -280 57.5t-160 169t-51 272.5v866h289v-848q0 -148 52.5 -213.5t152.5 -65.5q106 0 159.5 65.5t53.5 213.5v848h290v-866q0 -161 -52.5 -272.5t-164 -169t-289.5 -57.5z" />
    <glyph glyph-name="V" unicode="V" 
d="M442 0l-405 1346h302l273 -1045l276 1045h304l-416 -1346h-334z" />
    <glyph glyph-name="W" unicode="W" 
d="M207 0l-205 1346h253l117 -1176l-27 -1l144 1177h269l148 -1175h-27l119 1175h229l-205 -1346h-272l-149 1189h30l-152 -1189h-272z" />
    <glyph glyph-name="X" unicode="X" 
d="M17 0l441 704l-405 642h327l234 -439l248 439h314l-403 -644l439 -702h-336l-262 473l-279 -473h-318z" />
    <glyph glyph-name="Y" unicode="Y" 
d="M469 0v503l-455 843h315l285 -583l285 583h316l-455 -843v-503h-291z" />
    <glyph glyph-name="Z" unicode="Z" 
d="M101 0v223l630 887h-579v236h931v-211l-640 -899h684v-236h-1026z" />
    <glyph glyph-name="bracketleft" unicode="[" 
d="M294 -360v1714h640v-224h-389v-1265h389v-225h-640z" />
    <glyph glyph-name="backslash" unicode="\" 
d="M742 0l-490 1346h235l490 -1346h-235z" />
    <glyph glyph-name="bracketright" unicode="]" 
d="M295 -360v225h389v1265h-389v224h639v-1714h-639z" />
    <glyph glyph-name="asciicircum" unicode="^" 
d="M177 780l333 566h208l334 -566h-233l-205 361l-203 -361h-234z" />
    <glyph glyph-name="underscore" unicode="_" 
d="M0 -236v95h1229v-95h-1229z" />
    <glyph glyph-name="grave" unicode="`" 
d="M813 1106l-287 277h287l197 -277h-197z" />
    <glyph glyph-name="a" unicode="a" 
d="M467 -17q-87 0 -163.5 32t-124.5 96.5t-48 162.5q0 135 85 203t240.5 93t366.5 29v51q0 93 -51.5 128t-131.5 35q-91 0 -148 -37t-57 -120h-250q0 120 57.5 194t160 107.5t237.5 33.5q97 0 178.5 -16t140.5 -54t91.5 -102.5t32.5 -163.5v-655h-249l-9 128
q-67 -66 -153 -105.5t-205 -39.5zM550 167q90 0 158.5 36t110.5 88v163q-234 -3 -328.5 -41t-94.5 -121q0 -58 40 -91.5t114 -33.5z" />
    <glyph glyph-name="b" unicode="b" 
d="M706 -18q-97 0 -168.5 38t-127.5 113l-9 -133h-249v1346h267v-512q51 73 128 115.5t180 42.5q180 0 287 -125.5t107 -380.5q0 -168 -52 -280.5t-145.5 -168t-217.5 -55.5zM639 186q103 0 158.5 77t55.5 227q0 152 -53 226.5t-153 74.5q-86 0 -143 -49.5t-85 -107.5v-305
q30 -57 84 -100t136 -43z" />
    <glyph glyph-name="c" unicode="c" 
d="M632 -18q-236 0 -376 128.5t-140 371.5q0 163 64 277.5t180 173.5t272 59q139 0 244.5 -40.5t166 -122t62.5 -204.5h-260q-4 74 -57.5 118t-153.5 44q-133 0 -192 -79.5t-59 -225.5q0 -142 59 -219t192 -77q101 0 159.5 48t61.5 138h258q-3 -127 -63 -214t-166.5 -131.5
t-251.5 -44.5z" />
    <glyph glyph-name="d" unicode="d" 
d="M494 -17q-121 0 -207.5 56t-132.5 168.5t-46 280.5t49.5 280.5t140.5 168.5t216 56q108 0 181.5 -43t115.5 -111v507h266v-1346h-256l-12 138q-53 -71 -129 -113t-186 -42zM572 185q92 0 150.5 46.5t88.5 101.5v305q-31 61 -88 106.5t-142 45.5q-98 0 -151.5 -78
t-53.5 -227q0 -152 51.5 -226t144.5 -74z" />
    <glyph glyph-name="e" unicode="e" 
d="M633 -18q-164 0 -281 60.5t-179.5 174.5t-62.5 274q0 155 61 266.5t175 172.5t274 61q229 0 363 -126t134 -366q0 -13 -1 -30.5t-3 -27.5h-738q2 -73 28 -135.5t83 -100t151 -37.5q103 0 164 38.5t64 116.5h251q-6 -114 -66.5 -190t-167 -113.5t-249.5 -37.5zM380 599
h474q-5 107 -68.5 160t-165.5 53q-104 0 -166 -54.5t-74 -158.5z" />
    <glyph glyph-name="f" unicode="f" 
d="M450 0v758h-320v207h320v30q0 126 44.5 204.5t146.5 115.5t274 37h201v-193h-193q-73 0 -119 -17.5t-67 -54t-21 -95.5v-27h381v-207h-381v-758h-266z" />
    <glyph glyph-name="g" unicode="g" 
d="M600 -377q-191 0 -303.5 35.5t-161.5 94t-49 124.5q0 85 89 148.5t283 87.5l44 95h156q254 0 369 -67.5t115 -205.5q0 -140 -139 -226t-403 -86zM596 -211q159 0 224.5 35.5t65.5 88.5q0 33 -22.5 55.5t-76 34.5t-145.5 12h-179q-68 -16 -102.5 -45t-34.5 -67
q0 -42 58.5 -78t211.5 -36zM463 19q-122 13 -196.5 43t-108 70.5t-33.5 82.5q0 58 55.5 101t173.5 76l112 -49q-36 -7 -68 -18t-53 -25.5t-21 -33.5t26 -32t91 -19.5t182 -6.5zM581 311q-139 0 -236.5 47t-148.5 123.5t-51 166.5q0 94 51 171.5t150 123t242 45.5
q146 0 243 -45.5t145 -123t48 -171.5q0 -92 -49 -168t-147.5 -122.5t-246.5 -46.5zM586 471q82 0 136 44.5t54 132.5q0 92 -52 136.5t-135 44.5q-84 0 -139 -45.5t-55 -135.5q0 -59 26 -98t69.5 -59t95.5 -20zM874 839l-78 100q46 129 144.5 175.5t236.5 48.5v-195
q-65 0 -124 -8.5t-105.5 -35.5t-73.5 -85z" />
    <glyph glyph-name="h" unicode="h" 
d="M155 0v1346h262v-515q49 62 130 110.5t210 48.5q160 0 242.5 -88.5t82.5 -266.5v-635h-267v601q0 54 -14 93t-47 61t-90 22q-80 0 -140 -36.5t-102 -90.5v-650h-267z" />
    <glyph glyph-name="i" unicode="i" 
d="M630 1090q-88 0 -134 43.5t-46 110.5q0 68 46 112t134 44t134 -44t46 -112q0 -67 -46 -110.5t-134 -43.5zM953 0q-163 0 -262.5 49t-145.5 140t-46 217v363h-344v207h610v-554q0 -103 40 -158.5t156 -55.5h173v-208h-181z" />
    <glyph glyph-name="j" unicode="j" 
d="M139 -358v208h238q83 0 128.5 25t63 73t17.5 116v705h-330v207h596v-928q0 -126 -47 -217t-149.5 -140t-269.5 -49h-247zM697 1090q-88 0 -134.5 43.5t-46.5 110.5q0 68 46.5 112t134.5 44t134 -44t46 -112q0 -67 -46 -110.5t-134 -43.5z" />
    <glyph glyph-name="k" unicode="k" 
d="M189 0v1346h266v-819l409 449h290l-414 -449l442 -527h-303l-424 515v-515h-266z" />
    <glyph glyph-name="l" unicode="l" 
d="M877 0q-163 0 -262.5 49t-145.5 140t-46 217v733h-298v207h564v-924q0 -103 40 -158.5t156 -55.5h249v-208h-257z" />
    <glyph glyph-name="m" unicode="m" 
d="M74 0v976h219l5 -139q33 60 84.5 106.5t132.5 46.5q108 0 161.5 -76.5t53.5 -228.5v-685h-229v651q0 71 -15 113.5t-61 42.5q-41 0 -71.5 -36t-50.5 -86v-685h-229zM927 0v651q0 71 -14 113.5t-60 42.5q-43 0 -74 -36t-52 -86l-31 132q43 71 103 122t142 51
q113 0 164 -74t51 -219v-697h-229z" />
    <glyph glyph-name="n" unicode="n" 
d="M155 0v976h257l5 -145q49 62 130 110.5t211 48.5q159 0 241.5 -89.5t82.5 -265.5v-635h-267v601q0 54 -13.5 93t-46 61t-89.5 22q-81 0 -141.5 -37t-102.5 -90v-650h-267z" />
    <glyph glyph-name="o" unicode="o" 
d="M612 -18q-147 0 -260.5 59t-177.5 171.5t-64 272.5q0 163 64 277t177.5 174t260.5 60q148 0 262.5 -60t179.5 -174t65 -277q0 -160 -65 -272.5t-179.5 -171.5t-262.5 -59zM612 186q86 0 138 40.5t76 108.5t24 150q0 84 -24 154t-76 111.5t-138 41.5q-84 0 -136 -41.5
t-75.5 -111.5t-23.5 -154q0 -82 23.5 -150t75.5 -108.5t136 -40.5z" />
    <glyph glyph-name="p" unicode="p" 
d="M152 -358v1334h253l14 -142q52 72 130.5 115t183.5 43q178 0 283 -126t105 -379q0 -167 -51.5 -279t-143.5 -169t-215 -57q-98 0 -170.5 38.5t-122.5 103.5v-482h-266zM644 186q102 0 155.5 77t53.5 228t-51.5 225.5t-148.5 74.5q-88 0 -147 -50t-87 -107v-305
q31 -57 86.5 -100t138.5 -43z" />
    <glyph glyph-name="q" unicode="q" 
d="M811 -358v499q-57 -73 -136.5 -115.5t-179.5 -42.5q-122 0 -208.5 56t-132.5 168.5t-46 281.5q0 167 49.5 279.5t141 168.5t216.5 56q109 0 181 -43t115 -110l8 136h258v-1334h-266zM573 185q83 0 144 47t95 104v303q-31 59 -88 105t-143 46q-98 0 -152.5 -78t-54.5 -226
q0 -153 52.5 -227t146.5 -74z" />
    <glyph glyph-name="r" unicode="r" 
d="M349 0v976h256l5 -287q45 94 110.5 160.5t152.5 102.5t197 36h58v-220h-62q-115 0 -206.5 -38t-154 -96.5t-90.5 -120.5v-513h-266zM162 769v207h261l21 -207h-282z" />
    <glyph glyph-name="s" unicode="s" 
d="M613 -19q-98 0 -185 15.5t-154.5 52t-106 98.5t-38.5 156h247q0 -81 67 -112.5t171 -31.5q95 0 159 25t64 84q0 36 -25.5 59.5t-87 42t-172.5 37.5q-118 22 -207.5 58t-139.5 95.5t-50 150.5q0 78 36.5 132t99.5 86.5t144 47.5t168 15q90 0 171.5 -16t145 -52.5t100 -96
t36.5 -145.5h-246q0 72 -58.5 103.5t-145.5 31.5q-91 0 -142.5 -22t-51.5 -68q0 -27 23.5 -48.5t88.5 -42t189 -45.5q125 -24 210.5 -59t129.5 -92.5t44 -150.5q0 -109 -65 -177t-174.5 -99.5t-244.5 -31.5z" />
    <glyph glyph-name="t" unicode="t" 
d="M865 0q-163 0 -262.5 49t-145 140t-45.5 217v363h-301v207h301v237h265v-237h429v-207h-429v-347q0 -103 40 -158.5t157 -55.5h230v-208h-239z" />
    <glyph glyph-name="u" unicode="u" 
d="M471 -14q-159 0 -241.5 90t-82.5 265v635h267v-601q0 -53 13.5 -92.5t46 -61.5t89.5 -22q81 0 141.5 37.5t102.5 89.5v650h267v-976h-257l-5 146q-49 -63 -130 -111.5t-211 -48.5z" />
    <glyph glyph-name="v" unicode="v" 
d="M462 0l-400 976h278l308 -843h-67l316 843h270l-401 -976h-304z" />
    <glyph glyph-name="w" unicode="w" 
d="M226 0l-217 976h247l134 -806l-26 -1l126 807h269l130 -805h-26l130 805h229l-216 -976h-273l-131 819h30l-134 -819h-272z" />
    <glyph glyph-name="x" unicode="x" 
d="M93 0l403 563l102 55l224 358h285l-366 -525l-104 -53l-261 -398h-283zM851 0l-260 398l-94 50l-371 528h285l226 -356l91 -55l409 -565h-286z" />
    <glyph glyph-name="y" unicode="y" 
d="M188 -358v216h106q69 0 114 19t64 66l25 58l-429 975h278l317 -833l-56 -2l288 835h270l-440 -1087q-32 -84 -75.5 -138.5t-119 -81.5t-205.5 -27h-137z" />
    <glyph glyph-name="z" unicode="z" 
d="M156 0v193l562 578h-522v205h844v-186l-566 -583h599v-207h-917z" />
    <glyph glyph-name="braceleft" unicode="{" 
d="M795 -361q-79 0 -141 31t-97.5 96t-35.5 167v226q0 95 -33 145.5t-98 69t-161 18.5v207q96 0 161 21.5t98 69t33 125.5v253q0 103 35.5 166t97.5 91.5t141 28.5h251v-191h-170q-57 0 -81.5 -37t-24.5 -95v-269q0 -81 -27.5 -133t-83 -81t-138.5 -42q84 -16 139 -52
t82.5 -91t27.5 -131v-270q0 -58 24.5 -94.5t81.5 -36.5h170v-192h-251z" />
    <glyph glyph-name="bar" unicode="|" 
d="M507 -358v1704h214v-1704h-214z" />
    <glyph glyph-name="braceright" unicode="}" 
d="M183 -361v192h170q57 0 81.5 36.5t24.5 94.5v270q0 76 27.5 131t82.5 91t139 52q-83 13 -138.5 42t-83 81t-27.5 133v269q0 58 -24.5 95t-81.5 37h-170v191h251q79 0 141 -28.5t97.5 -91.5t35.5 -166v-253q0 -78 33 -125.5t98 -69t161 -21.5v-207q-96 0 -161 -18.5
t-98 -69t-33 -145.5v-226q0 -102 -35.5 -167t-97.5 -96t-141 -31h-251z" />
    <glyph glyph-name="asciitilde" unicode="~" 
d="M841 493q-77 0 -131 25.5t-120 62.5q-56 34 -91.5 52t-74.5 18q-47 0 -71.5 -34.5t-27.5 -117.5h-220q7 167 80 266t202 99q78 0 133.5 -25t119.5 -62q58 -34 94 -52.5t75 -18.5q44 0 67.5 35t27.5 117h219q-7 -166 -79.5 -265.5t-202.5 -99.5z" />
    <glyph glyph-name="uni00A0" unicode="&#xa0;" 
 />
    <glyph glyph-name="exclamdown" unicode="&#xa1;" 
d="M477 -365v325q0 167 22 313.5t43 248.5h145q22 -103 43.5 -248.5t21.5 -313.5v-325h-275zM617 648q-82 0 -133 48t-51 126q0 72 51 122t133 50q79 0 129 -50t50 -122q0 -78 -50 -126t-129 -48z" />
    <glyph glyph-name="cent" unicode="&#xa2;" 
d="M564 -217v1393h123v-1393h-123zM632 -18q-138 0 -250 55.5t-178.5 167t-66.5 279.5q0 170 64.5 284t176.5 171t254 57q126 0 227 -41t161 -123t62 -205h-248q-4 74 -54 118.5t-146 44.5q-128 0 -185.5 -80t-57.5 -226q0 -142 57.5 -219t185.5 -77q97 0 152.5 48.5
t57.5 137.5h247q-3 -127 -63 -215t-162 -132.5t-234 -44.5z" />
    <glyph glyph-name="sterling" unicode="&#xa3;" 
d="M159 0v211q129 43 175 109t46 135q0 53 -24.5 107.5t-60.5 115.5q-42 74 -70.5 143.5t-28.5 153.5q0 160 119 256t337 96q136 0 238.5 -42t160 -132t57.5 -234h-249q1 77 -27 119.5t-75 60t-105 17.5q-95 0 -146.5 -42.5t-51.5 -113.5q0 -46 21.5 -96.5t60.5 -115.5
q52 -81 77 -148.5t25 -138.5q0 -56 -23 -111.5t-79 -97.5t-154 -58v47h726v-241h-949zM121 530v136h826v-136h-826z" />
    <glyph glyph-name="currency" unicode="&#xa4;" 
d="M615 260q-109 0 -198.5 53.5t-143 143.5t-53.5 197q0 110 53.5 199.5t143 142.5t198.5 53t198 -53t142 -142.5t53 -199.5q0 -107 -53 -197t-142 -143.5t-198 -53.5zM272 175l-137 138l213 212q20 -45 56 -81t81 -56zM956 175l-214 213q46 20 82 56t57 81l212 -212z
M348 784l-213 213l137 137l213 -213q-45 -21 -81 -56.5t-56 -80.5zM615 453q55 0 101 27t73.5 73t27.5 101q0 56 -27.5 102t-73.5 72.5t-101 26.5q-57 0 -102.5 -26.5t-72.5 -72.5t-27 -102q0 -55 27 -101t72.5 -73t102.5 -27zM881 784q-21 45 -57 80.5t-82 56.5l214 213
l137 -137z" />
    <glyph glyph-name="yen" unicode="&#xa5;" 
d="M178 462v134h873v-134h-873zM178 207v137h873v-137h-873zM473 0v491l-419 819h302l259 -572l260 572h299l-420 -819v-491h-281z" />
    <glyph glyph-name="brokenbar" unicode="&#xa6;" 
d="M507 301h214v-659h-214v659zM507 1346h214v-660h-214v660z" />
    <glyph glyph-name="section" unicode="&#xa7;" 
d="M609 -17q-76 0 -147.5 15t-128 50.5t-89.5 95.5t-33 149h212q0 -87 53.5 -121t137.5 -34q77 0 128 27t51 88q0 58 -49.5 86.5t-173.5 57.5q-70 18 -131.5 38.5t-109 51t-74 75.5t-26.5 111q0 104 74 169t211 65l98 -87q-79 -1 -122.5 -28.5t-43.5 -76.5q0 -63 66 -91.5
t186 -57.5q95 -22 167 -52.5t112.5 -85t40.5 -150.5q0 -83 -33 -139.5t-90 -91t-131 -49.5t-155 -15zM729 462l-92 83q72 4 118 32.5t46 89.5q0 57 -51.5 86.5t-179.5 56.5q-96 22 -173 52.5t-122.5 85t-45.5 146.5q0 73 31.5 124.5t85.5 83.5t122.5 46.5t143.5 14.5
q72 0 139.5 -15t122.5 -50t86.5 -93t31.5 -143h-213q0 80 -49.5 112.5t-117.5 32.5q-70 0 -113.5 -23t-43.5 -73q0 -31 25 -52.5t78.5 -39.5t139.5 -40q95 -22 167 -52.5t112.5 -83t40.5 -144.5q0 -84 -41 -136t-107 -76.5t-141 -24.5z" />
    <glyph glyph-name="dieresis" unicode="&#xa8;" 
d="M855 1115q-51 0 -85.5 33t-34.5 85t34.5 85t85.5 33q52 0 87 -33t35 -85t-35 -85t-87 -33zM471 1115q-51 0 -86 33t-35 85t34.5 85t86.5 33q51 0 86 -33t35 -85t-35 -85t-86 -33z" />
    <glyph glyph-name="copyright" unicode="&#xa9;" 
d="M613 -18q-190 0 -319.5 93t-196 250t-66.5 347q0 192 66.5 349t196 250t319.5 93q191 0 320.5 -93t196.5 -250t67 -349q0 -190 -67 -347t-196.5 -250t-320.5 -93zM613 143q144 0 235.5 71.5t136 191.5t44.5 266q0 147 -44 267.5t-136 191.5t-236 71q-143 0 -235 -71.5
t-135.5 -191.5t-43.5 -267q0 -146 44 -266t135.5 -191.5t234.5 -71.5zM623 294q-141 0 -223 102.5t-82 275.5q0 175 82 277t223 102q128 0 205.5 -79.5t80.5 -207.5h-174q-1 61 -30.5 98t-81.5 37q-62 0 -96.5 -58.5t-34.5 -168.5q0 -109 34.5 -167t96.5 -58q55 0 83 41
t30 109h176q-4 -143 -80.5 -223t-208.5 -80z" />
    <glyph glyph-name="ordfeminine" unicode="&#xaa;" 
d="M499 558q-65 0 -123.5 26t-95 78.5t-36.5 132.5q0 110 65 164t182 73.5t272 24.5v40q0 61 -32.5 88t-89.5 27q-59 0 -95 -26t-36 -87h-219q0 141 96 203t254 62q115 0 191 -27t114.5 -85.5t38.5 -152.5v-524h-214l-7 95q-49 -62 -114.5 -87t-150.5 -25zM582 716
q69 0 118.5 37.5t67.5 92.5v86q-163 -2 -227 -31t-64 -94q0 -47 30.5 -69t74.5 -22z" />
    <glyph glyph-name="guillemotleft" unicode="&#xab;" 
d="M1024 91l-390 332v177l390 332v-218l-208 -203l208 -202v-218zM594 91l-390 332v177l390 332v-218l-208 -203l208 -202v-218z" />
    <glyph glyph-name="logicalnot" unicode="&#xac;" 
d="M145 997h938v-211h-938v211zM871 339v658h212v-658h-212z" />
    <glyph glyph-name="uni00AD" unicode="&#xad;" 
d="M237 393v226h754v-226h-754z" />
    <glyph glyph-name="registered" unicode="&#xae;" 
d="M613 602q-102 0 -186.5 51t-135 136.5t-50.5 187.5q0 104 50.5 189t135 135.5t186.5 50.5q104 0 189 -50.5t135.5 -135.5t50.5 -189q0 -102 -50.5 -187.5t-135.5 -136.5t-189 -51zM613 692q79 0 143.5 39t103 103.5t38.5 142.5q0 79 -38.5 143.5t-103 103t-143.5 38.5
q-76 0 -140.5 -38.5t-103 -103t-38.5 -143.5q0 -78 38.5 -142.5t103 -103.5t140.5 -39zM471 804v357h160q64 0 99.5 -26t35.5 -75q0 -37 -22.5 -61.5t-59.5 -34.5v15q32 -6 50 -25t29 -56l29 -94h-97l-21 77q-10 34 -22 44.5t-35 10.5h-53v-132h-93zM564 1009h55q50 0 50 40
q0 35 -45 35h-60v-75z" />
    <glyph glyph-name="macron" unicode="&#xaf;" 
d="M382 1155v151h563v-151h-563z" />
    <glyph glyph-name="degree" unicode="&#xb0;" 
d="M615 666q-92 0 -167 44.5t-119.5 119.5t-44.5 167q0 91 44.5 166t119.5 119.5t167 44.5q91 0 166 -44.5t119.5 -119.5t44.5 -166q0 -92 -44.5 -167t-119.5 -119.5t-166 -44.5zM615 849q62 0 105 43.5t43 104.5t-43 104.5t-105 43.5q-61 0 -104.5 -43.5t-43.5 -104.5
t43.5 -104.5t104.5 -43.5z" />
    <glyph glyph-name="plusminus" unicode="&#xb1;" 
d="M145 888h938v-192h-938v192zM507 439v705h213v-705h-213zM145 383h938v-192h-938v192z" />
    <glyph glyph-name="uni00B2" unicode="&#xb2;" 
d="M350 979v112l273 223q41 35 62 69t21 70t-21.5 59t-69.5 23q-56 0 -80.5 -34t-24.5 -87h-155q0 122 68 187.5t192 65.5q117 0 185 -54t68 -152q0 -88 -46.5 -143t-109.5 -104l-119 -96h285v-139h-528z" />
    <glyph glyph-name="uni00B3" unicode="&#xb3;" 
d="M618 974q-123 0 -197.5 53.5t-74.5 166.5h153q0 -43 30.5 -66t85.5 -23q51 0 77 23t26 65q0 45 -31.5 65.5t-83.5 20.5h-49v120h54q48 0 74 20t26 55q0 33 -23 49.5t-68 16.5q-47 0 -72.5 -19.5t-25.5 -54.5h-152q0 75 35.5 120t93 65.5t121.5 20.5q62 0 118 -18.5
t91.5 -58.5t35.5 -104q0 -58 -30 -96.5t-81 -52.5q55 -13 93 -54t38 -108q0 -100 -74 -153t-190 -53z" />
    <glyph glyph-name="acute" unicode="&#xb4;" 
d="M321 1106l197 277h287l-287 -277h-197z" />
    <glyph glyph-name="mu" unicode="&#xb5;" 
d="M143 -360v1336h267v-602q0 -51 15.5 -89t51.5 -59.5t96 -21.5q81 0 141.5 35.5t104.5 85.5v651h266v-976h-257l-4 142q-48 -67 -117.5 -110t-153.5 -43q-82 0 -152.5 39.5t-113 114t-42.5 178.5h152v-681h-254z" />
    <glyph glyph-name="paragraph" unicode="&#xb6;" 
d="M529 -196v825h-74q-163 0 -260.5 97.5t-97.5 260.5t97.5 261t260.5 98h677v-1542h-222v1326h-158v-1326h-223z" />
    <glyph glyph-name="periodcentered" unicode="&#xb7;" 
d="M618 360q-88 0 -142 54t-54 131q0 83 54 134.5t142 51.5q85 0 137 -51.5t52 -134.5q0 -77 -52 -131t-137 -54z" />
    <glyph glyph-name="cedilla" unicode="&#xb8;" 
d="M632 -380q-72 0 -120.5 11.5t-91.5 28.5l35 118q35 -16 77.5 -25t86.5 -9q33 0 53.5 14t20.5 40q0 27 -28 45t-104 30l-44 8l137 171l100 -36l-62 -81l-49 20q96 -3 155.5 -43t59.5 -121q0 -56 -30.5 -94t-82 -57.5t-113.5 -19.5z" />
    <glyph glyph-name="uni00B9" unicode="&#xb9;" 
d="M631 979v490q-28 -28 -74.5 -54t-129.5 -37v153q80 19 130.5 50t87.5 77h156v-679h-170z" />
    <glyph glyph-name="ordmasculine" unicode="&#xba;" 
d="M612 558q-119 0 -210 47.5t-141.5 137.5t-50.5 219q0 128 50.5 218t141.5 137t210 47q121 0 212.5 -47.5t143 -137t51.5 -217.5q0 -129 -51.5 -219t-143 -137.5t-212.5 -47.5zM612 738q99 0 136 66t37 158q0 60 -16 111t-53.5 82t-103.5 31q-95 0 -132.5 -66.5
t-37.5 -157.5q0 -93 37.5 -158.5t132.5 -65.5z" />
    <glyph glyph-name="guillemotright" unicode="&#xbb;" 
d="M634 91v218l208 202l-208 203v218l390 -332v-177zM204 91v218l208 202l-208 203v218l390 -332v-177z" />
    <glyph glyph-name="onequarter" unicode="&#xbc;" 
d="M300 639v490q-28 -28 -74.5 -54t-129.5 -37v153q80 19 130.5 50t87.5 77h156v-679h-170zM153 0l438 705l288 618h191l-427 -656l-300 -667h-190zM927 0v125h-306v138l307 415h162v-418h99v-135h-99v-125h-163zM771 260h160v221z" />
    <glyph glyph-name="onehalf" unicode="&#xbd;" 
d="M282 639v490q-28 -28 -74.5 -54t-129.5 -37v153q80 19 130.5 50t87.5 77h156v-679h-170zM144 0l438 705l288 618h191l-427 -656l-300 -667h-190zM678 0v112l273 223q41 35 62 69t21 70t-21.5 59t-69.5 23q-56 0 -80.5 -34t-24.5 -87h-155q0 122 68 187.5t192 65.5
q117 0 185 -54t68 -152q0 -88 -46.5 -143t-109.5 -104l-119 -96h285v-139h-528z" />
    <glyph glyph-name="threequarters" unicode="&#xbe;" 
d="M279 628q-123 0 -197.5 53.5t-74.5 166.5h153q0 -43 30.5 -66t85.5 -23q51 0 77 23t26 65q0 45 -31.5 65.5t-83.5 20.5h-49v120h54q48 0 74 20t26 55q0 33 -23 49.5t-68 16.5q-47 0 -72.5 -19.5t-25.5 -54.5h-152q0 75 35.5 120t93 65.5t121.5 20.5q62 0 118 -18.5
t91.5 -58.5t35.5 -104q0 -58 -30 -96.5t-81 -52.5q55 -13 93 -54t38 -108q0 -100 -74 -153t-190 -53zM955 0v125h-306v138l307 415h162v-418h99v-135h-99v-125h-163zM799 260h160v221zM195 0l438 705l288 618h191l-427 -656l-300 -667h-190z" />
    <glyph glyph-name="questiondown" unicode="&#xbf;" 
d="M745 569q7 -20 9 -48t2 -51q0 -100 -39 -164t-121 -122q-86 -59 -122 -102.5t-36 -104.5q0 -63 42.5 -103t129.5 -40q96 0 145.5 48t49.5 133h273q0 -127 -57 -215.5t-162 -134.5t-249 -46q-138 0 -241.5 42t-161 122t-57.5 194q0 80 25 139t73 106t116 91
q56 36 85.5 66.5t41.5 64t16 76.5h282zM629 993q81 0 131.5 -50t50.5 -122q0 -79 -50.5 -126.5t-131.5 -47.5q-80 0 -130.5 47.5t-50.5 126.5q0 72 50.5 122t130.5 50z" />
    <glyph glyph-name="Agrave" unicode="&#xc0;" 
d="M29 0l437 1346h298l436 -1346h-277l-343 1181h68l-344 -1181h-275zM268 296v218h689v-218h-689zM545 1454l-278 277h286l188 -277h-196z" />
    <glyph glyph-name="Aacute" unicode="&#xc1;" 
d="M29 0l437 1346h298l436 -1346h-277l-343 1181h68l-344 -1181h-275zM268 296v218h689v-218h-689zM484 1454l188 277h286l-276 -277h-198z" />
    <glyph glyph-name="Acircumflex" unicode="&#xc2;" 
d="M29 0l437 1346h298l436 -1346h-277l-343 1181h68l-344 -1181h-275zM268 296v218h689v-218h-689zM280 1454l212 278h244l211 -278h-203l-129 160l-130 -160h-205z" />
    <glyph glyph-name="Atilde" unicode="&#xc3;" 
d="M29 0l437 1346h298l436 -1346h-277l-343 1181h68l-344 -1181h-275zM268 296v218h689v-218h-689zM286 1463q11 114 61.5 175t140.5 61q43 0 81 -14.5t70 -28.5q31 -13 56 -23t45 -10q25 0 39 17.5t17 59.5h140q-12 -113 -56.5 -169.5t-136.5 -56.5q-42 0 -78.5 12
t-70.5 28q-33 14 -58.5 23t-45.5 9q-28 0 -44 -19t-21 -64h-139z" />
    <glyph glyph-name="Adieresis" unicode="&#xc4;" 
d="M29 0l437 1346h298l436 -1346h-277l-343 1181h68l-344 -1181h-275zM268 296v218h689v-218h-689zM805 1461q-51 0 -85.5 33t-34.5 85q0 51 34.5 84.5t85.5 33.5q52 0 87 -33.5t35 -84.5q0 -52 -35 -85t-87 -33zM421 1461q-51 0 -86 33t-35 85q0 51 34.5 84.5t86.5 33.5
q51 0 86 -33.5t35 -84.5q0 -52 -35 -85t-86 -33z" />
    <glyph glyph-name="Aring" unicode="&#xc5;" 
d="M29 0l437 1346h298l436 -1346h-277l-343 1181h68l-344 -1181h-275zM268 296v218h689v-218h-689zM612 1381q-93 0 -153 55t-60 148q0 92 60 146.5t153 54.5t153.5 -54.5t60.5 -146.5q0 -93 -60.5 -148t-153.5 -55zM612 1494q38 0 63 25.5t25 64.5q0 38 -25 63t-63 25
t-62.5 -25t-24.5 -63q0 -39 24.5 -64.5t62.5 -25.5z" />
    <glyph glyph-name="AE" unicode="&#xc6;" 
d="M14 0l422 1346h276l9 -249h-135l-300 -1097h-272zM320 294v235h468v-235h-468zM639 0v1346h576v-234h-304v-313h244v-227h-244v-338h304v-234h-576z" />
    <glyph glyph-name="Ccedilla" unicode="&#xc7;" 
d="M632 -18q-178 0 -302 85t-187.5 240t-63.5 365t63.5 365.5t187.5 241t302 85.5q136 0 250.5 -54.5t186 -161t78.5 -262.5h-290q-7 81 -38.5 134.5t-80 80.5t-106.5 27q-101 0 -158.5 -61t-80.5 -164t-23 -231q0 -127 23 -230t80.5 -163.5t158.5 -60.5t159.5 70.5
t67.5 202.5h290q-11 -164 -75.5 -278t-176.5 -172.5t-265 -58.5zM620 -380q-72 0 -120.5 11.5t-91.5 28.5l35 118q35 -16 77.5 -25t86.5 -9q33 0 53.5 14t20.5 40q0 27 -28 45t-104 30l-44 8l137 171l100 -36l-62 -81l-49 20q96 -3 155.5 -43t59.5 -121q0 -56 -30.5 -94
t-82 -57.5t-113.5 -19.5z" />
    <glyph glyph-name="Egrave" unicode="&#xc8;" 
d="M142 0v1346h944v-234h-661v-313h602v-227h-602v-338h661v-234h-944zM550 1453l-278 277h286l188 -277h-196z" />
    <glyph glyph-name="Eacute" unicode="&#xc9;" 
d="M142 0v1346h944v-234h-661v-313h602v-227h-602v-338h661v-234h-944zM489 1453l188 277h286l-276 -277h-198z" />
    <glyph glyph-name="Ecircumflex" unicode="&#xca;" 
d="M142 0v1346h944v-234h-661v-313h602v-227h-602v-338h661v-234h-944zM285 1453l212 278h244l211 -278h-203l-129 160l-130 -160h-205z" />
    <glyph glyph-name="Edieresis" unicode="&#xcb;" 
d="M142 0v1346h944v-234h-661v-313h602v-227h-602v-338h661v-234h-944zM810 1460q-51 0 -85.5 33t-34.5 85q0 51 34.5 84.5t85.5 33.5q52 0 87 -33.5t35 -84.5q0 -52 -35 -85t-87 -33zM426 1460q-51 0 -86 33t-35 85q0 51 34.5 84.5t86.5 33.5q51 0 86 -33.5t35 -84.5
q0 -52 -35 -85t-86 -33z" />
    <glyph glyph-name="Igrave" unicode="&#xcc;" 
d="M474 0v1346h283v-1346h-283zM179 235h871v-235h-871v235zM179 1346h871v-235h-871v235zM547 1453l-278 277h286l188 -277h-196z" />
    <glyph glyph-name="Iacute" unicode="&#xcd;" 
d="M474 0v1346h283v-1346h-283zM179 235h871v-235h-871v235zM179 1346h871v-235h-871v235zM486 1453l188 277h286l-276 -277h-198z" />
    <glyph glyph-name="Icircumflex" unicode="&#xce;" 
d="M474 0v1346h283v-1346h-283zM179 235h871v-235h-871v235zM179 1346h871v-235h-871v235zM282 1453l212 278h244l211 -278h-203l-129 160l-130 -160h-205z" />
    <glyph glyph-name="Idieresis" unicode="&#xcf;" 
d="M474 0v1346h283v-1346h-283zM179 235h871v-235h-871v235zM179 1346h871v-235h-871v235zM807 1460q-51 0 -85.5 33t-34.5 85q0 51 34.5 84.5t85.5 33.5q52 0 87 -33.5t35 -84.5q0 -52 -35 -85t-87 -33zM423 1460q-51 0 -86 33t-35 85q0 51 34.5 84.5t86.5 33.5
q51 0 86 -33.5t35 -84.5q0 -52 -35 -85t-86 -33z" />
    <glyph glyph-name="Eth" unicode="&#xd0;" 
d="M13 564v226h639v-226h-639zM110 0v1346h370q201 0 344 -77.5t218.5 -227.5t75.5 -368q0 -333 -169.5 -503t-468.5 -170h-370zM393 236h62q125 0 207.5 45.5t123 142t40.5 249.5q0 151 -43 247.5t-125.5 143t-202.5 46.5h-62v-874z" />
    <glyph glyph-name="Ntilde" unicode="&#xd1;" 
d="M143 0v1346h279l475 -1023l-66 -7v1030h255v-1346h-277l-479 1028l67 8v-1036h-254zM288 1462q11 114 61.5 175t140.5 61q43 0 81 -14.5t70 -28.5q31 -13 56 -23t45 -10q25 0 39 17.5t17 59.5h140q-12 -113 -56.5 -169.5t-136.5 -56.5q-42 0 -78.5 12t-70.5 28
q-33 14 -58.5 23t-45.5 9q-28 0 -44 -19t-21 -64h-139z" />
    <glyph glyph-name="Ograve" unicode="&#xd2;" 
d="M615 -18q-181 0 -300.5 85t-178 240t-58.5 365t58.5 365.5t178 241t300.5 85.5q179 0 298 -85.5t178.5 -241t59.5 -365.5t-59.5 -365t-178.5 -240t-298 -85zM615 217q95 0 148.5 62t75.5 165.5t22 227.5q0 125 -22 228.5t-75.5 165.5t-148.5 62q-97 0 -150.5 -61
t-74.5 -164.5t-21 -230.5t21 -230.5t74.5 -164t150.5 -60.5zM547 1453l-278 277h286l188 -277h-196z" />
    <glyph glyph-name="Oacute" unicode="&#xd3;" 
d="M615 -18q-181 0 -300.5 85t-178 240t-58.5 365t58.5 365.5t178 241t300.5 85.5q179 0 298 -85.5t178.5 -241t59.5 -365.5t-59.5 -365t-178.5 -240t-298 -85zM615 217q95 0 148.5 62t75.5 165.5t22 227.5q0 125 -22 228.5t-75.5 165.5t-148.5 62q-97 0 -150.5 -61
t-74.5 -164.5t-21 -230.5t21 -230.5t74.5 -164t150.5 -60.5zM486 1453l188 277h286l-276 -277h-198z" />
    <glyph glyph-name="Ocircumflex" unicode="&#xd4;" 
d="M615 -18q-181 0 -300.5 85t-178 240t-58.5 365t58.5 365.5t178 241t300.5 85.5q179 0 298 -85.5t178.5 -241t59.5 -365.5t-59.5 -365t-178.5 -240t-298 -85zM615 217q95 0 148.5 62t75.5 165.5t22 227.5q0 125 -22 228.5t-75.5 165.5t-148.5 62q-97 0 -150.5 -61
t-74.5 -164.5t-21 -230.5t21 -230.5t74.5 -164t150.5 -60.5zM282 1453l212 278h244l211 -278h-203l-129 160l-130 -160h-205z" />
    <glyph glyph-name="Otilde" unicode="&#xd5;" 
d="M615 -18q-181 0 -300.5 85t-178 240t-58.5 365t58.5 365.5t178 241t300.5 85.5q179 0 298 -85.5t178.5 -241t59.5 -365.5t-59.5 -365t-178.5 -240t-298 -85zM615 217q95 0 148.5 62t75.5 165.5t22 227.5q0 125 -22 228.5t-75.5 165.5t-148.5 62q-97 0 -150.5 -61
t-74.5 -164.5t-21 -230.5t21 -230.5t74.5 -164t150.5 -60.5zM288 1462q11 114 61.5 175t140.5 61q43 0 81 -14.5t70 -28.5q31 -13 56 -23t45 -10q25 0 39 17.5t17 59.5h140q-12 -113 -56.5 -169.5t-136.5 -56.5q-42 0 -78.5 12t-70.5 28q-33 14 -58.5 23t-45.5 9
q-28 0 -44 -19t-21 -64h-139z" />
    <glyph glyph-name="Odieresis" unicode="&#xd6;" 
d="M615 -18q-181 0 -300.5 85t-178 240t-58.5 365t58.5 365.5t178 241t300.5 85.5q179 0 298 -85.5t178.5 -241t59.5 -365.5t-59.5 -365t-178.5 -240t-298 -85zM615 217q95 0 148.5 62t75.5 165.5t22 227.5q0 125 -22 228.5t-75.5 165.5t-148.5 62q-97 0 -150.5 -61
t-74.5 -164.5t-21 -230.5t21 -230.5t74.5 -164t150.5 -60.5zM807 1460q-51 0 -85.5 33t-34.5 85q0 51 34.5 84.5t85.5 33.5q52 0 87 -33.5t35 -84.5q0 -52 -35 -85t-87 -33zM423 1460q-51 0 -86 33t-35 85q0 51 34.5 84.5t86.5 33.5q51 0 86 -33.5t35 -84.5q0 -52 -35 -85
t-86 -33z" />
    <glyph glyph-name="multiply" unicode="&#xd7;" 
d="M206 411l663 663l152 -147l-664 -665zM357 1075l664 -663l-149 -150l-664 663z" />
    <glyph glyph-name="Oslash" unicode="&#xd8;" 
d="M282 -66l-148 86l815 1393l149 -83zM615 -18q-181 0 -300.5 85t-178 240t-58.5 365t58.5 365.5t178 241t300.5 85.5q179 0 298 -85.5t178.5 -241t59.5 -365.5t-59.5 -365t-178.5 -240t-298 -85zM615 217q95 0 148.5 62t75.5 165.5t22 227.5q0 125 -22 228.5t-75.5 165.5
t-148.5 62q-97 0 -150.5 -61t-74.5 -164.5t-21 -230.5t21 -230.5t74.5 -164t150.5 -60.5z" />
    <glyph glyph-name="Ugrave" unicode="&#xd9;" 
d="M607 -19q-171 0 -280 57.5t-160 169t-51 272.5v866h289v-848q0 -148 52.5 -213.5t152.5 -65.5q106 0 159.5 65.5t53.5 213.5v848h290v-866q0 -161 -52.5 -272.5t-164 -169t-289.5 -57.5zM549 1453l-278 277h286l188 -277h-196z" />
    <glyph glyph-name="Uacute" unicode="&#xda;" 
d="M607 -19q-171 0 -280 57.5t-160 169t-51 272.5v866h289v-848q0 -148 52.5 -213.5t152.5 -65.5q106 0 159.5 65.5t53.5 213.5v848h290v-866q0 -161 -52.5 -272.5t-164 -169t-289.5 -57.5zM488 1453l188 277h286l-276 -277h-198z" />
    <glyph glyph-name="Ucircumflex" unicode="&#xdb;" 
d="M607 -19q-171 0 -280 57.5t-160 169t-51 272.5v866h289v-848q0 -148 52.5 -213.5t152.5 -65.5q106 0 159.5 65.5t53.5 213.5v848h290v-866q0 -161 -52.5 -272.5t-164 -169t-289.5 -57.5zM283 1453l212 278h244l211 -278h-203l-129 160l-130 -160h-205z" />
    <glyph glyph-name="Udieresis" unicode="&#xdc;" 
d="M607 -19q-171 0 -280 57.5t-160 169t-51 272.5v866h289v-848q0 -148 52.5 -213.5t152.5 -65.5q106 0 159.5 65.5t53.5 213.5v848h290v-866q0 -161 -52.5 -272.5t-164 -169t-289.5 -57.5zM809 1460q-51 0 -85.5 33t-34.5 85q0 51 34.5 84.5t85.5 33.5q52 0 87 -33.5
t35 -84.5q0 -52 -35 -85t-87 -33zM425 1460q-51 0 -86 33t-35 85q0 51 34.5 84.5t86.5 33.5q51 0 86 -33.5t35 -84.5q0 -52 -35 -85t-86 -33z" />
    <glyph glyph-name="Yacute" unicode="&#xdd;" 
d="M469 0v503l-455 843h315l285 -583l285 583h316l-455 -843v-503h-291zM485 1454l188 277h286l-276 -277h-198z" />
    <glyph glyph-name="Thorn" unicode="&#xde;" 
d="M229 244v228h386q98 0 158 52t60 153q0 104 -61.5 155.5t-156.5 51.5h-386v228h413q132 0 241.5 -46.5t174.5 -142.5t65 -246q0 -147 -65 -243t-174.5 -143t-241.5 -47h-413zM158 0v1346h283v-1346h-283z" />
    <glyph glyph-name="germandbls" unicode="&#xdf;" 
d="M666 -12q-38 0 -71 3t-65 9v191q26 -6 49 -8.5t45 -2.5q107 0 162 54.5t55 152.5q0 116 -73.5 166t-190.5 50h-47v187h51q85 0 144.5 49.5t59.5 152.5q0 84 -45.5 132.5t-133.5 48.5t-144 -59.5t-56 -195.5v-918h-264v914q0 158 58.5 257.5t163 146t242.5 46.5
q205 0 316.5 -91t111.5 -252q0 -139 -93.5 -230.5t-294.5 -115.5l-65 98q266 0 397 -104.5t131 -289.5q0 -130 -59 -217t-159.5 -130.5t-224.5 -43.5z" />
    <glyph glyph-name="agrave" unicode="&#xe0;" 
d="M467 -17q-87 0 -163.5 32t-124.5 96.5t-48 162.5q0 135 85 203t240.5 93t366.5 29v51q0 93 -51.5 128t-131.5 35q-91 0 -148 -37t-57 -120h-250q0 120 57.5 194t160 107.5t237.5 33.5q97 0 178.5 -16t140.5 -54t91.5 -102.5t32.5 -163.5v-655h-249l-9 128
q-67 -66 -153 -105.5t-205 -39.5zM550 167q90 0 158.5 36t110.5 88v163q-234 -3 -328.5 -41t-94.5 -121q0 -58 40 -91.5t114 -33.5zM591 1106l-287 277h287l197 -277h-197z" />
    <glyph glyph-name="aacute" unicode="&#xe1;" 
d="M467 -17q-87 0 -163.5 32t-124.5 96.5t-48 162.5q0 135 85 203t240.5 93t366.5 29v51q0 93 -51.5 128t-131.5 35q-91 0 -148 -37t-57 -120h-250q0 120 57.5 194t160 107.5t237.5 33.5q97 0 178.5 -16t140.5 -54t91.5 -102.5t32.5 -163.5v-655h-249l-9 128
q-67 -66 -153 -105.5t-205 -39.5zM550 167q90 0 158.5 36t110.5 88v163q-234 -3 -328.5 -41t-94.5 -121q0 -58 40 -91.5t114 -33.5zM510 1106l197 277h287l-287 -277h-197z" />
    <glyph glyph-name="acircumflex" unicode="&#xe2;" 
d="M467 -17q-87 0 -163.5 32t-124.5 96.5t-48 162.5q0 135 85 203t240.5 93t366.5 29v51q0 93 -51.5 128t-131.5 35q-91 0 -148 -37t-57 -120h-250q0 120 57.5 194t160 107.5t237.5 33.5q97 0 178.5 -16t140.5 -54t91.5 -102.5t32.5 -163.5v-655h-249l-9 128
q-67 -66 -153 -105.5t-205 -39.5zM550 167q90 0 158.5 36t110.5 88v163q-234 -3 -328.5 -41t-94.5 -121q0 -58 40 -91.5t114 -33.5zM319 1106l211 277h245l211 -277h-199l-135 147l-134 -147h-199z" />
    <glyph glyph-name="atilde" unicode="&#xe3;" 
d="M467 -17q-87 0 -163.5 32t-124.5 96.5t-48 162.5q0 135 85 203t240.5 93t366.5 29v51q0 93 -51.5 128t-131.5 35q-91 0 -148 -37t-57 -120h-250q0 120 57.5 194t160 107.5t237.5 33.5q97 0 178.5 -16t140.5 -54t91.5 -102.5t32.5 -163.5v-655h-249l-9 128
q-67 -66 -153 -105.5t-205 -39.5zM550 167q90 0 158.5 36t110.5 88v163q-234 -3 -328.5 -41t-94.5 -121q0 -58 40 -91.5t114 -33.5zM327 1117q11 114 61.5 175t140.5 61q43 0 81 -14.5t71 -28.5q31 -13 55.5 -23t45.5 -10q24 0 38 17.5t17 59.5h141q-13 -113 -57.5 -169.5
t-135.5 -56.5q-42 0 -79 12t-71 28q-33 14 -58.5 23t-45.5 9q-28 0 -44 -19t-21 -64h-139z" />
    <glyph glyph-name="adieresis" unicode="&#xe4;" 
d="M467 -17q-87 0 -163.5 32t-124.5 96.5t-48 162.5q0 135 85 203t240.5 93t366.5 29v51q0 93 -51.5 128t-131.5 35q-91 0 -148 -37t-57 -120h-250q0 120 57.5 194t160 107.5t237.5 33.5q97 0 178.5 -16t140.5 -54t91.5 -102.5t32.5 -163.5v-655h-249l-9 128
q-67 -66 -153 -105.5t-205 -39.5zM550 167q90 0 158.5 36t110.5 88v163q-234 -3 -328.5 -41t-94.5 -121q0 -58 40 -91.5t114 -33.5zM843 1115q-51 0 -85.5 33t-34.5 85t34.5 85t85.5 33q52 0 87 -33t35 -85t-35 -85t-87 -33zM459 1115q-51 0 -86 33t-35 85t34.5 85t86.5 33
q51 0 86 -33t35 -85t-35 -85t-86 -33z" />
    <glyph glyph-name="aring" unicode="&#xe5;" 
d="M467 -17q-87 0 -163.5 32t-124.5 96.5t-48 162.5q0 135 85 203t240.5 93t366.5 29v51q0 93 -51.5 128t-131.5 35q-91 0 -148 -37t-57 -120h-250q0 120 57.5 194t160 107.5t237.5 33.5q97 0 178.5 -16t140.5 -54t91.5 -102.5t32.5 -163.5v-655h-249l-9 128
q-67 -66 -153 -105.5t-205 -39.5zM550 167q90 0 158.5 36t110.5 88v163q-234 -3 -328.5 -41t-94.5 -121q0 -58 40 -91.5t114 -33.5zM651 1079q-92 0 -152.5 55t-60.5 148q0 92 60.5 146.5t152.5 54.5q94 0 154.5 -54.5t60.5 -146.5q0 -93 -60.5 -148t-154.5 -55zM651 1192
q39 0 63.5 25.5t24.5 64.5q0 38 -24.5 63t-63.5 25q-37 0 -62 -25t-25 -63q0 -39 25 -64.5t62 -25.5z" />
    <glyph glyph-name="ae" unicode="&#xe6;" 
d="M867 -18q-114 0 -196.5 60.5t-127 174.5t-44.5 274q0 155 43 266.5t123.5 172.5t192.5 61q172 0 258 -119.5t86 -347.5q0 -22 -1 -45t-3 -29h-492q2 -85 19 -152.5t54 -107t98 -39.5q57 0 91.5 42.5t34.5 129.5h198q-6 -171 -95 -256t-239 -85zM285 -17
q-121 0 -190.5 78.5t-69.5 209.5q0 130 61 197.5t168.5 93t248.5 27.5v65q0 101 -34 139t-87 38q-52 0 -87.5 -40.5t-35.5 -133.5h-197q4 173 88.5 253t235.5 80q87 0 149 -22.5t100 -68.5t49 -118l-118 -323q-177 -4 -252.5 -44t-75.5 -127q0 -68 27 -103t75 -35
q72 0 131.5 49t100.5 138l88 -58q-26 -89 -80 -155.5t-129 -103t-166 -36.5zM711 590h280q-2 127 -39 183t-94 56q-63 0 -102 -59t-45 -180z" />
    <glyph glyph-name="ccedilla" unicode="&#xe7;" 
d="M632 -18q-236 0 -376 128.5t-140 371.5q0 163 64 277.5t180 173.5t272 59q139 0 244.5 -40.5t166 -122t62.5 -204.5h-260q-4 74 -57.5 118t-153.5 44q-133 0 -192 -79.5t-59 -225.5q0 -142 59 -219t192 -77q101 0 159.5 48t61.5 138h258q-3 -127 -63 -214t-166.5 -131.5
t-251.5 -44.5zM604 -380q-72 0 -120.5 11.5t-91.5 28.5l35 118q35 -16 77.5 -25t86.5 -9q33 0 53.5 14t20.5 40q0 27 -28 45t-104 30l-44 8l137 171l100 -36l-62 -81l-49 20q96 -3 155.5 -43t59.5 -121q0 -56 -30.5 -94t-82 -57.5t-113.5 -19.5z" />
    <glyph glyph-name="egrave" unicode="&#xe8;" 
d="M633 -18q-164 0 -281 60.5t-179.5 174.5t-62.5 274q0 155 61 266.5t175 172.5t274 61q229 0 363 -126t134 -366q0 -13 -1 -30.5t-3 -27.5h-738q2 -73 28 -135.5t83 -100t151 -37.5q103 0 164 38.5t64 116.5h251q-6 -114 -66.5 -190t-167 -113.5t-249.5 -37.5zM380 599
h474q-5 107 -68.5 160t-165.5 53q-104 0 -166 -54.5t-74 -158.5zM561 1106l-287 277h287l197 -277h-197z" />
    <glyph glyph-name="eacute" unicode="&#xe9;" 
d="M633 -18q-164 0 -281 60.5t-179.5 174.5t-62.5 274q0 155 61 266.5t175 172.5t274 61q229 0 363 -126t134 -366q0 -13 -1 -30.5t-3 -27.5h-738q2 -73 28 -135.5t83 -100t151 -37.5q103 0 164 38.5t64 116.5h251q-6 -114 -66.5 -190t-167 -113.5t-249.5 -37.5zM380 599
h474q-5 107 -68.5 160t-165.5 53q-104 0 -166 -54.5t-74 -158.5zM479 1106l197 277h287l-287 -277h-197z" />
    <glyph glyph-name="ecircumflex" unicode="&#xea;" 
d="M633 -18q-164 0 -281 60.5t-179.5 174.5t-62.5 274q0 155 61 266.5t175 172.5t274 61q229 0 363 -126t134 -366q0 -13 -1 -30.5t-3 -27.5h-738q2 -73 28 -135.5t83 -100t151 -37.5q103 0 164 38.5t64 116.5h251q-6 -114 -66.5 -190t-167 -113.5t-249.5 -37.5zM380 599
h474q-5 107 -68.5 160t-165.5 53q-104 0 -166 -54.5t-74 -158.5zM288 1106l211 277h245l211 -277h-199l-135 147l-134 -147h-199z" />
    <glyph glyph-name="edieresis" unicode="&#xeb;" 
d="M633 -18q-164 0 -281 60.5t-179.5 174.5t-62.5 274q0 155 61 266.5t175 172.5t274 61q229 0 363 -126t134 -366q0 -13 -1 -30.5t-3 -27.5h-738q2 -73 28 -135.5t83 -100t151 -37.5q103 0 164 38.5t64 116.5h251q-6 -114 -66.5 -190t-167 -113.5t-249.5 -37.5zM380 599
h474q-5 107 -68.5 160t-165.5 53q-104 0 -166 -54.5t-74 -158.5zM813 1115q-51 0 -85.5 33t-34.5 85t34.5 85t85.5 33q52 0 87 -33t35 -85t-35 -85t-87 -33zM429 1115q-51 0 -86 33t-35 85t34.5 85t86.5 33q51 0 86 -33t35 -85t-35 -85t-86 -33z" />
    <glyph glyph-name="igrave" unicode="&#xec;" 
d="M917 0q-163 0 -262.5 49t-145.5 140t-46 217v363h-310v207h576v-554q0 -103 40 -158.5t156 -55.5h150v-208h-158zM519 1106l-287 277h287l197 -277h-197z" />
    <glyph glyph-name="iacute" unicode="&#xed;" 
d="M917 0q-163 0 -262.5 49t-145.5 140t-46 217v363h-310v207h576v-554q0 -103 40 -158.5t156 -55.5h150v-208h-158zM437 1106l197 277h287l-287 -277h-197z" />
    <glyph glyph-name="icircumflex" unicode="&#xee;" 
d="M917 0q-163 0 -262.5 49t-145.5 140t-46 217v363h-310v207h576v-554q0 -103 40 -158.5t156 -55.5h150v-208h-158zM247 1106l211 277h245l211 -277h-199l-135 147l-134 -147h-199z" />
    <glyph glyph-name="idieresis" unicode="&#xef;" 
d="M917 0q-163 0 -262.5 49t-145.5 140t-46 217v363h-310v207h576v-554q0 -103 40 -158.5t156 -55.5h150v-208h-158zM771 1115q-51 0 -85.5 33t-34.5 85t34.5 85t85.5 33q52 0 87 -33t35 -85t-35 -85t-87 -33zM387 1115q-51 0 -86 33t-35 85t34.5 85t86.5 33q51 0 86 -33
t35 -85t-35 -85t-86 -33z" />
    <glyph glyph-name="eth" unicode="&#xf0;" 
d="M610 -17q-150 0 -262.5 57t-175 165.5t-62.5 263.5t61.5 263.5t169 166t247.5 57.5q128 0 189 -53.5t86 -153.5l-31 1q-11 49 -38.5 96t-69.5 95t-98 100t-125 109l-233 196h317l144 -120q134 -112 220 -227.5t127.5 -237.5t41.5 -251q0 -173 -63 -290.5t-177 -177
t-268 -59.5zM612 187q90 0 142 39.5t73.5 103.5t21.5 139q0 73 -21.5 137.5t-73.5 104t-142 39.5q-88 0 -140 -39.5t-73.5 -104t-21.5 -137.5q0 -75 21.5 -139t73.5 -103.5t140 -39.5zM264 984v163l345 107v-6l347 106v-163l-347 -105v5z" />
    <glyph glyph-name="ntilde" unicode="&#xf1;" 
d="M155 0v976h257l5 -145q49 62 130 110.5t211 48.5q159 0 241.5 -89.5t82.5 -265.5v-635h-267v601q0 54 -13.5 93t-46 61t-89.5 22q-81 0 -141.5 -37t-102.5 -90v-650h-267zM300 1117q11 114 61.5 175t140.5 61q43 0 81 -14.5t71 -28.5q31 -13 55.5 -23t45.5 -10
q24 0 38 17.5t17 59.5h141q-13 -113 -57.5 -169.5t-135.5 -56.5q-42 0 -79 12t-71 28q-33 14 -58.5 23t-45.5 9q-28 0 -44 -19t-21 -64h-139z" />
    <glyph glyph-name="ograve" unicode="&#xf2;" 
d="M612 -18q-147 0 -260.5 59t-177.5 171.5t-64 272.5q0 163 64 277t177.5 174t260.5 60q148 0 262.5 -60t179.5 -174t65 -277q0 -160 -65 -272.5t-179.5 -171.5t-262.5 -59zM612 186q86 0 138 40.5t76 108.5t24 150q0 84 -24 154t-76 111.5t-138 41.5q-84 0 -136 -41.5
t-75.5 -111.5t-23.5 -154q0 -82 23.5 -150t75.5 -108.5t136 -40.5zM554 1106l-287 277h287l197 -277h-197z" />
    <glyph glyph-name="oacute" unicode="&#xf3;" 
d="M612 -18q-147 0 -260.5 59t-177.5 171.5t-64 272.5q0 163 64 277t177.5 174t260.5 60q148 0 262.5 -60t179.5 -174t65 -277q0 -160 -65 -272.5t-179.5 -171.5t-262.5 -59zM612 186q86 0 138 40.5t76 108.5t24 150q0 84 -24 154t-76 111.5t-138 41.5q-84 0 -136 -41.5
t-75.5 -111.5t-23.5 -154q0 -82 23.5 -150t75.5 -108.5t136 -40.5zM472 1106l197 277h287l-287 -277h-197z" />
    <glyph glyph-name="ocircumflex" unicode="&#xf4;" 
d="M612 -18q-147 0 -260.5 59t-177.5 171.5t-64 272.5q0 163 64 277t177.5 174t260.5 60q148 0 262.5 -60t179.5 -174t65 -277q0 -160 -65 -272.5t-179.5 -171.5t-262.5 -59zM612 186q86 0 138 40.5t76 108.5t24 150q0 84 -24 154t-76 111.5t-138 41.5q-84 0 -136 -41.5
t-75.5 -111.5t-23.5 -154q0 -82 23.5 -150t75.5 -108.5t136 -40.5zM281 1106l211 277h245l211 -277h-199l-135 147l-134 -147h-199z" />
    <glyph glyph-name="otilde" unicode="&#xf5;" 
d="M612 -18q-147 0 -260.5 59t-177.5 171.5t-64 272.5q0 163 64 277t177.5 174t260.5 60q148 0 262.5 -60t179.5 -174t65 -277q0 -160 -65 -272.5t-179.5 -171.5t-262.5 -59zM612 186q86 0 138 40.5t76 108.5t24 150q0 84 -24 154t-76 111.5t-138 41.5q-84 0 -136 -41.5
t-75.5 -111.5t-23.5 -154q0 -82 23.5 -150t75.5 -108.5t136 -40.5zM289 1117q11 114 61.5 175t140.5 61q43 0 81 -14.5t71 -28.5q31 -13 55.5 -23t45.5 -10q24 0 38 17.5t17 59.5h141q-13 -113 -57.5 -169.5t-135.5 -56.5q-42 0 -79 12t-71 28q-33 14 -58.5 23t-45.5 9
q-28 0 -44 -19t-21 -64h-139z" />
    <glyph glyph-name="odieresis" unicode="&#xf6;" 
d="M612 -18q-147 0 -260.5 59t-177.5 171.5t-64 272.5q0 163 64 277t177.5 174t260.5 60q148 0 262.5 -60t179.5 -174t65 -277q0 -160 -65 -272.5t-179.5 -171.5t-262.5 -59zM612 186q86 0 138 40.5t76 108.5t24 150q0 84 -24 154t-76 111.5t-138 41.5q-84 0 -136 -41.5
t-75.5 -111.5t-23.5 -154q0 -82 23.5 -150t75.5 -108.5t136 -40.5zM806 1115q-51 0 -85.5 33t-34.5 85t34.5 85t85.5 33q52 0 87 -33t35 -85t-35 -85t-87 -33zM422 1115q-51 0 -86 33t-35 85t34.5 85t86.5 33q51 0 86 -33t35 -85t-35 -85t-86 -33z" />
    <glyph glyph-name="divide" unicode="&#xf7;" 
d="M145 774h938v-212h-938v212zM616 143q-72 0 -116.5 45t-44.5 108q0 68 44.5 109.5t116.5 41.5q69 0 113.5 -41.5t44.5 -109.5q0 -63 -44.5 -108t-113.5 -45zM616 888q-72 0 -116.5 44.5t-44.5 107.5q0 68 44.5 110.5t116.5 42.5q69 0 113.5 -42.5t44.5 -110.5
q0 -63 -44.5 -107.5t-113.5 -44.5z" />
    <glyph glyph-name="oslash" unicode="&#xf8;" 
d="M219 -94l-107 94l897 1062l105 -93zM612 -17q-148 0 -259.5 58.5t-172.5 171t-61 271.5q0 160 61 273t172.5 172t259.5 59q150 0 261.5 -59t174 -172t62.5 -273q0 -159 -62.5 -271.5t-174 -171t-261.5 -58.5zM612 176q91 0 143 42t74.5 112t22.5 154q0 85 -22.5 155.5
t-74.5 113t-143 42.5q-89 0 -141 -42.5t-73.5 -113t-21.5 -155.5q0 -84 21.5 -154t73.5 -112t141 -42z" />
    <glyph glyph-name="ugrave" unicode="&#xf9;" 
d="M471 -14q-159 0 -241.5 90t-82.5 265v635h267v-601q0 -53 13.5 -92.5t46 -61.5t89.5 -22q81 0 141.5 37.5t102.5 89.5v650h267v-976h-257l-5 146q-49 -63 -130 -111.5t-211 -48.5zM556 1106l-287 277h287l197 -277h-197z" />
    <glyph glyph-name="uacute" unicode="&#xfa;" 
d="M471 -14q-159 0 -241.5 90t-82.5 265v635h267v-601q0 -53 13.5 -92.5t46 -61.5t89.5 -22q81 0 141.5 37.5t102.5 89.5v650h267v-976h-257l-5 146q-49 -63 -130 -111.5t-211 -48.5zM474 1106l197 277h287l-287 -277h-197z" />
    <glyph glyph-name="ucircumflex" unicode="&#xfb;" 
d="M471 -14q-159 0 -241.5 90t-82.5 265v635h267v-601q0 -53 13.5 -92.5t46 -61.5t89.5 -22q81 0 141.5 37.5t102.5 89.5v650h267v-976h-257l-5 146q-49 -63 -130 -111.5t-211 -48.5zM284 1106l211 277h245l211 -277h-199l-135 147l-134 -147h-199z" />
    <glyph glyph-name="udieresis" unicode="&#xfc;" 
d="M471 -14q-159 0 -241.5 90t-82.5 265v635h267v-601q0 -53 13.5 -92.5t46 -61.5t89.5 -22q81 0 141.5 37.5t102.5 89.5v650h267v-976h-257l-5 146q-49 -63 -130 -111.5t-211 -48.5zM808 1115q-51 0 -85.5 33t-34.5 85t34.5 85t85.5 33q52 0 87 -33t35 -85t-35 -85t-87 -33
zM424 1115q-51 0 -86 33t-35 85t34.5 85t86.5 33q51 0 86 -33t35 -85t-35 -85t-86 -33z" />
    <glyph glyph-name="yacute" unicode="&#xfd;" 
d="M188 -358v216h106q69 0 114 19t64 66l25 58l-429 975h278l317 -833l-56 -2l288 835h270l-440 -1087q-32 -84 -75.5 -138.5t-119 -81.5t-205.5 -27h-137zM476 1106l197 277h287l-287 -277h-197z" />
    <glyph glyph-name="thorn" unicode="&#xfe;" 
d="M129 -358v1704h267v-512q53 72 131 115t183 43q178 0 283.5 -126t105.5 -379q0 -167 -52 -279t-144 -169t-214 -57q-98 0 -171 38.5t-123 103.5v-482h-266zM622 186q101 0 154.5 77t53.5 228t-51.5 225.5t-148.5 74.5q-87 0 -146 -50t-88 -107v-305q31 -57 86.5 -100
t139.5 -43z" />
    <glyph glyph-name="ydieresis" unicode="&#xff;" 
d="M188 -358v216h106q69 0 114 19t64 66l25 58l-429 975h278l317 -833l-56 -2l288 835h270l-440 -1087q-32 -84 -75.5 -138.5t-119 -81.5t-205.5 -27h-137zM810 1115q-51 0 -85.5 33t-34.5 85t34.5 85t85.5 33q52 0 87 -33t35 -85t-35 -85t-87 -33zM426 1115q-51 0 -86 33
t-35 85t34.5 85t86.5 33q51 0 86 -33t35 -85t-35 -85t-86 -33z" />
    <glyph glyph-name="Amacron" unicode="&#x100;" 
d="M29 0l437 1346h298l436 -1346h-277l-343 1181h68l-344 -1181h-275zM268 296v218h689v-218h-689zM331 1501v151h563v-151h-563z" />
    <glyph glyph-name="amacron" unicode="&#x101;" 
d="M467 -17q-87 0 -163.5 32t-124.5 96.5t-48 162.5q0 135 85 203t240.5 93t366.5 29v51q0 93 -51.5 128t-131.5 35q-91 0 -148 -37t-57 -120h-250q0 120 57.5 194t160 107.5t237.5 33.5q97 0 178.5 -16t140.5 -54t91.5 -102.5t32.5 -163.5v-655h-249l-9 128
q-67 -66 -153 -105.5t-205 -39.5zM550 167q90 0 158.5 36t110.5 88v163q-234 -3 -328.5 -41t-94.5 -121q0 -58 40 -91.5t114 -33.5zM370 1155v151h563v-151h-563z" />
    <glyph glyph-name="Abreve" unicode="&#x102;" 
d="M29 0l437 1346h298l436 -1346h-277l-343 1181h68l-344 -1181h-275zM268 296v218h689v-218h-689zM612 1456q-89 0 -158.5 33.5t-110 95.5t-42.5 146h150q5 -52 30 -81.5t60.5 -41.5t70.5 -12q37 0 72 12t60.5 42t31.5 81h149q-2 -83 -43 -145t-110.5 -96t-159.5 -34z" />
    <glyph glyph-name="abreve" unicode="&#x103;" 
d="M467 -17q-87 0 -163.5 32t-124.5 96.5t-48 162.5q0 135 85 203t240.5 93t366.5 29v51q0 93 -51.5 128t-131.5 35q-91 0 -148 -37t-57 -120h-250q0 120 57.5 194t160 107.5t237.5 33.5q97 0 178.5 -16t140.5 -54t91.5 -102.5t32.5 -163.5v-655h-249l-9 128
q-67 -66 -153 -105.5t-205 -39.5zM550 167q90 0 158.5 36t110.5 88v163q-234 -3 -328.5 -41t-94.5 -121q0 -58 40 -91.5t114 -33.5zM650 1105q-140 0 -217.5 75t-87.5 202h148q9 -78 56.5 -106t100.5 -28q54 0 101.5 28t57.5 106h146q-10 -127 -87 -202t-218 -75z" />
    <glyph glyph-name="Aogonek" unicode="&#x104;" 
d="M29 0l437 1346h298l436 -1346h-277l-343 1181h68l-344 -1181h-275zM268 296v218h689v-218h-689zM1053 -371q-90 0 -151 45t-61 130q0 51 32 99.5t86.5 84.5t124.5 49l93 -26q-72 -36 -105 -81t-33 -81q0 -26 16 -43t47 -17t62.5 7.5t66.5 22.5v-153q-35 -17 -75.5 -27
t-102.5 -10z" />
    <glyph glyph-name="aogonek" unicode="&#x105;" 
d="M467 -17q-87 0 -163.5 32t-124.5 96.5t-48 162.5q0 135 85 203t240.5 93t366.5 29v51q0 93 -51.5 128t-131.5 35q-91 0 -148 -37t-57 -120h-250q0 120 57.5 194t160 107.5t237.5 33.5q97 0 178.5 -16t140.5 -54t91.5 -102.5t32.5 -163.5v-655h-249l-9 128
q-67 -66 -153 -105.5t-205 -39.5zM550 167q90 0 158.5 36t110.5 88v163q-234 -3 -328.5 -41t-94.5 -121q0 -58 40 -91.5t114 -33.5zM887 -371q-90 0 -151 45t-61 130q0 51 32 99.5t86.5 84.5t124.5 49l93 -26q-72 -36 -105 -81t-33 -81q0 -26 16 -43t47 -17t62.5 7.5
t66.5 22.5v-153q-35 -17 -75.5 -27t-102.5 -10z" />
    <glyph glyph-name="Cacute" unicode="&#x106;" 
d="M632 -18q-178 0 -302 85t-187.5 240t-63.5 365t63.5 365.5t187.5 241t302 85.5q136 0 250.5 -54.5t186 -161t78.5 -262.5h-290q-7 81 -38.5 134.5t-80 80.5t-106.5 27q-101 0 -158.5 -61t-80.5 -164t-23 -231q0 -127 23 -230t80.5 -163.5t158.5 -60.5t159.5 70.5
t67.5 202.5h290q-11 -164 -75.5 -278t-176.5 -172.5t-265 -58.5zM500 1453l188 277h286l-276 -277h-198z" />
    <glyph glyph-name="cacute" unicode="&#x107;" 
d="M632 -18q-236 0 -376 128.5t-140 371.5q0 163 64 277.5t180 173.5t272 59q139 0 244.5 -40.5t166 -122t62.5 -204.5h-260q-4 74 -57.5 118t-153.5 44q-133 0 -192 -79.5t-59 -225.5q0 -142 59 -219t192 -77q101 0 159.5 48t61.5 138h258q-3 -127 -63 -214t-166.5 -131.5
t-251.5 -44.5zM489 1106l197 277h287l-287 -277h-197z" />
    <glyph glyph-name="Ccircumflex" unicode="&#x108;" 
d="M632 -18q-178 0 -302 85t-187.5 240t-63.5 365t63.5 365.5t187.5 241t302 85.5q136 0 250.5 -54.5t186 -161t78.5 -262.5h-290q-7 81 -38.5 134.5t-80 80.5t-106.5 27q-101 0 -158.5 -61t-80.5 -164t-23 -231q0 -127 23 -230t80.5 -163.5t158.5 -60.5t159.5 70.5
t67.5 202.5h290q-11 -164 -75.5 -278t-176.5 -172.5t-265 -58.5zM296 1453l212 278h244l211 -278h-203l-129 160l-130 -160h-205z" />
    <glyph glyph-name="ccircumflex" unicode="&#x109;" 
d="M632 -18q-236 0 -376 128.5t-140 371.5q0 163 64 277.5t180 173.5t272 59q139 0 244.5 -40.5t166 -122t62.5 -204.5h-260q-4 74 -57.5 118t-153.5 44q-133 0 -192 -79.5t-59 -225.5q0 -142 59 -219t192 -77q101 0 159.5 48t61.5 138h258q-3 -127 -63 -214t-166.5 -131.5
t-251.5 -44.5zM298 1106l211 277h245l211 -277h-199l-135 147l-134 -147h-199z" />
    <glyph glyph-name="Cdotaccent" unicode="&#x10a;" 
d="M632 -18q-178 0 -302 85t-187.5 240t-63.5 365t63.5 365.5t187.5 241t302 85.5q136 0 250.5 -54.5t186 -161t78.5 -262.5h-290q-7 81 -38.5 134.5t-80 80.5t-106.5 27q-101 0 -158.5 -61t-80.5 -164t-23 -231q0 -127 23 -230t80.5 -163.5t158.5 -60.5t159.5 70.5
t67.5 202.5h290q-11 -164 -75.5 -278t-176.5 -172.5t-265 -58.5zM629 1461q-72 0 -110.5 36.5t-38.5 91.5q0 57 38.5 93.5t110.5 36.5q73 0 112.5 -36.5t39.5 -93.5q0 -55 -39.5 -91.5t-112.5 -36.5z" />
    <glyph glyph-name="cdotaccent" unicode="&#x10b;" 
d="M632 -18q-236 0 -376 128.5t-140 371.5q0 163 64 277.5t180 173.5t272 59q139 0 244.5 -40.5t166 -122t62.5 -204.5h-260q-4 74 -57.5 118t-153.5 44q-133 0 -192 -79.5t-59 -225.5q0 -142 59 -219t192 -77q101 0 159.5 48t61.5 138h258q-3 -127 -63 -214t-166.5 -131.5
t-251.5 -44.5zM630 1104q-72 0 -110.5 36.5t-38.5 92.5q0 57 38.5 93t110.5 36q73 0 112.5 -36t39.5 -93q0 -56 -39.5 -92.5t-112.5 -36.5z" />
    <glyph glyph-name="Ccaron" unicode="&#x10c;" 
d="M632 -18q-178 0 -302 85t-187.5 240t-63.5 365t63.5 365.5t187.5 241t302 85.5q136 0 250.5 -54.5t186 -161t78.5 -262.5h-290q-7 81 -38.5 134.5t-80 80.5t-106.5 27q-101 0 -158.5 -61t-80.5 -164t-23 -231q0 -127 23 -230t80.5 -163.5t158.5 -60.5t159.5 70.5
t67.5 202.5h290q-11 -164 -75.5 -278t-176.5 -172.5t-265 -58.5zM508 1453l-212 278h203l130 -159l129 159h205l-211 -278h-244z" />
    <glyph glyph-name="ccaron" unicode="&#x10d;" 
d="M632 -18q-236 0 -376 128.5t-140 371.5q0 163 64 277.5t180 173.5t272 59q139 0 244.5 -40.5t166 -122t62.5 -204.5h-260q-4 74 -57.5 118t-153.5 44q-133 0 -192 -79.5t-59 -225.5q0 -142 59 -219t192 -77q101 0 159.5 48t61.5 138h258q-3 -127 -63 -214t-166.5 -131.5
t-251.5 -44.5zM509 1106l-212 277h199l134 -146l135 146h199l-211 -277h-244z" />
    <glyph glyph-name="Dcaron" unicode="&#x10e;" 
d="M110 0v1346h370q201 0 344 -77.5t218.5 -227.5t75.5 -368q0 -333 -169.5 -503t-468.5 -170h-370zM393 236h62q125 0 207.5 45.5t123 142t40.5 249.5q0 151 -43 247.5t-125.5 143t-202.5 46.5h-62v-874zM403 1454l-212 278h203l130 -159l129 159h205l-211 -278h-244z" />
    <glyph glyph-name="dcaron" unicode="&#x10f;" 
d="M494 -17q-121 0 -207.5 56t-132.5 168.5t-46 280.5t49.5 280.5t140.5 168.5t216 56q108 0 181.5 -43t115.5 -111v507h266v-1346h-256l-12 138q-53 -71 -129 -113t-186 -42zM572 185q92 0 150.5 46.5t88.5 101.5v305q-31 61 -88 106.5t-142 45.5q-98 0 -151.5 -78
t-53.5 -227q0 -152 51.5 -226t144.5 -74zM1138 1028l66 318h250l-150 -318h-166z" />
    <glyph glyph-name="Dcroat" unicode="&#x110;" 
d="M13 564v226h639v-226h-639zM110 0v1346h370q201 0 344 -77.5t218.5 -227.5t75.5 -368q0 -333 -169.5 -503t-468.5 -170h-370zM393 236h62q125 0 207.5 45.5t123 142t40.5 249.5q0 151 -43 247.5t-125.5 143t-202.5 46.5h-62v-874z" />
    <glyph glyph-name="dcroat" unicode="&#x111;" 
d="M553 1092v142h615v-142h-615zM494 -17q-121 0 -207.5 56t-132.5 168.5t-46 280.5t49.5 280.5t140.5 168.5t216 56q108 0 181.5 -43t115.5 -111v507h266v-1346h-256l-12 138q-53 -71 -129 -113t-186 -42zM572 185q92 0 150.5 46.5t88.5 101.5v305q-31 61 -88 106.5
t-142 45.5q-98 0 -151.5 -78t-53.5 -227q0 -152 51.5 -226t144.5 -74z" />
    <glyph glyph-name="Emacron" unicode="&#x112;" 
d="M142 0v1346h944v-234h-661v-313h602v-227h-602v-338h661v-234h-944zM336 1500v151h563v-151h-563z" />
    <glyph glyph-name="emacron" unicode="&#x113;" 
d="M633 -18q-164 0 -281 60.5t-179.5 174.5t-62.5 274q0 155 61 266.5t175 172.5t274 61q229 0 363 -126t134 -366q0 -13 -1 -30.5t-3 -27.5h-738q2 -73 28 -135.5t83 -100t151 -37.5q103 0 164 38.5t64 116.5h251q-6 -114 -66.5 -190t-167 -113.5t-249.5 -37.5zM380 599
h474q-5 107 -68.5 160t-165.5 53q-104 0 -166 -54.5t-74 -158.5zM340 1155v151h563v-151h-563z" />
    <glyph glyph-name="Ebreve" unicode="&#x114;" 
d="M142 0v1346h944v-234h-661v-313h602v-227h-602v-338h661v-234h-944zM617 1455q-89 0 -158.5 33.5t-110 95.5t-42.5 146h150q5 -52 30 -81.5t60.5 -41.5t70.5 -12q37 0 72 12t60.5 42t31.5 81h149q-2 -83 -43 -145t-110.5 -96t-159.5 -34z" />
    <glyph glyph-name="ebreve" unicode="&#x115;" 
d="M633 -18q-164 0 -281 60.5t-179.5 174.5t-62.5 274q0 155 61 266.5t175 172.5t274 61q229 0 363 -126t134 -366q0 -13 -1 -30.5t-3 -27.5h-738q2 -73 28 -135.5t83 -100t151 -37.5q103 0 164 38.5t64 116.5h251q-6 -114 -66.5 -190t-167 -113.5t-249.5 -37.5zM380 599
h474q-5 107 -68.5 160t-165.5 53q-104 0 -166 -54.5t-74 -158.5zM619 1105q-140 0 -217.5 75t-87.5 202h148q9 -78 56.5 -106t100.5 -28q54 0 101.5 28t57.5 106h146q-10 -127 -87 -202t-218 -75z" />
    <glyph glyph-name="Edotaccent" unicode="&#x116;" 
d="M142 0v1346h944v-234h-661v-313h602v-227h-602v-338h661v-234h-944zM618 1461q-72 0 -110.5 36.5t-38.5 91.5q0 57 38.5 93.5t110.5 36.5q73 0 112.5 -36.5t39.5 -93.5q0 -55 -39.5 -91.5t-112.5 -36.5z" />
    <glyph glyph-name="edotaccent" unicode="&#x117;" 
d="M633 -18q-164 0 -281 60.5t-179.5 174.5t-62.5 274q0 155 61 266.5t175 172.5t274 61q229 0 363 -126t134 -366q0 -13 -1 -30.5t-3 -27.5h-738q2 -73 28 -135.5t83 -100t151 -37.5q103 0 164 38.5t64 116.5h251q-6 -114 -66.5 -190t-167 -113.5t-249.5 -37.5zM380 599
h474q-5 107 -68.5 160t-165.5 53q-104 0 -166 -54.5t-74 -158.5zM620 1104q-72 0 -110.5 36.5t-38.5 92.5q0 57 38.5 93t110.5 36q73 0 112.5 -36t39.5 -93q0 -56 -39.5 -92.5t-112.5 -36.5z" />
    <glyph glyph-name="Eogonek" unicode="&#x118;" 
d="M142 0v1346h944v-234h-661v-313h602v-227h-602v-338h661v-234h-944zM857 -379q-90 0 -151 45t-61 130q0 51 32 99.5t86.5 84.5t124.5 49l93 -26q-72 -36 -105 -81t-33 -81q0 -26 16 -43t47 -17t62.5 7.5t66.5 22.5v-153q-35 -17 -75.5 -27t-102.5 -10z" />
    <glyph glyph-name="eogonek" unicode="&#x119;" 
d="M633 -18q-164 0 -281 60.5t-179.5 174.5t-62.5 274q0 155 61 266.5t175 172.5t274 61q229 0 363 -126t134 -366q0 -13 -1 -30.5t-3 -27.5h-738q2 -73 28 -135.5t83 -100t151 -37.5q103 0 164 38.5t64 116.5h251q-6 -114 -66.5 -190t-167 -113.5t-249.5 -37.5zM380 599
h474q-5 107 -68.5 160t-165.5 53q-104 0 -166 -54.5t-74 -158.5zM709 -371q-90 0 -151 45t-61 130q0 51 32 99.5t86.5 84.5t124.5 49l93 -26q-72 -36 -105 -81t-33 -81q0 -26 16 -43t47 -17t62.5 7.5t66.5 22.5v-153q-35 -17 -75.5 -27t-102.5 -10z" />
    <glyph glyph-name="Ecaron" unicode="&#x11a;" 
d="M142 0v1346h944v-234h-661v-313h602v-227h-602v-338h661v-234h-944zM497 1453l-212 278h203l130 -159l129 159h205l-211 -278h-244z" />
    <glyph glyph-name="ecaron" unicode="&#x11b;" 
d="M633 -18q-164 0 -281 60.5t-179.5 174.5t-62.5 274q0 155 61 266.5t175 172.5t274 61q229 0 363 -126t134 -366q0 -13 -1 -30.5t-3 -27.5h-738q2 -73 28 -135.5t83 -100t151 -37.5q103 0 164 38.5t64 116.5h251q-6 -114 -66.5 -190t-167 -113.5t-249.5 -37.5zM380 599
h474q-5 107 -68.5 160t-165.5 53q-104 0 -166 -54.5t-74 -158.5zM499 1106l-212 277h199l134 -146l135 146h199l-211 -277h-244z" />
    <glyph glyph-name="Gcircumflex" unicode="&#x11c;" 
d="M640 -18q-181 0 -306 84t-190 239t-65 367q0 213 65 368t190 239.5t306 84.5q127 0 234.5 -48.5t176.5 -150.5t79 -262h-289q-6 63 -29 114t-67 81t-111 30q-101 0 -159 -60.5t-82.5 -163.5t-24.5 -232q0 -128 27 -231.5t87 -163.5t158 -60q82 0 132.5 38t74 103
t23.5 145h-235v220h515v-126q0 -185 -54.5 -323.5t-167.5 -215t-288 -76.5zM301 1453l212 278h244l211 -278h-203l-129 160l-130 -160h-205z" />
    <glyph glyph-name="gcircumflex" unicode="&#x11d;" 
d="M600 -377q-191 0 -303.5 35.5t-161.5 94t-49 124.5q0 85 89 148.5t283 87.5l44 95h156q254 0 369 -67.5t115 -205.5q0 -140 -139 -226t-403 -86zM596 -211q159 0 224.5 35.5t65.5 88.5q0 33 -22.5 55.5t-76 34.5t-145.5 12h-179q-68 -16 -102.5 -45t-34.5 -67
q0 -42 58.5 -78t211.5 -36zM463 19q-122 13 -196.5 43t-108 70.5t-33.5 82.5q0 58 55.5 101t173.5 76l112 -49q-36 -7 -68 -18t-53 -25.5t-21 -33.5t26 -32t91 -19.5t182 -6.5zM581 311q-139 0 -236.5 47t-148.5 123.5t-51 166.5q0 94 51 171.5t150 123t242 45.5
q146 0 243 -45.5t145 -123t48 -171.5q0 -92 -49 -168t-147.5 -122.5t-246.5 -46.5zM586 471q82 0 136 44.5t54 132.5q0 92 -52 136.5t-135 44.5q-84 0 -139 -45.5t-55 -135.5q0 -59 26 -98t69.5 -59t95.5 -20zM874 839l-78 100q46 129 144.5 175.5t236.5 48.5v-195
q-65 0 -124 -8.5t-105.5 -35.5t-73.5 -85zM238 1106l211 277h245l211 -277h-199l-135 147l-134 -147h-199z" />
    <glyph glyph-name="Gbreve" unicode="&#x11e;" 
d="M640 -18q-181 0 -306 84t-190 239t-65 367q0 213 65 368t190 239.5t306 84.5q127 0 234.5 -48.5t176.5 -150.5t79 -262h-289q-6 63 -29 114t-67 81t-111 30q-101 0 -159 -60.5t-82.5 -163.5t-24.5 -232q0 -128 27 -231.5t87 -163.5t158 -60q82 0 132.5 38t74 103
t23.5 145h-235v220h515v-126q0 -185 -54.5 -323.5t-167.5 -215t-288 -76.5zM634 1455q-89 0 -158.5 33.5t-110 95.5t-42.5 146h150q5 -52 30 -81.5t60.5 -41.5t70.5 -12q37 0 72 12t60.5 42t31.5 81h149q-2 -83 -43 -145t-110.5 -96t-159.5 -34z" />
    <glyph glyph-name="gbreve" unicode="&#x11f;" 
d="M600 -377q-191 0 -303.5 35.5t-161.5 94t-49 124.5q0 85 89 148.5t283 87.5l44 95h156q254 0 369 -67.5t115 -205.5q0 -140 -139 -226t-403 -86zM596 -211q159 0 224.5 35.5t65.5 88.5q0 33 -22.5 55.5t-76 34.5t-145.5 12h-179q-68 -16 -102.5 -45t-34.5 -67
q0 -42 58.5 -78t211.5 -36zM463 19q-122 13 -196.5 43t-108 70.5t-33.5 82.5q0 58 55.5 101t173.5 76l112 -49q-36 -7 -68 -18t-53 -25.5t-21 -33.5t26 -32t91 -19.5t182 -6.5zM581 311q-139 0 -236.5 47t-148.5 123.5t-51 166.5q0 94 51 171.5t150 123t242 45.5
q146 0 243 -45.5t145 -123t48 -171.5q0 -92 -49 -168t-147.5 -122.5t-246.5 -46.5zM586 471q82 0 136 44.5t54 132.5q0 92 -52 136.5t-135 44.5q-84 0 -139 -45.5t-55 -135.5q0 -59 26 -98t69.5 -59t95.5 -20zM874 839l-78 100q46 129 144.5 175.5t236.5 48.5v-195
q-65 0 -124 -8.5t-105.5 -35.5t-73.5 -85zM570 1105q-140 0 -217.5 75t-87.5 202h148q9 -78 56.5 -106t100.5 -28q54 0 101.5 28t57.5 106h146q-10 -127 -87 -202t-218 -75z" />
    <glyph glyph-name="Gdotaccent" unicode="&#x120;" 
d="M640 -18q-181 0 -306 84t-190 239t-65 367q0 213 65 368t190 239.5t306 84.5q127 0 234.5 -48.5t176.5 -150.5t79 -262h-289q-6 63 -29 114t-67 81t-111 30q-101 0 -159 -60.5t-82.5 -163.5t-24.5 -232q0 -128 27 -231.5t87 -163.5t158 -60q82 0 132.5 38t74 103
t23.5 145h-235v220h515v-126q0 -185 -54.5 -323.5t-167.5 -215t-288 -76.5zM634 1461q-72 0 -110.5 36.5t-38.5 91.5q0 57 38.5 93.5t110.5 36.5q73 0 112.5 -36.5t39.5 -93.5q0 -55 -39.5 -91.5t-112.5 -36.5z" />
    <glyph glyph-name="gdotaccent" unicode="&#x121;" 
d="M600 -377q-191 0 -303.5 35.5t-161.5 94t-49 124.5q0 85 89 148.5t283 87.5l44 95h156q254 0 369 -67.5t115 -205.5q0 -140 -139 -226t-403 -86zM596 -211q159 0 224.5 35.5t65.5 88.5q0 33 -22.5 55.5t-76 34.5t-145.5 12h-179q-68 -16 -102.5 -45t-34.5 -67
q0 -42 58.5 -78t211.5 -36zM463 19q-122 13 -196.5 43t-108 70.5t-33.5 82.5q0 58 55.5 101t173.5 76l112 -49q-36 -7 -68 -18t-53 -25.5t-21 -33.5t26 -32t91 -19.5t182 -6.5zM581 311q-139 0 -236.5 47t-148.5 123.5t-51 166.5q0 94 51 171.5t150 123t242 45.5
q146 0 243 -45.5t145 -123t48 -171.5q0 -92 -49 -168t-147.5 -122.5t-246.5 -46.5zM586 471q82 0 136 44.5t54 132.5q0 92 -52 136.5t-135 44.5q-84 0 -139 -45.5t-55 -135.5q0 -59 26 -98t69.5 -59t95.5 -20zM874 839l-78 100q46 129 144.5 175.5t236.5 48.5v-195
q-65 0 -124 -8.5t-105.5 -35.5t-73.5 -85zM570 1104q-72 0 -110.5 36.5t-38.5 92.5q0 57 38.5 93t110.5 36q73 0 112.5 -36t39.5 -93q0 -56 -39.5 -92.5t-112.5 -36.5z" />
    <glyph glyph-name="uni0122" unicode="&#x122;" 
d="M640 -18q-181 0 -306 84t-190 239t-65 367q0 213 65 368t190 239.5t306 84.5q127 0 234.5 -48.5t176.5 -150.5t79 -262h-289q-6 63 -29 114t-67 81t-111 30q-101 0 -159 -60.5t-82.5 -163.5t-24.5 -232q0 -128 27 -231.5t87 -163.5t158 -60q82 0 132.5 38t74 103
t23.5 145h-235v220h515v-126q0 -185 -54.5 -323.5t-167.5 -215t-288 -76.5zM538 -410l-20 79q48 9 81.5 30t43.5 47q-58 2 -88.5 30t-30.5 69q0 38 31.5 67t91.5 29q59 0 94.5 -33t35.5 -94q0 -92 -70 -153t-169 -71z" />
    <glyph glyph-name="uni0123" unicode="&#x123;" 
d="M600 -377q-191 0 -303.5 35.5t-161.5 94t-49 124.5q0 85 89 148.5t283 87.5l44 95h156q254 0 369 -67.5t115 -205.5q0 -140 -139 -226t-403 -86zM596 -211q159 0 224.5 35.5t65.5 88.5q0 33 -22.5 55.5t-76 34.5t-145.5 12h-179q-68 -16 -102.5 -45t-34.5 -67
q0 -42 58.5 -78t211.5 -36zM463 19q-122 13 -196.5 43t-108 70.5t-33.5 82.5q0 58 55.5 101t173.5 76l112 -49q-36 -7 -68 -18t-53 -25.5t-21 -33.5t26 -32t91 -19.5t182 -6.5zM581 311q-139 0 -236.5 47t-148.5 123.5t-51 166.5q0 94 51 171.5t150 123t242 45.5
q146 0 243 -45.5t145 -123t48 -171.5q0 -92 -49 -168t-147.5 -122.5t-246.5 -46.5zM586 471q82 0 136 44.5t54 132.5q0 92 -52 136.5t-135 44.5q-84 0 -139 -45.5t-55 -135.5q0 -59 26 -98t69.5 -59t95.5 -20zM874 839l-78 100q46 129 144.5 175.5t236.5 48.5v-195
q-65 0 -124 -8.5t-105.5 -35.5t-73.5 -85zM550 1060q-64 0 -102.5 35t-38.5 103q0 69 34 123t91 87.5t126 39.5l22 -87q-43 -11 -75.5 -35t-50.5 -57q59 -7 90 -34t31 -72q0 -42 -35 -72.5t-92 -30.5z" />
    <glyph glyph-name="Hcircumflex" unicode="&#x124;" 
d="M143 0v1346h283v-526h376v526h284v-1346h-284v571h-376v-571h-283zM282 1453l212 278h244l211 -278h-203l-129 160l-130 -160h-205z" />
    <glyph glyph-name="hcircumflex" unicode="&#x125;" 
d="M155 0v1346h262v-515q49 62 130 110.5t210 48.5q160 0 242.5 -88.5t82.5 -266.5v-635h-267v601q0 54 -14 93t-47 61t-90 22q-80 0 -140 -36.5t-102 -90.5v-650h-267zM282 1476l211 277h245l211 -277h-199l-135 147l-134 -147h-199z" />
    <glyph glyph-name="Hbar" unicode="&#x126;" 
d="M15 1001v146h1199v-146h-1199zM143 0v1346h283v-526h376v526h284v-1346h-284v571h-376v-571h-283z" />
    <glyph glyph-name="hbar" unicode="&#x127;" 
d="M61 1092v142h620v-142h-620zM155 0v1346h262v-515q49 62 130 110.5t210 48.5q160 0 242.5 -88.5t82.5 -266.5v-635h-267v601q0 54 -14 93t-47 61t-90 22q-80 0 -140 -36.5t-102 -90.5v-650h-267z" />
    <glyph glyph-name="Itilde" unicode="&#x128;" 
d="M474 0v1346h283v-1346h-283zM179 235h871v-235h-871v235zM179 1346h871v-235h-871v235zM288 1462q11 114 61.5 175t140.5 61q43 0 81 -14.5t70 -28.5q31 -13 56 -23t45 -10q25 0 39 17.5t17 59.5h140q-12 -113 -56.5 -169.5t-136.5 -56.5q-42 0 -78.5 12t-70.5 28
q-33 14 -58.5 23t-45.5 9q-28 0 -44 -19t-21 -64h-139z" />
    <glyph glyph-name="itilde" unicode="&#x129;" 
d="M917 0q-163 0 -262.5 49t-145.5 140t-46 217v363h-310v207h576v-554q0 -103 40 -158.5t156 -55.5h150v-208h-158zM255 1117q11 114 61.5 175t140.5 61q43 0 81 -14.5t71 -28.5q31 -13 55.5 -23t45.5 -10q24 0 38 17.5t17 59.5h141q-13 -113 -57.5 -169.5t-135.5 -56.5
q-42 0 -79 12t-71 28q-33 14 -58.5 23t-45.5 9q-28 0 -44 -19t-21 -64h-139z" />
    <glyph glyph-name="Imacron" unicode="&#x12a;" 
d="M474 0v1346h283v-1346h-283zM179 235h871v-235h-871v235zM179 1346h871v-235h-871v235zM333 1500v151h563v-151h-563z" />
    <glyph glyph-name="imacron" unicode="&#x12b;" 
d="M917 0q-163 0 -262.5 49t-145.5 140t-46 217v363h-310v207h576v-554q0 -103 40 -158.5t156 -55.5h150v-208h-158zM357 1159v143h447v-143h-447z" />
    <glyph glyph-name="Ibreve" unicode="&#x12c;" 
d="M474 0v1346h283v-1346h-283zM179 235h871v-235h-871v235zM179 1346h871v-235h-871v235zM614 1455q-89 0 -158.5 33.5t-110 95.5t-42.5 146h150q5 -52 30 -81.5t60.5 -41.5t70.5 -12q37 0 72 12t60.5 42t31.5 81h149q-2 -83 -43 -145t-110.5 -96t-159.5 -34z" />
    <glyph glyph-name="ibreve" unicode="&#x12d;" 
d="M917 0q-163 0 -262.5 49t-145.5 140t-46 217v363h-310v207h576v-554q0 -103 40 -158.5t156 -55.5h150v-208h-158zM578 1105q-140 0 -217.5 75t-87.5 202h148q9 -78 56.5 -106t100.5 -28q54 0 101.5 28t57.5 106h146q-10 -127 -87 -202t-218 -75z" />
    <glyph glyph-name="Iogonek" unicode="&#x12e;" 
d="M474 0v1346h283v-1346h-283zM179 235h871v-235h-871v235zM179 1346h871v-235h-871v235zM617 -379q-90 0 -151 45t-61 130q0 51 32 99.5t86.5 84.5t124.5 49l93 -26q-72 -36 -105 -81t-33 -81q0 -26 16 -43t47 -17t62.5 7.5t66.5 22.5v-153q-35 -17 -75.5 -27t-102.5 -10z
" />
    <glyph glyph-name="iogonek" unicode="&#x12f;" 
d="M917 0q-163 0 -262.5 49t-145.5 140t-46 217v363h-310v207h576v-554q0 -103 40 -158.5t156 -55.5h150v-208h-158zM579 1104q-72 0 -110.5 36.5t-38.5 92.5q0 57 38.5 93t110.5 36q73 0 112.5 -36t39.5 -93q0 -56 -39.5 -92.5t-112.5 -36.5zM831 -379q-90 0 -151 45
t-61 130q0 51 32 99.5t86.5 84.5t124.5 49l93 -26q-72 -36 -105 -81t-33 -81q0 -26 16 -43t47 -17t62.5 7.5t66.5 22.5v-153q-35 -17 -75.5 -27t-102.5 -10z" />
    <glyph glyph-name="Idotaccent" unicode="&#x130;" 
d="M474 0v1346h283v-1346h-283zM179 235h871v-235h-871v235zM179 1346h871v-235h-871v235zM615 1461q-72 0 -110.5 36.5t-38.5 91.5q0 57 38.5 93.5t110.5 36.5q73 0 112.5 -36.5t39.5 -93.5q0 -55 -39.5 -91.5t-112.5 -36.5z" />
    <glyph glyph-name="dotlessi" unicode="&#x131;" 
d="M917 0q-163 0 -262.5 49t-145.5 140t-46 217v363h-310v207h576v-554q0 -103 40 -158.5t156 -55.5h150v-208h-158z" />
    <glyph glyph-name="IJ" unicode="&#x132;" 
d="M162 0v1346h283v-1346h-283zM42 235h521v-235h-521v235zM42 1346h521v-235h-521v235zM646 -10v242h24q104 0 154.5 52t50.5 175v887h277v-890q0 -159 -42.5 -262.5t-142 -153.5t-270.5 -50h-51zM748 1111v235h328v-235h-328z" />
    <glyph glyph-name="ij" unicode="&#x133;" 
d="M463 -358v208h147q79 0 122.5 25t60.5 73t17 116v705h-138v207h404v-928q0 -126 -46 -217t-146.5 -140t-265.5 -49h-155zM212 0v769h-145v207h410v-976h-265zM342 1090q-88 0 -134 43.5t-46 110.5q0 68 46 112t134 44q89 0 135 -44t46 -112q0 -67 -46 -110.5t-135 -43.5z
M921 1090q-88 0 -134 43.5t-46 110.5q0 68 46 112t134 44t134 -44t46 -112q0 -67 -46 -110.5t-134 -43.5z" />
    <glyph glyph-name="Jcircumflex" unicode="&#x134;" 
d="M183 -10v242h324q88 0 145.5 29.5t86.5 95.5t29 174v815h277v-818q0 -277 -124.5 -407.5t-393.5 -130.5h-344zM380 1111v235h577v-235h-577zM390 1453l212 278h244l211 -278h-203l-129 160l-130 -160h-205z" />
    <glyph glyph-name="jcircumflex" unicode="&#x135;" 
d="M258 -358v208h238q83 0 128.5 25t63 73t17.5 116v705h-330v207h596v-928q0 -126 -47 -217t-149.5 -140t-269.5 -49h-247zM402 1106l211 277h245l211 -277h-199l-135 147l-134 -147h-199z" />
    <glyph glyph-name="uni0136" unicode="&#x136;" 
d="M150 0v1346h283v-642l424 642h313l-439 -631l471 -715h-326l-443 690v-690h-283zM536 -410l-20 79q48 9 81.5 30t43.5 47q-58 2 -88.5 30t-30.5 69q0 38 31.5 67t91.5 29q59 0 94.5 -33t35.5 -94q0 -92 -70 -153t-169 -71z" />
    <glyph glyph-name="uni0137" unicode="&#x137;" 
d="M189 0v1346h266v-819l409 449h290l-414 -449l442 -527h-303l-424 515v-515h-266zM538 -410l-20 79q48 9 81.5 30t43.5 47q-58 2 -88.5 30t-30.5 69q0 38 31.5 67t91.5 29q59 0 94.5 -33t35.5 -94q0 -92 -70 -153t-169 -71z" />
    <glyph glyph-name="kgreenlandic" unicode="&#x138;" 
d="M189 0v976h267v-449l380 449h289l-384 -449l412 -527h-303l-394 515v-515h-267z" />
    <glyph glyph-name="Lacute" unicode="&#x139;" 
d="M223 0v1346h283v-1112h566v-234h-849zM280 1453l188 277h286l-276 -277h-198z" />
    <glyph glyph-name="lacute" unicode="&#x13a;" 
d="M877 0q-163 0 -262.5 49t-145.5 140t-46 217v733h-298v207h564v-924q0 -103 40 -158.5t156 -55.5h249v-208h-257zM446 1476l197 277h287l-287 -277h-197z" />
    <glyph glyph-name="uni013B" unicode="&#x13b;" 
d="M223 0v1346h283v-1112h566v-234h-849zM547 -410l-20 79q48 9 81.5 30t43.5 47q-58 2 -88.5 30t-30.5 69q0 38 31.5 67t91.5 29q59 0 94.5 -33t35.5 -94q0 -92 -70 -153t-169 -71z" />
    <glyph glyph-name="uni013C" unicode="&#x13c;" 
d="M877 0q-163 0 -262.5 49t-145.5 140t-46 217v733h-298v207h564v-924q0 -103 40 -158.5t156 -55.5h249v-208h-257zM507 -410l-20 79q48 9 81.5 30t43.5 47q-58 2 -88.5 30t-30.5 69q0 38 31.5 67t91.5 29q59 0 94.5 -33t35.5 -94q0 -92 -70 -153t-169 -71z" />
    <glyph glyph-name="Lcaron" unicode="&#x13d;" 
d="M223 0v1346h283v-1112h566v-234h-849zM758 1028l66 318h250l-150 -318h-166z" />
    <glyph glyph-name="lcaron" unicode="&#x13e;" 
d="M877 0q-163 0 -262.5 49t-145.5 140t-46 217v733h-298v207h564v-924q0 -103 40 -158.5t156 -55.5h249v-208h-257zM884 1028l66 318h250l-150 -318h-166z" />
    <glyph glyph-name="Ldot" unicode="&#x13f;" 
d="M223 0v1346h283v-1112h566v-234h-849zM900 599q-88 0 -142 54t-54 131q0 83 54 134.5t142 51.5q85 0 137 -51.5t52 -134.5q0 -77 -52 -131t-137 -54z" />
    <glyph glyph-name="ldot" unicode="&#x140;" 
d="M839 0q-163 0 -262.5 49t-145.5 140t-46 217v733h-298v207h564v-924q0 -103 40 -158.5t156 -55.5h249v-208h-257zM1006 550q-88 0 -142 54t-54 131q0 83 54 134.5t142 51.5q85 0 137 -51.5t52 -134.5q0 -77 -52 -131t-137 -54z" />
    <glyph glyph-name="Lslash" unicode="&#x141;" 
d="M95 349v226l685 377v-226zM223 0v1346h283v-1112h566v-234h-849z" />
    <glyph glyph-name="lslash" unicode="&#x142;" 
d="M618 575v227l290 208v-227zM328 415v227l267 188v-225zM931 0q-162 0 -262 49t-145.5 140t-45.5 217v733h-298v207h564v-924q0 -103 39.5 -158.5t156.5 -55.5h248v-208h-257z" />
    <glyph glyph-name="Nacute" unicode="&#x143;" 
d="M143 0v1346h279l475 -1023l-66 -7v1030h255v-1346h-277l-479 1028l67 8v-1036h-254zM486 1453l188 277h286l-276 -277h-198z" />
    <glyph glyph-name="nacute" unicode="&#x144;" 
d="M155 0v976h257l5 -145q49 62 130 110.5t211 48.5q159 0 241.5 -89.5t82.5 -265.5v-635h-267v601q0 54 -13.5 93t-46 61t-89.5 22q-81 0 -141.5 -37t-102.5 -90v-650h-267zM482 1106l197 277h287l-287 -277h-197z" />
    <glyph glyph-name="uni0145" unicode="&#x145;" 
d="M143 0v1346h279l475 -1023l-66 -7v1030h255v-1346h-277l-479 1028l67 8v-1036h-254zM507 -410l-20 79q48 9 81.5 30t43.5 47q-58 2 -88.5 30t-30.5 69q0 38 31.5 67t91.5 29q59 0 94.5 -33t35.5 -94q0 -92 -70 -153t-169 -71z" />
    <glyph glyph-name="uni0146" unicode="&#x146;" 
d="M155 0v976h257l5 -145q49 62 130 110.5t211 48.5q159 0 241.5 -89.5t82.5 -265.5v-635h-267v601q0 54 -13.5 93t-46 61t-89.5 22q-81 0 -141.5 -37t-102.5 -90v-650h-267zM503 -410l-20 79q48 9 81.5 30t43.5 47q-58 2 -88.5 30t-30.5 69q0 38 31.5 67t91.5 29
q59 0 94.5 -33t35.5 -94q0 -92 -70 -153t-169 -71z" />
    <glyph glyph-name="Ncaron" unicode="&#x147;" 
d="M143 0v1346h279l475 -1023l-66 -7v1030h255v-1346h-277l-479 1028l67 8v-1036h-254zM494 1453l-212 278h203l130 -159l129 159h205l-211 -278h-244z" />
    <glyph glyph-name="ncaron" unicode="&#x148;" 
d="M155 0v976h257l5 -145q49 62 130 110.5t211 48.5q159 0 241.5 -89.5t82.5 -265.5v-635h-267v601q0 54 -13.5 93t-46 61t-89.5 22q-81 0 -141.5 -37t-102.5 -90v-650h-267zM503 1106l-212 277h199l134 -146l135 146h199l-211 -277h-244z" />
    <glyph glyph-name="napostrophe" unicode="&#x149;" 
d="M316 0v976h224l4 -145q45 62 119.5 110.5t192.5 48.5q146 0 220 -89.5t74 -265.5v-635h-232v601q0 54 -12.5 93t-43 61t-84.5 22q-77 0 -134 -37t-95 -90v-650h-233zM0 669l-39 148q70 23 115 70.5t54 123.5l17 -16q-75 0 -121.5 53.5t-46.5 130.5q0 84 46.5 135
t121.5 51q72 0 117.5 -60t45.5 -179q0 -135 -45 -229.5t-115.5 -150.5t-149.5 -77z" />
    <glyph glyph-name="Eng" unicode="&#x14a;" 
d="M143 0v1346h279l497 -1023l-88 -7v1030h255v-1234l-255 -112l-501 1028l67 8v-1036h-254zM593 -358v241h36q102 0 145 53t43 179l269 -3q0 -243 -109.5 -356.5t-343.5 -113.5h-40z" />
    <glyph glyph-name="eng" unicode="&#x14b;" 
d="M626 -358v210h59q64 0 96 25.5t32 81.5v94h267v-85q0 -155 -88 -240.5t-274 -85.5h-92zM153 0v976h257l5 -145q49 62 130 110.5t211 48.5q158 0 241 -89.5t83 -265.5v-635h-267v601q0 54 -14 93t-46.5 61t-89.5 22q-80 0 -141 -37t-103 -90v-650h-266z" />
    <glyph glyph-name="Omacron" unicode="&#x14c;" 
d="M615 -18q-181 0 -300.5 85t-178 240t-58.5 365t58.5 365.5t178 241t300.5 85.5q179 0 298 -85.5t178.5 -241t59.5 -365.5t-59.5 -365t-178.5 -240t-298 -85zM615 217q95 0 148.5 62t75.5 165.5t22 227.5q0 125 -22 228.5t-75.5 165.5t-148.5 62q-97 0 -150.5 -61
t-74.5 -164.5t-21 -230.5t21 -230.5t74.5 -164t150.5 -60.5zM333 1500v151h563v-151h-563z" />
    <glyph glyph-name="omacron" unicode="&#x14d;" 
d="M612 -18q-147 0 -260.5 59t-177.5 171.5t-64 272.5q0 163 64 277t177.5 174t260.5 60q148 0 262.5 -60t179.5 -174t65 -277q0 -160 -65 -272.5t-179.5 -171.5t-262.5 -59zM612 186q86 0 138 40.5t76 108.5t24 150q0 84 -24 154t-76 111.5t-138 41.5q-84 0 -136 -41.5
t-75.5 -111.5t-23.5 -154q0 -82 23.5 -150t75.5 -108.5t136 -40.5zM333 1155v151h563v-151h-563z" />
    <glyph glyph-name="Obreve" unicode="&#x14e;" 
d="M615 -18q-181 0 -300.5 85t-178 240t-58.5 365t58.5 365.5t178 241t300.5 85.5q179 0 298 -85.5t178.5 -241t59.5 -365.5t-59.5 -365t-178.5 -240t-298 -85zM615 217q95 0 148.5 62t75.5 165.5t22 227.5q0 125 -22 228.5t-75.5 165.5t-148.5 62q-97 0 -150.5 -61
t-74.5 -164.5t-21 -230.5t21 -230.5t74.5 -164t150.5 -60.5zM614 1455q-89 0 -158.5 33.5t-110 95.5t-42.5 146h150q5 -52 30 -81.5t60.5 -41.5t70.5 -12q37 0 72 12t60.5 42t31.5 81h149q-2 -83 -43 -145t-110.5 -96t-159.5 -34z" />
    <glyph glyph-name="obreve" unicode="&#x14f;" 
d="M612 -18q-147 0 -260.5 59t-177.5 171.5t-64 272.5q0 163 64 277t177.5 174t260.5 60q148 0 262.5 -60t179.5 -174t65 -277q0 -160 -65 -272.5t-179.5 -171.5t-262.5 -59zM612 186q86 0 138 40.5t76 108.5t24 150q0 84 -24 154t-76 111.5t-138 41.5q-84 0 -136 -41.5
t-75.5 -111.5t-23.5 -154q0 -82 23.5 -150t75.5 -108.5t136 -40.5zM612 1105q-140 0 -217.5 75t-87.5 202h148q9 -78 56.5 -106t100.5 -28q54 0 101.5 28t57.5 106h146q-10 -127 -87 -202t-218 -75z" />
    <glyph glyph-name="Ohungarumlaut" unicode="&#x150;" 
d="M615 -18q-181 0 -300.5 85t-178 240t-58.5 365t58.5 365.5t178 241t300.5 85.5q179 0 298 -85.5t178.5 -241t59.5 -365.5t-59.5 -365t-178.5 -240t-298 -85zM615 217q95 0 148.5 62t75.5 165.5t22 227.5q0 125 -22 228.5t-75.5 165.5t-148.5 62q-97 0 -150.5 -61
t-74.5 -164.5t-21 -230.5t21 -230.5t74.5 -164t150.5 -60.5zM666 1453l187 277h204l-241 -277h-150zM344 1453l185 277h205l-241 -277h-149z" />
    <glyph glyph-name="ohungarumlaut" unicode="&#x151;" 
d="M612 -18q-147 0 -260.5 59t-177.5 171.5t-64 272.5q0 163 64 277t177.5 174t260.5 60q148 0 262.5 -60t179.5 -174t65 -277q0 -160 -65 -272.5t-179.5 -171.5t-262.5 -59zM612 186q86 0 138 40.5t76 108.5t24 150q0 84 -24 154t-76 111.5t-138 41.5q-84 0 -136 -41.5
t-75.5 -111.5t-23.5 -154q0 -82 23.5 -150t75.5 -108.5t136 -40.5zM659 1106l187 277h204l-241 -277h-150zM337 1106l185 277h205l-241 -277h-149z" />
    <glyph glyph-name="OE" unicode="&#x152;" 
d="M733 0q-21 -1 -55 -2q-27 -1 -56 -1q-186 0 -317.5 83t-201.5 235t-70 357q0 206 69.5 358t200.5 235t314 83q24 0 47 -2t45 -8l-13 -223q-12 1 -25 1h-27q-114 0 -184.5 -60.5t-102 -161t-31.5 -222.5q0 -120 32 -220t103.5 -160t186.5 -60h24q11 0 22 1zM619 0v1346
h576v-234h-304v-313h244v-227h-244v-338h304v-234h-576z" />
    <glyph glyph-name="oe" unicode="&#x153;" 
d="M367 -18q-168 0 -254 131t-86 372q0 245 86 378t254 133q152 0 239 -133t87 -378q0 -241 -88 -372t-238 -131zM367 151q51 0 80 45.5t41.5 121.5t12.5 167q0 93 -12.5 170t-41.5 124.5t-80 47.5q-50 0 -79 -47t-42 -124.5t-13 -170.5q0 -91 13 -167t42 -121.5t79 -45.5z
M868 -18q-107 0 -185 60.5t-120 174.5t-42 274q0 156 40.5 268.5t116.5 173.5t181 61q171 0 256.5 -120.5t85.5 -349.5q0 -22 -1 -45t-3 -29h-484q2 -85 18.5 -152.5t52 -107t94.5 -39.5q55 0 88.5 42.5t35.5 129.5h197q-5 -171 -93.5 -256t-237.5 -85zM717 590h272
q-2 129 -37.5 185.5t-92.5 56.5q-61 0 -98 -59.5t-44 -182.5z" />
    <glyph glyph-name="Racute" unicode="&#x154;" 
d="M143 0v1346h507q133 0 238.5 -36.5t166.5 -117.5t61 -217q0 -128 -72.5 -217t-204.5 -127q88 -14 138.5 -52.5t81 -104t56.5 -158.5l88 -316h-288l-66 260q-22 90 -48.5 146.5t-70.5 82.5t-120 26h-184v-515h-283zM426 740h184q64 0 112.5 23.5t75.5 66.5t27 103
q0 93 -53.5 140t-141.5 47h-204v-380zM482 1453l188 277h286l-276 -277h-198z" />
    <glyph glyph-name="racute" unicode="&#x155;" 
d="M349 0v976h256l5 -287q45 94 110.5 160.5t152.5 102.5t197 36h58v-220h-62q-115 0 -206.5 -38t-154 -96.5t-90.5 -120.5v-513h-266zM162 769v207h261l21 -207h-282zM548 1106l197 277h287l-287 -277h-197z" />
    <glyph glyph-name="uni0156" unicode="&#x156;" 
d="M143 0v1346h507q133 0 238.5 -36.5t166.5 -117.5t61 -217q0 -128 -72.5 -217t-204.5 -127q88 -14 138.5 -52.5t81 -104t56.5 -158.5l88 -316h-288l-66 260q-22 90 -48.5 146.5t-70.5 82.5t-120 26h-184v-515h-283zM426 740h184q64 0 112.5 23.5t75.5 66.5t27 103
q0 93 -53.5 140t-141.5 47h-204v-380zM552 -410l-20 79q48 9 81.5 30t43.5 47q-58 2 -88.5 30t-30.5 69q0 38 31.5 67t91.5 29q59 0 94.5 -33t35.5 -94q0 -92 -70 -153t-169 -71z" />
    <glyph glyph-name="uni0157" unicode="&#x157;" 
d="M349 0v976h256l5 -287q45 94 110.5 160.5t152.5 102.5t197 36h58v-220h-62q-115 0 -206.5 -38t-154 -96.5t-90.5 -120.5v-513h-266zM162 769v207h261l21 -207h-282zM369 -410l-20 79q48 9 81.5 30t43.5 47q-58 2 -88.5 30t-30.5 69q0 38 31.5 67t91.5 29q59 0 94.5 -33
t35.5 -94q0 -92 -70 -153t-169 -71z" />
    <glyph glyph-name="Rcaron" unicode="&#x158;" 
d="M143 0v1346h507q133 0 238.5 -36.5t166.5 -117.5t61 -217q0 -128 -72.5 -217t-204.5 -127q88 -14 138.5 -52.5t81 -104t56.5 -158.5l88 -316h-288l-66 260q-22 90 -48.5 146.5t-70.5 82.5t-120 26h-184v-515h-283zM426 740h184q64 0 112.5 23.5t75.5 66.5t27 103
q0 93 -53.5 140t-141.5 47h-204v-380zM490 1453l-212 278h203l130 -159l129 159h205l-211 -278h-244z" />
    <glyph glyph-name="rcaron" unicode="&#x159;" 
d="M349 0v976h256l5 -287q45 94 110.5 160.5t152.5 102.5t197 36h58v-220h-62q-115 0 -206.5 -38t-154 -96.5t-90.5 -120.5v-513h-266zM162 769v207h261l21 -207h-282zM568 1106l-212 277h199l134 -146l135 146h199l-211 -277h-244z" />
    <glyph glyph-name="Sacute" unicode="&#x15a;" 
d="M619 -18q-151 0 -273 44.5t-193.5 140.5t-72.5 251h289q3 -80 36 -125.5t90 -65t129 -19.5q70 0 122.5 18t83 54t30.5 91q0 49 -26 82.5t-90.5 62t-182.5 62.5q-138 40 -239 88t-156 124.5t-55 198.5q0 132 63 214t173.5 121t254.5 39q140 0 254.5 -42t183.5 -129
t69 -222h-290q1 85 -60.5 129t-155.5 44q-95 0 -149 -36t-54 -102q0 -40 24.5 -70t91.5 -57.5t194 -64.5q153 -43 250 -93t143 -129t46 -207q0 -142 -71 -230.5t-191.5 -130t-267.5 -41.5zM486 1453l188 277h286l-276 -277h-198z" />
    <glyph glyph-name="sacute" unicode="&#x15b;" 
d="M613 -19q-98 0 -185 15.5t-154.5 52t-106 98.5t-38.5 156h247q0 -81 67 -112.5t171 -31.5q95 0 159 25t64 84q0 36 -25.5 59.5t-87 42t-172.5 37.5q-118 22 -207.5 58t-139.5 95.5t-50 150.5q0 78 36.5 132t99.5 86.5t144 47.5t168 15q90 0 171.5 -16t145 -52.5t100 -96
t36.5 -145.5h-246q0 72 -58.5 103.5t-145.5 31.5q-91 0 -142.5 -22t-51.5 -68q0 -27 23.5 -48.5t88.5 -42t189 -45.5q125 -24 210.5 -59t129.5 -92.5t44 -150.5q0 -109 -65 -177t-174.5 -99.5t-244.5 -31.5zM466 1106l197 277h287l-287 -277h-197z" />
    <glyph glyph-name="Scircumflex" unicode="&#x15c;" 
d="M619 -18q-151 0 -273 44.5t-193.5 140.5t-72.5 251h289q3 -80 36 -125.5t90 -65t129 -19.5q70 0 122.5 18t83 54t30.5 91q0 49 -26 82.5t-90.5 62t-182.5 62.5q-138 40 -239 88t-156 124.5t-55 198.5q0 132 63 214t173.5 121t254.5 39q140 0 254.5 -42t183.5 -129
t69 -222h-290q1 85 -60.5 129t-155.5 44q-95 0 -149 -36t-54 -102q0 -40 24.5 -70t91.5 -57.5t194 -64.5q153 -43 250 -93t143 -129t46 -207q0 -142 -71 -230.5t-191.5 -130t-267.5 -41.5zM282 1453l212 278h244l211 -278h-203l-129 160l-130 -160h-205z" />
    <glyph glyph-name="scircumflex" unicode="&#x15d;" 
d="M613 -19q-98 0 -185 15.5t-154.5 52t-106 98.5t-38.5 156h247q0 -81 67 -112.5t171 -31.5q95 0 159 25t64 84q0 36 -25.5 59.5t-87 42t-172.5 37.5q-118 22 -207.5 58t-139.5 95.5t-50 150.5q0 78 36.5 132t99.5 86.5t144 47.5t168 15q90 0 171.5 -16t145 -52.5t100 -96
t36.5 -145.5h-246q0 72 -58.5 103.5t-145.5 31.5q-91 0 -142.5 -22t-51.5 -68q0 -27 23.5 -48.5t88.5 -42t189 -45.5q125 -24 210.5 -59t129.5 -92.5t44 -150.5q0 -109 -65 -177t-174.5 -99.5t-244.5 -31.5zM275 1106l211 277h245l211 -277h-199l-135 147l-134 -147h-199z
" />
    <glyph glyph-name="Scedilla" unicode="&#x15e;" 
d="M619 -18q-151 0 -273 44.5t-193.5 140.5t-72.5 251h289q3 -80 36 -125.5t90 -65t129 -19.5q70 0 122.5 18t83 54t30.5 91q0 49 -26 82.5t-90.5 62t-182.5 62.5q-138 40 -239 88t-156 124.5t-55 198.5q0 132 63 214t173.5 121t254.5 39q140 0 254.5 -42t183.5 -129
t69 -222h-290q1 85 -60.5 129t-155.5 44q-95 0 -149 -36t-54 -102q0 -40 24.5 -70t91.5 -57.5t194 -64.5q153 -43 250 -93t143 -129t46 -207q0 -142 -71 -230.5t-191.5 -130t-267.5 -41.5zM625 -380q-72 0 -120.5 11.5t-91.5 28.5l35 118q35 -16 77.5 -25t86.5 -9
q33 0 53.5 14t20.5 40q0 27 -28 45t-104 30l-44 8l137 171l100 -36l-62 -81l-49 20q96 -3 155.5 -43t59.5 -121q0 -56 -30.5 -94t-82 -57.5t-113.5 -19.5z" />
    <glyph glyph-name="scedilla" unicode="&#x15f;" 
d="M613 -19q-98 0 -185 15.5t-154.5 52t-106 98.5t-38.5 156h247q0 -81 67 -112.5t171 -31.5q95 0 159 25t64 84q0 36 -25.5 59.5t-87 42t-172.5 37.5q-118 22 -207.5 58t-139.5 95.5t-50 150.5q0 78 36.5 132t99.5 86.5t144 47.5t168 15q90 0 171.5 -16t145 -52.5t100 -96
t36.5 -145.5h-246q0 72 -58.5 103.5t-145.5 31.5q-91 0 -142.5 -22t-51.5 -68q0 -27 23.5 -48.5t88.5 -42t189 -45.5q125 -24 210.5 -59t129.5 -92.5t44 -150.5q0 -109 -65 -177t-174.5 -99.5t-244.5 -31.5zM587 -380q-72 0 -120.5 11.5t-91.5 28.5l35 118q35 -16 77.5 -25
t86.5 -9q33 0 53.5 14t20.5 40q0 27 -28 45t-104 30l-44 8l137 171l100 -36l-62 -81l-49 20q96 -3 155.5 -43t59.5 -121q0 -56 -30.5 -94t-82 -57.5t-113.5 -19.5z" />
    <glyph glyph-name="Scaron" unicode="&#x160;" 
d="M619 -18q-151 0 -273 44.5t-193.5 140.5t-72.5 251h289q3 -80 36 -125.5t90 -65t129 -19.5q70 0 122.5 18t83 54t30.5 91q0 49 -26 82.5t-90.5 62t-182.5 62.5q-138 40 -239 88t-156 124.5t-55 198.5q0 132 63 214t173.5 121t254.5 39q140 0 254.5 -42t183.5 -129
t69 -222h-290q1 85 -60.5 129t-155.5 44q-95 0 -149 -36t-54 -102q0 -40 24.5 -70t91.5 -57.5t194 -64.5q153 -43 250 -93t143 -129t46 -207q0 -142 -71 -230.5t-191.5 -130t-267.5 -41.5zM494 1453l-212 278h203l130 -159l129 159h205l-211 -278h-244z" />
    <glyph glyph-name="scaron" unicode="&#x161;" 
d="M613 -19q-98 0 -185 15.5t-154.5 52t-106 98.5t-38.5 156h247q0 -81 67 -112.5t171 -31.5q95 0 159 25t64 84q0 36 -25.5 59.5t-87 42t-172.5 37.5q-118 22 -207.5 58t-139.5 95.5t-50 150.5q0 78 36.5 132t99.5 86.5t144 47.5t168 15q90 0 171.5 -16t145 -52.5t100 -96
t36.5 -145.5h-246q0 72 -58.5 103.5t-145.5 31.5q-91 0 -142.5 -22t-51.5 -68q0 -27 23.5 -48.5t88.5 -42t189 -45.5q125 -24 210.5 -59t129.5 -92.5t44 -150.5q0 -109 -65 -177t-174.5 -99.5t-244.5 -31.5zM487 1106l-212 277h199l134 -146l135 146h199l-211 -277h-244z
" />
    <glyph glyph-name="uni0162" unicode="&#x162;" 
d="M474 0v1112h-396v234h1073v-234h-394v-1112h-283zM577 -380q-72 0 -120.5 11.5t-91.5 28.5l35 118q35 -16 77.5 -25t86.5 -9q33 0 53.5 14t20.5 40q0 27 -28 45t-104 30l-44 8l137 171l100 -36l-62 -81l-49 20q96 -3 155.5 -43t59.5 -121q0 -56 -30.5 -94t-82 -57.5
t-113.5 -19.5z" />
    <glyph glyph-name="uni0163" unicode="&#x163;" 
d="M865 0q-163 0 -262.5 49t-145 140t-45.5 217v363h-301v207h301v237h265v-237h429v-207h-429v-347q0 -103 40 -158.5t157 -55.5h230v-208h-239zM666 -380q-72 0 -120.5 11.5t-91.5 28.5l35 118q35 -16 77.5 -25t86.5 -9q33 0 53.5 14t20.5 40q0 27 -28 45t-104 30l-44 8
l137 171l100 -36l-62 -81l-49 20q96 -3 155.5 -43t59.5 -121q0 -56 -30.5 -94t-82 -57.5t-113.5 -19.5z" />
    <glyph glyph-name="Tcaron" unicode="&#x164;" 
d="M474 0v1112h-396v234h1073v-234h-394v-1112h-283zM494 1454l-212 278h203l130 -159l129 159h205l-211 -278h-244z" />
    <glyph glyph-name="tcaron" unicode="&#x165;" 
d="M865 0q-163 0 -262.5 49t-145 140t-45.5 217v363h-301v207h301v237h265v-237h429v-207h-429v-347q0 -103 40 -158.5t157 -55.5h230v-208h-239zM788 1078l66 318h250l-150 -318h-166z" />
    <glyph glyph-name="Tbar" unicode="&#x166;" 
d="M260 522v224h712v-224h-712zM474 0v1112h-396v234h1073v-234h-394v-1112h-283z" />
    <glyph glyph-name="tbar" unicode="&#x167;" 
d="M195 440v143h784v-143h-784zM865 0q-163 0 -262.5 49t-145 140t-45.5 217v363h-301v207h301v237h265v-237h429v-207h-429v-347q0 -103 40 -158.5t157 -55.5h230v-208h-239z" />
    <glyph glyph-name="Utilde" unicode="&#x168;" 
d="M607 -19q-171 0 -280 57.5t-160 169t-51 272.5v866h289v-848q0 -148 52.5 -213.5t152.5 -65.5q106 0 159.5 65.5t53.5 213.5v848h290v-866q0 -161 -52.5 -272.5t-164 -169t-289.5 -57.5zM290 1462q11 114 61.5 175t140.5 61q43 0 81 -14.5t70 -28.5q31 -13 56 -23t45 -10
q25 0 39 17.5t17 59.5h140q-12 -113 -56.5 -169.5t-136.5 -56.5q-42 0 -78.5 12t-70.5 28q-33 14 -58.5 23t-45.5 9q-28 0 -44 -19t-21 -64h-139z" />
    <glyph glyph-name="utilde" unicode="&#x169;" 
d="M471 -14q-159 0 -241.5 90t-82.5 265v635h267v-601q0 -53 13.5 -92.5t46 -61.5t89.5 -22q81 0 141.5 37.5t102.5 89.5v650h267v-976h-257l-5 146q-49 -63 -130 -111.5t-211 -48.5zM292 1117q11 114 61.5 175t140.5 61q43 0 81 -14.5t71 -28.5q31 -13 55.5 -23t45.5 -10
q24 0 38 17.5t17 59.5h141q-13 -113 -57.5 -169.5t-135.5 -56.5q-42 0 -79 12t-71 28q-33 14 -58.5 23t-45.5 9q-28 0 -44 -19t-21 -64h-139z" />
    <glyph glyph-name="Umacron" unicode="&#x16a;" 
d="M607 -19q-171 0 -280 57.5t-160 169t-51 272.5v866h289v-848q0 -148 52.5 -213.5t152.5 -65.5q106 0 159.5 65.5t53.5 213.5v848h290v-866q0 -161 -52.5 -272.5t-164 -169t-289.5 -57.5zM335 1500v151h563v-151h-563z" />
    <glyph glyph-name="umacron" unicode="&#x16b;" 
d="M471 -14q-159 0 -241.5 90t-82.5 265v635h267v-601q0 -53 13.5 -92.5t46 -61.5t89.5 -22q81 0 141.5 37.5t102.5 89.5v650h267v-976h-257l-5 146q-49 -63 -130 -111.5t-211 -48.5zM335 1155v151h563v-151h-563z" />
    <glyph glyph-name="Ubreve" unicode="&#x16c;" 
d="M607 -19q-171 0 -280 57.5t-160 169t-51 272.5v866h289v-848q0 -148 52.5 -213.5t152.5 -65.5q106 0 159.5 65.5t53.5 213.5v848h290v-866q0 -161 -52.5 -272.5t-164 -169t-289.5 -57.5zM616 1455q-89 0 -158.5 33.5t-110 95.5t-42.5 146h150q5 -52 30 -81.5t60.5 -41.5
t70.5 -12q37 0 72 12t60.5 42t31.5 81h149q-2 -83 -43 -145t-110.5 -96t-159.5 -34z" />
    <glyph glyph-name="ubreve" unicode="&#x16d;" 
d="M471 -14q-159 0 -241.5 90t-82.5 265v635h267v-601q0 -53 13.5 -92.5t46 -61.5t89.5 -22q81 0 141.5 37.5t102.5 89.5v650h267v-976h-257l-5 146q-49 -63 -130 -111.5t-211 -48.5zM615 1105q-140 0 -217.5 75t-87.5 202h148q9 -78 56.5 -106t100.5 -28q54 0 101.5 28
t57.5 106h146q-10 -127 -87 -202t-218 -75z" />
    <glyph glyph-name="Uring" unicode="&#x16e;" 
d="M607 -19q-171 0 -280 57.5t-160 169t-51 272.5v866h289v-848q0 -148 52.5 -213.5t152.5 -65.5q106 0 159.5 65.5t53.5 213.5v848h290v-866q0 -161 -52.5 -272.5t-164 -169t-289.5 -57.5zM616 1380q-93 0 -153 55t-60 148q0 92 60 146.5t153 54.5t153.5 -54.5t60.5 -146.5
q0 -93 -60.5 -148t-153.5 -55zM616 1493q38 0 63 25.5t25 64.5q0 38 -25 63t-63 25t-62.5 -25t-24.5 -63q0 -39 24.5 -64.5t62.5 -25.5z" />
    <glyph glyph-name="uring" unicode="&#x16f;" 
d="M471 -14q-159 0 -241.5 90t-82.5 265v635h267v-601q0 -53 13.5 -92.5t46 -61.5t89.5 -22q81 0 141.5 37.5t102.5 89.5v650h267v-976h-257l-5 146q-49 -63 -130 -111.5t-211 -48.5zM616 1079q-92 0 -152.5 55t-60.5 148q0 92 60.5 146.5t152.5 54.5q94 0 154.5 -54.5
t60.5 -146.5q0 -93 -60.5 -148t-154.5 -55zM616 1192q39 0 63.5 25.5t24.5 64.5q0 38 -24.5 63t-63.5 25q-37 0 -62 -25t-25 -63q0 -39 25 -64.5t62 -25.5z" />
    <glyph glyph-name="Uhungarumlaut" unicode="&#x170;" 
d="M607 -19q-171 0 -280 57.5t-160 169t-51 272.5v866h289v-848q0 -148 52.5 -213.5t152.5 -65.5q106 0 159.5 65.5t53.5 213.5v848h290v-866q0 -161 -52.5 -272.5t-164 -169t-289.5 -57.5zM667 1453l187 277h204l-241 -277h-150zM345 1453l185 277h205l-241 -277h-149z" />
    <glyph glyph-name="uhungarumlaut" unicode="&#x171;" 
d="M471 -14q-159 0 -241.5 90t-82.5 265v635h267v-601q0 -53 13.5 -92.5t46 -61.5t89.5 -22q81 0 141.5 37.5t102.5 89.5v650h267v-976h-257l-5 146q-49 -63 -130 -111.5t-211 -48.5zM661 1106l187 277h204l-241 -277h-150zM339 1106l185 277h205l-241 -277h-149z" />
    <glyph glyph-name="Uogonek" unicode="&#x172;" 
d="M607 -19q-171 0 -280 57.5t-160 169t-51 272.5v866h289v-848q0 -148 52.5 -213.5t152.5 -65.5q106 0 159.5 65.5t53.5 213.5v848h290v-866q0 -161 -52.5 -272.5t-164 -169t-289.5 -57.5zM678 -376q-90 0 -151 45t-61 130q0 51 32 99.5t86.5 84.5t124.5 49l93 -26
q-72 -36 -105 -81t-33 -81q0 -26 16 -43t47 -17t62.5 7.5t66.5 22.5v-153q-35 -17 -75.5 -27t-102.5 -10z" />
    <glyph glyph-name="uogonek" unicode="&#x173;" 
d="M471 -14q-159 0 -241.5 90t-82.5 265v635h267v-601q0 -53 13.5 -92.5t46 -61.5t89.5 -22q81 0 141.5 37.5t102.5 89.5v650h267v-976h-257l-5 146q-49 -63 -130 -111.5t-211 -48.5zM890 -375q-90 0 -151 45t-61 130q0 51 32 99.5t86.5 84.5t124.5 49l93 -26
q-72 -36 -105 -81t-33 -81q0 -26 16 -43t47 -17t62.5 7.5t66.5 22.5v-153q-35 -17 -75.5 -27t-102.5 -10z" />
    <glyph glyph-name="Wcircumflex" unicode="&#x174;" 
d="M207 0l-205 1346h253l117 -1176l-27 -1l144 1177h269l148 -1175h-27l119 1175h229l-205 -1346h-272l-149 1189h30l-152 -1189h-272zM282 1453l212 278h244l211 -278h-203l-129 160l-130 -160h-205z" />
    <glyph glyph-name="wcircumflex" unicode="&#x175;" 
d="M226 0l-217 976h247l134 -806l-26 -1l126 807h269l130 -805h-26l130 805h229l-216 -976h-273l-131 819h30l-134 -819h-272zM282 1106l211 277h245l211 -277h-199l-135 147l-134 -147h-199z" />
    <glyph glyph-name="Ycircumflex" unicode="&#x176;" 
d="M469 0v503l-455 843h315l285 -583l285 583h316l-455 -843v-503h-291zM280 1454l212 278h244l211 -278h-203l-129 160l-130 -160h-205z" />
    <glyph glyph-name="ycircumflex" unicode="&#x177;" 
d="M188 -358v216h106q69 0 114 19t64 66l25 58l-429 975h278l317 -833l-56 -2l288 835h270l-440 -1087q-32 -84 -75.5 -138.5t-119 -81.5t-205.5 -27h-137zM286 1106l211 277h245l211 -277h-199l-135 147l-134 -147h-199z" />
    <glyph glyph-name="Ydieresis" unicode="&#x178;" 
d="M469 0v503l-455 843h315l285 -583l285 583h316l-455 -843v-503h-291zM806 1461q-51 0 -85.5 33t-34.5 85q0 51 34.5 84.5t85.5 33.5q52 0 87 -33.5t35 -84.5q0 -52 -35 -85t-87 -33zM422 1461q-51 0 -86 33t-35 85q0 51 34.5 84.5t86.5 33.5q51 0 86 -33.5t35 -84.5
q0 -52 -35 -85t-86 -33z" />
    <glyph glyph-name="Zacute" unicode="&#x179;" 
d="M101 0v223l630 887h-579v236h931v-211l-640 -899h684v-236h-1026zM486 1453l188 277h286l-276 -277h-198z" />
    <glyph glyph-name="zacute" unicode="&#x17a;" 
d="M156 0v193l562 578h-522v205h844v-186l-566 -583h599v-207h-917zM483 1106l197 277h287l-287 -277h-197z" />
    <glyph glyph-name="Zdotaccent" unicode="&#x17b;" 
d="M101 0v223l630 887h-579v236h931v-211l-640 -899h684v-236h-1026zM615 1461q-72 0 -110.5 36.5t-38.5 91.5q0 57 38.5 93.5t110.5 36.5q73 0 112.5 -36.5t39.5 -93.5q0 -55 -39.5 -91.5t-112.5 -36.5z" />
    <glyph glyph-name="zdotaccent" unicode="&#x17c;" 
d="M156 0v193l562 578h-522v205h844v-186l-566 -583h599v-207h-917zM624 1104q-72 0 -110.5 36.5t-38.5 92.5q0 57 38.5 93t110.5 36q73 0 112.5 -36t39.5 -93q0 -56 -39.5 -92.5t-112.5 -36.5z" />
    <glyph glyph-name="Zcaron" unicode="&#x17d;" 
d="M101 0v223l630 887h-579v236h931v-211l-640 -899h684v-236h-1026zM494 1453l-212 278h203l130 -159l129 159h205l-211 -278h-244z" />
    <glyph glyph-name="zcaron" unicode="&#x17e;" 
d="M156 0v193l562 578h-522v205h844v-186l-566 -583h599v-207h-917zM503 1106l-212 277h199l134 -146l135 146h199l-211 -277h-244z" />
    <glyph glyph-name="longs" unicode="&#x17f;" 
d="M458 0v769h-161v207h161v34q0 120 32.5 194.5t114.5 109t230 33.5l197 -1v-193h-188q-76 0 -98 -34t-22 -112v-1007h-266z" />
    <glyph glyph-name="uni0181" unicode="&#x181;" 
d="M315 0v1176q-70 -2 -103.5 -42.5t-33.5 -128.5v-115h-170v153q0 161 84.5 232t228.5 71h362q208 0 331 -81t123 -252q0 -108 -54 -185.5t-143 -106.5q121 -28 186.5 -115t65.5 -214q0 -130 -55 -217.5t-159.5 -131t-251.5 -43.5h-411zM586 216h132q56 0 102 18.5t73 60.5
t27 114q0 90 -53 133t-150 43h-131v-369zM586 801h111q81 0 124.5 46t43.5 126q0 81 -45 119t-123 38h-111v-329z" />
    <glyph glyph-name="uni0186" unicode="&#x186;" 
d="M597 -18q-153 0 -265 58.5t-176.5 172.5t-75.5 278h290q9 -132 67.5 -202.5t159.5 -70.5q102 0 159 60.5t80 163.5t23 230q0 128 -23 231t-80 164t-159 61q-58 0 -106 -27t-79.5 -80.5t-39.5 -134.5h-290q7 156 78.5 262.5t186 161t250.5 54.5q179 0 302.5 -85.5
t187 -241t63.5 -365.5t-63.5 -365t-187 -240t-302.5 -85z" />
    <glyph glyph-name="uni0189" unicode="&#x189;" 
d="M13 564v226h639v-226h-639zM110 0v1346h370q201 0 344 -77.5t218.5 -227.5t75.5 -368q0 -333 -169.5 -503t-468.5 -170h-370zM393 236h62q125 0 207.5 45.5t123 142t40.5 249.5q0 151 -43 247.5t-125.5 143t-202.5 46.5h-62v-874z" />
    <glyph glyph-name="uni018A" unicode="&#x18a;" 
d="M315 0v1176q-64 -3 -101 -43t-37 -128v-115h-170v95q0 128 32.5 207t101 116.5t174.5 37.5h327q258 0 400.5 -177t142.5 -492q0 -327 -144 -502t-399 -175h-327zM586 236h26q143 0 212 108.5t69 333.5q0 214 -71 323t-210 109h-26v-874z" />
    <glyph glyph-name="uni018E" unicode="&#x18e;" 
d="M142 0v234h661v338h-602v227h602v313h-661v234h944v-1346h-944z" />
    <glyph glyph-name="uni018F" unicode="&#x18f;" 
d="M612 -18q-167 0 -286 78t-183 243.5t-67 427.5l314 -208q5 -105 34.5 -172.5t77.5 -100.5t110 -33q88 0 142.5 57.5t79.5 160.5t25 239q0 137 -24.5 238.5t-77.5 158t-141 56.5q-104 0 -163.5 -57.5t-72.5 -170.5h-291q17 151 86.5 254.5t184.5 157t267 53.5
q168 0 285 -84t178.5 -238.5t61.5 -367.5q0 -210 -64 -365.5t-185 -241t-291 -85.5zM196 514l-120 217h976v-217h-856z" />
    <glyph glyph-name="uni0190" unicode="&#x190;" 
d="M617 -17q-162 0 -281.5 47.5t-184 139.5t-64.5 225t83.5 214.5t208.5 104.5q-118 30 -187.5 104.5t-69.5 191.5q0 123 67.5 201.5t178.5 116t241 37.5q141 0 253.5 -45.5t178 -138.5t65.5 -237h-274q1 87 -57.5 136.5t-165.5 49.5q-101 0 -157.5 -37t-56.5 -113
t56 -120.5t155 -44.5h126v-222h-109q-110 0 -177.5 -44t-67.5 -141t61.5 -144t178.5 -47q120 0 184.5 57.5t64.5 158.5h275q0 -153 -62 -252.5t-179 -148.5t-284 -49z" />
    <glyph glyph-name="uni0191" unicode="&#x191;" 
d="M36 -358v241h42q57 0 82 35.5t25 96.5v1331h894v-234h-610v-313h548v-225h-548v-560q0 -190 -90 -281t-281 -91h-62z" />
    <glyph glyph-name="florin" unicode="&#x192;" 
d="M228 -358v200h118q51 0 91 31t40 102l1 633h-297v207h297v174q0 126 43.5 204.5t141.5 115.5t260 37h123v-193h-115q-69 0 -110 -20t-59.5 -61t-18.5 -107v-150h305v-207h-305v-637q0 -158 -99 -243.5t-265 -85.5h-151z" />
    <glyph glyph-name="uni0194" unicode="&#x194;" 
d="M616 -16q-105 0 -176 34t-106.5 96.5t-35.5 147.5q0 74 27.5 148t81.5 161.5t132 200.5l40 58l17 7l290 509h314l-528 -797q-48 -76 -88 -152t-40 -129q0 -41 18 -64.5t54 -23.5q27 0 47.5 23t20.5 65q0 52 -37 129t-85 151l-534 798h322l288 -506l22 -14l39 -58
q80 -113 131.5 -198.5t76.5 -158t25 -149.5q0 -84 -35 -146.5t-105.5 -97t-175.5 -34.5z" />
    <glyph glyph-name="uni0198" unicode="&#x198;" 
d="M150 0v1346h283l-1 -642l296 10l474 -714h-320l-449 690v-690h-283zM432 704l260 358q72 100 132.5 162.5t132 92t172.5 29.5h39v-242h-29q-44 0 -79.5 -13.5t-71.5 -48t-85 -97.5l-175 -231z" />
    <glyph glyph-name="uni0199" unicode="&#x199;" 
d="M189 0v996l267 7v-476l380 449h289l-386 -449l414 -527h-297l-400 515v-515h-267zM189 996q0 171 78.5 260.5t243.5 89.5h138v-211h-73q-60 0 -90 -32t-30 -100z" />
    <glyph glyph-name="Ohorn" unicode="&#x1a0;" 
d="M1010 957l-32 110q70 22 112.5 59.5t49.5 99.5l14 -12q-52 0 -85 39.5t-33 98.5q0 64 34.5 101.5t90.5 37.5q63 0 101 -45t38 -136q0 -103 -42 -177t-108 -117.5t-140 -58.5zM615 -18q-181 0 -300.5 85t-178 240t-58.5 365t58.5 365.5t178 241t300.5 85.5
q179 0 298 -85.5t178.5 -241t59.5 -365.5t-59.5 -365t-178.5 -240t-298 -85zM615 217q95 0 148.5 62t75.5 165.5t22 227.5q0 125 -22 228.5t-75.5 165.5t-148.5 62q-97 0 -150.5 -61t-74.5 -164.5t-21 -230.5t21 -230.5t74.5 -164t150.5 -60.5z" />
    <glyph glyph-name="ohorn" unicode="&#x1a1;" 
d="M597 -18q-147 0 -260.5 59t-177 171.5t-63.5 272.5q0 163 63.5 277t177 174t260.5 60q148 0 262.5 -60t179.5 -174t65 -277q0 -160 -65 -272.5t-179.5 -171.5t-262.5 -59zM597 186q86 0 138.5 40.5t76 108.5t23.5 150q0 84 -23.5 154t-76 111.5t-138.5 41.5
q-84 0 -136 -41.5t-75 -111.5t-23 -154q0 -82 23 -150t75 -108.5t136 -40.5zM903 678l-29 110q98 21 157.5 58.5t71.5 99.5l14 -12q-49 0 -80.5 40t-31.5 99q0 63 33.5 101t86.5 38q61 0 96.5 -42t35.5 -127q0 -81 -30 -144t-81 -108.5t-114 -74t-129 -38.5z" />
    <glyph glyph-name="Uhorn" unicode="&#x1af;" 
d="M538 -19q-157 0 -256 57.5t-146 169t-47 272.5v866h255v-848q0 -139 50 -209t146 -70q102 0 153.5 70t51.5 209v848h255v-866q0 -161 -47.5 -272.5t-150 -169t-264.5 -57.5zM898 957l-30 110q114 22 183.5 59.5t82.5 99.5l14 -12q-49 0 -80.5 39.5t-31.5 98.5
q0 64 33.5 101.5t86.5 37.5q61 0 96.5 -42t35.5 -127q0 -80 -32.5 -143t-88.5 -109t-125.5 -74t-143.5 -39z" />
    <glyph glyph-name="uhorn" unicode="&#x1b0;" 
d="M402 -14q-144 0 -218.5 90t-74.5 265v635h267v-601q0 -53 10.5 -92.5t36 -61.5t71.5 -22q71 0 124 37.5t88 89.5v650h267v-976h-257l-5 146q-45 -63 -118.5 -111.5t-190.5 -48.5zM893 668l-12 120q104 21 163 58.5t71 99.5l13 -12q-49 0 -80 40t-31 99q0 63 33.5 101
t85.5 38q61 0 97 -42t36 -127q0 -81 -30.5 -144t-83.5 -109.5t-120 -77t-142 -44.5z" />
    <glyph glyph-name="uni01B2" unicode="&#x1b2;" 
d="M613 -24q-174 0 -284 65.5t-161.5 191t-51.5 302.5v811h289v-804q0 -160 51 -242.5t159 -82.5t158 82.5t50 242.5v355l290 3v-365q0 -177 -52 -302.5t-162.5 -191t-285.5 -65.5zM823 897q0 114 -44.5 161t-137.5 47h-32v243h52q235 0 343.5 -108.5t108.5 -339.5z" />
    <glyph glyph-name="uni01B3" unicode="&#x1b3;" 
d="M475 0v503l-455 843h318l283 -586l145 -257v-503h-291zM766 503l-238 47l224 522q46 106 100 165.5t127 84t176 24.5h54v-242h-30q-52 0 -91 -15.5t-72 -57t-68 -120.5z" />
    <glyph glyph-name="uni01B4" unicode="&#x1b4;" 
d="M140 -358v216h88q57 0 90.5 21.5t51.5 68.5l21 52l-380 976h277l247 -702l251 800q30 102 77.5 157t118.5 76t171 21h64v-217h-33q-56 0 -90.5 -23t-60.5 -90l-385 -1109q-35 -96 -84 -150t-122 -75.5t-182 -21.5h-120z" />
    <glyph glyph-name="uni01B7" unicode="&#x1b7;" 
d="M612 -17q-166 0 -283.5 49t-179.5 148.5t-62 252.5h274q0 -101 65.5 -158.5t184.5 -57.5q110 0 174.5 51t64.5 160q0 110 -80 158t-212 48h-160v207h207q158 0 279 -44.5t189.5 -136t68.5 -232.5q0 -144 -64.5 -243t-183.5 -150.5t-282 -51.5zM594 733l-196 108l320 271
h-550v234h901v-225z" />
    <glyph glyph-name="uni01DD" unicode="&#x1dd;" 
d="M596 994q164 0 281 -60.5t179.5 -174.5t62.5 -274q0 -155 -61 -266.5t-175 -172.5t-274 -61q-229 0 -363 126t-134 366q0 13 1 30.5t3 27.5h738q-2 73 -28 135.5t-83 100t-151 37.5q-103 0 -164 -38.5t-64 -116.5h-251q6 114 66.5 190t167 113.5t249.5 37.5zM849 377
h-474q5 -107 68.5 -160t165.5 -53q104 0 166 54.5t74 158.5z" />
    <glyph glyph-name="Gcaron" unicode="&#x1e6;" 
d="M640 -18q-181 0 -306 84t-190 239t-65 367q0 213 65 368t190 239.5t306 84.5q127 0 234.5 -48.5t176.5 -150.5t79 -262h-289q-6 63 -29 114t-67 81t-111 30q-101 0 -159 -60.5t-82.5 -163.5t-24.5 -232q0 -128 27 -231.5t87 -163.5t158 -60q82 0 132.5 38t74 103
t23.5 145h-235v220h515v-126q0 -185 -54.5 -323.5t-167.5 -215t-288 -76.5zM513 1453l-212 278h203l130 -159l129 159h205l-211 -278h-244z" />
    <glyph glyph-name="gcaron" unicode="&#x1e7;" 
d="M600 -377q-191 0 -303.5 35.5t-161.5 94t-49 124.5q0 85 89 148.5t283 87.5l44 95h156q254 0 369 -67.5t115 -205.5q0 -140 -139 -226t-403 -86zM596 -211q159 0 224.5 35.5t65.5 88.5q0 33 -22.5 55.5t-76 34.5t-145.5 12h-179q-68 -16 -102.5 -45t-34.5 -67
q0 -42 58.5 -78t211.5 -36zM463 19q-122 13 -196.5 43t-108 70.5t-33.5 82.5q0 58 55.5 101t173.5 76l112 -49q-36 -7 -68 -18t-53 -25.5t-21 -33.5t26 -32t91 -19.5t182 -6.5zM581 311q-139 0 -236.5 47t-148.5 123.5t-51 166.5q0 94 51 171.5t150 123t242 45.5
q146 0 243 -45.5t145 -123t48 -171.5q0 -92 -49 -168t-147.5 -122.5t-246.5 -46.5zM586 471q82 0 136 44.5t54 132.5q0 92 -52 136.5t-135 44.5q-84 0 -139 -45.5t-55 -135.5q0 -59 26 -98t69.5 -59t95.5 -20zM874 839l-78 100q46 129 144.5 175.5t236.5 48.5v-195
q-65 0 -124 -8.5t-105.5 -35.5t-73.5 -85zM449 1106l-212 277h199l134 -146l135 146h199l-211 -277h-244z" />
    <glyph glyph-name="uni01EA" unicode="&#x1ea;" 
d="M615 -18q-181 0 -300.5 85t-178 240t-58.5 365t58.5 365.5t178 241t300.5 85.5q179 0 298 -85.5t178.5 -241t59.5 -365.5t-59.5 -365t-178.5 -240t-298 -85zM615 217q95 0 148.5 62t75.5 165.5t22 227.5q0 125 -22 228.5t-75.5 165.5t-148.5 62q-97 0 -150.5 -61
t-74.5 -164.5t-21 -230.5t21 -230.5t74.5 -164t150.5 -60.5zM647 -379q-90 0 -151 45t-61 130q0 51 32 99.5t86.5 84.5t124.5 49l93 -26q-72 -36 -105 -81t-33 -81q0 -26 16 -43t47 -17t62.5 7.5t66.5 22.5v-153q-35 -17 -75.5 -27t-102.5 -10z" />
    <glyph glyph-name="uni01EB" unicode="&#x1eb;" 
d="M612 -18q-147 0 -260.5 59t-177.5 171.5t-64 272.5q0 163 64 277t177.5 174t260.5 60q148 0 262.5 -60t179.5 -174t65 -277q0 -160 -65 -272.5t-179.5 -171.5t-262.5 -59zM612 186q86 0 138 40.5t76 108.5t24 150q0 84 -24 154t-76 111.5t-138 41.5q-84 0 -136 -41.5
t-75.5 -111.5t-23.5 -154q0 -82 23.5 -150t75.5 -108.5t136 -40.5zM677 -371q-90 0 -151 45t-61 130q0 51 32 99.5t86.5 84.5t124.5 49l93 -26q-72 -36 -105 -81t-33 -81q0 -26 16 -43t47 -17t62.5 7.5t66.5 22.5v-153q-35 -17 -75.5 -27t-102.5 -10z" />
    <glyph glyph-name="uni01F8" unicode="&#x1f8;" 
d="M143 0v1346h279l475 -1023l-66 -7v1030h255v-1346h-277l-479 1028l67 8v-1036h-254zM547 1453l-278 277h286l188 -277h-196z" />
    <glyph glyph-name="uni01F9" unicode="&#x1f9;" 
d="M155 0v976h257l5 -145q49 62 130 110.5t211 48.5q159 0 241.5 -89.5t82.5 -265.5v-635h-267v601q0 54 -13.5 93t-46 61t-89.5 22q-81 0 -141.5 -37t-102.5 -90v-650h-267zM564 1106l-287 277h287l197 -277h-197z" />
    <glyph glyph-name="Aringacute" unicode="&#x1fa;" 
d="M29 0l437 1346h298l436 -1346h-277l-343 1181h68l-344 -1181h-275zM268 296v218h689v-218h-689zM612 1235q-93 0 -153 55t-60 148q0 92 60 146.5t153 54.5t153.5 -54.5t60.5 -146.5q0 -93 -60.5 -148t-153.5 -55zM612 1348q38 0 63 25.5t25 64.5q0 38 -25 63t-63 25
t-62.5 -25t-24.5 -63q0 -39 24.5 -64.5t62.5 -25.5zM481 1679l188 277h286l-276 -277h-198z" />
    <glyph glyph-name="aringacute" unicode="&#x1fb;" 
d="M467 -17q-87 0 -163.5 32t-124.5 96.5t-48 162.5q0 135 85 203t240.5 93t366.5 29v51q0 93 -51.5 128t-131.5 35q-91 0 -148 -37t-57 -120h-250q0 120 57.5 194t160 107.5t237.5 33.5q97 0 178.5 -16t140.5 -54t91.5 -102.5t32.5 -163.5v-655h-249l-9 128
q-67 -66 -153 -105.5t-205 -39.5zM550 167q90 0 158.5 36t110.5 88v163q-234 -3 -328.5 -41t-94.5 -121q0 -58 40 -91.5t114 -33.5zM651 1079q-92 0 -152.5 55t-60.5 148q0 92 60.5 146.5t152.5 54.5q94 0 154.5 -54.5t60.5 -146.5q0 -93 -60.5 -148t-154.5 -55zM651 1192
q39 0 63.5 25.5t24.5 64.5q0 38 -24.5 63t-63.5 25q-37 0 -62 -25t-25 -63q0 -39 25 -64.5t62 -25.5zM511 1507l197 277h287l-287 -277h-197z" />
    <glyph glyph-name="AEacute" unicode="&#x1fc;" 
d="M14 0l422 1346h276l9 -249h-135l-300 -1097h-272zM320 294v235h468v-235h-468zM639 0v1346h576v-234h-304v-313h244v-227h-244v-338h304v-234h-576zM648 1453l188 277h286l-276 -277h-198z" />
    <glyph glyph-name="aeacute" unicode="&#x1fd;" 
d="M867 -18q-114 0 -196.5 60.5t-127 174.5t-44.5 274q0 155 43 266.5t123.5 172.5t192.5 61q172 0 258 -119.5t86 -347.5q0 -22 -1 -45t-3 -29h-492q2 -85 19 -152.5t54 -107t98 -39.5q57 0 91.5 42.5t34.5 129.5h198q-6 -171 -95 -256t-239 -85zM285 -17
q-121 0 -190.5 78.5t-69.5 209.5q0 130 61 197.5t168.5 93t248.5 27.5v65q0 101 -34 139t-87 38q-52 0 -87.5 -40.5t-35.5 -133.5h-197q4 173 88.5 253t235.5 80q87 0 149 -22.5t100 -68.5t49 -118l-118 -323q-177 -4 -252.5 -44t-75.5 -127q0 -68 27 -103t75 -35
q72 0 131.5 49t100.5 138l88 -58q-26 -89 -80 -155.5t-129 -103t-166 -36.5zM711 590h280q-2 127 -39 183t-94 56q-63 0 -102 -59t-45 -180zM476 1106l197 277h287l-287 -277h-197z" />
    <glyph glyph-name="Oslashacute" unicode="&#x1fe;" 
d="M282 -66l-148 86l815 1393l149 -83zM615 -18q-181 0 -300.5 85t-178 240t-58.5 365t58.5 365.5t178 241t300.5 85.5q179 0 298 -85.5t178.5 -241t59.5 -365.5t-59.5 -365t-178.5 -240t-298 -85zM615 217q95 0 148.5 62t75.5 165.5t22 227.5q0 125 -22 228.5t-75.5 165.5
t-148.5 62q-97 0 -150.5 -61t-74.5 -164.5t-21 -230.5t21 -230.5t74.5 -164t150.5 -60.5zM486 1453l188 277h286l-276 -277h-198z" />
    <glyph glyph-name="oslashacute" unicode="&#x1ff;" 
d="M219 -94l-107 94l897 1062l105 -93zM612 -17q-148 0 -259.5 58.5t-172.5 171t-61 271.5q0 160 61 273t172.5 172t259.5 59q150 0 261.5 -59t174 -172t62.5 -273q0 -159 -62.5 -271.5t-174 -171t-261.5 -58.5zM612 176q91 0 143 42t74.5 112t22.5 154q0 85 -22.5 155.5
t-74.5 113t-143 42.5q-89 0 -141 -42.5t-73.5 -113t-21.5 -155.5q0 -84 21.5 -154t73.5 -112t141 -42zM470 1106l197 277h287l-287 -277h-197z" />
    <glyph glyph-name="uni0218" unicode="&#x218;" 
d="M619 -18q-151 0 -273 44.5t-193.5 140.5t-72.5 251h289q3 -80 36 -125.5t90 -65t129 -19.5q70 0 122.5 18t83 54t30.5 91q0 49 -26 82.5t-90.5 62t-182.5 62.5q-138 40 -239 88t-156 124.5t-55 198.5q0 132 63 214t173.5 121t254.5 39q140 0 254.5 -42t183.5 -129
t69 -222h-290q1 85 -60.5 129t-155.5 44q-95 0 -149 -36t-54 -102q0 -40 24.5 -70t91.5 -57.5t194 -64.5q153 -43 250 -93t143 -129t46 -207q0 -142 -71 -230.5t-191.5 -130t-267.5 -41.5zM507 -410l-20 79q48 9 81.5 30t43.5 47q-58 2 -88.5 30t-30.5 69q0 38 31.5 67
t91.5 29q59 0 94.5 -33t35.5 -94q0 -92 -70 -153t-169 -71z" />
    <glyph glyph-name="uni0219" unicode="&#x219;" 
d="M613 -19q-98 0 -185 15.5t-154.5 52t-106 98.5t-38.5 156h247q0 -81 67 -112.5t171 -31.5q95 0 159 25t64 84q0 36 -25.5 59.5t-87 42t-172.5 37.5q-118 22 -207.5 58t-139.5 95.5t-50 150.5q0 78 36.5 132t99.5 86.5t144 47.5t168 15q90 0 171.5 -16t145 -52.5t100 -96
t36.5 -145.5h-246q0 72 -58.5 103.5t-145.5 31.5q-91 0 -142.5 -22t-51.5 -68q0 -27 23.5 -48.5t88.5 -42t189 -45.5q125 -24 210.5 -59t129.5 -92.5t44 -150.5q0 -109 -65 -177t-174.5 -99.5t-244.5 -31.5zM507 -410l-20 79q48 9 81.5 30t43.5 47q-58 2 -88.5 30t-30.5 69
q0 38 31.5 67t91.5 29q59 0 94.5 -33t35.5 -94q0 -92 -70 -153t-169 -71z" />
    <glyph glyph-name="uni021A" unicode="&#x21a;" 
d="M474 0v1112h-396v234h1073v-234h-394v-1112h-283zM507 -410l-20 79q48 9 81.5 30t43.5 47q-58 2 -88.5 30t-30.5 69q0 38 31.5 67t91.5 29q59 0 94.5 -33t35.5 -94q0 -92 -70 -153t-169 -71z" />
    <glyph glyph-name="uni021B" unicode="&#x21b;" 
d="M865 0q-163 0 -262.5 49t-145 140t-45.5 217v363h-301v207h301v237h265v-237h429v-207h-429v-347q0 -103 40 -158.5t157 -55.5h230v-208h-239zM549 -410l-20 79q48 9 81.5 30t43.5 47q-58 2 -88.5 30t-30.5 69q0 38 31.5 67t91.5 29q59 0 94.5 -33t35.5 -94
q0 -92 -70 -153t-169 -71z" />
    <glyph glyph-name="uni0232" unicode="&#x232;" 
d="M469 0v503l-455 843h315l285 -583l285 583h316l-455 -843v-503h-291zM332 1501v151h563v-151h-563z" />
    <glyph glyph-name="uni0233" unicode="&#x233;" 
d="M188 -358v216h106q69 0 114 19t64 66l25 58l-429 975h278l317 -833l-56 -2l288 835h270l-440 -1087q-32 -84 -75.5 -138.5t-119 -81.5t-205.5 -27h-137zM337 1155v151h563v-151h-563z" />
    <glyph glyph-name="uni0237" unicode="&#x237;" 
d="M258 -358v208h238q83 0 128.5 25t63 73t17.5 116v705h-330v207h596v-928q0 -126 -47 -217t-149.5 -140t-269.5 -49h-247z" />
    <glyph glyph-name="uni0253" unicode="&#x253;" 
d="M710 -18q-97 0 -169.5 38t-128.5 113l-9 -133h-248v988l266 12v-166q52 73 129 115.5t182 42.5q119 0 206.5 -55.5t136.5 -168t49 -282.5q0 -168 -52 -280.5t-145 -168t-217 -55.5zM643 186q103 0 157.5 77t54.5 227q0 152 -52 226.5t-152 74.5q-86 0 -143.5 -49.5
t-86.5 -107.5v-305q30 -57 85 -100t137 -43zM155 988q0 190 82.5 274t248.5 84h123v-211h-66q-61 0 -91.5 -31.5t-30.5 -103.5z" />
    <glyph glyph-name="uni0254" unicode="&#x254;" 
d="M596 -18q-130 0 -231 44.5t-159.5 131.5t-61.5 214h258q2 -90 53.5 -138t138.5 -48q118 0 171.5 77t53.5 219q0 146 -53.5 226t-171.5 80q-86 0 -132.5 -44.5t-49.5 -118.5h-260q2 123 61 204.5t159 122.5t224 41q142 0 252 -57.5t173.5 -171t63.5 -282.5
q0 -168 -65.5 -279t-176 -166t-247.5 -55z" />
    <glyph glyph-name="uni0256" unicode="&#x256;" 
d="M500 -17q-123 0 -211 56t-135 168.5t-47 280.5t50.5 280.5t143 168.5t219.5 56q105 0 177 -43t112 -111v507h267v-1337l-267 6l-1 123q-51 -71 -126 -113t-182 -42zM1131 -321q-166 0 -244 86.5t-78 249.5l267 -6q-2 -61 29.5 -90.5t91.5 -29.5h39v-210h-105zM578 185
q89 0 146 46.5t85 101.5v305q-29 61 -84.5 106.5t-138.5 45.5q-100 0 -155.5 -78t-55.5 -227q0 -152 53 -226t150 -74z" />
    <glyph glyph-name="uni0257" unicode="&#x257;" 
d="M501 -17q-123 0 -211 56t-135 168.5t-47 280.5t50.5 280.5t143 168.5t219.5 56q104 0 176 -43t113 -111l1 150l266 9l-1 -998h-255l-12 138q-53 -71 -127 -113t-181 -42zM578 185q89 0 146 46.5t86 101.5v305q-30 61 -85.5 106.5t-137.5 45.5q-101 0 -156 -78t-55 -227
q0 -152 53 -226t149 -74zM811 989q0 190 83 273.5t252 83.5h89v-211h-32q-64 0 -95.5 -32.5t-30.5 -104.5z" />
    <glyph glyph-name="uni0259" unicode="&#x259;" 
d="M596 994q164 0 281 -60.5t179.5 -174.5t62.5 -274q0 -155 -61 -266.5t-175 -172.5t-274 -61q-229 0 -363 126t-134 366q0 13 1 30.5t3 27.5h738q-2 73 -28 135.5t-83 100t-151 37.5q-103 0 -164 -38.5t-64 -116.5h-251q6 114 66.5 190t167 113.5t249.5 37.5zM849 377
h-474q5 -107 68.5 -160t165.5 -53q104 0 166 54.5t74 158.5z" />
    <glyph glyph-name="uni025B" unicode="&#x25b;" 
d="M603 -16q-222 0 -351 70.5t-129 221.5q0 95 63.5 152.5t191.5 83.5q-119 25 -165.5 85.5t-46.5 127.5q0 63 41 123.5t138 100.5t264 40q207 0 325 -73t128 -232h-248q0 55 -54 89.5t-151 34.5q-103 0 -147 -29.5t-44 -74.5q0 -51 54 -80.5t137 -29.5h110v-171h-105
q-114 0 -171.5 -30.5t-57.5 -95.5q0 -63 58.5 -92t159.5 -29q122 0 188 36t67 112h248q-5 -111 -64.5 -187t-169.5 -114.5t-269 -38.5z" />
    <glyph glyph-name="uni0263" unicode="&#x263;" 
d="M486 232l-402 744h278l253 -514l260 514h270l-391 -744h-268zM614 -188q41 0 58 25t17 65q0 41 -17 97.5t-58 110.5q-36 -54 -51.5 -110.5t-15.5 -97.5q0 -40 15.5 -65t51.5 -25zM614 -358q-138 0 -213 70.5t-75 188.5q0 69 34 154.5t99.5 179.5t156.5 188
q96 -94 161 -187.5t99 -179t34 -155.5q0 -118 -76.5 -188.5t-219.5 -70.5z" />
    <glyph glyph-name="uni0283" unicode="&#x283;" 
d="M203 -338v206h160q76 0 97.5 34t21.5 100v1003q0 121 31.5 195.5t113.5 109t231 34.5h168v-206h-161q-76 0 -97 -36t-21 -113v-987q0 -120 -32 -195t-113.5 -110t-231.5 -35h-167z" />
    <glyph glyph-name="uni028B" unicode="&#x28b;" 
d="M609 -11q-147 0 -252 49.5t-160.5 144t-55.5 229.5v564h264v-531q0 -77 20 -131t64 -82t115 -28q80 0 127.5 26t68.5 80t21 138h267q0 -153 -58 -255t-165 -153t-256 -51zM821 448l1 182q2 76 -20 112t-98 36h-25v207h33q149 0 230.5 -35t113.5 -109.5t32 -194.5v-198
h-267z" />
    <glyph glyph-name="uni0292" unicode="&#x292;" 
d="M602 -379q-233 0 -357.5 98.5t-124.5 287.5h248q0 -86 60 -138t173 -52q121 0 182.5 54.5t61.5 173.5q0 115 -82.5 171t-224.5 56h-154v178l351 321h-530v205h838v-186l-383 -351q132 0 233 -45t158 -133t57 -216q0 -135 -61 -229.5t-174.5 -144.5t-270.5 -50z" />
    <glyph glyph-name="circumflex" unicode="&#x2c6;" 
d="M330 1106l211 277h245l211 -277h-199l-135 147l-134 -147h-199z" />
    <glyph glyph-name="caron" unicode="&#x2c7;" 
d="M493 1106l-212 277h199l134 -146l135 146h199l-211 -277h-244z" />
    <glyph glyph-name="breve" unicode="&#x2d8;" 
d="M614 1105q-140 0 -217.5 75t-87.5 202h148q9 -78 56.5 -106t100.5 -28q54 0 101.5 28t57.5 106h146q-10 -127 -87 -202t-218 -75z" />
    <glyph glyph-name="dotaccent" unicode="&#x2d9;" 
d="M613 1104q-72 0 -110.5 36.5t-38.5 92.5q0 57 38.5 93t110.5 36q73 0 112.5 -36t39.5 -93q0 -56 -39.5 -92.5t-112.5 -36.5z" />
    <glyph glyph-name="ring" unicode="&#x2da;" 
d="M613 1079q-92 0 -152.5 55t-60.5 148q0 92 60.5 146.5t152.5 54.5q94 0 154.5 -54.5t60.5 -146.5q0 -93 -60.5 -148t-154.5 -55zM613 1192q39 0 63.5 25.5t24.5 64.5q0 38 -24.5 63t-63.5 25q-37 0 -62 -25t-25 -63q0 -39 25 -64.5t62 -25.5z" />
    <glyph glyph-name="ogonek" unicode="&#x2db;" 
d="M631 -377q-90 0 -151 45t-61 130q0 51 32 99.5t86.5 84.5t124.5 49l93 -26q-72 -36 -105 -81t-33 -81q0 -26 16 -43t47 -17t62.5 7.5t66.5 22.5v-153q-35 -17 -75.5 -27t-102.5 -10z" />
    <glyph glyph-name="tilde" unicode="&#x2dc;" 
d="M337 1117q11 114 61.5 175t140.5 61q43 0 81 -14.5t71 -28.5q31 -13 55.5 -23t45.5 -10q24 0 38 17.5t17 59.5h141q-13 -113 -57.5 -169.5t-135.5 -56.5q-42 0 -79 12t-71 28q-33 14 -58.5 23t-45.5 9q-28 0 -44 -19t-21 -64h-139z" />
    <glyph glyph-name="hungarumlaut" unicode="&#x2dd;" 
d="M580 1106l187 277h204l-241 -277h-150zM258 1106l185 277h205l-241 -277h-149z" />
    <glyph glyph-name="gravecomb" unicode="&#x300;" horiz-adv-x="0" 
d="M659 1106l-287 277h287l197 -277h-197z" />
    <glyph glyph-name="acutecomb" unicode="&#x301;" horiz-adv-x="0" 
d="M372 1106l197 277h287l-287 -277h-197z" />
    <glyph glyph-name="uni0302" unicode="&#x302;" horiz-adv-x="0" 
d="M281 1106l211 277h245l211 -277h-199l-135 147l-134 -147h-199z" />
    <glyph glyph-name="tildecomb" unicode="&#x303;" horiz-adv-x="0" 
d="M289 1117q11 114 61.5 175t140.5 61q43 0 81 -14.5t71 -28.5q31 -13 55.5 -23t45.5 -10q24 0 38 17.5t17 59.5h141q-13 -113 -57.5 -169.5t-135.5 -56.5q-42 0 -79 12t-71 28q-33 14 -58.5 23t-45.5 9q-28 0 -44 -19t-21 -64h-139z" />
    <glyph glyph-name="uni0304" unicode="&#x304;" horiz-adv-x="0" 
d="M333 1155v151h563v-151h-563z" />
    <glyph glyph-name="uni0306" unicode="&#x306;" horiz-adv-x="0" 
d="M614 1105q-140 0 -217.5 75t-87.5 202h148q9 -78 56.5 -106t100.5 -28q54 0 101.5 28t57.5 106h146q-10 -127 -87 -202t-218 -75z" />
    <glyph glyph-name="uni0307" unicode="&#x307;" horiz-adv-x="0" 
d="M613 1104q-72 0 -110.5 36.5t-38.5 92.5q0 57 38.5 93t110.5 36q73 0 112.5 -36t39.5 -93q0 -56 -39.5 -92.5t-112.5 -36.5z" />
    <glyph glyph-name="uni0308" unicode="&#x308;" horiz-adv-x="0" 
d="M806 1115q-51 0 -85.5 33t-34.5 85t34.5 85t85.5 33q52 0 87 -33t35 -85t-35 -85t-87 -33zM422 1115q-51 0 -86 33t-35 85t34.5 85t86.5 33q51 0 86 -33t35 -85t-35 -85t-86 -33z" />
    <glyph glyph-name="hookabovecomb" unicode="&#x309;" horiz-adv-x="0" 
d="M537 1116l-58 82q36 10 66 31t30 53q0 36 -26.5 47.5t-73.5 11.5h-23v121h43q142 0 212 -37t70 -119q0 -52 -32.5 -91.5t-86.5 -64t-121 -34.5zM479 1198l147 -36v-94h-147v130z" />
    <glyph glyph-name="uni030A" unicode="&#x30a;" horiz-adv-x="0" 
d="M613 1079q-92 0 -152.5 55t-60.5 148q0 92 60.5 146.5t152.5 54.5q94 0 154.5 -54.5t60.5 -146.5q0 -93 -60.5 -148t-154.5 -55zM613 1192q39 0 63.5 25.5t24.5 64.5q0 38 -24.5 63t-63.5 25q-37 0 -62 -25t-25 -63q0 -39 25 -64.5t62 -25.5z" />
    <glyph glyph-name="uni030B" unicode="&#x30b;" horiz-adv-x="0" 
d="M580 1106l187 277h204l-241 -277h-150zM258 1106l185 277h205l-241 -277h-149z" />
    <glyph glyph-name="uni030C" unicode="&#x30c;" horiz-adv-x="0" 
d="M493 1106l-212 277h199l134 -146l135 146h199l-211 -277h-244z" />
    <glyph glyph-name="uni0312" unicode="&#x312;" horiz-adv-x="0" 
d="M617 1108q-64 0 -102.5 35t-38.5 103q0 69 34 123t91 87.5t126 39.5l22 -87q-43 -11 -75.5 -35t-50.5 -57q59 -7 90 -34t31 -72q0 -42 -35 -72.5t-92 -30.5z" />
    <glyph glyph-name="uni031B" unicode="&#x31b;" horiz-adv-x="0" 
d="M442 661l-20 116q92 23 146 63.5t64 108.5l14 -12q-65 0 -106 40.5t-41 99.5q0 63 40.5 100.5t106.5 37.5q72 0 116.5 -45t44.5 -136q0 -80 -30.5 -143.5t-82 -110.5t-117 -76.5t-135.5 -42.5z" />
    <glyph glyph-name="dotbelowcomb" unicode="&#x323;" horiz-adv-x="0" 
d="M564 -344q-73 0 -111.5 36.5t-38.5 92.5q0 57 38.5 93t111.5 36t112 -36t39 -93q0 -56 -39 -92.5t-112 -36.5z" />
    <glyph glyph-name="uni0326" unicode="&#x326;" horiz-adv-x="0" 
d="M506 -410l-20 79q48 9 81.5 30t43.5 47q-58 2 -88.5 30t-30.5 69q0 38 31.5 67t91.5 29q59 0 94.5 -33t35.5 -94q0 -92 -70 -153t-169 -71z" />
    <glyph glyph-name="uni0327" unicode="&#x327;" horiz-adv-x="0" 
d="M603 -380q-72 0 -120.5 11.5t-91.5 28.5l35 118q35 -16 77.5 -25t86.5 -9q33 0 53.5 14t20.5 40q0 27 -28 45t-104 30l-44 8l137 171l100 -36l-62 -81l-49 20q96 -3 155.5 -43t59.5 -121q0 -56 -30.5 -94t-82 -57.5t-113.5 -19.5z" />
    <glyph glyph-name="uni0328" unicode="&#x328;" horiz-adv-x="0" 
d="M631 -377q-90 0 -151 45t-61 130q0 51 32 99.5t86.5 84.5t124.5 49l93 -26q-72 -36 -105 -81t-33 -81q0 -26 16 -43t47 -17t62.5 7.5t66.5 22.5v-153q-35 -17 -75.5 -27t-102.5 -10z" />
    <glyph glyph-name="uni0335" unicode="&#x335;" horiz-adv-x="0" 
d="M321 369v143h586v-143h-586z" />
    <glyph glyph-name="uni0336" unicode="&#x336;" horiz-adv-x="0" 
d="M239 564v226h751v-226h-751z" />
    <glyph glyph-name="uni0345" unicode="&#x345;" horiz-adv-x="0" 
d="M657 -358q-106 0 -136.5 50t-30.5 130v123h164v-89q0 -40 10 -62t52 -22h22v-130h-81z" />
    <glyph glyph-name="uni0370" unicode="&#x370;" 
d="M269 0v1346h283v-526h408v-249h-408v-571h-283z" />
    <glyph glyph-name="uni0371" unicode="&#x371;" 
d="M313 0v976h266v-976h-266zM482 397v205h468v-205h-468z" />
    <glyph glyph-name="uni0372" unicode="&#x372;" 
d="M472 0v1110h-329v236h1011v-236h-399v-1110h-283zM75 881v465h205v-465h-205zM947 881v465h207v-465h-207z" />
    <glyph glyph-name="uni0373" unicode="&#x373;" 
d="M843 1q-149 0 -230.5 35t-113.5 110t-32 194v431h-148v-192h-216v397h1022v-397h-216v192h-176v-415q0 -76 21.5 -112t98.5 -36h113v-207h-123z" />
    <glyph glyph-name="uni0374" unicode="&#x374;" 
d="M372 1106l197 277h287l-287 -277h-197z" />
    <glyph glyph-name="uni0375" unicode="&#x375;" 
d="M372 -139l197 277h287l-287 -277h-197z" />
    <glyph glyph-name="uni0376" unicode="&#x376;" 
d="M143 0v1346h255v-921l423 921h265v-1346h-254v929l-422 -929h-267z" />
    <glyph glyph-name="uni0377" unicode="&#x377;" 
d="M148 0v976h247v-628l439 628h247v-976h-247v630l-439 -630h-247z" />
    <glyph glyph-name="uni037A" unicode="&#x37a;" 
d="M657 -358q-106 0 -136.5 50t-30.5 130v123h164v-89q0 -40 10 -62t52 -22h22v-130h-81z" />
    <glyph glyph-name="uni037B" unicode="&#x37b;" 
d="M597 -18q-144 0 -251 44.5t-166.5 131.5t-63.5 214h259q2 -90 61 -138t159 -48q133 0 192 77t59 219q0 146 -59 225.5t-192 79.5q-100 0 -153 -44t-58 -118h-259q2 123 62 204.5t166 122t244 40.5q156 0 272 -59t180 -173.5t64 -277.5q0 -162 -63.5 -273.5t-179.5 -169
t-273 -57.5z" />
    <glyph glyph-name="uni037C" unicode="&#x37c;" 
d="M632 -18q-145 0 -261.5 55t-185.5 166t-69 279q0 169 67 282.5t183.5 170.5t265.5 57q132 0 238.5 -38t169.5 -114t65 -192h-260q-4 64 -57.5 101.5t-153.5 37.5q-133 0 -192 -79.5t-59 -225.5q0 -142 59 -219t192 -77q101 0 159.5 40t61.5 115h258q-3 -117 -65.5 -197
t-169.5 -121t-246 -41zM677 396q-59 0 -90 30t-31 75t31 75t90 30q58 0 89.5 -30t31.5 -75t-31.5 -75t-89.5 -30z" />
    <glyph glyph-name="uni037D" unicode="&#x37d;" 
d="M597 -18q-135 0 -239.5 41t-165.5 121t-65 197h259q2 -75 58 -115t151 -40q126 0 182.5 77t56.5 219q0 146 -56.5 225.5t-182.5 79.5q-94 0 -144.5 -37.5t-55.5 -101.5h-259q2 116 63 192t165 114t233 38q146 0 260 -57t179.5 -170.5t65.5 -282.5q0 -168 -67.5 -279
t-181.5 -166t-256 -55zM551 396q-59 0 -90.5 30t-31.5 75t31.5 75t90.5 30q58 0 89.5 -30t31.5 -75t-31.5 -75t-89.5 -30z" />
    <glyph glyph-name="uni037E" unicode="&#x37e;" 
d="M461 -341l-43 148q80 24 130.5 71.5t61.5 122.5l20 -15q-88 0 -142.5 53.5t-54.5 130.5q0 84 54.5 135t142.5 51q85 0 137.5 -60t52.5 -179q0 -102 -30.5 -180.5t-82 -135t-115.5 -91.5t-131 -51zM618 654q-88 0 -142 54t-54 131q0 84 54 135t142 51q85 0 137 -51
t52 -135q0 -77 -52 -131t-137 -54z" />
    <glyph glyph-name="uni037F" unicode="&#x37f;" 
d="M183 -10v242h324q88 0 145.5 29.5t86.5 95.5t29 174v815h277v-818q0 -277 -124.5 -407.5t-393.5 -130.5h-344zM380 1111v235h577v-235h-577z" />
    <glyph glyph-name="tonos" unicode="&#x384;" 
d="M453 1106l64 342h258l-161 -342h-161z" />
    <glyph glyph-name="dieresistonos" unicode="&#x385;" 
d="M509 1106l65 357h197l-130 -357h-132zM369 1128q-48 0 -80 30t-32 78q0 47 32 78t80 31q47 0 79 -31t32 -78q0 -48 -32 -78t-79 -30zM860 1128q-48 0 -80 30t-32 78q0 47 32 78t80 31t80 -31t32 -78q0 -48 -32 -78t-80 -30z" />
    <glyph glyph-name="Alphatonos" unicode="&#x386;" 
d="M61 0l437 1346h298l436 -1346h-277l-343 1181h68l-344 -1181h-275zM300 296v218h689v-218h-689zM-6 1004l64 342h258l-161 -342h-161z" />
    <glyph glyph-name="anoteleia" unicode="&#x387;" 
d="M618 360q-88 0 -142 54t-54 131q0 83 54 134.5t142 51.5q85 0 137 -51.5t52 -134.5q0 -77 -52 -131t-137 -54z" />
    <glyph glyph-name="Epsilontonos" unicode="&#x388;" 
d="M142 0v1346h944v-234h-661v-313h602v-227h-602v-338h661v-234h-944zM-212 1004l64 342h258l-161 -342h-161z" />
    <glyph glyph-name="Etatonos" unicode="&#x389;" 
d="M143 0v1346h283v-526h376v526h284v-1346h-284v571h-376v-571h-283zM-216 1004l64 342h258l-161 -342h-161z" />
    <glyph glyph-name="Iotatonos" unicode="&#x38a;" 
d="M474 0v1346h283v-1346h-283zM179 235h871v-235h-871v235zM179 1346h871v-235h-871v235zM-198 1004l64 342h258l-161 -342h-161z" />
    <glyph glyph-name="Omicrontonos" unicode="&#x38c;" 
d="M615 -18q-181 0 -300.5 85t-178 240t-58.5 365t58.5 365.5t178 241t300.5 85.5q179 0 298 -85.5t178.5 -241t59.5 -365.5t-59.5 -365t-178.5 -240t-298 -85zM615 217q95 0 148.5 62t75.5 165.5t22 227.5q0 125 -22 228.5t-75.5 165.5t-148.5 62q-97 0 -150.5 -61
t-74.5 -164.5t-21 -230.5t21 -230.5t74.5 -164t150.5 -60.5zM-171 1004l64 342h258l-161 -342h-161z" />
    <glyph glyph-name="Upsilontonos" unicode="&#x38e;" 
d="M469 0v503l-455 843h315l285 -583l285 583h316l-455 -843v-503h-291zM-294 1004l64 342h258l-161 -342h-161z" />
    <glyph glyph-name="Omegatonos" unicode="&#x38f;" 
d="M546 146q-223 38 -342.5 198t-119.5 414q0 184 60.5 320t179.5 211t294 75q176 0 294 -75t177.5 -211t59.5 -320q0 -257 -121.5 -417t-348.5 -195v133q95 67 137 176t42 273q0 110 -22 201t-74.5 145t-143.5 54t-144 -54t-75.5 -145t-22.5 -201q0 -160 40 -270t130 -179
v-133zM61 0v234h485v-234h-485zM679 0v234h495v-234h-495zM-167 1004l64 342h258l-161 -342h-161z" />
    <glyph glyph-name="iotadieresistonos" unicode="&#x390;" 
d="M769 1q-158 0 -244 35t-119.5 110t-33.5 194v636h264v-620q0 -51 10.5 -84t40.5 -48.5t89 -15.5h203v-207h-210zM450 1102l65 357h197l-130 -357h-132zM310 1123q-48 0 -80 30.5t-32 77.5q0 48 32 79t80 31q47 0 79 -31t32 -79q0 -47 -32 -77.5t-79 -30.5zM801 1123
q-48 0 -80 30.5t-32 77.5q0 48 32 79t80 31t80 -31t32 -79q0 -47 -32 -77.5t-80 -30.5z" />
    <glyph glyph-name="Alpha" unicode="&#x391;" 
d="M29 0l437 1346h298l436 -1346h-277l-343 1181h68l-344 -1181h-275zM268 296v218h689v-218h-689z" />
    <glyph glyph-name="Beta" unicode="&#x392;" 
d="M138 0v1346h463q217 0 345 -81t128 -252q0 -108 -59.5 -185.5t-156.5 -106.5q147 -28 223.5 -115t76.5 -214q0 -130 -61.5 -217.5t-176.5 -131t-276 -43.5h-506zM421 216h215q67 0 121 18.5t85.5 60.5t31.5 114q0 90 -62.5 133t-176.5 43h-214v-369zM421 801h176
q91 0 142 46t51 126q0 81 -53 119t-140 38h-176v-329z" />
    <glyph glyph-name="Gamma" unicode="&#x393;" 
d="M221 0v1346h855v-234h-572v-1112h-283z" />
    <glyph glyph-name="uni0394" unicode="&#x394;" 
d="M61 0v218l145 16h851l111 -16v-218h-1107zM61 218l402 1128h310l395 -1128l-225 -162l-328 1021l-330 -1021z" />
    <glyph glyph-name="Epsilon" unicode="&#x395;" 
d="M142 0v1346h944v-234h-661v-313h602v-227h-602v-338h661v-234h-944z" />
    <glyph glyph-name="Zeta" unicode="&#x396;" 
d="M101 0v223l630 887h-579v236h931v-211l-640 -899h684v-236h-1026z" />
    <glyph glyph-name="Eta" unicode="&#x397;" 
d="M143 0v1346h283v-526h376v526h284v-1346h-284v571h-376v-571h-283z" />
    <glyph glyph-name="Theta" unicode="&#x398;" 
d="M443 568v225h345v-225h-345zM615 -18q-181 0 -300.5 85t-178 240t-58.5 365t58.5 365.5t178 241t300.5 85.5q179 0 298 -85.5t178.5 -241t59.5 -365.5t-59.5 -365t-178.5 -240t-298 -85zM615 217q97 0 152 62t77.5 165.5t22.5 227.5q0 125 -22.5 228.5t-77.5 165.5
t-152 62q-99 0 -154 -61t-76.5 -164.5t-21.5 -230.5t21.5 -230.5t76.5 -164t154 -60.5z" />
    <glyph glyph-name="Iota" unicode="&#x399;" 
d="M474 0v1346h283v-1346h-283zM179 235h871v-235h-871v235zM179 1346h871v-235h-871v235z" />
    <glyph glyph-name="Kappa" unicode="&#x39a;" 
d="M150 0v1346h283v-642l424 642h313l-439 -631l471 -715h-326l-443 690v-690h-283z" />
    <glyph glyph-name="Lambda" unicode="&#x39b;" 
d="M20 0l423 1346h334l432 -1346h-306l-291 1044l-290 -1044h-302z" />
    <glyph glyph-name="Mu" unicode="&#x39c;" 
d="M97 0v1346h285l281 -710h-78l271 710h275v-1346h-254l24 1196h77l-300 -777h-126l-312 777h82l24 -1196h-249z" />
    <glyph glyph-name="Nu" unicode="&#x39d;" 
d="M143 0v1346h279l475 -1023l-66 -7v1030h255v-1346h-277l-479 1028l67 8v-1036h-254z" />
    <glyph glyph-name="Xi" unicode="&#x39e;" 
d="M122 0v234h984v-234h-984zM266 574v227h697v-227h-697zM163 1112v235h902v-235h-902z" />
    <glyph glyph-name="Omicron" unicode="&#x39f;" 
d="M615 -18q-181 0 -300.5 85t-178 240t-58.5 365t58.5 365.5t178 241t300.5 85.5q179 0 298 -85.5t178.5 -241t59.5 -365.5t-59.5 -365t-178.5 -240t-298 -85zM615 217q95 0 148.5 62t75.5 165.5t22 227.5q0 125 -22 228.5t-75.5 165.5t-148.5 62q-97 0 -150.5 -61
t-74.5 -164.5t-21 -230.5t21 -230.5t74.5 -164t150.5 -60.5z" />
    <glyph glyph-name="Pi" unicode="&#x3a0;" 
d="M143 0v1346h943v-1346h-284v1097h-376v-1097h-283z" />
    <glyph glyph-name="Rho" unicode="&#x3a1;" 
d="M158 0v1346h484q132 0 241.5 -46.5t174.5 -141.5t65 -243q0 -149 -65 -246t-174.5 -144t-241.5 -47h-201v-478h-283zM441 705h176q97 0 157 52.5t60 157.5q0 103 -61.5 152.5t-155.5 49.5h-176v-412z" />
    <glyph glyph-name="Sigma" unicode="&#x3a3;" 
d="M121 0v220l457 491l-426 416v219h889v-234l-552 -2l358 -337v-112l-397 -425l657 -2v-234h-986z" />
    <glyph glyph-name="Tau" unicode="&#x3a4;" 
d="M474 0v1112h-396v234h1073v-234h-394v-1112h-283z" />
    <glyph glyph-name="Upsilon" unicode="&#x3a5;" 
d="M469 0v503l-455 843h315l285 -583l285 583h316l-455 -843v-503h-291z" />
    <glyph glyph-name="Phi" unicode="&#x3a6;" 
d="M627 126v201h8q155 0 240 90t85 270q0 172 -86.5 257t-238.5 85h-8v200h19q161 0 287 -60.5t198.5 -181t72.5 -300.5q0 -184 -72.5 -309.5t-198.5 -188.5t-287 -63h-19zM502 -41v1427h224v-1427h-224zM596 126h-20q-157 0 -282 63t-197 188.5t-72 309.5q0 180 72 300.5
t197 181t282 60.5h20v-200h-9q-146 0 -232 -85t-86 -257q0 -180 84 -270t234 -90h9v-201z" />
    <glyph glyph-name="Chi" unicode="&#x3a7;" 
d="M17 0l441 704l-405 642h327l234 -439l248 439h314l-403 -644l439 -702h-336l-262 473l-279 -473h-318z" />
    <glyph glyph-name="Psi" unicode="&#x3a8;" 
d="M644 330v200h73q112 0 173.5 81t61.5 240v496h227l-1 -496q-1 -176 -59.5 -292t-159.5 -172.5t-231 -56.5h-84zM506 330q-130 0 -232.5 56.5t-161 172.5t-58.5 292v495h232v-495q0 -159 61 -240t171 -81h72v-200h-84zM505 0v1346h223v-1346h-223z" />
    <glyph glyph-name="uni03A9" unicode="&#x3a9;" 
d="M543 146q-223 38 -342.5 198t-119.5 414q0 184 60.5 320t179.5 211t294 75q176 0 294 -75t177.5 -211t59.5 -320q0 -257 -121.5 -417t-348.5 -195v133q95 67 137 176t42 273q0 110 -22 201t-74.5 145t-143.5 54t-144 -54t-75.5 -145t-22.5 -201q0 -160 40 -270t130 -179
v-133zM58 0v234h485v-234h-485zM676 0v234h495v-234h-495z" />
    <glyph glyph-name="Iotadieresis" unicode="&#x3aa;" 
d="M474 0v1346h283v-1346h-283zM179 235h871v-235h-871v235zM179 1346h871v-235h-871v235zM807 1460q-51 0 -85.5 33t-34.5 85q0 51 34.5 84.5t85.5 33.5q52 0 87 -33.5t35 -84.5q0 -52 -35 -85t-87 -33zM423 1460q-51 0 -86 33t-35 85q0 51 34.5 84.5t86.5 33.5
q51 0 86 -33.5t35 -84.5q0 -52 -35 -85t-86 -33z" />
    <glyph glyph-name="Upsilondieresis" unicode="&#x3ab;" 
d="M469 0v503l-455 843h315l285 -583l285 583h316l-455 -843v-503h-291zM806 1461q-51 0 -85.5 33t-34.5 85q0 51 34.5 84.5t85.5 33.5q52 0 87 -33.5t35 -84.5q0 -52 -35 -85t-87 -33zM422 1461q-51 0 -86 33t-35 85q0 51 34.5 84.5t86.5 33.5q51 0 86 -33.5t35 -84.5
q0 -52 -35 -85t-86 -33z" />
    <glyph glyph-name="alphatonos" unicode="&#x3ac;" 
d="M480 -17q-172 0 -274.5 121.5t-102.5 377.5q0 173 52 285.5t145 167t215 54.5q97 0 165.5 -41.5t109.5 -106.5l4 135h253v-622q0 -81 22 -119t98 -38h24v-206h-68q-107 0 -170.5 19.5t-97.5 54t-53 78.5q-54 -73 -132.5 -116.5t-189.5 -43.5zM562 186q78 0 137.5 47
t90.5 111v288q-30 64 -85 109.5t-135 45.5q-94 0 -147 -78t-53 -227q0 -152 50.5 -224t141.5 -72zM487 1106l64 342h258l-161 -342h-161z" />
    <glyph glyph-name="epsilontonos" unicode="&#x3ad;" 
d="M603 -16q-222 0 -351 70.5t-129 221.5q0 95 63.5 152.5t191.5 83.5q-119 25 -165.5 85.5t-46.5 127.5q0 63 41 123.5t138 100.5t264 40q207 0 325 -73t128 -232h-248q0 55 -54 89.5t-151 34.5q-103 0 -147 -29.5t-44 -74.5q0 -51 54 -80.5t137 -29.5h110v-171h-105
q-114 0 -171.5 -30.5t-57.5 -95.5q0 -63 58.5 -92t159.5 -29q122 0 188 36t67 112h248q-5 -111 -64.5 -187t-169.5 -114.5t-269 -38.5zM538 1106l64 342h258l-161 -342h-161z" />
    <glyph glyph-name="etatonos" unicode="&#x3ae;" 
d="M155 0v976h257l5 -145q49 62 130 110.5t211 48.5q159 0 241.5 -89.5t82.5 -265.5l1 -993h-266l-2 959q0 54 -13.5 93t-46 61t-89.5 22q-81 0 -141.5 -37t-102.5 -90v-650h-267zM563 1106l64 342h258l-161 -342h-161z" />
    <glyph glyph-name="iotatonos" unicode="&#x3af;" 
d="M815 1q-158 0 -244 35t-119.5 110t-33.5 194v636h264v-620q0 -51 10.5 -84t40.5 -48.5t89 -15.5h203v-207h-210zM494 1106l64 342h258l-161 -342h-161z" />
    <glyph glyph-name="upsilondieresistonos" unicode="&#x3b0;" 
d="M610 -15q-148 0 -253 50.5t-160.5 146t-55.5 230.5v564h265v-531q0 -77 20 -132t63.5 -83.5t114.5 -28.5q81 0 128.5 34.5t68.5 99t21 156.5q0 122 -17 243t-65 242h266q49 -124 65.5 -250.5t16.5 -251.5q0 -156 -58 -265t-164.5 -166.5t-255.5 -57.5zM499 1102l65 357
h197l-130 -357h-132zM359 1123q-48 0 -80 30.5t-32 77.5q0 48 32 79t80 31q47 0 79 -31t32 -79q0 -47 -32 -77.5t-79 -30.5zM850 1123q-48 0 -80 30.5t-32 77.5q0 48 32 79t80 31t80 -31t32 -79q0 -47 -32 -77.5t-80 -30.5z" />
    <glyph glyph-name="alpha" unicode="&#x3b1;" 
d="M480 -17q-172 0 -274.5 121.5t-102.5 377.5q0 173 52 285.5t145 167t215 54.5q97 0 165.5 -41.5t109.5 -106.5l4 135h253v-622q0 -81 22 -119t98 -38h24v-206h-68q-107 0 -170.5 19.5t-97.5 54t-53 78.5q-54 -73 -132.5 -116.5t-189.5 -43.5zM562 186q78 0 137.5 47
t90.5 111v288q-30 64 -85 109.5t-135 45.5q-94 0 -147 -78t-53 -227q0 -152 50.5 -224t141.5 -72z" />
    <glyph glyph-name="beta" unicode="&#x3b2;" 
d="M142 -358v1228q0 179 61 287.5t167.5 157.5t243.5 49q193 0 308.5 -92t115.5 -247q0 -151 -104 -244t-305 -105l-61 76q261 0 395.5 -90.5t134.5 -276.5q0 -127 -57.5 -215.5t-157 -135t-225.5 -46.5q-63 0 -111.5 6t-91 18t-89.5 29v191q65 -26 124.5 -39t119.5 -13
q105 0 162.5 51.5t57.5 158.5q0 111 -75 162t-195 51h-43v187h51q101 0 161 58.5t60 151.5q0 85 -46.5 126.5t-128.5 41.5q-90 0 -149.5 -60.5t-59.5 -213.5v-1252h-263z" />
    <glyph glyph-name="gamma" unicode="&#x3b3;" 
d="M490 -358l2 415l262 1v-416h-264zM492 42l-424 934h278l270 -683l275 683h270l-408 -935z" />
    <glyph glyph-name="delta" unicode="&#x3b4;" 
d="M612 -18q-148 0 -262.5 55.5t-179 161.5t-64.5 258q0 127 53.5 223.5t140.5 162t186 97.5l-266 227v179h851v-211h-495l211 -163q119 -89 192.5 -168.5t108 -164.5t34.5 -192q0 -148 -64.5 -252t-179.5 -158.5t-266 -54.5zM612 186q81 0 134.5 33.5t80.5 92.5t27 134
q0 76 -25 136.5t-72.5 112.5t-116.5 100q-80 -25 -140 -73t-93.5 -115.5t-33.5 -149.5q0 -75 27 -136.5t80 -98t132 -36.5z" />
    <glyph glyph-name="epsilon" unicode="&#x3b5;" 
d="M603 -16q-222 0 -351 70.5t-129 221.5q0 95 63.5 152.5t191.5 83.5q-119 25 -165.5 85.5t-46.5 127.5q0 63 41 123.5t138 100.5t264 40q207 0 325 -73t128 -232h-248q0 55 -54 89.5t-151 34.5q-103 0 -147 -29.5t-44 -74.5q0 -51 54 -80.5t137 -29.5h110v-171h-105
q-114 0 -171.5 -30.5t-57.5 -95.5q0 -63 58.5 -92t159.5 -29q122 0 188 36t67 112h248q-5 -111 -64.5 -187t-169.5 -114.5t-269 -38.5z" />
    <glyph glyph-name="zeta" unicode="&#x3b6;" 
d="M812 -259q16 89 13.5 142t-31.5 77t-95 28l-112 6q-124 7 -222.5 48.5t-155 124t-56.5 213.5q0 108 46 201t125 174.5t177 157.5l287 222h-541v211h831v-211l-348 -303q-81 -72 -152.5 -145t-116 -145.5t-44.5 -141.5q0 -92 55.5 -130t186.5 -46l113 -6q124 -7 198.5 -56
t98 -151t-7.5 -270h-249z" />
    <glyph glyph-name="eta" unicode="&#x3b7;" 
d="M155 0v976h257l5 -145q49 62 130 110.5t211 48.5q159 0 241.5 -89.5t82.5 -265.5l1 -993h-266l-2 959q0 54 -13.5 93t-46 61t-89.5 22q-81 0 -141.5 -37t-102.5 -90v-650h-267z" />
    <glyph glyph-name="theta" unicode="&#x3b8;" 
d="M615 -18q-167 0 -279 78t-168.5 233t-56.5 386q0 227 56.5 379.5t168.5 230t279 77.5q166 0 277.5 -77.5t168.5 -230t57 -378.5q0 -231 -57 -386.5t-168.5 -233.5t-277.5 -78zM615 178q71 0 120 31t78 93.5t42 157t13 220.5q0 123 -13 215t-42 153t-78 91.5t-120 30.5
q-72 0 -121.5 -30.5t-78.5 -91.5t-42 -153t-13 -215q0 -126 13 -220.5t42 -157t78.5 -93.5t121.5 -31zM340 597v181h554v-181h-554z" />
    <glyph glyph-name="iota" unicode="&#x3b9;" 
d="M769 1q-158 0 -244 35t-119.5 110t-33.5 194v636h264v-620q0 -51 10.5 -84t40.5 -48.5t89 -15.5h203v-207h-210z" />
    <glyph glyph-name="kappa" unicode="&#x3ba;" 
d="M188 0v976h267v-429l396 429h290l-406 -437l434 -539h-301l-312 381l-101 -94v-287h-267z" />
    <glyph glyph-name="lambda" unicode="&#x3bb;" 
d="M96 0l426 987l-20 53q-18 47 -60 68.5t-104 21.5h-102v216h133q104 0 178 -20.5t124.5 -74t85.5 -153.5l376 -1098h-269l-221 722l-270 -722h-277z" />
    <glyph glyph-name="uni03BC" unicode="&#x3bc;" 
d="M143 -360v1336h267v-602q0 -51 15.5 -89t51.5 -59.5t96 -21.5q81 0 141.5 35.5t104.5 85.5v651h266v-976h-257l-4 142q-48 -67 -117.5 -110t-153.5 -43q-82 0 -152.5 39.5t-113 114t-42.5 178.5h152v-681h-254z" />
    <glyph glyph-name="nu" unicode="&#x3bd;" 
d="M462 0l-400 976h278l308 -843h-67l316 843h270l-401 -976h-304z" />
    <glyph glyph-name="xi" unicode="&#x3be;" 
d="M784 -261q18 97 6.5 149.5t-45.5 73.5t-86 25l-83 7q-124 10 -213 49t-136.5 115.5t-47.5 199.5q0 104 43 182.5t123 129t192 68.5q-129 39 -196 113.5t-67 179.5q0 55 21 111t78 102.5t162.5 74t275.5 27.5h221v-219h-221q-106 0 -165.5 -17t-84 -48.5t-24.5 -74.5
q0 -67 71.5 -107t189.5 -40h173v-220h-157q-180 0 -275.5 -61t-95.5 -164q0 -61 25 -96t73 -52.5t120 -24.5l120 -14q106 -11 171.5 -57.5t87 -144.5t-5.5 -267h-250z" />
    <glyph glyph-name="omicron" unicode="&#x3bf;" 
d="M612 -18q-147 0 -260.5 59t-177.5 171.5t-64 272.5q0 163 64 277t177.5 174t260.5 60q148 0 262.5 -60t179.5 -174t65 -277q0 -160 -65 -272.5t-179.5 -171.5t-262.5 -59zM612 186q86 0 138 40.5t76 108.5t24 150q0 84 -24 154t-76 111.5t-138 41.5q-84 0 -136 -41.5
t-75.5 -111.5t-23.5 -154q0 -82 23.5 -150t75.5 -108.5t136 -40.5z" />
    <glyph glyph-name="pi" unicode="&#x3c0;" 
d="M1112 1q-149 0 -230.5 35t-114 110t-32.5 194v431h-701v205h1161v-205h-193v-415q0 -76 21.5 -112t97.5 -36h47v-207h-56zM202 0v834h267v-834h-267z" />
    <glyph glyph-name="rho" unicode="&#x3c1;" 
d="M390 99l1 217q33 -54 92 -91t148 -37q103 0 160 76.5t57 223.5q0 152 -54 227.5t-162 75.5q-107 0 -172.5 -66t-65.5 -227v-856h-265v848q0 139 37 235.5t104.5 156t159.5 87t202 27.5q229 0 356 -128.5t127 -381.5q0 -171 -54.5 -282.5t-152.5 -166t-226 -54.5
q-95 0 -169 29.5t-123 86.5z" />
    <glyph glyph-name="sigma1" unicode="&#x3c2;" 
d="M769 -261q19 97 12 148.5t-40 73t-96 26.5l-89 7q-124 12 -214.5 57.5t-138.5 141.5t-48 258q0 166 49.5 286t156.5 186t280 66q124 0 221 -35.5t153.5 -106t58.5 -176.5h-260q-3 50 -42.5 81t-125.5 31q-81 0 -126.5 -42t-64.5 -113t-19 -161q0 -82 23.5 -133t69 -78
t112.5 -34l125 -14q106 -12 171.5 -58.5t87 -144t-5.5 -266.5h-250z" />
    <glyph glyph-name="sigma" unicode="&#x3c3;" 
d="M595 -18q-144 0 -254 55.5t-172 163t-62 262.5q0 255 142 384t425 129h522v-207h-513q-154 0 -231.5 -74.5t-77.5 -231.5q0 -71 22 -134t71 -102.5t130 -39.5q84 0 132.5 38.5t69 100t20.5 132.5q0 127 -36.5 202.5t-94.5 123.5l-70 109q132 0 238 -57t168.5 -158.5
t62.5 -234.5q0 -224 -132.5 -342.5t-359.5 -118.5z" />
    <glyph glyph-name="tau" unicode="&#x3c4;" 
d="M814 0q-148 0 -230 35.5t-114 110.5t-32 194v431h-305v205h922v-205h-352v-415q0 -76 22.5 -112.5t97.5 -36.5h164v-207h-173z" />
    <glyph glyph-name="upsilon" unicode="&#x3c5;" 
d="M610 -15q-148 0 -253 50.5t-160.5 146t-55.5 230.5v564h265v-531q0 -77 20 -132t63.5 -83.5t114.5 -28.5q81 0 128.5 34.5t68.5 99t21 156.5q0 122 -17 243t-65 242h266q49 -124 65.5 -250.5t16.5 -251.5q0 -156 -58 -265t-164.5 -166.5t-255.5 -57.5z" />
    <glyph glyph-name="phi" unicode="&#x3c6;" 
d="M612 -26q-279 0 -425 133t-146 377q0 245 146 380t425 135t427.5 -135t148.5 -380q0 -244 -148.5 -377t-427.5 -133zM612 155q121 0 190 44.5t99 119.5t30 165q0 91 -30 166.5t-99 121t-190 45.5q-118 0 -187.5 -45.5t-99 -121t-29.5 -166.5q0 -90 29.5 -165t99 -119.5
t187.5 -44.5zM511 -358v1704h204v-1704h-204z" />
    <glyph glyph-name="chi" unicode="&#x3c7;" 
d="M92 -358l421 748l64 42l249 544h285l-357 -659l-66 -53l-304 -622h-292zM858 -358l-480 973q-30 62 -64.5 95.5t-73.5 47t-82 13.5h-28v216h90q87 0 146.5 -22.5t104 -71.5t86.5 -130l580 -1121h-279z" />
    <glyph glyph-name="psi" unicode="&#x3c8;" 
d="M535 -11q-146 0 -248.5 49.5t-155 144t-52.5 229.5v564h224v-531q0 -80 23 -140.5t75.5 -93.5t141.5 -33h141q89 0 141.5 33t75.5 93.5t23 140.5v531h225v-564q0 -135 -52.5 -229.5t-154.5 -144t-249 -49.5h-158zM511 -358v1704h204v-1704h-204z" />
    <glyph glyph-name="omega" unicode="&#x3c9;" 
d="M343 -13q-88 0 -151.5 55.5t-98 164t-34.5 267.5q0 125 19 245.5t63 256.5h208q-47 -132 -64.5 -247.5t-17.5 -237.5q0 -98 11 -166.5t36 -104t67 -35.5q46 0 74.5 41.5t42 116.5t13.5 176v211h208v-211q0 -101 14.5 -176t43.5 -116.5t71 -41.5q43 0 68 35.5t36 104
t11 166.5q0 122 -18 237.5t-64 247.5h207q44 -136 63 -256.5t19 -245.5q0 -159 -34 -267.5t-97.5 -164t-152.5 -55.5q-101 0 -166 57t-106 173q-39 -116 -103 -173t-168 -57z" />
    <glyph glyph-name="iotadieresis" unicode="&#x3ca;" 
d="M769 1q-158 0 -244 35t-119.5 110t-33.5 194v636h264v-620q0 -51 10.5 -84t40.5 -48.5t89 -15.5h203v-207h-210zM709 1115q-51 0 -85.5 33t-34.5 85t34.5 85t85.5 33q52 0 87 -33t35 -85t-35 -85t-87 -33zM325 1115q-51 0 -86 33t-35 85t34.5 85t86.5 33q51 0 86 -33
t35 -85t-35 -85t-86 -33z" />
    <glyph glyph-name="upsilondieresis" unicode="&#x3cb;" 
d="M610 -15q-148 0 -253 50.5t-160.5 146t-55.5 230.5v564h265v-531q0 -77 20 -132t63.5 -83.5t114.5 -28.5q81 0 128.5 34.5t68.5 99t21 156.5q0 122 -17 243t-65 242h266q49 -124 65.5 -250.5t16.5 -251.5q0 -156 -58 -265t-164.5 -166.5t-255.5 -57.5zM800 1115
q-51 0 -85.5 33t-34.5 85t34.5 85t85.5 33q52 0 87 -33t35 -85t-35 -85t-87 -33zM416 1115q-51 0 -86 33t-35 85t34.5 85t86.5 33q51 0 86 -33t35 -85t-35 -85t-86 -33z" />
    <glyph glyph-name="omicrontonos" unicode="&#x3cc;" 
d="M612 -18q-147 0 -260.5 59t-177.5 171.5t-64 272.5q0 163 64 277t177.5 174t260.5 60q148 0 262.5 -60t179.5 -174t65 -277q0 -160 -65 -272.5t-179.5 -171.5t-262.5 -59zM612 186q86 0 138 40.5t76 108.5t24 150q0 84 -24 154t-76 111.5t-138 41.5q-84 0 -136 -41.5
t-75.5 -111.5t-23.5 -154q0 -82 23.5 -150t75.5 -108.5t136 -40.5zM530 1106l64 342h258l-161 -342h-161z" />
    <glyph glyph-name="upsilontonos" unicode="&#x3cd;" 
d="M610 -15q-148 0 -253 50.5t-160.5 146t-55.5 230.5v564h265v-531q0 -77 20 -132t63.5 -83.5t114.5 -28.5q81 0 128.5 34.5t68.5 99t21 156.5q0 122 -17 243t-65 242h266q49 -124 65.5 -250.5t16.5 -251.5q0 -156 -58 -265t-164.5 -166.5t-255.5 -57.5zM507 1106l64 342
h258l-161 -342h-161z" />
    <glyph glyph-name="omegatonos" unicode="&#x3ce;" 
d="M343 -13q-88 0 -151.5 55.5t-98 164t-34.5 267.5q0 125 19 245.5t63 256.5h208q-47 -132 -64.5 -247.5t-17.5 -237.5q0 -98 11 -166.5t36 -104t67 -35.5q46 0 74.5 41.5t42 116.5t13.5 176v211h208v-211q0 -101 14.5 -176t43.5 -116.5t71 -41.5q43 0 68 35.5t36 104
t11 166.5q0 122 -18 237.5t-64 247.5h207q44 -136 63 -256.5t19 -245.5q0 -159 -34 -267.5t-97.5 -164t-152.5 -55.5q-101 0 -166 57t-106 173q-39 -116 -103 -173t-168 -57zM529 1106l64 342h258l-161 -342h-161z" />
    <glyph glyph-name="uni03CF" unicode="&#x3cf;" 
d="M514 -353v226h21q132 0 212 29.5t134 97.5h321q-67 -129 -150 -206.5t-206.5 -112t-311.5 -34.5h-20zM150 0v1346h283v-642l424 642h313l-439 -631l471 -715h-321l-448 690v-690h-283z" />
    <glyph glyph-name="uni03D0" unicode="&#x3d0;" 
d="M142 -358v1228q0 179 61 287.5t167.5 157.5t243.5 49q193 0 308.5 -92t115.5 -247q0 -151 -104 -244t-305 -105l-61 76q261 0 395.5 -90.5t134.5 -276.5q0 -127 -57.5 -215.5t-157 -135t-225.5 -46.5q-63 0 -111.5 6t-91 18t-89.5 29v191q65 -26 124.5 -39t119.5 -13
q105 0 162.5 51.5t57.5 158.5q0 111 -75 162t-195 51h-43v187h51q101 0 161 58.5t60 151.5q0 85 -46.5 126.5t-128.5 41.5q-90 0 -149.5 -60.5t-59.5 -213.5v-1252h-263z" />
    <glyph glyph-name="theta1" unicode="&#x3d1;" 
d="M615 -18q-167 0 -279 78t-168.5 233t-56.5 386q0 227 56.5 379.5t168.5 230t279 77.5q166 0 277.5 -77.5t168.5 -230t57 -378.5q0 -231 -57 -386.5t-168.5 -233.5t-277.5 -78zM615 178q71 0 120 31t78 93.5t42 157t13 220.5q0 123 -13 215t-42 153t-78 91.5t-120 30.5
q-72 0 -121.5 -30.5t-78.5 -91.5t-42 -153t-13 -215q0 -126 13 -220.5t42 -157t78.5 -93.5t121.5 -31zM340 597v181h554v-181h-554z" />
    <glyph glyph-name="Upsilon1" unicode="&#x3d2;" 
d="M458 0v503l-455 843h312l298 -591l143 293q57 115 109 180t122 91.5t178 26.5h38v-242h-18q-40 0 -76 -16t-73 -58t-77 -121l-210 -409v-500h-291z" />
    <glyph glyph-name="uni03D3" unicode="&#x3d3;" 
d="M458 0v503l-455 843h312l298 -591l143 293q57 115 109 180t122 91.5t178 26.5h38v-242h-18q-40 0 -76 -16t-73 -58t-77 -121l-210 -409v-500h-291zM-285 1004l64 342h258l-161 -342h-161z" />
    <glyph glyph-name="uni03D4" unicode="&#x3d4;" 
d="M458 0v503l-455 843h312l298 -591l143 293q57 115 109 180t122 91.5t178 26.5h38v-242h-18q-40 0 -76 -16t-73 -58t-77 -121l-210 -409v-500h-291zM796 1461q-51 0 -85.5 33t-34.5 85q0 51 34.5 84.5t85.5 33.5q52 0 87 -33.5t35 -84.5q0 -52 -35 -85t-87 -33zM412 1461
q-51 0 -86 33t-35 85q0 51 34.5 84.5t86.5 33.5q51 0 86 -33.5t35 -84.5q0 -52 -35 -85t-86 -33z" />
    <glyph glyph-name="phi1" unicode="&#x3d5;" 
d="M612 -26q-279 0 -425 133t-146 377q0 245 146 380t425 135t427.5 -135t148.5 -380q0 -244 -148.5 -377t-427.5 -133zM612 155q121 0 190 44.5t99 119.5t30 165q0 91 -30 166.5t-99 121t-190 45.5q-118 0 -187.5 -45.5t-99 -121t-29.5 -166.5q0 -90 29.5 -165t99 -119.5
t187.5 -44.5zM511 -358v1704h204v-1704h-204z" />
    <glyph glyph-name="omega1" unicode="&#x3d6;" 
d="M1112 1q-149 0 -230.5 35t-114 110t-32.5 194v431h-701v205h1161v-205h-193v-415q0 -76 21.5 -112t97.5 -36h47v-207h-56zM202 0v834h267v-834h-267z" />
    <glyph glyph-name="uni03D7" unicode="&#x3d7;" 
d="M1069 -9q-169 4 -246.5 74t-77.5 194q0 42 9 102.5t22.5 120.5t26.5 99l-453 -581h-269q38 70 72.5 169.5t57.5 213.5t23 227q0 87 -37.5 133t-112.5 46h-30v199h54q116 0 196 -28t121.5 -95t41.5 -186q0 -68 -16 -150.5t-44 -165.5l472 617h253q-32 -73 -66.5 -180.5
t-59 -224.5t-24.5 -222q0 -83 36.5 -123.5t117.5 -40.5h38l1 -101zM550 -372v220q132 1 223.5 21.5t138.5 68.5t47 130l216 20q0 -224 -159.5 -339.5t-465.5 -120.5z" />
    <glyph glyph-name="uni03D8" unicode="&#x3d8;" 
d="M472 -358v436h283v-436h-283zM615 -18q-181 0 -300.5 85t-178 240t-58.5 365t58.5 365.5t178 241t300.5 85.5q179 0 298 -85.5t178.5 -241t59.5 -365.5t-59.5 -365t-178.5 -240t-298 -85zM615 217q95 0 148.5 62t75.5 165.5t22 227.5q0 125 -22 228.5t-75.5 165.5
t-148.5 62q-97 0 -150.5 -61t-74.5 -164.5t-21 -230.5t21 -230.5t74.5 -164t150.5 -60.5z" />
    <glyph glyph-name="uni03D9" unicode="&#x3d9;" 
d="M480 -358v406h267v-406h-267zM612 -18q-147 0 -260.5 59t-177.5 171.5t-64 272.5q0 163 64 277t177.5 174t260.5 60q148 0 262.5 -60t179.5 -174t65 -277q0 -160 -65 -272.5t-179.5 -171.5t-262.5 -59zM612 186q86 0 138 40.5t76 108.5t24 150q0 84 -24 154t-76 111.5
t-138 41.5q-84 0 -136 -41.5t-75.5 -111.5t-23.5 -154q0 -82 23.5 -150t75.5 -108.5t136 -40.5z" />
    <glyph glyph-name="uni03DA" unicode="&#x3da;" 
d="M793 -261q17 90 10 144t-45 78.5t-115 24.5h-57q-165 0 -286 78t-187 231t-66 377q0 210 73 365.5t209 241t324 85.5q140 0 257.5 -49.5t191 -145.5t80.5 -236h-289q-8 65 -41.5 108t-84.5 65t-114 22q-113 0 -182.5 -63t-101 -167t-31.5 -226q0 -159 38 -258
t121.5 -144.5t219.5 -45.5h73q184 0 259.5 -115t28.5 -370h-285z" />
    <glyph glyph-name="uni03DB" unicode="&#x3db;" 
d="M734 -261q19 97 12.5 149t-39.5 73.5t-96 26.5l-82 6q-124 10 -212 58t-134 145t-46 254q0 119 28.5 215.5t92.5 166.5t169.5 110t257.5 46q73 5 109 33t39 78h258q-2 -160 -93.5 -233t-285.5 -83q-124 -7 -187.5 -49t-85 -110t-21.5 -158q0 -79 21 -131.5t65 -79.5
t110 -34l118 -13q106 -11 171.5 -57.5t86.5 -145t-6 -267.5h-250z" />
    <glyph glyph-name="uni03DC" unicode="&#x3dc;" 
d="M173 0v1346h882v-234h-599v-313h543v-465h-264v238h-279v-572h-283z" />
    <glyph glyph-name="uni03DD" unicode="&#x3dd;" 
d="M211 -358v1334h266v-1334h-266zM380 308v205h597v-205h-597zM380 771v205h638v-205h-638z" />
    <glyph glyph-name="uni03DE" unicode="&#x3de;" 
d="M1010 -20q-178 0 -260 63.5t-82 164.5q0 54 17.5 115t50.5 146l29 87h-621l105 298q19 53 34.5 109.5t15.5 95.5q0 42 -24.5 59t-55.5 17v231q134 0 208.5 -30t104 -80.5t29.5 -112.5q0 -61 -15.5 -120.5t-43.5 -145.5l-29 -84h611l-104 -300q-18 -53 -34 -110t-16 -97
q0 -41 24.5 -58t55.5 -17v-231z" />
    <glyph glyph-name="uni03DF" unicode="&#x3df;" 
d="M972 -225q-188 0 -272 69.5t-84 181.5q0 58 22 135t76 201l41 126h-600l112 354q18 56 35 116.5t17 100.5q0 42 -32 59t-73 17v231q141 0 217.5 -31.5t107 -84t30.5 -117.5q0 -56 -16.5 -127t-51.5 -176l-37 -123h609l-131 -361q-13 -36 -30.5 -83.5t-31 -94.5t-13.5 -82
q0 -43 32 -61.5t73 -18.5v-231z" />
    <glyph glyph-name="uni03E0" unicode="&#x3e0;" 
d="M925 0q0 177 -47 340t-131 301.5t-195.5 242t-242.5 161t-270 57.5v264q188 0 359.5 -69.5t315.5 -195t250.5 -296.5t165.5 -375.5t59 -429.5h-264zM537 230l-150 150l413 413l149 -151zM283 484l-148 149l419 419l148 -150z" />
    <glyph glyph-name="uni03E1" unicode="&#x3e1;" 
d="M908 -205q51 226 38.5 410.5t-73.5 329.5t-157 252t-213 176.5t-241 104t-241 34.5v264q157 0 316 -42t305.5 -127.5t265 -215t196 -304t98.5 -394.5t-30 -488h-264zM583 153l-152 151l414 413l149 -151zM328 407l-147 149l417 419l150 -150z" />
    <glyph glyph-name="uni03E2" unicode="&#x3e2;" 
d="M96 -368v229h711q62 0 94.5 30.5t32.5 92.5v178q-37 -60 -88 -106.5t-125 -46.5q-65 0 -117.5 37t-82.5 117t-30 209v974h248v-950q0 -68 17 -110t60 -42q38 0 67.5 29.5t46.5 66.5v1006h247v-1343q0 -180 -85.5 -275.5t-261.5 -95.5h-734zM273 10q-67 0 -116.5 35
t-76.5 115t-27 215v971h247v-950q0 -68 15 -110t55 -42t72 29.5t58 73.5l52 -153q-54 -81 -119 -132.5t-160 -51.5z" />
    <glyph glyph-name="uni03E3" unicode="&#x3e3;" 
d="M141 -358v210h655q71 0 103.5 23.5t32.5 83.5v181q-32 -60 -84 -107t-133 -47q-107 0 -161 77.5t-54 227.5v685h229v-651q0 -70 15 -112.5t61 -42.5q41 0 71.5 36t50.5 85v685h229v-1013q0 -174 -82.5 -247.5t-267.5 -73.5h-665zM289 -14q-112 0 -163.5 74.5t-51.5 218.5
v697h229v-651q0 -70 14.5 -112.5t59.5 -42.5q43 0 74 36t52 85l31 -132q-43 -71 -103 -122t-142 -51z" />
    <glyph glyph-name="uni03E4" unicode="&#x3e4;" 
d="M851 0v444q-79 -27 -153.5 -43.5t-169.5 -16.5q-138 0 -237 55t-151.5 164t-52.5 270q0 238 110 363t346 125h112v-242h-73q-79 0 -123 -31t-63 -86.5t-19 -130.5q0 -73 20 -126.5t64.5 -82.5t117.5 -29q67 0 137.5 12.5t134.5 37.5v660h285v-1343h-285z" />
    <glyph glyph-name="uni03E5" unicode="&#x3e5;" 
d="M810 -358v479q-30 -32 -77 -61.5t-108.5 -48t-136.5 -18.5q-109 0 -185 41.5t-116 120.5t-40 192v251q0 195 104.5 290.5t327.5 95.5h43v-216h-43q-61 0 -97.5 -21.5t-53 -59t-16.5 -88.5v-220q0 -51 15.5 -89t51.5 -59.5t94 -21.5q76 0 134.5 28t102.5 68v671h267v-1334
h-267z" />
    <glyph glyph-name="uni03E6" unicode="&#x3e6;" 
d="M232 -370v228h456q80 0 123.5 40.5t43.5 114.5v397q0 82 -43.5 122t-123.5 40q-69 0 -154 -10.5t-158 -32.5v-529h-283v1346h283v-585q91 26 177.5 43t197.5 17q108 0 195.5 -41.5t139.5 -128t52 -222.5v-414q0 -131 -52 -216.5t-139.5 -127t-195.5 -41.5h-519z" />
    <glyph glyph-name="uni03E7" unicode="&#x3e7;" 
d="M282 -368v216h367q60 0 97 21.5t54 60t17 87.5v297q0 51 -15.5 89t-50 59t-91.5 21q-79 0 -140 -28t-106 -68v-387h-267v976h267v-404q48 49 131.5 88t198.5 39q108 0 183.5 -41t115 -119.5t39.5 -193.5v-325q0 -195 -104 -291.5t-329 -96.5h-367z" />
    <glyph glyph-name="uni03E8" unicode="&#x3e8;" 
d="M600 -18q-157 0 -277.5 40.5t-188.5 125.5t-68 221q0 119 47 199.5t145.5 138t250.5 105.5q120 38 182.5 67.5t85.5 61t23 73.5q0 67 -48 98t-128 31q-77 0 -134.5 -32.5t-57.5 -110.5h-291q0 124 67 204.5t177 119.5t240 39q141 0 244.5 -40t161 -118t57.5 -191
q0 -117 -47.5 -192t-139 -125t-224.5 -91q-125 -38 -195 -71.5t-98.5 -72.5t-28.5 -93q0 -82 65 -121.5t175 -39.5q85 0 147.5 26t96.5 89.5t34 176.5h290q0 -152 -43 -252t-120 -158.5t-179.5 -83t-220.5 -24.5z" />
    <glyph glyph-name="uni03E9" unicode="&#x3e9;" 
d="M614 -17q-130 0 -233.5 28.5t-163 94.5t-59.5 178q0 101 42 162.5t120.5 98.5t187.5 61q126 28 184 55.5t58 73.5q0 42 -34 60.5t-86 18.5q-63 0 -108 -25.5t-45 -92.5h-246q0 85 33.5 142t91 90t128.5 47.5t147 14.5q71 0 139.5 -14.5t123.5 -46.5t87.5 -82.5
t32.5 -122.5q0 -86 -40 -142t-118.5 -92t-194.5 -63q-89 -20 -141 -40.5t-74 -46t-22 -65.5q0 -60 50.5 -85.5t139.5 -25.5q104 0 157 54t53 146h247q0 -141 -61.5 -224.5t-165 -120t-230.5 -36.5z" />
    <glyph glyph-name="uni03EA" unicode="&#x3ea;" 
d="M955 56l-317 809q-33 86 -75 143t-110 86.5t-181 29.5h-116v242h121q131 0 227.5 -32.5t167 -92t121.5 -141.5t91 -181l295 -731zM49 0v188l145 46h874l111 -46v-188h-1130zM274 56l-225 132l296 732q40 99 91 180.5t122 141t167 92t226 32.5h106v-242h-100
q-112 0 -181.5 -30.5t-111.5 -88.5t-74 -140z" />
    <glyph glyph-name="uni03EB" unicode="&#x3eb;" 
d="M928 56l-287 519q-48 88 -97 131.5t-113.5 58t-158.5 14.5h-101v206h106q169 0 272 -39t168.5 -110t119.5 -166l284 -482zM107 0v188l145 18h759l110 -18v-188h-1014zM300 56l-193 132l285 484q40 69 85 126t107.5 99.5t151 65t215.5 22.5h91v-206h-84
q-95 0 -159.5 -14.5t-113 -58t-97.5 -131.5z" />
    <glyph glyph-name="uni03EC" unicode="&#x3ec;" 
d="M647 -16q-274 0 -425.5 172.5t-151.5 513.5q0 336 163 506t518 170h325v-234h-325q-142 0 -228.5 -44t-125.5 -140.5t-39 -257.5q0 -225 74.5 -339t213.5 -114q115 0 167.5 72.5t52.5 180.5q0 112 -54.5 166t-154.5 54q-102 0 -191.5 -35t-172.5 -123v217
q78 77 186 125.5t235 48.5q204 0 324.5 -108t120.5 -345q0 -146 -58.5 -255.5t-172.5 -170t-281 -60.5z" />
    <glyph glyph-name="uni03ED" unicode="&#x3ed;" 
d="M626 -16q-243 0 -374.5 124.5t-131.5 369.5q0 259 153 384.5t483 125.5h294v-188h-294q-138 0 -222 -30.5t-122 -101t-38 -190.5q0 -306 252 -306q125 0 176 50t51 135q0 89 -57 127.5t-166 38.5h-103v174h145q215 0 325.5 -82.5t110.5 -257.5q0 -174 -124 -273.5
t-358 -99.5z" />
    <glyph glyph-name="uni03EE" unicode="&#x3ee;" 
d="M503 0v1346h223v-1346h-223zM56 575q0 156 44 257t136.5 149.5t236.5 48.5h93v-242h-73q-98 0 -143 -50.5t-45 -162.5h-249zM924 575q0 112 -44.5 162.5t-143.5 50.5h-73v242h92q144 0 236.5 -48.5t136.5 -149.5t44 -257h-248z" />
    <glyph glyph-name="uni03EF" unicode="&#x3ef;" 
d="M511 -358v1629h267v-1629h-267zM101 585v92q0 154 106.5 226.5t313.5 72.5v-207q-80 0 -126 -17t-64.5 -52t-18.5 -90v-25h-211zM727 769v207h401v-207h-401z" />
    <glyph glyph-name="uni03F0" unicode="&#x3f0;" 
d="M1108 -9q-132 0 -211.5 32.5t-115.5 92.5t-36 143q0 42 9 102.5t22.5 120.5t26.5 99l-453 -581h-269q38 70 72.5 169.5t57.5 213.5t23 227q0 87 -37.5 133t-112.5 46h-30v199h54q116 0 196 -28t121.5 -95t41.5 -186q0 -68 -16 -150.5t-44 -165.5l472 617h253
q-32 -73 -66.5 -180.5t-59 -224.5t-24.5 -222q0 -83 36.5 -122.5t117.5 -39.5h38v-200h-66z" />
    <glyph glyph-name="uni03F1" unicode="&#x3f1;" 
d="M682 -17q-99 0 -175 29.5t-127 86.5l-1 217q35 -54 97 -91t155 -37q103 0 160 76.5t57 223.5q0 152 -55.5 227.5t-166.5 75.5q-109 0 -176.5 -66t-67.5 -227v-497l-264 13v476q0 139 37.5 235.5t105.5 156t161 87t204 27.5q232 0 360.5 -128.5t128.5 -381.5
q0 -171 -54.5 -282.5t-152.5 -166t-226 -54.5zM505 -358q-199 0 -293 92t-94 280l264 -13q0 -83 40.5 -116t117.5 -33h524v-210h-559z" />
    <glyph glyph-name="uni03F2" unicode="&#x3f2;" 
d="M632 -18q-236 0 -376 128.5t-140 371.5q0 163 64 277.5t180 173.5t272 59q139 0 244.5 -40.5t166 -122t62.5 -204.5h-260q-4 74 -57.5 118t-153.5 44q-133 0 -192 -79.5t-59 -225.5q0 -142 59 -219t192 -77q101 0 159.5 48t61.5 138h258q-3 -127 -63 -214t-166.5 -131.5
t-251.5 -44.5z" />
    <glyph glyph-name="uni03F3" unicode="&#x3f3;" 
d="M139 -358v208h238q83 0 128.5 25t63 73t17.5 116v705h-330v207h596v-928q0 -126 -47 -217t-149.5 -140t-269.5 -49h-247zM697 1090q-88 0 -134.5 43.5t-46.5 110.5q0 68 46.5 112t134.5 44t134 -44t46 -112q0 -67 -46 -110.5t-134 -43.5z" />
    <glyph glyph-name="uni03F4" unicode="&#x3f4;" 
d="M443 568v225h345v-225h-345zM615 -18q-181 0 -300.5 85t-178 240t-58.5 365t58.5 365.5t178 241t300.5 85.5q179 0 298 -85.5t178.5 -241t59.5 -365.5t-59.5 -365t-178.5 -240t-298 -85zM615 217q97 0 152 62t77.5 165.5t22.5 227.5q0 125 -22.5 228.5t-77.5 165.5
t-152 62q-99 0 -154 -61t-76.5 -164.5t-21.5 -230.5t21.5 -230.5t76.5 -164t154 -60.5z" />
    <glyph glyph-name="uni03F5" unicode="&#x3f5;" 
d="M849 -16q-127 0 -237 29.5t-193 90t-129 153.5t-46 222q0 175 76.5 287.5t213 167.5t315.5 55h108v-206h-106q-177 0 -271.5 -79t-94.5 -225q0 -138 94.5 -213.5t271.5 -75.5h126v-206h-128zM450 401v181h454v-181h-454z" />
    <glyph glyph-name="uni03F6" unicode="&#x3f6;" 
d="M493 401v181h387v-181h-387zM597 -18q-144 0 -251 44.5t-166.5 131.5t-63.5 214h259q2 -90 61 -138t159 -48q133 0 192 77t59 219q0 146 -59 225.5t-192 79.5q-100 0 -153 -44t-58 -118h-259q2 123 62 204.5t166 122t244 40.5q156 0 272 -59t180 -173.5t64 -277.5
q0 -162 -63.5 -273.5t-179.5 -169t-273 -57.5z" />
    <glyph glyph-name="uni03F7" unicode="&#x3f7;" 
d="M229 244v228h386q98 0 158 52t60 153q0 104 -61.5 155.5t-156.5 51.5h-386v228h413q132 0 241.5 -46.5t174.5 -142.5t65 -246q0 -147 -65 -243t-174.5 -143t-241.5 -47h-413zM158 0v1346h283v-1346h-283z" />
    <glyph glyph-name="uni03F8" unicode="&#x3f8;" 
d="M129 -358v1704h267v-512q53 72 131 115t183 43q178 0 283.5 -126t105.5 -379q0 -167 -52 -279t-144 -169t-214 -57q-98 0 -171 38.5t-123 103.5v-482h-266zM622 186q101 0 154.5 77t53.5 228t-51.5 225.5t-148.5 74.5q-87 0 -146 -50t-88 -107v-305q31 -57 86.5 -100
t139.5 -43z" />
    <glyph glyph-name="uni03F9" unicode="&#x3f9;" 
d="M632 -18q-178 0 -302 85t-187.5 240t-63.5 365t63.5 365.5t187.5 241t302 85.5q136 0 250.5 -54.5t186 -161t78.5 -262.5h-290q-7 81 -38.5 134.5t-80 80.5t-106.5 27q-101 0 -158.5 -61t-80.5 -164t-23 -231q0 -127 23 -230t80.5 -163.5t158.5 -60.5t159.5 70.5
t67.5 202.5h290q-11 -164 -75.5 -278t-176.5 -172.5t-265 -58.5z" />
    <glyph glyph-name="uni03FA" unicode="&#x3fa;" 
d="M97 0v1346h285l281 -710h-78l271 710h275v-1346h-254l24 1196h77l-300 -777h-126l-312 777h82l24 -1196h-249z" />
    <glyph glyph-name="uni03FB" unicode="&#x3fb;" 
d="M92 -358v1335h273l255 -480l252 480h265v-977h-246v635l-209 -413h-137l-207 411v-991h-246z" />
    <glyph glyph-name="uni03FC" unicode="&#x3fc;" 
d="M22 -225v143h616v-143h-616zM390 99l1 217q33 -54 92 -91t148 -37q103 0 160 76.5t57 223.5q0 152 -54 227.5t-162 75.5q-107 0 -172.5 -66t-65.5 -227v-856h-265v848q0 139 37 235.5t104.5 156t159.5 87t202 27.5q229 0 356 -128.5t127 -381.5q0 -171 -54.5 -282.5
t-152.5 -166t-226 -54.5q-95 0 -169 29.5t-123 86.5z" />
    <glyph glyph-name="uni03FD" unicode="&#x3fd;" 
d="M597 -18q-153 0 -265 58.5t-176.5 172.5t-75.5 278h290q9 -132 67.5 -202.5t159.5 -70.5q102 0 159 60.5t80 163.5t23 230q0 128 -23 231t-80 164t-159 61q-58 0 -106 -27t-79.5 -80.5t-39.5 -134.5h-290q7 156 78.5 262.5t186 161t250.5 54.5q179 0 302.5 -85.5
t187 -241t63.5 -365.5t-63.5 -365t-187 -240t-302.5 -85z" />
    <glyph glyph-name="uni03FE" unicode="&#x3fe;" 
d="M632 -18q-178 0 -302 85t-187.5 240t-63.5 365t63.5 365.5t187.5 241t302 85.5q136 0 250.5 -54.5t186 -161t78.5 -262.5h-290q-7 81 -38.5 134.5t-80 80.5t-106.5 27q-101 0 -158.5 -61t-80.5 -164t-23 -231q0 -127 23 -230t80.5 -163.5t158.5 -60.5t159.5 70.5
t67.5 202.5h290q-11 -164 -75.5 -278t-176.5 -172.5t-265 -58.5zM690 555q-72 0 -110.5 36.5t-38.5 92.5q0 57 38.5 93t110.5 36q73 0 112.5 -36t39.5 -93q0 -56 -39.5 -92.5t-112.5 -36.5z" />
    <glyph glyph-name="uni03FF" unicode="&#x3ff;" 
d="M597 -18q-153 0 -265 58.5t-176.5 172.5t-75.5 278h290q9 -132 67.5 -202.5t159.5 -70.5q102 0 159 60.5t80 163.5t23 230q0 128 -23 231t-80 164t-159 61q-58 0 -106 -27t-79.5 -80.5t-39.5 -134.5h-290q7 156 78.5 262.5t186 161t250.5 54.5q179 0 302.5 -85.5
t187 -241t63.5 -365.5t-63.5 -365t-187 -240t-302.5 -85zM570 550q-72 0 -110.5 36.5t-38.5 92.5q0 57 38.5 93t110.5 36q73 0 112.5 -36t39.5 -93q0 -56 -39.5 -92.5t-112.5 -36.5z" />
    <glyph glyph-name="uni0400" unicode="&#x400;" 
d="M142 0v1346h944v-234h-661v-313h602v-227h-602v-338h661v-234h-944zM550 1453l-278 277h286l188 -277h-196z" />
    <glyph glyph-name="uni0401" unicode="&#x401;" 
d="M142 0v1346h944v-234h-661v-313h602v-227h-602v-338h661v-234h-944zM810 1460q-51 0 -85.5 33t-34.5 85q0 51 34.5 84.5t85.5 33.5q52 0 87 -33.5t35 -84.5q0 -52 -35 -85t-87 -33zM426 1460q-51 0 -86 33t-35 85q0 51 34.5 84.5t86.5 33.5q51 0 86 -33.5t35 -84.5
q0 -52 -35 -85t-86 -33z" />
    <glyph glyph-name="uni0402" unicode="&#x402;" 
d="M281 0v1110h-259v236h799v-236h-255v-344q59 39 124.5 64t146.5 25q151 0 242 -89t91 -283v-342l-286 -18v320q0 84 -34 123.5t-98 39.5q-51 0 -95.5 -16.5t-90.5 -50.5v-539h-285zM696 -316v241h18q91 0 130.5 47t39.5 151l286 18q0 -233 -108.5 -345t-342.5 -112h-23z
" />
    <glyph glyph-name="uni0403" unicode="&#x403;" 
d="M221 0v1346h855v-234h-572v-1112h-283zM485 1453l188 277h286l-276 -277h-198z" />
    <glyph glyph-name="uni0404" unicode="&#x404;" 
d="M632 -18q-178 0 -302 85t-187.5 240t-63.5 365t63.5 365.5t187.5 241t302 85.5q136 0 250.5 -54.5t186 -161t78.5 -262.5h-290q-7 81 -38.5 134.5t-80 80.5t-106.5 27q-101 0 -158.5 -61t-80.5 -164t-23 -231q0 -127 23 -230t80.5 -163.5t158.5 -60.5t159.5 70.5
t67.5 202.5h290q-11 -164 -75.5 -278t-176.5 -172.5t-265 -58.5zM192 574v227h560v-227h-560z" />
    <glyph glyph-name="uni0405" unicode="&#x405;" 
d="M619 -18q-151 0 -273 44.5t-193.5 140.5t-72.5 251h289q3 -80 36 -125.5t90 -65t129 -19.5q70 0 122.5 18t83 54t30.5 91q0 49 -26 82.5t-90.5 62t-182.5 62.5q-138 40 -239 88t-156 124.5t-55 198.5q0 132 63 214t173.5 121t254.5 39q140 0 254.5 -42t183.5 -129
t69 -222h-290q1 85 -60.5 129t-155.5 44q-95 0 -149 -36t-54 -102q0 -40 24.5 -70t91.5 -57.5t194 -64.5q153 -43 250 -93t143 -129t46 -207q0 -142 -71 -230.5t-191.5 -130t-267.5 -41.5z" />
    <glyph glyph-name="uni0406" unicode="&#x406;" 
d="M474 0v1346h283v-1346h-283zM179 235h871v-235h-871v235zM179 1346h871v-235h-871v235z" />
    <glyph glyph-name="uni0407" unicode="&#x407;" 
d="M474 0v1346h283v-1346h-283zM179 235h871v-235h-871v235zM179 1346h871v-235h-871v235zM807 1460q-51 0 -85.5 33t-34.5 85q0 51 34.5 84.5t85.5 33.5q52 0 87 -33.5t35 -84.5q0 -52 -35 -85t-87 -33zM423 1460q-51 0 -86 33t-35 85q0 51 34.5 84.5t86.5 33.5
q51 0 86 -33.5t35 -84.5q0 -52 -35 -85t-86 -33z" />
    <glyph glyph-name="uni0408" unicode="&#x408;" 
d="M183 -10v242h324q88 0 145.5 29.5t86.5 95.5t29 174v815h277v-818q0 -277 -124.5 -407.5t-393.5 -130.5h-344zM380 1111v235h577v-235h-577z" />
    <glyph glyph-name="uni0409" unicode="&#x409;" 
d="M538 0v1111h-328l52 235h513l-2 -1346h-235zM-15 -17v242h19q27 0 50 30t42.5 113t36.5 241l81 737h217l-78 -798q-15 -164 -41.5 -273t-68 -173t-101.5 -91.5t-143 -27.5h-14zM656 0l91 831h71q119 0 207.5 -43t137.5 -133.5t49 -235.5q0 -150 -49 -242.5t-137.5 -134.5
t-208.5 -42h-161zM769 216h39q43 0 79 20t57 65t21 120q0 76 -21.5 118t-57.5 58.5t-78 16.5h-39v-398z" />
    <glyph glyph-name="uni040A" unicode="&#x40a;" 
d="M61 0v1346h238v-526h331v-249h-331v-571h-238zM749 216h47q44 0 79.5 20t57 65t21.5 120q0 76 -22 118t-58 58.5t-78 16.5h-47v-398zM636 0l91 831h79q120 0 208.5 -43t137 -133.5t48.5 -235.5q0 -150 -48.5 -242.5t-137.5 -134.5t-209 -42h-169zM518 0v1346h237
l-2 -1346h-235z" />
    <glyph glyph-name="uni040B" unicode="&#x40b;" 
d="M281 0v1110h-259v236h799v-236h-255v-344q59 39 124.5 64t146.5 25q151 0 242 -89t91 -283v-483h-286v443q0 84 -34 123.5t-98 39.5q-51 0 -95.5 -16.5t-90.5 -50.5v-539h-285z" />
    <glyph glyph-name="uni040C" unicode="&#x40c;" 
d="M150 0v1346h283v-642l424 642h313l-439 -631l471 -715h-326l-443 690v-690h-283zM514 1454l188 277h286l-276 -277h-198z" />
    <glyph glyph-name="uni040D" unicode="&#x40d;" 
d="M143 0v1346h255v-921l423 921h265v-1346h-254v929l-422 -929h-267zM546 1453l-278 277h286l188 -277h-196z" />
    <glyph glyph-name="uni040E" unicode="&#x40e;" 
d="M219 -9v234h56q85 0 136.5 24.5t76.5 78.5l7 17l-481 1001h303l325 -742l287 742h285l-437 -1074q-39 -97 -85 -153.5t-103 -84t-126.5 -35.5t-156.5 -8h-87zM625 1462q-171 0 -260.5 76.5t-101.5 206.5h201q10 -78 59 -106.5t102 -28.5q54 0 103 28.5t58 106.5h201
q-13 -129 -102 -206t-260 -77z" />
    <glyph glyph-name="uni040F" unicode="&#x40f;" 
d="M143 0v1346h283v-1097h376v1097h284v-1346h-943zM488 -297v517h252v-517h-252z" />
    <glyph glyph-name="uni0410" unicode="&#x410;" 
d="M29 0l437 1346h298l436 -1346h-277l-343 1181h68l-344 -1181h-275zM268 296v218h689v-218h-689z" />
    <glyph glyph-name="uni0411" unicode="&#x411;" 
d="M141 0v1346h879v-233h-596v-1113h-283zM254 0l148 822h229q160 0 274.5 -42t176 -132t61.5 -233q0 -149 -61.5 -240.5t-176.5 -133t-275 -41.5h-376zM424 216h196q69 0 122 19.5t83.5 63.5t30.5 117q0 111 -68 150.5t-168 39.5h-196v-390z" />
    <glyph glyph-name="uni0412" unicode="&#x412;" 
d="M138 0v1346h463q217 0 345 -81t128 -252q0 -108 -59.5 -185.5t-156.5 -106.5q147 -28 223.5 -115t76.5 -214q0 -130 -61.5 -217.5t-176.5 -131t-276 -43.5h-506zM421 216h215q67 0 121 18.5t85.5 60.5t31.5 114q0 90 -62.5 133t-176.5 43h-214v-369zM421 801h176
q91 0 142 46t51 126q0 81 -53 119t-140 38h-176v-329z" />
    <glyph glyph-name="uni0413" unicode="&#x413;" 
d="M221 0v1346h855v-234h-572v-1112h-283z" />
    <glyph glyph-name="uni0414" unicode="&#x414;" 
d="M5 -297v525h127q36 94 65 222.5t52 277t40 306.5t29 312h737v-1112h146v-531h-252v297h-692v-297h-252zM394 234h396v877h-252q-5 -77 -14.5 -168t-23 -188.5t-30.5 -192t-36 -179t-40 -149.5z" />
    <glyph glyph-name="uni0415" unicode="&#x415;" 
d="M142 0v1346h944v-234h-661v-313h602v-227h-602v-338h661v-234h-944z" />
    <glyph glyph-name="uni0416" unicode="&#x416;" 
d="M509 0v1346h210v-642l278 642h244l-300 -634l328 -712h-254l-296 690v-690h-210zM-40 0l328 712l-301 634h244l278 -642v-14l-296 -690h-253z" />
    <glyph glyph-name="uni0417" unicode="&#x417;" 
d="M612 -17q-167 0 -284.5 49t-179 148.5t-61.5 252.5h275q0 -101 64 -158.5t185 -57.5q116 0 178 47.5t62 148.5q0 94 -68.5 137t-176.5 43h-109v222h118q97 0 158 44.5t61 120.5t-56.5 113t-157.5 37q-107 0 -165 -49.5t-58 -136.5h-274q0 144 65.5 237t178 138.5
t252.5 45.5q131 0 242 -37.5t178.5 -116t67.5 -201.5q0 -117 -69.5 -191.5t-187.5 -104.5q126 -23 208.5 -104.5t82.5 -214.5t-64.5 -225t-183 -139.5t-281.5 -47.5z" />
    <glyph glyph-name="uni0418" unicode="&#x418;" 
d="M143 0v1346h255v-921l423 921h265v-1346h-254v929l-422 -929h-267z" />
    <glyph glyph-name="uni0419" unicode="&#x419;" 
d="M143 0v1346h255v-921l423 921h265v-1346h-254v929l-422 -929h-267zM614 1462q-171 0 -260.5 76.5t-101.5 206.5h201q10 -78 59 -106.5t102 -28.5q54 0 103 28.5t58 106.5h201q-13 -129 -102 -206t-260 -77z" />
    <glyph glyph-name="uni041A" unicode="&#x41a;" 
d="M150 0v1346h283v-642l424 642h313l-439 -631l471 -715h-326l-443 690v-690h-283z" />
    <glyph glyph-name="uni041B" unicode="&#x41b;" 
d="M802 0v1111h-402l21 235h663v-1346h-282zM7 -17v242h19q40 0 71.5 20t58.5 82t53 185.5t55 330.5l70 503h269l-80 -644q-26 -211 -62.5 -350.5t-90 -220t-130 -114.5t-183.5 -34h-50z" />
    <glyph glyph-name="uni041C" unicode="&#x41c;" 
d="M97 0v1346h285l281 -710h-78l271 710h275v-1346h-254l24 1196h77l-300 -777h-126l-312 777h82l24 -1196h-249z" />
    <glyph glyph-name="uni041D" unicode="&#x41d;" 
d="M143 0v1346h283v-526h376v526h284v-1346h-284v571h-376v-571h-283z" />
    <glyph glyph-name="uni041E" unicode="&#x41e;" 
d="M615 -18q-181 0 -300.5 85t-178 240t-58.5 365t58.5 365.5t178 241t300.5 85.5q179 0 298 -85.5t178.5 -241t59.5 -365.5t-59.5 -365t-178.5 -240t-298 -85zM615 217q95 0 148.5 62t75.5 165.5t22 227.5q0 125 -22 228.5t-75.5 165.5t-148.5 62q-97 0 -150.5 -61
t-74.5 -164.5t-21 -230.5t21 -230.5t74.5 -164t150.5 -60.5z" />
    <glyph glyph-name="uni041F" unicode="&#x41f;" 
d="M143 0v1346h943v-1346h-284v1097h-376v-1097h-283z" />
    <glyph glyph-name="uni0420" unicode="&#x420;" 
d="M158 0v1346h484q132 0 241.5 -46.5t174.5 -141.5t65 -243q0 -149 -65 -246t-174.5 -144t-241.5 -47h-201v-478h-283zM441 705h176q97 0 157 52.5t60 157.5q0 103 -61.5 152.5t-155.5 49.5h-176v-412z" />
    <glyph glyph-name="uni0421" unicode="&#x421;" 
d="M632 -18q-178 0 -302 85t-187.5 240t-63.5 365t63.5 365.5t187.5 241t302 85.5q136 0 250.5 -54.5t186 -161t78.5 -262.5h-290q-7 81 -38.5 134.5t-80 80.5t-106.5 27q-101 0 -158.5 -61t-80.5 -164t-23 -231q0 -127 23 -230t80.5 -163.5t158.5 -60.5t159.5 70.5
t67.5 202.5h290q-11 -164 -75.5 -278t-176.5 -172.5t-265 -58.5z" />
    <glyph glyph-name="uni0422" unicode="&#x422;" 
d="M474 0v1112h-396v234h1073v-234h-394v-1112h-283z" />
    <glyph glyph-name="uni0423" unicode="&#x423;" 
d="M219 -9v234h56q85 0 136.5 24.5t76.5 78.5l7 17l-481 1001h303l325 -742l287 742h285l-437 -1074q-39 -97 -85 -153.5t-103 -84t-126.5 -35.5t-156.5 -8h-87z" />
    <glyph glyph-name="uni0424" unicode="&#x424;" 
d="M627 126v201h8q155 0 240 90t85 270q0 172 -86.5 257t-238.5 85h-8v200h19q161 0 287 -60.5t198.5 -181t72.5 -300.5q0 -184 -72.5 -309.5t-198.5 -188.5t-287 -63h-19zM502 -41v1427h224v-1427h-224zM596 126h-20q-157 0 -282 63t-197 188.5t-72 309.5q0 180 72 300.5
t197 181t282 60.5h20v-200h-9q-146 0 -232 -85t-86 -257q0 -180 84 -270t234 -90h9v-201z" />
    <glyph glyph-name="uni0425" unicode="&#x425;" 
d="M17 0l441 704l-405 642h327l234 -439l248 439h314l-403 -644l439 -702h-336l-262 473l-279 -473h-318z" />
    <glyph glyph-name="uni0426" unicode="&#x426;" 
d="M947 -297v297l-10 98l-6 138h267v-533h-251zM111 0v1346h283v-1097h376v1097h285v-1346h-944z" />
    <glyph glyph-name="uni0427" unicode="&#x427;" 
d="M818 0v544q-74 -39 -154.5 -64.5t-169.5 -25.5q-183 0 -288.5 95t-105.5 301v496h283v-459q0 -103 43.5 -151.5t136.5 -48.5q58 0 122.5 19.5t132.5 58.5v581h282v-1346h-282z" />
    <glyph glyph-name="uni0428" unicode="&#x428;" 
d="M80 0v1346h242v-1111h583v1111h244v-1346h-1069zM493 47v1299h241v-1299h-241z" />
    <glyph glyph-name="uni0429" unicode="&#x429;" 
d="M85 0v1346h219v-1111h567v1111h221v-1346h-1007zM991 -297v297l-9 98l-6 138h231v-533h-216zM479 47v1299h218v-1299h-218z" />
    <glyph glyph-name="uni042A" unicode="&#x42a;" 
d="M430 0l149 831h109q155 0 266 -43t170.5 -133.5t59.5 -235.5q0 -150 -59.5 -242.5t-171 -134.5t-266.5 -42h-257zM319 0v1346h283v-1346h-283zM601 216h77q64 0 113 20t77 65t28 120q0 113 -62.5 153t-155.5 40h-77v-398zM36 1110v236h534v-236h-534z" />
    <glyph glyph-name="uni042B" unicode="&#x42b;" 
d="M207 0l91 831h92q137 0 233.5 -43t147.5 -133.5t51 -235.5q0 -150 -51 -242.5t-148 -134.5t-234 -42h-182zM320 216h60q58 0 101.5 20t68.5 65t25 120q0 113 -55.5 153t-139.5 40h-60v-398zM908 0v1346h245v-1346h-245zM76 0v1346h245v-1346h-245z" />
    <glyph glyph-name="uni042C" unicode="&#x42c;" 
d="M143 0v1346h283v-1346h-283zM255 0l149 831h210q160 0 274.5 -43t176.5 -133t62 -235q0 -150 -62 -243t-177 -135t-275 -42h-358zM426 216h178q68 0 121 20t83.5 65t30.5 121q0 112 -68 152t-167 40h-178v-398z" />
    <glyph glyph-name="uni042D" unicode="&#x42d;" 
d="M597 -18q-153 0 -265 58.5t-176.5 172.5t-75.5 278h290q9 -132 67.5 -202.5t159.5 -70.5q102 0 159 60.5t80 163.5t23 230q0 128 -23 231t-80 164t-159 61q-58 0 -106 -27t-79.5 -80.5t-39.5 -134.5h-290q7 156 78.5 262.5t186 161t250.5 54.5q179 0 302.5 -85.5
t187 -241t63.5 -365.5t-63.5 -365t-187 -240t-302.5 -85zM477 574v227h560v-227h-560z" />
    <glyph glyph-name="uni042E" unicode="&#x42e;" 
d="M806 -18q-139 0 -220.5 82.5t-117 237t-35.5 370.5t35.5 371t117 238t220.5 83q136 0 219.5 -83t121.5 -238t38 -371t-38 -370.5t-121.5 -237t-219.5 -82.5zM806 197q58 0 90 63.5t44.5 171.5t12.5 240q0 133 -12.5 241t-44.5 172t-90 64t-88 -64t-40.5 -172t-10.5 -241
q0 -132 10.5 -240t40.5 -171.5t88 -63.5zM70 0v1346h223v-532h220v-221h-220v-593h-223z" />
    <glyph glyph-name="uni042F" unicode="&#x42f;" 
d="M46 0l104 316q32 95 66.5 160.5t88.5 103.5t141 51q-150 38 -224 127t-74 217q0 136 62 217t170 117.5t243 36.5h463v-1346h-283v515h-145q-65 0 -108 -23.5t-73.5 -78.5t-61.5 -153l-80 -260h-289zM658 747h145v365h-160q-96 0 -150.5 -45t-54.5 -134q0 -61 27 -102
t76 -62.5t117 -21.5z" />
    <glyph glyph-name="uni0430" unicode="&#x430;" 
d="M467 -17q-87 0 -163.5 32t-124.5 96.5t-48 162.5q0 135 85 203t240.5 93t366.5 29v51q0 93 -51.5 128t-131.5 35q-91 0 -148 -37t-57 -120h-250q0 120 57.5 194t160 107.5t237.5 33.5q97 0 178.5 -16t140.5 -54t91.5 -102.5t32.5 -163.5v-655h-249l-9 128
q-67 -66 -153 -105.5t-205 -39.5zM550 167q90 0 158.5 36t110.5 88v163q-234 -3 -328.5 -41t-94.5 -121q0 -58 40 -91.5t114 -33.5z" />
    <glyph glyph-name="uni0431" unicode="&#x431;" 
d="M113 614q0 162 26 277t78.5 195t132.5 134q101 68 275 104t416 60l21 2v-228l-21 -2q-244 -24 -382.5 -50t-191.5 -59q-43 -28 -64.5 -86.5t-28.5 -123.5t-7 -114zM619 -16q-245 0 -375.5 152t-130.5 478l177 109q17 56 72 111.5t142.5 92t198.5 36.5q109 0 203 -48.5
t152 -153.5t58 -276q0 -232 -127.5 -366.5t-369.5 -134.5zM619 187q124 0 175.5 82.5t51.5 215.5q0 142 -55.5 208t-160.5 66q-57 0 -107 -17.5t-89.5 -45.5t-66.5 -60v-69q0 -186 64 -283t188 -97z" />
    <glyph glyph-name="uni0432" unicode="&#x432;" 
d="M172 0v976h456q191 0 292 -60t101 -184q0 -77 -44.5 -131t-117.5 -78q116 -19 176.5 -81.5t60.5 -154.5q0 -147 -109 -217t-318 -70h-497zM434 175h229q49 0 86.5 11.5t59.5 39t22 74.5q0 63 -46 93t-122 30h-229v-248zM434 586h185q65 0 104 27.5t39 84.5q0 56 -40 79.5
t-103 23.5h-185v-215z" />
    <glyph glyph-name="uni0433" unicode="&#x433;" 
d="M298 0v976h267v-976h-267zM441 771v205h568v-205h-568z" />
    <glyph glyph-name="uni0434" unicode="&#x434;" 
d="M37 -274v480h108q39 106 69 221.5t54.5 250.5t45.5 298h697v-770h133v-480h-240v274h-627v-274h-240zM413 206h332v563h-219q-10 -91 -27.5 -191.5t-39.5 -196.5t-46 -175z" />
    <glyph glyph-name="uni0435" unicode="&#x435;" 
d="M633 -18q-164 0 -281 60.5t-179.5 174.5t-62.5 274q0 155 61 266.5t175 172.5t274 61q229 0 363 -126t134 -366q0 -13 -1 -30.5t-3 -27.5h-738q2 -73 28 -135.5t83 -100t151 -37.5q103 0 164 38.5t64 116.5h251q-6 -114 -66.5 -190t-167 -113.5t-249.5 -37.5zM380 599
h474q-5 107 -68.5 160t-165.5 53q-104 0 -166 -54.5t-74 -158.5z" />
    <glyph glyph-name="uni0436" unicode="&#x436;" 
d="M2 0l309 527l-281 449h212l274 -449v449h197v-449l274 449h212l-281 -449l309 -527h-223l-291 515v-515h-197v515l-291 -515h-223z" />
    <glyph glyph-name="uni0437" unicode="&#x437;" 
d="M618 -17q-233 0 -358 83t-125 256h236q0 -76 64.5 -112.5t183.5 -36.5q109 0 165 30t56 95q0 67 -60 97.5t-155 30.5h-95v171h116q89 0 134.5 29.5t45.5 79.5q0 54 -53.5 79t-149.5 25q-106 0 -163.5 -34t-56.5 -95h-237q0 104 60 173t163.5 103.5t232.5 34.5
q130 0 230 -29.5t156 -86.5t56 -142t-63.5 -139.5t-172.5 -75.5q114 -17 189.5 -77.5t75.5 -156.5q0 -147 -127 -224.5t-348 -77.5z" />
    <glyph glyph-name="uni0438" unicode="&#x438;" 
d="M148 0v976h247v-628l439 628h247v-976h-247v630l-439 -630h-247z" />
    <glyph glyph-name="uni0439" unicode="&#x439;" 
d="M148 0v976h247v-628l439 628h247v-976h-247v630l-439 -630h-247zM634 1105q-163 0 -247.5 76.5t-95.5 206.5h200q9 -78 52.5 -105t90.5 -27t91 27.5t51 104.5h201q-12 -129 -96.5 -206t-246.5 -77z" />
    <glyph glyph-name="uni043A" unicode="&#x43a;" 
d="M189 0v976h266v-449l409 449h290l-414 -449l442 -527h-303l-424 515v-515h-266z" />
    <glyph glyph-name="uni043B" unicode="&#x43b;" 
d="M58 -17v211h15q28 0 50.5 10.5t42 47t38 111t38.5 202.5l64 411h768v-976h-266v771h-286l-35 -240q-23 -163 -48.5 -269.5t-63 -167.5t-97.5 -86t-154 -25h-66z" />
    <glyph glyph-name="uni043C" unicode="&#x43c;" 
d="M115 0v975h272l228 -478l222 478h277v-975h-258v634l-180 -412h-136l-179 409v-631h-246z" />
    <glyph glyph-name="uni043D" unicode="&#x43d;" 
d="M807 0v976h266v-976h-266zM155 0v976h266v-976h-266zM324 397v205h533v-205h-533z" />
    <glyph glyph-name="uni043E" unicode="&#x43e;" 
d="M612 -18q-147 0 -260.5 59t-177.5 171.5t-64 272.5q0 163 64 277t177.5 174t260.5 60q148 0 262.5 -60t179.5 -174t65 -277q0 -160 -65 -272.5t-179.5 -171.5t-262.5 -59zM612 186q86 0 138 40.5t76 108.5t24 150q0 84 -24 154t-76 111.5t-138 41.5q-84 0 -136 -41.5
t-75.5 -111.5t-23.5 -154q0 -82 23.5 -150t75.5 -108.5t136 -40.5z" />
    <glyph glyph-name="uni043F" unicode="&#x43f;" 
d="M807 0v976h266v-976h-266zM155 0v976h267v-976h-267zM324 771v205h554v-205h-554z" />
    <glyph glyph-name="uni0440" unicode="&#x440;" 
d="M152 -358v1334h253l14 -142q52 72 130.5 115t183.5 43q178 0 283 -126t105 -379q0 -167 -51.5 -279t-143.5 -169t-215 -57q-98 0 -170.5 38.5t-122.5 103.5v-482h-266zM644 186q102 0 155.5 77t53.5 228t-51.5 225.5t-148.5 74.5q-88 0 -147 -50t-87 -107v-305
q31 -57 86.5 -100t138.5 -43z" />
    <glyph glyph-name="uni0441" unicode="&#x441;" 
d="M632 -18q-236 0 -376 128.5t-140 371.5q0 163 64 277.5t180 173.5t272 59q139 0 244.5 -40.5t166 -122t62.5 -204.5h-260q-4 74 -57.5 118t-153.5 44q-133 0 -192 -79.5t-59 -225.5q0 -142 59 -219t192 -77q101 0 159.5 48t61.5 138h258q-3 -127 -63 -214t-166.5 -131.5
t-251.5 -44.5z" />
    <glyph glyph-name="uni0442" unicode="&#x442;" 
d="M481 0v976h266v-976h-266zM147 771v205h934v-205h-934z" />
    <glyph glyph-name="uni0443" unicode="&#x443;" 
d="M188 -358v216h106q69 0 114 19t64 66l25 58l-429 975h278l317 -833l-56 -2l288 835h270l-440 -1087q-32 -84 -75.5 -138.5t-119 -81.5t-205.5 -27h-137z" />
    <glyph glyph-name="uni0444" unicode="&#x444;" 
d="M612 -26q-279 0 -425 133t-146 377q0 245 146 380t425 135t427.5 -135t148.5 -380q0 -244 -148.5 -377t-427.5 -133zM612 155q121 0 190 44.5t99 119.5t30 165q0 91 -30 166.5t-99 121t-190 45.5q-118 0 -187.5 -45.5t-99 -121t-29.5 -166.5q0 -90 29.5 -165t99 -119.5
t187.5 -44.5zM511 -358v1704h204v-1704h-204z" />
    <glyph glyph-name="uni0445" unicode="&#x445;" 
d="M93 0l403 563l102 55l224 358h285l-366 -525l-104 -53l-261 -398h-283zM851 0l-260 398l-94 50l-371 528h285l226 -356l91 -55l409 -565h-286z" />
    <glyph glyph-name="uni0446" unicode="&#x446;" 
d="M763 0v976h266v-976h-266zM140 0v976h266v-976h-266zM309 0v206h525v-206h-525zM915 -274v284l-3 31l-5 165h248v-480h-240z" />
    <glyph glyph-name="uni0447" unicode="&#x447;" 
d="M803 0v371q-53 -33 -131 -63.5t-191 -30.5q-154 0 -246 87t-92 249v363h266v-330q0 -68 37.5 -110.5t115.5 -42.5q77 0 134.5 21t106.5 50v412h267v-976h-267z" />
    <glyph glyph-name="uni0448" unicode="&#x448;" 
d="M501 0v976h226v-976h-226zM77 0v976h225v-976h-225zM246 0v206h301v-206h-301zM926 0v976h226v-976h-226zM650 0v206h306v-206h-306z" />
    <glyph glyph-name="uni0449" unicode="&#x449;" 
d="M78 0v976h215v-772h187v772h215v-772h187v772h217v-976h-1021zM995 -267v267l-9 75v131h221v-473h-212z" />
    <glyph glyph-name="uni044A" unicode="&#x44a;" 
d="M401 0v976h239v-337h114q115 0 206.5 -29.5t144.5 -99t53 -187.5q0 -113 -52 -184t-143 -105t-208 -34h-354zM640 178h106q78 0 125 33.5t47 111.5q0 81 -48 110t-124 29h-106v-284zM62 771v205h463v-205h-463z" />
    <glyph glyph-name="uni044B" unicode="&#x44b;" 
d="M112 0v976h209v-337h115q112 0 196.5 -29.5t131.5 -99t47 -188.5q0 -169 -102 -245.5t-273 -76.5h-324zM321 178h107q78 0 124.5 33.5t46.5 110.5q0 82 -48 111t-123 29h-107v-284zM909 0v976h208v-976h-208z" />
    <glyph glyph-name="uni044C" unicode="&#x44c;" 
d="M196 0v976h267v-337h191q131 0 228 -29.5t151.5 -99t54.5 -187.5q0 -169 -118 -246t-315 -77h-459zM463 178h184q77 0 124 33.5t47 111.5q0 81 -48 110t-123 29h-184v-284z" />
    <glyph glyph-name="uni044D" unicode="&#x44d;" 
d="M932 401h-361v181h361v-181zM597 -18q-144 0 -251 44.5t-166.5 131.5t-63.5 214h259q2 -90 61 -138t159 -48q133 0 192 77t59 219q0 146 -59 225.5t-192 79.5q-100 0 -153 -44t-58 -118h-259q2 123 62 204.5t166 122t244 40.5q156 0 272 -59t180 -173.5t64 -277.5
q0 -243 -140 -371.5t-376 -128.5z" />
    <glyph glyph-name="uni044E" unicode="&#x44e;" 
d="M71 0v976h214v-976h-214zM165 395v205h397v-205h-397zM803 -17q-114 0 -198.5 55t-131 166t-46.5 279q0 170 46.5 282t131 167.5t198.5 55.5t199 -55.5t132 -167.5t47 -282q0 -168 -47 -279t-132 -166t-199 -55zM803 187q59 0 93.5 40t49.5 107.5t15 148.5q0 83 -15 151
t-49.5 108.5t-93.5 40.5q-58 0 -92 -40.5t-48.5 -108.5t-14.5 -151q0 -81 14.5 -148.5t48.5 -107.5t92 -40z" />
    <glyph glyph-name="uni044F" unicode="&#x44f;" 
d="M106 0l79 224q32 90 81.5 136t138.5 64q-112 17 -179 85.5t-67 177.5q0 150 115 219.5t313 69.5h467v-976h-268v354h-137q-66 0 -106 -21t-63.5 -64.5t-44.5 -111.5l-48 -157h-281zM616 531h170v253h-194q-74 0 -118 -27t-44 -99q0 -66 50.5 -96.5t135.5 -30.5z" />
    <glyph glyph-name="uni0450" unicode="&#x450;" 
d="M633 -18q-164 0 -281 60.5t-179.5 174.5t-62.5 274q0 155 61 266.5t175 172.5t274 61q229 0 363 -126t134 -366q0 -13 -1 -30.5t-3 -27.5h-738q2 -73 28 -135.5t83 -100t151 -37.5q103 0 164 38.5t64 116.5h251q-6 -114 -66.5 -190t-167 -113.5t-249.5 -37.5zM380 599
h474q-5 107 -68.5 160t-165.5 53q-104 0 -166 -54.5t-74 -158.5zM561 1106l-287 277h287l197 -277h-197z" />
    <glyph glyph-name="uni0451" unicode="&#x451;" 
d="M633 -18q-164 0 -281 60.5t-179.5 174.5t-62.5 274q0 155 61 266.5t175 172.5t274 61q229 0 363 -126t134 -366q0 -13 -1 -30.5t-3 -27.5h-738q2 -73 28 -135.5t83 -100t151 -37.5q103 0 164 38.5t64 116.5h251q-6 -114 -66.5 -190t-167 -113.5t-249.5 -37.5zM380 599
h474q-5 107 -68.5 160t-165.5 53q-104 0 -166 -54.5t-74 -158.5zM813 1115q-51 0 -85.5 33t-34.5 85t34.5 85t85.5 33q52 0 87 -33t35 -85t-35 -85t-87 -33zM429 1115q-51 0 -86 33t-35 85t34.5 85t86.5 33q51 0 86 -33t35 -85t-35 -85t-86 -33z" />
    <glyph glyph-name="uni0452" unicode="&#x452;" 
d="M213 0v1348h262v-517q49 62 131.5 109.5t211.5 47.5q156 0 240 -88.5t84 -264.5v-632l-265 -20v618q0 53 -15.5 92t-49.5 60.5t-91 21.5q-82 0 -140 -36t-101 -89v-650h-267zM689 -358v210h58q65 0 97.5 31.5t32.5 99.5l265 20q0 -175 -87.5 -268t-273.5 -93h-92z
M87 1092v142h628v-142h-628z" />
    <glyph glyph-name="uni0453" unicode="&#x453;" 
d="M298 0v976h267v-976h-267zM441 771v205h568v-205h-568zM465 1106l197 277h287l-287 -277h-197z" />
    <glyph glyph-name="uni0454" unicode="&#x454;" 
d="M293 401v181h365v-181h-365zM632 -18q-236 0 -376 128.5t-140 371.5q0 163 64 277.5t180 173.5t272 59q139 0 244.5 -40.5t166 -122t62.5 -204.5h-260q-4 74 -57.5 118t-153.5 44q-133 0 -192 -79.5t-59 -225.5q0 -142 59 -219t192 -77q101 0 159.5 48t61.5 138h258
q-3 -127 -63 -214t-166.5 -131.5t-251.5 -44.5z" />
    <glyph glyph-name="uni0455" unicode="&#x455;" 
d="M613 -19q-98 0 -185 15.5t-154.5 52t-106 98.5t-38.5 156h247q0 -81 67 -112.5t171 -31.5q95 0 159 25t64 84q0 36 -25.5 59.5t-87 42t-172.5 37.5q-118 22 -207.5 58t-139.5 95.5t-50 150.5q0 78 36.5 132t99.5 86.5t144 47.5t168 15q90 0 171.5 -16t145 -52.5t100 -96
t36.5 -145.5h-246q0 72 -58.5 103.5t-145.5 31.5q-91 0 -142.5 -22t-51.5 -68q0 -27 23.5 -48.5t88.5 -42t189 -45.5q125 -24 210.5 -59t129.5 -92.5t44 -150.5q0 -109 -65 -177t-174.5 -99.5t-244.5 -31.5z" />
    <glyph glyph-name="uni0456" unicode="&#x456;" 
d="M630 1090q-88 0 -134 43.5t-46 110.5q0 68 46 112t134 44t134 -44t46 -112q0 -67 -46 -110.5t-134 -43.5zM953 0q-163 0 -262.5 49t-145.5 140t-46 217v363h-344v207h610v-554q0 -103 40 -158.5t156 -55.5h173v-208h-181z" />
    <glyph glyph-name="uni0457" unicode="&#x457;" 
d="M849 1115q-51 0 -86 33t-35 85t35 85t86 33q52 0 87 -33t35 -85t-35 -85t-87 -33zM506 1115q-51 0 -86.5 33t-35.5 85t35.5 85t86.5 33t86 -33t35 -85t-35 -85t-86 -33zM1005 0q-162 0 -262 49t-145.5 140t-45.5 217v363h-310v207h576v-554q0 -103 39.5 -158.5
t156.5 -55.5h150v-208h-159z" />
    <glyph glyph-name="uni0458" unicode="&#x458;" 
d="M139 -358v208h238q83 0 128.5 25t63 73t17.5 116v705h-330v207h596v-928q0 -126 -47 -217t-149.5 -140t-269.5 -49h-247zM697 1090q-88 0 -134.5 43.5t-46.5 110.5q0 68 46.5 112t134.5 44t134 -44t46 -112q0 -67 -46 -110.5t-134 -43.5z" />
    <glyph glyph-name="uni0459" unicode="&#x459;" 
d="M20 -17v211h15q23 0 42.5 9t35.5 36.5t30.5 82t28.5 145.5l79 509h512v-337h84q106 0 185.5 -29.5t123.5 -99t44 -187.5q0 -169 -96 -246t-257 -77h-291v771h-136l-49 -338q-21 -139 -48.5 -227t-65 -136.5t-88 -67.5t-116.5 -19h-33zM763 178h76q67 0 108.5 33.5
t41.5 111.5q0 81 -42.5 110t-107.5 29h-76v-284z" />
    <glyph glyph-name="uni045A" unicode="&#x45a;" 
d="M541 0v976h209v-337h72q103 0 183 -29.5t125.5 -99t45.5 -187.5q0 -169 -98 -246t-255 -77h-282zM80 0v976h208v-976h-208zM191 414v206h401v-206h-401zM750 178h64q68 0 109 33.5t41 111.5q0 81 -42.5 110t-107.5 29h-64v-284z" />
    <glyph glyph-name="uni045B" unicode="&#x45b;" 
d="M61 1092v142h620v-142h-620zM155 0v1346h262v-515q49 62 130 110.5t210 48.5q160 0 242.5 -88.5t82.5 -266.5v-635h-267v601q0 54 -14 93t-47 61t-90 22q-80 0 -140 -36.5t-102 -90.5v-650h-267z" />
    <glyph glyph-name="uni045C" unicode="&#x45c;" 
d="M189 0v976h266v-449l409 449h290l-414 -449l442 -527h-303l-424 515v-515h-266zM488 1106l197 277h287l-287 -277h-197z" />
    <glyph glyph-name="uni045D" unicode="&#x45d;" 
d="M148 0v976h247v-628l439 628h247v-976h-247v630l-439 -630h-247zM595 1106l-287 277h287l197 -277h-197z" />
    <glyph glyph-name="uni045E" unicode="&#x45e;" 
d="M188 -358v216h106q69 0 114 19t64 66l25 58l-429 975h278l317 -833l-56 -2l288 835h270l-440 -1087q-32 -84 -75.5 -138.5t-119 -81.5t-205.5 -27h-137zM614 1105q-163 0 -247.5 76.5t-95.5 206.5h200q9 -78 52.5 -105t90.5 -27t91 27.5t51 104.5h201
q-12 -129 -96.5 -206t-246.5 -77z" />
    <glyph glyph-name="uni045F" unicode="&#x45f;" 
d="M804 0v976h267v-976h-267zM158 0v976h266v-976h-266zM327 0v206h548v-206h-548zM494 -274v382h240v-382h-240z" />
    <glyph glyph-name="uni0460" unicode="&#x460;" 
d="M346 -18q-158 0 -230 165t-72 478q0 179 23 360t60 361h233q-38 -174 -60.5 -348.5t-22.5 -348.5q0 -125 8 -221.5t29.5 -151.5t63.5 -55q45 0 72 52.5t39.5 135t12.5 172.5v461h226v-461q0 -90 12.5 -172.5t40 -135t72.5 -52.5q43 0 64 55t28 151.5t7 221.5
q0 174 -22.5 348.5t-59.5 348.5h233q38 -180 60.5 -361t22.5 -360q0 -313 -72 -478t-229 -165q-85 0 -158 67t-112 208q-38 -141 -110.5 -208t-158.5 -67z" />
    <glyph glyph-name="uni0461" unicode="&#x461;" 
d="M252 0l-248 976h249l135 -723l204 653l120 -198l-223 -708h-237zM743 0l-256 976h244l135 -723l135 723h223l-247 -976h-234z" />
    <glyph glyph-name="uni0462" unicode="&#x462;" 
d="M27 1025v213h883v-213h-883zM247 0v1346h283v-1346h-283zM359 0l148 831h173q160 0 275 -43t176.5 -133t61.5 -235q0 -150 -61.5 -243t-176.5 -135t-276 -42h-320zM530 216h140q69 0 122 20t83.5 65t30.5 121q0 112 -68 152t-168 40h-140v-398z" />
    <glyph glyph-name="uni0463" unicode="&#x463;" 
d="M259 0v1346h264v-665h142q131 0 230 -31.5t154 -105.5t55 -201q0 -179 -119.5 -261t-318.5 -82h-407zM523 178h134q81 0 129 38t48 127q0 92 -49 126.5t-128 34.5h-134v-326zM125 1096v141h732v-141h-732z" />
    <glyph glyph-name="uni0464" unicode="&#x464;" 
d="M806 -18q-139 0 -220.5 82.5t-117 237t-35.5 370.5t35.5 371t117 238t220.5 83q159 0 250.5 -117.5t112.5 -313.5h-230q-6 98 -41 157t-92 59q-58 0 -88 -64t-40.5 -172t-10.5 -241q0 -132 10.5 -240t40.5 -171.5t88 -63.5q62 0 98 72.5t40 189.5h231
q-17 -235 -108.5 -356t-260.5 -121zM70 0v1346h217v-532h213v-221h-213v-593h-217zM563 595v217h330v-217h-330z" />
    <glyph glyph-name="uni0465" unicode="&#x465;" 
d="M803 -17q-114 0 -198.5 55t-131 166t-46.5 279q0 170 46.5 282t131 167.5t198.5 55.5q137 0 231.5 -77t125.5 -238h-224q-15 51 -47 80.5t-86 29.5q-58 0 -92 -40.5t-48.5 -108.5t-14.5 -151q0 -81 14.5 -148.5t48.5 -107.5t92 -40t92 35t47 93h224q-29 -169 -125 -250.5
t-238 -81.5zM71 0v976h214v-976h-214zM165 395v205h397v-205h-397zM600 402l12 181h251v-181h-263z" />
    <glyph glyph-name="uni0466" unicode="&#x466;" 
d="M-13 0l493 1346h276l485 -1346h-274l-351 1098l-356 -1098h-273zM509 0v609h206v-609h-206zM290 441v211h642v-211h-642z" />
    <glyph glyph-name="uni0467" unicode="&#x467;" 
d="M54 0l408 976h304l408 -976h-256l-303 783l-298 -783h-263zM514 0v423h206v-423h-206zM306 329v159h537v-159h-537z" />
    <glyph glyph-name="uni0468" unicode="&#x468;" 
d="M278 0l353 1346h243l351 -1346h-219l-254 1120l-257 -1120h-217zM52 0v1346h193v-701h285v-168h-285v-477h-193zM665 0v625h177v-625h-177zM540 477v168h472v-168h-472z" />
    <glyph glyph-name="uni0469" unicode="&#x469;" 
d="M314 0l333 976h232l329 -976h-212l-234 745l-235 -745h-213zM69 0v976h189v-491h285v-164h-285v-321h-189zM674 0v455h177v-455h-177zM550 322v164h453v-164h-453z" />
    <glyph glyph-name="uni046A" unicode="&#x46a;" 
d="M490 0v563l-350 573v210h127l349 -610l364 610h116v-210l-361 -573v-563h-245zM11 0l72 389q19 100 62.5 176.5t123.5 120t205 43.5l131 -148h-116q-53 0 -89 -17.5t-57.5 -62t-35.5 -126.5l-60 -375h-236zM981 0l-60 375q-13 82 -35 126.5t-58 62t-89 17.5h-116l131 148
q126 0 205.5 -43.5t123.5 -120t62 -176.5l72 -389h-236zM140 1136v210h956v-210h-956z" />
    <glyph glyph-name="uni046B" unicode="&#x46b;" 
d="M492 0v368l-345 422v186h940v-187l-353 -421v-368h-242zM13 0l105 239q39 92 80 159.5t103 104t163 36.5l94 -140h-55q-38 0 -65 -14t-49.5 -51.5t-48.5 -107.5l-92 -226h-235zM980 0l-92 226q-26 70 -48 107.5t-47.5 51.5t-64.5 14h-58l94 140q101 0 163 -36.5
t103.5 -104t79.5 -159.5l105 -239h-235zM616 539l192 250h-381z" />
    <glyph glyph-name="uni046C" unicode="&#x46c;" 
d="M639 0v563l-286 625v158h123l260 -602l245 602h125v-158l-280 -625v-563h-187zM265 0l62 389q16 101 57.5 177.5t99.5 119.5t123 43l118 -125h-76q-65 0 -93 -60t-46 -169l-60 -375h-185zM48 0v1346h181v-678h265v-156h-265v-512h-181zM1018 0l-60 375q-18 109 -46 169
t-93 60h-76l118 125q107 0 181.5 -94t98.5 -246l62 -389h-185zM353 1188v158h753v-158h-753z" />
    <glyph glyph-name="uni046D" unicode="&#x46d;" 
d="M646 0v415l-289 405v156h763v-156l-283 -405v-415h-191zM268 0l63 294q17 78 58.5 136.5t100 91.5t124.5 33l120 -101h-77q-66 0 -94 -45t-46 -127l-61 -282h-188zM1030 0l-61 282q-17 82 -45.5 127t-94.5 45h-77l121 101q108 0 182.5 -72t99.5 -189l63 -294h-188z
M745 574l165 247h-330zM48 0v976h184v-458h268v-127h-268v-391h-184z" />
    <glyph glyph-name="uni046E" unicode="&#x46e;" 
d="M149 -261q-46 253 32 367.5t266 114.5h147q115 0 175 46t60 141q0 98 -66 141.5t-170 43.5h-109v222h117q95 0 153 44.5t58 120.5t-54.5 113t-154.5 37q-105 0 -162 -49.5t-57 -136.5h-274q0 144 65 237t176.5 138.5t251.5 45.5q129 0 239 -37.5t177 -116t67 -201.5
q0 -117 -70 -191.5t-188 -104.5q127 -23 209 -104.5t82 -214.5t-61.5 -224.5t-170 -138t-248.5 -46.5h-79q-63 0 -96 -24.5t-39 -78.5t10 -144h-286zM486 1453l-213 278h204l129 -159l130 159h205l-212 -278h-243z" />
    <glyph glyph-name="uni046F" unicode="&#x46f;" 
d="M237 -259q-30 155 -6.5 246.5t99 136.5t197.5 59l55 6q117 13 166 36.5t49 83.5t-49.5 88t-143.5 28h-105v172h132q64 0 106.5 27.5t42.5 81.5q0 46 -41.5 73.5t-131.5 27.5t-139 -32t-52 -91h-237q3 110 59 177.5t151.5 98t217.5 30.5q121 0 213 -30t143.5 -87
t51.5 -139q0 -80 -48 -137t-148 -79q102 -20 166.5 -80t64.5 -171q0 -96 -45.5 -152t-125 -84.5t-180.5 -41.5l-100 -13q-64 -8 -94 -30t-32.5 -70.5t13.5 -134.5h-249zM496 1106l-212 277h199l135 -146l134 146h199l-211 -277h-244z" />
    <glyph glyph-name="uni0470" unicode="&#x470;" 
d="M644 330v200h73q112 0 173.5 81t61.5 240v496h227l-1 -496q-1 -176 -59.5 -292t-159.5 -172.5t-231 -56.5h-84zM506 330q-130 0 -232.5 56.5t-161 172.5t-58.5 292v495h232v-495q0 -159 61 -240t171 -81h72v-200h-84zM505 0v1346h223v-1346h-223z" />
    <glyph glyph-name="uni0471" unicode="&#x471;" 
d="M535 -11q-146 0 -248.5 49.5t-155 144t-52.5 229.5v564h224v-531q0 -80 23 -140.5t75.5 -93.5t141.5 -33h141q89 0 141.5 33t75.5 93.5t23 140.5v531h225v-564q0 -135 -52.5 -229.5t-154.5 -144t-249 -49.5h-158zM511 -358v1704h204v-1704h-204z" />
    <glyph glyph-name="uni0472" unicode="&#x472;" 
d="M160 586v203h902v-203h-902zM615 -18q-181 0 -300.5 85t-178 240t-58.5 365t58.5 365.5t178 241t300.5 85.5q179 0 298 -85.5t178.5 -241t59.5 -365.5t-59.5 -365t-178.5 -240t-298 -85zM615 217q95 0 148.5 62t75.5 165.5t22 227.5q0 125 -22 228.5t-75.5 165.5
t-148.5 62q-97 0 -150.5 -61t-74.5 -164.5t-21 -230.5t21 -230.5t74.5 -164t150.5 -60.5z" />
    <glyph glyph-name="uni0473" unicode="&#x473;" 
d="M967 583v-161h-707v161h707zM612 -18q-148 0 -259.5 59t-172.5 171.5t-61 272.5q0 163 61 277t172.5 174t259.5 60q150 0 261.5 -60t174 -174t62.5 -277q0 -160 -62.5 -272.5t-174 -171.5t-261.5 -59zM612 162q92 0 145 44t75.5 117.5t22.5 161.5q0 90 -22.5 165.5
t-75.5 120.5t-145 45q-90 0 -142.5 -45t-75 -120.5t-22.5 -165.5q0 -88 22.5 -161.5t75 -117.5t142.5 -44z" />
    <glyph glyph-name="uni0474" unicode="&#x474;" 
d="M415 0l-417 1346h303l284 -1057l193 759q30 123 80.5 187t127 87.5t183.5 23.5h61v-236h-18q-45 0 -82 -15t-67 -57.5t-55 -126.5l-259 -911h-334z" />
    <glyph glyph-name="uni0475" unicode="&#x475;" 
d="M430 0l-355 976h278l230 -728l154 475q31 100 75.5 155t111.5 76.5t165 21.5h65v-217h-33q-54 0 -90.5 -21t-61.5 -91l-235 -647h-304z" />
    <glyph glyph-name="uni0476" unicode="&#x476;" 
d="M415 0l-417 1346h303l284 -1057l193 759q30 123 80.5 187t127 87.5t183.5 23.5h61v-236h-18q-45 0 -82 -15t-67 -57.5t-55 -126.5l-259 -911h-334zM536 1454h-151l-240 277h204zM857 1454h-148l-242 277h205z" />
    <glyph glyph-name="uni0477" unicode="&#x477;" 
d="M430 0l-355 976h278l230 -728l154 475q31 100 75.5 155t111.5 76.5t165 21.5h65v-217h-33q-54 0 -90.5 -21t-61.5 -91l-235 -647h-304zM562 1106h-151l-240 277h204zM884 1106h-149l-241 277h204z" />
    <glyph glyph-name="uni0478" unicode="&#x478;" 
d="M337 -17q-107 0 -174 70t-97.5 221t-30.5 394q0 249 30.5 402t97.5 223t174 70q105 0 169.5 -70t94.5 -222.5t30 -402.5q0 -243 -30 -394t-94.5 -221t-169.5 -70zM337 152q39 0 60 66.5t29 183t8 266.5q0 153 -8 272t-29 187t-60 68q-43 0 -65.5 -68.5t-31 -187
t-8.5 -271.5q0 -149 8.5 -266t31 -183.5t65.5 -66.5zM675 -358v170h20q30 0 61.5 22t48.5 93l26 110l-206 936h203l126 -884h-71l154 884h185l-249 -1080q-21 -98 -56 -152.5t-87 -76.5t-125 -22h-30z" />
    <glyph glyph-name="uni0479" unicode="&#x479;" 
d="M334 -16q-153 0 -221 134.5t-68 366.5q0 236 68.5 372t220.5 136q151 0 217.5 -136t66.5 -372q0 -232 -66.5 -366.5t-217.5 -134.5zM334 152q39 0 59.5 42.5t28 117.5t7.5 173q0 100 -7.5 176.5t-28 120t-59.5 43.5q-41 0 -62.5 -43.5t-29.5 -120t-8 -176.5q0 -98 8 -173
t29.5 -117.5t62.5 -42.5zM663 -358v170h20q29 0 60.5 22t48.5 93l27 110l-206 936h203l125 -884h-71l154 884h185l-248 -1080q-22 -98 -57.5 -152.5t-87 -76.5t-123.5 -22h-30z" />
    <glyph glyph-name="uni047A" unicode="&#x47a;" 
d="M615 1024q-76 0 -107 58.5t-31 183.5q0 123 31 181t107 58q77 0 108 -58.5t31 -180.5q0 -124 -31 -183t-108 -59zM615 -159q-76 0 -107 58.5t-31 183.5q0 122 31 180t107 58q77 0 108 -58t31 -180q0 -125 -31 -183.5t-108 -58.5zM615 -18q-181 0 -300.5 85t-178 240
t-58.5 365t58.5 365.5t178 241t300.5 85.5q179 0 298 -85.5t178.5 -241t59.5 -365.5t-59.5 -365t-178.5 -240t-298 -85zM615 217q95 0 148.5 62t75.5 165.5t22 227.5q0 125 -22 228.5t-75.5 165.5t-148.5 62q-97 0 -150.5 -61t-74.5 -164.5t-21 -230.5t21 -230.5t74.5 -164
t150.5 -60.5z" />
    </font>
</defs>
</svg>
