<svg xmlns="http://www.w3.org/2000/svg">
<defs>
<font id="Aptos-Narrow-Bold-Italic" horiz-adv-x="0" >
  <font-face 
    font-family="Aptos Narrow"
    font-weight="700"
    font-style="italic"
    font-stretch="semi-condensed"
    units-per-em="2048"
    panose-1="2 11 0 4 2 2 2 9 2 4"
    ascent="1638"
    descent="-410"
    x-height="1014"
    cap-height="1346"
    bbox="-915 -563 2323 2068"
    underline-thickness="50"
    underline-position="-125"
    slope="-12"
    unicode-range="U+000D-FDFC"
  />
<missing-glyph horiz-adv-x="848" 
d="M22 0l35 1354h849l-35 -1354h-849zM442 222q-46 0 -76 29t-30 72q0 48 30.5 76.5t76.5 28.5q47 0 76 -28.5t29 -74.5q0 -43 -29.5 -73t-76.5 -30zM101 81h693l34 1190h-694zM369 530q-4 85 18.5 134t79.5 93q53 42 75 74.5t22 84.5q0 39 -21.5 65.5t-69.5 26.5
q-49 0 -78 -34.5t-33 -97.5h-169q3 127 78.5 196t201.5 69q124 0 197.5 -61.5t73.5 -170.5q0 -85 -38 -136t-101 -100q-42 -34 -59 -64.5t-24 -78.5h-153z" />
    <glyph glyph-name="fi" unicode="fi" horiz-adv-x="1094" 
d="M46 0l178 837h-140l41 189h139l5 25q17 82 42.5 138.5t68 91t109 50t167.5 15.5h105l-39 -180h-77q-59 0 -88.5 -29.5t-43.5 -87.5l-4 -23h185l-42 -189h-178l-178 -837h-250zM621 0l217 1026h247l-216 -1026h-248zM997 1124q-67 0 -103 35t-36 83t36.5 83t104.5 35
t103 -34.5t35 -81.5q0 -50 -35.5 -85t-104.5 -35z" />
    <glyph glyph-name="fl" unicode="fl" horiz-adv-x="1141" 
d="M46 0l178 837h-140l41 189h139l5 25q17 82 42.5 138.5t68 91t109 50t167.5 15.5h105l-39 -180h-77q-59 0 -88.5 -29.5t-43.5 -87.5l-4 -23h185l-42 -189h-178l-178 -837h-250zM953 0q-131 0 -198.5 37.5t-82 117t12.5 204.5l209 987h250l-213 -996q-18 -82 -2.5 -120
t72.5 -38h54l-41 -192h-61z" />
    <glyph glyph-name="f_f" unicode="ff" horiz-adv-x="1195" 
d="M46 0l178 837h-140l41 189h139l5 25q17 82 42.5 138.5t68 91t109 50t167.5 15.5h105l-39 -180h-77q-59 0 -88.5 -29.5t-43.5 -87.5l-4 -23h185l-42 -189h-178l-178 -837h-250zM643 0l178 837h-140l41 189h139l5 25q17 82 42.5 138.5t68 91t109 50t167.5 15.5h105
l-39 -180h-77q-59 0 -88.5 -29.5t-43.5 -87.5l-4 -23h185l-42 -189h-178l-178 -837h-250z" />
    <glyph glyph-name="rial" unicode="&#xfdfc;" horiz-adv-x="1830" arabic-form="isolated" 
d="M361 86q-149 0 -219 78.5t-70 223.5q0 46 7.5 92.5t20.5 91.5l181 -2q-8 -38 -14 -85t-6 -88q0 -69 27 -100t84 -31q98 0 144.5 57.5t46.5 197.5v635h204v-645q0 -219 -103 -322t-303 -103zM831 -24q-37 0 -60.5 25.5t-23.5 63.5q0 36 23.5 62.5t60.5 26.5q34 0 59 -26
t25 -63q0 -38 -25 -63.5t-59 -25.5zM1065 -24q-35 0 -59.5 25.5t-24.5 63.5q0 36 24.5 62.5t59.5 26.5t59.5 -26t24.5 -63q0 -38 -24.5 -63.5t-59.5 -25.5zM1292 -7v177h16q99 0 151.5 43t52.5 135q0 54 -10 113t-31 139h184q23 -79 32.5 -139.5t9.5 -124.5q0 -165 -92 -254
t-295 -89h-18zM1130 221q-137 0 -206.5 74t-69.5 225v636h202v-636q0 -61 19 -90.5t59 -29.5q41 0 64.5 21.5t23.5 70.5q0 36 -4.5 80.5t-16.5 101.5h180q14 -55 21.5 -101t7.5 -96q0 -118 -68 -187t-212 -69z" />
    <glyph glyph-name=".notdef" horiz-adv-x="848" 
d="M22 0l35 1354h849l-35 -1354h-849zM442 222q-46 0 -76 29t-30 72q0 48 30.5 76.5t76.5 28.5q47 0 76 -28.5t29 -74.5q0 -43 -29.5 -73t-76.5 -30zM101 81h693l34 1190h-694zM369 530q-4 85 18.5 134t79.5 93q53 42 75 74.5t22 84.5q0 39 -21.5 65.5t-69.5 26.5
q-49 0 -78 -34.5t-33 -97.5h-169q3 127 78.5 196t201.5 69q124 0 197.5 -61.5t73.5 -170.5q0 -85 -38 -136t-101 -100q-42 -34 -59 -64.5t-24 -78.5h-153z" />
    <glyph glyph-name=".null" 
 />
    <glyph glyph-name="nonmarkingreturn" horiz-adv-x="682" 
 />
    <glyph glyph-name="CR" unicode="&#xd;" 
 />
    <glyph glyph-name="space" unicode=" " horiz-adv-x="370" 
 />
    <glyph glyph-name="exclam" unicode="!" horiz-adv-x="667" 
d="M249 449q4 123 16 267t43 294l73 336h257l-73 -336q-23 -106 -54.5 -208.5t-65 -192.5t-61.5 -160h-135zM253 -14q-71 0 -114 45.5t-43 109.5q0 71 43.5 113.5t115.5 42.5q69 0 112 -42.5t43 -112.5q0 -64 -43.5 -110t-113.5 -46z" />
    <glyph glyph-name="quotedbl" unicode="&#x22;" horiz-adv-x="744" 
d="M547 839q5 93 14.5 181.5t31.5 196.5l27 129h218l-28 -129q-22 -108 -50 -193.5t-64 -184.5h-149zM197 839q5 92 15 181t33 197l27 129h215l-28 -129q-23 -106 -50 -193t-62 -185h-150z" />
    <glyph glyph-name="numbersign" unicode="#" horiz-adv-x="1020" 
d="M60 0l129 379h-187l35 159h210l78 237h-186l34 160h210l127 375h176l-129 -375h169l128 375h176l-129 -375h181l-33 -160h-204l-79 -237h181l-35 -159h-204l-128 -379h-176l128 379h-168l-128 -379h-176zM421 538h170l78 237h-168z" />
    <glyph glyph-name="dollar" unicode="$" horiz-adv-x="1038" 
d="M478 -18q-140 0 -250.5 44t-169 136t-45.5 238h248q-9 -125 56.5 -175t186.5 -50q57 0 102.5 15t75.5 48.5t40 89.5q16 91 -32 149.5t-189 104.5q-194 65 -276.5 179.5t-47.5 275.5q31 144 152.5 217.5t309.5 73.5q124 0 222.5 -42.5t151 -126t36.5 -206.5h-249
q11 92 -40.5 139.5t-146.5 47.5q-91 0 -139 -33.5t-60 -92.5q-13 -70 34 -120.5t191 -100.5q192 -66 274.5 -184t45.5 -303q-33 -172 -157 -248t-324 -76zM301 -217l373 1754h121l-374 -1754h-120z" />
    <glyph glyph-name="percent" unicode="%" horiz-adv-x="1621" 
d="M395 511q-101 0 -158.5 55.5t-71 153.5t12.5 228q25 116 71.5 200t113.5 129.5t153 45.5q98 0 155.5 -56t73 -157t-14.5 -235q-23 -107 -69 -189.5t-113 -128.5t-153 -46zM408 660q42 0 71.5 34.5t50.5 92t36 125.5q18 78 18 137.5t-19.5 92.5t-59.5 33q-43 0 -74 -36
t-52.5 -93.5t-35.5 -126.5q-15 -76 -14.5 -135t20 -91.5t59.5 -32.5zM1164 -14q-102 0 -159 55t-71 154t13 227q24 114 70 198t113.5 130t154.5 46q99 0 156.5 -56t73 -157t-14.5 -234q-23 -108 -70 -190t-113.5 -127.5t-152.5 -45.5zM1178 133q42 0 71.5 35t50.5 92.5
t36 125.5q17 78 16.5 137t-19 92t-59.5 33q-44 0 -75 -35.5t-52 -94t-35 -126.5q-15 -76 -14.5 -134t20 -91.5t60.5 -33.5zM259 0l980 1310h182l-979 -1310h-183z" />
    <glyph glyph-name="ampersand" unicode="&#x26;" horiz-adv-x="1262" 
d="M448 -17q-131 0 -225.5 58t-135.5 159.5t-14 229.5q23 107 90.5 178t163.5 123.5t202 100.5l21 -1q95 43 163 95.5t83 124.5q12 60 -12 93.5t-70 33.5q-45 0 -76 -27.5t-41 -72.5q-14 -59 3 -127.5t59 -143.5l467 -807h-279l-378 666q-43 74 -73.5 149t-41.5 149t4 146
q10 52 36.5 97.5t71.5 81t109.5 55.5t152.5 20q111 0 181.5 -45.5t97.5 -122.5t6 -171q-19 -88 -72 -146.5t-122.5 -99.5t-140.5 -77l-20 -3q-90 -43 -159 -82t-111.5 -85.5t-57.5 -115.5q-21 -92 22 -158.5t143 -66.5q78 0 138 34t120 103l23 -2q62 60 110 146t75 202h253
q-38 -172 -123.5 -300.5t-198.5 -213.5l-11 2q-65 -55 -127.5 -95t-136 -62t-169.5 -22z" />
    <glyph glyph-name="quotesingle" unicode="'" horiz-adv-x="393" 
d="M197 839q3 50 8 108.5t14.5 126.5t25.5 143l27 129h215l-28 -129q-15 -72 -31.5 -131.5t-35.5 -117.5t-45 -129h-150z" />
    <glyph glyph-name="parenleft" unicode="(" horiz-adv-x="628" 
d="M187 -351q-49 145 -75.5 284.5t-26 286t32.5 310.5q45 227 133 430t226 394h211q-125 -199 -211 -419t-129 -448q-27 -145 -29.5 -290.5t16 -284t55.5 -263.5h-203z" />
    <glyph glyph-name="parenright" unicode=")" horiz-adv-x="628" 
d="M-67 -351q126 200 211.5 420.5t127.5 441.5q28 149 31 295.5t-16 285t-56 262.5h205q47 -137 73 -275t26.5 -286.5t-32.5 -317.5q-43 -224 -130.5 -428.5t-227.5 -397.5h-212z" />
    <glyph glyph-name="asterisk" unicode="*" horiz-adv-x="1020" 
d="M400 675l-104 118l189 184l-213 127l80 135l203 -133l54 255l156 -35l-54 -255l238 30l18 -155l-242 -22l100 -248l-147 -67l-96 257z" />
    <glyph glyph-name="plus" unicode="+" horiz-adv-x="1038" 
d="M87 770h930v-204h-930v204zM449 202v931h205v-931h-205z" />
    <glyph glyph-name="comma" unicode="," horiz-adv-x="546" 
d="M-24 -303l-6 124q71 24 118.5 68t70.5 111l10 -13q-72 2 -104 54.5t-18 124.5q14 59 54 95.5t104 36.5q82 0 124 -64t16 -185q-23 -109 -83.5 -181t-137 -112.5t-148.5 -58.5z" />
    <glyph glyph-name="hyphen" unicode="-" horiz-adv-x="629" 
d="M53 418l44 210h482l-44 -210h-482z" />
    <glyph glyph-name="period" unicode="." horiz-adv-x="546" 
d="M200 -13q-71 0 -114 45.5t-43 109.5q0 70 43.5 113t114.5 43q70 0 113 -42.5t43 -112.5q0 -65 -43.5 -110.5t-113.5 -45.5z" />
    <glyph glyph-name="slash" unicode="/" horiz-adv-x="702" 
d="M-81 0l726 1346h223l-727 -1346h-222z" />
    <glyph glyph-name="zero" unicode="0" horiz-adv-x="1038" 
d="M461 -17q-105 1 -181.5 46t-121 133t-54 219t19.5 304q34 206 102.5 349t170 217.5t236.5 74.5q107 -1 184 -45.5t122 -133t54.5 -219.5t-20.5 -307q-34 -209 -103 -351t-171.5 -214.5t-237.5 -72.5zM479 199q45 0 80.5 30.5t64.5 87.5t51.5 139.5t40.5 186.5
q21 117 26 204.5t-6 146t-39.5 87.5t-76.5 29q-46 0 -83 -31t-66.5 -89.5t-52 -140t-39.5 -181.5q-18 -100 -24.5 -185t2.5 -149t38 -99.5t84 -35.5z" />
    <glyph glyph-name="one" unicode="1" horiz-adv-x="1038" 
d="M337 0l219 1023q-36 -36 -88.5 -70t-121 -59.5t-152.5 -39.5l48 226q86 18 159.5 53t134.5 81t106 97h228l-279 -1311h-254zM58 0l45 207h775l-45 -207h-775z" />
    <glyph glyph-name="two" unicode="2" horiz-adv-x="1038" 
d="M-34 0l37 179l519 422q80 64 129 115t74 95.5t34 90.5q17 87 -16 143.5t-121 56.5q-93 0 -146 -58t-71 -171h-246q34 225 156.5 339.5t334.5 114.5q138 0 231 -56.5t131 -155.5t12 -227q-19 -93 -71.5 -167.5t-130 -141.5t-170.5 -138l-293 -224h561l-48 -217h-906z" />
    <glyph glyph-name="three" unicode="3" horiz-adv-x="1038" 
d="M456 -17q-212 0 -327 106t-93 319h242q-6 -101 40.5 -158t149.5 -57q90 0 143.5 43t68.5 136q17 106 -37 159t-143 53h-83l31 202h88q95 0 154.5 45t71.5 122q13 77 -27.5 120.5t-117.5 43.5q-90 0 -143 -49.5t-64 -135.5h-242q31 197 150.5 296.5t316.5 99.5
q115 0 207.5 -43.5t140.5 -127t28 -203.5q-17 -106 -96 -174t-203 -91q75 -15 131.5 -62.5t83.5 -122t11 -172.5q-29 -170 -152.5 -259.5t-329.5 -89.5z" />
    <glyph glyph-name="four" unicode="4" horiz-adv-x="1038" 
d="M475 0l51 245h-548l46 212l726 856h248l-184 -863h155l-43 -205h-154l-52 -245h-245zM260 450h314l112 519z" />
    <glyph glyph-name="five" unicode="5" horiz-adv-x="1038" 
d="M457 -18q-135 0 -236 44t-153 133.5t-41 224.5h246q-5 -90 48 -141.5t146 -51.5t152.5 58t78.5 174q20 128 -28.5 185.5t-134.5 57.5q-69 0 -119 -24.5t-78 -56.5h-235l171 725h750l-46 -219h-531l-73 -304q35 31 98.5 56t146.5 25q74 0 143.5 -27t120.5 -84.5t72 -147.5
t0 -217q-35 -210 -162.5 -310t-335.5 -100z" />
    <glyph glyph-name="six" unicode="6" horiz-adv-x="1038" 
d="M509 -17q-144 0 -254 78.5t-158 241t-7 416.5q35 209 116.5 343.5t199 199.5t257.5 65q119 0 203 -45t129.5 -126t49.5 -190h-250q-7 75 -45.5 113t-102.5 38q-112 0 -190.5 -114t-113.5 -334l-8 -59q-23 -146 -1.5 -238.5t72 -135.5t113.5 -43q81 0 128.5 57.5
t59.5 143.5q17 104 -26.5 164.5t-121.5 60.5q-97 0 -181 -53.5t-139 -134.5l-4 181q46 59 104.5 107t132.5 77.5t167 29.5q105 0 187 -54.5t122 -156t18 -244.5q-19 -118 -78 -205t-154.5 -135t-224.5 -48z" />
    <glyph glyph-name="seven" unicode="7" horiz-adv-x="1038" 
d="M94 0l739 1079h-660l48 231h930l-43 -210l-729 -1100h-285z" />
    <glyph glyph-name="eight" unicode="8" horiz-adv-x="1038" 
d="M462 -18q-100 0 -187 27.5t-149 82.5t-87.5 139.5t-3.5 197.5q23 111 105.5 183t194.5 96q-40 19 -78.5 62.5t-58.5 110.5t-3 154q28 153 148 223t292 70q116 0 207.5 -46.5t138 -132.5t27.5 -205q-19 -110 -84 -173t-154 -88q56 -20 101.5 -69.5t67 -123.5t5.5 -170
q-19 -117 -84 -192t-167 -110.5t-231 -35.5zM475 187q88 0 143.5 44t68.5 134q12 72 -10 121.5t-65 75t-95 25.5q-83 0 -143.5 -43t-76.5 -136q-18 -105 36.5 -163t141.5 -58zM585 784q76 0 123 45t57 116q14 90 -32.5 139t-119.5 49t-119.5 -39t-58.5 -115q-9 -58 9.5 -102
t55.5 -68.5t85 -24.5z" />
    <glyph glyph-name="nine" unicode="9" horiz-adv-x="1038" 
d="M451 -17q-127 0 -213.5 44.5t-132 125t-49.5 189.5h249q7 -68 47 -108.5t110 -40.5q64 0 121.5 45t101.5 138.5t65 235.5l18 110q22 140 0 227.5t-71.5 127.5t-109.5 40q-83 0 -133 -57.5t-64 -147.5q-16 -105 28 -164t132 -59q97 0 167 53.5t112 138.5l14 -185
q-39 -57 -93 -105.5t-123 -78t-156 -29.5q-116 0 -201 56.5t-123 158.5t-14 237q33 187 157 289.5t310 102.5q106 0 193.5 -41.5t147 -129t79.5 -225.5t-11 -332q-33 -212 -114 -348.5t-195 -202t-249 -65.5z" />
    <glyph glyph-name="colon" unicode=":" horiz-adv-x="546" 
d="M352 729q-70 0 -113.5 45t-43.5 109q0 71 44.5 113.5t115.5 42.5q70 0 112.5 -42t42.5 -112q0 -64 -44 -110t-114 -46zM198 -13q-69 0 -112 45t-43 109q0 71 44 113.5t114 42.5t113 -42t43 -112q0 -64 -44 -110t-115 -46z" />
    <glyph glyph-name="semicolon" unicode=";" horiz-adv-x="547" 
d="M-24 -303l-6 124q71 24 118.5 68t70.5 111l10 -13q-72 2 -104 54.5t-18 124.5q14 59 54 95.5t104 36.5q82 0 124 -64t16 -185q-23 -109 -83.5 -181t-137 -112.5t-148.5 -58.5zM352 731q-71 0 -114 44.5t-43 108.5q0 72 44.5 114.5t115.5 42.5q69 0 112 -42.5t43 -112.5
q0 -64 -44 -109.5t-114 -45.5z" />
    <glyph glyph-name="less" unicode="&#x3c;" horiz-adv-x="1038" 
d="M121 792l805 376v-198l-805 -358v180zM121 544v182l805 -371v-199z" />
    <glyph glyph-name="equal" unicode="=" horiz-adv-x="1038" 
d="M150 376v199h804v-199h-804zM150 763v198h804v-198h-804z" />
    <glyph glyph-name="greater" unicode="&#x3e;" horiz-adv-x="1038" 
d="M952 792v-180l-809 358v198zM952 544l-809 -388v199l809 371v-182z" />
    <glyph glyph-name="question" unicode="?" horiz-adv-x="945" 
d="M327 450q12 83 36.5 141t66.5 102.5t104 88.5q56 40 93.5 72t60 65t31.5 77q10 44 1 81.5t-38.5 60.5t-81.5 23q-70 0 -121.5 -47t-67.5 -148h-255q32 203 155 298.5t317 95.5q125 0 212.5 -50t126.5 -139t16 -204q-15 -74 -49 -126.5t-85 -95t-117 -87.5
q-52 -36 -85.5 -66t-53.5 -63t-34 -79h-232zM399 -13q-71 0 -114.5 45.5t-43.5 109.5q0 70 43.5 113t115.5 43q70 0 113 -42.5t43 -112.5q0 -65 -44 -110.5t-113 -45.5z" />
    <glyph glyph-name="at" unicode="@" horiz-adv-x="1637" 
d="M694 -215q-165 0 -290.5 59.5t-204 171.5t-100.5 271.5t20 357.5q47 221 165.5 382t294 249t392.5 88q173 0 298.5 -62t201.5 -172t98.5 -255t-12.5 -310q-26 -125 -78.5 -213t-132 -134.5t-186.5 -46.5q-116 0 -177.5 64t-35.5 201h-11l112 523h221l-104 -490
q-16 -72 -1 -97.5t48 -25.5q41 0 72 30t54.5 83.5t37.5 124.5q38 186 2.5 325t-142 215.5t-279.5 76.5q-168 0 -305 -70.5t-230 -201t-130 -308.5q-47 -224 -5.5 -373.5t154 -224.5t280.5 -75q92 0 180 19t156 51l-34 -173q-73 -29 -156.5 -44.5t-172.5 -15.5zM688 171
q-90 0 -152.5 50.5t-85 144t4.5 223.5q25 114 81.5 200.5t135 135t169.5 47.5q97 -1 153 -69.5t32 -190.5l-55 -319q-23 -63 -62.5 -113t-94.5 -79.5t-126 -29.5zM778 347q53 0 89.5 31.5t60.5 83.5t36 111q14 56 12 107t-26 83t-77 32q-77 0 -122 -65.5t-64 -156.5
q-12 -59 -11 -110.5t24.5 -83.5t77.5 -32z" />
    <glyph glyph-name="A" unicode="A" horiz-adv-x="1125" 
d="M-105 0l708 1346h278l138 -1346h-269l-12 311h-416l-147 -311h-280zM435 537h285l-26 551z" />
    <glyph glyph-name="B" unicode="B" horiz-adv-x="1150" 
d="M37 0l286 1346l396 1q142 1 233.5 -49.5t128 -140t10.5 -206.5q-20 -95 -86 -156.5t-152 -83.5q63 -21 111 -71t69 -125t0 -173q-23 -108 -91 -184.5t-178.5 -117t-260.5 -40.5h-466zM350 225h170q99 0 162 39t82 127q21 102 -26 152.5t-135 50.5h-176zM470 795h139
q94 0 150 43.5t72 123.5q17 77 -21 123.5t-114 46.5h-154z" />
    <glyph glyph-name="C" unicode="C" horiz-adv-x="1292" 
d="M615 -18q-178 0 -298.5 88.5t-169 252.5t-12.5 390q33 203 125 349t232 224t315 78q145 0 252.5 -53.5t163.5 -154t49 -240.5h-269q3 73 -23.5 124t-77.5 78.5t-121 27.5q-109 0 -186 -61.5t-125.5 -167t-70.5 -237.5q-23 -137 -7.5 -246t74 -171.5t163.5 -62.5
q113 0 190 62t109 194h272q-55 -245 -206.5 -359.5t-378.5 -114.5z" />
    <glyph glyph-name="D" unicode="D" horiz-adv-x="1286" 
d="M37 0l286 1346h396q146 0 256 -55t177.5 -156t86 -239.5t-17.5 -306.5q-66 -308 -248 -448.5t-473 -140.5h-463zM348 218h161q119 0 206.5 39t146 127t91.5 237q33 152 14 266t-88 177.5t-185 63.5h-152z" />
    <glyph glyph-name="E" unicode="E" horiz-adv-x="1041" 
d="M37 0l286 1346h802l-45 -217h-538l-71 -336h486l-46 -210h-485l-78 -367h538l-46 -216h-803z" />
    <glyph glyph-name="F" unicode="F" horiz-adv-x="1009" 
d="M37 0l286 1346h783l-46 -217h-518l-73 -337h465l-46 -209h-462l-123 -583h-266z" />
    <glyph glyph-name="G" unicode="G" horiz-adv-x="1302" 
d="M617 -19q-180 0 -301 89.5t-169.5 251.5t-13.5 381q32 193 120 342.5t229.5 234.5t332.5 85q91 0 174.5 -27.5t148.5 -82.5t102 -137.5t34 -193.5h-269q0 64 -22.5 114.5t-71 79t-124.5 28.5q-109 0 -188 -62t-128.5 -167.5t-71.5 -236.5q-22 -132 -8 -241t73.5 -174.5
t169.5 -65.5q79 0 141 36t105.5 100.5t65.5 154.5h-251l33 207h530l-33 -167q-25 -124 -73 -225t-122.5 -173.5t-176.5 -111.5t-236 -39z" />
    <glyph glyph-name="H" unicode="H" horiz-adv-x="1327" 
d="M37 0l286 1346h265l-114 -534h516l114 534h265l-286 -1346h-265l123 582h-515l-123 -582h-266z" />
    <glyph glyph-name="I" unicode="I" horiz-adv-x="548" 
d="M37 0l286 1346h265l-285 -1346h-266z" />
    <glyph glyph-name="J" unicode="J" horiz-adv-x="675" 
d="M-76 -16l48 223h82q90 0 145 56.5t82 182.5l191 900h258l-196 -925q-32 -150 -90 -246.5t-153 -143.5t-239 -47h-128z" />
    <glyph glyph-name="K" unicode="K" horiz-adv-x="1122" 
d="M37 0l286 1346h265l-135 -637l540 637h300l-576 -657l317 -689h-282l-303 689l-146 -689h-266z" />
    <glyph glyph-name="L" unicode="L" horiz-adv-x="928" 
d="M37 0l286 1346h265l-237 -1117h489l-47 -229h-756z" />
    <glyph glyph-name="M" unicode="M" horiz-adv-x="1494" 
d="M37 0l286 1346h302l164 -630l427 630h320l-287 -1346h-263l214 996l-385 -573h-163l-149 573l-213 -996h-253z" />
    <glyph glyph-name="N" unicode="N" horiz-adv-x="1312" 
d="M37 0l286 1346h268l316 -956l200 956h247l-287 -1346h-268l-314 956l-203 -956h-245z" />
    <glyph glyph-name="O" unicode="O" horiz-adv-x="1336" 
d="M607 -19q-186 0 -305 94t-163 260t-3 383q37 203 125.5 348t226.5 222.5t323 77.5q183 0 301 -93.5t161.5 -260.5t3.5 -388q-36 -199 -122.5 -343.5t-223.5 -222t-324 -77.5zM625 197q111 0 189 61t127.5 166t73.5 239q22 124 9 235t-69.5 181t-166.5 70
q-107 0 -185 -58.5t-128 -163t-76 -243.5q-22 -125 -10 -236t69 -181t167 -70z" />
    <glyph glyph-name="P" unicode="P" horiz-adv-x="1131" 
d="M37 0l286 1346h399q149 0 251 -58.5t142 -168.5t6 -268q-28 -134 -102.5 -213.5t-179 -114t-223.5 -34.5h-210l-103 -489h-266zM451 700h181q81 0 141 46.5t81 147.5q26 120 -17 180.5t-128 60.5h-166z" />
    <glyph glyph-name="Q" unicode="Q" horiz-adv-x="1336" 
d="M1051 -324q-115 0 -197.5 25t-140.5 69t-98 102.5t-71 124.5l156 96q41 -68 95 -110.5t129 -62t178 -19.5h44l-56 -225h-39zM607 -19q-186 0 -305 94t-163 260t-3 383q37 203 125.5 348t226.5 222.5t323 77.5q183 0 301 -93.5t161.5 -260.5t3.5 -388
q-36 -199 -122.5 -343.5t-223.5 -222t-324 -77.5zM625 197q111 0 189 61t127.5 166t73.5 239q22 124 9 235t-69.5 181t-166.5 70q-107 0 -185 -58.5t-128 -163t-76 -243.5q-22 -125 -10 -236t69 -181t167 -70z" />
    <glyph glyph-name="R" unicode="R" horiz-adv-x="1155" 
d="M37 0l286 1346h433q137 0 230 -52.5t131.5 -148t10.5 -227.5q-25 -117 -104.5 -190t-210.5 -98q57 -15 93 -51t56 -99.5t29 -165.5l28 -314h-271l-17 283q-6 95 -20 147.5t-43.5 74t-81.5 21.5h-172l-111 -526h-266zM460 741h185q87 0 143.5 48.5t73.5 132.5
q22 106 -17 159.5t-124 53.5h-179z" />
    <glyph glyph-name="S" unicode="S" horiz-adv-x="1091" 
d="M496 -17q-140 0 -241 46t-154 141t-49 241h272q-3 -112 43.5 -165t149.5 -53q82 0 135 36.5t65 112.5q10 53 -6.5 97.5t-67 85.5t-145.5 83q-105 48 -178 112t-104.5 148t-12.5 191q18 100 80 168.5t160 103.5t223 34q123 -1 218 -42.5t149.5 -127.5t52.5 -219h-271
q3 92 -42.5 139t-124.5 47q-74 0 -124.5 -34.5t-59.5 -94.5q-7 -43 8.5 -80.5t65.5 -75.5t147 -81q115 -52 188 -114t102 -147t9 -206q-19 -121 -84.5 -197t-168.5 -112.5t-235 -36.5z" />
    <glyph glyph-name="T" unicode="T" horiz-adv-x="921" 
d="M225 0l240 1128h-311l46 218h889l-47 -218h-312l-240 -1128h-265z" />
    <glyph glyph-name="U" unicode="U" horiz-adv-x="1264" 
d="M571 -18q-171 0 -279.5 69t-147 200.5t1.5 318.5l163 776h272l-165 -790q-25 -118 -13 -197.5t60 -119t130 -39.5q114 0 179.5 73.5t100.5 238.5l174 834h273l-181 -847q-36 -173 -104.5 -288t-181 -172t-282.5 -57z" />
    <glyph glyph-name="V" unicode="V" horiz-adv-x="1117" 
d="M294 0l-113 1346h274l47 -1075l505 1075h293l-692 -1346h-314z" />
    <glyph glyph-name="W" unicode="W" horiz-adv-x="1713" 
d="M254 0l-65 1346h267l-3 -1034l447 1034h262l9 -1034l438 1034h278l-643 -1346h-272l-3 1032l-437 -1032h-278z" />
    <glyph glyph-name="X" unicode="X" horiz-adv-x="1096" 
d="M-101 0l548 702l-228 644h288l120 -453l318 453h297l-504 -650l250 -696h-291l-135 484l-356 -484h-307z" />
    <glyph glyph-name="Y" unicode="Y" horiz-adv-x="1071" 
d="M290 0l110 509l-223 837h281l123 -600l369 600h299l-580 -844l-107 -502h-272z" />
    <glyph glyph-name="Z" unicode="Z" horiz-adv-x="983" 
d="M-68 0l42 206l752 922h-508l46 218h823l-42 -196l-760 -932h602l-45 -218h-910z" />
    <glyph glyph-name="bracketleft" unicode="[" horiz-adv-x="607" 
d="M-65 -360l366 1714h452l-44 -206h-220l-274 -1300h217l-44 -208h-453z" />
    <glyph glyph-name="backslash" unicode="\" horiz-adv-x="713" 
d="M375 0l-153 1346h194l153 -1346h-194z" />
    <glyph glyph-name="bracketright" unicode="]" horiz-adv-x="589" 
d="M-134 -359l44 208h218l272 1297h-218l44 208h453l-361 -1713h-452z" />
    <glyph glyph-name="asciicircum" unicode="^" horiz-adv-x="1038" 
d="M193 780l286 566h194l286 -566h-224l-160 360l-159 -360h-223z" />
    <glyph glyph-name="underscore" unicode="_" horiz-adv-x="829" 
d="M-156 -236l19 95h833l-19 -95h-833z" />
    <glyph glyph-name="grave" unicode="`" horiz-adv-x="994" 
d="M448 1107l-214 275h257l124 -275h-167z" />
    <glyph glyph-name="a" unicode="a" horiz-adv-x="1016" 
d="M286 -18q-86 0 -148.5 36.5t-89.5 109.5t-7 179q24 128 110 192t221.5 86.5t306.5 28.5l17 77q16 73 5 116t-41.5 62t-74.5 19q-57 0 -99.5 -26t-55.5 -90h-240q29 145 135.5 209t272.5 64q111 0 197.5 -39t125.5 -127t7 -236l-137 -643h-229l19 124q-57 -63 -127 -102.5
t-168 -39.5zM380 145q48 0 91 23t79 58t61 67l41 195q-184 -2 -267 -49t-100 -140q-13 -69 13.5 -111.5t81.5 -42.5z" />
    <glyph glyph-name="b" unicode="b" horiz-adv-x="1077" 
d="M560 -18q-89 0 -154.5 42t-104.5 112l-38 -136h-239l286 1346h248l-92 -453q48 63 115.5 105.5t162.5 42.5q100 0 168 -67.5t89.5 -198t-19.5 -318.5q-52 -242 -163.5 -358.5t-258.5 -116.5zM525 171q72 0 124 78t86 237q41 189 13.5 277.5t-100.5 88.5q-48 0 -90 -22.5
t-76 -55.5t-58 -63l-84 -396q25 -54 71 -99t114 -45z" />
    <glyph glyph-name="c" unicode="c" horiz-adv-x="1014" 
d="M457 -18q-123 0 -217 61.5t-137 185.5t-12 312q42 251 171.5 377t322.5 126q118 0 199 -39t122.5 -111t40.5 -168h-243q0 40 -14.5 71t-43.5 48.5t-74 17.5q-100 0 -156 -94t-81 -242q-31 -183 6.5 -274t133.5 -91q69 0 113.5 41t59.5 116h241q-35 -173 -145 -255
t-287 -82z" />
    <glyph glyph-name="d" unicode="d" horiz-adv-x="1085" 
d="M341 -18q-99 0 -168 68.5t-91.5 200.5t15.5 321q49 231 161 351t261 120q90 0 155.5 -43t105.5 -116l100 462h247l-286 -1347l-237 1l15 130q-49 -67 -116 -107.5t-162 -40.5zM439 169q49 0 90.5 23t75 55.5t54.5 59.5l82 411q-14 32 -41 62.5t-63.5 50.5t-79.5 20
q-77 0 -131.5 -82t-89.5 -240q-25 -120 -18.5 -200t38.5 -120t83 -40z" />
    <glyph glyph-name="e" unicode="e" horiz-adv-x="1025" 
d="M463 -17q-139 0 -231.5 71.5t-129.5 199.5t-8 298q26 157 91.5 267t166.5 167.5t232 57.5q138 0 228 -69t121.5 -200.5t-5.5 -320.5h-602q-10 -83 0.5 -150t47.5 -106.5t104 -39.5q57 0 99.5 28t59.5 89h245q-43 -147 -149.5 -219.5t-269.5 -72.5zM360 619h345
q10 79 -3 136t-46.5 87.5t-84.5 30.5q-77 0 -133 -63.5t-78 -190.5z" />
    <glyph glyph-name="f" unicode="f" horiz-adv-x="598" 
d="M46 0l178 837h-140l41 189h139l5 25q17 82 42.5 138.5t68 91t109 50t167.5 15.5h105l-39 -180h-77q-59 0 -88.5 -29.5t-43.5 -87.5l-4 -23h185l-42 -189h-178l-178 -837h-250z" />
    <glyph glyph-name="g" unicode="g" horiz-adv-x="930" 
d="M313 -377q-158 0 -244.5 40.5t-117 103.5t-19.5 129q16 91 102 150.5t247 84.5l63 88h69q234 0 326.5 -83.5t65.5 -230.5q-24 -134 -150.5 -208t-341.5 -74zM330 -220q111 0 165 36t64 92q6 38 -7 66t-51 42.5t-105 14.5h-115q-48 -13 -80 -46t-39 -77q-7 -51 28 -89.5
t140 -38.5zM263 55q-91 12 -143.5 47t-70.5 78.5t-11 79.5q13 56 63.5 101t142.5 75l128 -47q-57 -16 -94.5 -41t-45.5 -58q-5 -21 8 -36.5t55 -24.5t121 -10zM454 363q-131 0 -211 48.5t-108.5 132t-9.5 186.5q16 81 66.5 151t137.5 113.5t209 43.5q188 0 271 -101.5
t52 -265.5q-14 -79 -62 -149.5t-133.5 -114.5t-211.5 -44zM465 513q63 0 108 47.5t59 131.5q20 104 -14 150.5t-97 46.5q-62 0 -106.5 -46.5t-60.5 -136.5q-12 -64 1.5 -107t43.5 -64.5t66 -21.5zM775 894l-52 97q51 101 130.5 139t183.5 38l-32 -182q-73 0 -132 -17
t-98 -75z" />
    <glyph glyph-name="h" unicode="h" horiz-adv-x="1070" 
d="M25 0l285 1346h249l-98 -460q58 61 128.5 108.5t174.5 47.5q90 0 149 -45t79.5 -130t-6.5 -209l-144 -658h-249l144 659q20 89 -3.5 137.5t-89.5 48.5q-39 0 -76 -16.5t-71.5 -42.5t-65.5 -53l-158 -733h-248z" />
    <glyph glyph-name="i" unicode="i" horiz-adv-x="496" 
d="M23 0l217 1026h247l-216 -1026h-248zM399 1124q-67 0 -103 35t-36 83t36.5 83t104.5 35t103 -34.5t35 -81.5q0 -50 -35.5 -85t-104.5 -35z" />
    <glyph glyph-name="j" unicode="j" horiz-adv-x="496" 
d="M-215 -359l40 195h54q55 0 89 32t49 102l225 1056h247l-229 -1070q-30 -144 -114.5 -229.5t-261.5 -85.5h-99zM399 1124q-67 0 -103 35t-36 84q0 48 36.5 82.5t104.5 34.5q69 0 103.5 -34t34.5 -82q0 -50 -36 -85t-104 -35z" />
    <glyph glyph-name="k" unicode="k" horiz-adv-x="978" 
d="M24 0l286 1346h248l-170 -786l424 466h277l-453 -479l253 -547h-260l-242 547l-115 -547h-248z" />
    <glyph glyph-name="l" unicode="l" horiz-adv-x="543" 
d="M355 0q-131 0 -198.5 37.5t-82 117t12.5 204.5l209 987h250l-213 -996q-18 -82 -2.5 -120t72.5 -38h54l-41 -192h-61z" />
    <glyph glyph-name="m" unicode="m" horiz-adv-x="1621" 
d="M25 0l218 1026h238l-24 -142q56 62 125 109t172 47q89 0 147.5 -44.5t78.5 -130t-6 -207.5l-140 -658h-249l141 657q19 91 -4.5 138.5t-84.5 47.5q-59 0 -112 -36.5t-98 -82.5l-154 -724h-248zM1146 0l140 657q20 89 -3 137.5t-86 48.5q-39 0 -77.5 -18.5t-75 -48
t-70.5 -63.5l3 144q74 78 153.5 130.5t184.5 52.5q88 0 146.5 -44.5t79.5 -129.5t-6 -208l-140 -658h-249z" />
    <glyph glyph-name="n" unicode="n" horiz-adv-x="1069" 
d="M26 0l217 1026h238l-24 -142q58 61 128.5 108.5t173.5 47.5q89 0 148 -44t80 -129.5t-6 -210.5l-138 -656h-249l139 657q19 89 -3 137.5t-81 48.5q-65 0 -120 -35.5t-100 -78.5l-155 -729h-248z" />
    <glyph glyph-name="o" unicode="o" horiz-adv-x="1047" 
d="M460 -18q-139 0 -234.5 72t-130.5 205t2 314q49 229 181 349.5t323 120.5q136 0 228 -71.5t127 -203t-4 -310.5q-48 -233 -174.5 -354.5t-317.5 -121.5zM478 168q93 0 145.5 88.5t82.5 229.5q22 97 17.5 182t-38.5 137.5t-103 52.5q-66 0 -113 -41t-77.5 -111.5
t-49.5 -159.5q-21 -99 -15.5 -185t42.5 -139.5t109 -53.5z" />
    <glyph glyph-name="p" unicode="p" horiz-adv-x="1079" 
d="M-52 -359l296 1385h238l-18 -133q48 64 115.5 105t162.5 41q102 0 171 -66t90 -198.5t-22 -332.5q-49 -234 -160.5 -347t-260.5 -113q-88 0 -154 41t-104 113l-105 -495h-249zM525 171q75 0 126 75.5t83 226.5q43 198 16 288.5t-104 90.5q-70 0 -128.5 -41t-93.5 -95
l-83 -400q21 -61 68.5 -103t115.5 -42z" />
    <glyph glyph-name="q" unicode="q" horiz-adv-x="1085" 
d="M516 -359l106 490q-50 -65 -117 -107t-161 -42q-102 0 -171.5 69t-92 198.5t14.5 312.5q32 156 95.5 262.5t149 160.5t184.5 54q90 0 155.5 -41t105.5 -114l38 142h237l-296 -1385h-248zM441 169q73 0 129 49.5t94 112.5l78 357q-20 71 -67.5 114.5t-112.5 43.5
q-76 0 -131.5 -78.5t-88.5 -233.5q-26 -121 -21 -202.5t36 -122t84 -40.5z" />
    <glyph glyph-name="r" unicode="r" horiz-adv-x="677" 
d="M26 0l217 1026h232l-25 -168q50 83 119.5 132.5t165.5 49.5h33l-45 -210h-21q-46 0 -95 -11.5t-96.5 -39.5t-87.5 -77l-149 -702h-248z" />
    <glyph glyph-name="s" unicode="s" horiz-adv-x="938" 
d="M409 -18q-113 0 -199 33t-132 100.5t-41 172.5h231q-3 -78 37 -109.5t112 -31.5q55 0 90.5 25.5t45.5 75.5q8 38 -3 70.5t-48.5 63t-111.5 61.5q-141 58 -201 147.5t-35 213.5q24 113 124 174t258 61q111 0 190.5 -35.5t120.5 -102t38 -159.5h-230q1 63 -30.5 97.5
t-98.5 34.5q-48 0 -80.5 -19.5t-41.5 -62.5q-13 -56 26 -99.5t157 -92.5q142 -60 190 -150t26 -211q-21 -122 -116.5 -189.5t-277.5 -67.5z" />
    <glyph glyph-name="t" unicode="t" horiz-adv-x="633" 
d="M419 0q-139 0 -208.5 41.5t-84.5 121t9 192.5l102 482h-142l42 189h142l48 229h248l-49 -229h185l-40 -189h-186l-103 -492q-16 -74 -1 -113.5t77 -39.5h73l-39 -192h-73z" />
    <glyph glyph-name="u" unicode="u" horiz-adv-x="1069" 
d="M309 -13q-89 0 -148 44.5t-79.5 130t5.5 209.5l140 655h249l-140 -657q-19 -89 4.5 -137t85.5 -48q41 0 78.5 17t71 43t63.5 53l156 729h249l-218 -1026h-241l27 145q-38 -41 -82 -77.5t-97.5 -58.5t-123.5 -22z" />
    <glyph glyph-name="v" unicode="v" horiz-adv-x="904" 
d="M207 0l-93 1026h255l24 -795l368 795h257l-527 -1026h-284z" />
    <glyph glyph-name="w" unicode="w" horiz-adv-x="1386" 
d="M168 0l-58 1014h239l6 -746l312 746h261l6 -746l311 746h244l-479 -1014h-253l-12 758l-322 -758h-255z" />
    <glyph glyph-name="x" unicode="x" horiz-adv-x="911" 
d="M-101 0l469 589l93 59l276 378h260l-443 -545l-86 -58l-307 -423h-262zM563 0l-150 421l-43 63l-225 542h243l120 -377l49 -67l250 -582h-244z" />
    <glyph glyph-name="y" unicode="y" horiz-adv-x="904" 
d="M-78 -363l42 200h79q60 0 95.5 23.5t63.5 77.5l32 62l-116 1028h254l39 -787l353 787h257l-568 -1108q-40 -80 -77.5 -134.5t-80 -87.5t-101 -47t-140.5 -14h-132z" />
    <glyph glyph-name="z" unicode="z" horiz-adv-x="848" 
d="M-39 0l38 179l534 658h-358l41 189h652l-36 -172l-536 -663h424l-39 -191h-720z" />
    <glyph glyph-name="braceleft" unicode="{" horiz-adv-x="631" 
d="M285 -361q-68 0 -121 31.5t-75.5 101t1.5 180.5l50 236q18 84 8 130t-42.5 64.5t-86.5 18.5l43 190q50 0 91.5 19.5t71.5 64t45 119.5l58 281q21 101 63.5 162t100.5 89t126 28h157l-38 -178h-61q-46 0 -77 -36t-45 -100l-57 -272q-18 -85 -46 -138t-68 -82t-96 -43
q50 -17 76 -53t31 -91.5t-12 -134.5l-56 -265q-15 -71 0.5 -107t60.5 -36h62l-38 -179h-126z" />
    <glyph glyph-name="bar" unicode="|" horiz-adv-x="955" 
d="M374 -358v1704h197v-1704h-197z" />
    <glyph glyph-name="braceright" unicode="}" horiz-adv-x="631" 
d="M-141 -361l38 179h64q48 0 77 37t42 99l57 272q19 85 47 137.5t68 81.5t94 43q-48 18 -74.5 53t-30.5 91t12 134l56 268q13 64 0.5 103t-63.5 39h-61l40 178h125q69 0 121.5 -31.5t74 -100t-1.5 -179.5l-48 -237q-17 -83 -8 -129.5t42 -64.5t84 -18l-41 -191
q-50 0 -91.5 -19t-71 -63.5t-45.5 -120.5l-58 -281q-20 -99 -61.5 -161t-99.5 -90.5t-130 -28.5h-157z" />
    <glyph glyph-name="asciitilde" unicode="~" horiz-adv-x="1038" 
d="M731 494q-68 0 -119.5 29.5t-102.5 73.5q-36 31 -60 48t-50 17q-28 0 -46 -35t-21 -125h-188q5 163 68.5 261.5t179.5 98.5q62 0 112.5 -26.5t104.5 -73.5q40 -37 64 -52.5t48 -15.5q30 0 47.5 36.5t20.5 125.5h189q-6 -165 -68 -263.5t-179 -98.5z" />
    <glyph glyph-name="nbspace" unicode="&#xa0;" horiz-adv-x="370" 
 />
    <glyph glyph-name="exclamdown" unicode="&#xa1;" horiz-adv-x="667" 
d="M19 -343l73 334q24 109 55 209.5t63 190t61 163.5h135q-1 -66 -6 -159t-17 -197.5t-35 -206.5l-72 -334h-257zM410 723q-70 0 -113.5 43t-43.5 113q0 64 44 110t115 46q70 0 113.5 -45.5t43.5 -108.5q0 -72 -44 -115t-115 -43z" />
    <glyph glyph-name="cent" unicode="&#xa2;" horiz-adv-x="1020" 
d="M303 -217l299 1393h115l-297 -1393h-117zM460 -18q-126 0 -221.5 60t-140 178t-16.5 293q41 243 170.5 361t323.5 118q117 0 202 -45t128.5 -128t35.5 -194h-231q3 47 -10.5 89.5t-48 69t-94.5 26.5q-102 0 -161 -84.5t-83 -226.5q-27 -165 17 -250t148 -85
q78 0 129 49.5t68 146.5h230q-36 -194 -149 -286t-297 -92z" />
    <glyph glyph-name="sterling" unicode="&#xa3;" horiz-adv-x="1038" 
d="M-14 0l41 197q132 44 189.5 107t71.5 134q11 53 6 104.5t-29 128.5q-23 76 -36.5 171.5t5.5 188.5q29 133 139 214t304 81q126 0 216.5 -45t133.5 -135t28 -223h-221q7 76 -14.5 120.5t-64 64t-97.5 19.5q-80 0 -126 -38.5t-58 -97.5q-13 -60 -4.5 -127t26.5 -125
q28 -93 36.5 -162t-6.5 -147q-13 -59 -45.5 -110.5t-93 -89.5t-155.5 -54l9 48h666l-49 -224h-872zM67 530l27 132h769l-27 -132h-769z" />
    <glyph glyph-name="currency" unicode="&#xa4;" horiz-adv-x="1020" 
d="M251 190l-126 130l126 133q-23 44 -35.5 96t-12.5 111q0 115 48 206l-126 134l126 127l121 -129q36 24 79 37.5t91 13.5q49 0 91.5 -13.5t78.5 -37.5l122 129l125 -127l-126 -135q22 -44 34.5 -95.5t12.5 -109.5q0 -59 -12.5 -110.5t-34.5 -95.5l126 -134l-125 -130
l-122 131q-37 -24 -79.5 -37.5t-90.5 -13.5t-90 13.5t-79 36.5zM542 451q47 0 84 27t58 74t21 108q0 60 -21 107t-58 73.5t-84 26.5t-84 -26.5t-57.5 -73.5t-20.5 -107q0 -61 20.5 -108t57.5 -74t84 -27z" />
    <glyph glyph-name="yen" unicode="&#xa5;" horiz-adv-x="1038" 
d="M80 467l28 132h866l-28 -132h-866zM27 215l27 133h867l-29 -133h-865zM278 0l106 495l-228 815h279l128 -571l368 571h296l-576 -815l-105 -495h-268z" />
    <glyph glyph-name="brokenbar" unicode="&#xa6;" horiz-adv-x="1020" 
d="M406 686v660h196v-660h-196zM406 -358v659h196v-659h-196z" />
    <glyph glyph-name="section" unicode="&#xa7;" horiz-adv-x="944" 
d="M397 -17q-108 0 -191 35.5t-127 110t-35 190.5h230q-6 -95 35.5 -133t106.5 -38q55 0 89.5 23t43.5 69q7 39 -5 69t-52.5 58.5t-118.5 58.5q-143 57 -201 136.5t-36 189.5q19 93 102 145t207 65l46 -125q-43 -8 -77.5 -26.5t-43.5 -62.5q-7 -35 9.5 -62.5t66 -54.5
t138.5 -62q125 -51 168.5 -131.5t21.5 -199.5q-20 -115 -110 -185t-267 -70zM596 396l-68 126q48 10 80 36t41 75q7 36 -5.5 64t-54.5 54t-123 57q-135 53 -189 137.5t-30 199.5q22 105 115.5 162t237.5 57q105 0 182.5 -38.5t119 -110t34.5 -171.5h-230q4 75 -27.5 115.5
t-96.5 40.5q-43 0 -72.5 -16.5t-39.5 -55.5q-12 -53 32 -90.5t170 -86.5q131 -51 182.5 -127.5t31.5 -188.5q-17 -100 -89.5 -159.5t-200.5 -79.5z" />
    <glyph glyph-name="dieresis" unicode="&#xa8;" horiz-adv-x="994" 
d="M681 1129q-43 0 -74 32t-31 78q0 47 32 79t75 32q45 0 76.5 -31.5t31.5 -77.5t-32 -79t-78 -33zM341 1129q-44 0 -76.5 32t-32.5 78q0 47 32.5 79t77.5 32q42 0 74 -31.5t32 -77.5q0 -47 -32.5 -79.5t-74.5 -32.5z" />
    <glyph glyph-name="copyright" unicode="&#xa9;" horiz-adv-x="1349" 
d="M714 -18q-133 0 -244 50.5t-192 143t-126 219t-45 277.5q0 152 45 279t126 219.5t192 143t244 50.5q134 0 245.5 -50.5t193 -143t126.5 -219.5t45 -279q0 -151 -45 -277.5t-126.5 -219t-193 -143t-245.5 -50.5zM714 146q98 0 179.5 38.5t141 109t92 166.5t32.5 212
t-32.5 212.5t-92 167t-141 109t-179.5 38.5q-96 0 -177.5 -38.5t-140.5 -109t-92 -167t-33 -212.5t33 -212t92 -166.5t140.5 -109t177.5 -38.5zM725 292q-140 0 -223.5 103.5t-83.5 276.5q0 176 83.5 278t223.5 102q128 0 205.5 -79.5t79.5 -207.5h-168q-1 61 -30.5 98.5
t-86.5 37.5q-66 0 -102.5 -59.5t-36.5 -169.5t36.5 -168.5t102.5 -58.5q60 0 88 42t30 109h169q-3 -145 -79.5 -224.5t-207.5 -79.5z" />
    <glyph glyph-name="ordfeminine" unicode="&#xaa;" horiz-adv-x="811" 
d="M324 558q-63 0 -113 30.5t-73 89.5t-6 143q22 104 90 151.5t174 63t243 19.5l8 32q18 75 -8.5 104t-73.5 29q-48 0 -83 -29t-47 -91h-199q26 139 118 201.5t234 62.5q100 0 166 -34t90.5 -104t0.5 -179l-102 -472h-198l15 99q-55 -62 -112 -89t-124 -27zM421 708
q53 0 98.5 35.5t71.5 70.5l28 122q-136 -1 -195 -28.5t-71 -89.5q-11 -51 8.5 -80.5t59.5 -29.5z" />
    <glyph glyph-name="guillemetleft" unicode="&#xab;" horiz-adv-x="757" 
d="M640 144l-251 288l33 160l373 288l-47 -217l-186 -161l118 -159zM287 144l-251 288l33 160l374 288l-48 -217l-188 -161l121 -159z" />
    <glyph glyph-name="logicalnot" unicode="&#xac;" horiz-adv-x="1038" 
d="M140 991h788v-197h-788v197zM733 346v645h195v-645h-195z" />
    <glyph glyph-name="softhyphen" unicode="&#xad;" horiz-adv-x="629" 
d="M53 418l44 210h482l-44 -210h-482z" />
    <glyph glyph-name="registered" unicode="&#xae;" horiz-adv-x="847" 
d="M522 601q-96 0 -170 48t-116 133t-42 194q0 110 42 194.5t116 132.5t170 48t170.5 -48t116.5 -132.5t42 -194.5q0 -109 -42 -194t-116.5 -133t-170.5 -48zM522 690q70 0 123.5 36.5t84 101t30.5 148.5t-30 148.5t-84 101t-124 36.5q-69 0 -123 -36.5t-84.5 -101
t-30.5 -148.5t30.5 -148.5t84.5 -101t123 -36.5zM394 803v357h142q58 0 89 -25.5t31 -74.5q0 -38 -19.5 -62.5t-52.5 -34.5v15q29 -6 45.5 -24.5t25.5 -55.5l25 -95h-90l-17 77q-8 36 -20 45.5t-30 9.5h-42v-132h-87zM481 1008h42q22 0 32 11t10 28q0 36 -36 36h-48v-75z
" />
    <glyph glyph-name="macron" unicode="&#xaf;" horiz-adv-x="994" 
d="M254 1162l28 141h499l-29 -141h-498z" />
    <glyph glyph-name="degree" unicode="&#xb0;" horiz-adv-x="772" 
d="M494 660q-90 0 -165.5 45t-120 119.5t-44.5 164.5q0 91 44.5 166t120 120t165.5 45q91 0 165.5 -45t119 -120t44.5 -166q0 -90 -44.5 -164.5t-119 -119.5t-165.5 -45zM494 839q62 0 106 44t44 106q0 63 -44 107.5t-106 44.5q-61 0 -106 -44.5t-45 -107.5q0 -62 45 -106
t106 -44z" />
    <glyph glyph-name="plusminus" unicode="&#xb1;" horiz-adv-x="1038" 
d="M112 880h830v-185h-830v185zM425 439v699h203v-699h-203zM112 383h830v-184h-830v184z" />
    <glyph glyph-name="twosuperior" unicode="&#xb2;" horiz-adv-x="700" 
d="M163 976l29 136l329 237q62 45 100 83t46 84q9 44 -10.5 74t-73.5 30t-85 -32t-44 -98h-177q22 144 102.5 214.5t217.5 70.5q85 0 148 -34t91.5 -96t12.5 -147q-11 -60 -48 -106t-90.5 -86.5t-119.5 -83.5l-122 -85h309l-35 -161h-580z" />
    <glyph glyph-name="threesuperior" unicode="&#xb3;" horiz-adv-x="700" 
d="M479 965q-142 0 -214.5 64t-60.5 196h179q-2 -59 24.5 -86t84.5 -27q53 0 83.5 23.5t39.5 64.5q13 59 -17.5 90.5t-86.5 31.5h-53l29 130h56q51 0 89 20.5t47 59.5q10 46 -16 71t-73 25q-52 0 -83 -23.5t-40 -71.5h-178q26 133 112.5 187.5t205.5 54.5q80 0 142 -29
t92 -84t14 -132q-13 -57 -57.5 -95t-111.5 -52q62 -20 94 -75t13 -141q-22 -102 -99.5 -152t-214.5 -50z" />
    <glyph glyph-name="acute" unicode="&#xb4;" horiz-adv-x="994" 
d="M357 1107l215 275h281l-311 -275h-185z" />
    <glyph glyph-name="micro" unicode="&#xb5;" horiz-adv-x="1088" 
d="M-51 -359l294 1385h248l-134 -643q-13 -62 -8.5 -105t29 -65.5t68.5 -22.5q64 0 119 35.5t98 90.5l152 710h247l-217 -1026h-235l24 142q-52 -75 -109.5 -114t-131.5 -39q-69 0 -123.5 39t-78.5 112t-4 174h140l-143 -673h-235z" />
    <glyph glyph-name="paragraph" unicode="&#xb6;" horiz-adv-x="1127" 
d="M274 -195l176 824h-67q-142 0 -208 97.5t-31 260.5t142.5 261t250.5 98h633l-328 -1541h-205l282 1340h-154l-283 -1340h-208z" />
    <glyph glyph-name="periodcentered" unicode="&#xb7;" horiz-adv-x="546" 
d="M279 388q-71 0 -114 45.5t-43 109.5q0 70 43.5 113t114.5 43q70 0 113 -42.5t43 -112.5q0 -65 -43.5 -110.5t-113.5 -45.5z" />
    <glyph glyph-name="cedilla" unicode="&#xb8;" horiz-adv-x="994" 
d="M434 -379q-67 0 -108.5 10.5t-74.5 26.5l57 110q28 -13 64.5 -22t73.5 -9t57 13t25 39q7 30 -13.5 50t-91.5 32l-38 6l153 173l82 -50l-61 -73l-45 24q85 -3 127 -54.5t25 -132.5q-12 -55 -47.5 -86t-84 -44t-100.5 -13z" />
    <glyph glyph-name="onesuperior" unicode="&#xb9;" horiz-adv-x="700" 
d="M412 976l120 565q-38 -33 -89.5 -61t-141.5 -40l38 182q63 15 108.5 34.5t81.5 46.5t68 60h184l-166 -787h-203z" />
    <glyph glyph-name="ordmasculine" unicode="&#xba;" horiz-adv-x="841" 
d="M466 558q-115 0 -189 56.5t-99 157.5t2 233q39 178 142.5 268.5t251.5 90.5q114 0 189 -55t102.5 -156t-2.5 -239q-24 -117 -81 -196.5t-137.5 -119.5t-178.5 -40zM480 720q78 0 119 58.5t64 158.5q16 68 14 128.5t-28.5 99t-87.5 38.5q-77 0 -120.5 -63t-64.5 -161
q-13 -68 -9.5 -127t31 -95.5t82.5 -36.5z" />
    <glyph glyph-name="guillemetright" unicode="&#xbb;" horiz-adv-x="758" 
d="M-28 144l48 216l188 159l-120 161l41 200l249 -288l-33 -160zM324 144l46 216l188 159l-119 161l42 200l249 -288l-33 -160z" />
    <glyph glyph-name="onequarter" unicode="&#xbc;" horiz-adv-x="1525" 
d="M245 529l120 565q-38 -33 -89.5 -61t-141.5 -40l38 182q63 15 108.5 34.5t81.5 46.5t68 60h184l-166 -787h-203zM193 0l977 1310h189l-978 -1310h-188zM1116 0l30 138h-356l34 155l459 495h183l-106 -498h101l-33 -152h-101l-29 -138h-182zM998 290h186l58 270z" />
    <glyph glyph-name="onehalf" unicode="&#xbd;" horiz-adv-x="1639" 
d="M245 529l120 565q-38 -33 -89.5 -61t-141.5 -40l38 182q63 15 108.5 34.5t81.5 46.5t68 60h184l-166 -787h-203zM206 0l977 1310h189l-978 -1310h-188zM903 0l29 136l329 237q62 45 100 83t46 84q9 44 -10.5 74t-73.5 30t-85 -32t-44 -98h-177q22 144 102.5 214.5
t217.5 70.5q85 0 148 -34t91.5 -96t12.5 -147q-11 -60 -48 -106t-90.5 -86.5t-119.5 -83.5l-122 -85h309l-35 -161h-580z" />
    <glyph glyph-name="threequarters" unicode="&#xbe;" horiz-adv-x="1699" 
d="M384 518q-142 0 -214.5 64t-60.5 196h179q-2 -59 24.5 -86t84.5 -27q53 0 83.5 23.5t39.5 64.5q13 59 -17.5 90.5t-86.5 31.5h-53l29 130h56q51 0 89 20.5t47 59.5q10 46 -16 71t-73 25q-52 0 -83 -23.5t-40 -71.5h-178q26 133 112.5 187.5t205.5 54.5q80 0 142 -29
t92 -84t14 -132q-13 -57 -57.5 -95t-111.5 -52q62 -20 94 -75t13 -141q-22 -102 -99.5 -152t-214.5 -50zM327 0l977 1310h189l-978 -1310h-188zM1242 0l30 138h-356l34 155l459 495h183l-106 -498h101l-33 -152h-101l-29 -138h-182zM1124 290h186l58 270z" />
    <glyph glyph-name="questiondown" unicode="&#xbf;" horiz-adv-x="945" 
d="M618 580q-12 -83 -36.5 -141t-66 -103t-104.5 -89q-55 -40 -93 -71.5t-60 -64t-32 -77.5q-9 -43 -0.5 -81t38.5 -61.5t81 -23.5q70 0 121.5 47.5t67.5 147.5h255q-32 -202 -154.5 -297.5t-317.5 -95.5q-124 0 -212 50.5t-126.5 139t-16.5 203.5q15 75 49.5 127t86 94.5
t115.5 87.5q54 37 86.5 66.5t52.5 62.5t35 79h231zM546 1043q72 0 115.5 -45t43.5 -110q0 -70 -44 -113t-116 -43q-70 0 -113 42.5t-43 112.5q0 65 44 110.5t113 45.5z" />
    <glyph glyph-name="Agrave" unicode="&#xc0;" horiz-adv-x="1125" 
d="M-105 0l708 1346h278l138 -1346h-269l-12 311h-416l-147 -311h-280zM435 537h285l-26 551zM705 1456l-203 276h262l114 -276h-173z" />
    <glyph glyph-name="Aacute" unicode="&#xc1;" horiz-adv-x="1125" 
d="M-105 0l708 1346h278l138 -1346h-269l-12 311h-416l-147 -311h-280zM435 537h285l-26 551zM638 1456l216 275h273l-305 -275h-184z" />
    <glyph glyph-name="Acircumflex" unicode="&#xc2;" horiz-adv-x="1125" 
d="M-105 0l708 1346h278l138 -1346h-269l-12 311h-416l-147 -311h-280zM435 537h285l-26 551zM457 1455l247 276h226l127 -276h-183l-73 164l-144 -164h-200z" />
    <glyph glyph-name="Atilde" unicode="&#xc3;" horiz-adv-x="1125" 
d="M-105 0l708 1346h278l138 -1346h-269l-12 311h-416l-147 -311h-280zM435 537h285l-26 551zM467 1465q26 126 80 177.5t120 51.5q41 0 71.5 -11.5t66.5 -29.5q35 -17 56.5 -25.5t37.5 -8.5q18 0 31.5 17t23.5 60h129q-26 -122 -72.5 -172t-117.5 -50q-36 0 -64.5 10.5
t-68.5 29.5q-37 18 -58 26.5t-37 8.5q-22 0 -40 -19t-29 -65h-129z" />
    <glyph glyph-name="Adieresis" unicode="&#xc4;" horiz-adv-x="1125" 
d="M-105 0l708 1346h278l138 -1346h-269l-12 311h-416l-147 -311h-280zM435 537h285l-26 551zM939 1479q-42 0 -74 32.5t-32 77.5q0 46 32.5 79.5t75.5 33.5q44 0 76 -32.5t32 -79.5q0 -44 -32.5 -77.5t-77.5 -33.5zM598 1479q-44 0 -76 32.5t-32 77.5q0 46 32 79.5t77 33.5
q43 0 75 -32.5t32 -79.5q0 -44 -32 -77.5t-76 -33.5z" />
    <glyph glyph-name="Aring" unicode="&#xc5;" horiz-adv-x="1125" 
d="M-105 0l708 1346h278l138 -1346h-269l-12 311h-416l-147 -311h-280zM435 537h285l-26 551zM759 1377q-86 0 -147 56t-61 141q0 91 59 150.5t148 59.5q88 0 148 -57.5t60 -146.5q0 -88 -60 -145.5t-147 -57.5zM758 1480q43 0 71.5 29.5t28.5 70.5q0 43 -28.5 71.5
t-70.5 28.5t-71 -28.5t-29 -71.5q0 -42 29 -71t70 -29z" />
    <glyph glyph-name="AE" unicode="&#xc6;" horiz-adv-x="1625" 
d="M-105 0l757 1346h337l-43 -202h-154l-374 -703v-17l-222 -424h-301zM286 311l-4 218h633v-218h-629zM622 0l286 1346h801l-44 -217h-538l-72 -336h486l-45 -210h-485l-78 -367h537l-46 -216h-802z" />
    <glyph glyph-name="Ccedilla" unicode="&#xc7;" horiz-adv-x="1292" 
d="M615 -18q-178 0 -298.5 88.5t-169 252.5t-12.5 390q33 203 125 349t232 224t315 78q145 0 252.5 -53.5t163.5 -154t49 -240.5h-269q3 73 -23.5 124t-77.5 78.5t-121 27.5q-109 0 -186 -61.5t-125.5 -167t-70.5 -237.5q-23 -137 -7.5 -246t74 -171.5t163.5 -62.5
q113 0 190 62t109 194h272q-55 -245 -206.5 -359.5t-378.5 -114.5zM494 -379q-67 0 -108.5 10.5t-74.5 26.5l57 110q28 -13 64.5 -22t73.5 -9t57 13t25 39q7 30 -13.5 50t-91.5 32l-38 6l153 173l82 -50l-61 -73l-45 24q85 -3 127 -54.5t25 -132.5q-12 -55 -47.5 -86
t-84 -44t-100.5 -13z" />
    <glyph glyph-name="Egrave" unicode="&#xc8;" horiz-adv-x="1041" 
d="M37 0l286 1346h802l-45 -217h-538l-71 -336h486l-46 -210h-485l-78 -367h538l-46 -216h-803zM698 1456l-203 276h262l114 -276h-173z" />
    <glyph glyph-name="Eacute" unicode="&#xc9;" horiz-adv-x="1041" 
d="M37 0l286 1346h802l-45 -217h-538l-71 -336h486l-46 -210h-485l-78 -367h538l-46 -216h-803zM631 1456l216 275h273l-305 -275h-184z" />
    <glyph glyph-name="Ecircumflex" unicode="&#xca;" horiz-adv-x="1041" 
d="M37 0l286 1346h802l-45 -217h-538l-71 -336h486l-46 -210h-485l-78 -367h538l-46 -216h-803zM450 1455l247 276h226l127 -276h-183l-73 164l-144 -164h-200z" />
    <glyph glyph-name="Edieresis" unicode="&#xcb;" horiz-adv-x="1041" 
d="M37 0l286 1346h802l-45 -217h-538l-71 -336h486l-46 -210h-485l-78 -367h538l-46 -216h-803zM931 1479q-42 0 -74 32.5t-32 77.5q0 46 32.5 79.5t75.5 33.5q44 0 76 -32.5t32 -79.5q0 -44 -32.5 -77.5t-77.5 -33.5zM590 1479q-44 0 -76 32.5t-32 77.5q0 46 32 79.5
t77 33.5q43 0 75 -32.5t32 -79.5q0 -44 -32 -77.5t-76 -33.5z" />
    <glyph glyph-name="Igrave" unicode="&#xcc;" horiz-adv-x="548" 
d="M37 0l286 1346h265l-285 -1346h-266zM419 1455l-203 276h262l114 -276h-173z" />
    <glyph glyph-name="Iacute" unicode="&#xcd;" horiz-adv-x="548" 
d="M37 0l286 1346h265l-285 -1346h-266zM352 1455l216 275h273l-305 -275h-184z" />
    <glyph glyph-name="Icircumflex" unicode="&#xce;" horiz-adv-x="548" 
d="M37 0l286 1346h265l-285 -1346h-266zM171 1454l247 276h226l127 -276h-183l-73 164l-144 -164h-200z" />
    <glyph glyph-name="Idieresis" unicode="&#xcf;" horiz-adv-x="548" 
d="M37 0l286 1346h265l-285 -1346h-266zM653 1478q-42 0 -74 32.5t-32 77.5q0 46 32.5 79.5t75.5 33.5q44 0 76 -32.5t32 -79.5q0 -44 -32.5 -77.5t-77.5 -33.5zM312 1478q-44 0 -76 32.5t-32 77.5q0 46 32 79.5t77 33.5q43 0 75 -32.5t32 -79.5q0 -44 -32 -77.5t-76 -33.5z
" />
    <glyph glyph-name="Eth" unicode="&#xd0;" horiz-adv-x="1286" 
d="M19 574l42 210h669l-45 -210h-666zM37 0l286 1346h396q146 0 256 -55t177.5 -156t86 -239.5t-17.5 -306.5q-66 -308 -248 -448.5t-473 -140.5h-463zM348 218h161q119 0 206.5 39t146 127t91.5 237q33 152 14 266t-88 177.5t-185 63.5h-152z" />
    <glyph glyph-name="Ntilde" unicode="&#xd1;" horiz-adv-x="1312" 
d="M37 0l286 1346h268l316 -956l200 956h247l-287 -1346h-268l-314 956l-203 -956h-245zM552 1465q26 126 80 177.5t120 51.5q41 0 71.5 -11.5t66.5 -29.5q35 -17 56.5 -25.5t37.5 -8.5q18 0 31.5 17t23.5 60h129q-26 -122 -72.5 -172t-117.5 -50q-36 0 -64.5 10.5
t-68.5 29.5q-37 18 -58 26.5t-37 8.5q-22 0 -40 -19t-29 -65h-129z" />
    <glyph glyph-name="Ograve" unicode="&#xd2;" horiz-adv-x="1336" 
d="M607 -19q-186 0 -305 94t-163 260t-3 383q37 203 125.5 348t226.5 222.5t323 77.5q183 0 301 -93.5t161.5 -260.5t3.5 -388q-36 -199 -122.5 -343.5t-223.5 -222t-324 -77.5zM625 197q111 0 189 61t127.5 166t73.5 239q22 124 9 235t-69.5 181t-166.5 70
q-107 0 -185 -58.5t-128 -163t-76 -243.5q-22 -125 -10 -236t69 -181t167 -70zM790 1456l-203 276h262l114 -276h-173z" />
    <glyph glyph-name="Oacute" unicode="&#xd3;" horiz-adv-x="1336" 
d="M607 -19q-186 0 -305 94t-163 260t-3 383q37 203 125.5 348t226.5 222.5t323 77.5q183 0 301 -93.5t161.5 -260.5t3.5 -388q-36 -199 -122.5 -343.5t-223.5 -222t-324 -77.5zM625 197q111 0 189 61t127.5 166t73.5 239q22 124 9 235t-69.5 181t-166.5 70
q-107 0 -185 -58.5t-128 -163t-76 -243.5q-22 -125 -10 -236t69 -181t167 -70zM723 1456l216 275h273l-305 -275h-184z" />
    <glyph glyph-name="Ocircumflex" unicode="&#xd4;" horiz-adv-x="1336" 
d="M607 -19q-186 0 -305 94t-163 260t-3 383q37 203 125.5 348t226.5 222.5t323 77.5q183 0 301 -93.5t161.5 -260.5t3.5 -388q-36 -199 -122.5 -343.5t-223.5 -222t-324 -77.5zM625 197q111 0 189 61t127.5 166t73.5 239q22 124 9 235t-69.5 181t-166.5 70
q-107 0 -185 -58.5t-128 -163t-76 -243.5q-22 -125 -10 -236t69 -181t167 -70zM542 1455l247 276h226l127 -276h-183l-73 164l-144 -164h-200z" />
    <glyph glyph-name="Otilde" unicode="&#xd5;" horiz-adv-x="1336" 
d="M607 -19q-186 0 -305 94t-163 260t-3 383q37 203 125.5 348t226.5 222.5t323 77.5q183 0 301 -93.5t161.5 -260.5t3.5 -388q-36 -199 -122.5 -343.5t-223.5 -222t-324 -77.5zM625 197q111 0 189 61t127.5 166t73.5 239q22 124 9 235t-69.5 181t-166.5 70
q-107 0 -185 -58.5t-128 -163t-76 -243.5q-22 -125 -10 -236t69 -181t167 -70zM551 1465q26 126 80 177.5t120 51.5q41 0 71.5 -11.5t66.5 -29.5q35 -17 56.5 -25.5t37.5 -8.5q18 0 31.5 17t23.5 60h129q-26 -122 -72.5 -172t-117.5 -50q-36 0 -64.5 10.5t-68.5 29.5
q-37 18 -58 26.5t-37 8.5q-22 0 -40 -19t-29 -65h-129z" />
    <glyph glyph-name="Odieresis" unicode="&#xd6;" horiz-adv-x="1336" 
d="M607 -19q-186 0 -305 94t-163 260t-3 383q37 203 125.5 348t226.5 222.5t323 77.5q183 0 301 -93.5t161.5 -260.5t3.5 -388q-36 -199 -122.5 -343.5t-223.5 -222t-324 -77.5zM625 197q111 0 189 61t127.5 166t73.5 239q22 124 9 235t-69.5 181t-166.5 70
q-107 0 -185 -58.5t-128 -163t-76 -243.5q-22 -125 -10 -236t69 -181t167 -70zM1023 1479q-42 0 -74 32.5t-32 77.5q0 46 32.5 79.5t75.5 33.5q44 0 76 -32.5t32 -79.5q0 -44 -32.5 -77.5t-77.5 -33.5zM682 1479q-44 0 -76 32.5t-32 77.5q0 46 32 79.5t77 33.5
q43 0 75 -32.5t32 -79.5q0 -44 -32 -77.5t-76 -33.5z" />
    <glyph glyph-name="multiply" unicode="&#xd7;" horiz-adv-x="1038" 
d="M151 412l658 657l145 -142l-657 -660zM296 1070l659 -657l-145 -146l-657 658z" />
    <glyph glyph-name="Oslash" unicode="&#xd8;" horiz-adv-x="1336" 
d="M98 -73l-102 103l268 274l16 11l762 817l17 13l267 275l99 -104l-268 -277l-17 -14l-763 -816l-14 -11zM607 -18q-184 0 -303 93.5t-163.5 259.5t-4.5 383q36 201 124 346t226.5 223t324.5 78q184 0 301.5 -94.5t160.5 -262t4 -382.5q-36 -202 -123 -346t-224 -221
t-323 -77zM625 198q108 0 186 58.5t128.5 163t75.5 244.5q23 131 9 241t-71 176t-165 66q-109 0 -187 -60t-127 -164t-74 -237q-23 -127 -10.5 -238.5t69.5 -180.5t166 -69z" />
    <glyph glyph-name="Ugrave" unicode="&#xd9;" horiz-adv-x="1264" 
d="M571 -18q-171 0 -279.5 69t-147 200.5t1.5 318.5l163 776h272l-165 -790q-25 -118 -13 -197.5t60 -119t130 -39.5q114 0 179.5 73.5t100.5 238.5l174 834h273l-181 -847q-36 -173 -104.5 -288t-181 -172t-282.5 -57zM774 1456l-203 276h262l114 -276h-173z" />
    <glyph glyph-name="Uacute" unicode="&#xda;" horiz-adv-x="1264" 
d="M571 -18q-171 0 -279.5 69t-147 200.5t1.5 318.5l163 776h272l-165 -790q-25 -118 -13 -197.5t60 -119t130 -39.5q114 0 179.5 73.5t100.5 238.5l174 834h273l-181 -847q-36 -173 -104.5 -288t-181 -172t-282.5 -57zM707 1456l216 275h273l-305 -275h-184z" />
    <glyph glyph-name="Ucircumflex" unicode="&#xdb;" horiz-adv-x="1264" 
d="M571 -18q-171 0 -279.5 69t-147 200.5t1.5 318.5l163 776h272l-165 -790q-25 -118 -13 -197.5t60 -119t130 -39.5q114 0 179.5 73.5t100.5 238.5l174 834h273l-181 -847q-36 -173 -104.5 -288t-181 -172t-282.5 -57zM526 1455l247 276h226l127 -276h-183l-73 164
l-144 -164h-200z" />
    <glyph glyph-name="Udieresis" unicode="&#xdc;" horiz-adv-x="1264" 
d="M571 -18q-171 0 -279.5 69t-147 200.5t1.5 318.5l163 776h272l-165 -790q-25 -118 -13 -197.5t60 -119t130 -39.5q114 0 179.5 73.5t100.5 238.5l174 834h273l-181 -847q-36 -173 -104.5 -288t-181 -172t-282.5 -57zM1007 1479q-42 0 -74 32.5t-32 77.5q0 46 32.5 79.5
t75.5 33.5q44 0 76 -32.5t32 -79.5q0 -44 -32.5 -77.5t-77.5 -33.5zM666 1479q-44 0 -76 32.5t-32 77.5q0 46 32 79.5t77 33.5q43 0 75 -32.5t32 -79.5q0 -44 -32 -77.5t-76 -33.5z" />
    <glyph glyph-name="Yacute" unicode="&#xdd;" horiz-adv-x="1071" 
d="M290 0l110 509l-223 837h281l123 -600l369 600h299l-580 -844l-107 -502h-272zM599 1456l216 275h273l-305 -275h-184z" />
    <glyph glyph-name="Thorn" unicode="&#xde;" horiz-adv-x="1129" 
d="M107 244l46 212h428q83 0 147 49t84 152q24 113 -20.5 173t-135.5 60h-412l46 209h400q135 0 231.5 -58t138 -165.5t10.5 -256.5q-40 -194 -173 -284.5t-336 -90.5h-454zM37 0l286 1346h265l-285 -1346h-266z" />
    <glyph glyph-name="germandbls" unicode="&#xdf;" horiz-adv-x="1055" 
d="M474 -12q-37 0 -67.5 3t-56.5 9l43 193q16 -5 35.5 -8.5t49.5 -3.5q80 0 132.5 43.5t73.5 143.5q26 115 -20 178.5t-144 63.5h-39l35 177h44q72 0 128.5 37.5t77.5 145.5q17 86 -16.5 134.5t-98.5 48.5q-67 0 -116 -49.5t-73 -163.5l-199 -940h-250l203 954
q45 203 155.5 306.5t292.5 103.5q128 0 212 -53.5t117.5 -144t8.5 -203.5q-18 -86 -66.5 -147t-135 -96.5t-219.5 -47.5l-25 97q116 0 197 -33.5t127.5 -93.5t60 -139t-7.5 -171q-27 -127 -90.5 -202.5t-157 -108.5t-211.5 -33z" />
    <glyph glyph-name="agrave" unicode="&#xe0;" horiz-adv-x="1016" 
d="M286 -18q-86 0 -148.5 36.5t-89.5 109.5t-7 179q24 128 110 192t221.5 86.5t306.5 28.5l17 77q16 73 5 116t-41.5 62t-74.5 19q-57 0 -99.5 -26t-55.5 -90h-240q29 145 135.5 209t272.5 64q111 0 197.5 -39t125.5 -127t7 -236l-137 -643h-229l19 124q-57 -63 -127 -102.5
t-168 -39.5zM380 145q48 0 91 23t79 58t61 67l41 195q-184 -2 -267 -49t-100 -140q-13 -69 13.5 -111.5t81.5 -42.5zM592 1158l-214 275h257l124 -275h-167z" />
    <glyph glyph-name="aacute" unicode="&#xe1;" horiz-adv-x="1016" 
d="M286 -18q-86 0 -148.5 36.5t-89.5 109.5t-7 179q24 128 110 192t221.5 86.5t306.5 28.5l17 77q16 73 5 116t-41.5 62t-74.5 19q-57 0 -99.5 -26t-55.5 -90h-240q29 145 135.5 209t272.5 64q111 0 197.5 -39t125.5 -127t7 -236l-137 -643h-229l19 124q-57 -63 -127 -102.5
t-168 -39.5zM380 145q48 0 91 23t79 58t61 67l41 195q-184 -2 -267 -49t-100 -140q-13 -69 13.5 -111.5t81.5 -42.5zM502 1158l215 275h281l-311 -275h-185z" />
    <glyph glyph-name="acircumflex" unicode="&#xe2;" horiz-adv-x="1016" 
d="M286 -18q-86 0 -148.5 36.5t-89.5 109.5t-7 179q24 128 110 192t221.5 86.5t306.5 28.5l17 77q16 73 5 116t-41.5 62t-74.5 19q-57 0 -99.5 -26t-55.5 -90h-240q29 145 135.5 209t272.5 64q111 0 197.5 -39t125.5 -127t7 -236l-137 -643h-229l19 124q-57 -63 -127 -102.5
t-168 -39.5zM380 145q48 0 91 23t79 58t61 67l41 195q-184 -2 -267 -49t-100 -140q-13 -69 13.5 -111.5t81.5 -42.5zM330 1158l246 275h227l126 -275h-175l-82 152l-155 -152h-187z" />
    <glyph glyph-name="atilde" unicode="&#xe3;" horiz-adv-x="1016" 
d="M286 -18q-86 0 -148.5 36.5t-89.5 109.5t-7 179q24 128 110 192t221.5 86.5t306.5 28.5l17 77q16 73 5 116t-41.5 62t-74.5 19q-57 0 -99.5 -26t-55.5 -90h-240q29 145 135.5 209t272.5 64q111 0 197.5 -39t125.5 -127t7 -236l-137 -643h-229l19 124q-57 -63 -127 -102.5
t-168 -39.5zM380 145q48 0 91 23t79 58t61 67l41 195q-184 -2 -267 -49t-100 -140q-13 -69 13.5 -111.5t81.5 -42.5zM359 1168q26 126 80 177.5t120 51.5q42 0 72 -11.5t67 -30.5q34 -17 56 -25.5t37 -8.5q18 0 31.5 17t23.5 61h129q-26 -122 -72.5 -172.5t-117.5 -50.5
q-36 0 -64 10.5t-69 30.5q-36 18 -57.5 26t-37.5 8q-22 0 -39.5 -18.5t-29.5 -64.5h-129z" />
    <glyph glyph-name="adieresis" unicode="&#xe4;" horiz-adv-x="1016" 
d="M286 -18q-86 0 -148.5 36.5t-89.5 109.5t-7 179q24 128 110 192t221.5 86.5t306.5 28.5l17 77q16 73 5 116t-41.5 62t-74.5 19q-57 0 -99.5 -26t-55.5 -90h-240q29 145 135.5 209t272.5 64q111 0 197.5 -39t125.5 -127t7 -236l-137 -643h-229l19 124q-57 -63 -127 -102.5
t-168 -39.5zM380 145q48 0 91 23t79 58t61 67l41 195q-184 -2 -267 -49t-100 -140q-13 -69 13.5 -111.5t81.5 -42.5zM826 1180q-43 0 -74 32t-31 78q0 47 32 79t75 32q45 0 76.5 -31.5t31.5 -77.5t-32 -79t-78 -33zM486 1180q-44 0 -76.5 32t-32.5 78q0 47 32.5 79t77.5 32
q42 0 74 -31.5t32 -77.5q0 -47 -32.5 -79.5t-74.5 -32.5z" />
    <glyph glyph-name="aring" unicode="&#xe5;" horiz-adv-x="1016" 
d="M286 -18q-86 0 -148.5 36.5t-89.5 109.5t-7 179q24 128 110 192t221.5 86.5t306.5 28.5l17 77q16 73 5 116t-41.5 62t-74.5 19q-57 0 -99.5 -26t-55.5 -90h-240q29 145 135.5 209t272.5 64q111 0 197.5 -39t125.5 -127t7 -236l-137 -643h-229l19 124q-57 -63 -127 -102.5
t-168 -39.5zM380 145q48 0 91 23t79 58t61 67l41 195q-184 -2 -267 -49t-100 -140q-13 -69 13.5 -111.5t81.5 -42.5zM656 1125q-86 0 -147 56t-61 142q0 91 59 150.5t149 59.5q88 0 148 -57.5t60 -146.5t-60 -146.5t-148 -57.5zM656 1229q41 0 70.5 29.5t29.5 70.5
q0 43 -29 71.5t-71 28.5q-43 0 -71 -28.5t-28 -71.5q0 -41 28 -70.5t71 -29.5z" />
    <glyph glyph-name="ae" unicode="&#xe6;" horiz-adv-x="1574" 
d="M299 -18q-98 0 -162.5 45t-89 122t-3.5 175q20 89 74.5 146.5t140 89.5t200 44.5t252.5 12.5h606l-61 -8q15 95 2.5 154.5t-46.5 88t-87 28.5q-83 0 -135.5 -70.5t-82.5 -214.5l-6 -26h-239l23 127q14 71 1.5 111.5t-42.5 57t-68 16.5q-59 0 -97.5 -26.5t-48.5 -80.5
h-235q25 130 123.5 196.5t272.5 66.5q92 0 158.5 -24t101.5 -73t33 -123h-96q54 99 140 159.5t226 60.5q118 0 202.5 -57t121 -175.5t7.5 -301.5l-6 -31l-787 2l2 9q-137 2 -221.5 -15t-128 -56t-57.5 -106q-14 -72 13 -112.5t86 -40.5q74 0 140.5 50.5t123.5 149.5l61 -89
q-42 -86 -102 -149.5t-137.5 -98t-172.5 -34.5zM1007 -18q-128 0 -218.5 64.5t-129.5 184t-12 284.5l238 -24q-16 -94 -9 -173t43 -126t105 -47q65 0 105 29.5t56 85.5h245q-41 -140 -149 -209t-274 -69z" />
    <glyph glyph-name="ccedilla" unicode="&#xe7;" horiz-adv-x="1014" 
d="M457 -18q-123 0 -217 61.5t-137 185.5t-12 312q42 251 171.5 377t322.5 126q118 0 199 -39t122.5 -111t40.5 -168h-243q0 40 -14.5 71t-43.5 48.5t-74 17.5q-100 0 -156 -94t-81 -242q-31 -183 6.5 -274t133.5 -91q69 0 113.5 41t59.5 116h241q-35 -173 -145 -255
t-287 -82zM336 -379q-67 0 -108.5 10.5t-74.5 26.5l57 110q28 -13 64.5 -22t73.5 -9t57 13t25 39q7 30 -13.5 50t-91.5 32l-38 6l153 173l82 -50l-61 -73l-45 24q85 -3 127 -54.5t25 -132.5q-12 -55 -47.5 -86t-84 -44t-100.5 -13z" />
    <glyph glyph-name="egrave" unicode="&#xe8;" horiz-adv-x="1025" 
d="M463 -17q-139 0 -231.5 71.5t-129.5 199.5t-8 298q26 157 91.5 267t166.5 167.5t232 57.5q138 0 228 -69t121.5 -200.5t-5.5 -320.5h-602q-10 -83 0.5 -150t47.5 -106.5t104 -39.5q57 0 99.5 28t59.5 89h245q-43 -147 -149.5 -219.5t-269.5 -72.5zM360 619h345
q10 79 -3 136t-46.5 87.5t-84.5 30.5q-77 0 -133 -63.5t-78 -190.5zM578 1158l-214 275h257l124 -275h-167z" />
    <glyph glyph-name="eacute" unicode="&#xe9;" horiz-adv-x="1025" 
d="M463 -17q-139 0 -231.5 71.5t-129.5 199.5t-8 298q26 157 91.5 267t166.5 167.5t232 57.5q138 0 228 -69t121.5 -200.5t-5.5 -320.5h-602q-10 -83 0.5 -150t47.5 -106.5t104 -39.5q57 0 99.5 28t59.5 89h245q-43 -147 -149.5 -219.5t-269.5 -72.5zM360 619h345
q10 79 -3 136t-46.5 87.5t-84.5 30.5q-77 0 -133 -63.5t-78 -190.5zM488 1158l215 275h281l-311 -275h-185z" />
    <glyph glyph-name="ecircumflex" unicode="&#xea;" horiz-adv-x="1025" 
d="M463 -17q-139 0 -231.5 71.5t-129.5 199.5t-8 298q26 157 91.5 267t166.5 167.5t232 57.5q138 0 228 -69t121.5 -200.5t-5.5 -320.5h-602q-10 -83 0.5 -150t47.5 -106.5t104 -39.5q57 0 99.5 28t59.5 89h245q-43 -147 -149.5 -219.5t-269.5 -72.5zM360 619h345
q10 79 -3 136t-46.5 87.5t-84.5 30.5q-77 0 -133 -63.5t-78 -190.5zM316 1158l246 275h227l126 -275h-175l-82 152l-155 -152h-187z" />
    <glyph glyph-name="edieresis" unicode="&#xeb;" horiz-adv-x="1025" 
d="M463 -17q-139 0 -231.5 71.5t-129.5 199.5t-8 298q26 157 91.5 267t166.5 167.5t232 57.5q138 0 228 -69t121.5 -200.5t-5.5 -320.5h-602q-10 -83 0.5 -150t47.5 -106.5t104 -39.5q57 0 99.5 28t59.5 89h245q-43 -147 -149.5 -219.5t-269.5 -72.5zM360 619h345
q10 79 -3 136t-46.5 87.5t-84.5 30.5q-77 0 -133 -63.5t-78 -190.5zM812 1180q-43 0 -74 32t-31 78q0 47 32 79t75 32q45 0 76.5 -31.5t31.5 -77.5t-32 -79t-78 -33zM472 1180q-44 0 -76.5 32t-32.5 78q0 47 32.5 79t77.5 32q42 0 74 -31.5t32 -77.5q0 -47 -32.5 -79.5
t-74.5 -32.5z" />
    <glyph glyph-name="igrave" unicode="&#xec;" horiz-adv-x="517" 
d="M25 0l218 1026h248l-219 -1026h-247zM351 1158l-214 275h257l124 -275h-167z" />
    <glyph glyph-name="iacute" unicode="&#xed;" horiz-adv-x="517" 
d="M25 0l218 1026h248l-219 -1026h-247zM261 1158l215 275h281l-311 -275h-185z" />
    <glyph glyph-name="icircumflex" unicode="&#xee;" horiz-adv-x="517" 
d="M25 0l218 1026h248l-219 -1026h-247zM89 1158l246 275h227l126 -275h-175l-82 152l-155 -152h-187z" />
    <glyph glyph-name="idieresis" unicode="&#xef;" horiz-adv-x="517" 
d="M25 0l218 1026h248l-219 -1026h-247zM564 1180q-43 0 -74.5 32t-31.5 78q0 47 32 79t76 32q43 0 75.5 -31.5t32.5 -77.5q0 -47 -33 -79.5t-77 -32.5zM263 1180q-45 0 -76.5 32t-31.5 78q0 47 32 79t76 32t75.5 -31.5t31.5 -77.5q0 -47 -32 -79.5t-75 -32.5z" />
    <glyph glyph-name="eth" unicode="&#xf0;" horiz-adv-x="1040" 
d="M467 -17q-134 0 -232 66.5t-138.5 192t-4.5 299.5q29 136 101 228.5t171.5 140.5t209.5 48q84 0 131 -24.5t65 -71.5t17 -113l-50 1q2 50 -8.5 100t-33.5 101t-57.5 103.5t-80.5 106.5l-153 185h260l73 -90q104 -124 161 -254t69.5 -270.5t-19.5 -298.5
q-31 -149 -98.5 -249t-164.5 -150.5t-218 -50.5zM479 162q61 0 104.5 37.5t73 101t45.5 142.5q21 96 15 172t-42.5 120t-109.5 44q-67 0 -112 -37t-73.5 -98t-44.5 -134q-21 -100 -13.5 -178.5t46.5 -124t111 -45.5zM313 991l31 155l337 107v-5l334 106l-34 -155l-328 -101
l-3 3z" />
    <glyph glyph-name="ntilde" unicode="&#xf1;" horiz-adv-x="1069" 
d="M26 0l217 1026h238l-24 -142q58 61 128.5 108.5t173.5 47.5q89 0 148 -44t80 -129.5t-6 -210.5l-138 -656h-249l139 657q19 89 -3 137.5t-81 48.5q-65 0 -120 -35.5t-100 -78.5l-155 -729h-248zM391 1166q26 126 80 177.5t120 51.5q42 0 72 -11.5t67 -30.5
q34 -17 56 -25.5t37 -8.5q18 0 31.5 17t23.5 61h129q-26 -122 -72.5 -172.5t-117.5 -50.5q-36 0 -64 10.5t-69 30.5q-36 18 -57.5 26t-37.5 8q-22 0 -39.5 -18.5t-29.5 -64.5h-129z" />
    <glyph glyph-name="ograve" unicode="&#xf2;" horiz-adv-x="1047" 
d="M460 -18q-139 0 -234.5 72t-130.5 205t2 314q49 229 181 349.5t323 120.5q136 0 228 -71.5t127 -203t-4 -310.5q-48 -233 -174.5 -354.5t-317.5 -121.5zM478 168q93 0 145.5 88.5t82.5 229.5q22 97 17.5 182t-38.5 137.5t-103 52.5q-66 0 -113 -41t-77.5 -111.5
t-49.5 -159.5q-21 -99 -15.5 -185t42.5 -139.5t109 -53.5zM587 1158l-214 275h257l124 -275h-167z" />
    <glyph glyph-name="oacute" unicode="&#xf3;" horiz-adv-x="1047" 
d="M460 -18q-139 0 -234.5 72t-130.5 205t2 314q49 229 181 349.5t323 120.5q136 0 228 -71.5t127 -203t-4 -310.5q-48 -233 -174.5 -354.5t-317.5 -121.5zM478 168q93 0 145.5 88.5t82.5 229.5q22 97 17.5 182t-38.5 137.5t-103 52.5q-66 0 -113 -41t-77.5 -111.5
t-49.5 -159.5q-21 -99 -15.5 -185t42.5 -139.5t109 -53.5zM497 1158l215 275h281l-311 -275h-185z" />
    <glyph glyph-name="ocircumflex" unicode="&#xf4;" horiz-adv-x="1047" 
d="M460 -18q-139 0 -234.5 72t-130.5 205t2 314q49 229 181 349.5t323 120.5q136 0 228 -71.5t127 -203t-4 -310.5q-48 -233 -174.5 -354.5t-317.5 -121.5zM478 168q93 0 145.5 88.5t82.5 229.5q22 97 17.5 182t-38.5 137.5t-103 52.5q-66 0 -113 -41t-77.5 -111.5
t-49.5 -159.5q-21 -99 -15.5 -185t42.5 -139.5t109 -53.5zM325 1158l246 275h227l126 -275h-175l-82 152l-155 -152h-187z" />
    <glyph glyph-name="otilde" unicode="&#xf5;" horiz-adv-x="1047" 
d="M460 -18q-139 0 -234.5 72t-130.5 205t2 314q49 229 181 349.5t323 120.5q136 0 228 -71.5t127 -203t-4 -310.5q-48 -233 -174.5 -354.5t-317.5 -121.5zM478 168q93 0 145.5 88.5t82.5 229.5q22 97 17.5 182t-38.5 137.5t-103 52.5q-66 0 -113 -41t-77.5 -111.5
t-49.5 -159.5q-21 -99 -15.5 -185t42.5 -139.5t109 -53.5zM354 1168q26 126 80 177.5t120 51.5q42 0 72 -11.5t67 -30.5q34 -17 56 -25.5t37 -8.5q18 0 31.5 17t23.5 61h129q-26 -122 -72.5 -172.5t-117.5 -50.5q-36 0 -64 10.5t-69 30.5q-36 18 -57.5 26t-37.5 8
q-22 0 -39.5 -18.5t-29.5 -64.5h-129z" />
    <glyph glyph-name="odieresis" unicode="&#xf6;" horiz-adv-x="1047" 
d="M460 -18q-139 0 -234.5 72t-130.5 205t2 314q49 229 181 349.5t323 120.5q136 0 228 -71.5t127 -203t-4 -310.5q-48 -233 -174.5 -354.5t-317.5 -121.5zM478 168q93 0 145.5 88.5t82.5 229.5q22 97 17.5 182t-38.5 137.5t-103 52.5q-66 0 -113 -41t-77.5 -111.5
t-49.5 -159.5q-21 -99 -15.5 -185t42.5 -139.5t109 -53.5zM821 1180q-43 0 -74 32t-31 78q0 47 32 79t75 32q45 0 76.5 -31.5t31.5 -77.5t-32 -79t-78 -33zM481 1180q-44 0 -76.5 32t-32.5 78q0 47 32.5 79t77.5 32q42 0 74 -31.5t32 -77.5q0 -47 -32.5 -79.5t-74.5 -32.5z
" />
    <glyph glyph-name="divide" unicode="&#xf7;" horiz-adv-x="1038" 
d="M101 770h899v-204h-899v204zM552 163q-69 0 -112 43.5t-43 105.5q0 66 43 106.5t112 40.5q68 0 110.5 -40.5t42.5 -106.5q0 -62 -42.5 -105.5t-110.5 -43.5zM552 878q-69 0 -112 43t-43 104q0 66 43 107t112 41q68 0 110.5 -41t42.5 -107q0 -61 -42.5 -104t-110.5 -43z
" />
    <glyph glyph-name="oslash" unicode="&#xf8;" horiz-adv-x="1040" 
d="M56 -86l-84 86l1023 1102l86 -84zM457 -15q-141 0 -236.5 71t-130.5 201t2 307q49 232 181 352.5t323 120.5q140 0 232 -71t125 -203t-6 -315q-48 -225 -175.5 -344t-314.5 -119zM474 170q68 0 113.5 39.5t75.5 109t51 162.5q20 96 18 181.5t-37.5 139t-116.5 53.5
q-71 0 -120 -41.5t-81 -114.5t-54 -170q-19 -92 -12.5 -174.5t45.5 -133.5t118 -51z" />
    <glyph glyph-name="ugrave" unicode="&#xf9;" horiz-adv-x="1069" 
d="M309 -13q-89 0 -148 44.5t-79.5 130t5.5 209.5l140 655h249l-140 -657q-19 -89 4.5 -137t85.5 -48q41 0 78.5 17t71 43t63.5 53l156 729h249l-218 -1026h-241l27 145q-38 -41 -82 -77.5t-97.5 -58.5t-123.5 -22zM626 1158l-214 275h257l124 -275h-167z" />
    <glyph glyph-name="uacute" unicode="&#xfa;" horiz-adv-x="1069" 
d="M309 -13q-89 0 -148 44.5t-79.5 130t5.5 209.5l140 655h249l-140 -657q-19 -89 4.5 -137t85.5 -48q41 0 78.5 17t71 43t63.5 53l156 729h249l-218 -1026h-241l27 145q-38 -41 -82 -77.5t-97.5 -58.5t-123.5 -22zM536 1158l215 275h281l-311 -275h-185z" />
    <glyph glyph-name="ucircumflex" unicode="&#xfb;" horiz-adv-x="1069" 
d="M309 -13q-89 0 -148 44.5t-79.5 130t5.5 209.5l140 655h249l-140 -657q-19 -89 4.5 -137t85.5 -48q41 0 78.5 17t71 43t63.5 53l156 729h249l-218 -1026h-241l27 145q-38 -41 -82 -77.5t-97.5 -58.5t-123.5 -22zM364 1158l246 275h227l126 -275h-175l-82 152l-155 -152
h-187z" />
    <glyph glyph-name="udieresis" unicode="&#xfc;" horiz-adv-x="1069" 
d="M309 -13q-89 0 -148 44.5t-79.5 130t5.5 209.5l140 655h249l-140 -657q-19 -89 4.5 -137t85.5 -48q41 0 78.5 17t71 43t63.5 53l156 729h249l-218 -1026h-241l27 145q-38 -41 -82 -77.5t-97.5 -58.5t-123.5 -22zM859 1180q-43 0 -74 32t-31 78q0 47 32 79t75 32
q45 0 76.5 -31.5t31.5 -77.5t-32 -79t-78 -33zM519 1180q-44 0 -76.5 32t-32.5 78q0 47 32.5 79t77.5 32q42 0 74 -31.5t32 -77.5q0 -47 -32.5 -79.5t-74.5 -32.5z" />
    <glyph glyph-name="yacute" unicode="&#xfd;" horiz-adv-x="904" 
d="M-78 -363l42 200h79q60 0 95.5 23.5t63.5 77.5l32 62l-116 1028h254l39 -787l353 787h257l-568 -1108q-40 -80 -77.5 -134.5t-80 -87.5t-101 -47t-140.5 -14h-132zM457 1158l215 275h281l-311 -275h-185z" />
    <glyph glyph-name="thorn" unicode="&#xfe;" horiz-adv-x="1080" 
d="M-52 -359l367 1706h243l-100 -486q49 68 117 112t162 44q103 0 171.5 -67t91 -194t-16.5 -306q-51 -241 -163 -354.5t-260 -113.5q-88 0 -154 41t-104 113l-107 -495h-247zM524 171q75 0 127 76t86 234q24 110 19.5 188.5t-33.5 120t-82 41.5q-51 0 -94 -23.5t-75 -56
t-51 -58.5l-81 -378q23 -58 71.5 -101t112.5 -43z" />
    <glyph glyph-name="ydieresis" unicode="&#xff;" horiz-adv-x="904" 
d="M-78 -363l42 200h79q60 0 95.5 23.5t63.5 77.5l32 62l-116 1028h254l39 -787l353 787h257l-568 -1108q-40 -80 -77.5 -134.5t-80 -87.5t-101 -47t-140.5 -14h-132zM780 1180q-43 0 -74 32t-31 78q0 47 32 79t75 32q45 0 76.5 -31.5t31.5 -77.5t-32 -79t-78 -33zM440 1180
q-44 0 -76.5 32t-32.5 78q0 47 32.5 79t77.5 32q42 0 74 -31.5t32 -77.5q0 -47 -32.5 -79.5t-74.5 -32.5z" />
    <glyph glyph-name="Amacron" unicode="&#x100;" horiz-adv-x="1125" 
d="M-105 0l708 1346h278l138 -1346h-269l-12 311h-416l-147 -311h-280zM435 537h285l-26 551zM509 1510l29 142h499l-29 -142h-499z" />
    <glyph glyph-name="amacron" unicode="&#x101;" horiz-adv-x="1016" 
d="M286 -18q-86 0 -148.5 36.5t-89.5 109.5t-7 179q24 128 110 192t221.5 86.5t306.5 28.5l17 77q16 73 5 116t-41.5 62t-74.5 19q-57 0 -99.5 -26t-55.5 -90h-240q29 145 135.5 209t272.5 64q111 0 197.5 -39t125.5 -127t7 -236l-137 -643h-229l19 124q-57 -63 -127 -102.5
t-168 -39.5zM380 145q48 0 91 23t79 58t61 67l41 195q-184 -2 -267 -49t-100 -140q-13 -69 13.5 -111.5t81.5 -42.5zM396 1213l28 141h499l-29 -141h-498z" />
    <glyph glyph-name="Abreve" unicode="&#x102;" horiz-adv-x="1125" 
d="M-105 0l708 1346h278l138 -1346h-269l-12 311h-416l-147 -311h-280zM435 537h285l-26 551zM765 1461q-126 0 -190.5 74t-51.5 197h123q-5 -69 34 -102t94 -33q32 0 68.5 11.5t68.5 41t49 82.5h121q-31 -127 -107 -199t-209 -72z" />
    <glyph glyph-name="abreve" unicode="&#x103;" horiz-adv-x="1016" 
d="M286 -18q-86 0 -148.5 36.5t-89.5 109.5t-7 179q24 128 110 192t221.5 86.5t306.5 28.5l17 77q16 73 5 116t-41.5 62t-74.5 19q-57 0 -99.5 -26t-55.5 -90h-240q29 145 135.5 209t272.5 64q111 0 197.5 -39t125.5 -127t7 -236l-137 -643h-229l19 124q-57 -63 -127 -102.5
t-168 -39.5zM380 145q48 0 91 23t79 58t61 67l41 195q-184 -2 -267 -49t-100 -140q-13 -69 13.5 -111.5t81.5 -42.5zM647 1158q-131 0 -192 73.5t-44 199.5h118q-5 -52 14.5 -82t51.5 -42.5t66 -12.5q33 0 70.5 12.5t68.5 42.5t48 82h121q-35 -126 -112.5 -199.5
t-209.5 -73.5z" />
    <glyph glyph-name="Aogonek" unicode="&#x104;" horiz-adv-x="1125" 
d="M-105 0l708 1346h278l138 -1346h-269l-12 311h-416l-147 -311h-280zM435 537h285l-26 551zM789 -372q-80 0 -126.5 50.5t-29.5 135.5q15 74 82 135.5t167 85.5l83 -23q-71 -42 -108.5 -87t-44.5 -79q-6 -32 6 -49.5t40 -17.5q27 0 53.5 8t62.5 24l-30 -143
q-32 -18 -67.5 -29t-87.5 -11z" />
    <glyph glyph-name="aogonek" unicode="&#x105;" horiz-adv-x="1016" 
d="M286 -18q-86 0 -148.5 36.5t-89.5 109.5t-7 179q24 128 110 192t221.5 86.5t306.5 28.5l17 77q16 73 5 116t-41.5 62t-74.5 19q-57 0 -99.5 -26t-55.5 -90h-240q29 145 135.5 209t272.5 64q111 0 197.5 -39t125.5 -127t7 -236l-137 -643h-229l19 124q-57 -63 -127 -102.5
t-168 -39.5zM380 145q48 0 91 23t79 58t61 67l41 195q-184 -2 -267 -49t-100 -140q-13 -69 13.5 -111.5t81.5 -42.5zM561 -372q-80 0 -126.5 50.5t-29.5 135.5q15 74 82 135.5t167 85.5l83 -23q-71 -42 -108.5 -87t-44.5 -79q-6 -32 6 -49.5t40 -17.5q27 0 53.5 8t62.5 24
l-30 -143q-32 -18 -67.5 -29t-87.5 -11z" />
    <glyph glyph-name="Cacute" unicode="&#x106;" horiz-adv-x="1292" 
d="M615 -18q-178 0 -298.5 88.5t-169 252.5t-12.5 390q33 203 125 349t232 224t315 78q145 0 252.5 -53.5t163.5 -154t49 -240.5h-269q3 73 -23.5 124t-77.5 78.5t-121 27.5q-109 0 -186 -61.5t-125.5 -167t-70.5 -237.5q-23 -137 -7.5 -246t74 -171.5t163.5 -62.5
q113 0 190 62t109 194h272q-55 -245 -206.5 -359.5t-378.5 -114.5zM707 1456l216 275h273l-305 -275h-184z" />
    <glyph glyph-name="cacute" unicode="&#x107;" horiz-adv-x="1014" 
d="M457 -18q-123 0 -217 61.5t-137 185.5t-12 312q42 251 171.5 377t322.5 126q118 0 199 -39t122.5 -111t40.5 -168h-243q0 40 -14.5 71t-43.5 48.5t-74 17.5q-100 0 -156 -94t-81 -242q-31 -183 6.5 -274t133.5 -91q69 0 113.5 41t59.5 116h241q-35 -173 -145 -255
t-287 -82zM484 1161l215 275h281l-311 -275h-185z" />
    <glyph glyph-name="Ccircumflex" unicode="&#x108;" horiz-adv-x="1292" 
d="M615 -18q-178 0 -298.5 88.5t-169 252.5t-12.5 390q33 203 125 349t232 224t315 78q145 0 252.5 -53.5t163.5 -154t49 -240.5h-269q3 73 -23.5 124t-77.5 78.5t-121 27.5q-109 0 -186 -61.5t-125.5 -167t-70.5 -237.5q-23 -137 -7.5 -246t74 -171.5t163.5 -62.5
q113 0 190 62t109 194h272q-55 -245 -206.5 -359.5t-378.5 -114.5zM526 1455l247 276h226l127 -276h-183l-73 164l-144 -164h-200z" />
    <glyph glyph-name="ccircumflex" unicode="&#x109;" horiz-adv-x="1014" 
d="M457 -18q-123 0 -217 61.5t-137 185.5t-12 312q42 251 171.5 377t322.5 126q118 0 199 -39t122.5 -111t40.5 -168h-243q0 40 -14.5 71t-43.5 48.5t-74 17.5q-100 0 -156 -94t-81 -242q-31 -183 6.5 -274t133.5 -91q69 0 113.5 41t59.5 116h241q-35 -173 -145 -255
t-287 -82zM312 1161l246 275h227l126 -275h-175l-82 152l-155 -152h-187z" />
    <glyph glyph-name="Cdotaccent" unicode="&#x10a;" horiz-adv-x="1292" 
d="M615 -18q-178 0 -298.5 88.5t-169 252.5t-12.5 390q33 203 125 349t232 224t315 78q145 0 252.5 -53.5t163.5 -154t49 -240.5h-269q3 73 -23.5 124t-77.5 78.5t-121 27.5q-109 0 -186 -61.5t-125.5 -167t-70.5 -237.5q-23 -137 -7.5 -246t74 -171.5t163.5 -62.5
q113 0 190 62t109 194h272q-55 -245 -206.5 -359.5t-378.5 -114.5zM841 1445q-66 0 -103 35.5t-37 86.5t37.5 87t104.5 36q68 0 102.5 -35.5t34.5 -85.5q0 -53 -35.5 -88.5t-103.5 -35.5z" />
    <glyph glyph-name="cdotaccent" unicode="&#x10b;" horiz-adv-x="1014" 
d="M457 -18q-123 0 -217 61.5t-137 185.5t-12 312q42 251 171.5 377t322.5 126q118 0 199 -39t122.5 -111t40.5 -168h-243q0 40 -14.5 71t-43.5 48.5t-74 17.5q-100 0 -156 -94t-81 -242q-31 -183 6.5 -274t133.5 -91q69 0 113.5 41t59.5 116h241q-35 -173 -145 -255
t-287 -82zM641 1162q-66 0 -103 35.5t-37 87.5q0 50 37.5 86t104.5 36q68 0 102.5 -35.5t34.5 -85.5q0 -53 -35.5 -88.5t-103.5 -35.5z" />
    <glyph glyph-name="Ccaron" unicode="&#x10c;" horiz-adv-x="1292" 
d="M615 -18q-178 0 -298.5 88.5t-169 252.5t-12.5 390q33 203 125 349t232 224t315 78q145 0 252.5 -53.5t163.5 -154t49 -240.5h-269q3 73 -23.5 124t-77.5 78.5t-121 27.5q-109 0 -186 -61.5t-125.5 -167t-70.5 -237.5q-23 -137 -7.5 -246t74 -171.5t163.5 -62.5
q113 0 190 62t109 194h272q-55 -245 -206.5 -359.5t-378.5 -114.5zM712 1456l-125 276h184l74 -163l143 163h197l-246 -276h-227z" />
    <glyph glyph-name="ccaron" unicode="&#x10d;" horiz-adv-x="1014" 
d="M457 -18q-123 0 -217 61.5t-137 185.5t-12 312q42 251 171.5 377t322.5 126q118 0 199 -39t122.5 -111t40.5 -168h-243q0 40 -14.5 71t-43.5 48.5t-74 17.5q-100 0 -156 -94t-81 -242q-31 -183 6.5 -274t133.5 -91q69 0 113.5 41t59.5 116h241q-35 -173 -145 -255
t-287 -82zM500 1161l-125 275h179l81 -151l148 151h190l-246 -275h-227z" />
    <glyph glyph-name="Dcaron" unicode="&#x10e;" horiz-adv-x="1286" 
d="M37 0l286 1346h396q146 0 256 -55t177.5 -156t86 -239.5t-17.5 -306.5q-66 -308 -248 -448.5t-473 -140.5h-463zM348 218h161q119 0 206.5 39t146 127t91.5 237q33 152 14 266t-88 177.5t-185 63.5h-152zM632 1456l-125 276h184l74 -163l143 163h197l-246 -276h-227z" />
    <glyph glyph-name="dcaron" unicode="&#x10f;" horiz-adv-x="1085" 
d="M341 -18q-99 0 -168 68.5t-91.5 200.5t15.5 321q49 231 161 351t261 120q90 0 155.5 -43t105.5 -116l100 462h247l-286 -1347l-237 1l15 130q-49 -67 -116 -107.5t-162 -40.5zM439 169q49 0 90.5 23t75 55.5t54.5 59.5l82 411q-14 32 -41 62.5t-63.5 50.5t-79.5 20
q-77 0 -131.5 -82t-89.5 -240q-25 -120 -18.5 -200t38.5 -120t83 -40zM1123 1031l118 315h234l-196 -315h-156z" />
    <glyph glyph-name="Dcroat" unicode="&#x110;" horiz-adv-x="1286" 
d="M19 574l42 210h669l-45 -210h-666zM37 0l286 1346h396q146 0 256 -55t177.5 -156t86 -239.5t-17.5 -306.5q-66 -308 -248 -448.5t-473 -140.5h-463zM348 218h161q119 0 206.5 39t146 127t91.5 237q33 152 14 266t-88 177.5t-185 63.5h-152z" />
    <glyph glyph-name="dcroat" unicode="&#x111;" horiz-adv-x="1085" 
d="M627 1098l28 134h558l-27 -134h-559zM341 -18q-99 0 -168 68.5t-91.5 200.5t15.5 321q49 231 161 351t261 120q90 0 155.5 -43t105.5 -116l100 462h247l-286 -1347l-237 1l15 130q-49 -67 -116 -107.5t-162 -40.5zM439 169q49 0 90.5 23t75 55.5t54.5 59.5l82 411
q-14 32 -41 62.5t-63.5 50.5t-79.5 20q-77 0 -131.5 -82t-89.5 -240q-25 -120 -18.5 -200t38.5 -120t83 -40z" />
    <glyph glyph-name="Emacron" unicode="&#x112;" horiz-adv-x="1041" 
d="M37 0l286 1346h802l-45 -217h-538l-71 -336h486l-46 -210h-485l-78 -367h538l-46 -216h-803zM501 1510l29 142h499l-29 -142h-499z" />
    <glyph glyph-name="emacron" unicode="&#x113;" horiz-adv-x="1025" 
d="M463 -17q-139 0 -231.5 71.5t-129.5 199.5t-8 298q26 157 91.5 267t166.5 167.5t232 57.5q138 0 228 -69t121.5 -200.5t-5.5 -320.5h-602q-10 -83 0.5 -150t47.5 -106.5t104 -39.5q57 0 99.5 28t59.5 89h245q-43 -147 -149.5 -219.5t-269.5 -72.5zM360 619h345
q10 79 -3 136t-46.5 87.5t-84.5 30.5q-77 0 -133 -63.5t-78 -190.5zM381 1213l28 141h499l-29 -141h-498z" />
    <glyph glyph-name="Ebreve" unicode="&#x114;" horiz-adv-x="1041" 
d="M37 0l286 1346h802l-45 -217h-538l-71 -336h486l-46 -210h-485l-78 -367h538l-46 -216h-803zM757 1461q-126 0 -190.5 74t-51.5 197h123q-5 -69 34 -102t94 -33q32 0 68.5 11.5t68.5 41t49 82.5h121q-31 -127 -107 -199t-209 -72z" />
    <glyph glyph-name="ebreve" unicode="&#x115;" horiz-adv-x="1025" 
d="M463 -17q-139 0 -231.5 71.5t-129.5 199.5t-8 298q26 157 91.5 267t166.5 167.5t232 57.5q138 0 228 -69t121.5 -200.5t-5.5 -320.5h-602q-10 -83 0.5 -150t47.5 -106.5t104 -39.5q57 0 99.5 28t59.5 89h245q-43 -147 -149.5 -219.5t-269.5 -72.5zM360 619h345
q10 79 -3 136t-46.5 87.5t-84.5 30.5q-77 0 -133 -63.5t-78 -190.5zM633 1158q-131 0 -192 73.5t-44 199.5h118q-5 -52 14.5 -82t51.5 -42.5t66 -12.5q33 0 70.5 12.5t68.5 42.5t48 82h121q-35 -126 -112.5 -199.5t-209.5 -73.5z" />
    <glyph glyph-name="Edotaccent" unicode="&#x116;" horiz-adv-x="1041" 
d="M37 0l286 1346h802l-45 -217h-538l-71 -336h486l-46 -210h-485l-78 -367h538l-46 -216h-803zM766 1445q-66 0 -103 35.5t-37 86.5t37.5 87t104.5 36q68 0 102.5 -35.5t34.5 -85.5q0 -53 -35.5 -88.5t-103.5 -35.5z" />
    <glyph glyph-name="edotaccent" unicode="&#x117;" horiz-adv-x="1025" 
d="M463 -17q-139 0 -231.5 71.5t-129.5 199.5t-8 298q26 157 91.5 267t166.5 167.5t232 57.5q138 0 228 -69t121.5 -200.5t-5.5 -320.5h-602q-10 -83 0.5 -150t47.5 -106.5t104 -39.5q57 0 99.5 28t59.5 89h245q-43 -147 -149.5 -219.5t-269.5 -72.5zM360 619h345
q10 79 -3 136t-46.5 87.5t-84.5 30.5q-77 0 -133 -63.5t-78 -190.5zM645 1159q-66 0 -103 35.5t-37 87.5q0 50 37.5 86t104.5 36q68 0 102.5 -35.5t34.5 -85.5q0 -53 -35.5 -88.5t-103.5 -35.5z" />
    <glyph glyph-name="Eogonek" unicode="&#x118;" horiz-adv-x="1041" 
d="M37 0l286 1346h802l-45 -217h-538l-71 -336h486l-46 -210h-485l-78 -367h538l-46 -216h-803zM559 -372q-80 0 -126.5 50.5t-29.5 135.5q15 74 82 135.5t167 85.5l83 -23q-71 -42 -108.5 -87t-44.5 -79q-6 -32 6 -49.5t40 -17.5q27 0 53.5 8t62.5 24l-30 -143
q-32 -18 -67.5 -29t-87.5 -11z" />
    <glyph glyph-name="eogonek" unicode="&#x119;" horiz-adv-x="1025" 
d="M463 -17q-139 0 -231.5 71.5t-129.5 199.5t-8 298q26 157 91.5 267t166.5 167.5t232 57.5q138 0 228 -69t121.5 -200.5t-5.5 -320.5h-602q-10 -83 0.5 -150t47.5 -106.5t104 -39.5q57 0 99.5 28t59.5 89h245q-43 -147 -149.5 -219.5t-269.5 -72.5zM360 619h345
q10 79 -3 136t-46.5 87.5t-84.5 30.5q-77 0 -133 -63.5t-78 -190.5zM462 -372q-80 0 -126.5 50.5t-29.5 135.5q15 74 82 135.5t167 85.5l83 -23q-71 -42 -108.5 -87t-44.5 -79q-6 -32 6 -49.5t40 -17.5q27 0 53.5 8t62.5 24l-30 -143q-32 -18 -67.5 -29t-87.5 -11z" />
    <glyph glyph-name="Ecaron" unicode="&#x11a;" horiz-adv-x="1041" 
d="M37 0l286 1346h802l-45 -217h-538l-71 -336h486l-46 -210h-485l-78 -367h538l-46 -216h-803zM636 1456l-125 276h184l74 -163l143 163h197l-246 -276h-227z" />
    <glyph glyph-name="ecaron" unicode="&#x11b;" horiz-adv-x="1025" 
d="M463 -17q-139 0 -231.5 71.5t-129.5 199.5t-8 298q26 157 91.5 267t166.5 167.5t232 57.5q138 0 228 -69t121.5 -200.5t-5.5 -320.5h-602q-10 -83 0.5 -150t47.5 -106.5t104 -39.5q57 0 99.5 28t59.5 89h245q-43 -147 -149.5 -219.5t-269.5 -72.5zM360 619h345
q10 79 -3 136t-46.5 87.5t-84.5 30.5q-77 0 -133 -63.5t-78 -190.5zM504 1158l-125 275h179l81 -151l148 151h190l-246 -275h-227z" />
    <glyph glyph-name="Gcircumflex" unicode="&#x11c;" horiz-adv-x="1302" 
d="M617 -19q-180 0 -301 89.5t-169.5 251.5t-13.5 381q32 193 120 342.5t229.5 234.5t332.5 85q91 0 174.5 -27.5t148.5 -82.5t102 -137.5t34 -193.5h-269q0 64 -22.5 114.5t-71 79t-124.5 28.5q-109 0 -188 -62t-128.5 -167.5t-71.5 -236.5q-22 -132 -8 -241t73.5 -174.5
t169.5 -65.5q79 0 141 36t105.5 100.5t65.5 154.5h-251l33 207h530l-33 -167q-25 -124 -73 -225t-122.5 -173.5t-176.5 -111.5t-236 -39zM525 1455l247 276h226l127 -276h-183l-73 164l-144 -164h-200z" />
    <glyph glyph-name="gcircumflex" unicode="&#x11d;" horiz-adv-x="930" 
d="M313 -377q-158 0 -244.5 40.5t-117 103.5t-19.5 129q16 91 102 150.5t247 84.5l63 88h69q234 0 326.5 -83.5t65.5 -230.5q-24 -134 -150.5 -208t-341.5 -74zM330 -220q111 0 165 36t64 92q6 38 -7 66t-51 42.5t-105 14.5h-115q-48 -13 -80 -46t-39 -77q-7 -51 28 -89.5
t140 -38.5zM263 55q-91 12 -143.5 47t-70.5 78.5t-11 79.5q13 56 63.5 101t142.5 75l128 -47q-57 -16 -94.5 -41t-45.5 -58q-5 -21 8 -36.5t55 -24.5t121 -10zM454 363q-131 0 -211 48.5t-108.5 132t-9.5 186.5q16 81 66.5 151t137.5 113.5t209 43.5q188 0 271 -101.5
t52 -265.5q-14 -79 -62 -149.5t-133.5 -114.5t-211.5 -44zM465 513q63 0 108 47.5t59 131.5q20 104 -14 150.5t-97 46.5q-62 0 -106.5 -46.5t-60.5 -136.5q-12 -64 1.5 -107t43.5 -64.5t66 -21.5zM775 894l-52 97q51 101 130.5 139t183.5 38l-32 -182q-73 0 -132 -17
t-98 -75zM247 1158l246 275h227l126 -275h-175l-82 152l-155 -152h-187z" />
    <glyph glyph-name="Gbreve" unicode="&#x11e;" horiz-adv-x="1302" 
d="M617 -19q-180 0 -301 89.5t-169.5 251.5t-13.5 381q32 193 120 342.5t229.5 234.5t332.5 85q91 0 174.5 -27.5t148.5 -82.5t102 -137.5t34 -193.5h-269q0 64 -22.5 114.5t-71 79t-124.5 28.5q-109 0 -188 -62t-128.5 -167.5t-71.5 -236.5q-22 -132 -8 -241t73.5 -174.5
t169.5 -65.5q79 0 141 36t105.5 100.5t65.5 154.5h-251l33 207h530l-33 -167q-25 -124 -73 -225t-122.5 -173.5t-176.5 -111.5t-236 -39zM833 1461q-126 0 -190.5 74t-51.5 197h123q-5 -69 34 -102t94 -33q32 0 68.5 11.5t68.5 41t49 82.5h121q-31 -127 -107 -199t-209 -72z
" />
    <glyph glyph-name="gbreve" unicode="&#x11f;" horiz-adv-x="930" 
d="M313 -377q-158 0 -244.5 40.5t-117 103.5t-19.5 129q16 91 102 150.5t247 84.5l63 88h69q234 0 326.5 -83.5t65.5 -230.5q-24 -134 -150.5 -208t-341.5 -74zM330 -220q111 0 165 36t64 92q6 38 -7 66t-51 42.5t-105 14.5h-115q-48 -13 -80 -46t-39 -77q-7 -51 28 -89.5
t140 -38.5zM263 55q-91 12 -143.5 47t-70.5 78.5t-11 79.5q13 56 63.5 101t142.5 75l128 -47q-57 -16 -94.5 -41t-45.5 -58q-5 -21 8 -36.5t55 -24.5t121 -10zM454 363q-131 0 -211 48.5t-108.5 132t-9.5 186.5q16 81 66.5 151t137.5 113.5t209 43.5q188 0 271 -101.5
t52 -265.5q-14 -79 -62 -149.5t-133.5 -114.5t-211.5 -44zM465 513q63 0 108 47.5t59 131.5q20 104 -14 150.5t-97 46.5q-62 0 -106.5 -46.5t-60.5 -136.5q-12 -64 1.5 -107t43.5 -64.5t66 -21.5zM775 894l-52 97q51 101 130.5 139t183.5 38l-32 -182q-73 0 -132 -17
t-98 -75zM564 1158q-131 0 -192 73.5t-44 199.5h118q-5 -52 14.5 -82t51.5 -42.5t66 -12.5q33 0 70.5 12.5t68.5 42.5t48 82h121q-35 -126 -112.5 -199.5t-209.5 -73.5z" />
    <glyph glyph-name="Gdotaccent" unicode="&#x120;" horiz-adv-x="1302" 
d="M617 -19q-180 0 -301 89.5t-169.5 251.5t-13.5 381q32 193 120 342.5t229.5 234.5t332.5 85q91 0 174.5 -27.5t148.5 -82.5t102 -137.5t34 -193.5h-269q0 64 -22.5 114.5t-71 79t-124.5 28.5q-109 0 -188 -62t-128.5 -167.5t-71.5 -236.5q-22 -132 -8 -241t73.5 -174.5
t169.5 -65.5q79 0 141 36t105.5 100.5t65.5 154.5h-251l33 207h530l-33 -167q-25 -124 -73 -225t-122.5 -173.5t-176.5 -111.5t-236 -39zM841 1445q-66 0 -103 35.5t-37 86.5t37.5 87t104.5 36q68 0 102.5 -35.5t34.5 -85.5q0 -53 -35.5 -88.5t-103.5 -35.5z" />
    <glyph glyph-name="gdotaccent" unicode="&#x121;" horiz-adv-x="930" 
d="M313 -377q-158 0 -244.5 40.5t-117 103.5t-19.5 129q16 91 102 150.5t247 84.5l63 88h69q234 0 326.5 -83.5t65.5 -230.5q-24 -134 -150.5 -208t-341.5 -74zM330 -220q111 0 165 36t64 92q6 38 -7 66t-51 42.5t-105 14.5h-115q-48 -13 -80 -46t-39 -77q-7 -51 28 -89.5
t140 -38.5zM263 55q-91 12 -143.5 47t-70.5 78.5t-11 79.5q13 56 63.5 101t142.5 75l128 -47q-57 -16 -94.5 -41t-45.5 -58q-5 -21 8 -36.5t55 -24.5t121 -10zM454 363q-131 0 -211 48.5t-108.5 132t-9.5 186.5q16 81 66.5 151t137.5 113.5t209 43.5q188 0 271 -101.5
t52 -265.5q-14 -79 -62 -149.5t-133.5 -114.5t-211.5 -44zM465 513q63 0 108 47.5t59 131.5q20 104 -14 150.5t-97 46.5q-62 0 -106.5 -46.5t-60.5 -136.5q-12 -64 1.5 -107t43.5 -64.5t66 -21.5zM775 894l-52 97q51 101 130.5 139t183.5 38l-32 -182q-73 0 -132 -17
t-98 -75zM600 1159q-66 0 -103 35.5t-37 87.5q0 50 37.5 86t104.5 36q68 0 102.5 -35.5t34.5 -85.5q0 -53 -35.5 -88.5t-103.5 -35.5z" />
    <glyph glyph-name="Gcommaaccent" unicode="&#x122;" horiz-adv-x="1302" 
d="M617 -19q-180 0 -301 89.5t-169.5 251.5t-13.5 381q32 193 120 342.5t229.5 234.5t332.5 85q91 0 174.5 -27.5t148.5 -82.5t102 -137.5t34 -193.5h-269q0 64 -22.5 114.5t-71 79t-124.5 28.5q-109 0 -188 -62t-128.5 -167.5t-71.5 -236.5q-22 -132 -8 -241t73.5 -174.5
t169.5 -65.5q79 0 141 36t105.5 100.5t65.5 154.5h-251l33 207h530l-33 -167q-25 -124 -73 -225t-122.5 -173.5t-176.5 -111.5t-236 -39zM415 -413l-4 74q48 10 82.5 33t49.5 50q-57 2 -76.5 34.5t-10.5 73.5q8 37 36.5 60t83.5 23q54 0 82.5 -35t15.5 -102
q-19 -89 -91.5 -143.5t-167.5 -67.5z" />
    <glyph glyph-name="gcommaaccent" unicode="&#x123;" horiz-adv-x="930" 
d="M313 -377q-158 0 -244.5 40.5t-117 103.5t-19.5 129q16 91 102 150.5t247 84.5l63 88h69q234 0 326.5 -83.5t65.5 -230.5q-24 -134 -150.5 -208t-341.5 -74zM330 -220q111 0 165 36t64 92q6 38 -7 66t-51 42.5t-105 14.5h-115q-48 -13 -80 -46t-39 -77q-7 -51 28 -89.5
t140 -38.5zM263 55q-91 12 -143.5 47t-70.5 78.5t-11 79.5q13 56 63.5 101t142.5 75l128 -47q-57 -16 -94.5 -41t-45.5 -58q-5 -21 8 -36.5t55 -24.5t121 -10zM454 363q-131 0 -211 48.5t-108.5 132t-9.5 186.5q16 81 66.5 151t137.5 113.5t209 43.5q188 0 271 -101.5
t52 -265.5q-14 -79 -62 -149.5t-133.5 -114.5t-211.5 -44zM465 513q63 0 108 47.5t59 131.5q20 104 -14 150.5t-97 46.5q-62 0 -106.5 -46.5t-60.5 -136.5q-12 -64 1.5 -107t43.5 -64.5t66 -21.5zM775 894l-52 97q51 101 130.5 139t183.5 38l-32 -182q-73 0 -132 -17
t-98 -75zM620 1109q-59 0 -90.5 44.5t-16.5 116.5q13 57 53.5 103.5t98.5 77t123 38.5l3 -83q-44 -15 -78.5 -36.5t-56.5 -56.5q57 -7 78 -39t11 -76q-8 -39 -41 -64t-84 -25z" />
    <glyph glyph-name="Hcircumflex" unicode="&#x124;" horiz-adv-x="1327" 
d="M37 0l286 1346h265l-114 -534h516l114 534h265l-286 -1346h-265l123 582h-515l-123 -582h-266zM555 1455l247 276h226l127 -276h-183l-73 164l-144 -164h-200z" />
    <glyph glyph-name="hcircumflex" unicode="&#x125;" horiz-adv-x="1070" 
d="M25 0l285 1346h249l-98 -460q58 61 128.5 108.5t174.5 47.5q90 0 149 -45t79.5 -130t-6.5 -209l-144 -658h-249l144 659q20 89 -3.5 137.5t-89.5 48.5q-39 0 -76 -16.5t-71.5 -42.5t-65.5 -53l-158 -733h-248zM410 1477l246 275h227l126 -275h-175l-82 152l-155 -152
h-187z" />
    <glyph glyph-name="Hbar" unicode="&#x126;" horiz-adv-x="1327" 
d="M126 1000l31 139h1289l-31 -139h-1289zM37 0l286 1346h265l-114 -534h516l114 534h265l-286 -1346h-265l123 582h-515l-123 -582h-266z" />
    <glyph glyph-name="hbar" unicode="&#x127;" horiz-adv-x="1068" 
d="M141 1098l28 134h559l-28 -134h-559zM26 0l285 1347h248l-113 -514q58 62 129 109.5t174 47.5q91 0 150 -45t78.5 -130.5t-6.5 -208.5l-129 -606h-248l129 607q19 89 -4.5 137t-88.5 48q-40 0 -78 -19t-72.5 -49.5t-65.5 -64.5l-141 -659h-247z" />
    <glyph glyph-name="Itilde" unicode="&#x128;" horiz-adv-x="548" 
d="M37 0l286 1346h265l-285 -1346h-266zM185 1464q26 126 80 177.5t120 51.5q41 0 71.5 -11.5t66.5 -29.5q35 -17 56.5 -25.5t37.5 -8.5q18 0 31.5 17t23.5 60h129q-26 -122 -72.5 -172t-117.5 -50q-36 0 -64.5 10.5t-68.5 29.5q-37 18 -58 26.5t-37 8.5q-22 0 -40 -19
t-29 -65h-129z" />
    <glyph glyph-name="itilde" unicode="&#x129;" horiz-adv-x="517" 
d="M25 0l218 1026h248l-219 -1026h-247zM118 1168q26 126 80 177.5t120 51.5q42 0 72 -11.5t67 -30.5q34 -17 56 -25.5t37 -8.5q18 0 31.5 17t23.5 61h129q-26 -122 -72.5 -172.5t-117.5 -50.5q-36 0 -64 10.5t-69 30.5q-36 18 -57.5 26t-37.5 8q-22 0 -39.5 -18.5
t-29.5 -64.5h-129z" />
    <glyph glyph-name="Imacron" unicode="&#x12a;" horiz-adv-x="548" 
d="M37 0l286 1346h265l-285 -1346h-266zM223 1509l29 142h499l-29 -142h-499z" />
    <glyph glyph-name="imacron" unicode="&#x12b;" horiz-adv-x="517" 
d="M25 0l218 1026h248l-219 -1026h-247zM154 1213l28 141h499l-29 -141h-498z" />
    <glyph glyph-name="Ibreve" unicode="&#x12c;" horiz-adv-x="548" 
d="M37 0l286 1346h265l-285 -1346h-266zM479 1460q-126 0 -190.5 74t-51.5 197h123q-5 -69 34 -102t94 -33q32 0 68.5 11.5t68.5 41t49 82.5h121q-31 -127 -107 -199t-209 -72z" />
    <glyph glyph-name="ibreve" unicode="&#x12d;" horiz-adv-x="517" 
d="M25 0l218 1026h248l-219 -1026h-247zM406 1158q-131 0 -192 73.5t-44 199.5h118q-5 -52 14.5 -82t51.5 -42.5t66 -12.5q33 0 70.5 12.5t68.5 42.5t48 82h121q-35 -126 -112.5 -199.5t-209.5 -73.5z" />
    <glyph glyph-name="Iogonek" unicode="&#x12e;" horiz-adv-x="548" 
d="M37 0l286 1346h265l-285 -1346h-266zM88 -372q-80 0 -126.5 50.5t-29.5 135.5q15 74 82 135.5t167 85.5l83 -23q-71 -42 -108.5 -87t-44.5 -79q-6 -32 6 -49.5t40 -17.5q27 0 53.5 8t62.5 24l-30 -143q-32 -18 -67.5 -29t-87.5 -11z" />
    <glyph glyph-name="iogonek" unicode="&#x12f;" horiz-adv-x="517" 
d="M25 0l218 1026h248l-219 -1026h-247zM417 1159q-66 0 -103 35.5t-37 87.5q0 50 37.5 86t104.5 36q68 0 102.5 -35.5t34.5 -85.5q0 -53 -35.5 -88.5t-103.5 -35.5zM62 -372q-80 0 -126.5 50.5t-29.5 135.5q15 74 82 135.5t167 85.5l83 -23q-71 -42 -108.5 -87t-44.5 -79
q-6 -32 6 -49.5t40 -17.5q27 0 53.5 8t62.5 24l-30 -143q-32 -18 -67.5 -29t-87.5 -11z" />
    <glyph glyph-name="Idotaccent" unicode="&#x130;" horiz-adv-x="548" 
d="M37 0l286 1346h265l-285 -1346h-266zM490 1444q-66 0 -103 35.5t-37 86.5t37.5 87t104.5 36q68 0 102.5 -35.5t34.5 -85.5q0 -53 -35.5 -88.5t-103.5 -35.5z" />
    <glyph glyph-name="idotless" unicode="&#x131;" horiz-adv-x="517" 
d="M25 0l218 1026h248l-219 -1026h-247z" />
    <glyph glyph-name="IJ" unicode="&#x132;" horiz-adv-x="1222" 
d="M37 0l286 1346h265l-285 -1346h-266zM472 -16l48 223h82q90 0 145 56.5t82 182.5l191 900h258l-196 -925q-32 -150 -90 -246.5t-153 -143.5t-239 -47h-128z" />
    <glyph glyph-name="ij" unicode="&#x133;" horiz-adv-x="991" 
d="M23 0l217 1026h247l-216 -1026h-248zM399 1124q-67 0 -103 35t-36 83t36.5 83t104.5 35t103 -34.5t35 -81.5q0 -50 -35.5 -85t-104.5 -35zM281 -359l40 195h54q55 0 89 32t49 102l225 1056h247l-229 -1070q-30 -144 -114.5 -229.5t-261.5 -85.5h-99zM895 1124
q-67 0 -103 35t-36 84q0 48 36.5 82.5t104.5 34.5q69 0 103.5 -34t34.5 -82q0 -50 -36 -85t-104 -35z" />
    <glyph glyph-name="Jcircumflex" unicode="&#x134;" horiz-adv-x="675" 
d="M-76 -16l48 223h82q90 0 145 56.5t82 182.5l191 900h258l-196 -925q-32 -150 -90 -246.5t-153 -143.5t-239 -47h-128zM309 1455l247 276h226l127 -276h-183l-73 164l-144 -164h-200z" />
    <glyph glyph-name="jcircumflex" unicode="&#x135;" horiz-adv-x="514" 
d="M-215 -359l40 195h53q56 0 90 32t49 102l219 1032h248l-223 -1046q-32 -148 -118 -231.5t-259 -83.5h-99zM82 1133l246 275h227l126 -275h-175l-82 152l-155 -152h-187z" />
    <glyph glyph-name="Kcommaaccent" unicode="&#x136;" horiz-adv-x="1122" 
d="M37 0l286 1346h265l-135 -637l540 637h300l-576 -657l317 -689h-282l-303 689l-146 -689h-266zM327 -413l-4 74q48 10 82.5 33t49.5 50q-57 2 -76.5 34.5t-10.5 73.5q8 37 36.5 60t83.5 23q54 0 82.5 -35t15.5 -102q-19 -89 -91.5 -143.5t-167.5 -67.5z" />
    <glyph glyph-name="kcommaaccent" unicode="&#x137;" horiz-adv-x="978" 
d="M24 0l286 1346h248l-170 -786l424 466h277l-453 -479l253 -547h-260l-242 547l-115 -547h-248zM267 -413l-4 74q48 10 82.5 33t49.5 50q-57 2 -76.5 34.5t-10.5 73.5q8 37 36.5 60t83.5 23q54 0 82.5 -35t15.5 -102q-19 -89 -91.5 -143.5t-167.5 -67.5z" />
    <glyph glyph-name="kgreenlandic" unicode="&#x138;" horiz-adv-x="978" 
d="M25 0l218 1026h248l-106 -473l423 473h277l-453 -487l258 -539h-260l-247 539l-110 -539h-248z" />
    <glyph glyph-name="Lacute" unicode="&#x139;" horiz-adv-x="928" 
d="M37 0l286 1346h265l-237 -1117h489l-47 -229h-756zM395 1456l216 275h273l-305 -275h-184z" />
    <glyph glyph-name="lacute" unicode="&#x13a;" horiz-adv-x="543" 
d="M355 0q-131 0 -198.5 37.5t-82 117t12.5 204.5l209 987h250l-213 -996q-18 -82 -2.5 -120t72.5 -38h54l-41 -192h-61zM328 1477l215 275h281l-311 -275h-185z" />
    <glyph glyph-name="Lcommaaccent" unicode="&#x13b;" horiz-adv-x="928" 
d="M37 0l286 1346h265l-237 -1117h489l-47 -229h-756zM234 -413l-4 74q48 10 82.5 33t49.5 50q-57 2 -76.5 34.5t-10.5 73.5q8 37 36.5 60t83.5 23q54 0 82.5 -35t15.5 -102q-19 -89 -91.5 -143.5t-167.5 -67.5z" />
    <glyph glyph-name="lcommaaccent" unicode="&#x13c;" horiz-adv-x="543" 
d="M355 0q-131 0 -198.5 37.5t-82 117t12.5 204.5l209 987h250l-213 -996q-18 -82 -2.5 -120t72.5 -38h54l-41 -192h-61zM31 -413l-4 74q48 10 82.5 33t49.5 50q-57 2 -76.5 34.5t-10.5 73.5q8 37 36.5 60t83.5 23q54 0 82.5 -35t15.5 -102q-19 -89 -91.5 -143.5
t-167.5 -67.5z" />
    <glyph glyph-name="Lcaron" unicode="&#x13d;" horiz-adv-x="928" 
d="M37 0l286 1346h265l-237 -1117h489l-47 -229h-756zM644 1032l118 315h234l-196 -315h-156z" />
    <glyph glyph-name="lcaron" unicode="&#x13e;" horiz-adv-x="543" 
d="M355 0q-131 0 -198.5 37.5t-82 117t12.5 204.5l209 987h250l-213 -996q-18 -82 -2.5 -120t72.5 -38h54l-41 -192h-61zM539 1031l118 315h234l-196 -315h-156z" />
    <glyph glyph-name="Ldot" unicode="&#x13f;" horiz-adv-x="955" 
d="M37 0l286 1346h265l-237 -1117h489l-47 -229h-756zM769 628q-71 0 -114 45.5t-43 109.5q0 70 43.5 113t114.5 43q70 0 113 -42.5t43 -112.5q0 -65 -43.5 -110.5t-113.5 -45.5z" />
    <glyph glyph-name="ldot" unicode="&#x140;" horiz-adv-x="716" 
d="M355 0q-131 0 -198.5 37.5t-82 117t12.5 204.5l209 987h250l-213 -996q-18 -82 -2.5 -120t72.5 -38h54l-41 -192h-61zM642 578q-71 0 -114 45.5t-43 109.5q0 70 43.5 113t114.5 43q70 0 113 -42.5t43 -112.5q0 -65 -43.5 -110.5t-113.5 -45.5z" />
    <glyph glyph-name="Lslash" unicode="&#x141;" horiz-adv-x="928" 
d="M-20 354l44 210l693 378l-46 -211zM37 0l286 1346h265l-237 -1117h489l-47 -229h-756z" />
    <glyph glyph-name="lslash" unicode="&#x142;" horiz-adv-x="543" 
d="M-18 404l45 210l586 393l-45 -212zM355 0q-131 0 -198.5 37.5t-82 117t12.5 204.5l209 987h250l-213 -996q-18 -82 -2.5 -120t72.5 -38h54l-41 -192h-61z" />
    <glyph glyph-name="Nacute" unicode="&#x143;" horiz-adv-x="1312" 
d="M37 0l286 1346h268l316 -956l200 956h247l-287 -1346h-268l-314 956l-203 -956h-245zM724 1456l216 275h273l-305 -275h-184z" />
    <glyph glyph-name="nacute" unicode="&#x144;" horiz-adv-x="1069" 
d="M26 0l217 1026h238l-24 -142q58 61 128.5 108.5t173.5 47.5q89 0 148 -44t80 -129.5t-6 -210.5l-138 -656h-249l139 657q19 89 -3 137.5t-81 48.5q-65 0 -120 -35.5t-100 -78.5l-155 -729h-248zM534 1156l215 275h281l-311 -275h-185z" />
    <glyph glyph-name="Ncommaaccent" unicode="&#x145;" horiz-adv-x="1312" 
d="M37 0l286 1346h268l316 -956l200 956h247l-287 -1346h-268l-314 956l-203 -956h-245zM381 -413l-4 74q48 10 82.5 33t49.5 50q-57 2 -76.5 34.5t-10.5 73.5q8 37 36.5 60t83.5 23q54 0 82.5 -35t15.5 -102q-19 -89 -91.5 -143.5t-167.5 -67.5z" />
    <glyph glyph-name="ncommaaccent" unicode="&#x146;" horiz-adv-x="1069" 
d="M26 0l217 1026h238l-24 -142q58 61 128.5 108.5t173.5 47.5q89 0 148 -44t80 -129.5t-6 -210.5l-138 -656h-249l139 657q19 89 -3 137.5t-81 48.5q-65 0 -120 -35.5t-100 -78.5l-155 -729h-248zM250 -413l-4 74q48 10 82.5 33t49.5 50q-57 2 -76.5 34.5t-10.5 73.5
q8 37 36.5 60t83.5 23q54 0 82.5 -35t15.5 -102q-19 -89 -91.5 -143.5t-167.5 -67.5z" />
    <glyph glyph-name="Ncaron" unicode="&#x147;" horiz-adv-x="1312" 
d="M37 0l286 1346h268l316 -956l200 956h247l-287 -1346h-268l-314 956l-203 -956h-245zM729 1456l-125 276h184l74 -163l143 163h197l-246 -276h-227z" />
    <glyph glyph-name="ncaron" unicode="&#x148;" horiz-adv-x="1069" 
d="M26 0l217 1026h238l-24 -142q58 61 128.5 108.5t173.5 47.5q89 0 148 -44t80 -129.5t-6 -210.5l-138 -656h-249l139 657q19 89 -3 137.5t-81 48.5q-65 0 -120 -35.5t-100 -78.5l-155 -729h-248zM549 1156l-125 275h179l81 -151l148 151h190l-246 -275h-227z" />
    <glyph glyph-name="napostrophe" unicode="&#x149;" horiz-adv-x="1240" 
d="M197 0l217 1026h238l-24 -142q58 61 128.5 108.5t173.5 47.5q89 0 148 -44t80 -129.5t-6 -210.5l-138 -656h-249l139 657q19 89 -3 137.5t-81 48.5q-65 0 -120 -35.5t-100 -78.5l-155 -729h-248zM-13 758l-6 124q71 23 118.5 67.5t70.5 111.5l10 -13q-72 2 -104.5 54.5
t-17.5 124.5q14 59 53.5 95.5t104.5 36.5q82 0 124 -64t16 -185q-23 -109 -84 -181t-137 -112.5t-148 -58.5z" />
    <glyph glyph-name="Eng" unicode="&#x14a;" horiz-adv-x="1306" 
d="M470 -358l47 223h93q73 0 116.5 34t70.5 110l-315 947l-203 -956h-245l286 1346h269l316 -951l199 951h247l-280 -1317q-29 -139 -87.5 -224.5t-156 -124t-245.5 -38.5h-112z" />
    <glyph glyph-name="eng" unicode="&#x14b;" horiz-adv-x="1068" 
d="M354 -358l41 195h67q56 0 83.5 32.5t42.5 101.5l145 686q19 89 -3 137.5t-81 48.5q-66 0 -122 -40.5t-102 -92.5l-151 -710h-248l217 1026h238l-24 -142q58 61 128.5 108.5t173.5 47.5q89 0 148 -44t80 -129.5t-6 -210.5l-155 -736q-27 -128 -112.5 -203t-236.5 -75h-123
z" />
    <glyph glyph-name="Omacron" unicode="&#x14c;" horiz-adv-x="1336" 
d="M607 -19q-186 0 -305 94t-163 260t-3 383q37 203 125.5 348t226.5 222.5t323 77.5q183 0 301 -93.5t161.5 -260.5t3.5 -388q-36 -199 -122.5 -343.5t-223.5 -222t-324 -77.5zM625 197q111 0 189 61t127.5 166t73.5 239q22 124 9 235t-69.5 181t-166.5 70
q-107 0 -185 -58.5t-128 -163t-76 -243.5q-22 -125 -10 -236t69 -181t167 -70zM593 1510l29 142h499l-29 -142h-499z" />
    <glyph glyph-name="omacron" unicode="&#x14d;" horiz-adv-x="1047" 
d="M460 -18q-139 0 -234.5 72t-130.5 205t2 314q49 229 181 349.5t323 120.5q136 0 228 -71.5t127 -203t-4 -310.5q-48 -233 -174.5 -354.5t-317.5 -121.5zM478 168q93 0 145.5 88.5t82.5 229.5q22 97 17.5 182t-38.5 137.5t-103 52.5q-66 0 -113 -41t-77.5 -111.5
t-49.5 -159.5q-21 -99 -15.5 -185t42.5 -139.5t109 -53.5zM390 1213l28 141h499l-29 -141h-498z" />
    <glyph glyph-name="Obreve" unicode="&#x14e;" horiz-adv-x="1336" 
d="M607 -19q-186 0 -305 94t-163 260t-3 383q37 203 125.5 348t226.5 222.5t323 77.5q183 0 301 -93.5t161.5 -260.5t3.5 -388q-36 -199 -122.5 -343.5t-223.5 -222t-324 -77.5zM625 197q111 0 189 61t127.5 166t73.5 239q22 124 9 235t-69.5 181t-166.5 70
q-107 0 -185 -58.5t-128 -163t-76 -243.5q-22 -125 -10 -236t69 -181t167 -70zM850 1461q-126 0 -190.5 74t-51.5 197h123q-5 -69 34 -102t94 -33q32 0 68.5 11.5t68.5 41t49 82.5h121q-31 -127 -107 -199t-209 -72z" />
    <glyph glyph-name="obreve" unicode="&#x14f;" horiz-adv-x="1047" 
d="M460 -18q-139 0 -234.5 72t-130.5 205t2 314q49 229 181 349.5t323 120.5q136 0 228 -71.5t127 -203t-4 -310.5q-48 -233 -174.5 -354.5t-317.5 -121.5zM478 168q93 0 145.5 88.5t82.5 229.5q22 97 17.5 182t-38.5 137.5t-103 52.5q-66 0 -113 -41t-77.5 -111.5
t-49.5 -159.5q-21 -99 -15.5 -185t42.5 -139.5t109 -53.5zM642 1158q-131 0 -192 73.5t-44 199.5h118q-5 -52 14.5 -82t51.5 -42.5t66 -12.5q33 0 70.5 12.5t68.5 42.5t48 82h121q-35 -126 -112.5 -199.5t-209.5 -73.5z" />
    <glyph glyph-name="Ohungarumlaut" unicode="&#x150;" horiz-adv-x="1336" 
d="M607 -19q-186 0 -305 94t-163 260t-3 383q37 203 125.5 348t226.5 222.5t323 77.5q183 0 301 -93.5t161.5 -260.5t3.5 -388q-36 -199 -122.5 -343.5t-223.5 -222t-324 -77.5zM625 197q111 0 189 61t127.5 166t73.5 239q22 124 9 235t-69.5 181t-166.5 70
q-107 0 -185 -58.5t-128 -163t-76 -243.5q-22 -125 -10 -236t69 -181t167 -70zM855 1455l219 276h191l-269 -276h-141zM565 1455l220 276h190l-268 -276h-142z" />
    <glyph glyph-name="ohungarumlaut" unicode="&#x151;" horiz-adv-x="1047" 
d="M460 -18q-139 0 -234.5 72t-130.5 205t2 314q49 229 181 349.5t323 120.5q136 0 228 -71.5t127 -203t-4 -310.5q-48 -233 -174.5 -354.5t-317.5 -121.5zM478 168q93 0 145.5 88.5t82.5 229.5q22 97 17.5 182t-38.5 137.5t-103 52.5q-66 0 -113 -41t-77.5 -111.5
t-49.5 -159.5q-21 -99 -15.5 -185t42.5 -139.5t109 -53.5zM650 1158l219 275h191l-269 -275h-141zM360 1158l220 275h190l-268 -275h-142z" />
    <glyph glyph-name="OE" unicode="&#x152;" horiz-adv-x="1876" 
d="M583 -18q-172 0 -287.5 94t-158.5 263t1 393q39 196 125.5 338t217 218.5t299.5 76.5q121 0 207.5 -45t135.5 -135t57 -225.5t-28 -315.5q-43 -217 -117.5 -364.5t-186.5 -222.5t-265 -75zM625 198q110 0 188 61.5t127 166t72 237.5q25 133 10.5 243t-73.5 175.5
t-170 65.5q-106 0 -182 -60.5t-124.5 -164.5t-72.5 -236q-23 -128 -11 -239.5t69.5 -180t166.5 -68.5zM872 0l286 1346h803l-46 -217h-538l-71 -336h486l-46 -210h-484l-78 -367h537l-46 -216h-803z" />
    <glyph glyph-name="oe" unicode="&#x153;" horiz-adv-x="1636" 
d="M442 -17q-131 0 -223 70.5t-126.5 201t3.5 312.5q49 231 180.5 353.5t323.5 122.5q131 0 216.5 -74t113.5 -209t-12 -322q-47 -223 -164 -339t-312 -116zM473 162q99 0 149.5 84.5t78.5 217.5q23 107 19.5 197.5t-37.5 146t-102 55.5q-94 0 -152.5 -90t-90.5 -239
q-21 -100 -16 -184.5t42 -136t109 -51.5zM1072 -16q-132 0 -221.5 67.5t-126 190.5t-9.5 291q25 159 90 273t166.5 175.5t234.5 61.5q132 0 218.5 -67t118.5 -196t-1 -316h-601q-11 -85 -0.5 -157t48 -115.5t109.5 -43.5q59 0 98.5 26t56.5 85h246q-44 -140 -149.5 -207.5
t-277.5 -67.5zM968 623h355q9 81 -3.5 138.5t-44.5 87.5t-81 30q-81 0 -139.5 -64t-86.5 -192z" />
    <glyph glyph-name="Racute" unicode="&#x154;" horiz-adv-x="1155" 
d="M37 0l286 1346h433q137 0 230 -52.5t131.5 -148t10.5 -227.5q-25 -117 -104.5 -190t-210.5 -98q57 -15 93 -51t56 -99.5t29 -165.5l28 -314h-271l-17 283q-6 95 -20 147.5t-43.5 74t-81.5 21.5h-172l-111 -526h-266zM460 741h185q87 0 143.5 48.5t73.5 132.5
q22 106 -17 159.5t-124 53.5h-179zM629 1456l216 275h273l-305 -275h-184z" />
    <glyph glyph-name="racute" unicode="&#x155;" horiz-adv-x="677" 
d="M26 0l217 1026h232l-25 -168q50 83 119.5 132.5t165.5 49.5h33l-45 -210h-21q-46 0 -95 -11.5t-96.5 -39.5t-87.5 -77l-149 -702h-248zM410 1158l215 275h281l-311 -275h-185z" />
    <glyph glyph-name="Rcommaaccent" unicode="&#x156;" horiz-adv-x="1155" 
d="M37 0l286 1346h433q137 0 230 -52.5t131.5 -148t10.5 -227.5q-25 -117 -104.5 -190t-210.5 -98q57 -15 93 -51t56 -99.5t29 -165.5l28 -314h-271l-17 283q-6 95 -20 147.5t-43.5 74t-81.5 21.5h-172l-111 -526h-266zM460 741h185q87 0 143.5 48.5t73.5 132.5
q22 106 -17 159.5t-124 53.5h-179zM361 -413l-4 74q48 10 82.5 33t49.5 50q-57 2 -76.5 34.5t-10.5 73.5q8 37 36.5 60t83.5 23q54 0 82.5 -35t15.5 -102q-19 -89 -91.5 -143.5t-167.5 -67.5z" />
    <glyph glyph-name="rcommaaccent" unicode="&#x157;" horiz-adv-x="677" 
d="M26 0l217 1026h232l-25 -168q50 83 119.5 132.5t165.5 49.5h33l-45 -210h-21q-46 0 -95 -11.5t-96.5 -39.5t-87.5 -77l-149 -702h-248zM-29 -413l-4 74q48 10 82.5 33t49.5 50q-57 2 -76.5 34.5t-10.5 73.5q8 37 36.5 60t83.5 23q54 0 82.5 -35t15.5 -102
q-19 -89 -91.5 -143.5t-167.5 -67.5z" />
    <glyph glyph-name="Rcaron" unicode="&#x158;" horiz-adv-x="1155" 
d="M37 0l286 1346h433q137 0 230 -52.5t131.5 -148t10.5 -227.5q-25 -117 -104.5 -190t-210.5 -98q57 -15 93 -51t56 -99.5t29 -165.5l28 -314h-271l-17 283q-6 95 -20 147.5t-43.5 74t-81.5 21.5h-172l-111 -526h-266zM460 741h185q87 0 143.5 48.5t73.5 132.5
q22 106 -17 159.5t-124 53.5h-179zM634 1456l-125 276h184l74 -163l143 163h197l-246 -276h-227z" />
    <glyph glyph-name="rcaron" unicode="&#x159;" horiz-adv-x="677" 
d="M26 0l217 1026h232l-25 -168q50 83 119.5 132.5t165.5 49.5h33l-45 -210h-21q-46 0 -95 -11.5t-96.5 -39.5t-87.5 -77l-149 -702h-248zM426 1158l-125 275h179l81 -151l148 151h190l-246 -275h-227z" />
    <glyph glyph-name="Sacute" unicode="&#x15a;" horiz-adv-x="1091" 
d="M496 -17q-140 0 -241 46t-154 141t-49 241h272q-3 -112 43.5 -165t149.5 -53q82 0 135 36.5t65 112.5q10 53 -6.5 97.5t-67 85.5t-145.5 83q-105 48 -178 112t-104.5 148t-12.5 191q18 100 80 168.5t160 103.5t223 34q123 -1 218 -42.5t149.5 -127.5t52.5 -219h-271
q3 92 -42.5 139t-124.5 47q-74 0 -124.5 -34.5t-59.5 -94.5q-7 -43 8.5 -80.5t65.5 -75.5t147 -81q115 -52 188 -114t102 -147t9 -206q-19 -121 -84.5 -197t-168.5 -112.5t-235 -36.5zM575 1456l216 275h273l-305 -275h-184z" />
    <glyph glyph-name="sacute" unicode="&#x15b;" horiz-adv-x="938" 
d="M409 -18q-113 0 -199 33t-132 100.5t-41 172.5h231q-3 -78 37 -109.5t112 -31.5q55 0 90.5 25.5t45.5 75.5q8 38 -3 70.5t-48.5 63t-111.5 61.5q-141 58 -201 147.5t-35 213.5q24 113 124 174t258 61q111 0 190.5 -35.5t120.5 -102t38 -159.5h-230q1 63 -30.5 97.5
t-98.5 34.5q-48 0 -80.5 -19.5t-41.5 -62.5q-13 -56 26 -99.5t157 -92.5q142 -60 190 -150t26 -211q-21 -122 -116.5 -189.5t-277.5 -67.5zM455 1158l215 275h281l-311 -275h-185z" />
    <glyph glyph-name="Scircumflex" unicode="&#x15c;" horiz-adv-x="1091" 
d="M496 -17q-140 0 -241 46t-154 141t-49 241h272q-3 -112 43.5 -165t149.5 -53q82 0 135 36.5t65 112.5q10 53 -6.5 97.5t-67 85.5t-145.5 83q-105 48 -178 112t-104.5 148t-12.5 191q18 100 80 168.5t160 103.5t223 34q123 -1 218 -42.5t149.5 -127.5t52.5 -219h-271
q3 92 -42.5 139t-124.5 47q-74 0 -124.5 -34.5t-59.5 -94.5q-7 -43 8.5 -80.5t65.5 -75.5t147 -81q115 -52 188 -114t102 -147t9 -206q-19 -121 -84.5 -197t-168.5 -112.5t-235 -36.5zM394 1455l247 276h226l127 -276h-183l-73 164l-144 -164h-200z" />
    <glyph glyph-name="scircumflex" unicode="&#x15d;" horiz-adv-x="938" 
d="M409 -18q-113 0 -199 33t-132 100.5t-41 172.5h231q-3 -78 37 -109.5t112 -31.5q55 0 90.5 25.5t45.5 75.5q8 38 -3 70.5t-48.5 63t-111.5 61.5q-141 58 -201 147.5t-35 213.5q24 113 124 174t258 61q111 0 190.5 -35.5t120.5 -102t38 -159.5h-230q1 63 -30.5 97.5
t-98.5 34.5q-48 0 -80.5 -19.5t-41.5 -62.5q-13 -56 26 -99.5t157 -92.5q142 -60 190 -150t26 -211q-21 -122 -116.5 -189.5t-277.5 -67.5zM283 1158l246 275h227l126 -275h-175l-82 152l-155 -152h-187z" />
    <glyph glyph-name="Scedilla" unicode="&#x15e;" horiz-adv-x="1091" 
d="M496 -17q-140 0 -241 46t-154 141t-49 241h272q-3 -112 43.5 -165t149.5 -53q82 0 135 36.5t65 112.5q10 53 -6.5 97.5t-67 85.5t-145.5 83q-105 48 -178 112t-104.5 148t-12.5 191q18 100 80 168.5t160 103.5t223 34q123 -1 218 -42.5t149.5 -127.5t52.5 -219h-271
q3 92 -42.5 139t-124.5 47q-74 0 -124.5 -34.5t-59.5 -94.5q-7 -43 8.5 -80.5t65.5 -75.5t147 -81q115 -52 188 -114t102 -147t9 -206q-19 -121 -84.5 -197t-168.5 -112.5t-235 -36.5zM391 -379q-67 0 -108.5 10.5t-74.5 26.5l57 110q28 -13 64.5 -22t73.5 -9t57 13t25 39
q7 30 -13.5 50t-91.5 32l-38 6l153 173l82 -50l-61 -73l-45 24q85 -3 127 -54.5t25 -132.5q-12 -55 -47.5 -86t-84 -44t-100.5 -13z" />
    <glyph glyph-name="scedilla" unicode="&#x15f;" horiz-adv-x="938" 
d="M409 -18q-113 0 -199 33t-132 100.5t-41 172.5h231q-3 -78 37 -109.5t112 -31.5q55 0 90.5 25.5t45.5 75.5q8 38 -3 70.5t-48.5 63t-111.5 61.5q-141 58 -201 147.5t-35 213.5q24 113 124 174t258 61q111 0 190.5 -35.5t120.5 -102t38 -159.5h-230q1 63 -30.5 97.5
t-98.5 34.5q-48 0 -80.5 -19.5t-41.5 -62.5q-13 -56 26 -99.5t157 -92.5q142 -60 190 -150t26 -211q-21 -122 -116.5 -189.5t-277.5 -67.5zM289 -379q-67 0 -108.5 10.5t-74.5 26.5l57 110q28 -13 64.5 -22t73.5 -9t57 13t25 39q7 30 -13.5 50t-91.5 32l-38 6l153 173
l82 -50l-61 -73l-45 24q85 -3 127 -54.5t25 -132.5q-12 -55 -47.5 -86t-84 -44t-100.5 -13z" />
    <glyph glyph-name="Scaron" unicode="&#x160;" horiz-adv-x="1091" 
d="M496 -17q-140 0 -241 46t-154 141t-49 241h272q-3 -112 43.5 -165t149.5 -53q82 0 135 36.5t65 112.5q10 53 -6.5 97.5t-67 85.5t-145.5 83q-105 48 -178 112t-104.5 148t-12.5 191q18 100 80 168.5t160 103.5t223 34q123 -1 218 -42.5t149.5 -127.5t52.5 -219h-271
q3 92 -42.5 139t-124.5 47q-74 0 -124.5 -34.5t-59.5 -94.5q-7 -43 8.5 -80.5t65.5 -75.5t147 -81q115 -52 188 -114t102 -147t9 -206q-19 -121 -84.5 -197t-168.5 -112.5t-235 -36.5zM580 1456l-125 276h184l74 -163l143 163h197l-246 -276h-227z" />
    <glyph glyph-name="scaron" unicode="&#x161;" horiz-adv-x="938" 
d="M409 -18q-113 0 -199 33t-132 100.5t-41 172.5h231q-3 -78 37 -109.5t112 -31.5q55 0 90.5 25.5t45.5 75.5q8 38 -3 70.5t-48.5 63t-111.5 61.5q-141 58 -201 147.5t-35 213.5q24 113 124 174t258 61q111 0 190.5 -35.5t120.5 -102t38 -159.5h-230q1 63 -30.5 97.5
t-98.5 34.5q-48 0 -80.5 -19.5t-41.5 -62.5q-13 -56 26 -99.5t157 -92.5q142 -60 190 -150t26 -211q-21 -122 -116.5 -189.5t-277.5 -67.5zM470 1158l-125 275h179l81 -151l148 151h190l-246 -275h-227z" />
    <glyph glyph-name="Tcedilla" unicode="&#x162;" horiz-adv-x="921" 
d="M225 0l240 1128h-311l46 218h889l-47 -218h-312l-240 -1128h-265zM252 -379q-67 0 -108.5 10.5t-74.5 26.5l57 110q28 -13 64.5 -22t73.5 -9t57 13t25 39q7 30 -13.5 50t-91.5 32l-38 6l153 173l82 -50l-61 -73l-45 24q85 -3 127 -54.5t25 -132.5q-12 -55 -47.5 -86
t-84 -44t-100.5 -13z" />
    <glyph glyph-name="tcedilla" unicode="&#x163;" horiz-adv-x="633" 
d="M419 0q-139 0 -208.5 41.5t-84.5 121t9 192.5l102 482h-142l42 189h142l48 229h248l-49 -229h185l-40 -189h-186l-103 -492q-16 -74 -1 -113.5t77 -39.5h73l-39 -192h-73zM180 -377q-67 0 -108.5 10.5t-74.5 26.5l57 110q28 -13 64.5 -22t73.5 -9t57 13t25 39
q7 30 -13.5 50t-91.5 32l-38 6l153 173l82 -50l-61 -73l-45 24q85 -3 127 -54.5t25 -132.5q-12 -55 -47.5 -86t-84 -44t-100.5 -13z" />
    <glyph glyph-name="Tcaron" unicode="&#x164;" horiz-adv-x="921" 
d="M225 0l240 1128h-311l46 218h889l-47 -218h-312l-240 -1128h-265zM546 1456l-125 276h184l74 -163l143 163h197l-246 -276h-227z" />
    <glyph glyph-name="tcaron" unicode="&#x165;" horiz-adv-x="633" 
d="M419 0q-139 0 -208.5 41.5t-84.5 121t9 192.5l102 482h-142l42 189h142l48 229h248l-49 -229h185l-40 -189h-186l-103 -492q-16 -74 -1 -113.5t77 -39.5h73l-39 -192h-73zM613 1127l118 315h234l-196 -315h-156z" />
    <glyph glyph-name="Tbar" unicode="&#x166;" horiz-adv-x="921" 
d="M153 536l43 206h641l-43 -206h-641zM225 0l240 1128h-311l46 218h889l-47 -218h-312l-240 -1128h-265z" />
    <glyph glyph-name="tbar" unicode="&#x167;" horiz-adv-x="633" 
d="M33 494l27 136h545l-28 -136h-544zM419 0q-139 0 -208.5 41.5t-84.5 121t9 192.5l102 482h-142l42 189h142l48 229h248l-49 -229h185l-40 -189h-186l-103 -492q-16 -74 -1 -113.5t77 -39.5h73l-39 -192h-73z" />
    <glyph glyph-name="Utilde" unicode="&#x168;" horiz-adv-x="1264" 
d="M571 -18q-171 0 -279.5 69t-147 200.5t1.5 318.5l163 776h272l-165 -790q-25 -118 -13 -197.5t60 -119t130 -39.5q114 0 179.5 73.5t100.5 238.5l174 834h273l-181 -847q-36 -173 -104.5 -288t-181 -172t-282.5 -57zM535 1465q26 126 80 177.5t120 51.5q41 0 71.5 -11.5
t66.5 -29.5q35 -17 56.5 -25.5t37.5 -8.5q18 0 31.5 17t23.5 60h129q-26 -122 -72.5 -172t-117.5 -50q-36 0 -64.5 10.5t-68.5 29.5q-37 18 -58 26.5t-37 8.5q-22 0 -40 -19t-29 -65h-129z" />
    <glyph glyph-name="utilde" unicode="&#x169;" horiz-adv-x="1069" 
d="M309 -13q-89 0 -148 44.5t-79.5 130t5.5 209.5l140 655h249l-140 -657q-19 -89 4.5 -137t85.5 -48q41 0 78.5 17t71 43t63.5 53l156 729h249l-218 -1026h-241l27 145q-38 -41 -82 -77.5t-97.5 -58.5t-123.5 -22zM393 1168q26 126 80 177.5t120 51.5q42 0 72 -11.5
t67 -30.5q34 -17 56 -25.5t37 -8.5q18 0 31.5 17t23.5 61h129q-26 -122 -72.5 -172.5t-117.5 -50.5q-36 0 -64 10.5t-69 30.5q-36 18 -57.5 26t-37.5 8q-22 0 -39.5 -18.5t-29.5 -64.5h-129z" />
    <glyph glyph-name="Umacron" unicode="&#x16a;" horiz-adv-x="1264" 
d="M571 -18q-171 0 -279.5 69t-147 200.5t1.5 318.5l163 776h272l-165 -790q-25 -118 -13 -197.5t60 -119t130 -39.5q114 0 179.5 73.5t100.5 238.5l174 834h273l-181 -847q-36 -173 -104.5 -288t-181 -172t-282.5 -57zM577 1510l29 142h499l-29 -142h-499z" />
    <glyph glyph-name="umacron" unicode="&#x16b;" horiz-adv-x="1069" 
d="M309 -13q-89 0 -148 44.5t-79.5 130t5.5 209.5l140 655h249l-140 -657q-19 -89 4.5 -137t85.5 -48q41 0 78.5 17t71 43t63.5 53l156 729h249l-218 -1026h-241l27 145q-38 -41 -82 -77.5t-97.5 -58.5t-123.5 -22zM429 1213l28 141h499l-29 -141h-498z" />
    <glyph glyph-name="Ubreve" unicode="&#x16c;" horiz-adv-x="1264" 
d="M571 -18q-171 0 -279.5 69t-147 200.5t1.5 318.5l163 776h272l-165 -790q-25 -118 -13 -197.5t60 -119t130 -39.5q114 0 179.5 73.5t100.5 238.5l174 834h273l-181 -847q-36 -173 -104.5 -288t-181 -172t-282.5 -57zM834 1461q-126 0 -190.5 74t-51.5 197h123
q-5 -69 34 -102t94 -33q32 0 68.5 11.5t68.5 41t49 82.5h121q-31 -127 -107 -199t-209 -72z" />
    <glyph glyph-name="ubreve" unicode="&#x16d;" horiz-adv-x="1069" 
d="M309 -13q-89 0 -148 44.5t-79.5 130t5.5 209.5l140 655h249l-140 -657q-19 -89 4.5 -137t85.5 -48q41 0 78.5 17t71 43t63.5 53l156 729h249l-218 -1026h-241l27 145q-38 -41 -82 -77.5t-97.5 -58.5t-123.5 -22zM681 1158q-131 0 -192 73.5t-44 199.5h118
q-5 -52 14.5 -82t51.5 -42.5t66 -12.5q33 0 70.5 12.5t68.5 42.5t48 82h121q-35 -126 -112.5 -199.5t-209.5 -73.5z" />
    <glyph glyph-name="Uring" unicode="&#x16e;" horiz-adv-x="1264" 
d="M571 -18q-171 0 -279.5 69t-147 200.5t1.5 318.5l163 776h272l-165 -790q-25 -118 -13 -197.5t60 -119t130 -39.5q114 0 179.5 73.5t100.5 238.5l174 834h273l-181 -847q-36 -173 -104.5 -288t-181 -172t-282.5 -57zM828 1377q-86 0 -147 56t-61 141q0 91 59 150.5
t148 59.5q88 0 148 -57.5t60 -146.5q0 -88 -60 -145.5t-147 -57.5zM827 1480q43 0 71.5 29.5t28.5 70.5q0 43 -28.5 71.5t-70.5 28.5t-71 -28.5t-29 -71.5q0 -42 29 -71t70 -29z" />
    <glyph glyph-name="uring" unicode="&#x16f;" horiz-adv-x="1069" 
d="M309 -13q-89 0 -148 44.5t-79.5 130t5.5 209.5l140 655h249l-140 -657q-19 -89 4.5 -137t85.5 -48q41 0 78.5 17t71 43t63.5 53l156 729h249l-218 -1026h-241l27 145q-38 -41 -82 -77.5t-97.5 -58.5t-123.5 -22zM689 1125q-86 0 -147 56t-61 142q0 91 59 150.5t149 59.5
q88 0 148 -57.5t60 -146.5t-60 -146.5t-148 -57.5zM689 1229q41 0 70.5 29.5t29.5 70.5q0 43 -29 71.5t-71 28.5q-43 0 -71 -28.5t-28 -71.5q0 -41 28 -70.5t71 -29.5z" />
    <glyph glyph-name="Uhungarumlaut" unicode="&#x170;" horiz-adv-x="1264" 
d="M571 -18q-171 0 -279.5 69t-147 200.5t1.5 318.5l163 776h272l-165 -790q-25 -118 -13 -197.5t60 -119t130 -39.5q114 0 179.5 73.5t100.5 238.5l174 834h273l-181 -847q-36 -173 -104.5 -288t-181 -172t-282.5 -57zM839 1455l219 276h191l-269 -276h-141zM549 1455
l220 276h190l-268 -276h-142z" />
    <glyph glyph-name="uhungarumlaut" unicode="&#x171;" horiz-adv-x="1069" 
d="M309 -13q-89 0 -148 44.5t-79.5 130t5.5 209.5l140 655h249l-140 -657q-19 -89 4.5 -137t85.5 -48q41 0 78.5 17t71 43t63.5 53l156 729h249l-218 -1026h-241l27 145q-38 -41 -82 -77.5t-97.5 -58.5t-123.5 -22zM689 1158l219 275h191l-269 -275h-141zM399 1158l220 275
h190l-268 -275h-142z" />
    <glyph glyph-name="Uogonek" unicode="&#x172;" horiz-adv-x="1264" 
d="M571 -18q-171 0 -279.5 69t-147 200.5t1.5 318.5l163 776h272l-165 -790q-25 -118 -13 -197.5t60 -119t130 -39.5q114 0 179.5 73.5t100.5 238.5l174 834h273l-181 -847q-36 -173 -104.5 -288t-181 -172t-282.5 -57zM564 -372q-80 0 -126.5 50.5t-29.5 135.5
q15 74 82 135.5t167 85.5l83 -23q-71 -42 -108.5 -87t-44.5 -79q-6 -32 6 -49.5t40 -17.5q27 0 53.5 8t62.5 24l-30 -143q-32 -18 -67.5 -29t-87.5 -11z" />
    <glyph glyph-name="uogonek" unicode="&#x173;" horiz-adv-x="1069" 
d="M309 -13q-89 0 -148 44.5t-79.5 130t5.5 209.5l140 655h249l-140 -657q-19 -89 4.5 -137t85.5 -48q41 0 78.5 17t71 43t63.5 53l156 729h249l-218 -1026h-241l27 145q-38 -41 -82 -77.5t-97.5 -58.5t-123.5 -22zM579 -372q-80 0 -126.5 50.5t-29.5 135.5q15 74 82 135.5
t167 85.5l83 -23q-71 -42 -108.5 -87t-44.5 -79q-6 -32 6 -49.5t40 -17.5q27 0 53.5 8t62.5 24l-30 -143q-32 -18 -67.5 -29t-87.5 -11z" />
    <glyph glyph-name="Wcircumflex" unicode="&#x174;" horiz-adv-x="1713" 
d="M254 0l-65 1346h267l-3 -1034l447 1034h262l9 -1034l438 1034h278l-643 -1346h-272l-3 1032l-437 -1032h-278zM763 1455l247 276h226l127 -276h-183l-73 164l-144 -164h-200z" />
    <glyph glyph-name="wcircumflex" unicode="&#x175;" horiz-adv-x="1386" 
d="M168 0l-58 1014h239l6 -746l312 746h261l6 -746l311 746h244l-479 -1014h-253l-12 758l-322 -758h-255zM526 1145l246 275h227l126 -275h-175l-82 152l-155 -152h-187z" />
    <glyph glyph-name="Ycircumflex" unicode="&#x176;" horiz-adv-x="1071" 
d="M290 0l110 509l-223 837h281l123 -600l369 600h299l-580 -844l-107 -502h-272zM418 1455l247 276h226l127 -276h-183l-73 164l-144 -164h-200z" />
    <glyph glyph-name="ycircumflex" unicode="&#x177;" horiz-adv-x="904" 
d="M-78 -363l42 200h79q60 0 95.5 23.5t63.5 77.5l32 62l-116 1028h254l39 -787l353 787h257l-568 -1108q-40 -80 -77.5 -134.5t-80 -87.5t-101 -47t-140.5 -14h-132zM285 1158l246 275h227l126 -275h-175l-82 152l-155 -152h-187z" />
    <glyph glyph-name="Ydieresis" unicode="&#x178;" horiz-adv-x="1071" 
d="M290 0l110 509l-223 837h281l123 -600l369 600h299l-580 -844l-107 -502h-272zM900 1479q-42 0 -74 32.5t-32 77.5q0 46 32.5 79.5t75.5 33.5q44 0 76 -32.5t32 -79.5q0 -44 -32.5 -77.5t-77.5 -33.5zM559 1479q-44 0 -76 32.5t-32 77.5q0 46 32 79.5t77 33.5
q43 0 75 -32.5t32 -79.5q0 -44 -32 -77.5t-76 -33.5z" />
    <glyph glyph-name="Zacute" unicode="&#x179;" horiz-adv-x="983" 
d="M-68 0l42 206l752 922h-508l46 218h823l-42 -196l-760 -932h602l-45 -218h-910zM557 1456l216 275h273l-305 -275h-184z" />
    <glyph glyph-name="zacute" unicode="&#x17a;" horiz-adv-x="848" 
d="M-39 0l38 179l534 658h-358l41 189h652l-36 -172l-536 -663h424l-39 -191h-720zM430 1158l215 275h281l-311 -275h-185z" />
    <glyph glyph-name="Zdotaccent" unicode="&#x17b;" horiz-adv-x="983" 
d="M-68 0l42 206l752 922h-508l46 218h823l-42 -196l-760 -932h602l-45 -218h-910zM692 1445q-66 0 -103 35.5t-37 86.5t37.5 87t104.5 36q68 0 102.5 -35.5t34.5 -85.5q0 -53 -35.5 -88.5t-103.5 -35.5z" />
    <glyph glyph-name="zdotaccent" unicode="&#x17c;" horiz-adv-x="848" 
d="M-39 0l38 179l534 658h-358l41 189h652l-36 -172l-536 -663h424l-39 -191h-720zM586 1159q-66 0 -103 35.5t-37 87.5q0 50 37.5 86t104.5 36q68 0 102.5 -35.5t34.5 -85.5q0 -53 -35.5 -88.5t-103.5 -35.5z" />
    <glyph glyph-name="Zcaron" unicode="&#x17d;" horiz-adv-x="983" 
d="M-68 0l42 206l752 922h-508l46 218h823l-42 -196l-760 -932h602l-45 -218h-910zM562 1456l-125 276h184l74 -163l143 163h197l-246 -276h-227z" />
    <glyph glyph-name="zcaron" unicode="&#x17e;" horiz-adv-x="848" 
d="M-39 0l38 179l534 658h-358l41 189h652l-36 -172l-536 -663h424l-39 -191h-720zM446 1158l-125 275h179l81 -151l148 151h190l-246 -275h-227z" />
    <glyph glyph-name="longs" unicode="&#x17f;" horiz-adv-x="543" 
d="M46 0l181 837h-142l41 189h142l5 25q25 115 66 179t113 90t190 26h119l-39 -180h-77q-61 0 -89.5 -36t-46.5 -119l-214 -1011h-249z" />
    <glyph glyph-name="Bhook" unicode="&#x181;" horiz-adv-x="1404" 
d="M107 906l22 100q25 119 79.5 193.5t147.5 110.5t231 36l-39 -211q-98 0 -145.5 -34.5t-66.5 -112.5l-18 -82h-211zM291 0l286 1346l396 1q142 1 233.5 -49.5t128 -140t10.5 -206.5q-20 -95 -86 -156.5t-152 -83.5q63 -21 111 -71t69 -125t0 -173q-23 -108 -91 -184.5
t-178.5 -117t-261.5 -40.5h-465zM604 225h169q100 0 163 39t81 127q22 102 -25 152.5t-135 50.5h-176zM724 795h138q95 0 150.5 43.5t72.5 123.5q16 77 -21.5 123.5t-114.5 46.5h-154z" />
    <glyph glyph-name="Oopen" unicode="&#x186;" horiz-adv-x="1295" 
d="M568 -18q-149 0 -261 56.5t-170 161.5t-48 252h271q-3 -81 24.5 -137.5t78.5 -85.5t120 -29q112 0 188.5 61.5t123 166.5t68.5 239q23 137 7.5 245t-73 171t-163.5 63q-111 0 -192 -67.5t-113 -207.5h-271q35 166 114.5 275.5t201 163.5t281.5 54q177 0 296 -87.5
t166.5 -251.5t10.5 -392q-34 -207 -124 -352.5t-226.5 -222t-309.5 -76.5z" />
    <glyph glyph-name="Dafrican" unicode="&#x189;" horiz-adv-x="1286" 
d="M19 574l42 210h669l-45 -210h-666zM37 0l286 1346h396q146 0 256 -55t177.5 -156t86 -239.5t-17.5 -306.5q-66 -308 -248 -448.5t-473 -140.5h-463zM348 218h161q119 0 206.5 39t146 127t91.5 237q33 152 14 266t-88 177.5t-185 63.5h-152z" />
    <glyph glyph-name="Dhook" unicode="&#x18a;" horiz-adv-x="1538" 
d="M107 906l22 100q25 119 79.5 193.5t147 110.5t230.5 36l-39 -211q-98 0 -145 -34.5t-66 -112.5l-18 -82h-211zM289 0l286 1346h396q146 0 256 -55t177 -156t85.5 -239.5t-16.5 -306.5q-66 -308 -248.5 -448.5t-473.5 -140.5h-462zM600 218h161q119 0 206.5 39t146 127
t91.5 237q33 152 13.5 266t-88 177.5t-185.5 63.5h-151z" />
    <glyph glyph-name="Ereversed" unicode="&#x18e;" horiz-adv-x="1029" 
d="M-18 0l46 216h537l79 367h-486l45 210h486l71 336h-537l46 217h802l-288 -1346h-801z" />
    <glyph glyph-name="Schwa" unicode="&#x18f;" horiz-adv-x="1327" 
d="M626 -18q-179 0 -301 85t-173.5 250t-15.5 406h875q18 125 -1 221t-77 149.5t-160 53.5q-111 0 -192 -60.5t-123 -186.5h-277q42 149 122 252.5t201.5 157.5t285.5 54q137 0 241.5 -54t168.5 -155.5t81.5 -246.5t-21.5 -327q-39 -185 -120.5 -319.5t-209 -207
t-304.5 -72.5zM396 520q-10 -149 54 -235t191 -86q83 0 145 38.5t107 110.5t75 172h-572z" />
    <glyph glyph-name="Eopen" unicode="&#x190;" horiz-adv-x="1068" 
d="M464 -17q-147 0 -246 57.5t-139.5 159t-13.5 237.5q25 115 102.5 188t193.5 96q-77 34 -117 128.5t-14 216.5q31 146 149 222.5t290 76.5q127 0 218.5 -48.5t138.5 -138.5t40 -216h-256q9 84 -28 138t-128 54q-72 0 -116.5 -34t-59.5 -106q-18 -84 15 -145t117 -61h90
l-46 -207h-80q-92 0 -157.5 -39t-86.5 -141q-22 -105 24.5 -165.5t139.5 -60.5q101 0 157 59.5t75 161.5h257q-26 -145 -89.5 -241t-170 -144t-259.5 -48z" />
    <glyph glyph-name="Fhook" unicode="&#x191;" horiz-adv-x="1007" 
d="M-167 -358l48 223h33q53 0 80.5 35.5t42.5 103.5l284 1342h782l-45 -217h-518l-70 -337h463l-45 -209h-463l-129 -607q-35 -164 -129.5 -249t-279.5 -85h-54z" />
    <glyph glyph-name="florin" unicode="&#x192;" horiz-adv-x="598" 
d="M-192 -359l41 195h54q54 0 88 29.5t50 108.5l172 812h-140l41 190h139l8 37q19 93 46 157t69 102.5t109.5 56t170.5 17.5h105l-39 -180h-77q-64 0 -93 -37t-47 -119l-7 -34h185l-42 -190h-179l-176 -830q-22 -107 -65 -176.5t-118 -104t-195 -34.5h-100z" />
    <glyph glyph-name="Gammaafrican" unicode="&#x194;" horiz-adv-x="1046" 
d="M450 -20q-78 0 -132.5 23t-86 65t-40 98.5t5.5 124.5q8 38 28.5 83.5t56 100t86.5 118.5t121 139l68 73l21 19l356 522h294l-646 -809q-71 -90 -112.5 -157.5t-52.5 -119.5q-10 -45 4 -70t41 -25q24 0 43 21.5t28 67.5q12 58 0.5 134t-42.5 160l-310 798h284l150 -521
l16 -23l23 -62q47 -120 74.5 -210t35 -164.5t-7.5 -148.5q-24 -114 -98 -175.5t-208 -61.5z" />
    <glyph glyph-name="Khook" unicode="&#x198;" horiz-adv-x="1118" 
d="M34 0l287 1346h265l-141 -654l290 371q86 108 157 169.5t147.5 87.5t179.5 26h46l-48 -224h-22q-44 0 -83.5 -12.5t-83 -48.5t-102.5 -108l-218 -265l322 -688h-285l-303 679l-143 -679h-265z" />
    <glyph glyph-name="khook" unicode="&#x199;" horiz-adv-x="978" 
d="M25 0l219 1028q23 106 67.5 176.5t116 106t175.5 35.5h114l-42 -196h-53q-51 0 -84 -33.5t-49 -110.5l-97 -446l414 466h278l-444 -479l250 -547h-261l-239 546l-117 -546h-248z" />
    <glyph glyph-name="Ohorn" unicode="&#x1a0;" horiz-adv-x="1406" 
d="M1235 961l-9 107q78 21 134.5 59.5t83.5 101.5l11 -12q-61 2 -89 48.5t-16 109.5q11 54 48.5 83.5t88.5 29.5q74 0 110 -53t18 -145q-19 -99 -80.5 -166.5t-142 -107t-157.5 -55.5zM607 -19q-186 0 -305 94t-163 260t-3 383q37 203 125.5 348t226.5 222.5t323 77.5
q183 0 301 -93.5t161.5 -260.5t3.5 -388q-36 -199 -122.5 -343.5t-223.5 -222t-324 -77.5zM625 197q111 0 189 61t127.5 166t73.5 239q22 124 9 235t-69.5 181t-166.5 70q-107 0 -185 -58.5t-128 -163t-76 -243.5q-22 -125 -10 -236t69 -181t167 -70z" />
    <glyph glyph-name="ohorn" unicode="&#x1a1;" horiz-adv-x="1087" 
d="M878 686l-4 106q70 21 121 60t74 102l12 -12q-60 2 -89 48.5t-17 107.5q12 57 49.5 86t87.5 29q73 0 110 -52.5t19 -143.5q-19 -101 -78 -168.5t-135 -107t-150 -55.5zM460 -18q-139 0 -234.5 72t-130.5 205t2 314q49 229 181 349.5t323 120.5q136 0 228 -71.5t127 -203
t-4 -310.5q-48 -233 -174.5 -354.5t-317.5 -121.5zM478 168q93 0 145.5 88.5t82.5 229.5q22 97 17.5 182t-38.5 137.5t-103 52.5q-66 0 -113 -41t-77.5 -111.5t-49.5 -159.5q-21 -99 -15.5 -185t42.5 -139.5t109 -53.5z" />
    <glyph glyph-name="Uhorn" unicode="&#x1af;" horiz-adv-x="1470" 
d="M1225 940l4 116q97 19 169 62t106 111l11 -12q-60 3 -88.5 50t-16.5 107q12 56 49 85.5t88 29.5q74 0 110.5 -52.5t19.5 -140.5q-15 -81 -61 -140.5t-110 -102.5t-137 -70.5t-144 -42.5zM571 -18q-171 0 -279.5 69t-147 200.5t1.5 318.5l163 776h272l-165 -790
q-25 -118 -13 -197.5t60 -119t130 -39.5q114 0 179.5 73.5t100.5 238.5l174 834h273l-181 -847q-36 -173 -104.5 -288t-181 -172t-282.5 -57z" />
    <glyph glyph-name="uhorn" unicode="&#x1b0;" horiz-adv-x="1225" 
d="M959 669v111q86 20 145.5 63.5t89.5 110.5l11 -12q-59 2 -88.5 48t-16.5 109q11 54 48 84t89 30q74 0 110.5 -53t18.5 -139q-15 -79 -56 -139t-98 -103t-122.5 -70t-130.5 -40zM309 -13q-89 0 -148 44.5t-79.5 130t5.5 209.5l140 655h249l-140 -657q-19 -89 4.5 -137
t85.5 -48q41 0 78.5 17t71 43t63.5 53l156 729h249l-218 -1026h-241l27 145q-38 -41 -82 -77.5t-97.5 -58.5t-123.5 -22z" />
    <glyph glyph-name="Vhook" unicode="&#x1b2;" horiz-adv-x="1262" 
d="M580 -26q-172 0 -283.5 69t-152 201.5t-0.5 321.5l164 780h273l-169 -796q-23 -111 -11.5 -191.5t59.5 -123t131 -42.5q81 0 135.5 37t89.5 110t56 181l84 398q23 106 -2 154.5t-102 48.5h-55l47 224h69q201 0 277 -116t31 -332l-84 -404q-34 -164 -101 -280.5t-178 -178
t-278 -61.5z" />
    <glyph glyph-name="Yhook" unicode="&#x1b3;" horiz-adv-x="1065" 
d="M290 0l108 509l-221 837h276l128 -621l90 -216l-109 -509h-272zM671 509l-212 49l306 511q64 107 118 167.5t118.5 85t160.5 24.5h70l-47 -224h-33q-40 0 -73 -20.5t-67 -64.5t-77 -112z" />
    <glyph glyph-name="yhook" unicode="&#x1b4;" horiz-adv-x="1070" 
d="M-64 -358l43 200h78q51 0 80.5 24.5t54.5 72.5l32 61l-120 1001h254l51 -746l382 821q44 99 101.5 153t131 75.5t167.5 21.5h56l-41 -201h-30q-49 0 -84 -24.5t-70 -93.5l-572 -1121q-50 -98 -107.5 -150.5t-129.5 -73t-168 -20.5h-109z" />
    <glyph glyph-name="Ezh" unicode="&#x1b7;" horiz-adv-x="1064" 
d="M464 -17q-147 0 -245 53t-142.5 150.5t-32.5 229.5h257q-8 -104 34.5 -164.5t137.5 -60.5q91 0 141.5 44t69.5 137q28 127 -30 199.5t-176 72.5h-114l44 192l68 -16q196 0 309.5 -63t151.5 -175t6 -256q-23 -105 -79.5 -182t-154.5 -119t-245 -42zM569 727l-161 109
l347 291h-493l47 219h802l-46 -209z" />
    <glyph glyph-name="eturned" unicode="&#x1dd;" horiz-adv-x="1022" 
d="M440 -18q-138 0 -228 69t-121.5 200.5t5.5 318.5h601q11 85 0 153.5t-48 109.5t-104 41q-58 0 -101 -32t-62 -105h-244q43 156 150.5 231t271.5 75q139 0 232 -71t130 -199t8 -298q-25 -152 -90.5 -262.5t-166 -170.5t-233.5 -60zM450 147q81 0 137 66.5t80 198.5h-349
q-9 -82 4.5 -141.5t46 -91.5t81.5 -32z" />
    <glyph glyph-name="Gcaron" unicode="&#x1e6;" horiz-adv-x="1302" 
d="M617 -19q-180 0 -301 89.5t-169.5 251.5t-13.5 381q32 193 120 342.5t229.5 234.5t332.5 85q91 0 174.5 -27.5t148.5 -82.5t102 -137.5t34 -193.5h-269q0 64 -22.5 114.5t-71 79t-124.5 28.5q-109 0 -188 -62t-128.5 -167.5t-71.5 -236.5q-22 -132 -8 -241t73.5 -174.5
t169.5 -65.5q79 0 141 36t105.5 100.5t65.5 154.5h-251l33 207h530l-33 -167q-25 -124 -73 -225t-122.5 -173.5t-176.5 -111.5t-236 -39zM711 1456l-125 276h184l74 -163l143 163h197l-246 -276h-227z" />
    <glyph glyph-name="gcaron" unicode="&#x1e7;" horiz-adv-x="930" 
d="M313 -377q-158 0 -244.5 40.5t-117 103.5t-19.5 129q16 91 102 150.5t247 84.5l63 88h69q234 0 326.5 -83.5t65.5 -230.5q-24 -134 -150.5 -208t-341.5 -74zM330 -220q111 0 165 36t64 92q6 38 -7 66t-51 42.5t-105 14.5h-115q-48 -13 -80 -46t-39 -77q-7 -51 28 -89.5
t140 -38.5zM263 55q-91 12 -143.5 47t-70.5 78.5t-11 79.5q13 56 63.5 101t142.5 75l128 -47q-57 -16 -94.5 -41t-45.5 -58q-5 -21 8 -36.5t55 -24.5t121 -10zM454 363q-131 0 -211 48.5t-108.5 132t-9.5 186.5q16 81 66.5 151t137.5 113.5t209 43.5q188 0 271 -101.5
t52 -265.5q-14 -79 -62 -149.5t-133.5 -114.5t-211.5 -44zM465 513q63 0 108 47.5t59 131.5q20 104 -14 150.5t-97 46.5q-62 0 -106.5 -46.5t-60.5 -136.5q-12 -64 1.5 -107t43.5 -64.5t66 -21.5zM775 894l-52 97q51 101 130.5 139t183.5 38l-32 -182q-73 0 -132 -17
t-98 -75zM435 1158l-125 275h179l81 -151l148 151h190l-246 -275h-227z" />
    <glyph glyph-name="Oogonek" unicode="&#x1ea;" horiz-adv-x="1336" 
d="M607 -19q-186 0 -305 94t-163 260t-3 383q37 203 125.5 348t226.5 222.5t323 77.5q183 0 301 -93.5t161.5 -260.5t3.5 -388q-36 -199 -122.5 -343.5t-223.5 -222t-324 -77.5zM625 197q111 0 189 61t127.5 166t73.5 239q22 124 9 235t-69.5 181t-166.5 70
q-107 0 -185 -58.5t-128 -163t-76 -243.5q-22 -125 -10 -236t69 -181t167 -70zM596 -372q-80 0 -126.5 50.5t-29.5 135.5q15 74 82 135.5t167 85.5l83 -23q-71 -42 -108.5 -87t-44.5 -79q-6 -32 6 -49.5t40 -17.5q27 0 53.5 8t62.5 24l-30 -143q-32 -18 -67.5 -29t-87.5 -11
z" />
    <glyph glyph-name="oogonek" unicode="&#x1eb;" horiz-adv-x="1047" 
d="M460 -18q-139 0 -234.5 72t-130.5 205t2 314q49 229 181 349.5t323 120.5q136 0 228 -71.5t127 -203t-4 -310.5q-48 -233 -174.5 -354.5t-317.5 -121.5zM478 168q93 0 145.5 88.5t82.5 229.5q22 97 17.5 182t-38.5 137.5t-103 52.5q-66 0 -113 -41t-77.5 -111.5
t-49.5 -159.5q-21 -99 -15.5 -185t42.5 -139.5t109 -53.5zM443 -372q-80 0 -126.5 50.5t-29.5 135.5q15 74 82 135.5t167 85.5l83 -23q-71 -42 -108.5 -87t-44.5 -79q-6 -32 6 -49.5t40 -17.5q27 0 53.5 8t62.5 24l-30 -143q-32 -18 -67.5 -29t-87.5 -11z" />
    <glyph glyph-name="Ngrave" unicode="&#x1f8;" horiz-adv-x="1312" 
d="M37 0l286 1346h268l316 -956l200 956h247l-287 -1346h-268l-314 956l-203 -956h-245zM791 1456l-203 276h262l114 -276h-173z" />
    <glyph glyph-name="ngrave" unicode="&#x1f9;" horiz-adv-x="1069" 
d="M26 0l217 1026h238l-24 -142q58 61 128.5 108.5t173.5 47.5q89 0 148 -44t80 -129.5t-6 -210.5l-138 -656h-249l139 657q19 89 -3 137.5t-81 48.5q-65 0 -120 -35.5t-100 -78.5l-155 -729h-248zM624 1156l-214 275h257l124 -275h-167z" />
    <glyph glyph-name="Aringacute" unicode="&#x1fa;" horiz-adv-x="1125" 
d="M-105 0l708 1346h278l138 -1346h-269l-12 311h-416l-147 -311h-280zM435 537h285l-26 551zM741 1245q-86 0 -147 56t-61 141q0 91 59 150.5t148 59.5q88 0 148 -57.5t60 -146.5q0 -88 -60 -145.5t-147 -57.5zM740 1348q43 0 71.5 29.5t28.5 70.5q0 43 -28.5 71.5
t-70.5 28.5t-71 -28.5t-29 -71.5q0 -42 29 -71t70 -29zM665 1683l216 275h273l-305 -275h-184z" />
    <glyph glyph-name="aringacute" unicode="&#x1fb;" horiz-adv-x="1016" 
d="M286 -18q-86 0 -148.5 36.5t-89.5 109.5t-7 179q24 128 110 192t221.5 86.5t306.5 28.5l17 77q16 73 5 116t-41.5 62t-74.5 19q-57 0 -99.5 -26t-55.5 -90h-240q29 145 135.5 209t272.5 64q111 0 197.5 -39t125.5 -127t7 -236l-137 -643h-229l19 124q-57 -63 -127 -102.5
t-168 -39.5zM380 145q48 0 91 23t79 58t61 67l41 195q-184 -2 -267 -49t-100 -140q-13 -69 13.5 -111.5t81.5 -42.5zM656 1125q-86 0 -147 56t-61 142q0 91 59 150.5t149 59.5q88 0 148 -57.5t60 -146.5t-60 -146.5t-148 -57.5zM656 1229q41 0 70.5 29.5t29.5 70.5
q0 43 -29 71.5t-71 28.5q-43 0 -71 -28.5t-28 -71.5q0 -41 28 -70.5t71 -29.5zM571 1566l215 275h281l-311 -275h-185z" />
    <glyph glyph-name="AEacute" unicode="&#x1fc;" horiz-adv-x="1625" 
d="M-105 0l757 1346h337l-43 -202h-154l-374 -703v-17l-222 -424h-301zM286 311l-4 218h633v-218h-629zM622 0l286 1346h801l-44 -217h-538l-72 -336h486l-45 -210h-485l-78 -367h537l-46 -216h-802zM1009 1456l216 275h273l-305 -275h-184z" />
    <glyph glyph-name="aeacute" unicode="&#x1fd;" horiz-adv-x="1574" 
d="M299 -18q-98 0 -162.5 45t-89 122t-3.5 175q20 89 74.5 146.5t140 89.5t200 44.5t252.5 12.5h606l-61 -8q15 95 2.5 154.5t-46.5 88t-87 28.5q-83 0 -135.5 -70.5t-82.5 -214.5l-6 -26h-239l23 127q14 71 1.5 111.5t-42.5 57t-68 16.5q-59 0 -97.5 -26.5t-48.5 -80.5
h-235q25 130 123.5 196.5t272.5 66.5q92 0 158.5 -24t101.5 -73t33 -123h-96q54 99 140 159.5t226 60.5q118 0 202.5 -57t121 -175.5t7.5 -301.5l-6 -31l-787 2l2 9q-137 2 -221.5 -15t-128 -56t-57.5 -106q-14 -72 13 -112.5t86 -40.5q74 0 140.5 50.5t123.5 149.5l61 -89
q-42 -86 -102 -149.5t-137.5 -98t-172.5 -34.5zM1007 -18q-128 0 -218.5 64.5t-129.5 184t-12 284.5l238 -24q-16 -94 -9 -173t43 -126t105 -47q65 0 105 29.5t56 85.5h245q-41 -140 -149 -209t-274 -69zM780 1133l215 275h281l-311 -275h-185z" />
    <glyph glyph-name="Oslashacute" unicode="&#x1fe;" horiz-adv-x="1336" 
d="M98 -73l-102 103l268 274l16 11l762 817l17 13l267 275l99 -104l-268 -277l-17 -14l-763 -816l-14 -11zM607 -18q-184 0 -303 93.5t-163.5 259.5t-4.5 383q36 201 124 346t226.5 223t324.5 78q184 0 301.5 -94.5t160.5 -262t4 -382.5q-36 -202 -123 -346t-224 -221
t-323 -77zM625 198q108 0 186 58.5t128.5 163t75.5 244.5q23 131 9 241t-71 176t-165 66q-109 0 -187 -60t-127 -164t-74 -237q-23 -127 -10.5 -238.5t69.5 -180.5t166 -69zM724 1456l216 275h273l-305 -275h-184z" />
    <glyph glyph-name="oslashacute" unicode="&#x1ff;" horiz-adv-x="1040" 
d="M56 -86l-84 86l1023 1102l86 -84zM457 -15q-141 0 -236.5 71t-130.5 201t2 307q49 232 181 352.5t323 120.5q140 0 232 -71t125 -203t-6 -315q-48 -225 -175.5 -344t-314.5 -119zM474 170q68 0 113.5 39.5t75.5 109t51 162.5q20 96 18 181.5t-37.5 139t-116.5 53.5
q-71 0 -120 -41.5t-81 -114.5t-54 -170q-19 -92 -12.5 -174.5t45.5 -133.5t118 -51zM524 1108l215 275h281l-311 -275h-185z" />
    <glyph glyph-name="Scommaaccent" unicode="&#x218;" horiz-adv-x="1091" 
d="M496 -17q-140 0 -241 46t-154 141t-49 241h272q-3 -112 43.5 -165t149.5 -53q82 0 135 36.5t65 112.5q10 53 -6.5 97.5t-67 85.5t-145.5 83q-105 48 -178 112t-104.5 148t-12.5 191q18 100 80 168.5t160 103.5t223 34q123 -1 218 -42.5t149.5 -127.5t52.5 -219h-271
q3 92 -42.5 139t-124.5 47q-74 0 -124.5 -34.5t-59.5 -94.5q-7 -43 8.5 -80.5t65.5 -75.5t147 -81q115 -52 188 -114t102 -147t9 -206q-19 -121 -84.5 -197t-168.5 -112.5t-235 -36.5zM311 -413l-4 74q48 10 82.5 33t49.5 50q-57 2 -76.5 34.5t-10.5 73.5q8 37 36.5 60
t83.5 23q54 0 82.5 -35t15.5 -102q-19 -89 -91.5 -143.5t-167.5 -67.5z" />
    <glyph glyph-name="scommaaccent" unicode="&#x219;" horiz-adv-x="938" 
d="M409 -18q-113 0 -199 33t-132 100.5t-41 172.5h231q-3 -78 37 -109.5t112 -31.5q55 0 90.5 25.5t45.5 75.5q8 38 -3 70.5t-48.5 63t-111.5 61.5q-141 58 -201 147.5t-35 213.5q24 113 124 174t258 61q111 0 190.5 -35.5t120.5 -102t38 -159.5h-230q1 63 -30.5 97.5
t-98.5 34.5q-48 0 -80.5 -19.5t-41.5 -62.5q-13 -56 26 -99.5t157 -92.5q142 -60 190 -150t26 -211q-21 -122 -116.5 -189.5t-277.5 -67.5zM210 -413l-4 74q48 10 82.5 33t49.5 50q-57 2 -76.5 34.5t-10.5 73.5q8 37 36.5 60t83.5 23q54 0 82.5 -35t15.5 -102
q-19 -89 -91.5 -143.5t-167.5 -67.5z" />
    <glyph glyph-name="Tcommaaccent" unicode="&#x21a;" horiz-adv-x="921" 
d="M225 0l240 1128h-311l46 218h889l-47 -218h-312l-240 -1128h-265zM184 -413l-4 74q48 10 82.5 33t49.5 50q-57 2 -76.5 34.5t-10.5 73.5q8 37 36.5 60t83.5 23q54 0 82.5 -35t15.5 -102q-19 -89 -91.5 -143.5t-167.5 -67.5z" />
    <glyph glyph-name="tcommaaccent" unicode="&#x21b;" horiz-adv-x="633" 
d="M419 0q-139 0 -208.5 41.5t-84.5 121t9 192.5l102 482h-142l42 189h142l48 229h248l-49 -229h185l-40 -189h-186l-103 -492q-16 -74 -1 -113.5t77 -39.5h73l-39 -192h-73zM100 -411l-4 74q48 10 82.5 33t49.5 50q-57 2 -76.5 34.5t-10.5 73.5q8 37 36.5 60t83.5 23
q54 0 82.5 -35t15.5 -102q-19 -89 -91.5 -143.5t-167.5 -67.5z" />
    <glyph glyph-name="Ymacron" unicode="&#x232;" horiz-adv-x="1071" 
d="M290 0l110 509l-223 837h281l123 -600l369 600h299l-580 -844l-107 -502h-272zM470 1510l29 142h499l-29 -142h-499z" />
    <glyph glyph-name="ymacron" unicode="&#x233;" horiz-adv-x="904" 
d="M-78 -363l42 200h79q60 0 95.5 23.5t63.5 77.5l32 62l-116 1028h254l39 -787l353 787h257l-568 -1108q-40 -80 -77.5 -134.5t-80 -87.5t-101 -47t-140.5 -14h-132zM350 1213l28 141h499l-29 -141h-498z" />
    <glyph glyph-name="jdotless" unicode="&#x237;" horiz-adv-x="514" 
d="M-215 -359l40 195h53q56 0 90 32t49 102l219 1032h248l-223 -1046q-32 -148 -118 -231.5t-259 -83.5h-99z" />
    <glyph glyph-name="bhook" unicode="&#x253;" horiz-adv-x="1063" 
d="M554 -18q-89 0 -154.5 42t-104.5 112l-38 -136h-239l221 1037q24 117 69.5 184t118 96t177.5 29h114l-42 -196h-52q-57 0 -91 -30t-49 -104l-36 -165q49 65 116 107t161 42q104 0 173 -65t92 -190t-16 -308q-49 -230 -160.5 -342.5t-259.5 -112.5zM515 171q77 0 129 75
t85 227q36 171 7.5 255t-106.5 84q-48 0 -90 -22t-75.5 -53.5t-56.5 -60.5l-75 -368q26 -50 72 -93.5t110 -43.5z" />
    <glyph glyph-name="oopen" unicode="&#x254;" horiz-adv-x="1016" 
d="M432 -18q-119 0 -206 44.5t-129.5 126.5t-27.5 192h242q-6 -48 7 -90t47 -67.5t88 -25.5q92 0 146 83.5t79 224.5q30 181 -7.5 274.5t-129.5 93.5q-72 0 -119.5 -45t-64.5 -133h-243q38 186 152.5 272t295.5 86q125 0 216 -64.5t131.5 -187.5t10.5 -304
q-41 -246 -170.5 -363t-317.5 -117z" />
    <glyph glyph-name="dtail" unicode="&#x256;" horiz-adv-x="1085" 
d="M340 -18q-99 0 -168.5 67.5t-92 196.5t14.5 313q49 237 162 359.5t263 122.5q90 0 155.5 -44t105.5 -118l98 467h248l-287 -1347l-244 1l23 130q-50 -67 -117 -107.5t-161 -40.5zM435 169q50 0 92 24.5t76 58.5t56 64l81 393q-14 35 -40.5 67t-62 52.5t-77.5 20.5
q-79 0 -135.5 -85t-93.5 -255q-22 -107 -15.5 -183t38 -116.5t81.5 -40.5zM840 -324q-95 0 -156.5 40.5t-84.5 113.5t-4 170l244 -1q-14 -66 7 -97t69 -31h52l-40 -195h-87z" />
    <glyph glyph-name="dhook" unicode="&#x257;" horiz-adv-x="1105" 
d="M340 -18q-102 0 -171.5 65t-91.5 191.5t15 309.5q32 154 95.5 258t148.5 156.5t182 52.5q90 0 153.5 -40.5t103.5 -114.5l41 197q23 109 65.5 172t112.5 90t174 27h114l-41 -196h-53q-56 0 -88 -33.5t-46 -102.5l-215 -1015l-237 1l16 129q-50 -65 -117 -106t-161 -41z
M435 169q73 0 126.5 43t92.5 102l81 379q-22 51 -68 91.5t-108 40.5q-76 0 -132 -73t-92 -242q-35 -168 -7 -254.5t107 -86.5z" />
    <glyph glyph-name="schwa" unicode="&#x259;" horiz-adv-x="1022" 
d="M440 -18q-138 0 -228 69t-121.5 200.5t5.5 318.5h601q11 85 0 153.5t-48 109.5t-104 41q-58 0 -101 -32t-62 -105h-244q43 156 150.5 231t271.5 75q139 0 232 -71t130 -199t8 -298q-25 -152 -90.5 -262.5t-166 -170.5t-233.5 -60zM450 147q81 0 137 66.5t80 198.5h-349
q-9 -82 4.5 -141.5t46 -91.5t81.5 -32z" />
    <glyph glyph-name="eopen" unicode="&#x25b;" horiz-adv-x="976" 
d="M416 -16q-139 0 -232.5 44t-133 121t-17.5 174q21 93 88 140.5t161 65.5q-73 27 -114 100.5t-21 168.5q14 60 56 115t127.5 90.5t228.5 35.5q132 0 212.5 -40t118 -105t38.5 -140h-231q-3 48 -43 77t-110 29q-84 0 -122 -34t-48 -78q-8 -39 5 -68.5t46 -45t81 -15.5h103
l-37 -173h-84q-89 0 -137 -35.5t-61 -94.5q-12 -52 4.5 -86t54 -51t90.5 -17q87 0 138.5 28.5t67.5 80.5h232q-35 -149 -141 -218t-320 -69z" />
    <glyph glyph-name="gamma-latin" unicode="&#x263;" horiz-adv-x="962" 
d="M326 264l-212 762h247l117 -541l333 541h265l-525 -762h-225zM349 -187q24 0 40 21.5t24 63.5q8 40 11.5 103.5t-13.5 130.5q-38 -54 -63 -114.5t-33 -104.5q-9 -43 -2 -71.5t36 -28.5zM331 -358q-84 0 -142 39.5t-81 109.5t-5 160q20 100 120 242.5t260 287.5
q64 -103 102 -214.5t49.5 -213.5t-5.5 -176q-22 -109 -98.5 -172t-199.5 -63z" />
    <glyph glyph-name="esh" unicode="&#x283;" horiz-adv-x="549" 
d="M-183 -335l41 191h55q62 0 89 34.5t43 109.5l214 1010q24 116 69.5 189.5t128.5 109t218 35.5h62l-41 -191h-56q-65 0 -91 -38.5t-43 -118.5l-211 -996q-24 -116 -70 -190t-128.5 -109.5t-217.5 -35.5h-62z" />
    <glyph glyph-name="vhook" unicode="&#x28b;" horiz-adv-x="1080" 
d="M476 -11q-106 0 -186.5 30.5t-129.5 91.5t-64 150t10 207l119 558h247l-120 -576q-17 -84 -9 -141.5t43.5 -88t99.5 -30.5t105 29.5t66 86t41 136.5l51 251q16 78 7 115.5t-75 37.5h-34l41 191h28q138 0 207 -41.5t84 -122t-10 -198.5l-56 -267q-45 -216 -159.5 -317.5
t-305.5 -101.5z" />
    <glyph glyph-name="ezh" unicode="&#x292;" horiz-adv-x="935" 
d="M326 -379q-146 0 -237 52t-129 144.5t-27 214.5h232q-6 -104 36.5 -163.5t137.5 -59.5q86 0 136.5 47.5t69.5 151.5q24 138 -36.5 214.5t-186.5 76.5h-114l36 168l358 370h-414l40 189h694l-37 -172l-393 -397q95 -12 172 -69.5t113 -159.5t8 -249q-34 -175 -149 -266.5
t-310 -91.5z" />
    <glyph glyph-name="circumflex" unicode="&#x2c6;" horiz-adv-x="994" 
d="M185 1107l246 275h227l126 -275h-175l-82 152l-155 -152h-187z" />
    <glyph glyph-name="caron" unicode="&#x2c7;" horiz-adv-x="994" 
d="M372 1107l-125 275h179l81 -151l148 151h190l-246 -275h-227z" />
    <glyph glyph-name="breve" unicode="&#x2d8;" horiz-adv-x="994" 
d="M503 1107q-131 0 -192 73.5t-44 199.5h118q-5 -52 14.5 -82t51.5 -42.5t66 -12.5q33 0 70.5 12.5t68.5 42.5t48 82h121q-35 -126 -112.5 -199.5t-209.5 -73.5z" />
    <glyph glyph-name="dotaccent" unicode="&#x2d9;" horiz-adv-x="994" 
d="M520 1108q-66 0 -103 35.5t-37 87.5q0 50 37.5 86t104.5 36q68 0 102.5 -35.5t34.5 -85.5q0 -53 -35.5 -88.5t-103.5 -35.5z" />
    <glyph glyph-name="ring" unicode="&#x2da;" horiz-adv-x="994" 
d="M478 1074q-86 0 -147 56t-61 142q0 91 59 150.5t149 59.5q88 0 148 -57.5t60 -146.5t-60 -146.5t-148 -57.5zM478 1178q41 0 70.5 29.5t29.5 70.5q0 43 -29 71.5t-71 28.5q-43 0 -71 -28.5t-28 -71.5q0 -41 28 -70.5t71 -29.5z" />
    <glyph glyph-name="ogonek" unicode="&#x2db;" horiz-adv-x="994" 
d="M449 -377q-80 0 -126.5 50.5t-29.5 135.5q15 74 82 135.5t167 85.5l83 -23q-71 -42 -108.5 -87t-44.5 -79q-6 -32 6 -49.5t40 -17.5q27 0 53.5 8t62.5 24l-30 -143q-32 -18 -67.5 -29t-87.5 -11z" />
    <glyph glyph-name="tilde" unicode="&#x2dc;" horiz-adv-x="994" 
d="M217 1117q26 126 80 177.5t120 51.5q42 0 72 -11.5t67 -30.5q34 -17 56 -25.5t37 -8.5q18 0 31.5 17t23.5 61h129q-26 -122 -72.5 -172.5t-117.5 -50.5q-36 0 -64 10.5t-69 30.5q-36 18 -57.5 26t-37.5 8q-22 0 -39.5 -18.5t-29.5 -64.5h-129z" />
    <glyph glyph-name="hungarumlaut" unicode="&#x2dd;" horiz-adv-x="994" 
d="M511 1107l219 275h191l-269 -275h-141zM221 1107l220 275h190l-268 -275h-142z" />
    <glyph glyph-name="gravecomb" unicode="&#x300;" 
d="M448 1107l-214 275h257l124 -275h-167z" />
    <glyph glyph-name="acutecomb" unicode="&#x301;" 
d="M357 1107l215 275h281l-311 -275h-185z" />
    <glyph glyph-name="circumflexcomb" unicode="&#x302;" 
d="M185 1107l246 275h227l126 -275h-175l-82 152l-155 -152h-187z" />
    <glyph glyph-name="tildecomb" unicode="&#x303;" 
d="M217 1117q26 126 80 177.5t120 51.5q42 0 72 -11.5t67 -30.5q34 -17 56 -25.5t37 -8.5q18 0 31.5 17t23.5 61h129q-26 -122 -72.5 -172.5t-117.5 -50.5q-36 0 -64 10.5t-69 30.5q-36 18 -57.5 26t-37.5 8q-22 0 -39.5 -18.5t-29.5 -64.5h-129z" />
    <glyph glyph-name="macroncomb" unicode="&#x304;" 
d="M254 1162l28 141h499l-29 -141h-498z" />
    <glyph glyph-name="brevecomb" unicode="&#x306;" 
d="M503 1107q-131 0 -192 73.5t-44 199.5h118q-5 -52 14.5 -82t51.5 -42.5t66 -12.5q33 0 70.5 12.5t68.5 42.5t48 82h121q-35 -126 -112.5 -199.5t-209.5 -73.5z" />
    <glyph glyph-name="dotaccentcomb" unicode="&#x307;" 
d="M520 1108q-66 0 -103 35.5t-37 87.5q0 50 37.5 86t104.5 36q68 0 102.5 -35.5t34.5 -85.5q0 -53 -35.5 -88.5t-103.5 -35.5z" />
    <glyph glyph-name="dieresiscomb" unicode="&#x308;" 
d="M681 1129q-43 0 -74 32t-31 78q0 47 32 79t75 32q45 0 76.5 -31.5t31.5 -77.5t-32 -79t-78 -33zM341 1129q-44 0 -76.5 32t-32.5 78q0 47 32.5 79t77.5 32q42 0 74 -31.5t32 -77.5q0 -47 -32.5 -79.5t-74.5 -32.5z" />
    <glyph glyph-name="hookabovecomb" unicode="&#x309;" 
d="M445 1119l-36 78q34 10 65 32.5t38 53.5q8 34 -12 46.5t-64 12.5h-21l23 116h41q129 0 183.5 -45.5t38.5 -121.5q-10 -48 -44 -82.5t-87.5 -56.5t-124.5 -33zM409 1197l130 -30l-21 -94h-136z" />
    <glyph glyph-name="ringcomb" unicode="&#x30a;" 
d="M478 1074q-86 0 -147 56t-61 142q0 91 59 150.5t149 59.5q88 0 148 -57.5t60 -146.5t-60 -146.5t-148 -57.5zM478 1178q41 0 70.5 29.5t29.5 70.5q0 43 -29 71.5t-71 28.5q-43 0 -71 -28.5t-28 -71.5q0 -41 28 -70.5t71 -29.5z" />
    <glyph glyph-name="hungarumlautcomb" unicode="&#x30b;" 
d="M511 1107l219 275h191l-269 -275h-141zM221 1107l220 275h190l-268 -275h-142z" />
    <glyph glyph-name="caroncomb" unicode="&#x30c;" 
d="M372 1107l-125 275h179l81 -151l148 151h190l-246 -275h-227z" />
    <glyph glyph-name="commaturnedabovecomb" unicode="&#x312;" 
d="M48 1109q-59 0 -90.5 44.5t-16.5 116.5q13 57 53.5 103.5t98.5 77t123 38.5l3 -83q-44 -15 -78.5 -36.5t-56.5 -56.5q57 -7 78 -39t11 -76q-8 -39 -41 -64t-84 -25z" />
    <glyph glyph-name="horncomb" unicode="&#x31b;" 
d="M-84 686l-5 106q57 21 98.5 60.5t60.5 101.5l11 -12q-62 2 -89 50t-15 106q11 56 48 85.5t88 29.5q73 0 110 -53t19 -144q-19 -101 -72.5 -168.5t-121.5 -106.5t-132 -55z" />
    <glyph glyph-name="dotbelowcomb" unicode="&#x323;" 
d="M-21 -340q-66 0 -103 35.5t-37 87.5q0 50 37.5 86t104.5 36q68 0 102.5 -35.5t34.5 -85.5q0 -53 -35 -88.5t-104 -35.5z" />
    <glyph glyph-name="commaaccentcomb" unicode="&#x326;" 
d="M333 -413l-4 74q48 10 82.5 33t49.5 50q-57 2 -76.5 34.5t-10.5 73.5q8 37 36.5 60t83.5 23q54 0 82.5 -35t15.5 -102q-19 -89 -91.5 -143.5t-167.5 -67.5z" />
    <glyph glyph-name="cedillacomb" unicode="&#x327;" 
d="M434 -379q-67 0 -108.5 10.5t-74.5 26.5l57 110q28 -13 64.5 -22t73.5 -9t57 13t25 39q7 30 -13.5 50t-91.5 32l-38 6l153 173l82 -50l-61 -73l-45 24q85 -3 127 -54.5t25 -132.5q-12 -55 -47.5 -86t-84 -44t-100.5 -13z" />
    <glyph glyph-name="ogonekcomb" unicode="&#x328;" 
d="M449 -377q-80 0 -126.5 50.5t-29.5 135.5q15 74 82 135.5t167 85.5l83 -23q-71 -42 -108.5 -87t-44.5 -79q-6 -32 6 -49.5t40 -17.5q27 0 53.5 8t62.5 24l-30 -143q-32 -18 -67.5 -29t-87.5 -11z" />
    <glyph glyph-name="strokeshortcomb" unicode="&#x335;" 
d="M-13 372l28 136h547l-27 -136h-548z" />
    <glyph glyph-name="strokelongcomb" unicode="&#x336;" 
d="M20 574l44 210h666l-44 -210h-666z" />
    <glyph glyph-name="ypogegrammenicomb" unicode="&#x345;" 
d="M4 -358q-94 0 -110 50t1 130l26 123h148l-20 -94q-8 -40 -3.5 -62t40.5 -22h19l-28 -125h-73z" />
    <glyph glyph-name="Heta" unicode="&#x370;" horiz-adv-x="788" 
d="M37 0l287 1346h264l-114 -534h351l-49 -230h-351l-124 -582h-264z" />
    <glyph glyph-name="heta" unicode="&#x371;" horiz-adv-x="702" 
d="M25 0l219 1026h249l-218 -1026h-250zM267 433l39 190h388l-40 -190h-387z" />
    <glyph glyph-name="Archaicsampi" unicode="&#x372;" horiz-adv-x="1180" 
d="M353 0l240 1128h-159l-50 -232h-246l94 450h1081l-96 -450h-246l49 232h-162l-240 -1128h-265z" />
    <glyph glyph-name="archaicsampi" unicode="&#x373;" horiz-adv-x="967" 
d="M577 1q-137 0 -204 36t-80.5 109.5t10.5 188.5l108 502h-127l-43 -207h-193l85 396h913l-84 -396h-193l43 207h-152l-104 -487q-19 -84 -6 -121t76 -37h97l-41 -191h-105z" />
    <glyph glyph-name="numeral-greek" unicode="&#x374;" horiz-adv-x="487" 
d="M127 1107l215 275h281l-311 -275h-185z" />
    <glyph glyph-name="lowernumeral-greek" unicode="&#x375;" horiz-adv-x="487" 
d="M-140 -138l215 275h281l-311 -275h-185z" />
    <glyph glyph-name="Pamphyliandigamma" unicode="&#x376;" horiz-adv-x="1312" 
d="M1067 0h-245l198 930l-713 -930h-270l287 1346h246l-199 -928l713 928h270z" />
    <glyph glyph-name="pamphyliandigamma" unicode="&#x377;" horiz-adv-x="1122" 
d="M25 0l219 1026h227l-146 -687l534 687h239l-220 -1026h-227l143 673l-531 -673h-238z" />
    <glyph glyph-name="ypogegrammeni" unicode="&#x37a;" horiz-adv-x="1081" 
d="M246 -358q-94 0 -110 50t1 130l26 123h148l-20 -94q-8 -40 -3.5 -62t40.5 -22h19l-28 -125h-73z" />
    <glyph glyph-name="sigmaLunateReversedSymbol" unicode="&#x37b;" horiz-adv-x="1012" 
d="M432 -18q-118 0 -201.5 44.5t-125.5 127.5t-34 196h242q-3 -44 7 -88t40 -72.5t86 -28.5q100 0 155 92t75 225q29 193 -7 286.5t-125 93.5q-75 0 -122 -47t-64 -118h-237q35 164 145.5 254t289.5 90q120 0 212 -62.5t135.5 -189t15.5 -316.5q-37 -237 -168 -362
t-319 -125z" />
    <glyph glyph-name="sigmaLunateDottedSymbol" unicode="&#x37c;" horiz-adv-x="1010" 
d="M457 -18q-123 0 -217 61.5t-137 185.5t-12 312q42 251 171.5 377t322.5 126q118 0 197 -41t120.5 -115t44.5 -174h-243q-3 64 -35.5 106.5t-96.5 42.5q-100 0 -156 -94t-81 -242q-31 -183 6.5 -274t133.5 -91q69 0 113.5 45.5t59.5 130.5h241q-35 -183 -145 -269.5
t-287 -86.5zM552 422q-61 0 -92 31.5t-31 77.5q0 48 31.5 79.5t92.5 31.5q59 0 90 -31.5t31 -78.5t-31 -78.5t-91 -31.5z" />
    <glyph glyph-name="sigmaLunateDottedReversedSymbol" unicode="&#x37d;" horiz-adv-x="1011" 
d="M460 424q-60 0 -91.5 31t-31.5 78q0 48 32 79.5t92 31.5t90 -31.5t30 -78.5t-30.5 -78.5t-90.5 -31.5zM431 -18q-118 0 -202.5 44.5t-126.5 127t-33 196.5h241q-2 -46 8 -89.5t40 -71.5t87 -28q100 0 155 92t75 225q30 193 -7.5 286.5t-125.5 93.5q-74 0 -120.5 -46.5
t-63.5 -116.5h-236q35 162 145 252t288 90q120 0 212 -62.5t135.5 -189t15.5 -316.5q-37 -237 -168 -362t-319 -125z" />
    <glyph glyph-name="questiongreek" unicode="&#x37e;" horiz-adv-x="546" 
d="M-24 -303l-6 124q71 24 118.5 68t70.5 111l10 -13q-72 2 -104 54.5t-18 124.5q14 59 54 95.5t104 36.5q82 0 124 -64t16 -185q-23 -109 -83.5 -181t-137 -112.5t-148.5 -58.5zM352 731q-71 0 -114 44.5t-43 108.5q0 72 44.5 114.5t115.5 42.5q69 0 112 -42.5t43 -112.5
q0 -64 -44 -109.5t-114 -45.5z" />
    <glyph glyph-name="Yot" unicode="&#x37f;" horiz-adv-x="675" 
d="M-76 -16l48 223h82q90 0 145 56.5t82 182.5l191 900h258l-196 -925q-32 -150 -90 -246.5t-153 -143.5t-239 -47h-128z" />
    <glyph glyph-name="tonos" unicode="&#x384;" horiz-adv-x="995" 
d="M365 1110l130 334h238l-218 -334h-150z" />
    <glyph glyph-name="dieresistonos" unicode="&#x385;" horiz-adv-x="995" 
d="M389 1093l132 348h194l-191 -348h-135zM282 1118q-44 0 -72.5 29t-28.5 73q0 45 29.5 75.5t74.5 30.5q43 0 71.5 -29.5t28.5 -73.5q0 -45 -29.5 -75t-73.5 -30zM753 1118q-44 0 -72.5 29t-28.5 73q0 46 29.5 76t72.5 30q44 0 72.5 -29.5t28.5 -73.5q0 -45 -29.5 -75
t-72.5 -30z" />
    <glyph glyph-name="Alphatonos" unicode="&#x386;" horiz-adv-x="1125" 
d="M-105 0l708 1346h278l138 -1346h-269l-12 311h-416l-147 -311h-280zM435 537h285l-26 551zM69 1011l130 334h237l-217 -334h-150z" />
    <glyph glyph-name="anoteleia" unicode="&#x387;" horiz-adv-x="546" 
d="M279 388q-71 0 -114 45.5t-43 109.5q0 70 43.5 113t114.5 43q70 0 113 -42.5t43 -112.5q0 -65 -43.5 -110.5t-113.5 -45.5z" />
    <glyph glyph-name="Epsilontonos" unicode="&#x388;" horiz-adv-x="1041" 
d="M37 0l286 1346h802l-45 -217h-538l-71 -336h486l-46 -210h-485l-78 -367h538l-46 -216h-803zM-99 1012l130 334h237l-217 -334h-150z" />
    <glyph glyph-name="Etatonos" unicode="&#x389;" horiz-adv-x="1327" 
d="M37 0l286 1346h265l-114 -534h516l114 534h265l-286 -1346h-265l123 582h-515l-123 -582h-266zM-99 1011l130 334h237l-217 -334h-150z" />
    <glyph glyph-name="Iotatonos" unicode="&#x38a;" horiz-adv-x="548" 
d="M37 0l286 1346h265l-285 -1346h-266zM-99 1011l130 334h237l-217 -334h-150z" />
    <glyph glyph-name="Omicrontonos" unicode="&#x38c;" horiz-adv-x="1336" 
d="M607 -19q-186 0 -305 94t-163 260t-3 383q37 203 125.5 348t226.5 222.5t323 77.5q183 0 301 -93.5t161.5 -260.5t3.5 -388q-36 -199 -122.5 -343.5t-223.5 -222t-324 -77.5zM625 197q111 0 189 61t127.5 166t73.5 239q22 124 9 235t-69.5 181t-166.5 70
q-107 0 -185 -58.5t-128 -163t-76 -243.5q-22 -125 -10 -236t69 -181t167 -70zM-41 1011l130 334h237l-217 -334h-150z" />
    <glyph glyph-name="Upsilontonos" unicode="&#x38e;" horiz-adv-x="1071" 
d="M290 0l110 509l-223 837h281l123 -600l369 600h299l-580 -844l-107 -502h-272zM-193 1011l130 334h237l-217 -334h-150z" />
    <glyph glyph-name="Omegatonos" unicode="&#x38f;" horiz-adv-x="1354" 
d="M-8 0l46 216h278q-71 61 -110 157.5t-45.5 213.5t18.5 235q39 187 122.5 307t214 177.5t312.5 57.5q133 0 232.5 -48t160 -136t78 -206.5t-11.5 -259.5q-39 -182 -126.5 -303.5t-218.5 -194.5h258l-45 -216h-502l50 246q126 67 197.5 177t109.5 285q19 86 18.5 165
t-25 140.5t-73.5 97.5t-126 36q-106 0 -178.5 -53.5t-117 -144t-67.5 -202.5q-36 -172 -16.5 -299t112.5 -197l-54 -251h-491zM-38 1011l130 334h237l-217 -334h-150z" />
    <glyph glyph-name="iotadieresistonos" unicode="&#x390;" horiz-adv-x="541" 
d="M352 1q-187 0 -246.5 95.5t-19.5 276.5l142 653h248l-143 -661q-17 -82 -3 -127.5t70 -45.5h56l-41 -191h-63zM268 1093l132 348h194l-191 -348h-135zM161 1118q-44 0 -72.5 29t-28.5 73q0 45 29.5 75.5t74.5 30.5q43 0 71.5 -29.5t28.5 -73.5q0 -45 -29.5 -75t-73.5 -30
zM632 1118q-44 0 -72.5 29t-28.5 73q0 46 29.5 76t72.5 30q44 0 72.5 -29.5t28.5 -73.5q0 -45 -29.5 -75t-72.5 -30z" />
    <glyph glyph-name="Alpha" unicode="&#x391;" horiz-adv-x="1125" 
d="M-105 0l708 1346h278l138 -1346h-269l-12 311h-416l-147 -311h-280zM435 537h285l-26 551z" />
    <glyph glyph-name="Beta" unicode="&#x392;" horiz-adv-x="1150" 
d="M37 0l286 1346l396 1q142 1 233.5 -49.5t128 -140t10.5 -206.5q-20 -95 -86 -156.5t-152 -83.5q63 -21 111 -71t69 -125t0 -173q-23 -108 -91 -184.5t-178.5 -117t-260.5 -40.5h-466zM350 225h170q99 0 162 39t82 127q21 102 -26 152.5t-135 50.5h-176zM470 795h139
q94 0 150 43.5t72 123.5q17 77 -21 123.5t-114 46.5h-154z" />
    <glyph glyph-name="Gamma" unicode="&#x393;" horiz-adv-x="893" 
d="M324 1346h717l-45 -207h-452l-243 -1139h-264z" />
    <glyph glyph-name="Delta" unicode="&#x394;" horiz-adv-x="1122" 
d="M-68 0l43 201l134 15h821l94 -15l-44 -201h-1048zM-25 201l615 1145h313l121 -1145l-232 -148l-94 1048l-540 -1048z" />
    <glyph glyph-name="Epsilon" unicode="&#x395;" horiz-adv-x="1041" 
d="M37 0l286 1346h802l-45 -217h-538l-71 -336h486l-46 -210h-485l-78 -367h538l-46 -216h-803z" />
    <glyph glyph-name="Zeta" unicode="&#x396;" horiz-adv-x="983" 
d="M-68 0l42 206l752 922h-508l46 218h823l-42 -196l-760 -932h602l-45 -218h-910z" />
    <glyph glyph-name="Eta" unicode="&#x397;" horiz-adv-x="1327" 
d="M37 0l286 1346h265l-114 -534h516l114 534h265l-286 -1346h-265l123 582h-515l-123 -582h-266z" />
    <glyph glyph-name="Theta" unicode="&#x398;" horiz-adv-x="1336" 
d="M501 577l37 206h367l-39 -206h-365zM607 -19q-186 0 -305 94t-163 260t-3 383q37 203 125.5 348t226.5 222.5t323 77.5q183 0 301 -93.5t161.5 -260.5t3.5 -388q-36 -199 -122.5 -343.5t-223.5 -222t-324 -77.5zM625 197q111 0 189 61t127.5 166t73.5 239q22 124 9 235
t-69.5 181t-166.5 70q-107 0 -185 -58.5t-128 -163t-76 -243.5q-22 -125 -10 -236t69 -181t167 -70z" />
    <glyph glyph-name="Iota" unicode="&#x399;" horiz-adv-x="548" 
d="M37 0l286 1346h265l-285 -1346h-266z" />
    <glyph glyph-name="Kappa" unicode="&#x39a;" horiz-adv-x="1122" 
d="M37 0l286 1346h265l-135 -637l540 637h300l-576 -657l317 -689h-282l-303 689l-146 -689h-266z" />
    <glyph glyph-name="Lambda" unicode="&#x39b;" horiz-adv-x="1121" 
d="M-101 0l694 1346h312l112 -1346h-276l-47 1065l-505 -1065h-290z" />
    <glyph glyph-name="Mu" unicode="&#x39c;" horiz-adv-x="1494" 
d="M37 0l286 1346h302l164 -630l427 630h320l-287 -1346h-263l214 996l-385 -573h-163l-149 573l-213 -996h-253z" />
    <glyph glyph-name="Nu" unicode="&#x39d;" horiz-adv-x="1312" 
d="M37 0l286 1346h268l316 -956l200 956h247l-287 -1346h-268l-314 956l-203 -956h-245z" />
    <glyph glyph-name="Xi" unicode="&#x39e;" horiz-adv-x="1052" 
d="M-18 0l46 216h869l-45 -216h-870zM231 583l46 210h617l-45 -210h-618zM259 1129l45 218h798l-45 -218h-798z" />
    <glyph glyph-name="Omicron" unicode="&#x39f;" horiz-adv-x="1336" 
d="M607 -19q-186 0 -305 94t-163 260t-3 383q37 203 125.5 348t226.5 222.5t323 77.5q183 0 301 -93.5t161.5 -260.5t3.5 -388q-36 -199 -122.5 -343.5t-223.5 -222t-324 -77.5zM625 197q111 0 189 61t127.5 166t73.5 239q22 124 9 235t-69.5 181t-166.5 70
q-107 0 -185 -58.5t-128 -163t-76 -243.5q-22 -125 -10 -236t69 -181t167 -70z" />
    <glyph glyph-name="Pi" unicode="&#x3a0;" horiz-adv-x="1309" 
d="M37 0l287 1346h1026l-286 -1346h-266l242 1127h-498l-241 -1127h-264z" />
    <glyph glyph-name="Rho" unicode="&#x3a1;" horiz-adv-x="1131" 
d="M37 0l286 1346h399q149 0 251 -58.5t142 -168.5t6 -268q-28 -134 -102.5 -213.5t-179 -114t-223.5 -34.5h-210l-103 -489h-266zM451 700h181q81 0 141 46.5t81 147.5q26 120 -17 180.5t-128 60.5h-166z" />
    <glyph glyph-name="Sigma" unicode="&#x3a3;" horiz-adv-x="945" 
d="M-69 0l43 203l309 15l567 -2l-46 -216h-873zM201 1137l44 203h785l-45 -216l-590 -1zM480 1126l256 -374l-23 -103l-421 -431l-318 -15l503 525l-276 409z" />
    <glyph glyph-name="Tau" unicode="&#x3a4;" horiz-adv-x="921" 
d="M225 0l240 1128h-311l46 218h889l-47 -218h-312l-240 -1128h-265z" />
    <glyph glyph-name="Upsilon" unicode="&#x3a5;" horiz-adv-x="1071" 
d="M290 0l110 509l-223 837h281l123 -600l369 600h299l-580 -844l-107 -502h-272z" />
    <glyph glyph-name="Phi" unicode="&#x3a6;" horiz-adv-x="1500" 
d="M603 131q-118 0 -217.5 41.5t-167 121.5t-92 195.5t6.5 263.5q34 160 123.5 264.5t225 155t307.5 50.5h50l-42 -199h-45q-150 0 -237.5 -79.5t-118.5 -226.5q-25 -116 -1.5 -204t88 -137t160.5 -49h22l-43 -197h-19zM504 -41l304 1427h257l-306 -1427h-255zM730 131
l42 198h46q148 0 236 81t120 231q27 122 1.5 208t-90 131t-159.5 45h-23l43 198h20q116 0 215 -41.5t167.5 -121t94.5 -194.5t-5 -261q-37 -170 -130.5 -274.5t-228.5 -152t-298 -47.5h-51z" />
    <glyph glyph-name="Chi" unicode="&#x3a7;" horiz-adv-x="1096" 
d="M-101 0l548 702l-228 644h288l120 -453l318 453h297l-504 -650l250 -696h-291l-135 484l-356 -484h-307z" />
    <glyph glyph-name="Psi" unicode="&#x3a8;" horiz-adv-x="1531" 
d="M782 335l46 212h68q133 0 218.5 76t117.5 228l106 495h273l-112 -517q-36 -169 -121.5 -278.5t-212 -162.5t-286.5 -53h-97zM629 335q-113 0 -207 32.5t-158 100t-87 171t8 245.5l97 462h271l-102 -479q-34 -157 20.5 -238.5t187.5 -81.5h66l-46 -212h-50zM526 0
l286 1346h265l-286 -1346h-265z" />
    <glyph glyph-name="Omega" unicode="&#x3a9;" horiz-adv-x="1354" 
d="M-8 0l46 216h278q-71 61 -110 157.5t-45.5 213.5t18.5 235q39 187 122.5 307t214 177.5t312.5 57.5q133 0 232.5 -48t160 -136t78 -206.5t-11.5 -259.5q-39 -182 -126.5 -303.5t-218.5 -194.5h258l-45 -216h-502l50 246q126 67 197.5 177t109.5 285q19 86 18.5 165
t-25 140.5t-73.5 97.5t-126 36q-106 0 -178.5 -53.5t-117 -144t-67.5 -202.5q-36 -172 -16.5 -299t112.5 -197l-54 -251h-491z" />
    <glyph glyph-name="Iotadieresis" unicode="&#x3aa;" horiz-adv-x="548" 
d="M37 0l286 1346h265l-285 -1346h-266zM653 1478q-42 0 -74 32.5t-32 77.5q0 46 32.5 79.5t75.5 33.5q44 0 76 -32.5t32 -79.5q0 -44 -32.5 -77.5t-77.5 -33.5zM312 1478q-44 0 -76 32.5t-32 77.5q0 46 32 79.5t77 33.5q43 0 75 -32.5t32 -79.5q0 -44 -32 -77.5t-76 -33.5z
" />
    <glyph glyph-name="Upsilondieresis" unicode="&#x3ab;" horiz-adv-x="1071" 
d="M290 0l110 509l-223 837h281l123 -600l369 600h299l-580 -844l-107 -502h-272zM900 1479q-42 0 -74 32.5t-32 77.5q0 46 32.5 79.5t75.5 33.5q44 0 76 -32.5t32 -79.5q0 -44 -32.5 -77.5t-77.5 -33.5zM559 1479q-44 0 -76 32.5t-32 77.5q0 46 32 79.5t77 33.5
q43 0 75 -32.5t32 -79.5q0 -44 -32 -77.5t-76 -33.5z" />
    <glyph glyph-name="alphatonos" unicode="&#x3ac;" horiz-adv-x="1071" 
d="M350 -17q-103 0 -174.5 65t-97 187t10.5 292q40 191 109.5 303t157 161t182.5 49q70 0 117.5 -21t80 -55t55.5 -72l28 134h240l-145 -680q-19 -85 -7.5 -124.5t75.5 -39.5h7l-41 -191h-53q-81 0 -129 19.5t-72.5 53t-38.5 76.5q-40 -46 -83 -81.5t-96.5 -55.5t-125.5 -20
zM436 168q74 0 133.5 50.5t100.5 115.5l78 366q-12 57 -55 104t-116 47q-80 0 -144.5 -85t-101.5 -265q-22 -104 -16.5 -179t36.5 -114.5t85 -39.5zM551 1110l129 334h238l-217 -334h-150z" />
    <glyph glyph-name="epsilontonos" unicode="&#x3ad;" horiz-adv-x="976" 
d="M416 -16q-139 0 -232.5 44t-133 121t-17.5 174q21 93 88 140.5t161 65.5q-73 27 -114 100.5t-21 168.5q14 60 56 115t127.5 90.5t228.5 35.5q132 0 212.5 -40t118 -105t38.5 -140h-231q-3 48 -43 77t-110 29q-84 0 -122 -34t-48 -78q-8 -39 5 -68.5t46 -45t81 -15.5h103
l-37 -173h-84q-89 0 -137 -35.5t-61 -94.5q-12 -52 4.5 -86t54 -51t90.5 -17q87 0 138.5 28.5t67.5 80.5h232q-35 -149 -141 -218t-320 -69zM512 1110l129 334h238l-217 -334h-150z" />
    <glyph glyph-name="etatonos" unicode="&#x3ae;" horiz-adv-x="1068" 
d="M25 0l218 1026h237l-24 -142q59 62 129.5 109t173.5 47q89 0 148 -43.5t80 -128.5t-5 -210l-216 -1016h-250l217 1015q19 89 -4 137.5t-87 48.5q-41 0 -79 -19t-72.5 -49.5t-65.5 -64.5l-152 -710h-248zM560 1110l129 334h238l-217 -334h-150z" />
    <glyph glyph-name="iotatonos" unicode="&#x3af;" horiz-adv-x="541" 
d="M352 1q-187 0 -246.5 95.5t-19.5 276.5l142 653h248l-143 -661q-17 -82 -3 -127.5t70 -45.5h56l-41 -191h-63zM278 1110l129 334h238l-217 -334h-150z" />
    <glyph glyph-name="upsilondieresistonos" unicode="&#x3b0;" horiz-adv-x="1064" 
d="M468 -13q-134 0 -226.5 56t-127.5 167.5t0 279.5l112 536h248l-122 -571q-29 -136 6 -201.5t124 -65.5q65 0 108.5 34t71 99t47.5 157q29 142 45.5 279t1.5 269h243q10 -130 -3.5 -275.5t-42.5 -283.5q-51 -240 -166 -360t-319 -120zM547 1093l132 348h194l-191 -348
h-135zM440 1118q-44 0 -72.5 29t-28.5 73q0 45 29.5 75.5t74.5 30.5q43 0 71.5 -29.5t28.5 -73.5q0 -45 -29.5 -75t-73.5 -30zM911 1118q-44 0 -72.5 29t-28.5 73q0 46 29.5 76t72.5 30q44 0 72.5 -29.5t28.5 -73.5q0 -45 -29.5 -75t-72.5 -30z" />
    <glyph glyph-name="alpha" unicode="&#x3b1;" horiz-adv-x="1071" 
d="M350 -17q-103 0 -174.5 65t-97 187t10.5 292q40 191 109.5 303t157 161t182.5 49q70 0 117.5 -21t80 -55t55.5 -72l28 134h240l-145 -680q-19 -85 -7.5 -124.5t75.5 -39.5h7l-41 -191h-53q-81 0 -129 19.5t-72.5 53t-38.5 76.5q-40 -46 -83 -81.5t-96.5 -55.5t-125.5 -20
zM436 168q74 0 133.5 50.5t100.5 115.5l78 366q-12 57 -55 104t-116 47q-80 0 -144.5 -85t-101.5 -265q-22 -104 -16.5 -179t36.5 -114.5t85 -39.5z" />
    <glyph glyph-name="beta" unicode="&#x3b2;" horiz-adv-x="1035" 
d="M-64 -358l269 1278q51 234 172 339t314 105q106 0 189 -47t122 -137t11 -219q-16 -82 -68 -147t-143.5 -104.5t-225.5 -44.5l-32 91q136 0 231.5 -54t136.5 -153.5t11 -236.5q-35 -167 -151 -245.5t-283 -78.5q-81 0 -142.5 14.5t-114.5 41.5l39 183q46 -28 98.5 -41
t102.5 -13q85 0 137 44t70 128q18 86 4 145.5t-57 90t-111 30.5h-42l36 175h44q90 0 148 47t79 140q21 98 -12 150.5t-97 52.5q-81 0 -133.5 -62.5t-87.5 -224.5l-264 -1247h-250z" />
    <glyph glyph-name="gamma" unicode="&#x3b3;" horiz-adv-x="904" 
d="M266 41l-152 983h254l55 -738l337 738h257l-505 -982zM178 -358l88 399l246 2l-86 -401h-248z" />
    <glyph glyph-name="delta" unicode="&#x3b4;" horiz-adv-x="1055" 
d="M483 -17q-146 0 -247.5 65t-143.5 183t-9 275q27 126 92 214.5t151.5 145t177.5 83.5l-187 228l37 169h755l-42 -196h-441l110 -129q95 -107 150 -209.5t70.5 -208.5t-11.5 -226q-43 -198 -163.5 -296t-298.5 -98zM488 171q89 0 139.5 63t71.5 163q19 88 14 162.5
t-30.5 137.5t-69.5 115q-110 -35 -184.5 -121t-101.5 -215q-17 -81 -7 -150.5t51 -112t117 -42.5z" />
    <glyph glyph-name="epsilon" unicode="&#x3b5;" horiz-adv-x="976" 
d="M416 -16q-139 0 -232.5 44t-133 121t-17.5 174q21 93 88 140.5t161 65.5q-73 27 -114 100.5t-21 168.5q14 60 56 115t127.5 90.5t228.5 35.5q132 0 212.5 -40t118 -105t38.5 -140h-231q-3 48 -43 77t-110 29q-84 0 -122 -34t-48 -78q-8 -39 5 -68.5t46 -45t81 -15.5h103
l-37 -173h-84q-89 0 -137 -35.5t-61 -94.5q-12 -52 4.5 -86t54 -51t90.5 -17q87 0 138.5 28.5t67.5 80.5h232q-35 -149 -141 -218t-320 -69z" />
    <glyph glyph-name="zeta" unicode="&#x3b6;" horiz-adv-x="844" 
d="M408 -257q34 90 43 143t-11 77.5t-75 31.5l-52 6q-95 13 -165 54.5t-98 121.5t-2 208q24 111 75 203.5t126.5 176t171.5 167.5l249 218h-368l42 196h654l-42 -196l-330 -308q-82 -77 -149.5 -155.5t-113 -154.5t-60.5 -146q-19 -93 11 -131t117 -49l48 -6
q106 -15 164 -61t59 -140.5t-62 -255.5h-232z" />
    <glyph glyph-name="eta" unicode="&#x3b7;" horiz-adv-x="1068" 
d="M25 0l218 1026h237l-24 -142q59 62 129.5 109t173.5 47q89 0 148 -43.5t80 -128.5t-5 -210l-216 -1016h-250l217 1015q19 89 -4 137.5t-87 48.5q-41 0 -79 -19t-72.5 -49.5t-65.5 -64.5l-152 -710h-248z" />
    <glyph glyph-name="theta" unicode="&#x3b8;" horiz-adv-x="1060" 
d="M448 -18q-106 0 -181.5 50.5t-117 146t-45.5 230.5t33 305q47 221 123 365.5t184.5 215.5t248.5 71q107 0 182 -50.5t115.5 -145t44.5 -228t-31 -297.5q-49 -226 -126 -373t-184 -218.5t-246 -71.5zM470 162q53 0 96 32.5t79.5 97.5t67.5 162t58 225q24 116 32.5 209
t-1.5 160t-42 102.5t-90 35.5q-54 0 -97 -32.5t-78.5 -97t-65 -158.5t-56.5 -218t-36 -220t1 -162.5t42.5 -101t89.5 -34.5zM332 593l40 185h448l-40 -185h-448z" />
    <glyph glyph-name="iota" unicode="&#x3b9;" horiz-adv-x="541" 
d="M352 1q-187 0 -246.5 95.5t-19.5 276.5l142 653h248l-143 -661q-17 -82 -3 -127.5t70 -45.5h56l-41 -191h-63z" />
    <glyph glyph-name="kappa" unicode="&#x3ba;" horiz-adv-x="980" 
d="M25 0l219 1026h249l-93 -439l418 439h269l-421 -437l225 -589h-264l-157 445l-121 -93l-75 -352h-249z" />
    <glyph glyph-name="lambda" unicode="&#x3bb;" horiz-adv-x="904" 
d="M-101 0l578 988l256 -2l70 -986h-242l-27 695l-363 -695h-272zM477 988l-6 57q-7 51 -36 75.5t-87 24.5h-80l43 201h106q100 0 164 -25t99 -86.5t46 -171.5l7 -77z" />
    <glyph glyph-name="mu" unicode="&#x3bc;" horiz-adv-x="1088" 
d="M-51 -359l294 1385h248l-134 -643q-13 -62 -8.5 -105t29 -65.5t68.5 -22.5q64 0 119 35.5t98 90.5l152 710h247l-217 -1026h-235l24 142q-52 -75 -109.5 -114t-131.5 -39q-69 0 -123.5 39t-78.5 112t-4 174h140l-143 -673h-235z" />
    <glyph glyph-name="nu" unicode="&#x3bd;" horiz-adv-x="904" 
d="M207 0l-93 1026h255l24 -795l368 795h257l-527 -1026h-284z" />
    <glyph glyph-name="xi" unicode="&#x3be;" horiz-adv-x="823" 
d="M394 -261q36 99 40.5 151t-19.5 74t-77 29l-47 7q-146 24 -212.5 120.5t-27.5 279.5q24 110 74.5 178.5t126.5 107t171 55.5q-83 38 -126 125t-19 199q12 57 43 107.5t89.5 89.5t154 61.5t237.5 22.5h165l-42 -205h-165q-124 0 -179 -33t-69 -98q-15 -72 31.5 -123
t150.5 -51h111l-46 -204h-143q-145 0 -223 -63.5t-102 -175.5q-21 -99 10.5 -137.5t114.5 -52.5l84 -13q68 -11 112.5 -37.5t62.5 -77t7 -132.5t-55 -204h-233z" />
    <glyph glyph-name="omicron" unicode="&#x3bf;" horiz-adv-x="1047" 
d="M460 -18q-139 0 -234.5 72t-130.5 205t2 314q49 229 181 349.5t323 120.5q136 0 228 -71.5t127 -203t-4 -310.5q-48 -233 -174.5 -354.5t-317.5 -121.5zM478 168q93 0 145.5 88.5t82.5 229.5q22 97 17.5 182t-38.5 137.5t-103 52.5q-66 0 -113 -41t-77.5 -111.5
t-49.5 -159.5q-21 -99 -15.5 -185t42.5 -139.5t109 -53.5z" />
    <glyph glyph-name="pi" unicode="&#x3c0;" horiz-adv-x="1100" 
d="M891 1q-136 0 -203.5 35.5t-81 109t10.5 189.5l106 502h-628l42 189h1041l-41 -189h-165l-103 -487q-16 -78 -6.5 -118t74.5 -40h29l-40 -191h-35zM65 0l193 905h250l-193 -905h-250z" />
    <glyph glyph-name="rho" unicode="&#x3c1;" horiz-adv-x="1079" 
d="M273 101l38 185q23 -43 73 -77.5t120 -34.5q55 0 99.5 32t79 102t57.5 184q36 176 -2 265.5t-139 89.5q-55 0 -96.5 -26t-73.5 -92.5t-59 -188.5l-191 -898h-249l198 918q38 173 101.5 277.5t158.5 152t226 47.5q140 0 236 -67t132 -199t-2 -327q-31 -158 -96.5 -260
t-155.5 -151.5t-195 -49.5q-90 0 -158 34.5t-102 83.5z" />
    <glyph glyph-name="sigmafinal" unicode="&#x3c2;" horiz-adv-x="846" 
d="M409 -261q36 99 41 151t-19.5 74.5t-76.5 28.5l-43 6q-101 12 -164 71t-81 167t16 267q40 182 101.5 300.5t157 177t236.5 58.5q111 0 187 -36.5t111.5 -105t23.5 -165.5h-241q2 61 -20.5 94t-77.5 33q-91 0 -143 -96.5t-88 -273.5q-30 -136 -2 -203.5t133 -86.5l56 -9
q67 -12 111 -39t62.5 -78t7.5 -132t-56 -203h-232z" />
    <glyph glyph-name="sigma" unicode="&#x3c3;" horiz-adv-x="1088" 
d="M470 -18q-140 0 -238 73t-136 202t-3 299q54 251 204 360.5t410 109.5h473l-41 -191h-465q-132 0 -218 -68t-123 -249q-19 -93 -9.5 -172t50 -127t112.5 -48q66 0 109.5 35.5t71 99.5t45.5 150q33 151 21 246t-47 143l-37 128q121 0 201 -66.5t109 -190t-5 -297.5
q-46 -215 -166.5 -326t-317.5 -111z" />
    <glyph glyph-name="tau" unicode="&#x3c4;" horiz-adv-x="783" 
d="M509 0q-136 0 -209.5 43t-92.5 125t6 199l100 470h-221l42 189h729l-41 -189h-260l-99 -475q-18 -86 1 -128.5t79 -42.5h84l-43 -191h-75z" />
    <glyph glyph-name="upsilon" unicode="&#x3c5;" horiz-adv-x="1064" 
d="M468 -13q-134 0 -226.5 56t-127.5 167.5t0 279.5l112 536h248l-122 -571q-29 -136 6 -201.5t124 -65.5q65 0 108.5 34t71 99t47.5 157q29 142 45.5 279t1.5 269h243q10 -130 -3.5 -275.5t-42.5 -283.5q-51 -240 -166 -360t-319 -120z" />
    <glyph glyph-name="phi" unicode="&#x3c6;" horiz-adv-x="1347" 
d="M587 -25q-187 0 -310 73.5t-170 208.5t-9 316q50 236 211 353t447 117q192 0 314.5 -75.5t169.5 -211.5t9 -316q-50 -236 -213 -350.5t-449 -114.5zM614 152q130 0 207.5 40.5t119 114t61.5 169.5q17 77 13.5 146.5t-32.5 124.5t-88.5 86.5t-156.5 31.5q-125 0 -205 -40
t-125 -113t-66 -173q-15 -73 -10.5 -142.5t34.5 -124.5t90.5 -87.5t157.5 -32.5zM380 -358l361 1704h222l-361 -1704h-222z" />
    <glyph glyph-name="chi" unicode="&#x3c7;" horiz-adv-x="934" 
d="M-181 -358l532 790l56 28l340 566h271l-450 -679l-65 -53l-407 -652h-277zM497 -358l-207 1042q-13 62 -36 95t-55.5 46t-72.5 13h-30l43 200h88q87 0 140 -26t84 -83t52 -152l250 -1135h-256z" />
    <glyph glyph-name="psi" unicode="&#x3c8;" horiz-adv-x="1413" 
d="M525 -11q-168 -2 -271 57.5t-138 173.5t-2 274l112 532h247l-116 -559q-18 -87 -8.5 -150.5t59.5 -97.5t152 -34h177q85 0 143.5 27.5t94 79t50.5 121.5l133 613h249l-137 -641q-27 -129 -99.5 -217.5t-187.5 -133.5t-274 -45h-184zM416 -358l360 1704h223l-360 -1704
h-223z" />
    <glyph glyph-name="omega" unicode="&#x3c9;" horiz-adv-x="1547" 
d="M372 -14q-109 0 -182 63t-98.5 178.5t7.5 272.5q19 92 41 174t53.5 167t80.5 185h247q-46 -104 -78.5 -189.5t-55 -167.5t-42.5 -176q-18 -87 -17 -156.5t27 -109.5t81 -40q51 0 91 37.5t70.5 108.5t51.5 169l56 269h245l-48 -240q-20 -101 -15 -178.5t34.5 -121.5
t81.5 -44q54 0 88.5 34.5t58 99t41.5 151.5q21 100 31.5 189t11.5 178.5t-5 186.5h242q10 -141 1 -285.5t-41 -294.5q-50 -234 -153 -347t-274 -113q-111 0 -185.5 56.5t-97.5 172.5q-69 -120 -153 -174.5t-196 -54.5z" />
    <glyph glyph-name="iotadieresis" unicode="&#x3ca;" horiz-adv-x="541" 
d="M352 1q-187 0 -246.5 95.5t-19.5 276.5l142 653h248l-143 -661q-17 -82 -3 -127.5t70 -45.5h56l-41 -191h-63zM569 1180q-43 0 -74 32t-31 78q0 47 32 79t75 32q45 0 76.5 -31.5t31.5 -77.5t-32 -79t-78 -33zM229 1180q-44 0 -76.5 32t-32.5 78q0 47 32.5 79t77.5 32
q42 0 74 -31.5t32 -77.5q0 -47 -32.5 -79.5t-74.5 -32.5z" />
    <glyph glyph-name="upsilondieresis" unicode="&#x3cb;" horiz-adv-x="1064" 
d="M468 -13q-134 0 -226.5 56t-127.5 167.5t0 279.5l112 536h248l-122 -571q-29 -136 6 -201.5t124 -65.5q65 0 108.5 34t71 99t47.5 157q29 142 45.5 279t1.5 269h243q10 -130 -3.5 -275.5t-42.5 -283.5q-51 -240 -166 -360t-319 -120zM816 1166q-43 0 -74 32t-31 78
q0 47 32 79t75 32q45 0 76.5 -31.5t31.5 -77.5t-32 -79t-78 -33zM476 1166q-44 0 -76.5 32t-32.5 78q0 47 32.5 79t77.5 32q42 0 74 -31.5t32 -77.5q0 -47 -32.5 -79.5t-74.5 -32.5z" />
    <glyph glyph-name="omicrontonos" unicode="&#x3cc;" horiz-adv-x="1047" 
d="M460 -18q-139 0 -234.5 72t-130.5 205t2 314q49 229 181 349.5t323 120.5q136 0 228 -71.5t127 -203t-4 -310.5q-48 -233 -174.5 -354.5t-317.5 -121.5zM478 168q93 0 145.5 88.5t82.5 229.5q22 97 17.5 182t-38.5 137.5t-103 52.5q-66 0 -113 -41t-77.5 -111.5
t-49.5 -159.5q-21 -99 -15.5 -185t42.5 -139.5t109 -53.5zM552 1110l129 334h238l-217 -334h-150z" />
    <glyph glyph-name="upsilontonos" unicode="&#x3cd;" horiz-adv-x="1064" 
d="M468 -13q-134 0 -226.5 56t-127.5 167.5t0 279.5l112 536h248l-122 -571q-29 -136 6 -201.5t124 -65.5q65 0 108.5 34t71 99t47.5 157q29 142 45.5 279t1.5 269h243q10 -130 -3.5 -275.5t-42.5 -283.5q-51 -240 -166 -360t-319 -120zM536 1110l129 334h238l-217 -334
h-150z" />
    <glyph glyph-name="omegatonos" unicode="&#x3ce;" horiz-adv-x="1547" 
d="M372 -14q-109 0 -182 63t-98.5 178.5t7.5 272.5q19 92 41 174t53.5 167t80.5 185h247q-46 -104 -78.5 -189.5t-55 -167.5t-42.5 -176q-18 -87 -17 -156.5t27 -109.5t81 -40q51 0 91 37.5t70.5 108.5t51.5 169l56 269h245l-48 -240q-20 -101 -15 -178.5t34.5 -121.5
t81.5 -44q54 0 88.5 34.5t58 99t41.5 151.5q21 100 31.5 189t11.5 178.5t-5 186.5h242q10 -141 1 -285.5t-41 -294.5q-50 -234 -153 -347t-274 -113q-111 0 -185.5 56.5t-97.5 172.5q-69 -120 -153 -174.5t-196 -54.5zM807 1110l129 334h238l-217 -334h-150z" />
    <glyph glyph-name="KaiSymbol" unicode="&#x3cf;" horiz-adv-x="1122" 
d="M349 -356l47 223h18q97 0 156.5 15.5t100 45.5t79.5 72h284q-68 -125 -155 -203.5t-210 -115.5t-301 -37h-19zM37 0l286 1346h265l-135 -637l538 637h302l-571 -656l312 -690h-284l-301 689l-146 -689h-266z" />
    <glyph glyph-name="betaSymbol" unicode="&#x3d0;" horiz-adv-x="1035" 
d="M-64 -358l269 1278q51 234 172 339t314 105q106 0 189 -47t122 -137t11 -219q-16 -82 -68 -147t-143.5 -104.5t-225.5 -44.5l-32 91q136 0 231.5 -54t136.5 -153.5t11 -236.5q-35 -167 -151 -245.5t-283 -78.5q-81 0 -142.5 14.5t-114.5 41.5l39 183q46 -28 98.5 -41
t102.5 -13q85 0 137 44t70 128q18 86 4 145.5t-57 90t-111 30.5h-42l36 175h44q90 0 148 47t79 140q21 98 -12 150.5t-97 52.5q-81 0 -133.5 -62.5t-87.5 -224.5l-264 -1247h-250z" />
    <glyph glyph-name="thetaSymbol" unicode="&#x3d1;" horiz-adv-x="1060" 
d="M448 -18q-106 0 -181.5 50.5t-117 146t-45.5 230.5t33 305q47 221 123 365.5t184.5 215.5t248.5 71q107 0 182 -50.5t115.5 -145t44.5 -228t-31 -297.5q-49 -226 -126 -373t-184 -218.5t-246 -71.5zM470 162q53 0 96 32.5t79.5 97.5t67.5 162t58 225q24 116 32.5 209
t-1.5 160t-42 102.5t-90 35.5q-54 0 -97 -32.5t-78.5 -97t-65 -158.5t-56.5 -218t-36 -220t1 -162.5t42.5 -101t89.5 -34.5zM332 593l40 185h448l-40 -185h-448z" />
    <glyph glyph-name="UpsilonhookSymbol" unicode="&#x3d2;" horiz-adv-x="1090" 
d="M290 0l108 509l-221 837h284l119 -609l192 324q72 120 131.5 181t127.5 82.5t164 21.5h73l-47 -224h-26q-30 0 -58.5 -8.5t-58 -30t-63 -60t-72.5 -100.5l-273 -416l-108 -507h-272z" />
    <glyph glyph-name="UpsilonacutehookSymbol" unicode="&#x3d3;" horiz-adv-x="1090" 
d="M290 0l108 509l-221 837h284l119 -609l192 324q72 120 131.5 181t127.5 82.5t164 21.5h73l-47 -224h-26q-30 0 -58.5 -8.5t-58 -30t-63 -60t-72.5 -100.5l-273 -416l-108 -507h-272zM-202 1011l130 334h237l-217 -334h-150z" />
    <glyph glyph-name="UpsilondieresishookSymbol" unicode="&#x3d4;" horiz-adv-x="1090" 
d="M290 0l108 509l-221 837h284l119 -609l192 324q72 120 131.5 181t127.5 82.5t164 21.5h73l-47 -224h-26q-30 0 -58.5 -8.5t-58 -30t-63 -60t-72.5 -100.5l-273 -416l-108 -507h-272zM918 1479q-42 0 -74 32.5t-32 77.5q0 46 32.5 79.5t75.5 33.5q44 0 76 -32.5t32 -79.5
q0 -44 -32.5 -77.5t-77.5 -33.5zM577 1479q-44 0 -76 32.5t-32 77.5q0 46 32 79.5t77 33.5q43 0 75 -32.5t32 -79.5q0 -44 -32 -77.5t-76 -33.5z" />
    <glyph glyph-name="phiSymbol" unicode="&#x3d5;" horiz-adv-x="1347" 
d="M587 -25q-187 0 -310 73.5t-170 208.5t-9 316q50 236 211 353t447 117q192 0 314.5 -75.5t169.5 -211.5t9 -316q-50 -236 -213 -350.5t-449 -114.5zM614 152q130 0 207.5 40.5t119 114t61.5 169.5q17 77 13.5 146.5t-32.5 124.5t-88.5 86.5t-156.5 31.5q-125 0 -205 -40
t-125 -113t-66 -173q-15 -73 -10.5 -142.5t34.5 -124.5t90.5 -87.5t157.5 -32.5zM380 -358l361 1704h222l-361 -1704h-222z" />
    <glyph glyph-name="piSymbol" unicode="&#x3d6;" horiz-adv-x="1100" 
d="M891 1q-136 0 -203.5 35.5t-81 109t10.5 189.5l106 502h-628l42 189h1041l-41 -189h-165l-103 -487q-16 -78 -6.5 -118t74.5 -40h29l-40 -191h-35zM65 0l193 905h250l-193 -905h-250z" />
    <glyph glyph-name="kaiSymbol" unicode="&#x3d7;" horiz-adv-x="1158" 
d="M929 -9q-112 3 -178.5 36.5t-89 95.5t-3.5 151q8 37 22 84t32 97t36 93t33 72l-558 -620h-246q79 118 154.5 282.5t114.5 345.5q28 114 8.5 165t-86.5 51h-26l40 187h56q114 0 184 -29t93 -99.5t-3 -195.5q-16 -74 -41 -149.5t-70 -172.5l560 638h243
q-43 -71 -86.5 -152.5t-81 -167t-67 -169.5t-45.5 -161q-21 -94 -3 -145t95 -51h25l-19 -86zM359 -373l49 228q129 1 208 21t121 67t58 128l227 20q-23 -112 -63.5 -197.5t-113 -144.5t-190.5 -90t-296 -32z" />
    <glyph glyph-name="KoppaArchaic" unicode="&#x3d8;" horiz-adv-x="1336" 
d="M402 -358l90 429h263l-89 -429h-264zM607 -19q-186 0 -305 94t-163 260t-3 383q37 203 125.5 348t226.5 222.5t323 77.5q183 0 301 -93.5t161.5 -260.5t3.5 -388q-36 -199 -122.5 -343.5t-223.5 -222t-324 -77.5zM625 197q111 0 189 61t127.5 166t73.5 239q22 124 9 235
t-69.5 181t-166.5 70q-107 0 -185 -58.5t-128 -163t-76 -243.5q-22 -125 -10 -236t69 -181t167 -70z" />
    <glyph glyph-name="koppaArchaic" unicode="&#x3d9;" horiz-adv-x="1047" 
d="M232 -358l86 405h250l-85 -405h-251zM460 -18q-139 0 -234.5 72t-130.5 205t2 314q49 229 181 349.5t323 120.5q136 0 228 -71.5t127 -203t-4 -310.5q-48 -233 -174.5 -354.5t-317.5 -121.5zM478 168q93 0 145.5 88.5t82.5 229.5q22 97 17.5 182t-38.5 137.5t-103 52.5
q-66 0 -113 -41t-77.5 -111.5t-49.5 -159.5q-21 -99 -15.5 -185t42.5 -139.5t109 -53.5z" />
    <glyph glyph-name="Stigma" unicode="&#x3da;" horiz-adv-x="1148" 
d="M592 -259q36 101 38.5 149t-34.5 68t-118 31q-147 23 -242.5 99.5t-125 225t20.5 385.5q41 192 130 342t225.5 236.5t318.5 86.5q132 0 236 -48t157.5 -142t30.5 -233h-271q6 70 -17.5 115.5t-68.5 68t-104 22.5q-100 0 -172.5 -61.5t-122 -168.5t-78.5 -245
q-33 -156 -19.5 -251.5t81 -143t193.5 -64.5q131 -17 195 -71.5t66 -153t-53 -247.5h-266z" />
    <glyph glyph-name="stigma" unicode="&#x3db;" horiz-adv-x="895" 
d="M419 -261q37 97 41.5 150t-20 75.5t-76.5 28.5l-44 6q-97 12 -162.5 67.5t-88 161.5t12.5 268q28 130 65 225t95 158.5t146 98t217 40.5q48 3 88 17t67.5 39t36.5 58h242q-33 -153 -131 -224.5t-275 -82.5q-97 -6 -154.5 -47t-89.5 -115.5t-55 -180.5q-28 -131 3.5 -199
t114.5 -81l74 -11q94 -13 141 -60t44.5 -141t-59.5 -251h-233z" />
    <glyph glyph-name="Digamma" unicode="&#x3dc;" horiz-adv-x="1009" 
d="M37 0l286 1346h783l-46 -217h-518l-73 -337h480l-96 -450h-229l49 241h-247l-123 -583h-266z" />
    <glyph glyph-name="digamma" unicode="&#x3dd;" horiz-adv-x="888" 
d="M-51 -358l294 1384h250l-294 -1384h-250zM262 380l39 190h531l-39 -190h-531zM359 837l40 189h568l-41 -189h-567z" />
    <glyph glyph-name="Koppa" unicode="&#x3de;" horiz-adv-x="1008" 
d="M753 -20q-170 0 -232 65.5t-40 162.5q11 58 41.5 123t74.5 150l42 83h-544l155 301q22 45 51.5 106t37.5 102q9 42 -9.5 60.5t-50.5 18.5l46 214q123 0 187.5 -28t83.5 -79.5t3 -122.5q-11 -52 -39 -119t-70 -151l-40 -83h533l-155 -303q-25 -51 -52.5 -109t-36.5 -99
q-9 -43 10.5 -60.5t49.5 -17.5z" />
    <glyph glyph-name="koppa" unicode="&#x3df;" horiz-adv-x="995" 
d="M663 -225q-111 0 -177 30t-88.5 85t-7.5 130q13 57 48.5 132.5t98.5 195.5l74 148h-530l175 358q34 67 59.5 124.5t32.5 92.5q10 44 -13.5 62.5t-59.5 18.5l45 214q131 0 195 -31t80 -83t1 -117q-12 -61 -43 -134t-75 -161l-65 -142h538l-194 -373q-31 -57 -55.5 -102
t-40.5 -81.5t-24 -67.5q-10 -46 14 -65.5t61 -19.5z" />
    <glyph glyph-name="Sampi" unicode="&#x3e0;" horiz-adv-x="1105" 
d="M672 0q37 180 32 347t-47 309t-116.5 248.5t-175 165.5t-222.5 59l53 237q166 0 302.5 -69.5t236.5 -196t157.5 -297.5t66 -375t-39.5 -428h-247zM424 245l-114 133l449 426l110 -140zM251 493l-115 133l455 434l110 -139z" />
    <glyph glyph-name="sampi" unicode="&#x3e1;" horiz-adv-x="1135" 
d="M646 -205q94 228 123.5 415.5t7.5 335t-82 256.5t-146.5 180.5t-187 106.5t-200.5 35l53 242q139 0 271 -42.5t242.5 -128.5t187.5 -215.5t107.5 -304t1.5 -394.5t-130 -486h-248zM459 163l-116 135l448 423l109 -141zM285 412l-114 134l452 430l107 -140z" />
    <glyph glyph-name="Shei-coptic" unicode="&#x3e2;" horiz-adv-x="1757" 
d="M10 -371l45 212h1049q54 0 90 31t50 100l40 180q-55 -60 -136 -107.5t-198 -47.5q-99 0 -159 51t-77.5 147.5t11.5 230.5l196 920h265l-196 -924q-15 -72 -10 -118t29.5 -68.5t65.5 -22.5q67 0 131.5 37t112.5 86l213 1010h266l-294 -1390q-22 -107 -65.5 -180
t-121.5 -110t-207 -37h-1100zM337 -3q-99 0 -158.5 51t-76.5 147t11 230l195 921h266l-197 -929q-13 -65 -10 -110.5t27 -69.5t70 -24q68 0 130 33t126 91l12 -166q-58 -51 -118.5 -90t-128.5 -61.5t-148 -22.5z" />
    <glyph glyph-name="shei-coptic" unicode="&#x3e3;" horiz-adv-x="1623" 
d="M868 -13q-88 0 -146.5 44t-79 129t5.5 208l139 658h250l-140 -657q-19 -87 3.5 -135.5t85.5 -48.5q60 0 113 40t98 92l151 709h248l-225 -1064l-242 -5l36 187q-56 -61 -125 -109t-172 -48zM-6 -358l42 195h956q55 0 88.5 28t48.5 92l242 5q-34 -164 -126.5 -242
t-259.5 -78h-991zM307 -13q-89 0 -147.5 45.5t-78.5 130.5t5 205l141 658h249l-140 -657q-19 -87 3.5 -135.5t84.5 -48.5q60 0 115 42t105 100v-157q-73 -78 -152 -130.5t-185 -52.5z" />
    <glyph glyph-name="Fei-coptic" unicode="&#x3e4;" horiz-adv-x="1175" 
d="M665 0l99 468q-50 -21 -124 -40.5t-169 -19.5q-120 0 -200.5 58.5t-109.5 170t4 271.5q33 151 102 250t179.5 147.5t268.5 48.5h61l-47 -223h-56q-58 0 -105.5 -28t-81 -83.5t-49.5 -139.5q-13 -75 -2.5 -129.5t45 -83.5t89.5 -29q46 0 112.5 12t129.5 40l139 651h265
l-284 -1341h-266z" />
    <glyph glyph-name="fei-coptic" unicode="&#x3e5;" horiz-adv-x="1069" 
d="M575 0l105 483q-54 -52 -119 -91t-161 -39q-92 0 -154 43.5t-84.5 132.5t5.5 223l44 204q30 135 86 222t149 129.5t234 42.5h38l-43 -202h-37q-69 0 -115.5 -51t-68.5 -152l-40 -187q-22 -99 -1 -151t88 -52q62 0 116.5 30t98.5 72l145 689h251l-287 -1346h-250z" />
    <glyph glyph-name="Khei-coptic" unicode="&#x3e6;" horiz-adv-x="1225" 
d="M102 -371l48 230h401q75 0 122 44t63 119l77 360q22 109 -13 154.5t-117 45.5q-55 0 -127.5 -11t-137.5 -34l-115 -537h-265l285 1346h265l-126 -594q60 17 110.5 31t103 22t119.5 8q73 0 135.5 -24t104.5 -75.5t55 -134t-12 -199.5l-79 -374q-26 -127 -91 -211
t-154 -125t-187 -41h-465z" />
    <glyph glyph-name="khei-coptic" unicode="&#x3e7;" horiz-adv-x="1070" 
d="M61 -372l43 202h313q55 0 89.5 21t56 59.5t33.5 91.5l66 310q21 100 -1 151t-92 51q-62 0 -113.5 -29.5t-92.5 -68.5l-89 -416h-249l213 1002h249l-89 -415q50 49 115 89.5t162 40.5q92 0 155 -46.5t87 -133t-2 -208.5l-75 -338q-38 -172 -138 -267.5t-304 -95.5h-337z
" />
    <glyph glyph-name="Hori-coptic" unicode="&#x3e8;" horiz-adv-x="1118" 
d="M457 -18q-139 0 -242 52.5t-150 149.5t-19 232q21 95 74.5 163t151.5 121t249 104q112 37 173.5 67t89 63.5t37.5 80.5q15 64 -17.5 104.5t-99.5 40.5q-68 0 -120.5 -38t-69.5 -117h-271q40 188 166.5 273t315.5 85q125 0 214.5 -48t129.5 -137t14 -213
q-21 -100 -76.5 -162t-146 -104t-218.5 -84q-117 -39 -185 -74.5t-100 -74t-43 -87.5q-21 -94 27.5 -140.5t135.5 -46.5q70 0 128.5 26t101 94t64.5 189h272q-39 -193 -119.5 -306.5t-198 -163t-268.5 -49.5z" />
    <glyph glyph-name="hori-coptic" unicode="&#x3e9;" horiz-adv-x="983" 
d="M401 -16q-197 0 -298 87.5t-65 257.5q26 123 119 189t250 108q123 32 181 68.5t65 81.5q11 50 -19.5 71t-78.5 21q-60 0 -102 -28.5t-58 -102.5h-230q23 116 82 181t143 91.5t183 26.5q73 0 137 -18.5t110 -55t65.5 -93.5t3.5 -135q-18 -83 -65 -133t-120 -81t-172 -58
q-86 -24 -140 -48t-81.5 -55t-37.5 -77q-13 -67 30 -98t117 -31q87 0 139.5 49t75.5 152h231q-26 -136 -89 -217t-157.5 -117t-218.5 -36z" />
    <glyph glyph-name="Gangia-coptic" unicode="&#x3ea;" horiz-adv-x="1121" 
d="M777 53l-108 823q-11 87 -35 146.5t-78.5 90t-158.5 30.5h-108l48 223h111q117 0 195.5 -30.5t129.5 -88t80 -138t45 -180.5l120 -753zM-68 0l39 176l138 40h820l89 -40l-38 -176h-1048zM176 53l-205 123l438 753q81 139 170.5 236.5t202.5 149t263 51.5h97l-47 -223h-93
q-96 0 -161.5 -31t-113.5 -89t-94 -139z" />
    <glyph glyph-name="gangia-coptic" unicode="&#x3eb;" horiz-adv-x="1031" 
d="M707 40l-133 592q-19 87 -52 129.5t-89 57.5t-145 15h-93l40 190h97q110 0 184.5 -21.5t122.5 -62.5t77 -100.5t49 -136.5l137 -527zM-39 0l37 176l132 14h678l94 -14l-37 -176h-904zM168 53l-170 123l363 531q67 98 139.5 169t174.5 109.5t254 38.5h82l-39 -190h-78
q-91 0 -150 -13.5t-105.5 -56.5t-103.5 -132z" />
    <glyph glyph-name="Shima-coptic" unicode="&#x3ec;" horiz-adv-x="1290" 
d="M622 -16q-191 0 -316 96t-168.5 271t6.5 411q45 209 140 337.5t252.5 187.5t389.5 59h382l-46 -217h-378q-148 0 -242.5 -40.5t-150.5 -135.5t-90 -260q-33 -161 -12 -271.5t86 -167t165 -56.5q118 0 185.5 61.5t90.5 175.5q26 129 -24 200.5t-165 71.5q-66 0 -138.5 -19
t-142.5 -57.5t-127 -96.5l30 204q93 82 204 132t242 50q143 0 243.5 -59.5t141.5 -176t4 -287.5q-42 -198 -181.5 -305.5t-380.5 -107.5z" />
    <glyph glyph-name="shima-coptic" unicode="&#x3ed;" horiz-adv-x="1034" 
d="M458 -16q-145 0 -241 64t-130.5 186.5t1.5 296.5q35 163 114 263.5t211 147.5t323 47h272l-38 -177h-272q-112 0 -187.5 -29.5t-121.5 -98.5t-72 -190q-37 -171 8.5 -253t146.5 -82q88 0 137 43t68 133q21 100 -21 151t-124 51h-76l35 165h92q132 0 212.5 -49
t109.5 -136.5t3 -205.5q-34 -166 -143 -246.5t-307 -80.5z" />
    <glyph glyph-name="Dei-coptic" unicode="&#x3ee;" horiz-adv-x="1156" 
d="M345 0l287 1346h264l-287 -1346h-264zM37 576q43 233 153.5 339.5t320.5 106.5h138l-47 -223h-92q-54 0 -98 -21t-74 -70t-44 -132h-257zM904 576q13 76 5.5 125.5t-38.5 73.5t-91 24h-90l48 223h75q209 0 298.5 -108.5t49.5 -337.5h-257z" />
    <glyph glyph-name="dei-coptic" unicode="&#x3ef;" horiz-adv-x="916" 
d="M178 -358l348 1632h249l-347 -1632h-250zM60 649l19 87q31 149 135 219.5t267 70.5l-39 -191q-83 0 -122 -39t-58 -121l-5 -26h-197zM633 835l40 191h321l-40 -191h-321z" />
    <glyph glyph-name="kappaSymbol" unicode="&#x3f0;" horiz-adv-x="1150" 
d="M946 -8q-125 -1 -196 33.5t-95 98.5t-6 150q9 38 30.5 104t49 133t51.5 109l-566 -620h-246q79 116 154.5 277.5t112.5 339.5q36 122 17.5 174t-84.5 52h-27l41 188h55q113 0 183 -30t93.5 -101t-2.5 -194q-16 -76 -44 -153t-75 -168l569 637h243q-48 -75 -93.5 -158.5
t-84.5 -169t-67.5 -168t-44.5 -156.5q-21 -96 -1 -144.5t94 -48.5h26l-39 -185h-48z" />
    <glyph glyph-name="rhoSymbol" unicode="&#x3f1;" horiz-adv-x="1064" 
d="M529 -17q-87 0 -154.5 35.5t-98.5 88.5l42 198q16 -51 62 -91t124 -40q82 0 136.5 76.5t93.5 263.5q24 108 16 181.5t-46 111t-105 37.5q-88 0 -142 -72.5t-89 -235.5l-112 -535l-241 36l106 508q38 176 108.5 283.5t170 156.5t225.5 49q133 0 225 -72t128 -200.5
t0 -298.5q-37 -178 -101.5 -283.5t-152 -151t-195.5 -45.5zM275 -358q-170 0 -233.5 101t-26.5 294l241 -36q-18 -84 6.5 -124t85.5 -40h455l-41 -195h-487z" />
    <glyph glyph-name="sigmaLunateSymbol" unicode="&#x3f2;" horiz-adv-x="1014" 
d="M457 -18q-123 0 -217 61.5t-137 185.5t-12 312q42 251 171.5 377t322.5 126q118 0 199 -39t122.5 -111t40.5 -168h-243q0 40 -14.5 71t-43.5 48.5t-74 17.5q-100 0 -156 -94t-81 -242q-31 -183 6.5 -274t133.5 -91q69 0 113.5 41t59.5 116h241q-35 -173 -145 -255
t-287 -82z" />
    <glyph glyph-name="yot" unicode="&#x3f3;" horiz-adv-x="496" 
d="M-215 -359l40 195h54q55 0 89 32t49 102l225 1056h247l-229 -1070q-30 -144 -114.5 -229.5t-261.5 -85.5h-99zM399 1124q-67 0 -103 35t-36 84q0 48 36.5 82.5t104.5 34.5q69 0 103.5 -34t34.5 -82q0 -50 -36 -85t-104 -35z" />
    <glyph glyph-name="ThetaSymbol" unicode="&#x3f4;" horiz-adv-x="1336" 
d="M501 577l37 206h367l-39 -206h-365zM607 -19q-186 0 -305 94t-163 260t-3 383q37 203 125.5 348t226.5 222.5t323 77.5q183 0 301 -93.5t161.5 -260.5t3.5 -388q-36 -199 -122.5 -343.5t-223.5 -222t-324 -77.5zM625 197q111 0 189 61t127.5 166t73.5 239q22 124 9 235
t-69.5 181t-166.5 70q-107 0 -185 -58.5t-128 -163t-76 -243.5q-22 -125 -10 -236t69 -181t167 -70z" />
    <glyph glyph-name="epsilonLunateSymbol" unicode="&#x3f5;" horiz-adv-x="752" 
d="M592 417h-318l45 206h317zM464 -16q-145 0 -241.5 67t-132.5 192.5t1 301.5q36 168 118.5 276t198.5 159.5t252 51.5l126 1l-41 -192h-97q-117 0 -199 -93.5t-113 -240.5q-33 -151 9.5 -241.5t159.5 -90.5h116l-41 -191h-116z" />
    <glyph glyph-name="epsilonLunateReversedSymbol" unicode="&#x3f6;" horiz-adv-x="1012" 
d="M397 387l43 205h328l-44 -205h-327zM432 -18q-118 0 -201.5 44.5t-125.5 127.5t-34 196h242q-3 -44 7 -88t40 -72.5t86 -28.5q100 0 155 92t75 225q29 193 -7 286.5t-125 93.5q-75 0 -122 -47t-64 -118h-237q35 164 145.5 254t289.5 90q120 0 212 -62.5t135.5 -189
t15.5 -316.5q-37 -237 -168 -362t-319 -125z" />
    <glyph glyph-name="Sho" unicode="&#x3f7;" horiz-adv-x="1129" 
d="M107 244l46 212h428q83 0 147 49t84 152q24 113 -20.5 173t-135.5 60h-412l46 209h400q135 0 231.5 -58t138 -165.5t10.5 -256.5q-40 -194 -173 -284.5t-336 -90.5h-454zM37 0l286 1346h265l-285 -1346h-266z" />
    <glyph glyph-name="sho" unicode="&#x3f8;" horiz-adv-x="1080" 
d="M-52 -359l367 1706h243l-100 -486q49 68 117 112t162 44q103 0 171.5 -67t91 -194t-16.5 -306q-51 -241 -163 -354.5t-260 -113.5q-88 0 -154 41t-104 113l-107 -495h-247zM524 171q75 0 127 76t86 234q24 110 19.5 188.5t-33.5 120t-82 41.5q-51 0 -94 -23.5t-75 -56
t-51 -58.5l-81 -378q23 -58 71.5 -101t112.5 -43z" />
    <glyph glyph-name="SigmaLunateSymbol" unicode="&#x3f9;" horiz-adv-x="1292" 
d="M615 -18q-178 0 -298.5 88.5t-169 252.5t-12.5 390q33 203 125 349t232 224t315 78q145 0 252.5 -53.5t163.5 -154t49 -240.5h-269q3 73 -23.5 124t-77.5 78.5t-121 27.5q-109 0 -186 -61.5t-125.5 -167t-70.5 -237.5q-23 -137 -7.5 -246t74 -171.5t163.5 -62.5
q113 0 190 62t109 194h272q-55 -245 -206.5 -359.5t-378.5 -114.5z" />
    <glyph glyph-name="San" unicode="&#x3fa;" horiz-adv-x="1494" 
d="M37 0l286 1346h302l164 -630l427 630h320l-287 -1346h-263l214 996l-385 -573h-163l-149 573l-213 -996h-253z" />
    <glyph glyph-name="san" unicode="&#x3fb;" horiz-adv-x="1321" 
d="M659 535l377 492h260l-219 -1027h-234l150 702l-319 -420h-123l-141 420l-226 -1060h-235l295 1385h246z" />
    <glyph glyph-name="rhoStrokeSymbol" unicode="&#x3fc;" horiz-adv-x="1079" 
d="M-150 -221l28 134h555l-28 -134h-555zM273 101l38 185q23 -43 73 -77.5t120 -34.5q55 0 99.5 32t79 102t57.5 184q36 176 -2 265.5t-139 89.5q-55 0 -96.5 -26t-73.5 -92.5t-59 -188.5l-191 -898h-249l198 918q38 173 101.5 277.5t158.5 152t226 47.5q140 0 236 -67
t132 -199t-2 -327q-31 -158 -96.5 -260t-155.5 -151.5t-195 -49.5q-90 0 -158 34.5t-102 83.5z" />
    <glyph glyph-name="SigmaLunateReversedSymbol" unicode="&#x3fd;" horiz-adv-x="1295" 
d="M568 -18q-149 0 -261 56.5t-170 161.5t-48 252h271q-3 -81 24.5 -137.5t78.5 -85.5t120 -29q112 0 188.5 61.5t123 166.5t68.5 239q23 137 7.5 245t-73 171t-163.5 63q-111 0 -192 -67.5t-113 -207.5h-271q35 166 114.5 275.5t201 163.5t281.5 54q177 0 296 -87.5
t166.5 -251.5t10.5 -392q-34 -207 -124 -352.5t-226.5 -222t-309.5 -76.5z" />
    <glyph glyph-name="SigmaLunateDottedSymbol" unicode="&#x3fe;" horiz-adv-x="1292" 
d="M615 -18q-178 0 -298.5 88.5t-169 252.5t-12.5 390q33 203 125 349t232 224t315 78q145 0 252.5 -53.5t163.5 -154t49 -240.5h-269q3 73 -23.5 124t-77.5 78.5t-121 27.5q-109 0 -186 -61.5t-125.5 -167t-70.5 -237.5q-23 -137 -7.5 -246t74 -171.5t163.5 -62.5
q113 0 190 62t109 194h272q-55 -245 -206.5 -359.5t-378.5 -114.5zM739 565q-66 0 -103 35.5t-37 87.5q0 50 37.5 86t104.5 36q68 0 102.5 -35.5t34.5 -85.5q0 -53 -35.5 -88.5t-103.5 -35.5z" />
    <glyph glyph-name="SigmaLunateDottedReversedSymbol" unicode="&#x3ff;" horiz-adv-x="1301" 
d="M574 -18q-149 0 -260.5 56.5t-170 161.5t-48.5 252h271q-3 -81 24.5 -137.5t79 -85.5t119.5 -29q112 0 188.5 61.5t122.5 166.5t69 239q23 137 8 245t-73 171t-164 63q-114 0 -197 -69t-116 -215h-271q35 166 115 277.5t203 168t287 56.5q177 0 296 -87.5t166.5 -251.5
t10.5 -392q-33 -207 -123.5 -352.5t-227 -222t-309.5 -76.5zM636 549q-67 0 -103.5 35.5t-36.5 87.5q0 50 37 85.5t105 35.5t103 -34.5t35 -85.5q0 -53 -36 -88.5t-104 -35.5z" />
    <glyph glyph-name="Iegrave-cy" unicode="&#x400;" horiz-adv-x="1041" 
d="M37 0l286 1346h802l-45 -217h-538l-71 -336h486l-46 -210h-485l-78 -367h538l-46 -216h-803zM698 1456l-203 276h262l114 -276h-173z" />
    <glyph glyph-name="Io-cy" unicode="&#x401;" horiz-adv-x="1041" 
d="M37 0l286 1346h802l-45 -217h-538l-71 -336h486l-46 -210h-485l-78 -367h538l-46 -216h-803zM931 1479q-42 0 -74 32.5t-32 77.5q0 46 32.5 79.5t75.5 33.5q44 0 76 -32.5t32 -79.5q0 -44 -32.5 -77.5t-77.5 -33.5zM590 1479q-44 0 -76 32.5t-32 77.5q0 46 32 79.5
t77 33.5q43 0 75 -32.5t32 -79.5q0 -44 -32 -77.5t-76 -33.5z" />
    <glyph glyph-name="Dje-cy" unicode="&#x402;" horiz-adv-x="1417" 
d="M224 0l239 1127h-312l48 219h886l-46 -219h-310l-239 -1127h-266zM601 -321l48 223h93q57 0 99 30t72 93t50 164l64 313q22 111 -20 156t-121 45q-55 0 -124 -11.5t-137 -33.5l44 193q82 28 153 44.5t159 16.5q109 0 189.5 -46t114.5 -139.5t3 -239.5l-74 -358
q-32 -159 -92.5 -258.5t-156 -145.5t-234.5 -46h-130z" />
    <glyph glyph-name="Gje-cy" unicode="&#x403;" horiz-adv-x="893" 
d="M324 1346h717l-45 -207h-452l-243 -1139h-264zM577 1455l216 275h273l-305 -275h-184z" />
    <glyph glyph-name="E-cy" unicode="&#x404;" horiz-adv-x="1294" 
d="M144 583l45 210h657l-45 -210h-657zM609 -18q-173 0 -292.5 87t-169 249t-13.5 389q34 206 126 353t232.5 225.5t315.5 78.5q146 0 255 -57t165.5 -162.5t45.5 -251.5h-271q4 83 -23.5 139t-77 85.5t-114.5 29.5q-111 0 -190.5 -61.5t-129.5 -167.5t-73 -240
q-23 -136 -7 -244.5t75 -171.5t165 -63q112 0 193 68.5t113 215.5h272q-36 -172 -119.5 -283.5t-204.5 -164.5t-273 -53z" />
    <glyph glyph-name="Dze-cy" unicode="&#x405;" horiz-adv-x="1091" 
d="M496 -17q-140 0 -241 46t-154 141t-49 241h272q-3 -112 43.5 -165t149.5 -53q82 0 135 36.5t65 112.5q10 53 -6.5 97.5t-67 85.5t-145.5 83q-105 48 -178 112t-104.5 148t-12.5 191q18 100 80 168.5t160 103.5t223 34q123 -1 218 -42.5t149.5 -127.5t52.5 -219h-271
q3 92 -42.5 139t-124.5 47q-74 0 -124.5 -34.5t-59.5 -94.5q-7 -43 8.5 -80.5t65.5 -75.5t147 -81q115 -52 188 -114t102 -147t9 -206q-19 -121 -84.5 -197t-168.5 -112.5t-235 -36.5z" />
    <glyph glyph-name="I-cy" unicode="&#x406;" horiz-adv-x="548" 
d="M37 0l286 1346h265l-285 -1346h-266z" />
    <glyph glyph-name="Yi-cy" unicode="&#x407;" horiz-adv-x="548" 
d="M37 0l286 1346h265l-285 -1346h-266zM653 1478q-42 0 -74 32.5t-32 77.5q0 46 32.5 79.5t75.5 33.5q44 0 76 -32.5t32 -79.5q0 -44 -32.5 -77.5t-77.5 -33.5zM312 1478q-44 0 -76 32.5t-32 77.5q0 46 32 79.5t77 33.5q43 0 75 -32.5t32 -79.5q0 -44 -32 -77.5t-76 -33.5z
" />
    <glyph glyph-name="Je-cy" unicode="&#x408;" horiz-adv-x="675" 
d="M-76 -16l48 223h82q90 0 145 56.5t82 182.5l191 900h258l-196 -925q-32 -150 -90 -246.5t-153 -143.5t-239 -47h-128z" />
    <glyph glyph-name="Lje-cy" unicode="&#x409;" horiz-adv-x="1799" 
d="M-98 -16l47 223h35q54 0 95.5 27t81.5 97.5t89 199t118 331.5l167 484h251l-176 -525q-69 -207 -125.5 -352.5t-109.5 -240t-113 -148t-136 -75t-178 -21.5h-46zM730 0l236 1124h-462l103 222h674l-286 -1346h-265zM1013 201h178q61 0 108 15t80 57.5t52 123.5
q25 118 -25 179.5t-141 61.5h-171zM879 0l280 839h133q143 0 243.5 -56.5t142.5 -163t9 -255.5q-31 -140 -98.5 -219t-168 -112t-233.5 -33h-308z" />
    <glyph glyph-name="Nje-cy" unicode="&#x40a;" horiz-adv-x="1765" 
d="M37 0l287 1346h264l-114 -534h470l-50 -230h-469l-124 -582h-264zM707 0l287 1346h265l-288 -1346h-264zM773 0l389 828h100q144 0 243 -54.5t140 -157t8 -247.5q-29 -134 -93.5 -215t-166 -117.5t-241.5 -36.5h-379zM983 201h180q56 0 102.5 17.5t80 60t50.5 116.5
q25 117 -24 174.5t-134 57.5h-178z" />
    <glyph glyph-name="Tshe-cy" unicode="&#x40b;" horiz-adv-x="1415" 
d="M224 0l239 1127h-312l48 219h886l-46 -219h-310l-59 -276q82 26 158.5 43.5t168.5 17.5q107 0 184 -44t108.5 -134.5t1.5 -230.5l-107 -503h-262l107 511q23 103 -14.5 148t-114.5 45q-63 0 -137 -12t-136 -33l-138 -659h-265z" />
    <glyph glyph-name="Kje-cy" unicode="&#x40c;" horiz-adv-x="1122" 
d="M37 0l286 1346h265l-135 -637l540 637h300l-576 -657l317 -689h-282l-303 689l-146 -689h-266zM663 1456l216 275h273l-305 -275h-184z" />
    <glyph glyph-name="Iigrave-cy" unicode="&#x40d;" horiz-adv-x="1312" 
d="M1067 0h-245l198 930l-713 -930h-270l287 1346h246l-199 -928l713 928h270zM786 1456l-203 276h262l114 -276h-173z" />
    <glyph glyph-name="Ushort-cy" unicode="&#x40e;" horiz-adv-x="1091" 
d="M79 -2l45 216h76q62 0 108.5 19.5t77.5 67.5l11 16l-220 1029h281l132 -755l387 755h292l-616 -1087q-47 -84 -96 -136t-104 -78.5t-120.5 -36.5t-148.5 -10h-105zM724 1461q-94 0 -160 35.5t-99.5 97t-28.5 139.5h190q-3 -50 15.5 -79.5t47 -41.5t57.5 -12
q32 0 64.5 11.5t58.5 40.5t37 81h189q-40 -135 -132.5 -203.5t-238.5 -68.5z" />
    <glyph glyph-name="Dzhe-cy" unicode="&#x40f;" horiz-adv-x="1309" 
d="M37 0l286 1346h264l-236 -1128h497l236 1128h265l-285 -1346h-1027zM365 -292l108 497h247l-109 -497h-246z" />
    <glyph glyph-name="A-cy" unicode="&#x410;" horiz-adv-x="1125" 
d="M-105 0l708 1346h278l138 -1346h-269l-12 311h-416l-147 -311h-280zM435 537h285l-26 551z" />
    <glyph glyph-name="Be-cy" unicode="&#x411;" horiz-adv-x="1133" 
d="M37 0l287 1346h789l-48 -227h-525l-239 -1119h-264zM141 0l365 836h136q148 0 244 -57.5t131 -166t1 -259.5q-28 -126 -98.5 -204t-178 -113.5t-246.5 -35.5h-354zM326 201h185q98 0 163.5 45.5t89.5 154.5q24 117 -24.5 175.5t-139.5 58.5h-173z" />
    <glyph glyph-name="Ve-cy" unicode="&#x412;" horiz-adv-x="1150" 
d="M37 0l286 1346l396 1q142 1 233.5 -49.5t128 -140t10.5 -206.5q-20 -95 -86 -156.5t-152 -83.5q63 -21 111 -71t69 -125t0 -173q-23 -108 -91 -184.5t-178.5 -117t-260.5 -40.5h-466zM350 225h170q99 0 162 39t82 127q21 102 -26 152.5t-135 50.5h-176zM470 795h139
q94 0 150 43.5t72 123.5q17 77 -21 123.5t-114 46.5h-154z" />
    <glyph glyph-name="Ge-cy" unicode="&#x413;" horiz-adv-x="893" 
d="M324 1346h717l-45 -207h-452l-243 -1139h-264z" />
    <glyph glyph-name="De-cy" unicode="&#x414;" horiz-adv-x="1343" 
d="M-153 -292l106 505h152q55 101 110.5 232t108.5 280.5t103 307.5t94 313h791l-240 -1127h185l-108 -511h-246l63 292h-810l-63 -292h-246zM378 219h429l187 907h-302q-26 -92 -55 -189t-60 -194t-64 -190.5t-67 -178t-68 -155.5z" />
    <glyph glyph-name="Ie-cy" unicode="&#x415;" horiz-adv-x="1041" 
d="M37 0l286 1346h802l-45 -217h-538l-71 -336h486l-46 -210h-485l-78 -367h538l-46 -216h-803z" />
    <glyph glyph-name="Zhe-cy" unicode="&#x416;" horiz-adv-x="1658" 
d="M592 0l287 1346h255l-135 -643l539 643h293l-573 -645l312 -701h-279l-295 689l-149 -689h-255zM-131 0l615 719l-302 627h266l294 -644l-3 -13l-567 -689h-303z" />
    <glyph glyph-name="Ze-cy" unicode="&#x417;" horiz-adv-x="1062" 
d="M463 -17q-146 0 -244 53t-143 150.5t-32 229.5h256q-8 -104 32.5 -164.5t140.5 -60.5q93 0 142.5 47t68.5 138q22 100 -21 162.5t-143 62.5h-77l45 207h104q88 0 138.5 40t67.5 113q13 60 -1 104t-52 68t-97 24q-85 0 -138.5 -44.5t-75.5 -150.5h-255q24 139 91 227.5
t170 132t232 43.5q125 0 221 -49.5t142 -141t19 -217.5q-22 -106 -95.5 -172.5t-184.5 -87.5q61 -19 106.5 -68.5t64 -126.5t-3.5 -178q-23 -105 -79.5 -181.5t-154.5 -118t-244 -41.5z" />
    <glyph glyph-name="Ii-cy" unicode="&#x418;" horiz-adv-x="1312" 
d="M1067 0h-245l198 930l-713 -930h-270l287 1346h246l-199 -928l713 928h270z" />
    <glyph glyph-name="Iishort-cy" unicode="&#x419;" horiz-adv-x="1312" 
d="M1067 0h-245l198 930l-713 -930h-270l287 1346h246l-199 -928l713 928h270zM868 1461q-94 0 -160 35.5t-99.5 97t-28.5 139.5h190q-3 -50 15.5 -79.5t47 -41.5t57.5 -12q32 0 64.5 11.5t58.5 40.5t37 81h189q-40 -135 -132.5 -203.5t-238.5 -68.5z" />
    <glyph glyph-name="Ka-cy" unicode="&#x41a;" horiz-adv-x="1122" 
d="M37 0l286 1346h265l-135 -637l540 637h300l-576 -657l317 -689h-282l-303 689l-146 -689h-266z" />
    <glyph glyph-name="El-cy" unicode="&#x41b;" horiz-adv-x="1270" 
d="M760 0l238 1124h-472l62 222h723l-286 -1346h-265zM-101 -16l47 223h35q54 0 96 27t82 97.5t89 199t118 331.5l166 484h251l-175 -525q-69 -207 -125.5 -352.5t-110 -240t-113 -148t-135.5 -75t-178 -21.5h-47z" />
    <glyph glyph-name="Em-cy" unicode="&#x41c;" horiz-adv-x="1494" 
d="M37 0l286 1346h302l164 -630l427 630h320l-287 -1346h-263l214 996l-385 -573h-163l-149 573l-213 -996h-253z" />
    <glyph glyph-name="En-cy" unicode="&#x41d;" horiz-adv-x="1327" 
d="M37 0l286 1346h265l-114 -534h516l114 534h265l-286 -1346h-265l123 582h-515l-123 -582h-266z" />
    <glyph glyph-name="O-cy" unicode="&#x41e;" horiz-adv-x="1336" 
d="M607 -19q-186 0 -305 94t-163 260t-3 383q37 203 125.5 348t226.5 222.5t323 77.5q183 0 301 -93.5t161.5 -260.5t3.5 -388q-36 -199 -122.5 -343.5t-223.5 -222t-324 -77.5zM625 197q111 0 189 61t127.5 166t73.5 239q22 124 9 235t-69.5 181t-166.5 70
q-107 0 -185 -58.5t-128 -163t-76 -243.5q-22 -125 -10 -236t69 -181t167 -70z" />
    <glyph glyph-name="Pe-cy" unicode="&#x41f;" horiz-adv-x="1309" 
d="M37 0l287 1346h1026l-286 -1346h-266l242 1127h-498l-241 -1127h-264z" />
    <glyph glyph-name="Er-cy" unicode="&#x420;" horiz-adv-x="1131" 
d="M37 0l286 1346h399q149 0 251 -58.5t142 -168.5t6 -268q-28 -134 -102.5 -213.5t-179 -114t-223.5 -34.5h-210l-103 -489h-266zM451 700h181q81 0 141 46.5t81 147.5q26 120 -17 180.5t-128 60.5h-166z" />
    <glyph glyph-name="Es-cy" unicode="&#x421;" horiz-adv-x="1292" 
d="M615 -18q-178 0 -298.5 88.5t-169 252.5t-12.5 390q33 203 125 349t232 224t315 78q145 0 252.5 -53.5t163.5 -154t49 -240.5h-269q3 73 -23.5 124t-77.5 78.5t-121 27.5q-109 0 -186 -61.5t-125.5 -167t-70.5 -237.5q-23 -137 -7.5 -246t74 -171.5t163.5 -62.5
q113 0 190 62t109 194h272q-55 -245 -206.5 -359.5t-378.5 -114.5z" />
    <glyph glyph-name="Te-cy" unicode="&#x422;" horiz-adv-x="921" 
d="M225 0l240 1128h-311l46 218h889l-47 -218h-312l-240 -1128h-265z" />
    <glyph glyph-name="U-cy" unicode="&#x423;" horiz-adv-x="1091" 
d="M79 -2l45 216h76q62 0 108.5 19.5t77.5 67.5l11 16l-220 1029h281l132 -755l387 755h292l-616 -1087q-47 -84 -96 -136t-104 -78.5t-120.5 -36.5t-148.5 -10h-105z" />
    <glyph glyph-name="Ef-cy" unicode="&#x424;" horiz-adv-x="1500" 
d="M603 131q-118 0 -217.5 41.5t-167 121.5t-92 195.5t6.5 263.5q34 160 123.5 264.5t225 155t307.5 50.5h50l-42 -199h-45q-150 0 -237.5 -79.5t-118.5 -226.5q-25 -116 -1.5 -204t88 -137t160.5 -49h22l-43 -197h-19zM504 -41l304 1427h257l-306 -1427h-255zM730 131
l42 198h46q148 0 236 81t120 231q27 122 1.5 208t-90 131t-159.5 45h-23l43 198h20q116 0 215 -41.5t167.5 -121t94.5 -194.5t-5 -261q-37 -170 -130.5 -274.5t-228.5 -152t-298 -47.5h-51z" />
    <glyph glyph-name="Ha-cy" unicode="&#x425;" horiz-adv-x="1096" 
d="M-101 0l548 702l-228 644h288l120 -453l318 453h297l-504 -650l250 -696h-291l-135 484l-356 -484h-307z" />
    <glyph glyph-name="Tse-cy" unicode="&#x426;" horiz-adv-x="1381" 
d="M37 0l286 1346h264l-240 -1128h497l240 1128h265l-285 -1346h-1027zM941 -292l63 292l24 139l14 80h252l-107 -511h-246z" />
    <glyph glyph-name="Che-cy" unicode="&#x427;" horiz-adv-x="1228" 
d="M718 -1l112 528q-66 -24 -139.5 -42.5t-158.5 -18.5q-114 0 -195.5 51t-114.5 153t0 254l87 421h265l-96 -452q-21 -104 16 -157.5t125 -53.5q61 0 126.5 12.5t129.5 36.5l129 614h266l-287 -1346h-265z" />
    <glyph glyph-name="Sha-cy" unicode="&#x428;" horiz-adv-x="1773" 
d="M38 0l285 1346h264l-236 -1126h959l236 1126h265l-282 -1346h-1491zM658 47l276 1299h263l-275 -1299h-264z" />
    <glyph glyph-name="Shcha-cy" unicode="&#x429;" horiz-adv-x="1852" 
d="M37 0l286 1346h264l-239 -1128h967l239 1128h266l-284 -1346h-1499zM663 47l276 1299h263l-275 -1299h-264zM1412 -292l62 292l20 120l19 98h252l-107 -510h-246z" />
    <glyph glyph-name="Hardsign-cy" unicode="&#x42a;" horiz-adv-x="1338" 
d="M243 0l240 1128h-328l46 219l594 -1l-113 -523h155q140 0 238.5 -55t139 -160.5t7.5 -258.5q-26 -128 -93.5 -204.5t-172 -111t-242.5 -34.5zM551 200h181q60 0 106.5 16.5t78.5 57.5t46 113q19 84 1.5 135t-59.5 75.5t-101 24.5h-163z" />
    <glyph glyph-name="Yeru-cy" unicode="&#x42b;" horiz-adv-x="1557" 
d="M37 0l287 1346h264l-109 -507h119q143 0 243.5 -55.5t142 -162t7.5 -257.5q-30 -138 -97 -217.5t-168.5 -113t-233.5 -33.5h-455zM344 201h161q57 0 102 17.5t78 61t49 119.5q19 86 1.5 138t-60.5 76.5t-104 24.5h-133zM1048 0l287 1346h264l-288 -1346h-263z" />
    <glyph glyph-name="Softsign-cy" unicode="&#x42c;" horiz-adv-x="1132" 
d="M37 0l287 1346h264l-287 -1346h-264zM141 0l350 839h134q141 0 241.5 -55.5t143 -163t7.5 -265.5q-29 -133 -96.5 -211t-168.5 -111t-233 -33h-378zM329 201h188q64 0 112.5 19t82.5 62.5t50 115.5q19 90 0 142t-63 75t-101 23h-171z" />
    <glyph glyph-name="Ereversed-cy" unicode="&#x42d;" horiz-adv-x="1278" 
d="M553 -18q-154 0 -267.5 58t-170 170.5t-40.5 272.5h272q-7 -137 50 -210.5t180 -73.5q106 0 177.5 54t118 153t75.5 235q30 141 19 256t-67.5 182.5t-166.5 67.5q-64 0 -122.5 -24.5t-103.5 -80t-71 -149.5h-271q37 161 120.5 265t204 155t265.5 51q179 0 299.5 -92.5
t165 -264.5t-5.5 -412q-42 -197 -131.5 -334t-223 -208t-306.5 -71zM514 583l43 210h595l-46 -210h-592z" />
    <glyph glyph-name="Iu-cy" unicode="&#x42e;" horiz-adv-x="1806" 
d="M37 0l287 1346h264l-114 -534h405l-50 -230h-404l-124 -582h-264zM1094 -19q-181 0 -294 95t-152.5 261.5t2.5 382.5q39 203 126.5 347.5t221.5 221t312 76.5q179 0 291 -96t150 -264t-3 -385q-38 -199 -124 -342.5t-218 -220t-312 -76.5zM1116 197q105 0 177.5 59
t119.5 163.5t73 237.5q20 98 19 187t-24.5 157t-72.5 107.5t-125 39.5q-101 0 -174 -57.5t-120.5 -161.5t-74.5 -243q-24 -125 -14.5 -237t62 -182t154.5 -70z" />
    <glyph glyph-name="Ia-cy" unicode="&#x42f;" horiz-adv-x="1156" 
d="M-68 0l163 342q41 87 85 147.5t101.5 96.5t137.5 48q-105 43 -144.5 149t-11.5 234q27 130 97 201t167 99.5t204 28.5h467l-287 -1346h-263l111 526h-144q-62 0 -108.5 -23t-85 -76t-79.5 -146l-124 -281h-286zM663 741h141l84 388h-160q-79 0 -136.5 -37.5t-77.5 -126.5
q-14 -67 1 -117.5t53.5 -78.5t94.5 -28z" />
    <glyph glyph-name="a-cy" unicode="&#x430;" horiz-adv-x="1016" 
d="M286 -18q-86 0 -148.5 36.5t-89.5 109.5t-7 179q24 128 110 192t221.5 86.5t306.5 28.5l17 77q16 73 5 116t-41.5 62t-74.5 19q-57 0 -99.5 -26t-55.5 -90h-240q29 145 135.5 209t272.5 64q111 0 197.5 -39t125.5 -127t7 -236l-137 -643h-229l19 124q-57 -63 -127 -102.5
t-168 -39.5zM380 145q48 0 91 23t79 58t61 67l41 195q-184 -2 -267 -49t-100 -140q-13 -69 13.5 -111.5t81.5 -42.5z" />
    <glyph glyph-name="be-cy" unicode="&#x431;" horiz-adv-x="1051" 
d="M121 651q32 144 75.5 250t103.5 182.5t138 127.5q83 52 177.5 84t212 51.5t267.5 37.5l18 2l-46 -213l-19 -2q-153 -15 -251 -33t-158 -38.5t-102 -47.5q-46 -30 -79 -82.5t-54.5 -116.5t-34.5 -129zM479 -16q-144 0 -239 75t-128 223.5t9 368.5l179 72q26 58 82.5 114.5
t135 93.5t169.5 37q98 0 172 -58t103 -174.5t-9 -292.5q-47 -229 -173 -344t-301 -115zM483 171q83 0 139 73.5t86 218.5q33 152 4.5 233.5t-117.5 81.5q-68 0 -129.5 -39.5t-104.5 -101.5l-6 -27q-33 -137 -24 -235t49 -151t103 -53z" />
    <glyph glyph-name="ve-cy" unicode="&#x432;" horiz-adv-x="980" 
d="M25 0l221 1026h343q114 0 191.5 -35.5t110 -105.5t9.5 -176q-14 -66 -59 -111.5t-118 -71.5q79 -19 122.5 -95.5t19.5 -188.5q-17 -82 -67.5 -135.5t-135.5 -80t-206 -26.5h-431zM308 180h147q46 0 82.5 9.5t60.5 34.5t34 70q14 69 -19 109t-95 40h-151zM402 612h131
q48 0 86.5 22t51.5 79q14 61 -12.5 99t-81.5 38h-124z" />
    <glyph glyph-name="ge-cy" unicode="&#x433;" horiz-adv-x="727" 
d="M25 0l219 1026h249l-218 -1026h-250zM343 837l40 189h428l-41 -189h-427z" />
    <glyph glyph-name="de-cy" unicode="&#x434;" horiz-adv-x="1168" 
d="M-141 -256l94 447h133q80 160 159.5 368t156.5 467h682l-176 -835h173l-96 -447h-230l55 256h-666l-55 -256h-230zM347 191h317l136 643h-221q-33 -115 -70.5 -224t-77.5 -213t-84 -206z" />
    <glyph glyph-name="ie-cy" unicode="&#x435;" horiz-adv-x="1025" 
d="M463 -17q-139 0 -231.5 71.5t-129.5 199.5t-8 298q26 157 91.5 267t166.5 167.5t232 57.5q138 0 228 -69t121.5 -200.5t-5.5 -320.5h-602q-10 -83 0.5 -150t47.5 -106.5t104 -39.5q57 0 99.5 28t59.5 89h245q-43 -147 -149.5 -219.5t-269.5 -72.5zM360 619h345
q10 79 -3 136t-46.5 87.5t-84.5 30.5q-77 0 -133 -63.5t-78 -190.5z" />
    <glyph glyph-name="zhe-cy" unicode="&#x436;" horiz-adv-x="1411" 
d="M-130 0l480 555l-239 471h249l236 -472l99 472h241l-100 -472l416 472h266l-437 -483l242 -543h-258l-232 543l-116 -543h-241l117 543l-438 -543h-285z" />
    <glyph glyph-name="ze-cy" unicode="&#x437;" horiz-adv-x="940" 
d="M388 -17q-191 0 -285 88t-93 251h230q-2 -73 38.5 -116.5t125.5 -43.5q82 0 120.5 30.5t49.5 86.5q18 79 -21 126t-124 47h-60l32 167h82q71 0 110 30t49 73q15 73 -22.5 112t-108.5 39q-72 0 -121.5 -34t-61.5 -101h-226q18 106 80.5 174t154 100.5t196.5 32.5
q108 0 191 -38.5t123.5 -113.5t17.5 -183q-14 -63 -67 -112t-138 -68q50 -14 89.5 -53.5t57 -99t1.5 -136.5q-26 -129 -131 -193.5t-289 -64.5z" />
    <glyph glyph-name="ii-cy" unicode="&#x438;" horiz-adv-x="1069" 
d="M309 -13q-89 0 -148 44.5t-79.5 130t5.5 209.5l140 655h249l-140 -657q-19 -89 4.5 -137t85.5 -48q41 0 78.5 17t71 43t63.5 53l156 729h249l-218 -1026h-241l27 145q-38 -41 -82 -77.5t-97.5 -58.5t-123.5 -22z" />
    <glyph glyph-name="iishort-cy" unicode="&#x439;" horiz-adv-x="1069" 
d="M309 -13q-89 0 -148 44.5t-79.5 130t5.5 209.5l140 655h249l-140 -657q-19 -89 4.5 -137t85.5 -48q41 0 78.5 17t71 43t63.5 53l156 729h249l-218 -1026h-241l27 145q-38 -41 -82 -77.5t-97.5 -58.5t-123.5 -22zM654 1107q-134 0 -206.5 78.5t-66.5 194.5h182
q-3 -71 33 -100.5t80 -29.5q49 0 91 30t56 100h181q-38 -135 -124.5 -204t-225.5 -69z" />
    <glyph glyph-name="ka-cy" unicode="&#x43a;" horiz-adv-x="978" 
d="M25 0l218 1026h248l-106 -473l423 473h277l-453 -487l258 -539h-260l-247 539l-110 -539h-248z" />
    <glyph glyph-name="el-cy" unicode="&#x43b;" horiz-adv-x="1044" 
d="M-93 -16l42 195h13q30 0 55.5 17t50.5 59.5t55 118t71 192.5l153 460h672l-219 -1026h-250l179 837h-209l-108 -329q-50 -148 -94.5 -248.5t-92.5 -161.5t-109.5 -87.5t-145.5 -26.5h-63z" />
    <glyph glyph-name="em-cy" unicode="&#x43c;" horiz-adv-x="1320" 
d="M24 0l220 1027h249l162 -480l365 480h276l-220 -1027h-234l149 702l-321 -433h-124l-137 433l-150 -702h-235z" />
    <glyph glyph-name="en-cy" unicode="&#x43d;" horiz-adv-x="1104" 
d="M610 0l220 1026h250l-220 -1026h-250zM25 0l219 1026h249l-218 -1026h-250zM275 433l38 190h480l-39 -190h-479z" />
    <glyph glyph-name="o-cy" unicode="&#x43e;" horiz-adv-x="1047" 
d="M460 -18q-139 0 -234.5 72t-130.5 205t2 314q49 229 181 349.5t323 120.5q136 0 228 -71.5t127 -203t-4 -310.5q-48 -233 -174.5 -354.5t-317.5 -121.5zM478 168q93 0 145.5 88.5t82.5 229.5q22 97 17.5 182t-38.5 137.5t-103 52.5q-66 0 -113 -41t-77.5 -111.5
t-49.5 -159.5q-21 -99 -15.5 -185t42.5 -139.5t109 -53.5z" />
    <glyph glyph-name="pe-cy" unicode="&#x43f;" horiz-adv-x="1086" 
d="M593 0l219 1026h249l-218 -1026h-250zM26 0l217 1026h249l-216 -1026h-250zM358 837l41 189h479l-41 -189h-479z" />
    <glyph glyph-name="er-cy" unicode="&#x440;" horiz-adv-x="1079" 
d="M-52 -359l296 1385h238l-18 -133q48 64 115.5 105t162.5 41q102 0 171 -66t90 -198.5t-22 -332.5q-49 -234 -160.5 -347t-260.5 -113q-88 0 -154 41t-104 113l-105 -495h-249zM525 171q75 0 126 75.5t83 226.5q43 198 16 288.5t-104 90.5q-70 0 -128.5 -41t-93.5 -95
l-83 -400q21 -61 68.5 -103t115.5 -42z" />
    </font>
</defs>
</svg>
