<?xml version="1.0" encoding="utf-8"?>
<!-- Generator: Adobe Illustrator 14.0.0, SVG Export Plug-In . SVG Version: 6.00 Build 43363)  -->
<!DOCTYPE svg PUBLIC "-//W3C//DTD SVG 1.1//EN" "http://www.w3.org/Graphics/SVG/1.1/DTD/svg11.dtd">
<svg version="1.1" id="Layer_1" xmlns="http://www.w3.org/2000/svg" xmlns:xlink="http://www.w3.org/1999/xlink" x="0px" y="0px"
	 width="250px" height="108px" viewBox="0 0 250 108" enable-background="new 0 0 250 108" xml:space="preserve">
<g>
	<path fill="#FFFFFF" d="M8.127,69.15c-0.884,0-1.371-0.494-1.371-1.389V23.066c0-0.895,0.487-1.387,1.371-1.387h10.164
		c5.288,0,9.313,2.114,11.961,6.287c2.627,4.138,3.958,10.008,3.958,17.449s-1.332,13.312-3.958,17.449
		c-2.648,4.171-6.673,6.287-11.961,6.287H8.127z M18.026,63.354c3.324,0,5.852-1.487,7.514-4.423
		c1.687-2.98,2.542-7.528,2.542-13.518s-0.855-10.538-2.542-13.517c-1.662-2.936-4.19-4.424-7.514-4.424h-5.272v35.881H18.026z"/>
	<path fill="#FFFFFF" d="M110.045,70.097c-0.715,0-1.228-0.382-1.482-1.104l-8.232-26.626l-3.206,25.702
		c-0.051,0.826-0.559,1.289-1.43,1.289h-3.24c-0.432,0-0.765-0.123-0.989-0.364c-0.232-0.251-0.337-0.622-0.311-1.104l5.821-45.455
		c0.05-0.825,0.559-1.288,1.43-1.288h0.132c0.717,0,1.229,0.38,1.483,1.103l10.156,32.238l10.154-32.23
		c0.256-0.729,0.77-1.111,1.487-1.111h0.131c0.871,0,1.379,0.463,1.431,1.306l5.817,45.418c0.028,0.5-0.076,0.871-0.307,1.123
		c-0.225,0.24-0.557,0.363-0.99,0.363h-3.239c-0.871,0-1.379-0.463-1.432-1.305l-3.204-25.687l-8.229,26.617
		c-0.257,0.731-0.77,1.112-1.487,1.112H110.045L110.045,70.097z"/>
	<path fill="#FFFFFF" d="M149.396,69.067c-0.856,0-1.327-0.492-1.327-1.387V22.984c0-0.895,0.471-1.388,1.327-1.388h3.131
		c0.857,0,1.328,0.494,1.328,1.388v44.697c0,0.895-0.471,1.388-1.328,1.388L149.396,69.067L149.396,69.067z"/>
	<path fill="#FFFFFF" d="M176.398,69.149c-0.889,0-1.378-0.494-1.378-1.392V22.905c0-0.897,0.489-1.391,1.378-1.391h18.37
		c0.889,0,1.376,0.494,1.376,1.391v3.03c0,0.897-0.487,1.391-1.376,1.391h-13.72v14.458h11.446c0.89,0,1.378,0.495,1.378,1.393v3.03
		c0,0.897-0.488,1.392-1.378,1.392h-11.446v15.737h13.72c0.889,0,1.376,0.494,1.376,1.392v3.029c0,0.897-0.487,1.393-1.376,1.393
		H176.398L176.398,69.149L176.398,69.149z"/>
	<path fill="#FFFFFF" d="M240.577,69.889c-0.615,0-1.129-0.309-1.531-0.915l-18.045-30.946v29.734c0,0.895-0.488,1.39-1.372,1.39
		h-3.258c-0.885,0-1.372-0.495-1.372-1.39V22.327c0-0.895,0.487-1.387,1.372-1.387h0.333c0.665,0,1.181,0.312,1.536,0.926
		l17.973,30.8v-29.6c0-0.895,0.487-1.387,1.37-1.387h3.259c0.886,0,1.373,0.492,1.373,1.387V68.5c0,0.896-0.487,1.389-1.373,1.389
		H240.577L240.577,69.889z"/>
	<path fill="#FFFFFF" stroke="#FFFFFF" stroke-width="0.2438" d="M58.635,77.163v-8.092l-6.088-6.342l-1.593,5.62
		c-0.16,0.651-0.591,1.003-1.244,1.003h-2.53c-0.398,0-0.689-0.117-0.866-0.348c-0.188-0.247-0.227-0.605-0.114-1.065l13.515-46.432
		c0.159-0.653,0.59-1.003,1.244-1.003s1.084,0.351,1.247,1.014l13.509,46.409c0.116,0.472,0.077,0.83-0.111,1.076
		c-0.177,0.23-0.468,0.348-0.866,0.348h-2.53c-0.653,0-1.084-0.351-1.247-1.014L69.333,62.6l-6.024,6.277v8.285L58.635,77.163
		L58.635,77.163z M58.635,64.979v-6.773H53.83l-0.387,1.365L58.635,64.979z M63.308,64.785l5.129-5.342l-0.351-1.237h-4.778V64.785
		L63.308,64.785z M66.874,53.741l-3.565-12.688v12.688H66.874z M58.635,53.741V40.958l-3.593,12.783H58.635z"/>
</g>
<g>
	<path fill="#F79533" d="M155.279,63.599c0.011,1.668-0.344,3.539-1.064,5.615c-0.193,0.56-0.457,0.839-0.791,0.839
		c0.021,0-0.273-0.032-0.887-0.097c-0.517-0.064-0.774-0.226-0.774-0.484c0-0.118,0.091-0.236,0.274-0.354
		c0.247-0.42,0.505-1.199,0.774-2.34c0.301-1.291,0.43-2.35,0.387-3.179c-0.043-0.623-0.36-0.936-0.952-0.936
		c-0.333,0-0.699,0.151-1.097,0.452c-1.323,0.989-2.625,2.797-3.904,5.421c-1.237,2.538-2.689,6.335-4.356,11.391
		c-0.247,0.742-0.646,1.194-1.194,1.355c2.84,0,5.847,0.167,9.02,0.5c0.483,0.043,0.79,0.016,0.92-0.081
		c0.054-0.043,0.188-0.295,0.403-0.758c0.129-0.279,0.263-0.42,0.403-0.42c0.14,0,0.269,0.119,0.387,0.355
		c0.463,0.893,0.694,1.521,0.694,1.888c0,0.301-0.21,0.646-0.63,1.032c-0.463,0.42-0.813,0.629-1.049,0.629
		c-0.183,0-0.473-0.059-0.871-0.177c-2.517-0.699-5.292-1.049-8.325-1.049c-0.828,0-1.641,0.032-2.437,0.097
		c-0.537,0.043-0.854,0.102-0.951,0.178l-0.307,0.516c-0.28,0.474-0.613,0.71-1,0.71c-0.248,0-0.409-0.118-0.484-0.354
		c-0.313-0.894-0.468-1.463-0.468-1.71c0-0.808,1.167-1.259,3.501-1.355c1.817-6.399,3.748-11.472,5.792-15.215
		c1.742-3.194,3.227-4.872,4.453-5.033c0.344-0.054,1.236,0.264,2.678,0.951c0.355-0.021,0.624-0.032,0.807-0.032
		c0.484,0,0.785,0.108,0.904,0.323C155.221,62.448,155.269,62.89,155.279,63.599z"/>
	<path fill="#F79533" d="M165.573,73.15c-0.021,0.957-0.253,2.227-0.693,3.808c-0.699,2.495-1.689,4.432-2.97,5.809
		c-0.677,0.731-1.431,1.097-2.259,1.097c-0.322,0-0.736-0.07-1.242-0.21c-1.011-0.064-1.834-0.381-2.468-0.951
		c-0.688-0.624-1.012-1.426-0.969-2.404c0.043-1.14,0.436-2.732,1.178-4.775c0.817-2.227,1.667-3.829,2.55-4.809
		c0.419-0.473,0.764-0.71,1.032-0.71c0.365,0,0.957,0.377,1.774,1.13c0.227-0.107,0.688-0.307,1.388-0.597
		c0.355-0.118,0.624-0.178,0.807-0.178c0.42,0,0.888,0.393,1.404,1.178C165.438,72.021,165.595,72.559,165.573,73.15z
		 M163.718,73.618c0.075-0.721,0.112-1.178,0.112-1.371c0-0.452-0.14-0.678-0.419-0.678c-0.107,0-0.248,0.021-0.42,0.064l-2.5,1.017
		c-0.291,0.118-0.458,0.178-0.501,0.178c-0.086,0-0.172-0.103-0.258-0.307c-0.624,0.764-1.205,1.866-1.742,3.308
		c-0.42,1.129-0.71,2.14-0.871,3.033c-0.119,0.603-0.178,1.15-0.178,1.646c0,1.656,0.511,2.463,1.532,2.42
		c0.409-0.011,0.85-0.172,1.323-0.484c0.903-0.613,1.748-1.839,2.533-3.679C163.083,77.033,163.546,75.318,163.718,73.618z"/>
	<path fill="#F79533" d="M177.964,72.618c-0.989,2.742-1.673,5.045-2.049,6.905c0.161-0.15,0.374-0.382,0.638-0.693
		c0.263-0.313,0.427-0.495,0.491-0.549c0.151-0.193,0.313-0.291,0.484-0.291c0.161,0,0.242,0.081,0.242,0.242
		c0,0.097-0.043,0.21-0.129,0.339c-1.012,1.495-1.684,3.007-2.017,4.534c-0.098,0.43-0.242,0.646-0.436,0.646
		c-0.184,0-0.522-0.173-1.017-0.517c-0.291-0.193-0.458-0.355-0.5-0.484c-0.055-0.118-0.055-0.354,0-0.71
		c0.451-2.731,1.016-5.001,1.693-6.809c-0.936,1.517-2.21,3.194-3.823,5.034c-1.409,1.603-2.426,2.624-3.05,3.065
		c-0.451,0.312-0.796,0.468-1.032,0.468c-0.193,0-0.489-0.156-0.888-0.468c-0.569-0.344-0.854-0.817-0.854-1.42
		c0-0.118,0.011-0.253,0.032-0.403c0.193-1.592,0.893-3.444,2.097-5.559c1.205-2.113,2.587-3.896,4.146-5.348
		c0.506-0.474,0.958-0.705,1.355-0.694c0.388,0.021,1.124,0.532,2.211,1.533c0.097,0.086,0.145,0.178,0.145,0.274
		c0,0.172-0.112,0.258-0.339,0.258c-0.086,0-0.167-0.017-0.242-0.049c-0.764-0.322-1.377-0.312-1.839,0.032
		c-1.011,0.742-2.13,2.05-3.355,3.921c-1.42,2.151-2.275,4.088-2.565,5.809c-0.011,0.075-0.017,0.145-0.017,0.21
		c0,0.269,0.107,0.403,0.323,0.403c0.365,0,0.801-0.253,1.307-0.759c1.204-1.172,2.495-2.646,3.872-4.421
		c1.409-1.839,2.313-3.227,2.711-4.162c0.29-0.688,0.478-1.173,0.564-1.452c0.14-0.484,0.29-0.727,0.451-0.727
		c0.162,0,0.538,0.221,1.13,0.662c0.247,0.183,0.382,0.35,0.403,0.5C178.131,72.069,178.082,72.295,177.964,72.618z"/>
	<path fill="#F79533" d="M199.487,58.323c0.129,0.097,0.193,0.204,0.193,0.322c0,0.205-0.129,0.307-0.387,0.307
		c-0.097,0-0.199-0.026-0.307-0.08c-0.506-0.247-0.882-0.371-1.13-0.371c-0.667,0-1.403,0.656-2.21,1.968
		c-2.958,4.83-5.114,11.262-6.47,19.297c0.279-0.269,0.656-0.688,1.13-1.259c0.279-0.333,0.483-0.5,0.612-0.5
		c0.291,0,0.317,0.167,0.081,0.5c-1.032,1.431-1.716,2.975-2.049,4.631c-0.129,0.397-0.291,0.597-0.484,0.597
		c-0.097,0-0.215-0.049-0.354-0.146c-0.538-0.365-0.839-0.58-0.904-0.646c-0.215-0.204-0.322-0.479-0.322-0.822
		c0-0.183,0.026-0.397,0.081-0.646c0.462-2.484,0.844-4.335,1.146-5.55c-1.055,1.517-2.246,3.03-3.574,4.541
		c-1.328,1.512-2.294,2.467-2.896,2.864c-0.463,0.312-0.807,0.468-1.033,0.468c-0.193,0-0.489-0.156-0.887-0.468
		c-0.7-0.43-1.049-0.931-1.049-1.501c0-0.097,0.011-0.204,0.032-0.322c0.226-1.603,0.943-3.461,2.153-5.574s2.595-3.891,4.155-5.332
		c0.505-0.474,0.957-0.705,1.354-0.694c0.42,0.021,1.167,0.532,2.243,1.533c0.097,0.086,0.145,0.178,0.145,0.274
		c0,0.172-0.112,0.258-0.338,0.258c-0.076,0-0.156-0.017-0.242-0.049c-0.753-0.322-1.366-0.312-1.84,0.032
		c-1.011,0.754-2.124,2.061-3.34,3.921c-1.409,2.151-2.237,4.088-2.484,5.809c-0.054,0.409,0.054,0.613,0.323,0.613
		c0.354,0,0.79-0.253,1.307-0.759c1.193-1.172,2.479-2.646,3.855-4.421c1.409-1.839,2.313-3.227,2.711-4.162
		c0.226-0.517,0.403-1.011,0.532-1.484c1.119-3.958,2.366-7.341,3.743-10.148c1.075-2.194,2.022-3.668,2.84-4.421
		c0.301-0.29,0.591-0.436,0.871-0.436c0.301,0,0.688,0.178,1.161,0.532C198.396,57.441,198.938,57.883,199.487,58.323z"/>
	<path fill="#F79533" d="M197.406,72.393c-0.258,1.451-0.931,3.866-2.017,7.244c0.312-0.28,0.742-0.791,1.29-1.533
		c0.075-0.097,0.151-0.146,0.227-0.146c0.172,0,0.193,0.151,0.064,0.452c-0.054,0.118-0.506,0.855-1.355,2.21
		c-0.646,1.033-1.119,1.947-1.42,2.743c-0.097,0.247-0.274,0.371-0.532,0.371s-0.607-0.124-1.049-0.371
		c-0.279-0.15-0.419-0.264-0.419-0.339c0-0.064,0.059-0.204,0.177-0.419c0.581-1.022,1.227-2.732,1.937-5.131
		c0.678-2.323,1.06-4.05,1.146-5.18c0.032-0.483-0.017-0.726-0.146-0.726c-0.097,0-0.269,0.118-0.517,0.354l-1,0.937
		c-0.354,0.322-0.532,0.339-0.532,0.048c0-0.086,0.048-0.193,0.146-0.322c0.505-0.71,1.043-1.382,1.613-2.017
		c0.172-0.184,0.339-0.274,0.5-0.274c0.172,0,0.425,0.118,0.758,0.354c0.495,0.129,0.77,0.21,0.823,0.242
		c0.247,0.15,0.371,0.431,0.371,0.839C197.471,71.924,197.449,72.145,197.406,72.393z M199.681,65.325
		c0.172,0.129,0.259,0.274,0.259,0.436c0,0.313-0.463,0.797-1.388,1.452c-0.613,0.42-1.205,0.57-1.774,0.452
		c-0.323-0.064-0.603-0.183-0.84-0.355c-0.075-0.064-0.132-0.131-0.169-0.201c-0.038-0.07-0.046-0.126-0.024-0.17
		c0.032-0.043,0.097-0.054,0.193-0.032c0.99-0.86,1.641-1.479,1.953-1.855c0.247-0.279,0.424-0.419,0.532-0.419
		C198.616,64.632,199.036,64.863,199.681,65.325z"/>
	<path fill="#F79533" d="M211.378,77.619c-0.646,0.979-1.484,2.399-2.518,4.26c-0.193,0.484-0.382,0.968-0.564,1.452
		c-0.15,0.333-0.35,0.5-0.597,0.5c-0.194,0-0.479-0.08-0.855-0.242c-0.42-0.172-0.629-0.344-0.629-0.516
		c0-0.075,0.069-0.242,0.209-0.501c0.699-1.419,1.323-3.188,1.872-5.308c0.592-2.227,0.844-3.926,0.758-5.099
		c-0.021-0.473-0.129-0.71-0.322-0.71c-0.14,0-0.35,0.135-0.629,0.403c-2.711,2.646-5.056,6.186-7.035,10.616
		c-0.247,0.549-0.537,0.823-0.871,0.823c-0.236,0-0.629-0.135-1.178-0.403c-0.215-0.097-0.328-0.188-0.339-0.274
		c0-0.043,0.06-0.193,0.178-0.452c0.624-1.365,1.242-3.098,1.855-5.194c0.656-2.27,1.027-4.039,1.113-5.309
		c0.021-0.387,0.011-0.581-0.032-0.581c-0.011,0-0.161,0.146-0.452,0.436c-0.29,0.291-0.693,0.667-1.21,1.13
		c-0.097,0.097-0.204,0.146-0.322,0.146c-0.151,0-0.227-0.06-0.227-0.178c0-0.086,0.054-0.183,0.162-0.291
		c0.462-0.591,1.07-1.328,1.823-2.21c0.161-0.183,0.327-0.274,0.5-0.274c0.258,0,0.483,0.188,0.678,0.564
		c0.871,0.259,1.279,0.656,1.226,1.194c-0.118,1.184-0.726,3.318-1.823,6.405c0.721-1.388,1.77-2.939,3.146-4.654
		c1.377-1.716,2.398-2.729,3.065-3.042c0.333-0.15,0.57-0.226,0.71-0.226s0.365,0.118,0.678,0.354
		c0.893,0.313,1.333,0.829,1.323,1.55c0,0.753-0.184,1.963-0.549,3.63c-0.29,1.377-0.56,2.447-0.807,3.211
		c0.312-0.398,0.71-0.915,1.193-1.55c0.086-0.106,0.172-0.161,0.259-0.161c0.161,0,0.242,0.103,0.242,0.307
		C211.41,77.49,211.398,77.555,211.378,77.619z"/>
	<path fill="#F79533" d="M224.35,71.956c-3.302,17.135-7.594,25.696-12.875,25.686c-1.903,0-3.963-1.049-6.179-3.146
		c-0.204-0.194-0.307-0.394-0.307-0.598c0-0.312,0.146-0.468,0.436-0.468c0.15,0,0.296,0.06,0.436,0.178
		c1.753,1.495,3.323,2.242,4.711,2.242c4.432,0,8.126-6.507,11.084-19.521c-1.796,3.087-3.361,5.297-4.694,6.631
		c-0.538,0.549-1.017,0.823-1.437,0.823c-0.387,0-0.866-0.216-1.436-0.646c-1.022-0.506-1.512-1.334-1.469-2.485
		c0.064-1.408,0.608-3.156,1.63-5.243c1-2.033,2.044-3.565,3.13-4.599c0.613-0.58,1.167-0.871,1.662-0.871
		c0.365,0,0.769,0.162,1.21,0.484c0.064,0.054,0.494,0.436,1.291,1.146c0.161,0.14,0.241,0.28,0.241,0.42
		c0,0.193-0.129,0.29-0.387,0.29c-0.161,0-0.345-0.049-0.549-0.146c-0.322-0.172-0.64-0.258-0.952-0.258
		c-0.451,0-0.86,0.161-1.226,0.484c-0.785,0.688-1.608,1.807-2.469,3.355c-0.936,1.699-1.511,3.248-1.727,4.646
		c-0.054,0.377-0.08,0.705-0.08,0.984c0,0.796,0.215,1.193,0.646,1.193c0.29,0,0.597-0.145,0.919-0.436
		c1.28-1.097,2.55-2.684,3.808-4.759c1.173-1.915,2.006-3.674,2.501-5.276c0.183-0.57,0.274-1.113,0.274-1.63
		c0-0.408,0.097-0.612,0.29-0.612c0.204,0,0.603,0.226,1.194,0.678C224.382,70.773,224.489,71.258,224.35,71.956z"/>
	<path fill="#F79533" d="M227.673,80.152c0.269,0.097,0.403,0.28,0.403,0.549c0,0.226-0.215,0.85-0.646,1.871
		c-0.333,0.796-0.704,1.194-1.112,1.194c0.15,0-0.237-0.049-1.162-0.146c-0.129-0.011-0.21-0.075-0.242-0.193
		c-0.043-0.118,0.006-0.193,0.146-0.226c0.559-1.27,0.897-2.151,1.017-2.646c0.118-0.451,0.284-0.678,0.5-0.678
		C226.759,79.878,227.125,79.97,227.673,80.152z"/>
	<path fill="#F79533" d="M234.288,80.152c0.269,0.097,0.403,0.28,0.403,0.549c0,0.226-0.215,0.85-0.646,1.871
		c-0.333,0.796-0.704,1.194-1.112,1.194c0.15,0-0.237-0.049-1.162-0.146c-0.129-0.011-0.21-0.075-0.242-0.193
		c-0.043-0.118,0.006-0.193,0.146-0.226c0.559-1.27,0.897-2.151,1.017-2.646c0.118-0.451,0.284-0.678,0.5-0.678
		C233.374,79.878,233.74,79.97,234.288,80.152z"/>
	<path fill="#F79533" d="M240.902,80.152c0.269,0.097,0.403,0.28,0.403,0.549c0,0.226-0.215,0.85-0.646,1.871
		c-0.333,0.796-0.704,1.194-1.112,1.194c0.15,0-0.237-0.049-1.162-0.146c-0.129-0.011-0.21-0.075-0.242-0.193
		c-0.043-0.118,0.006-0.193,0.146-0.226c0.559-1.27,0.897-2.151,1.017-2.646c0.118-0.451,0.284-0.678,0.5-0.678
		C239.988,79.878,240.354,79.97,240.902,80.152z"/>
</g>
</svg>
