<?xml version="1.0" encoding="utf-8"?>
<!-- Generator: Adobe Illustrator 14.0.0, SVG Export Plug-In . SVG Version: 6.00 Build 43363)  -->
<!DOCTYPE svg PUBLIC "-//W3C//DTD SVG 1.1//EN" "http://www.w3.org/Graphics/SVG/1.1/DTD/svg11.dtd">
<svg version="1.1" id="Layer_1" xmlns="http://www.w3.org/2000/svg" xmlns:xlink="http://www.w3.org/1999/xlink" x="0px" y="0px"
	 width="250px" height="108px" viewBox="0 0 250 108" enable-background="new 0 0 250 108" xml:space="preserve">
<g>
	<path fill="#FFFFFF" d="M8.127,69.15c-0.884,0-1.371-0.494-1.371-1.39V23.066c0-0.895,0.487-1.387,1.371-1.387h10.164
		c5.288,0,9.313,2.114,11.961,6.287c2.627,4.138,3.958,10.008,3.958,17.449s-1.332,13.312-3.958,17.449
		c-2.648,4.171-6.673,6.286-11.961,6.286H8.127L8.127,69.15z M18.026,63.354c3.324,0,5.852-1.486,7.514-4.422
		c1.687-2.98,2.542-7.529,2.542-13.519c0-5.99-0.855-10.538-2.542-13.517c-1.662-2.936-4.19-4.424-7.514-4.424h-5.272v35.881H18.026
		L18.026,63.354z"/>
	<path fill="#FFFFFF" d="M110.045,70.098c-0.715,0-1.228-0.383-1.482-1.104l-8.232-26.626l-3.206,25.701
		c-0.051,0.826-0.559,1.289-1.43,1.289h-3.24c-0.432,0-0.765-0.123-0.989-0.363c-0.232-0.251-0.337-0.622-0.311-1.104l5.821-45.456
		c0.05-0.825,0.559-1.288,1.43-1.288h0.132c0.717,0,1.229,0.38,1.483,1.103l10.156,32.238l10.154-32.23
		c0.256-0.729,0.77-1.111,1.487-1.111h0.131c0.871,0,1.379,0.463,1.431,1.306l5.817,45.418c0.027,0.5-0.076,0.871-0.307,1.123
		c-0.226,0.24-0.558,0.363-0.99,0.363h-3.239c-0.871,0-1.379-0.463-1.432-1.306l-3.204-25.687l-8.229,26.617
		c-0.257,0.73-0.77,1.111-1.487,1.111h-0.264V70.098z"/>
	<path fill="#FFFFFF" d="M149.396,69.066c-0.856,0-1.328-0.491-1.328-1.387V22.984c0-0.895,0.472-1.388,1.328-1.388h3.131
		c0.856,0,1.328,0.494,1.328,1.388v44.698c0,0.895-0.472,1.387-1.328,1.387L149.396,69.066L149.396,69.066z"/>
	<path fill="#FFFFFF" d="M176.398,69.148c-0.89,0-1.379-0.493-1.379-1.392V22.905c0-0.897,0.489-1.391,1.379-1.391h18.369
		c0.89,0,1.377,0.494,1.377,1.391v3.03c0,0.897-0.487,1.391-1.377,1.391h-13.72v14.458h11.446c0.89,0,1.378,0.495,1.378,1.393v3.03
		c0,0.897-0.488,1.392-1.378,1.392h-11.446v15.737h13.72c0.89,0,1.377,0.494,1.377,1.393v3.028c0,0.897-0.487,1.394-1.377,1.394
		h-18.369V69.148L176.398,69.148z"/>
	<path fill="#FFFFFF" d="M240.577,69.889c-0.615,0-1.129-0.309-1.531-0.914l-18.045-30.947v29.734c0,0.896-0.487,1.391-1.372,1.391
		h-3.258c-0.885,0-1.372-0.495-1.372-1.391V22.327c0-0.895,0.487-1.387,1.372-1.387h0.333c0.665,0,1.181,0.312,1.536,0.926
		l17.973,30.8v-29.6c0-0.895,0.487-1.387,1.37-1.387h3.259c0.887,0,1.373,0.492,1.373,1.387V68.5c0,0.896-0.486,1.389-1.373,1.389
		H240.577L240.577,69.889z"/>
	<path fill="#FFFFFF" stroke="#FFFFFF" stroke-width="0.2438" d="M58.635,77.163V69.07l-6.088-6.342l-1.593,5.621
		c-0.16,0.65-0.591,1.002-1.244,1.002h-2.53c-0.398,0-0.689-0.117-0.866-0.348c-0.188-0.247-0.227-0.605-0.114-1.064l13.515-46.433
		c0.159-0.653,0.59-1.003,1.244-1.003s1.084,0.351,1.247,1.014l13.509,46.409c0.116,0.472,0.077,0.83-0.111,1.076
		c-0.177,0.229-0.468,0.349-0.866,0.349h-2.53c-0.653,0-1.084-0.352-1.247-1.015L69.333,62.6l-6.024,6.277v8.285L58.635,77.163
		L58.635,77.163z M58.635,64.979v-6.772H53.83l-0.387,1.364L58.635,64.979z M63.308,64.785l5.129-5.342l-0.351-1.237h-4.778V64.785
		L63.308,64.785z M66.874,53.741l-3.565-12.688v12.688H66.874z M58.635,53.741V40.958l-3.593,12.783H58.635z"/>
</g>
<g>
	<path fill="#F79533" d="M155.279,63.6c0.011,1.668-0.344,3.539-1.064,5.614c-0.193,0.56-0.457,0.839-0.791,0.839
		c0.021,0-0.273-0.031-0.887-0.097c-0.518-0.063-0.773-0.226-0.773-0.483c0-0.119,0.09-0.236,0.273-0.354
		c0.247-0.42,0.505-1.199,0.773-2.341c0.301-1.291,0.431-2.35,0.388-3.178c-0.044-0.623-0.36-0.937-0.952-0.937
		c-0.333,0-0.699,0.151-1.098,0.452c-1.322,0.988-2.625,2.797-3.903,5.421c-1.237,2.538-2.688,6.335-4.356,11.391
		c-0.246,0.742-0.646,1.194-1.193,1.355c2.84,0,5.847,0.167,9.02,0.5c0.483,0.043,0.79,0.016,0.92-0.081
		c0.055-0.043,0.188-0.295,0.403-0.758c0.129-0.279,0.263-0.42,0.403-0.42c0.14,0,0.269,0.119,0.387,0.354
		c0.463,0.894,0.693,1.521,0.693,1.888c0,0.301-0.209,0.646-0.629,1.032c-0.463,0.42-0.813,0.629-1.05,0.629
		c-0.183,0-0.473-0.059-0.87-0.177c-2.518-0.699-5.293-1.049-8.326-1.049c-0.828,0-1.641,0.031-2.437,0.097
		c-0.537,0.043-0.854,0.103-0.951,0.179l-0.307,0.516c-0.28,0.474-0.613,0.71-1,0.71c-0.248,0-0.409-0.118-0.484-0.354
		c-0.313-0.894-0.468-1.463-0.468-1.709c0-0.809,1.167-1.26,3.501-1.355c1.817-6.399,3.748-11.473,5.792-15.215
		c1.742-3.194,3.227-4.873,4.453-5.033c0.344-0.055,1.236,0.264,2.678,0.951c0.355-0.021,0.624-0.032,0.807-0.032
		c0.484,0,0.785,0.108,0.904,0.323C155.221,62.448,155.27,62.891,155.279,63.6z"/>
	<path fill="#F79533" d="M165.573,73.15c-0.021,0.957-0.253,2.227-0.693,3.808c-0.698,2.495-1.688,4.433-2.97,5.81
		c-0.678,0.73-1.432,1.097-2.26,1.097c-0.321,0-0.735-0.07-1.241-0.21c-1.011-0.064-1.834-0.381-2.468-0.951
		c-0.688-0.624-1.012-1.426-0.969-2.404c0.043-1.14,0.436-2.732,1.178-4.775c0.816-2.227,1.666-3.828,2.55-4.809
		c0.419-0.473,0.764-0.71,1.032-0.71c0.365,0,0.957,0.377,1.773,1.13c0.227-0.107,0.688-0.307,1.389-0.597
		c0.354-0.118,0.623-0.179,0.807-0.179c0.42,0,0.888,0.394,1.404,1.179C165.438,72.021,165.596,72.559,165.573,73.15z
		 M163.718,73.618c0.075-0.722,0.112-1.179,0.112-1.371c0-0.452-0.141-0.679-0.419-0.679c-0.106,0-0.248,0.021-0.42,0.064
		l-2.5,1.018c-0.291,0.117-0.458,0.178-0.501,0.178c-0.086,0-0.172-0.104-0.258-0.307c-0.625,0.764-1.205,1.865-1.742,3.308
		c-0.42,1.129-0.711,2.14-0.871,3.032c-0.119,0.604-0.178,1.15-0.178,1.646c0,1.656,0.511,2.463,1.531,2.42
		c0.409-0.011,0.851-0.172,1.323-0.484c0.903-0.612,1.748-1.838,2.533-3.678C163.083,77.033,163.546,75.318,163.718,73.618z"/>
	<path fill="#F79533" d="M177.964,72.618c-0.989,2.741-1.673,5.045-2.049,6.905c0.161-0.15,0.374-0.383,0.638-0.693
		c0.264-0.313,0.428-0.495,0.491-0.549c0.151-0.193,0.313-0.291,0.483-0.291c0.162,0,0.242,0.08,0.242,0.242
		c0,0.097-0.043,0.209-0.129,0.338c-1.012,1.496-1.684,3.008-2.017,4.535c-0.099,0.43-0.242,0.646-0.437,0.646
		c-0.184,0-0.521-0.173-1.017-0.517c-0.291-0.193-0.458-0.355-0.5-0.484c-0.055-0.118-0.055-0.354,0-0.71
		c0.451-2.731,1.017-5.001,1.692-6.81c-0.936,1.518-2.209,3.194-3.822,5.035c-1.409,1.603-2.426,2.623-3.05,3.064
		c-0.451,0.313-0.796,0.468-1.032,0.468c-0.193,0-0.488-0.155-0.889-0.468c-0.568-0.344-0.854-0.816-0.854-1.42
		c0-0.118,0.012-0.253,0.032-0.403c0.192-1.592,0.894-3.444,2.097-5.559c1.205-2.113,2.588-3.896,4.146-5.349
		c0.506-0.474,0.958-0.705,1.355-0.693c0.387,0.021,1.123,0.531,2.211,1.533c0.096,0.086,0.145,0.178,0.145,0.273
		c0,0.172-0.112,0.258-0.34,0.258c-0.086,0-0.166-0.017-0.241-0.049c-0.765-0.322-1.377-0.313-1.839,0.032
		c-1.012,0.741-2.131,2.05-3.355,3.921c-1.42,2.15-2.275,4.088-2.564,5.809c-0.012,0.075-0.018,0.146-0.018,0.211
		c0,0.269,0.107,0.402,0.323,0.402c0.365,0,0.801-0.253,1.308-0.759c1.203-1.172,2.494-2.646,3.871-4.421
		c1.409-1.84,2.313-3.227,2.711-4.162c0.291-0.688,0.479-1.173,0.564-1.452c0.141-0.483,0.29-0.728,0.451-0.728
		c0.162,0,0.537,0.222,1.13,0.662c0.247,0.184,0.382,0.351,0.403,0.5C178.131,72.068,178.082,72.295,177.964,72.618z"/>
	<path fill="#F79533" d="M199.486,58.323c0.13,0.097,0.193,0.204,0.193,0.321c0,0.205-0.129,0.308-0.387,0.308
		c-0.098,0-0.199-0.026-0.307-0.08c-0.506-0.247-0.883-0.371-1.131-0.371c-0.666,0-1.402,0.656-2.209,1.968
		c-2.959,4.83-5.114,11.262-6.471,19.297c0.279-0.269,0.656-0.688,1.131-1.259c0.278-0.333,0.482-0.5,0.611-0.5
		c0.291,0,0.316,0.167,0.081,0.5c-1.032,1.431-1.716,2.976-2.049,4.632c-0.13,0.396-0.291,0.596-0.484,0.596
		c-0.097,0-0.215-0.049-0.354-0.146c-0.537-0.364-0.838-0.58-0.903-0.646c-0.215-0.204-0.322-0.479-0.322-0.822
		c0-0.184,0.026-0.396,0.081-0.646c0.463-2.483,0.844-4.334,1.146-5.55c-1.055,1.517-2.246,3.03-3.574,4.541
		c-1.328,1.513-2.294,2.468-2.896,2.864c-0.463,0.313-0.807,0.468-1.033,0.468c-0.192,0-0.488-0.155-0.887-0.468
		c-0.699-0.43-1.049-0.932-1.049-1.501c0-0.097,0.012-0.204,0.032-0.322c0.226-1.603,0.942-3.461,2.153-5.573
		c1.209-2.113,2.595-3.892,4.154-5.332c0.506-0.475,0.957-0.705,1.354-0.694c0.42,0.021,1.167,0.532,2.243,1.532
		c0.097,0.086,0.145,0.179,0.145,0.274c0,0.172-0.111,0.259-0.338,0.259c-0.076,0-0.156-0.018-0.242-0.05
		c-0.753-0.321-1.365-0.312-1.84,0.032c-1.011,0.754-2.124,2.061-3.34,3.921c-1.409,2.151-2.237,4.088-2.484,5.81
		c-0.054,0.408,0.055,0.612,0.323,0.612c0.354,0,0.79-0.253,1.308-0.759c1.192-1.172,2.479-2.646,3.854-4.421
		c1.409-1.839,2.313-3.228,2.711-4.162c0.226-0.517,0.403-1.011,0.532-1.483c1.119-3.959,2.365-7.342,3.742-10.148
		c1.076-2.194,2.022-3.668,2.84-4.422c0.302-0.289,0.592-0.436,0.871-0.436c0.302,0,0.688,0.178,1.162,0.532
		C198.396,57.441,198.938,57.883,199.486,58.323z"/>
	<path fill="#F79533" d="M197.406,72.393c-0.258,1.451-0.932,3.866-2.018,7.244c0.313-0.279,0.742-0.791,1.291-1.533
		c0.074-0.097,0.15-0.146,0.227-0.146c0.172,0,0.193,0.151,0.064,0.452c-0.055,0.117-0.507,0.855-1.355,2.21
		c-0.646,1.032-1.119,1.946-1.42,2.743c-0.098,0.246-0.274,0.371-0.532,0.371c-0.259,0-0.606-0.125-1.049-0.371
		c-0.279-0.15-0.419-0.264-0.419-0.34c0-0.063,0.059-0.203,0.177-0.418c0.581-1.022,1.228-2.732,1.937-5.131
		c0.678-2.324,1.061-4.051,1.146-5.181c0.031-0.483-0.018-0.726-0.146-0.726c-0.097,0-0.269,0.117-0.517,0.354l-1,0.938
		c-0.354,0.322-0.532,0.339-0.532,0.048c0-0.087,0.049-0.193,0.146-0.322c0.505-0.71,1.043-1.382,1.613-2.017
		c0.172-0.185,0.338-0.274,0.5-0.274c0.172,0,0.424,0.118,0.758,0.354c0.494,0.129,0.77,0.209,0.822,0.242
		c0.248,0.149,0.371,0.43,0.371,0.838C197.471,71.924,197.449,72.145,197.406,72.393z M199.682,65.325
		c0.172,0.129,0.258,0.274,0.258,0.436c0,0.313-0.463,0.798-1.388,1.452c-0.612,0.42-1.204,0.57-1.774,0.452
		c-0.322-0.063-0.603-0.183-0.84-0.354c-0.074-0.064-0.131-0.131-0.168-0.201c-0.039-0.07-0.047-0.127-0.024-0.17
		c0.032-0.043,0.097-0.055,0.192-0.032c0.99-0.86,1.642-1.479,1.953-1.855c0.248-0.278,0.424-0.419,0.532-0.419
		C198.616,64.632,199.036,64.863,199.682,65.325z"/>
	<path fill="#F79533" d="M211.378,77.619c-0.646,0.979-1.483,2.398-2.519,4.26c-0.192,0.484-0.381,0.969-0.563,1.452
		c-0.149,0.333-0.351,0.5-0.597,0.5c-0.194,0-0.479-0.08-0.855-0.242c-0.42-0.172-0.629-0.344-0.629-0.516
		c0-0.075,0.069-0.242,0.209-0.501c0.699-1.42,1.323-3.188,1.872-5.309c0.593-2.227,0.845-3.926,0.759-5.099
		c-0.021-0.474-0.13-0.71-0.322-0.71c-0.141,0-0.351,0.135-0.629,0.402c-2.711,2.646-5.057,6.187-7.035,10.617
		c-0.248,0.549-0.537,0.822-0.871,0.822c-0.236,0-0.629-0.135-1.178-0.402c-0.215-0.098-0.328-0.188-0.34-0.274
		c0-0.043,0.061-0.193,0.178-0.452c0.625-1.365,1.242-3.098,1.855-5.193c0.656-2.271,1.027-4.039,1.113-5.31
		c0.021-0.388,0.011-0.581-0.032-0.581c-0.011,0-0.161,0.146-0.452,0.436c-0.29,0.291-0.693,0.668-1.21,1.131
		c-0.097,0.097-0.204,0.146-0.321,0.146c-0.151,0-0.228-0.06-0.228-0.178c0-0.086,0.054-0.183,0.162-0.291
		c0.462-0.591,1.069-1.328,1.823-2.21c0.16-0.184,0.326-0.274,0.5-0.274c0.258,0,0.482,0.188,0.678,0.564
		c0.871,0.259,1.279,0.655,1.227,1.194c-0.119,1.184-0.727,3.317-1.824,6.404c0.722-1.388,1.771-2.939,3.146-4.654
		c1.377-1.716,2.398-2.729,3.064-3.041c0.334-0.15,0.57-0.227,0.711-0.227c0.14,0,0.365,0.118,0.678,0.354
		c0.893,0.313,1.333,0.83,1.322,1.551c0,0.753-0.184,1.963-0.549,3.63c-0.289,1.377-0.56,2.446-0.807,3.211
		c0.313-0.397,0.71-0.915,1.193-1.55c0.086-0.106,0.172-0.161,0.259-0.161c0.161,0,0.242,0.103,0.242,0.307
		C211.41,77.49,211.398,77.555,211.378,77.619z"/>
	<path fill="#F79533" d="M224.35,71.956c-3.302,17.135-7.594,25.696-12.875,25.687c-1.902,0-3.963-1.05-6.179-3.146
		c-0.204-0.194-0.308-0.395-0.308-0.598c0-0.313,0.146-0.469,0.437-0.469c0.15,0,0.296,0.061,0.437,0.178
		c1.753,1.496,3.322,2.242,4.711,2.242c4.432,0,8.126-6.507,11.084-19.521c-1.797,3.087-3.361,5.297-4.694,6.631
		c-0.538,0.549-1.017,0.823-1.437,0.823c-0.387,0-0.866-0.217-1.437-0.646c-1.022-0.506-1.512-1.334-1.469-2.484
		c0.063-1.408,0.608-3.156,1.63-5.243c1-2.033,2.044-3.565,3.13-4.599c0.613-0.58,1.167-0.871,1.662-0.871
		c0.365,0,0.769,0.162,1.21,0.483c0.064,0.054,0.494,0.437,1.291,1.146c0.161,0.141,0.241,0.281,0.241,0.421
		c0,0.192-0.129,0.29-0.388,0.29c-0.16,0-0.344-0.049-0.549-0.146c-0.322-0.172-0.64-0.258-0.951-0.258
		c-0.451,0-0.86,0.161-1.227,0.484c-0.785,0.688-1.607,1.807-2.469,3.354c-0.936,1.699-1.512,3.248-1.727,4.646
		c-0.055,0.377-0.08,0.705-0.08,0.984c0,0.797,0.215,1.193,0.646,1.193c0.29,0,0.597-0.145,0.919-0.436
		c1.28-1.098,2.551-2.685,3.809-4.76c1.172-1.915,2.006-3.674,2.5-5.275c0.184-0.57,0.274-1.113,0.274-1.631
		c0-0.408,0.097-0.611,0.29-0.611c0.204,0,0.604,0.226,1.193,0.678C224.382,70.773,224.488,71.258,224.35,71.956z"/>
</g>
</svg>
