<?xml version="1.0" encoding="utf-8"?>
<!-- Generator: Adobe Illustrator 14.0.0, SVG Export Plug-In . SVG Version: 6.00 Build 43363)  -->
<!DOCTYPE svg PUBLIC "-//W3C//DTD SVG 1.1//EN" "http://www.w3.org/Graphics/SVG/1.1/DTD/svg11.dtd">
<svg version="1.1" id="Layer_1" xmlns="http://www.w3.org/2000/svg" xmlns:xlink="http://www.w3.org/1999/xlink" x="0px" y="0px"
	 width="1000px" height="323px" viewBox="0 0 1000 323" enable-background="new 0 0 1000 323" xml:space="preserve">
<g id="Layer_2">
	<g id="Layer_3">
	</g>
</g>
<g>
	<path d="M1950.329-176c1.056,0,2.112,0,3.169,0c0,11.62,0,23.243,0,34.862c-0.151,0-0.302,0-0.453,0c0,0.905,0,1.811,0,2.716
		c-0.15,0-0.302,0-0.452,0c0,1.057,0,2.113,0,3.169c-0.151,0-0.302,0-0.453,0c-0.15,1.509-0.302,3.019-0.452,4.527
		c-0.15,0-0.303,0-0.453,0c0,0.755,0,1.51,0,2.264c-0.15,0-0.302,0-0.452,0c0,0.604,0,1.208,0,1.811c-0.15,0-0.303,0-0.452,0
		c0,0.604,0,1.208,0,1.811c-0.151,0-0.303,0-0.453,0c0,0.604,0,1.208,0,1.811c-0.151,0-0.302,0-0.453,0c0,0.453,0,0.905,0,1.358
		c-0.15,0-0.302,0-0.452,0c0,0.604,0,1.208,0,1.811c-3.626,10.04-7.401,20.146-12.678,28.524c0,0.302,0,0.604,0,0.905
		c-0.15,0-0.302,0-0.452,0c0,0.302,0,0.604,0,0.906c-0.151,0-0.302,0-0.453,0c0,0.302,0,0.604,0,0.905c-0.15,0-0.302,0-0.452,0
		c0,0.302,0,0.604,0,0.906c-0.302,0.151-0.604,0.302-0.905,0.453c0,0.302,0,0.604,0,0.905c-0.151,0-0.303,0-0.452,0
		c0,0.302,0,0.604,0,0.906c-0.303,0.151-0.604,0.302-0.906,0.453c-0.151,0.604-0.302,1.208-0.452,1.811
		c-0.302,0.151-0.604,0.302-0.906,0.453c0,0.302,0,0.604,0,0.906c-0.149,0-0.302,0-0.452,0c0,0.302,0,0.604,0,0.906
		c-0.302,0.151-0.604,0.302-0.904,0.453c0,0.302,0,0.604,0,0.905c-0.303,0.151-0.604,0.302-0.906,0.453c0,0.302,0,0.604,0,0.906
		c-0.301,0.151-0.604,0.302-0.905,0.453c0,0.302,0,0.604,0,0.906c-0.302,0.151-0.604,0.302-0.905,0.453c0,0.302,0,0.604,0,0.905
		c-0.302,0.151-0.604,0.302-0.904,0.453c0,0.302,0,0.604,0,0.905c-0.151,0-0.303,0-0.453,0c-0.151,0.453-0.302,0.906-0.452,1.358
		c-0.302,0.151-0.604,0.302-0.906,0.453c0,0.302,0,0.604,0,0.906c-0.452,0.302-0.905,0.604-1.357,0.905c0,0.302,0,0.604,0,0.906
		c-0.452,0.302-0.905,0.604-1.358,0.905c0,0.302,0,0.604,0,0.906c-0.301,0.151-0.604,0.302-0.905,0.453c0,0.302,0,0.604,0,0.905
		c-0.452,0.302-0.905,0.604-1.357,0.906c0,0.302,0,0.604,0,0.905c-0.604,0.453-1.207,0.906-1.812,1.358c0,0.302,0,0.604,0,0.905
		c-0.302,0.151-0.604,0.302-0.905,0.453c0,0.302,0,0.604,0,0.905c-0.604,0.453-1.208,0.906-1.812,1.358c0,0.302,0,0.604,0,0.905
		c-0.754,0.604-1.511,1.208-2.265,1.812c0,0.302,0,0.604,0,0.905c-0.604,0.453-1.207,0.905-1.811,1.358c0,0.302,0,0.604,0,0.905
		c-0.755,0.604-1.51,1.208-2.266,1.811c0,0.302,0,0.604,0,0.906c-0.845,1.173-1.709,0.754-2.264,2.716c-0.302,0-0.604,0-0.905,0
		c-0.396,1.481-1.4,2.141-2.264,3.169c-0.151,0-0.302,0-0.453,0c0,0.302,0,0.604,0,0.905c-1.509,1.358-3.019,2.717-4.526,4.075
		c0,0.302,0,0.604,0,0.905c-0.303,0.151-0.604,0.302-0.905,0.453c-0.755,0.906-1.511,1.811-2.265,2.717
		c-1.29,1.29-3.063,2.051-3.621,4.075c-0.303,0-0.604,0-0.906,0c-0.9,1.909-2.247,2.7-3.621,4.075
		c-1.962,1.962-3.924,3.924-5.887,5.886c-6.488,6.64-12.979,13.282-19.469,19.921c-2.265,2.264-4.527,4.527-6.792,6.792
		c-1.183,1.183-2.652,1.738-3.169,3.622c-0.302,0-0.604,0-0.904,0c-0.84,1.427-2.23,1.82-2.718,3.622
		c-1.25,0.328-1.013,0.126-1.357,1.358c-0.302,0-0.604,0-0.905,0c-0.302,0.453-0.604,0.906-0.905,1.358c-0.15,0-0.303,0-0.453,0
		c-0.888,1.238-0.516,1.816-2.264,2.264c-0.506,1.884-1.99,2.443-3.169,3.622c-2.265,2.265-4.528,4.528-6.792,6.792
		c-1.812,1.962-3.622,3.924-5.433,5.886c-6.941,6.791-13.887,13.583-20.827,20.374c-1.66,1.811-3.32,3.623-4.98,5.433
		c-0.905,0.755-1.811,1.509-2.716,2.264c0,0.302,0,0.604,0,0.906c-0.15,0-0.303,0-0.453,0c-0.604,0.754-1.208,1.509-1.812,2.264
		c-0.302,0-0.604,0-0.905,0c0,0.302,0,0.604,0,0.906c-3.018,2.867-6.037,5.735-9.055,8.602
		c-7.849,7.998-15.696,15.999-23.544,23.996c-2.112,2.113-4.227,4.226-6.339,6.339c-1.184,1.183-2.652,1.737-3.17,3.622
		c-0.302,0-0.604,0-0.904,0c0,0.302,0,0.604,0,0.905c-0.303,0-0.604,0-0.905,0c-0.327,1.25-0.127,1.013-1.358,1.358
		c-0.502,1.883-1.992,2.445-3.17,3.622c-2.414,2.565-4.829,5.131-7.244,7.697c-1.115-0.652-1.262-1.421-2.716-1.811
		c0-0.301,0-0.604,0-0.905c-1.495-0.837-7.011-6.265-7.244-8.15c1.372-0.795,2.093-2.092,3.169-3.169
		c2.415-2.415,4.829-4.83,7.244-7.244c5.885-5.734,11.772-11.471,17.658-17.205c1.659-1.811,3.32-3.622,4.979-5.433
		c2.565-2.565,5.133-5.131,7.697-7.697c1.284-1.285,3.073-2.053,3.622-4.075c0.302,0,0.604,0,0.905,0
		c0.755-0.906,1.51-1.811,2.264-2.717c0.151,0,0.302,0,0.453,0c0.15-0.453,0.302-0.905,0.452-1.358c0.302,0,0.604,0,0.906,0
		c0.149-0.453,0.301-0.906,0.452-1.358c1.812-1.66,3.621-3.32,5.434-4.98c5.734-5.885,11.47-11.772,17.204-17.657
		c2.265-2.264,4.527-4.527,6.792-6.792c1.183-1.183,2.654-1.738,3.169-3.622c0.302,0,0.604,0,0.905,0
		c0.841-1.427,2.229-1.82,2.717-3.622c0.302,0,0.604,0,0.904,0c1.241-2.124,3.322-3.289,4.98-4.98
		c0.453-0.754,0.906-1.509,1.358-2.264c0.302,0,0.604,0,0.904,0c0-0.151,0-0.302,0-0.453c0.755-0.604,1.511-1.208,2.265-1.811
		c0-0.302,0-0.604,0-0.906c0.922-1.156,1.617,0.047,2.265-2.264c1.325-0.31,1.482-0.504,1.812-1.811
		c1.324-0.31,1.481-0.504,1.812-1.811c0.301,0,0.604,0,0.905,0c0.525-1.229,0.806-1.892,2.264-2.264c0-0.302,0-0.604,0-0.905
		c0.303,0,0.604,0,0.905,0c0.584-2.159,2.688-3.141,4.075-4.528c3.318-3.32,6.64-6.641,9.96-9.96
		c4.83-4.98,9.659-9.961,14.487-14.941c3.737-3.737,7.721-6.967,10.866-11.319c1.358-1.208,2.718-2.415,4.075-3.622
		c0.754-0.906,1.51-1.812,2.264-2.717c0.453-0.302,0.905-0.604,1.358-0.905c0-0.302,0-0.604,0-0.906
		c1.207-1.056,2.415-2.113,3.622-3.169c0-0.302,0-0.604,0-0.905c1.207-1.056,2.415-2.113,3.622-3.169c0-0.302,0-0.604,0-0.905
		c0.905-0.755,1.811-1.509,2.717-2.264c0-0.302,0-0.604,0-0.905c0.754-0.604,1.509-1.208,2.264-1.811c0-0.302,0-0.604,0-0.906
		c0.303-0.15,0.604-0.302,0.905-0.453c0.858-0.919,1.475-1.697,1.812-3.169c0.302,0,0.604,0,0.905,0
		c0.287-1.175,0.718-1.482,1.358-2.264c0.15,0,0.301,0,0.452,0c0.15-0.453,0.302-0.905,0.453-1.358
		c0.302-0.15,0.604-0.302,0.904-0.453c0-0.302,0-0.604,0-0.905c0.604-0.453,1.209-0.906,1.813-1.358c0-0.302,0-0.604,0-0.905
		c0.452-0.302,0.905-0.604,1.357-0.906c0-0.302,0-0.604,0-0.905c0.302-0.151,0.604-0.302,0.905-0.453c0-0.302,0-0.604,0-0.905
		c0.452-0.302,0.905-0.604,1.357-0.906c0-0.302,0-0.604,0-0.905c0.302-0.151,0.604-0.302,0.906-0.453c0-0.302,0-0.604,0-0.906
		c0.452-0.302,0.905-0.604,1.357-0.905c0-0.302,0-0.604,0-0.906c0.302-0.151,0.604-0.302,0.905-0.453c0-0.302,0-0.604,0-0.906
		c0.302-0.15,0.604-0.302,0.905-0.453c0-0.302,0-0.604,0-0.905c0.302-0.151,0.604-0.302,0.905-0.453c0-0.302,0-0.604,0-0.906
		c0.302-0.151,0.604-0.302,0.905-0.453c0-0.302,0-0.604,0-0.906c0.302-0.151,0.604-0.302,0.905-0.453
		c0.15-0.604,0.302-1.208,0.452-1.811c0.302-0.151,0.604-0.302,0.906-0.453c0-0.302,0-0.604,0-0.906c0.149,0,0.301,0,0.452,0
		c0-0.302,0-0.604,0-0.905c0.302-0.151,0.604-0.302,0.905-0.453c0.15-0.604,0.302-1.208,0.452-1.812
		c0.303-0.15,0.604-0.302,0.906-0.453c0.15-0.604,0.301-1.208,0.452-1.811c0.302-0.15,0.604-0.302,0.905-0.453
		c0.302-0.905,0.604-1.811,0.905-2.716c0.302-0.151,0.604-0.302,0.905-0.453c0-0.453,0-0.905,0-1.358
		c10.025-18.074,17.88-39.162,18.11-67.008c1.737-1.022,2.382-3.041,4.526-3.622c0.32-1.124,0.232-0.734,0.905-1.358
		c0-0.151,0-0.302,0-0.453c0.302,0,0.604,0,0.905,0c1.357-1.509,2.717-3.019,4.075-4.528c0.15,0,0.302,0,0.452,0
		C1950.329-174.792,1950.329-175.396,1950.329-176z"/>
	<path d="M1932.671-157.437c-0.151,2.415-0.302,4.83-0.452,7.244c-0.15,0-0.303,0-0.453,0c0,1.208,0,2.415,0,3.622
		c-0.15,0-0.302,0-0.453,0c0,1.056,0,2.113,0,3.169c-0.149,0-0.302,0-0.451,0c0,0.754,0,1.509,0,2.264c-0.151,0-0.303,0-0.453,0
		c0,0.905,0,1.811,0,2.716c-0.151,0-0.303,0-0.452,0c0,0.604,0,1.208,0,1.811c-0.151,0-0.303,0-0.453,0
		c-0.151,1.358-0.302,2.717-0.453,4.075c-0.149,0-0.302,0-0.452,0c0,0.453,0,0.905,0,1.358c-0.15,0-0.302,0-0.453,0
		c0,0.604,0,1.208,0,1.811c-0.15,0-0.302,0-0.451,0c0,0.453,0,0.906,0,1.358c-0.151,0-0.304,0-0.453,0c0,0.453,0,0.905,0,1.358
		c-0.151,0-0.303,0-0.453,0c0,0.453,0,0.905,0,1.358c-0.15,0-0.303,0-0.452,0c0,0.453,0,0.906,0,1.358c-0.151,0-0.302,0-0.453,0
		c0,0.604,0,1.208,0,1.811c-0.151,0-0.302,0-0.452,0c0,0.302,0,0.604,0,0.906c-0.15,0-0.303,0-0.453,0
		c-0.15,0.905-0.302,1.811-0.453,2.716c-0.15,0-0.302,0-0.451,0c0,0.302,0,0.604,0,0.906c-0.151,0-0.304,0-0.453,0
		c-0.151,0.905-0.303,1.811-0.453,2.716c-0.151,0-0.303,0-0.452,0c-0.151,0.604-0.303,1.208-0.453,1.811c-0.151,0-0.302,0-0.453,0
		c0,0.453,0,0.906,0,1.358c-0.149,0-0.302,0-0.452,0c0,0.302,0,0.604,0,0.905c-0.15,0-0.302,0-0.453,0
		c-0.15,0.604-0.302,1.208-0.451,1.811c-0.151,0-0.304,0-0.453,0c-0.151,0.604-0.303,1.208-0.453,1.811c-0.15,0-0.303,0-0.452,0
		c0,0.302,0,0.604,0,0.906c-0.151,0-0.302,0-0.453,0c0,0.302,0,0.604,0,0.905c-0.151,0-0.302,0-0.452,0c0,0.302,0,0.604,0,0.906
		c-0.15,0-0.303,0-0.453,0c0,0.302,0,0.604,0,0.905c-0.15,0-0.302,0-0.453,0c0,0.302,0,0.604,0,0.906c-0.15,0-0.302,0-0.451,0
		c0,0.302,0,0.604,0,0.905c-0.151,0-0.304,0-0.453,0c0,0.302,0,0.604,0,0.906c-0.151,0-0.303,0-0.453,0c0,0.302,0,0.604,0,0.905
		c-0.151,0-0.303,0-0.452,0c0,0.302,0,0.604,0,0.906c-0.151,0-0.303,0-0.453,0c0,0.302,0,0.604,0,0.905
		c-0.302,0.151-0.604,0.302-0.905,0.453c0,0.302,0,0.604,0,0.906c-0.15,0-0.302,0-0.453,0c0,0.302,0,0.604,0,0.905
		c-0.15,0-0.302,0-0.451,0c0,0.302,0,0.604,0,0.906c-0.151,0-0.304,0-0.453,0c0,0.302,0,0.604,0,0.905
		c-0.303,0.151-0.604,0.302-0.905,0.453c0,0.302,0,0.604,0,0.905c-0.151,0-0.302,0-0.453,0c0,0.302,0,0.604,0,0.906
		c-0.151,0-0.302,0-0.452,0c-0.15,0.453-0.303,0.905-0.453,1.358c-0.302,0.151-0.604,0.302-0.904,0.453
		c-0.151,0.604-0.304,1.208-0.453,1.812c-0.303,0.151-0.604,0.302-0.905,0.453c0,0.302,0,0.604,0,0.905
		c-0.302,0.151-0.604,0.302-0.906,0.453c0,0.302,0,0.604,0,0.906c-0.149,0-0.302,0-0.452,0c-0.15,0.453-0.302,0.906-0.453,1.358
		c-0.302,0.151-0.604,0.302-0.904,0.453c0,0.302,0,0.604,0,0.905c-0.151,0-0.303,0-0.453,0c-0.15,0.453-0.303,0.906-0.452,1.358
		c-0.302,0.151-0.604,0.302-0.905,0.453c0,0.302,0,0.604,0,0.905c-0.453,0.302-0.906,0.604-1.357,0.905c0,0.302,0,0.604,0,0.906
		c-0.303,0.151-0.604,0.302-0.905,0.453c0,0.302,0,0.604,0,0.906c-0.302,0.151-0.604,0.302-0.906,0.453
		c-0.151,0.453-0.302,0.905-0.452,1.358c-0.453,0.302-0.906,0.604-1.357,0.905c0,0.302,0,0.604,0,0.906
		c-0.453,0.302-0.906,0.604-1.358,0.905c0,0.302,0,0.604,0,0.906c-0.453,0.302-0.905,0.604-1.358,0.905c0,0.302,0,0.604,0,0.906
		c-0.453,0.302-0.904,0.604-1.357,0.905c0,0.302,0,0.604,0,0.906c-0.604,0.453-1.207,0.905-1.812,1.358c0,0.302,0,0.604,0,0.906
		c-0.906,0.754-1.812,1.509-2.717,2.264c0,0.302,0,0.604,0,0.905c-0.755,0.604-1.51,1.208-2.265,1.812c0,0.302,0,0.604,0,0.905
		c-0.755,0.604-1.51,1.208-2.264,1.811c0,0.302,0,0.604,0,0.906c-1.057,0.905-2.113,1.811-3.17,2.716c0,0.302,0,0.604,0,0.905
		c-1.207,1.057-2.415,2.113-3.622,3.169c0,0.302,0,0.604,0,0.906c-0.301,0.15-0.604,0.302-0.905,0.453
		c-0.451,0.604-0.904,1.208-1.357,1.811c-1.207,1.056-2.415,2.113-3.622,3.169c0,0.302,0,0.604,0,0.905
		c-7.545,7.395-15.093,14.791-22.638,22.185c-1.058,1.208-2.113,2.415-3.17,3.622c-0.452,0.302-0.904,0.604-1.357,0.906
		c0,0.302,0,0.604,0,0.905c-0.604,0.302-1.208,0.604-1.813,0.905c-0.957,1.198-0.485,1.779-2.264,2.264c0,0.302,0,0.604,0,0.905
		c-3.018,2.868-6.037,5.735-9.055,8.603c-7.547,7.696-15.094,15.395-22.639,23.09c-3.019,2.867-6.037,5.735-9.056,8.603
		c0,0.302,0,0.604,0,0.905c-0.302,0-0.604,0-0.905,0c-0.84,1.427-2.229,1.82-2.717,3.622c-0.301,0-0.604,0-0.905,0
		c-0.754,0.906-1.51,1.812-2.264,2.717c-0.151,0-0.302,0-0.453,0c0,0.302,0,0.604,0,0.905c-0.452,0.302-0.905,0.604-1.358,0.906
		c0,0.151,0,0.302,0,0.453c-0.301,0-0.604,0-0.904,0c0,0.151,0,0.302,0,0.453c-0.452,0.302-0.905,0.604-1.358,0.906
		c0,0.302,0,0.604,0,0.905c-2.112,1.962-4.226,3.924-6.338,5.886c-7.998,8.148-15.998,16.3-23.996,24.449
		c-3.02,3.019-6.037,6.037-9.056,9.055c-1.391,1.39-3.484,2.368-4.075,4.527c-0.302,0-0.604,0-0.905,0
		c-1.197,2.585-3.543,3.996-5.433,5.886c-3.32,3.471-6.643,6.943-9.962,10.414c-0.15,0-0.302,0-0.452,0
		c-1.573,1.574-3.571,4.813-5.887,5.433c-2.865-3.018-5.734-6.037-8.603-9.055c-1.285-1.286-3.071-2.053-3.621-4.075
		c-1.868-0.462-1.76-1.388-2.717-2.717c-0.824-1.145-1.795-0.875-2.265-2.716c2.357-1.359,4.001-4.001,5.887-5.886
		c4.225-4.075,8.452-8.15,12.677-12.225c0-0.151,0-0.302,0-0.453c1.685-1.684,6.173-4.95,6.792-7.244c0.301,0,0.604,0,0.905,0
		c1.66-1.811,3.319-3.623,4.979-5.433c0.452-0.302,0.905-0.604,1.357-0.905c3.026-4.187,6.821-7.274,10.414-10.866
		c4.829-4.98,9.659-9.961,14.487-14.941c2.565-2.565,5.131-5.131,7.696-7.697c1.286-1.286,3.069-2.052,3.622-4.075
		c0.302,0,0.604,0,0.906,0c0.317-1.398,0.882-1.926,2.264-2.264c0-0.302,0-0.604,0-0.905c2.717-2.565,5.434-5.132,8.149-7.697
		c1.509-1.66,3.019-3.32,4.526-4.98c5.282-5.131,10.564-10.263,15.848-15.394c1.207-1.358,2.415-2.716,3.622-4.075
		c0.754-0.604,1.51-1.208,2.264-1.811c1.143-1.26,0.61-2.144,2.717-2.716c0-0.302,0-0.604,0-0.906c0.15,0,0.302,0,0.452,0
		c0.755-0.905,1.51-1.811,2.264-2.716c0.303,0,0.604,0,0.906,0c0.506-1.884,1.99-2.443,3.169-3.622
		c2.265-2.264,4.527-4.528,6.792-6.792c4.226-4.376,8.451-8.753,12.678-13.13c2.111-1.962,4.226-3.924,6.339-5.886
		c0.604-0.612,1.264-2.278,1.811-2.717c0.302,0,0.604,0,0.905,0c0-0.151,0-0.302,0-0.453c0.453-0.302,0.906-0.604,1.357-0.906
		c0.738-1.014,0.871-1.946,1.813-2.716c0.15-1.358,0.302-2.716,0.452-4.075c-0.15,0-0.302,0-0.452,0c0-0.604,0-1.208,0-1.811
		c-1.524-1.015-1.471-2.594-3.622-3.169c-1.384-1.377-5.688-1.02-7.244,0c-0.15,0.302-0.303,0.604-0.453,0.906
		c-1.057,0.905-2.112,1.811-3.169,2.716c-6.941,7.092-13.886,14.187-20.826,21.28c-2.718,2.565-5.434,5.131-8.149,7.697
		c0,0.302,0,0.604,0,0.905c-0.302,0-0.604,0-0.905,0c-0.318,1.398-0.883,1.926-2.264,2.264c-0.461,1.8-1.878,2.208-2.717,3.622
		c-0.303,0-0.604,0-0.905,0c0,0.302,0,0.604,0,0.906c-2.565,2.415-5.132,4.83-7.697,7.244c-6.64,6.791-13.281,13.583-19.921,20.374
		c-2.717,2.565-5.434,5.131-8.15,7.697c0,0.302,0,0.604,0,0.905c-0.301,0-0.604,0-0.904,0c-0.452,0.604-0.905,1.208-1.358,1.812
		c-0.15,0-0.302,0-0.452,0c-0.896,1.233-0.512,1.813-2.265,2.264c-0.326,1.25-0.126,1.013-1.357,1.358
		c-0.319,1.397-0.883,1.926-2.264,2.264c-0.627,2.302-5.103,5.554-6.792,7.244c-5.734,5.885-11.471,11.772-17.204,17.657
		c-1.695,1.695-6.158,4.934-6.792,7.244c-0.303,0-0.604,0-0.905,0c-0.84,1.427-2.229,1.82-2.717,3.622c-0.302,0-0.604,0-0.905,0
		c0,0.302,0,0.604,0,0.906c-0.453,0.151-0.905,0.302-1.358,0.453c-1.391,1.099-0.888,2.589-3.169,3.169
		c-0.606,2.25-4.715,5.168-6.339,6.792c-5.733,5.885-11.47,11.772-17.205,17.658c-0.149,0-0.301,0-0.452,0c0-0.151,0-0.302,0-0.453
		c-2.171-1.253-3.522-3.417-4.979-5.433c-1.358-1.208-2.717-2.415-4.075-3.622c-2.716-2.867-5.433-5.735-8.148-8.603
		c-1.624-1.625-5.73-4.541-6.34-6.792c2.521-1.467,4.314-4.314,6.34-6.338c0.904-0.754,1.812-1.509,2.717-2.264
		c3.771-3.924,7.546-7.848,11.318-11.772c4.226-4.074,8.451-8.15,12.678-12.224c2.564-2.716,5.132-5.434,7.695-8.15
		c2.113-1.961,4.228-3.924,6.34-5.886c0-0.302,0-0.604,0-0.906c0.755-0.453,1.51-0.905,2.264-1.358c0-0.302,0-0.604,0-0.906
		c1.813-1.66,3.622-3.32,5.434-4.98c3.772-3.924,7.547-7.848,11.318-11.772c4.829-4.678,9.659-9.357,14.488-14.035
		c0.604-0.755,1.208-1.509,1.812-2.264c1.69-1.69,6.164-4.941,6.791-7.244c0.302,0,0.604,0,0.905,0
		c1.507-2.567,6.033-4.906,6.792-7.697c0.301,0,0.604,0,0.905,0c0-0.302,0-0.604,0-0.905c0.302,0,0.604,0,0.904,0
		c1.535-3.293,6.054-6.506,8.604-9.055c1.358-1.509,2.717-3.019,4.075-4.528c5.13-4.979,10.263-9.961,15.394-14.941
		c1.358-1.509,2.716-3.018,4.074-4.527c0.906-0.754,1.813-1.509,2.717-2.264c1.007-1.015,1.104-2.238,2.717-2.717
		c0-0.302,0-0.604,0-0.905c0.303,0,0.604,0,0.905,0c0.58-1.351,1.136-2.32,2.718-2.717c0.422-1.771,3.606-4.885,5.886-4.98
		c1.061-0.908,2.148-0.396,3.622-0.906c0-0.151,0-0.302,0-0.453c0.604,0,1.207,0,1.811,0c0-0.151,0-0.302,0-0.453
		c0.453,0,0.906,0,1.358,0c0-0.151,0-0.302,0-0.453c1.66-0.302,3.319-0.604,4.979-0.905c0-0.151,0-0.302,0-0.453
		c1.058-0.151,2.113-0.302,3.169-0.453c0-0.15,0-0.302,0-0.453c0.906-0.151,1.813-0.302,2.718-0.453c0-0.151,0-0.302,0-0.453
		c0.904-0.151,1.812-0.302,2.717-0.453c0-0.15,0-0.302,0-0.453c0.302,0,0.604,0,0.904,0c0-0.151,0-0.302,0-0.453
		c0.453,0,0.905,0,1.358,0c0-0.151,0-0.302,0-0.453c1.358-0.302,2.717-0.604,4.075-0.906c0-0.151,0-0.302,0-0.453
		c0.604-0.151,1.207-0.302,1.811-0.453c0-0.151,0-0.302,0-0.453c0.905-0.15,1.813-0.302,2.718-0.453c0-0.151,0-0.302,0-0.453
		c0.604-0.151,1.207-0.302,1.811-0.453c0-0.151,0-0.302,0-0.453c0.453,0,0.906,0,1.358,0c0-0.15,0-0.302,0-0.453
		c0.302,0,0.604,0,0.906,0c0-0.151,0-0.302,0-0.453c0.451,0,0.904,0,1.356,0c0-0.151,0-0.302,0-0.453
		c0.906-0.302,1.813-0.604,2.717-0.906c0-0.15,0-0.302,0-0.453c0.303,0,0.604,0,0.905,0c0-0.151,0-0.302,0-0.453
		c0.453,0,0.905,0,1.358,0c0-0.151,0-0.302,0-0.453c0.905-0.302,1.812-0.604,2.717-0.905c0-0.151,0-0.302,0-0.453
		c0.302,0,0.604,0,0.905,0c0-0.151,0-0.302,0-0.453c0.302,0,0.604,0,0.904,0c0-0.151,0-0.302,0-0.453c0.303,0,0.604,0,0.906,0
		c0-0.15,0-0.302,0-0.453c0.301,0,0.604,0,0.905,0c0-0.151,0-0.302,0-0.453c0.302,0,0.604,0,0.905,0c0-0.151,0-0.302,0-0.453
		c0.302,0,0.604,0,0.904,0c0.151-0.302,0.303-0.604,0.453-0.905c0.303,0,0.604,0,0.905,0c0-0.151,0-0.302,0-0.453
		c0.302,0,0.604,0,0.906,0c0-0.151,0-0.302,0-0.453c0.301,0,0.604,0,0.905,0c0-0.151,0-0.302,0-0.453c0.302,0,0.604,0,0.904,0
		c0-0.15,0-0.302,0-0.453c0.303,0,0.604,0,0.905,0c0.151-0.302,0.302-0.604,0.453-0.905c0.302,0,0.604,0,0.905,0
		c0-0.151,0-0.302,0-0.453c0.302,0,0.604,0,0.904,0c0-0.151,0-0.302,0-0.453c0.303,0,0.604,0,0.906,0c0-0.151,0-0.302,0-0.453
		c0.301,0,0.604,0,0.905,0c0.15-0.302,0.302-0.604,0.453-0.906c0.604-0.15,1.207-0.302,1.811-0.453
		c0.15-0.302,0.303-0.604,0.453-0.905c0.604-0.151,1.207-0.302,1.812-0.453c0.149-0.302,0.302-0.604,0.453-0.905
		c0.604-0.151,1.207-0.302,1.811-0.453c0-0.151,0-0.302,0-0.453c0.453-0.15,0.905-0.302,1.358-0.453
		c0.149-0.302,0.302-0.604,0.453-0.905c0.604-0.151,1.207-0.302,1.811-0.453c0.151-0.302,0.302-0.604,0.453-0.905
		c0.302,0,0.604,0,0.905,0c0.149-0.302,0.302-0.604,0.453-0.906c0.301,0,0.604,0,0.904,0c0.303-0.453,0.604-0.905,0.905-1.358
		c0.302,0,0.604,0,0.905,0c0.15-0.302,0.302-0.604,0.453-0.906c0.302,0,0.604,0,0.904,0c0-0.151,0-0.302,0-0.453
		c0.453-0.151,0.906-0.302,1.358-0.453c0.151-0.302,0.302-0.604,0.453-0.906c0.302,0,0.604,0,0.905,0
		c0.302-0.453,0.604-0.905,0.904-1.358c0.303,0,0.604,0,0.905,0c0.151-0.302,0.302-0.604,0.453-0.906c0.302,0,0.604,0,0.905,0
		c0.302-0.453,0.604-0.906,0.906-1.358c0.301,0,0.604,0,0.904,0c0.15-0.302,0.303-0.604,0.453-0.905c0.301,0,0.604,0,0.905,0
		c0.302-0.453,0.604-0.906,0.905-1.358c0.302,0,0.604,0,0.904,0c0.303-0.453,0.604-0.906,0.905-1.358c0.302,0,0.604,0,0.906,0
		c0.452-0.604,0.905-1.208,1.357-1.811c0.452-0.15,0.905-0.302,1.357-0.453c0.151-0.302,0.302-0.604,0.453-0.905
		c0.302,0,0.604,0,0.905,0c0.604-0.755,1.208-1.509,1.812-2.264c0.452-0.15,0.905-0.302,1.358-0.453
		c0.15-0.302,0.301-0.604,0.452-0.905c0.302,0,0.604,0,0.905,0c0.755-0.906,1.51-1.811,2.265-2.717c0.301,0,0.604,0,0.905,0
		c0.453-0.604,0.904-1.208,1.357-1.811c0.303,0,0.604,0,0.905,0c0.754-0.905,1.51-1.811,2.265-2.716c0.302,0,0.604,0,0.904,0
		c1.207-1.358,2.415-2.717,3.622-4.075c0.302,0,0.604,0,0.906,0c0.149-0.302,0.301-0.604,0.452-0.906
		C1929.252-154.863,1931.164-157.021,1932.671-157.437z"/>
	<path d="M1661.471,51.736c0,0.302,0,0.604,0,0.906c6.035,5.885,12.073,11.772,18.109,17.657c0.906,1.057,1.812,2.113,2.717,3.169
		c0.604,0.453,1.208,0.905,1.813,1.358c0.301,0.604,0.604,1.208,0.904,1.811c0.303,0,0.604,0,0.905,0
		c0.483,1.859,0.298,0.465,1.358,1.358c0,0.151,0,0.302,0,0.453c0.15,0,0.302,0,0.453,0c0,0.302,0,0.604,0,0.905
		c0.149,0,0.301,0,0.451,0c0.621,0.66,0.222,0.615,1.358,0.906c0,0.302,0,0.604,0,0.905c1.209,0.7,1.773,1.775,2.717,2.717
		c2.266,2.263,4.527,4.527,6.791,6.791c5.132,4.98,10.265,9.961,15.395,14.941c1.812,1.962,3.622,3.924,5.434,5.886
		c2.565,2.565,5.132,5.13,7.696,7.697c1.181,1.181,2.658,1.738,3.17,3.622c0.301,0,0.604,0,0.905,0
		c0.149,0.301,0.302,0.604,0.453,0.905c0.301,0.151,0.604,0.302,0.905,0.453c0,0.301,0,0.604,0,0.905c0.149,0,0.302,0,0.452,0
		c0.604,0.754,1.207,1.51,1.812,2.264c0.302,0,0.604,0,0.905,0c0,0.302,0,0.604,0,0.906c1.427,0.84,1.819,2.229,3.622,2.716
		c0.387,1.331,1.046,1.793,1.812,2.717c0.15,0,0.302,0,0.452,0c0,0.301,0,0.604,0,0.905c0.302,0.151,0.604,0.302,0.906,0.453
		c0,0.302,0,0.604,0,0.906c0.149,0,0.301,0,0.451,0c0,0.302,0,0.604,0,0.905c0.151,0,0.303,0,0.453,0c0,0.453,0,0.906,0,1.358
		c0.15,0,0.303,0,0.452,0c0,0.906,0,1.811,0,2.717c0.151,0,0.302,0,0.453,0c0,0.754,0,1.509,0,2.264c-0.151,0-0.302,0-0.453,0
		c0,0.754,0,1.509,0,2.264c-0.149,0-0.302,0-0.452,0c0,0.453,0,0.905,0,1.358c-0.15,0-0.302,0-0.453,0
		c-0.15,0.604-0.302,1.208-0.451,1.811c-0.151,0-0.304,0-0.453,0c0,0.301,0,0.604,0,0.905c-0.453,0.302-0.905,0.604-1.358,0.906
		c-0.604,0.754-1.207,1.509-1.812,2.264c-0.302,0-0.604,0-0.905,0c0,0.151,0,0.302,0,0.453c-0.604,0.151-1.207,0.302-1.812,0.453
		c0,0.151,0,0.302,0,0.453c-1.373,0.589-6.657,0.953-8.148,0.453c0-0.151,0-0.302,0-0.453c-0.453,0-0.906,0-1.358,0
		c0-0.151,0-0.302,0-0.453c-0.905-0.301-1.812-0.604-2.717-0.905c-0.302-0.453-0.604-0.905-0.905-1.358c-0.302,0-0.604,0-0.906,0
		c-0.604-0.754-1.207-1.509-1.811-2.264c-1.275-1.272-3.098-2.058-3.622-4.075c-0.302,0-0.604,0-0.905,0c0-0.302,0-0.604,0-0.906
		c-0.964-0.549-0.984-1.02-2.264-1.358c0-0.302,0-0.604,0-0.906c-7.093-6.941-14.188-13.885-21.28-20.827
		c-1.207-1.358-2.415-2.717-3.622-4.075c-0.754-0.604-1.509-1.208-2.264-1.811c-0.301-0.604-0.604-1.208-0.905-1.811
		c-0.302,0-0.604,0-0.905,0c0-0.302,0-0.604,0-0.906c-0.916-0.42-2.153-1.049-2.717-1.811c0-0.301,0-0.604,0-0.905
		c-0.302-0.151-0.604-0.302-0.905-0.453c0-0.151,0-0.302,0-0.453c-0.302,0-0.604,0-0.904,0c-1.813-1.962-3.622-3.924-5.435-5.886
		c-1.176-1.177-2.67-1.739-3.169-3.622c-2.265-0.623-1.06-1.625-3.17-2.264c-0.481-1.859-0.298-0.465-1.356-1.358
		c0-0.151,0-0.302,0-0.453c-0.151,0-0.303,0-0.453,0c0-0.302,0-0.604,0-0.906c-0.151,0-0.303,0-0.453,0
		c-0.62-0.66-0.221-0.614-1.358-0.905c0-0.302,0-0.604,0-0.906c-0.754-0.453-1.509-0.905-2.264-1.358c0-0.302,0-0.604,0-0.906
		c-0.15,0-0.302,0-0.452,0c-0.453-0.604-0.905-1.208-1.358-1.811c-0.453-0.151-0.905-0.302-1.357-0.453
		c-0.303-0.604-0.604-1.208-0.905-1.811c-1.207-1.056-2.415-2.113-3.622-3.169c-0.453-0.604-0.905-1.208-1.358-1.811
		c-0.302,0-0.604,0-0.904,0c-0.151-0.453-0.303-0.905-0.453-1.358c-0.905-0.755-1.813-1.51-2.717-2.264c0-0.151,0-0.302,0-0.453
		c-0.303,0-0.604,0-0.905,0c0-0.302,0-0.604,0-0.905c-1.218-0.679-1.778-1.78-2.718-2.717c-1.606-1.606-3.755-3.027-4.979-4.98
		c-0.15-0.604-0.301-1.208-0.452-1.811c-0.15,0-0.302,0-0.453,0c-0.15-0.905-0.302-1.811-0.452-2.716c-0.15,0-0.302,0-0.452,0
		c-0.472-1.507,0.187-4.153,0.452-4.98c0.15-1.056,0.302-2.113,0.452-3.169c0.151,0,0.303,0,0.453,0c0-0.302,0-0.604,0-0.906
		c0.905-1.208,1.812-2.415,2.717-3.622c0.302,0,0.604,0,0.905,0c0.151-0.302,0.302-0.604,0.452-0.905
		c0.604-0.151,1.208-0.302,1.813-0.453c0-0.151,0-0.302,0-0.453c0.302,0,0.604,0,0.904,0c0-0.151,0-0.302,0-0.453
		c2.438-1.042,8.404-0.466,10.413,0.453C1659.124,50.056,1659.713,51.261,1661.471,51.736z"/>
	<path d="M1709.01,146.815c-2.264-2.415-4.526-4.83-6.791-7.244c-1.057-0.906-2.113-1.811-3.17-2.717c0-0.301,0-0.604,0-0.905
		c-0.604-0.302-1.207-0.604-1.811-0.906c-0.151-0.453-0.303-0.905-0.453-1.358c-1.207-1.057-2.415-2.113-3.622-3.169
		c-0.302-0.453-0.604-0.906-0.905-1.358c-0.302,0-0.604,0-0.906,0c-0.149-0.301-0.301-0.604-0.451-0.905
		c-0.756-0.604-1.511-1.208-2.265-1.811c0-0.302,0-0.604,0-0.906c-0.905-0.604-1.812-1.208-2.717-1.811c0-0.301,0-0.604,0-0.905
		c-0.452-0.151-0.905-0.302-1.358-0.453c0-0.301,0-0.604,0-0.905c-0.754-0.453-1.51-0.905-2.264-1.358c0-0.301,0-0.604,0-0.905
		c-1.838-0.556-0.513-0.253-1.358-1.358c-0.302-0.151-0.604-0.302-0.905-0.453c-1.207-1.358-2.414-2.717-3.621-4.075
		c-0.303,0-0.604,0-0.905,0c-0.603-2.235-3.482-3.935-4.98-5.433c0-0.151,0-0.302,0-0.453c-3.318-3.169-6.641-6.339-9.961-9.508
		c-1.479-1.479-2.661-3.455-4.526-4.527c0-0.302,0-0.604,0-0.906c-1.803-0.487-2.195-1.876-3.622-2.716c0-0.302,0-0.604,0-0.906
		c-0.302,0-0.604,0-0.905,0c0-0.15,0-0.302,0-0.453c-0.906-0.754-1.813-1.509-2.717-2.264c0-0.302,0-0.604,0-0.906
		c-1.207-0.905-2.415-1.811-3.622-2.716c0-0.302,0-0.604,0-0.906c-1.509-1.358-3.02-2.717-4.527-4.075
		c-0.302-0.453-0.604-0.905-0.905-1.358c-0.302,0-0.604,0-0.905,0c0,0.302,0,0.604,0,0.905c-2.866,2.716-5.735,5.433-8.603,8.149
		c-7.093,7.244-14.188,14.489-21.279,21.732c-2.717,2.565-5.434,5.132-8.149,7.697c0,0.302,0,0.604,0,0.906
		c-0.302,0-0.604,0-0.905,0c0,0.301,0,0.604,0,0.905c-1.869,0.48-1.75,1.381-2.717,2.717c-0.151,0-0.302,0-0.453,0
		c-0.452,0.604-0.905,1.208-1.357,1.811c-0.302,0-0.604,0-0.905,0c0,0.301,0,0.604,0,0.905c-0.302,0-0.604,0-0.905,0
		c0,0.302,0,0.604,0,0.906c-3.018,2.867-6.037,5.735-9.055,8.603c-7.547,7.696-15.094,15.395-22.64,23.09
		c-2.867,2.716-5.733,5.433-8.602,8.149c0,0.302,0,0.604,0,0.905c-0.303,0-0.604,0-0.906,0c0,0.302,0,0.604,0,0.906
		c-1.458,0.371-1.736,1.033-2.265,2.264c-0.301,0-0.604,0-0.904,0c-0.545,1.842-0.327,0.479-1.358,1.357c0,0.151,0,0.303,0,0.453
		c-0.149,0-0.302,0-0.452,0c0,0.301,0,0.604,0,0.905c-0.215,0.307-0.591,0.335-0.906,0.905c-0.301,0-0.604,0-0.904,0
		c-0.328,1.307-0.486,1.502-1.812,1.812c-0.476,1.745-1.64,2.091-2.717,3.169c-2.264,2.415-4.527,4.83-6.791,7.244
		c-0.302,0-0.604,0-0.906,0c-0.534,1.975-2.237,2.493-3.169,4.075c-0.302,0-0.604,0-0.904,0c-0.645,2.352-5.49,5.942-7.244,7.696
		c-3.924,4.076-7.85,8.15-11.771,12.226c-2.467,2.466-5.507,4.519-7.244,7.696c-0.302,0-0.604,0-0.906,0c0,0.303,0,0.604,0,0.906
		c-3.018,2.867-6.036,5.735-9.055,8.604c-7.696,7.847-15.395,15.695-23.091,23.543c-3.018,2.867-6.037,5.734-9.055,8.604
		c0,0.301,0,0.604,0,0.904c-1.582,0.396-2.139,1.366-2.718,2.717c-0.302,0-0.604,0-0.904,0c0,0.303,0,0.604,0,0.905
		c-0.304,0-0.604,0-0.906,0c0,0.302,0,0.604,0,0.906c-0.302,0-0.604,0-0.905,0c-0.149,0.452-0.302,0.903-0.452,1.356
		c-0.666,0.865-1.689,1.211-2.265,2.264c-0.302,0-0.604,0-0.905,0c-0.486,1.804-1.876,2.195-2.717,3.623c-0.302,0-0.604,0-0.905,0
		c-0.501,1.884-1.992,2.443-3.169,3.621c-1.812,1.813-3.621,3.623-5.434,5.435c-0.94,0.938-1.503,2.024-2.716,2.717
		c0.483,1.746,1.354,1.423,1.811,3.169c1.605,0.438,1.742,1.292,2.717,2.264c1.057,0.906,2.113,1.813,3.169,2.718
		c0,0.151,0,0.302,0,0.452c0.304,0.15,0.604,0.302,0.906,0.453c0,0.302,0,0.604,0,0.904c0.754,0.453,1.509,0.905,2.264,1.358
		c0,0.302,0,0.604,0,0.905c1.308,0.328,1.502,0.485,1.812,1.812c0.302,0,0.604,0,0.905,0c0.755,1.058,1.51,2.113,2.264,3.169
		c0.906,0.755,1.813,1.51,2.717,2.266c1.66,1.811,3.32,3.621,4.98,5.433c9.507,9.354,19.017,18.715,28.522,28.071
		c1.66,1.811,3.32,3.62,4.98,5.433c0.905,0.754,1.812,1.509,2.717,2.264c0.754,1.057,1.51,2.112,2.265,3.169
		c0.302,0,0.604,0,0.904,0c0.588,2.16,2.688,3.14,4.075,4.527c3.319,3.471,6.641,6.943,9.96,10.414
		c1.746-0.475,2.092-1.64,3.17-2.717c2.565-2.414,5.132-4.83,7.696-7.244c-0.195-1.364-0.276-1.458-0.905-2.264
		c-0.15,0-0.302,0-0.452,0c0-0.302,0-0.604,0-0.905c-0.302-0.151-0.604-0.302-0.905-0.453c-0.793-1.257-2.968-8.792-2.265-11.319
		c0.151,0,0.302,0,0.453,0c0.15-1.811,0.302-3.621,0.452-5.433c0.15,0,0.303,0,0.453,0c0-0.452,0-0.905,0-1.358
		c0.149,0,0.302,0,0.453,0c0-0.453,0-0.904,0-1.356c0.149,0,0.302,0,0.451,0c0-0.453,0-0.906,0-1.359c0.151,0,0.304,0,0.453,0
		c0-0.301,0-0.604,0-0.904c0.15,0,0.303,0,0.453,0c0-0.452,0-0.905,0-1.358c0.15,0,0.303,0,0.452,0
		c0.151-0.604,0.302-1.207,0.453-1.812c0.15,0,0.302,0,0.452,0c0.15-0.604,0.303-1.207,0.453-1.811
		c0.302-0.152,0.604-0.303,0.904-0.453c0-0.302,0-0.604,0-0.906c0.303-0.149,0.604-0.301,0.906-0.452c0-0.302,0-0.604,0-0.904
		c0.301-0.151,0.604-0.303,0.905-0.453c0-0.301,0-0.604,0-0.905c0.302-0.151,0.604-0.302,0.905-0.453
		c0.149-0.452,0.302-0.905,0.453-1.357c0.451-0.302,0.904-0.604,1.357-0.905c0-0.302,0-0.604,0-0.905
		c0.754-0.604,1.51-1.207,2.265-1.811c1.056-1.207,2.111-2.416,3.169-3.623c0.302,0,0.604,0,0.904,0
		c0.453-0.604,0.905-1.207,1.358-1.812c0.302,0,0.604,0,0.905,0c0.15-0.302,0.303-0.604,0.453-0.906c0.302,0,0.604,0,0.904,0
		c0.303-0.451,0.604-0.903,0.906-1.356c0.604-0.151,1.207-0.302,1.812-0.453c0.149-0.301,0.302-0.604,0.452-0.905
		c0.905-0.302,1.812-0.604,2.717-0.904c4.599-2.455,13.047-5.42,19.922-2.717c0-0.151,0-0.303,0-0.453c0.149,0,0.302,0,0.452,0
		c-0.638-1.592-0.898-3.078-0.905-5.434c-0.011-3.792,0.466-5.977,1.357-8.604c0-0.604,0-1.206,0-1.811c0.151,0,0.303,0,0.453,0
		c0-0.302,0-0.604,0-0.906c0.15,0,0.302,0,0.452,0c0.151-0.904,0.302-1.811,0.453-2.717c0.302-0.15,0.604-0.301,0.905-0.451
		c0-0.453,0-0.906,0-1.358c0.302-0.151,0.604-0.302,0.905-0.453c0.302-0.905,0.604-1.812,0.905-2.716
		c0.302-0.151,0.604-0.303,0.905-0.453c0-0.303,0-0.604,0-0.905c0.302-0.151,0.604-0.302,0.905-0.452c0-0.302,0-0.604,0-0.906
		c0.453-0.301,0.905-0.604,1.357-0.904c6.506-9.232,14.188-14.457,26.261-18.11c2.655-0.804,9.008,0.319,11.318,0.452
		c-0.235-2.357-1.666-5.393-0.905-8.148c0.15,0,0.302,0,0.453,0c0-1.207,0-2.416,0-3.623c0.15,0,0.302,0,0.452,0
		c0-0.604,0-1.207,0-1.811c0.151,0,0.302,0,0.452,0c0-0.604,0-1.208,0-1.811c0.151,0,0.303,0,0.453,0c0-0.303,0-0.604,0-0.906
		c0.151,0,0.302,0,0.453,0c0-0.453,0-0.905,0-1.357c0.15,0,0.301,0,0.452,0c0-0.453,0-0.906,0-1.359c0.151,0,0.302,0,0.453,0
		c0.302-0.905,0.604-1.811,0.905-2.717c0.15,0,0.302,0,0.452,0c0.15-0.604,0.302-1.207,0.452-1.811
		c0.303-0.15,0.604-0.301,0.905-0.453c0.151-0.604,0.302-1.208,0.453-1.811c0.302-0.151,0.604-0.303,0.905-0.453
		c0-0.303,0-0.604,0-0.906c0.453-0.301,0.905-0.604,1.357-0.904c0-0.303,0-0.604,0-0.906c0.604-0.453,1.208-0.905,1.813-1.358
		c0-0.302,0-0.604,0-0.906c0.754-0.604,1.509-1.208,2.264-1.811c1.057-1.207,2.112-2.415,3.169-3.622c0.302,0,0.604,0,0.905,0
		c0.453-0.604,0.906-1.208,1.357-1.811c0.303,0,0.604,0,0.906,0c0.15-0.302,0.301-0.604,0.452-0.906c0.302,0,0.604,0,0.905,0
		c0.15-0.301,0.302-0.604,0.453-0.905c0.302,0,0.604,0,0.904,0c0.151-0.302,0.303-0.604,0.453-0.905c0.303,0,0.604,0,0.905,0
		c0-0.15,0-0.302,0-0.453c0.302,0,0.604,0,0.905,0c0.15-0.301,0.302-0.604,0.453-0.904c0.302,0,0.604,0,0.904,0
		c3.337-1.855,8.577-4.016,13.584-4.075c2.225-0.027,5.685-0.104,6.791,0.905c0.302,0,0.604,0,0.904,0
		c-3.875-10.265,2.788-22.402,6.792-28.071c0.452-0.302,0.905-0.604,1.358-0.905c0-0.302,0-0.604,0-0.906
		c0.301-0.15,0.604-0.302,0.905-0.453c1.019-1.078,2.756-2.529,3.169-4.074c1.565-0.441,2.569-1.723,3.621-2.717
		c0.151-0.301,0.303-0.604,0.453-0.904c0.303,0,0.604,0,0.905,0c0.302-0.453,0.604-0.906,0.905-1.358c0.302,0,0.604,0,0.906,0
		c0.15-0.302,0.301-0.604,0.451-0.905c0.453-0.151,0.906-0.302,1.358-0.453c0-0.151,0-0.301,0-0.453
		c0.604-0.151,1.208-0.303,1.813-0.453c0.149-0.303,0.301-0.604,0.452-0.906c0.302,0,0.604,0,0.904,0c0-0.15,0-0.301,0-0.453
		c0.906-0.302,1.813-0.604,2.717-0.906c0-0.151,0-0.301,0-0.453c0.453,0,0.906,0,1.358,0c0-0.151,0-0.301,0-0.453
		c0.453,0,0.905,0,1.358,0c0-0.151,0-0.302,0-0.453c0.302,0,0.604,0,0.904,0c0-0.151,0-0.302,0-0.453
		c1.358-0.151,2.718-0.301,4.075-0.453c1.297-0.391,6.66-1.027,8.604-0.453c0,0.151,0,0.301,0,0.453c0.604,0,1.207,0,1.811,0
		c0,0.151,0,0.302,0,0.453c0.453,0,0.905,0,1.358,0c0,0.151,0,0.302,0,0.453c0.604,0.151,1.207,0.301,1.811,0.453
		c0,0.151,0,0.302,0,0.453c0.303,0,0.604,0,0.906,0c0.301,0.453,0.604,0.906,0.905,1.358c0.302,0,0.604,0,0.905,0
		c0.275,0.187,0.363,0.601,0.905,0.905c0.888-1.537,2.411-2.411,3.621-3.622c1.208-1.208,2.083-2.745,3.622-3.622
		C1716.344,152.706,1710.854,148.659,1709.01,146.815z M1481.726,260.457c-0.901,0.781-0.382,1.053-0.904,1.811
		c-0.905,0.756-1.812,1.51-2.718,2.266c-2.111,2.264-4.226,4.527-6.338,6.791c-2.415,2.264-4.83,4.527-7.244,6.792
		c-0.905,1.056-1.812,2.112-2.717,3.169c-0.755,0.15-1.509,0.302-2.264,0.451c0,0.152,0,0.303,0,0.453
		c-0.905-0.15-1.813-0.301-2.717-0.453c0-0.149,0-0.301,0-0.451c-2.062-0.555-1.47-1.592-2.718-2.717
		c0.021-6.19,3.295-5.889,5.435-9.508c0.302,0,0.604,0,0.904,0c0.581-2.158,2.689-3.143,4.075-4.527
		c1.659-1.813,3.32-3.622,4.98-5.434c0.301,0,0.604,0,0.904,0c0.15-0.303,0.303-0.604,0.452-0.906c0.151,0,0.303,0,0.453,0
		c0-0.301,0-0.604,0-0.904c0.453-0.303,0.905-0.604,1.358-0.905c0-0.151,0-0.302,0-0.452c0.833-0.76,1.985-0.947,2.717-1.812
		C1479.7,253.714,1481.925,254.896,1481.726,260.457z M1497.119,245.516c-0.15,0-0.302,0-0.452,0
		c-0.453,0.604-0.905,1.209-1.358,1.813c-0.453,0-0.904,0-1.357,0c0,0.15,0,0.302,0,0.453c-2.876-0.067-3.214-0.844-4.98-1.813
		c0-0.15,0-0.301,0-0.453c-0.149,0-0.302,0-0.452,0c0-0.451,0-0.904,0-1.356c-0.15,0-0.303,0-0.452,0
		c0.065-5.136,2.896-6.067,5.434-8.603c2.112-2.265,4.226-4.529,6.338-6.793c1.057-0.904,2.113-1.811,3.17-2.716
		c0-0.302,0-0.604,0-0.905c0.452-0.151,0.905-0.302,1.357-0.453c0.755-1.057,1.51-2.113,2.265-3.17c0.301,0,0.604,0,0.905,0
		c0.517-1.884,1.986-2.438,3.169-3.621c2.564-2.566,5.131-5.131,7.697-7.697c9.054-9.205,18.11-18.413,27.165-27.618
		c2.415-2.415,4.83-4.829,7.244-7.244c1.182-1.182,2.655-1.737,3.168-3.622c1.309-0.328,1.502-0.486,1.813-1.811
		c1.851-0.516,0.468-0.309,1.358-1.358c0.149,0,0.302,0,0.452,0c0-0.151,0-0.302,0-0.452c0.302,0,0.604,0,0.905,0
		c0.452-0.755,0.905-1.51,1.357-2.265c0.302,0,0.604,0,0.906,0c0.646-2.312,1.342-1.106,2.264-2.265c0-0.301,0-0.604,0-0.905
		c0.754-0.604,1.51-1.208,2.264-1.811c0-0.151,0-0.301,0-0.453c0.303,0,0.604,0,0.905,0c0.453-0.754,0.905-1.509,1.358-2.264
		c1.659-1.691,3.739-2.856,4.979-4.98c0.303,0,0.604,0,0.905,0c0.487-1.802,1.877-2.195,2.717-3.622c0.302,0,0.604,0,0.905,0
		c0-0.301,0-0.604,0-0.905c2.564-2.415,5.132-4.83,7.697-7.244c6.338-6.489,12.678-12.979,19.016-19.469
		c1.753-1.752,7.029-5.897,7.697-8.149c0.301,0,0.604,0,0.905,0c0.302-0.604,0.604-1.208,0.904-1.811
		c1.51-1.492,3.457-2.607,4.527-4.527c0.302,0,0.604,0,0.906,0c0.52-2.018,2.349-2.803,3.621-4.075
		c2.866-3.018,5.735-6.037,8.603-9.055c0.943-0.933,3.774-3.122,4.98-2.264c1.135,0.056,1.615,0.006,2.264,0.453
		c0,0.151,0,0.302,0,0.453c0.453,0.151,0.905,0.302,1.358,0.453c0,0.302,0,0.604,0,0.905c0.15,0,0.302,0,0.452,0
		c0.553,0.849-0.3,0.228,0.452,0.906c-0.15,1.358-0.302,2.717-0.452,4.075c-0.15,0-0.302,0-0.452,0
		c-0.151,0.453-0.303,0.906-0.453,1.358c-1.381,0.338-1.944,0.866-2.265,2.264c-0.301,0-0.604,0-0.904,0c0,0.302,0,0.604,0,0.906
		c-0.303,0-0.604,0-0.905,0c-0.551,2.022-2.337,2.789-3.622,4.075c-3.02,3.169-6.037,6.339-9.056,9.508c-0.302,0-0.604,0-0.905,0
		c0,0.301,0,0.604,0,0.905c-2.716,2.565-5.434,5.132-8.149,7.697c-6.791,6.942-13.584,13.885-20.374,20.827
		c-2.717,2.565-5.433,5.131-8.148,7.697c0,0.301,0,0.604,0,0.906c-1.853,0.513-0.471,0.317-1.358,1.358c-0.151,0-0.302,0-0.453,0
		c0,0.151,0,0.302,0,0.453c-1.389,1.104-1.363,0.22-2.264,2.264c-0.302,0-0.604,0-0.905,0c-0.648,2.312-1.342,1.107-2.264,2.264
		c0,0.302,0,0.604,0,0.905c-0.905,0.754-1.813,1.51-2.718,2.264c-1.057,1.207-2.112,2.415-3.169,3.622
		c-0.453,0.151-0.905,0.302-1.357,0.453c0,0.302,0,0.604,0,0.905c-0.151,0-0.303,0-0.453,0c-0.302,0.453-0.604,0.906-0.905,1.357
		c-0.754,0.453-1.51,0.906-2.264,1.358c-0.151,0.453-0.302,0.905-0.453,1.358c-0.151,0-0.302,0-0.452,0
		c-0.302,0.453-0.604,0.906-0.906,1.357c-0.301,0-0.604,0-0.904,0c-0.15,0.453-0.303,0.906-0.452,1.358c-0.151,0-0.304,0-0.453,0
		c-0.755,0.905-1.511,1.811-2.265,2.717c-0.302,0-0.604,0-0.905,0c-0.616,2.259-4.707,5.161-6.339,6.791
		c-5.886,6.036-11.771,12.073-17.657,18.11c-0.302,0-0.604,0-0.905,0c-0.866,3.127-5.048,4.121-5.886,7.244
		c-1.136,0.291-0.743,0.234-1.358,0.904c-0.15,0-0.302,0-0.452,0c0,0.303,0,0.604,0,0.906c-0.223,0.32-0.597,0.292-0.905,0.904
		c-0.302,0-0.604,0-0.905,0c-0.486,1.803-1.876,2.195-2.718,3.623c-0.301,0-0.604,0-0.904,0c0,0.302,0,0.604,0,0.906
		c-2.717,2.564-5.434,5.131-8.149,7.696C1509.496,232.838,1503.307,239.18,1497.119,245.516z M1697.689,149.079
		c-7.959-3.09-17.186,0.187-22.638,3.622c-0.604,0.151-1.207,0.302-1.811,0.453c-0.151,0.302-0.302,0.604-0.453,0.906
		c-0.604,0.151-1.207,0.301-1.812,0.453c-0.15,0.301-0.302,0.604-0.453,0.906c-0.302,0-0.604,0-0.904,0
		c-0.453,0.604-0.906,1.207-1.358,1.811c-0.302,0-0.604,0-0.905,0c-0.905,1.057-1.812,2.113-2.717,3.169
		c-0.453,0.151-0.905,0.302-1.357,0.453c-0.151,0.453-0.303,0.906-0.453,1.358c-1.057,0.906-2.112,1.812-3.169,2.718
		c0,0.301,0,0.604,0,0.904c-0.453,0.302-0.905,0.604-1.358,0.906c-0.151,0.453-0.302,0.904-0.453,1.357
		c-0.301,0.151-0.604,0.303-0.905,0.453c0,0.301,0,0.604,0,0.905c-0.302,0.151-0.604,0.302-0.904,0.453
		c-0.151,0.604-0.303,1.208-0.453,1.812c-0.302,0.15-0.604,0.301-0.905,0.452c-0.151,0.604-0.302,1.207-0.452,1.812
		c-0.151,0-0.302,0-0.453,0c-0.302,0.906-0.604,1.812-0.905,2.717c-0.15,0-0.302,0-0.452,0c0,0.453,0,0.904,0,1.357
		c-0.151,0-0.303,0-0.453,0c0,0.301,0,0.604,0,0.905c-0.151,0-0.302,0-0.452,0c0,0.604,0,1.208,0,1.812c-0.151,0-0.302,0-0.453,0
		c0,0.453,0,0.906,0,1.357c-0.151,0-0.302,0-0.453,0c0,0.604,0,1.208,0,1.811c-0.15,0-0.301,0-0.452,0c0,0.906,0,1.812,0,2.717
		c-0.15,0-0.302,0-0.453,0c0.151,2.867,0.303,5.736,0.453,8.604c-2.974-0.061-5.424-0.768-8.148,0c-1.058,0-2.113,0-3.171,0
		c0,0.15,0,0.301,0,0.452c-1.961,0.453-3.924,0.906-5.886,1.358c0,0.15,0,0.302,0,0.453c-0.905,0.302-1.811,0.604-2.716,0.906
		c0,0.15,0,0.301,0,0.453c-0.302,0-0.604,0-0.906,0c0,0.15,0,0.301,0,0.452c-0.301,0-0.604,0-0.904,0c0,0.151,0,0.302,0,0.453
		c-0.604,0.151-1.208,0.301-1.813,0.453c0,0.151,0,0.301,0,0.453c-0.452,0.151-0.905,0.302-1.357,0.452
		c-0.15,0.303-0.302,0.604-0.452,0.906c-0.303,0-0.604,0-0.905,0c-0.151,0.301-0.302,0.604-0.453,0.905
		c-0.452,0.151-0.905,0.302-1.358,0.453c-0.301,0.453-0.604,0.906-0.904,1.358c-0.303,0-0.604,0-0.905,0
		c-0.905,1.056-1.813,2.113-2.717,3.168c-0.303,0-0.604,0-0.905,0c0,0.152,0,0.303,0,0.453c-0.302,0.151-0.604,0.303-0.905,0.453
		c0,0.303,0,0.604,0,0.906c-0.906,0.754-1.812,1.51-2.717,2.264c0,0.303,0,0.604,0,0.906c-0.453,0.301-0.905,0.604-1.358,0.905
		c0,0.302,0,0.604,0,0.905c-0.453,0.302-0.905,0.604-1.357,0.906c0,0.301,0,0.604,0,0.905c-0.303,0.151-0.604,0.302-0.905,0.453
		c-0.151,0.604-0.302,1.208-0.453,1.812c-0.302,0.15-0.604,0.301-0.905,0.453c-0.15,0.604-0.302,1.207-0.453,1.811
		c-0.149,0-0.301,0-0.452,0c-0.302,0.904-0.604,1.811-0.904,2.717c-0.151,0-0.303,0-0.453,0c0,0.453,0,0.905,0,1.357
		c-1.841,4.216-3.843,11.365-1.813,16.752c-0.51,0.388-0.069-0.062-0.451,0.453c-2.147-0.215-7.305-1.215-9.962-0.453
		c0,0.15,0,0.302,0,0.453c-0.754,0-1.51,0-2.264,0c0,0.15,0,0.302,0,0.453c-0.453,0-0.905,0-1.358,0c0,0.15,0,0.301,0,0.451
		c-0.451,0-0.904,0-1.357,0c0,0.152,0,0.303,0,0.453c-0.452,0-0.905,0-1.358,0c0,0.151,0,0.303,0,0.453c-0.452,0-0.905,0-1.358,0
		c0,0.15,0,0.301,0,0.453c-0.904,0.301-1.811,0.604-2.716,0.904c0,0.151,0,0.303,0,0.453c-0.604,0.15-1.208,0.301-1.812,0.453
		c-0.151,0.301-0.301,0.604-0.452,0.904c-0.604,0.15-1.208,0.303-1.812,0.453c-0.151,0.302-0.303,0.604-0.452,0.904
		c-0.303,0-0.604,0-0.906,0c0,0.152,0,0.303,0,0.453c-0.452,0.15-0.905,0.302-1.358,0.453c-0.149,0.301-0.301,0.604-0.452,0.904
		c-0.302,0-0.604,0-0.904,0c-0.755,0.906-1.511,1.813-2.266,2.717c-0.301,0-0.604,0-0.905,0c-0.15,0.303-0.302,0.604-0.451,0.906
		c-0.906,0.754-1.813,1.51-2.718,2.264c0,0.301,0,0.604,0,0.905c-0.755,0.604-1.51,1.208-2.264,1.812c0,0.302,0,0.604,0,0.904
		c-0.604,0.453-1.208,0.906-1.812,1.359c0,0.301,0,0.604,0,0.904c-0.303,0.152-0.604,0.303-0.905,0.453
		c-0.15,0.604-0.302,1.207-0.453,1.812c-0.301,0.151-0.604,0.302-0.905,0.452c-0.15,0.604-0.302,1.208-0.453,1.813
		c-0.301,0.15-0.604,0.301-0.904,0.451c0,0.453,0,0.906,0,1.359c-0.15,0-0.303,0-0.452,0c0,0.301,0,0.604,0,0.904
		c-0.151,0-0.304,0-0.453,0c-0.15,0.604-0.302,1.207-0.453,1.812c-0.15,0-0.302,0-0.452,0c0,0.453,0,0.905,0,1.358
		c-1.105,2.746-2.24,5.588-2.264,9.508c-0.015,2.234-0.113,5.675,0.904,6.791c0,0.15,0,0.302,0,0.453
		c-3.979-0.723-7.795-1.277-11.771,0c-0.604,0-1.208,0-1.813,0c0,0.15,0,0.302,0,0.453c-0.604,0-1.207,0-1.811,0
		c0,0.149,0,0.301,0,0.451c-0.302,0-0.604,0-0.905,0c0,0.151,0,0.303,0,0.453c-0.453,0-0.906,0-1.357,0c0,0.151,0,0.303,0,0.452
		c-0.453,0-0.906,0-1.358,0c0,0.151,0,0.302,0,0.453c-0.604,0.151-1.208,0.302-1.813,0.453c0,0.149,0,0.301,0,0.452
		c-0.604,0.15-1.207,0.302-1.811,0.453c-0.151,0.302-0.302,0.604-0.453,0.904c-0.452,0-0.905,0-1.358,0
		c-0.301,0.453-0.604,0.906-0.904,1.358c-0.303,0-0.604,0-0.905,0c-0.151,0.302-0.302,0.604-0.453,0.905
		c-2.177,1.479-4.548,2.692-5.886,4.979c-0.303,0-0.604,0-0.905,0c-0.443,1.565-2.133,2.978-3.17,4.075
		c-0.301,0.15-0.604,0.302-0.905,0.452c0,0.302,0,0.604,0,0.905c-0.452,0.302-0.905,0.604-1.357,0.905c0,0.302,0,0.604,0,0.905
		c-0.452,0.302-0.905,0.604-1.357,0.906c0,0.301,0,0.604,0,0.903c-0.302,0.152-0.604,0.304-0.906,0.453
		c-0.15,0.604-0.302,1.208-0.452,1.813c-0.302,0.15-0.604,0.302-0.905,0.452c-0.15,0.604-0.303,1.208-0.452,1.812
		c-0.151,0-0.304,0-0.453,0c-0.302,0.905-0.604,1.813-0.905,2.716c-0.151,0-0.302,0-0.453,0c0,0.453,0,0.906,0,1.359
		c-0.15,0-0.302,0-0.452,0c0,0.301,0,0.604,0,0.905c-0.15,0-0.303,0-0.453,0c0,0.604,0,1.207,0,1.811c-0.149,0-0.302,0-0.452,0
		c0,0.453,0,0.905,0,1.358c-0.15,0-0.303,0-0.452,0c0,0.604,0,1.207,0,1.811c-0.151,0-0.303,0-0.453,0
		c-0.15,2.415-0.302,4.83-0.452,7.244c0.15,0,0.302,0,0.452,0c0,0.906,0,1.813,0,2.717c0.453,1.358,0.905,2.717,1.357,4.075
		c-1.866-0.496-1.745-1.372-2.717-2.717c-0.604-0.452-1.207-0.905-1.811-1.358c-0.151-0.604-0.303-1.207-0.453-1.811
		c-0.302-0.151-0.604-0.303-0.905-0.453c-0.453-1.357-0.905-2.717-1.358-4.074c-0.149,0-0.302,0-0.452,0c0-0.302,0-0.604,0-0.906
		c-0.15,0-0.303,0-0.452,0c0-0.604,0-1.207,0-1.811c-2.067-6.053-1.541-12.459,0.452-18.11c0-0.604,0-1.208,0-1.812
		c0.15,0,0.303,0,0.452,0c0.15-0.604,0.303-1.207,0.453-1.811c0.15,0,0.302,0,0.452,0c0-0.453,0-0.906,0-1.359
		c0.151,0,0.303,0,0.453,0c0.15-0.604,0.302-1.207,0.453-1.812c0.15,0,0.302,0,0.452,0c0-0.301,0-0.604,0-0.903
		c0.302-0.152,0.604-0.304,0.905-0.453c0-0.303,0-0.604,0-0.906c0.15,0,0.303,0,0.452,0c0.15-0.452,0.303-0.905,0.453-1.357
		c0.302-0.15,0.604-0.302,0.905-0.453c0-0.302,0-0.604,0-0.904c0.604-0.453,1.207-0.905,1.811-1.358c0-0.302,0-0.604,0-0.905
		c1.207-1.057,2.416-2.113,3.622-3.17c0.453-0.604,0.906-1.207,1.358-1.811c0.302,0,0.604,0,0.906,0c0-0.151,0-0.303,0-0.453
		c0.452-0.15,0.904-0.303,1.356-0.452c0.303-0.453,0.604-0.905,0.906-1.358c0.604-0.15,1.207-0.301,1.812-0.453
		c0.149-0.301,0.302-0.604,0.453-0.904c1.357-0.453,2.716-0.906,4.073-1.357c0-0.152,0-0.303,0-0.453c0.302,0,0.604,0,0.906,0
		c0-0.151,0-0.303,0-0.453c0.452,0,0.905,0,1.357,0c0-0.15,0-0.301,0-0.452c0.452,0,0.905,0,1.357,0c0-0.151,0-0.302,0-0.453
		c0.604,0,1.208,0,1.813,0c0-0.149,0-0.302,0-0.452c0.754,0,1.51,0,2.264,0c0-0.15,0-0.302,0-0.453c1.509,0,3.02,0,4.527,0
		c0.007-0.001,0.368-0.663,1.357-0.451c0,0.149,0,0.301,0,0.451c2.265,0.151,4.527,0.303,6.791,0.453c0,0.15,0,0.303,0,0.452
		c1.058,0.151,2.113,0.302,3.171,0.453c0,0.151,0,0.302,0,0.452c0.604,0.15,1.207,0.302,1.811,0.453
		c-0.754-2.565-1.509-5.133-2.264-7.696c0-1.812,0-3.622,0-5.435c0.002-6.623,1.557-11.348,4.074-15.394c0-0.302,0-0.604,0-0.905
		c0.15,0,0.303,0,0.452,0c0-0.302,0-0.604,0-0.906c0.151,0,0.302,0,0.453,0c0-0.301,0-0.604,0-0.903c0.15,0,0.302,0,0.453,0
		c0-0.304,0-0.604,0-0.906c0.452-0.301,0.905-0.604,1.357-0.905c0.15-0.453,0.303-0.904,0.452-1.357c0.15,0,0.303,0,0.453,0
		c0-0.303,0-0.604,0-0.905c0.905-0.755,1.812-1.511,2.717-2.265c3.311-4.437,9.088-7.641,14.487-9.961
		c1.058-0.15,2.113-0.301,3.17-0.453c2.023-0.682,8.411-2.307,11.771-1.357c0,0.15,0,0.301,0,0.453c0.905,0,1.811,0,2.717,0
		c0,0.15,0,0.302,0,0.453c0.754,0,1.509,0,2.265,0c1.225,0.412,1.918,1.16,3.621,1.357c-0.755-2.716-1.51-5.433-2.264-8.148
		c0-2.717,0-5.434,0-8.15c0.15,0,0.301,0,0.452,0c0-0.904,0-1.811,0-2.716c0.151,0,0.302,0,0.453,0c0-0.604,0-1.208,0-1.812
		c0.15,0,0.302,0,0.452,0c0-0.604,0-1.207,0-1.811c0.15,0,0.302,0,0.453,0c0-0.453,0-0.906,0-1.357c0.15,0,0.302,0,0.452,0
		c0-0.453,0-0.905,0-1.358c0.151,0,0.302,0,0.452,0c0.303-0.905,0.604-1.812,0.906-2.716c0.15,0,0.301,0,0.452,0
		c0.302-0.906,0.604-1.811,0.905-2.717c0.302-0.151,0.604-0.301,0.905-0.453c0-0.301,0-0.604,0-0.905
		c0.302-0.151,0.604-0.302,0.905-0.453c0-0.301,0-0.604,0-0.905c0.604-0.453,1.207-0.906,1.812-1.357c0-0.301,0-0.604,0-0.905
		c0.604-0.453,1.208-0.905,1.812-1.358c1.057-1.207,2.113-2.414,3.169-3.621c0.302,0,0.604,0,0.905,0
		c0.302-0.453,0.604-0.906,0.906-1.358c0.301,0,0.604,0,0.904,0c0.303-0.453,0.604-0.905,0.905-1.358c0.302,0,0.604,0,0.906,0
		c0.149-0.302,0.301-0.604,0.452-0.906c0.904-0.301,1.812-0.604,2.717-0.904c0-0.15,0-0.303,0-0.453c0.302,0,0.604,0,0.905,0
		c0-0.15,0-0.301,0-0.453c0.453,0,0.905,0,1.357,0c0-0.15,0-0.302,0-0.453c0.303,0,0.604,0,0.905,0c0-0.15,0-0.302,0-0.453
		c0.453,0,0.906,0,1.358,0c0-0.15,0-0.302,0-0.453c0.453,0,0.905,0,1.357,0c0-0.15,0-0.301,0-0.453c0.604,0,1.207,0,1.812,0
		c0-0.15,0-0.301,0-0.452c0.755,0,1.51,0,2.264,0c0-0.151,0-0.302,0-0.453c1.51,0,3.021,0,4.528,0c0-0.151,0-0.302,0-0.453
		c0.604,0,1.207,0,1.811,0c0,0.151,0,0.302,0,0.453c2.112,0.151,4.228,0.301,6.339,0.453c1.627,0.515,3.134,1.433,4.98,1.811
		c-0.755-2.565-1.51-5.131-2.264-7.696c-0.791-2.717,0.272-12.231,0.904-14.037c0.151,0,0.303,0,0.453,0
		c0.15-1.055,0.301-2.112,0.452-3.168c0.151,0,0.302,0,0.453,0c0.151-0.604,0.302-1.209,0.452-1.812c0.15,0,0.302,0,0.453,0
		c0-0.301,0-0.604,0-0.905c0.15,0,0.302,0,0.453,0c0-0.302,0-0.604,0-0.906c0.15,0,0.302,0,0.451,0c0-0.301,0-0.604,0-0.905
		c0.151,0,0.303,0,0.453,0c0-0.302,0-0.604,0-0.906c0.151,0,0.303,0,0.453,0c0-0.301,0-0.604,0-0.905
		c0.301-0.151,0.604-0.302,0.905-0.453c0-0.302,0-0.604,0-0.906c0.302-0.151,0.604-0.301,0.905-0.453c0-0.302,0-0.604,0-0.905
		c0.604-0.453,1.207-0.906,1.811-1.358c0-0.302,0-0.604,0-0.906c0.453-0.301,0.906-0.604,1.358-0.905
		c0.906-1.056,1.812-2.113,2.717-3.169c0.302,0,0.604,0,0.905,0c0.604-0.754,1.208-1.509,1.812-2.264c0.303,0,0.604,0,0.905,0
		c0.151-0.302,0.302-0.604,0.453-0.906c0.301,0,0.604,0,0.905,0c0.15-0.301,0.302-0.604,0.453-0.905
		c0.904-0.302,1.811-0.604,2.716-0.906c0-0.151,0-0.301,0-0.453c0.906-0.301,1.812-0.604,2.717-0.905c0-0.151,0-0.302,0-0.453
		c0.453,0,0.905,0,1.358,0c0-0.151,0-0.301,0-0.453c0.452,0,0.904,0,1.357,0c0-0.151,0-0.302,0-0.453c0.452,0,0.905,0,1.358,0
		c0-0.151,0-0.302,0-0.453c1.616-0.573,10.756-1.587,13.13-0.906c0,0.151,0,0.302,0,0.453c0.754,0,1.51,0,2.264,0
		c0,0.151,0,0.302,0,0.453c0.604,0,1.207,0,1.812,0c2.415,1.056,4.83,2.113,7.244,3.169c0.15,0.302,0.302,0.604,0.453,0.906
		c0.302,0,0.604,0,0.904,0c0,0.151,0,0.301,0,0.453c0.756,0.604,1.511,1.208,2.265,1.811
		C1697.689,147.872,1697.689,148.476,1697.689,149.079z"/>
	<path d="M1430.564,283.548c0,0.302,0,0.604,0,0.905c0.302,0,0.604,0,0.904,0c0,0.302,0,0.604,0,0.906
		c1.373,0.795,2.094,2.092,3.17,3.168c2.265,2.265,4.527,4.527,6.791,6.791c5.583,5.434,11.169,10.867,16.752,16.301
		c1.812,1.961,3.622,3.924,5.434,5.885c2.565,2.566,5.132,5.132,7.697,7.697c1.283,1.285,3.073,2.054,3.621,4.075
		c0.303,0,0.604,0,0.905,0c0,0.302,0,0.604,0,0.904c3.599,0.978,4.461,6.23,8.149,7.244c0,0.302,0,0.604,0,0.905
		c2.521,1.439,4.738,4.738,6.792,6.792c3.471,3.319,6.941,6.641,10.413,9.961c1.207,1.357,2.415,2.716,3.621,4.074
		c3.018,3.016,7.263,5.824,9.056,9.961c1.834,4.228,0.227,10.254-1.812,13.129c-0.302,0.152-0.604,0.303-0.904,0.453
		c-0.453,0.604-0.905,1.208-1.358,1.812c-0.302,0-0.604,0-0.905,0c-0.15,0.303-0.303,0.604-0.453,0.905c-0.302,0-0.604,0-0.904,0
		c0,0.151,0,0.302,0,0.453c-0.303,0-0.604,0-0.905,0c0,0.149,0,0.301,0,0.452c-0.453,0-0.906,0-1.358,0c0,0.15,0,0.302,0,0.453
		c-0.906,0-1.812,0-2.717,0c0,0.15,0,0.302,0,0.451c-0.604,0-1.208,0-1.813,0c0-0.149,0-0.301,0-0.451c-0.754,0-1.509,0-2.264,0
		c0-0.151,0-0.303,0-0.453c-0.452,0-0.905,0-1.357,0c0-0.151,0-0.303,0-0.452c-0.604-0.151-1.207-0.302-1.812-0.453
		c-1.951-1.233-3.371-3.371-4.979-4.98c-3.472-3.318-6.942-6.641-10.413-9.961c0-0.149,0-0.301,0-0.451
		c-2.718-2.565-5.435-5.133-8.149-7.697c0-0.302,0-0.604,0-0.905c-2.079-0.562-1.917-1.912-3.17-3.17
		c-0.754-0.452-1.509-0.904-2.264-1.357c0-0.302,0-0.604,0-0.905c-0.604-0.452-1.207-0.904-1.812-1.357
		c-1.057-1.207-2.113-2.416-3.17-3.623c-2.565-2.414-5.131-4.829-7.696-7.243c-5.584-5.734-11.169-11.47-16.752-17.205
		c-2.113-2.111-4.227-4.226-6.339-6.339c-1.181-1.18-2.659-1.737-3.169-3.621c-2.496-0.641-3.393-3.388-4.98-4.979
		c-3.698-3.711-7.887-6.885-10.865-11.319c-0.303-0.151-0.604-0.302-0.905-0.452c-0.151-0.604-0.303-1.207-0.453-1.812
		c-0.149,0-0.302,0-0.453,0c0-0.604,0-1.208,0-1.812c-0.149,0-0.302,0-0.452,0c-0.476-1.601,0.123-4.517,0.452-5.434
		c0.151-0.904,0.304-1.813,0.453-2.717c0.15,0,0.302,0,0.453,0c0-0.303,0-0.604,0-0.905c0.302-0.151,0.604-0.302,0.905-0.453
		c0-0.301,0-0.604,0-0.905c0.302-0.15,0.604-0.302,0.904-0.451c0.604-0.756,1.209-1.51,1.813-2.264c0.302,0,0.604,0,0.905,0
		c0.149-0.304,0.302-0.604,0.452-0.906c0.303,0,0.604,0,0.905,0c0-0.151,0-0.303,0-0.453c0.905-0.15,1.812-0.301,2.716-0.452
		c0-0.151,0-0.302,0-0.453c1.812,0,3.623,0,5.435,0c0,0.151,0,0.302,0,0.453c0.604,0,1.207,0,1.811,0c0,0.151,0,0.302,0,0.452
		c0.304,0,0.604,0,0.906,0C1428.492,282.299,1429.141,283.168,1430.564,283.548z"/>
	<path d="M1427.848,327.465c1.535,0.896,2.409,2.409,3.622,3.623c2.718,2.716,5.435,5.432,8.149,8.148
		c6.791,6.641,13.584,13.281,20.374,19.922c0,0.301,0,0.604,0,0.904c2.717,2.565,5.434,5.133,8.149,7.696c0,0.152,0,0.304,0,0.453
		c-0.15,0-0.303,0-0.452,0c-1.051,1.12-1.005,0.33-2.265,0.906c0,0.149,0,0.301,0,0.452c-0.302,0-0.604,0-0.904,0
		c0,0.15,0,0.302,0,0.453c-0.303,0-0.604,0-0.906,0c0,0.15,0,0.302,0,0.451c-0.452,0-0.905,0-1.357,0c0,0.152,0,0.303,0,0.453
		c-0.302,0-0.604,0-0.906,0c0,0.151,0,0.303,0,0.453c-0.451,0-0.904,0-1.357,0c0,0.15,0,0.301,0,0.453c-0.303,0-0.604,0-0.905,0
		c0,0.15,0,0.301,0,0.452c-0.604,0.151-1.207,0.302-1.812,0.452c0,0.151,0,0.303,0,0.453c-0.452,0-0.905,0-1.357,0
		c0,0.15,0,0.302,0,0.452c-0.302,0-0.604,0-0.905,0c0,0.15,0,0.302,0,0.453c-0.453,0-0.906,0-1.358,0c0,0.15,0,0.302,0,0.452
		c-0.604,0.151-1.207,0.302-1.812,0.452c0,0.152,0,0.303,0,0.453c-0.452,0-0.905,0-1.358,0c0,0.151,0,0.302,0,0.453
		c-0.604,0.15-1.207,0.301-1.811,0.453c0,0.149,0,0.301,0,0.452c-0.453,0-0.905,0-1.358,0c0,0.15,0,0.302,0,0.452
		c-0.604,0.151-1.207,0.303-1.811,0.452c0,0.151,0,0.302,0,0.453c-0.453,0-0.906,0-1.358,0c0,0.151,0,0.302,0,0.453
		c-0.303,0-0.604,0-0.906,0c0,0.15,0,0.301,0,0.453c-0.755,0.149-1.509,0.301-2.264,0.452c0,0.15,0,0.302,0,0.452
		c-0.302,0-0.604,0-0.905,0c0,0.151,0,0.303,0,0.452c-2.112,0.755-4.226,1.511-6.339,2.265c-4.979-5.131-9.961-10.264-14.939-15.395
		c-1.583-1.583-4.801-3.562-5.435-5.886c1.12-1.051,0.33-1.006,0.906-2.264c0.15,0,0.302,0,0.452,0c0-0.303,0-0.604,0-0.906
		c0.15,0,0.302,0,0.453,0c0-0.301,0-0.604,0-0.904c0.149,0,0.302,0,0.452,0c0-0.303,0-0.604,0-0.905c0.15,0,0.303,0,0.452,0
		c0-0.453,0-0.905,0-1.357c0.15,0,0.303,0,0.453,0c0-0.303,0-0.604,0-0.906c0.15,0,0.303,0,0.452,0c0-0.453,0-0.905,0-1.357
		c0.151,0,0.302,0,0.453,0c0-0.303,0-0.604,0-0.905c0.15,0,0.302,0,0.452,0c0.151-0.604,0.303-1.207,0.453-1.812
		c0.15,0,0.302,0,0.453,0c0.149-0.905,0.302-1.812,0.452-2.717c0.15,0,0.303,0,0.452,0c0-0.302,0-0.604,0-0.906
		c0.15,0,0.303,0,0.453,0c0.452-1.509,0.905-3.018,1.358-4.526c0.15,0,0.302,0,0.452,0c0.15-0.604,0.302-1.207,0.453-1.812
		c0.149,0,0.302,0,0.452,0c0-0.453,0-0.905,0-1.357c0.15,0,0.303,0,0.452,0c0-0.303,0-0.604,0-0.905c0.15,0,0.303,0,0.453,0
		C1425.131,334.408,1426.489,330.936,1427.848,327.465z"/>
</g>
<g>
	<path fill="#169EDC" d="M60.647,757.973c-3.368,0-5.148-1.779-5.148-5.148V580.47c0-3.369,1.78-5.148,5.148-5.148h39.596
		c20.535,0,36.158,8.127,46.436,24.152c10.211,15.921,15.388,38.521,15.388,67.173c0,28.652-5.177,51.253-15.388,67.174
		c-10.278,16.025-25.901,24.152-46.436,24.152H60.647L60.647,757.973z M99.208,736.028c26.118,0,39.361-23.345,39.361-69.382
		c0-46.038-13.243-69.383-39.361-69.383h-20.73v138.765H99.208L99.208,736.028z"/>
	<path fill="#FFFFFF" d="M100.243,576.07c20.357,0,35.626,7.937,45.805,23.809c10.18,15.872,15.27,38.128,15.27,66.769
		c0,28.64-5.09,50.896-15.27,66.768c-10.179,15.872-25.447,23.809-45.805,23.809H60.647c-2.933,0-4.398-1.467-4.398-4.398V580.47
		c0-2.934,1.466-4.398,4.398-4.398L100.243,576.07 M77.728,736.778h21.48c26.741,0,40.111-23.377,40.111-70.132
		c0-46.756-13.37-70.133-40.111-70.133h-21.48V736.778 M100.243,574.57H60.647c-3.749,0-5.898,2.149-5.898,5.898v172.354
		c0,3.749,2.15,5.898,5.898,5.898h39.596c20.807,0,36.642-8.241,47.067-24.499c10.29-16.043,15.507-38.778,15.507-67.577
		c0-28.798-5.217-51.533-15.507-67.576C136.885,582.813,121.05,574.57,100.243,574.57L100.243,574.57z M79.228,598.015h19.98
		c12.91,0,22.325,5.488,28.782,16.777c6.522,11.404,9.83,28.851,9.83,51.854c0,23.003-3.307,40.449-9.83,51.854
		c-6.457,11.289-15.872,16.777-28.782,16.777h-19.98V598.015L79.228,598.015z"/>
</g>
<g>
	<path fill="#169EDC" d="M457.371,760.819c-2.715,0-4.66-1.426-5.623-4.12l-32.475-103.514l-12.657,99.989
		c-0.193,3.122-2.063,4.797-5.402,4.797h-12.681c-1.631,0-2.882-0.447-3.718-1.332c-0.877-0.928-1.271-2.313-1.171-4.117
		l22.779-175.256c0.193-3.118,2.063-4.794,5.402-4.794h0.518c2.715,0,4.66,1.426,5.623,4.121l39.924,124.889l39.916-124.864
		c0.972-2.72,2.916-4.146,5.632-4.146h0.518c3.339,0,5.208,1.676,5.406,4.845l22.77,175.149c0.105,1.859-0.289,3.245-1.167,4.173
		c-0.836,0.884-2.087,1.332-3.718,1.332h-12.681c-3.341,0-5.209-1.675-5.407-4.844l-12.652-99.942L464.041,756.67
		c-0.973,2.724-2.917,4.148-5.633,4.148L457.371,760.819L457.371,760.819z"/>
	<path fill="#FFFFFF" d="M503.953,573.224c2.933,0,4.484,1.382,4.658,4.142l22.772,175.2c0.173,3.104-1.208,4.657-4.141,4.657
		h-12.681c-2.935,0-4.486-1.38-4.658-4.141L496.966,650.86h-0.518l-33.125,105.586c-0.863,2.415-2.502,3.623-4.917,3.623h-1.035
		c-2.415,0-4.054-1.208-4.917-3.623L419.329,650.86h-0.519l-12.938,102.222c-0.172,2.761-1.725,4.141-4.658,4.141h-12.681
		c-2.933,0-4.313-1.553-4.141-4.658l22.773-175.199c0.173-2.761,1.726-4.142,4.658-4.142h0.518c2.415,0,4.054,1.207,4.917,3.623
		l40.371,126.289h0.519l40.37-126.289c0.863-2.416,2.503-3.623,4.917-3.623H503.953 M503.953,571.724h-0.519
		c-3.061,0-5.25,1.598-6.329,4.618l-0.009,0.024l-0.008,0.022l-39.201,122.63l-39.2-122.63l-0.009-0.022l-0.008-0.024
		c-1.08-3.021-3.269-4.618-6.33-4.618h-0.518c-3.728,0-5.91,1.951-6.152,5.495l-22.767,175.152l-0.007,0.055l-0.003,0.057
		c-0.112,2.019,0.35,3.591,1.375,4.675c0.983,1.039,2.418,1.565,4.263,1.565h12.681c3.729,0,5.912-1.952,6.152-5.498l12.22-96.535
		l31.438,100.206l0.009,0.028l0.01,0.027c1.08,3.021,3.27,4.618,6.33,4.618h1.035c3.061,0,5.25-1.598,6.33-4.618l0.01-0.027
		l0.009-0.028l31.438-100.206l12.219,96.535c0.24,3.547,2.423,5.498,6.152,5.498h12.681c1.846,0,3.279-0.526,4.263-1.565
		c1.025-1.084,1.488-2.656,1.376-4.675l-0.004-0.057l-0.007-0.055l-22.767-175.152C509.863,573.675,507.681,571.724,503.953,571.724
		L503.953,571.724z"/>
</g>
<g>
	<path fill="#169EDC" d="M966.145,760.819c-2.326,0-4.277-1.157-5.8-3.439l-70.568-119.914v115.357c0,3.369-1.78,5.148-5.149,5.148
		h-12.681c-3.369,0-5.149-1.78-5.149-5.148v-175.2c0-3.369,1.78-5.149,5.149-5.149h1.294c2.518,0,4.478,1.17,5.823,3.479
		l70.286,119.358V580.47c0-3.369,1.78-5.148,5.149-5.148h12.681c3.369,0,5.149,1.779,5.149,5.148v175.2
		c0,3.369-1.78,5.149-5.149,5.149H966.145z"/>
	<path fill="#FFFFFF" d="M873.239,573.224c2.243,0,3.968,1.035,5.176,3.105l71.167,120.854h0.518V580.47
		c0-2.934,1.468-4.398,4.399-4.398h12.681c2.934,0,4.399,1.466,4.399,4.398v175.2c0,2.933-1.467,4.399-4.399,4.399h-1.034
		c-2.07,0-3.797-1.035-5.177-3.105l-71.426-121.372h-0.518v117.231c0,2.933-1.468,4.398-4.399,4.398h-12.681
		c-2.934,0-4.399-1.467-4.399-4.398v-175.2c0-2.933,1.467-4.399,4.399-4.399H873.239 M873.239,571.724h-1.294
		c-3.749,0-5.899,2.15-5.899,5.899v175.2c0,3.749,2.15,5.898,5.899,5.898h12.681c3.749,0,5.899-2.149,5.899-5.898V640.219
		l69.149,117.506l0.021,0.036l0.022,0.035c1.669,2.504,3.83,3.773,6.424,3.773h1.035c3.749,0,5.899-2.15,5.899-5.899v-175.2
		c0-3.749-2.15-5.898-5.899-5.898h-12.681c-3.749,0-5.899,2.149-5.899,5.898v112.09l-68.892-116.99
		C878.241,573.055,876.004,571.724,873.239,571.724L873.239,571.724z"/>
</g>
<g>
	<g>
		<path fill="#EF4931" d="M267.876,631.331c-28.843,0-52.309-23.466-52.309-52.31c0-28.843,23.465-52.309,52.309-52.309
			c28.844,0,52.309,23.466,52.309,52.309C320.185,607.865,296.719,631.331,267.876,631.331L267.876,631.331z M267.876,531.831
			c-26.021,0-47.191,21.17-47.191,47.19c0,26.021,21.17,47.191,47.191,47.191s47.191-21.17,47.191-47.191
			C315.067,553.001,293.897,531.831,267.876,531.831L267.876,531.831z"/>
		<path fill="#FFFFFF" d="M267.876,527.464c28.43,0,51.559,23.129,51.559,51.56c0,28.43-23.129,51.559-51.559,51.559
			s-51.559-23.129-51.559-51.559C216.317,550.593,239.446,527.464,267.876,527.464 M267.876,626.964
			c26.435,0,47.941-21.507,47.941-47.94c0-26.435-21.507-47.941-47.941-47.941s-47.941,21.507-47.941,47.941
			C219.935,605.457,241.441,626.964,267.876,626.964 M267.876,525.964c-29.257,0-53.059,23.802-53.059,53.06
			c0,29.257,23.802,53.059,53.059,53.059s53.059-23.802,53.059-53.059C320.935,549.766,297.133,525.964,267.876,525.964
			L267.876,525.964z M267.876,625.464c-25.608,0-46.441-20.834-46.441-46.44c0-25.607,20.833-46.441,46.441-46.441
			s46.441,20.834,46.441,46.441C314.317,604.63,293.484,625.464,267.876,625.464L267.876,625.464z"/>
	</g>
	<g>
		<path fill="#F69020" d="M266.876,647.613c-41.129,0-74.591-33.461-74.591-74.592c0-41.13,33.461-74.591,74.591-74.591
			s74.591,33.461,74.591,74.591C341.467,614.152,308.005,647.613,266.876,647.613L266.876,647.613z M266.876,505.113
			c-37.445,0-67.909,30.464-67.909,67.908c0,37.445,30.464,67.909,67.909,67.909s67.909-30.464,67.909-67.909
			C334.785,535.577,304.321,505.113,266.876,505.113L266.876,505.113z"/>
		<path fill="#FFFFFF" d="M266.876,499.182c40.716,0,73.841,33.125,73.841,73.842c0,40.716-33.125,73.841-73.841,73.841
			s-73.841-33.125-73.841-73.841C193.035,532.307,226.16,499.182,266.876,499.182 M266.876,641.682
			c37.859,0,68.659-30.8,68.659-68.658c0-37.859-30.8-68.659-68.659-68.659s-68.659,30.8-68.659,68.659
			C198.217,610.882,229.017,641.682,266.876,641.682 M266.876,497.682c-41.543,0-75.341,33.799-75.341,75.342
			s33.798,75.341,75.341,75.341s75.341-33.798,75.341-75.341S308.419,497.682,266.876,497.682L266.876,497.682z M266.876,640.182
			c-37.032,0-67.159-30.128-67.159-67.158c0-37.031,30.127-67.159,67.159-67.159c37.032,0,67.159,30.128,67.159,67.159
			C334.035,610.054,303.908,640.182,266.876,640.182L266.876,640.182z"/>
	</g>
	<g>
		<path fill="#F69020" d="M267.417,611.286c-15.997,0-29.012-13.015-29.012-29.012c0-15.998,13.015-29.015,29.012-29.015
			c15.998,0,29.013,13.017,29.013,29.015C296.43,598.271,283.415,611.286,267.417,611.286L267.417,611.286z M267.417,559.952
			c-12.308,0-22.32,10.014-22.32,22.322c0,12.308,10.013,22.319,22.32,22.319c12.308,0,22.321-10.013,22.321-22.319
			C289.738,569.966,279.725,559.952,267.417,559.952L267.417,559.952z"/>
		<path fill="#FFFFFF" d="M267.417,554.011c15.584,0,28.263,12.681,28.263,28.265c0,15.583-12.679,28.262-28.263,28.262
			c-15.583,0-28.262-12.679-28.262-28.262C239.155,566.69,251.834,554.011,267.417,554.011 M267.417,605.345
			c12.722,0,23.071-10.35,23.071-23.069c0-12.724-10.35-23.072-23.071-23.072s-23.07,10.35-23.07,23.072
			C244.347,594.995,254.696,605.345,267.417,605.345 M267.417,552.511c-16.411,0-29.762,13.353-29.762,29.765
			c0,16.41,13.351,29.762,29.762,29.762s29.763-13.352,29.763-29.762C297.18,565.862,283.828,552.511,267.417,552.511
			L267.417,552.511z M267.417,603.845c-11.894,0-21.57-9.677-21.57-21.569c0-11.896,9.676-21.572,21.57-21.572
			c11.895,0,21.571,9.678,21.571,21.572C288.988,594.168,279.312,603.845,267.417,603.845L267.417,603.845z"/>
	</g>
	<g>
		<path fill="#169EDC" d="M257.893,787.689v-30.746l-24.104-24.59l-6.329,21.861c-0.596,2.382-2.193,3.654-4.613,3.654h-9.859
			c-1.474,0-2.544-0.414-3.181-1.23c-0.686-0.879-0.821-2.175-0.401-3.853l52.683-177.254c0.593-2.377,2.19-3.65,4.61-3.65
			c2.42,0,4.018,1.273,4.62,3.683l52.665,177.189c0.428,1.71,0.293,3.007-0.393,3.885c-0.637,0.816-1.708,1.23-3.18,1.23h-9.86
			c-2.419,0-4.017-1.272-4.62-3.682l-6.462-22.323l-23.858,24.339v31.484h-17.718V787.689z M257.893,742.038v-26.723H238.72
			l-1.601,5.53L257.893,742.038z M275.609,741.298l20.528-20.938l-1.459-5.043H275.61L275.609,741.298L275.609,741.298z
			 M290.093,698.767l-14.484-50.462v50.462H290.093z M257.893,698.767V647.94l-14.589,50.826H257.893z"/>
		<path fill="#FFFFFF" d="M266.698,572.633c2.076,0,3.373,1.038,3.893,3.114l52.674,177.222c0.691,2.769-0.26,4.151-2.854,4.151
			h-9.86c-2.076,0-3.373-1.038-3.893-3.113l-6.826-23.584l-24.972,25.476v31.042h-16.217v-30.304l-25.218-25.726l-6.686,23.096
			c-0.52,2.075-1.816,3.113-3.893,3.113h-9.859c-2.596,0-3.547-1.384-2.854-4.151l52.674-177.222
			C263.325,573.671,264.622,572.633,266.698,572.633 M242.308,699.517h16.335v-56.907L242.308,699.517 M274.859,699.517h16.229
			l-16.229-56.543V699.517 M274.859,743.135l22.12-22.563l-1.738-6.005h-20.382V743.135 M258.643,743.875v-29.31h-20.486
			l-1.88,6.492L258.643,743.875 M266.698,571.133c-2.752,0-4.646,1.497-5.338,4.217l-52.665,177.191l-0.009,0.032l-0.008,0.03
			c-0.479,1.914-0.298,3.428,0.537,4.497c0.787,1.009,2.056,1.52,3.772,1.52h9.859c2.753,0,4.649-1.499,5.341-4.222l5.964-20.604
			l22.991,23.454v29.689v1.5h1.5h16.217h1.5v-1.5v-30.43l22.745-23.203l6.104,21.092c0.692,2.724,2.587,4.223,5.341,4.223h9.86
			c1.716,0,2.984-0.511,3.771-1.52c0.835-1.068,1.017-2.583,0.538-4.496l-0.008-0.031l-0.009-0.032L272.038,575.35
			C271.345,572.63,269.45,571.133,266.698,571.133L266.698,571.133z M244.299,698.017l12.844-44.745v44.745H244.299L244.299,698.017
			z M276.359,698.017v-44.38l12.738,44.38H276.359L276.359,698.017z M276.359,716.065h17.754l1.181,4.079l-18.936,19.316
			L276.359,716.065L276.359,716.065z M239.284,716.065h17.859v24.137l-19.182-19.568L239.284,716.065L239.284,716.065z"/>
	</g>
</g>
<g>
	<g>
		<path fill="#169EDC" d="M611.351,757.973c-3.368,0-5.148-1.779-5.148-5.148V580.47c0-3.369,1.78-5.148,5.148-5.148h12.682
			c3.369,0,5.148,1.779,5.148,5.148v172.354c0,3.369-1.779,5.148-5.148,5.148H611.351L611.351,757.973z"/>
		<path fill="#FFFFFF" d="M624.031,576.07c2.933,0,4.398,1.466,4.398,4.398v172.354c0,2.933-1.467,4.398-4.398,4.398H611.35
			c-2.933,0-4.398-1.467-4.398-4.398V580.47c0-2.934,1.467-4.398,4.398-4.398L624.031,576.07 M624.031,574.57H611.35
			c-3.749,0-5.898,2.149-5.898,5.898v172.354c0,3.749,2.149,5.898,5.898,5.898h12.682c3.749,0,5.898-2.149,5.898-5.898V580.47
			C629.931,576.721,627.78,574.57,624.031,574.57L624.031,574.57z"/>
	</g>
	<g>
		<path fill="#EF4931" d="M597.792,573.345c-3.089,0-5.509-1.72-5.509-3.916v-28.683h12.238c1.218,0,2.207-0.99,2.207-2.208v-2.219
			c0-1.218-0.989-2.207-2.207-2.207h-12.238v-7.088h12.073c1.218,0,2.208-0.99,2.208-2.207v-2.22c0-1.218-0.99-2.208-2.208-2.208
			h-12.073v-7.663h11.991c1.218,0,2.208-0.989,2.208-2.207v-2.219c0-1.218-0.99-2.208-2.208-2.208h-11.991v-19.685
			c0-2.196,2.42-3.917,5.509-3.917h2.139v9.13c0,1.218,0.99,2.209,2.207,2.209h0.37c1.218,0,2.208-0.991,2.208-2.209v-9.13h10.004
			v9.13c0,1.218,0.99,2.209,2.208,2.209h0.37c1.217,0,2.207-0.991,2.207-2.209v-9.13h11.36v9.253c0,1.218,0.989,2.209,2.208,2.209
			h0.369c1.218,0,2.209-0.991,2.209-2.209v-9.253h1.784c3.088,0,5.508,1.721,5.508,3.917v19.602h-12.048
			c-1.218,0-2.208,0.991-2.208,2.209v2.219c0,1.218,0.99,2.207,2.208,2.207h12.048v7.662h-11.914c-1.219,0-2.208,0.991-2.208,2.209
			v2.22c0,1.217,0.989,2.206,2.208,2.206h11.914v7.171h-12.048c-1.218,0-2.208,0.989-2.208,2.206v2.22
			c0,1.218,0.99,2.208,2.208,2.208h12.048v28.683c0,2.196-2.42,3.916-5.508,3.916H597.792L597.792,573.345z"/>
		<path fill="#FFFFFF" d="M637.438,483.242c2.627,0,4.757,1.417,4.757,3.167v18.852h-11.297c-1.634,0-2.958,1.325-2.958,2.959v2.22
			c0,1.633,1.324,2.957,2.958,2.957h11.297v6.161H631.03c-1.634,0-2.958,1.324-2.958,2.959v2.22c0,1.633,1.324,2.957,2.958,2.957
			h11.164v5.67h-11.297c-1.634,0-2.958,1.323-2.958,2.957v2.219c0,1.634,1.324,2.958,2.958,2.958h11.297v27.933
			c0,1.748-2.13,3.166-4.757,3.166h-39.646c-2.628,0-4.759-1.418-4.759-3.166v-27.933h11.488c1.633,0,2.957-1.324,2.957-2.958
			v-2.219c0-1.634-1.324-2.957-2.957-2.957h-11.488v-5.588h11.323c1.635,0,2.958-1.324,2.958-2.957v-2.22
			c0-1.634-1.323-2.958-2.958-2.958h-11.323v-6.163h11.241c1.634,0,2.958-1.322,2.958-2.957v-2.219c0-1.634-1.324-2.958-2.958-2.958
			h-11.241v-18.935c0-1.75,2.131-3.167,4.759-3.167h1.389v8.38c0,1.635,1.324,2.959,2.957,2.959h0.37
			c1.634,0,2.958-1.324,2.958-2.959v-8.38h8.504v8.38c0,1.635,1.325,2.959,2.958,2.959h0.37c1.634,0,2.957-1.324,2.957-2.959v-8.38
			h9.86v8.503c0,1.635,1.323,2.959,2.958,2.959h0.369c1.634,0,2.959-1.324,2.959-2.959v-8.503H637.438 M637.438,481.742h-1.035h-1.5
			v1.5v8.503c0,0.805-0.654,1.459-1.459,1.459h-0.369c-0.805,0-1.458-0.654-1.458-1.459v-8.503v-1.5h-1.5h-9.86h-1.5v1.5v8.38
			c0,0.805-0.652,1.459-1.457,1.459h-0.37c-0.804,0-1.458-0.654-1.458-1.459v-8.38v-1.5h-1.5h-8.504h-1.5v1.5v8.38
			c0,0.805-0.653,1.459-1.458,1.459h-0.37c-0.804,0-1.457-0.654-1.457-1.459v-8.38v-1.5h-1.5h-1.389c-3.51,0-6.259,2.05-6.259,4.667
			v18.935v1.5h1.5h11.241c0.804,0,1.458,0.654,1.458,1.458v2.22c0,0.804-0.654,1.456-1.458,1.456h-11.241h-1.5v1.501v6.162v1.5h1.5
			h11.323c0.804,0,1.458,0.654,1.458,1.458v2.22c0,0.804-0.654,1.457-1.458,1.457h-11.323h-1.5v1.5v5.588v1.5h1.5h11.488
			c0.804,0,1.458,0.652,1.458,1.457v2.219c0,0.804-0.654,1.458-1.458,1.458h-11.488h-1.5v1.5v27.933
			c0,2.616,2.749,4.666,6.259,4.666h39.646c3.509,0,6.257-2.05,6.257-4.666v-27.933v-1.5h-1.5h-11.297
			c-0.805,0-1.458-0.654-1.458-1.458v-2.219c0-0.805,0.653-1.457,1.458-1.457h11.297h1.5v-1.5v-5.67v-1.5h-1.5h-11.164
			c-0.804,0-1.458-0.653-1.458-1.457v-2.219c0-0.806,0.654-1.459,1.458-1.459h11.164h1.5v-1.5v-6.162v-1.5h-1.5h-11.297
			c-0.805,0-1.458-0.653-1.458-1.457v-2.22c0-0.805,0.653-1.459,1.458-1.459h11.297h1.5v-1.5v-18.852
			C643.693,483.792,640.945,481.742,637.438,481.742L637.438,481.742z"/>
	</g>
	<path fill="none" stroke="#169EDC" stroke-width="2" stroke-miterlimit="10" d="M584.556,555.491v15.979
		c0,0,0.673,8.941,10.335,9.017c9.662,0.072,44.616,0,44.616,0s11.681,0.293,11.807-10.3c0.126-10.592,0-17.188,0-17.188"/>
	<g>
		<path fill="#169EDC" d="M582.912,558.438c-2.184,0-3.958-1.776-3.958-3.959v-3.779c0-2.183,1.774-3.957,3.958-3.957h3.779
			c1.576,0,2.959,0.914,3.592,2.301h55.47c0.616-1.419,2.033-2.383,3.63-2.383h3.779c2.183,0,3.958,1.775,3.958,3.957v3.779
			c0,2.183-1.775,3.959-3.958,3.959h-3.779c-1.31,0-2.528-0.66-3.26-1.727h-56.107c-0.721,1.116-1.963,1.809-3.323,1.809H582.912z"
			/>
		<path fill="#FFFFFF" d="M653.162,547.659c1.634,0,2.958,1.323,2.958,2.957v3.778c0,1.635-1.324,2.959-2.958,2.959h-3.779
			c-1.191,0-2.213-0.71-2.682-1.726h-57.284c-0.448,1.062-1.499,1.808-2.726,1.808h-3.779c-1.633,0-2.958-1.323-2.958-2.959v-3.778
			c0-1.634,1.325-2.957,2.958-2.957h3.779c1.407,0,2.578,0.983,2.879,2.301h56.912c0.269-1.359,1.464-2.383,2.899-2.383H653.162
			 M653.162,545.659h-3.779c-1.766,0-3.354,0.939-4.233,2.383h-54.271c-0.886-1.407-2.438-2.301-4.187-2.301h-3.779
			c-2.733,0-4.958,2.224-4.958,4.957v3.778c0,2.734,2.225,4.959,4.958,4.959h3.779c1.511,0,2.903-0.68,3.83-1.808h55.111
			c0.93,1.076,2.294,1.726,3.749,1.726h3.779c2.732,0,4.958-2.225,4.958-4.959v-3.778
			C658.12,547.883,655.896,545.659,653.162,545.659L653.162,545.659z"/>
	</g>
</g>
<g>
	<g>
		<g>
			<path fill="#169EDC" d="M792.283,598.219c-4.158,0-8.401-1.338-12.611-3.977c-8.004-5.018-15.482-7.561-22.229-7.561
				c-7.774,0-11.727,3.448-11.766,3.483l-1.087-1.026c0.415-0.521,10.352-12.786,25.91-12.786c4.813,0,9.675,1.205,14.456,3.581
				c5.687,2.827,11.065,4.262,15.985,4.262c11.143,0,16.387-7.438,16.438-7.514l1.296,0.747
				C818.27,578.278,808.566,598.219,792.283,598.219L792.283,598.219z"/>
			<path fill="#FFFFFF" d="M770.5,577.104c4.313,0,9.054,0.983,14.122,3.504c6.411,3.187,11.832,4.339,16.319,4.339
				c11.706,0,17.057-7.839,17.057-7.839s-9.717,20.361-25.715,20.361c-3.743,0-7.827-1.112-12.213-3.861
				c-9.449-5.924-17.002-7.675-22.629-7.675c-8.15,0-12.266,3.675-12.266,3.675S755.123,577.104,770.5,577.104 M770.5,575.604
				c-15.917,0-26.072,12.535-26.497,13.069l2.173,2.053c0.031-0.026,3.859-3.293,11.267-3.293c6.604,0,13.948,2.505,21.831,7.445
				c4.332,2.714,8.709,4.091,13.011,4.091c16.751,0,26.655-20.35,27.067-21.216l-2.593-1.492c-0.2,0.289-5.103,7.186-15.817,7.186
				c-4.804,0-10.068-1.407-15.65-4.183C780.404,576.835,775.429,575.604,770.5,575.604L770.5,575.604z"/>
		</g>
		<g>
			<path fill="#169EDC" d="M792.535,673.885c-4.158,0-8.4-1.338-12.611-3.977c-8.003-5.018-15.481-7.561-22.229-7.561
				c-7.73,0-11.729,3.45-11.768,3.484l-1.085-1.027c0.415-0.521,10.352-12.785,25.91-12.785c4.812,0,9.675,1.204,14.456,3.58
				c5.687,2.827,11.063,4.262,15.984,4.262c11.181,0,16.387-7.438,16.438-7.513l1.296,0.746
				C818.521,653.944,808.819,673.885,792.535,673.885L792.535,673.885z"/>
			<path fill="#FFFFFF" d="M770.754,652.77c4.313,0,9.053,0.983,14.121,3.504c6.41,3.187,11.832,4.339,16.318,4.339
				c11.706,0,17.058-7.839,17.058-7.839s-9.717,20.361-25.716,20.361c-3.742,0-7.827-1.112-12.213-3.861
				c-9.449-5.924-17.001-7.675-22.628-7.675c-8.15,0-12.266,3.675-12.266,3.675S755.376,652.77,770.754,652.77 M770.754,651.27
				c-15.918,0-26.073,12.535-26.498,13.069l2.173,2.053c0.031-0.026,3.859-3.293,11.267-3.293c6.604,0,13.948,2.505,21.831,7.444
				c4.332,2.715,8.709,4.092,13.01,4.092c16.752,0,26.656-20.35,27.069-21.216l-2.594-1.492c-0.2,0.289-5.103,7.186-15.817,7.186
				c-4.804,0-10.068-1.407-15.65-4.183C780.657,652.501,775.682,651.27,770.754,651.27L770.754,651.27z"/>
		</g>
		<g>
			<path fill="#169EDC" d="M791.524,757.219c-4.158,0-8.4-1.338-12.611-3.977c-8.004-5.018-15.483-7.561-22.23-7.561
				c-7.773,0-11.726,3.448-11.765,3.483l-1.087-1.026c0.415-0.521,10.351-12.786,25.91-12.786c4.812,0,9.675,1.205,14.456,3.581
				c5.687,2.827,11.064,4.262,15.984,4.262c11.144,0,16.388-7.438,16.438-7.514l1.296,0.747
				C817.511,737.278,807.809,757.219,791.524,757.219L791.524,757.219z"/>
			<path fill="#FFFFFF" d="M769.742,736.104c4.313,0,9.053,0.983,14.121,3.504c6.411,3.187,11.832,4.339,16.318,4.339
				c11.706,0,17.058-7.839,17.058-7.839s-9.717,20.361-25.715,20.361c-3.742,0-7.827-1.112-12.214-3.861
				c-9.449-5.924-17.001-7.675-22.629-7.675c-8.149,0-12.265,3.675-12.265,3.675S754.364,736.104,769.742,736.104 M769.742,734.604
				c-15.918,0-26.073,12.535-26.498,13.069l2.173,2.053c0.031-0.026,3.859-3.293,11.266-3.293c6.604,0,13.95,2.505,21.832,7.444
				c4.332,2.715,8.709,4.092,13.011,4.092c16.752,0,26.654-20.35,27.067-21.217L816,735.261c-0.2,0.289-5.104,7.186-15.817,7.186
				c-4.804,0-10.068-1.407-15.65-4.183C779.646,735.835,774.67,734.604,769.742,734.604L769.742,734.604z"/>
		</g>
		<g>
			
				<line fill="none" stroke="#FFFFFF" stroke-width="2" stroke-miterlimit="10" x1="704.084" y1="579.106" x2="704.084" y2="755.106"/>
			<g>
				<path fill="#169EDC" d="M704.084,759.05c-2.175,0-3.943-1.769-3.943-3.942v-176c0-2.176,1.77-3.943,3.943-3.943
					s3.943,1.769,3.943,3.943v176C708.027,757.281,706.259,759.05,704.084,759.05L704.084,759.05z"/>
				<path fill="#FFFFFF" d="M704.084,576.163c1.626,0,2.943,1.317,2.943,2.943v176c0,1.626-1.317,2.942-2.943,2.942
					s-2.943-1.316-2.943-2.942v-176C701.141,577.48,702.458,576.163,704.084,576.163 M704.084,574.163
					c-2.726,0-4.943,2.218-4.943,4.943v176c0,2.726,2.219,4.942,4.943,4.942s4.943-2.218,4.943-4.942v-176
					C709.027,576.381,706.81,574.163,704.084,574.163L704.084,574.163z"/>
			</g>
		</g>
	</g>
	<g>
		<path fill="#169EDC" d="M716.415,757.973c-3.369,0-5.149-1.779-5.149-5.148V580.47c0-3.369,1.78-5.148,5.149-5.148h17.92v21.943
			h-0.09v55.951l0.088,0.75v21.194h-0.088v60.868l0.091,0.75v21.193L716.415,757.973L716.415,757.973z M721.002,595.771
			c-1.976,0-3.583,1.607-3.583,3.584c0,1.976,1.607,3.582,3.583,3.582c1.977,0,3.583-1.606,3.583-3.582
			C724.585,597.379,722.979,595.771,721.002,595.771L721.002,595.771z M721.002,582.688c-1.976,0-3.583,1.607-3.583,3.584
			s1.607,3.582,3.583,3.582c1.977,0,3.583-1.605,3.583-3.582C724.585,584.296,722.979,582.688,721.002,582.688L721.002,582.688z"/>
		<path fill="#FFFFFF" d="M733.585,576.07v20.443h-0.09v57.451h0.088v20.444h-0.088v62.368h0.091v20.443h-17.171
			c-2.933,0-4.399-1.467-4.399-4.398V580.47c0-2.934,1.468-4.398,4.399-4.398L733.585,576.07 M721.002,590.604
			c2.393,0,4.333-1.938,4.333-4.331c0-2.395-1.94-4.334-4.333-4.334s-4.333,1.939-4.333,4.334
			C716.669,588.665,718.609,590.604,721.002,590.604 M721.002,603.688c2.393,0,4.333-1.938,4.333-4.332
			c0-2.395-1.94-4.334-4.333-4.334s-4.333,1.939-4.333,4.334C716.669,601.749,718.609,603.688,721.002,603.688 M735.085,574.57h-1.5
			h-17.17c-3.749,0-5.899,2.149-5.899,5.898v172.354c0,3.749,2.15,5.898,5.899,5.898h17.171h1.5v-1.5v-20.443v-1.5h-0.091V675.91
			h0.088v-1.5v-20.444v-1.5h-0.088v-54.451h0.09v-1.5V576.07V574.57L735.085,574.57z M721.002,589.104
			c-1.563,0-2.833-1.271-2.833-2.831c0-1.563,1.271-2.834,2.833-2.834c1.563,0,2.833,1.271,2.833,2.834
			C723.835,587.834,722.564,589.104,721.002,589.104L721.002,589.104z M721.002,602.188c-1.563,0-2.833-1.271-2.833-2.832
			c0-1.563,1.271-2.834,2.833-2.834c1.563,0,2.833,1.271,2.833,2.834C723.835,600.917,722.564,602.188,721.002,602.188
			L721.002,602.188z"/>
	</g>
</g>
<g>
	<g>
		<path fill="#374C5F" d="M32.071,285.115c-3.577,0-5.545-1.971-5.545-5.547V102.528c0-3.577,1.969-5.546,5.545-5.546h40.672
			c21.186,0,37.308,8.387,47.916,24.929c10.514,16.396,15.846,39.657,15.846,69.139c0,29.481-5.331,52.741-15.846,69.139
			c-10.609,16.541-26.729,24.929-47.916,24.929H32.071V285.115z M71.68,262.061c13.274,0,23.372-5.885,30.01-17.493
			c6.745-11.792,10.165-29.799,10.165-53.519s-3.42-41.727-10.165-53.521c-6.639-11.607-16.736-17.492-30.01-17.492H50.643v142.024
			H71.68L71.68,262.061z"/>
		<path fill="#FFFFFF" d="M72.743,98.009c20.912,0,36.595,8.152,47.051,24.457c10.457,16.305,15.685,39.164,15.685,68.584
			c0,29.419-5.228,52.28-15.685,68.583c-10.456,16.305-26.14,24.455-47.051,24.455H32.071c-3.013,0-4.519-1.508-4.519-4.52V102.528
			c0-3.013,1.506-4.519,4.519-4.519H72.743 M49.615,263.088h22.063c27.469,0,41.203-24.013,41.203-72.039
			c0-48.026-13.735-72.04-41.203-72.04H49.615V263.088 M72.743,95.955H32.071c-4.177,0-6.573,2.396-6.573,6.573v177.041
			c0,4.178,2.396,6.574,6.573,6.574h40.672c21.559,0,37.971-8.547,48.78-25.402c10.622-16.563,16.009-40.013,16.009-69.692
			c0-29.681-5.387-53.129-16.009-69.692C110.714,104.501,94.301,95.955,72.743,95.955L72.743,95.955z M51.67,121.064h20.009
			c13.061,0,22.585,5.553,29.119,16.975c6.655,11.636,10.029,29.47,10.029,53.01c0,23.539-3.374,41.373-10.029,53.01
			c-6.534,11.421-16.059,16.974-29.119,16.974H51.67V121.064L51.67,121.064z"/>
	</g>
	<g>
		<path fill="#374C5F" d="M439.583,288.039c-2.908,0-4.99-1.522-6.019-4.403l-33.009-105.214l-12.854,101.542
			c-0.204,3.298-2.268,5.152-5.804,5.152h-13.025c-1.75,0-3.097-0.488-4.005-1.449c-0.952-1.005-1.38-2.492-1.273-4.421
			l23.399-180.039c0.204-3.295,2.267-5.148,5.804-5.148h0.532c2.908,0,4.99,1.522,6.019,4.403l40.767,127.528l40.757-127.495
			c1.04-2.913,3.121-4.435,6.028-4.435h0.533c3.537,0,5.601,1.853,5.81,5.216l23.386,179.897c0.114,2.002-0.313,3.489-1.265,4.495
			c-0.91,0.963-2.257,1.449-4.006,1.449h-13.025c-3.537,0-5.6-1.853-5.81-5.217l-12.847-101.477l-32.997,105.178
			c-1.042,2.917-3.123,4.439-6.031,4.439h-1.065V288.039z"/>
		<path fill="#FFFFFF" d="M487.431,95.085c3.012,0,4.607,1.417,4.785,4.253l23.391,179.964c0.178,3.189-1.24,4.785-4.253,4.785
			h-13.026c-3.012,0-4.607-1.418-4.784-4.254l-13.292-105.002h-0.532l-34.026,108.457c-0.887,2.48-2.569,3.722-5.051,3.722h-1.063
			c-2.482,0-4.164-1.241-5.051-3.722l-34.026-108.457h-0.533l-13.289,105.004c-0.177,2.834-1.772,4.253-4.785,4.253h-13.025
			c-3.013,0-4.43-1.595-4.253-4.785l23.392-179.964c0.176-2.835,1.772-4.253,4.785-4.253h0.532c2.482,0,4.164,1.241,5.051,3.722
			l41.469,129.724h0.533l41.468-129.724c0.887-2.481,2.569-3.722,5.051-3.722L487.431,95.085 M487.431,93.031h-0.533
			c-3.332,0-5.813,1.806-6.984,5.084l-0.011,0.033l-0.011,0.033l-39.778,124.433L400.335,98.181l-0.01-0.033l-0.012-0.033
			c-1.171-3.279-3.651-5.084-6.985-5.084h-0.532c-4.073,0-6.56,2.225-6.83,6.106l-23.385,179.901l-0.009,0.075l-0.004,0.076
			c-0.123,2.219,0.4,3.962,1.554,5.183c1.111,1.175,2.709,1.771,4.751,1.771h13.025c4.075,0,6.561-2.227,6.832-6.111l12.254-96.813
			l31.588,100.687l0.012,0.038l0.014,0.038c1.171,3.279,3.651,5.085,6.985,5.085h1.063c3.333,0,5.814-1.806,6.984-5.085l0.013-0.038
			l0.013-0.038l31.588-100.687l12.254,96.813c0.27,3.885,2.755,6.111,6.831,6.111h13.025c2.043,0,3.642-0.597,4.752-1.771
			c1.153-1.221,1.676-2.965,1.553-5.185l-0.004-0.074l-0.01-0.075L494.262,99.137C493.991,95.255,491.505,93.031,487.431,93.031
			L487.431,93.031z"/>
	</g>
	<g>
		<path fill="#374C5F" d="M962.191,288.039c-2.481,0-4.559-1.226-6.171-3.647l-72.018-122.374v117.551
			c0,3.576-1.97,5.547-5.546,5.547h-13.025c-3.576,0-5.546-1.971-5.546-5.547V99.604c0-3.577,1.97-5.545,5.546-5.545h1.329
			c2.684,0,4.771,1.245,6.203,3.7l71.719,121.792V102.528c0-3.577,1.971-5.546,5.547-5.546h13.025c3.576,0,5.546,1.969,5.546,5.546
			v179.964c0,3.576-1.97,5.546-5.546,5.546L962.191,288.039L962.191,288.039z"/>
		<path fill="#FFFFFF" d="M866.76,95.085c2.303,0,4.075,1.063,5.316,3.189l73.103,124.141h0.531V102.528
			c0-3.013,1.508-4.519,4.52-4.519h13.025c3.013,0,4.519,1.506,4.519,4.519v179.964c0,3.013-1.507,4.519-4.519,4.519h-1.063
			c-2.126,0-3.899-1.063-5.316-3.188l-73.368-124.674h-0.533v120.419c0,3.013-1.506,4.52-4.518,4.52h-13.025
			c-3.014,0-4.52-1.507-4.52-4.52V99.604c0-3.013,1.507-4.519,4.52-4.519H866.76 M866.76,93.031h-1.329
			c-4.178,0-6.573,2.396-6.573,6.573v179.964c0,4.178,2.396,6.573,6.573,6.573h13.025c4.177,0,6.573-2.396,6.573-6.573V165.788
			l70.075,119.076l0.029,0.049l0.03,0.049c2.262,3.392,5.07,4.104,7.026,4.104h1.063c4.178,0,6.573-2.396,6.573-6.572V102.529
			c0-4.178-2.396-6.574-6.573-6.574h-13.025c-4.178,0-6.574,2.396-6.574,6.574v113.253L873.846,97.234
			C872.244,94.486,869.792,93.031,866.76,93.031L866.76,93.031z"/>
	</g>
	<g>
		<g>
			<path fill="#374C5F" d="M244.934,155.03c-29.769,0-53.988-24.219-53.988-53.988s24.219-53.988,53.988-53.988
				s53.989,24.219,53.989,53.988S274.703,155.03,244.934,155.03L244.934,155.03z M244.934,52.824
				c-26.586,0-48.217,21.631-48.217,48.217c0,26.587,21.631,48.217,48.217,48.217c26.587,0,48.218-21.63,48.218-48.217
				C293.152,74.455,271.521,52.824,244.934,52.824L244.934,52.824z"/>
			<path fill="#FFFFFF" d="M244.934,48.081c29.204,0,52.961,23.758,52.961,52.961c0,29.204-23.758,52.961-52.961,52.961
				c-29.203,0-52.961-23.758-52.961-52.961C191.973,71.838,215.731,48.081,244.934,48.081 M244.934,150.286
				c27.154,0,49.245-22.091,49.245-49.245s-22.09-49.245-49.245-49.245c-27.154,0-49.245,22.091-49.245,49.245
				S217.78,150.286,244.934,150.286 M244.934,46.026c-30.336,0-55.015,24.679-55.015,55.016s24.679,55.016,55.015,55.016
				c30.336,0,55.016-24.679,55.016-55.016S275.271,46.026,244.934,46.026L244.934,46.026z M244.934,148.232
				c-26.021,0-47.19-21.169-47.19-47.19s21.169-47.19,47.19-47.19c26.021,0,47.19,21.169,47.19,47.19
				S270.955,148.232,244.934,148.232L244.934,148.232z"/>
		</g>
		<g>
			<path fill="#374C5F" d="M243.907,171.755c-42.391,0-76.876-34.486-76.876-76.876s34.485-76.876,76.876-76.876
				c42.39,0,76.876,34.486,76.876,76.876S286.297,171.755,243.907,171.755L243.907,171.755z M243.907,25.379
				c-38.323,0-69.499,31.177-69.499,69.499s31.177,69.5,69.499,69.5c38.321,0,69.499-31.178,69.499-69.5
				S282.229,25.379,243.907,25.379L243.907,25.379z"/>
			<path fill="#FFFFFF" d="M243.907,19.03c41.823,0,75.849,34.025,75.849,75.849s-34.026,75.849-75.849,75.849
				c-41.823,0-75.849-34.026-75.849-75.849S202.084,19.03,243.907,19.03 M243.907,165.404c38.888,0,70.526-31.638,70.526-70.526
				s-31.638-70.526-70.526-70.526c-38.889,0-70.526,31.638-70.526,70.526S205.019,165.404,243.907,165.404 M243.907,16.975
				c-42.956,0-77.903,34.947-77.903,77.903s34.947,77.903,77.903,77.903s77.903-34.947,77.903-77.903S286.863,16.975,243.907,16.975
				L243.907,16.975z M243.907,163.351c-37.755,0-68.472-30.717-68.472-68.472s30.717-68.472,68.472-68.472
				s68.472,30.716,68.472,68.472S281.663,163.351,243.907,163.351L243.907,163.351z"/>
		</g>
		<g>
			<path fill="#374C5F" d="M244.464,134.439c-16.574,0-30.058-13.484-30.058-30.058s13.484-30.059,30.058-30.059
				c16.573,0,30.058,13.485,30.058,30.059S261.037,134.439,244.464,134.439L244.464,134.439z M244.464,81.71
				c-12.501,0-22.671,10.17-22.671,22.671c0,12.5,10.17,22.67,22.671,22.67s22.671-10.17,22.671-22.67
				C267.134,91.881,256.964,81.71,244.464,81.71L244.464,81.71z"/>
			<path fill="#FFFFFF" d="M244.464,75.351c16.007,0,29.031,13.023,29.031,29.031c0,16.007-13.024,29.031-29.031,29.031
				s-29.03-13.023-29.03-29.031C215.432,88.373,228.456,75.351,244.464,75.351 M244.464,128.079
				c13.067,0,23.698-10.63,23.698-23.697c0-13.068-10.631-23.698-23.698-23.698c-13.067,0-23.698,10.632-23.698,23.698
				C220.766,117.449,231.396,128.079,244.464,128.079 M244.464,73.296c-17.141,0-31.085,13.945-31.085,31.085
				c0,17.141,13.946,31.085,31.085,31.085s31.085-13.944,31.085-31.085C275.549,87.24,261.604,73.296,244.464,73.296L244.464,73.296
				z M244.464,126.025c-11.935,0-21.644-9.709-21.644-21.643c0-11.935,9.709-21.644,21.644-21.644s21.644,9.709,21.644,21.644
				C266.106,116.316,256.398,126.025,244.464,126.025L244.464,126.025z"/>
		</g>
		<g>
			<path fill="#374C5F" d="M234.423,315.64v-31.735l-24.378-24.869l-6.378,22.034c-0.641,2.564-2.368,3.94-4.985,3.94h-10.129
				c-1.596,0-2.763-0.46-3.47-1.362c-0.755-0.968-0.91-2.374-0.459-4.178l54.119-182.086c0.637-2.558,2.364-3.933,4.983-3.933
				c2.616,0,4.343,1.375,4.994,3.976l54.094,181.998c0.463,1.85,0.308,3.255-0.447,4.223c-0.707,0.902-1.874,1.362-3.469,1.362
				h-10.128c-2.616,0-4.344-1.376-4.994-3.977l-6.513-22.499l-24.126,24.611v32.494H234.423z M234.423,267.862v-26.564h-19.244
				l-1.549,5.352L234.423,267.862z M253.134,267.102l20.541-20.953l-1.404-4.851h-19.137V267.102z M267.415,223.785l-14.28-49.753
				v49.753H267.415z M234.423,223.785v-50.128l-14.388,50.128H234.423z"/>
			<path fill="#FFFFFF" d="M243.726,94.478c2.132,0,3.464,1.066,3.998,3.199l54.105,182.04c0.711,2.844-0.266,4.266-2.932,4.266
				h-10.128c-2.132,0-3.465-1.067-3.998-3.198l-7.013-24.225l-25.651,26.167v31.886h-16.658v-31.128l-25.904-26.425l-6.868,23.725
				c-0.533,2.131-1.865,3.198-3.997,3.198h-10.129c-2.665,0-3.642-1.423-2.932-4.266l54.107-182.04
				C240.26,95.544,241.593,94.478,243.726,94.478 M218.671,224.813h16.779v-58.457L218.671,224.813 M252.107,224.813h16.671
				l-16.671-58.081V224.813 M252.107,269.616l22.722-23.178l-1.785-6.168h-20.936L252.107,269.616 M235.45,270.378v-30.107h-21.043
				l-1.93,6.67L235.45,270.378 M243.726,92.423c-3.082,0-5.203,1.671-5.979,4.708l-54.094,182.001l-0.013,0.044l-0.012,0.043
				c-0.532,2.128-0.314,3.831,0.646,5.06c0.912,1.167,2.351,1.759,4.279,1.759h10.129c3.083,0,5.206-1.676,5.981-4.716l5.88-20.311
				l22.854,23.313v30.288v2.055h2.054h16.658h2.055v-2.055v-31.048l22.601-23.055l6.025,20.813c0.774,3.04,2.897,4.716,5.981,4.716
				h10.128c1.928,0,3.368-0.592,4.279-1.759c0.96-1.229,1.177-2.932,0.646-5.06l-0.011-0.043l-0.013-0.044L249.705,97.13
				C248.928,94.095,246.806,92.423,243.726,92.423L243.726,92.423z M221.397,222.758l11.998-41.799v41.799H221.397L221.397,222.758z
				 M254.162,222.758v-41.423l11.89,41.423H254.162L254.162,222.758z M254.162,242.325h17.337l1.022,3.532l-18.36,18.728
				L254.162,242.325L254.162,242.325z M215.951,242.325h17.445v23.021l-18.613-18.987L215.951,242.325L215.951,242.325z"/>
		</g>
	</g>
	<g>
		<g>
			<path fill="#374C5F" d="M597.749,285.115c-3.575,0-5.545-1.971-5.545-5.547V102.528c0-3.577,1.97-5.546,5.545-5.546h13.026
				c3.575,0,5.546,1.969,5.546,5.546v177.041c0,3.576-1.971,5.547-5.546,5.547H597.749L597.749,285.115z"/>
			<path fill="#FFFFFF" d="M610.774,98.009c3.013,0,4.519,1.506,4.519,4.519v177.041c0,3.014-1.507,4.52-4.519,4.52h-13.025
				c-3.012,0-4.518-1.508-4.518-4.52V102.528c0-3.013,1.507-4.519,4.518-4.519H610.774 M610.774,95.955h-13.025
				c-4.177,0-6.572,2.396-6.572,6.573v177.041c0,4.178,2.396,6.574,6.572,6.574h13.026c4.178,0,6.573-2.396,6.573-6.574V102.528
				C617.349,98.35,614.953,95.955,610.774,95.955L610.774,95.955z"/>
		</g>
	</g>
	<g>
		<path fill="#374C5F" d="M705.302,284.285c-3.017,0-4.523-1.508-4.523-4.521V102.555c0-3.016,1.508-4.523,4.523-4.523h73.171
			c3.015,0,4.522,1.508,4.522,4.523v11.974c0,3.016-1.509,4.524-4.522,4.524h-55.61v59.068h46.563c3.016,0,4.522,1.508,4.522,4.524
			v11.973c0,3.017-1.508,4.523-4.522,4.523h-46.563v64.124h55.61c3.015,0,4.522,1.509,4.522,4.523v11.975
			c0,3.015-1.509,4.521-4.522,4.521H705.302z"/>
	</g>
</g>
</svg>
