<?xml version="1.0" encoding="utf-8"?>
<!-- Generator: Adobe Illustrator 14.0.0, SVG Export Plug-In . SVG Version: 6.00 Build 43363)  -->
<!DOCTYPE svg PUBLIC "-//W3C//DTD SVG 1.1//EN" "http://www.w3.org/Graphics/SVG/1.1/DTD/svg11.dtd">
<svg version="1.1" id="Layer_1" xmlns="http://www.w3.org/2000/svg" xmlns:xlink="http://www.w3.org/1999/xlink" x="0px" y="0px"
	 width="1200px" height="1002.1px" viewBox="0 0 1200 1002.1" enable-background="new 0 0 1200 1002.1" xml:space="preserve">
<g>
	<path fill="#FFFFFF" d="M603.6,990.7c-96.3,0-189.4-28.2-269.3-81.5c-77.2-51.5-138-123.5-175.8-208.2c-6.6,1.2-13.1,1.8-19.4,1.8
		c-22.9,0-43.6-7.6-61.5-22.6c-22.3-18.7-40.1-48.9-53-89.9c-17.4-55.1-15.4-103.2,6-142.8c16.8-31.2,42.7-51.1,61.5-62.3
		c16.9-10.1,30.9-15,35.6-16.5c30.4-101.1,71.8-149.2,88.5-165.4c6.8-8.9,14-17.7,21.4-26.2c0.9-20.3,7.4-36.4,19.3-48
		c12.6-12.2,30-18.4,51.7-18.5c41.4-31.7,87.2-56.3,136.2-73.3c51-17.7,104.5-26.6,158.9-26.6c53.6,0,106.3,8.7,156.6,25.8
		c48.3,16.4,93.6,40.4,134.6,71.1c0.9,0,1.8,0,2.7,0c22.7,0,40.5,6.6,52.9,19.5c11.6,12,17.8,28.5,18.4,48.9
		c8.6,9.8,17,20.1,24.8,30.6c19.5,20.5,56,68.4,83.7,160.6c4.6,1.5,18.7,6.4,35.6,16.5c18.8,11.2,44.7,31,61.5,62.3
		c21.3,39.6,23.3,87.7,6,142.8c-12.9,40.9-30.7,71.2-53,89.9c-17.9,15-38.6,22.6-61.5,22.6c0,0,0,0,0,0c-5.5,0-11.1-0.4-16.8-1.3
		c-37.7,85-98.4,157.2-175.8,208.9C793.3,962.4,700.1,990.7,603.6,990.7L603.6,990.7z"/>
	<path fill="#FFFFFF" d="M603.6,13.9c108.9,0,209.3,36.1,290.2,97c1.2,0,2.4-0.1,3.6-0.1c19.9,0,37.9,5.2,50.8,18.6
		c12.2,12.7,17.2,29.5,17.6,48c8.9,10.1,17.4,20.5,25.5,31.3c19.7,20.6,56.1,68.5,83.6,161c0,0,157.2,44.8,102.5,218.2
		c-28,88.7-73.6,110.4-111.6,110.4c-6.5,0-12.7-0.6-18.6-1.7c-75,171.3-245.5,291-443.7,291c-197.9,0-368-119.2-443.3-290
		c-6.6,1.3-13.8,2.1-21.2,2.1c-37.9,0-83.6-21.7-111.6-110.4C-27.1,416,130,371.2,130,371.2c29.9-100.5,70.3-148.3,88.3-165.8
		c7-9.3,14.4-18.3,22.1-27c0.7-18.4,6-34.9,18.4-47c13.1-12.8,30.7-17.7,50-17.7c0.2,0,0.4,0,0.6,0C391.1,51.1,493,13.9,603.6,13.9
		 M603.6,7.9c-54.8,0-108.6,9-159.9,26.8c-49,17-94.8,41.6-136.2,73.1c-22.1,0.3-39.9,6.8-52.8,19.4c-12.2,11.9-19,28.3-20.1,48.9
		c-7.1,8.2-14.1,16.7-20.7,25.4c-9.6,9.3-24.3,26-40.3,52.6c-19.1,31.6-35.3,69.4-48.3,112.4c-5.9,2-19.1,7-34.7,16.3
		c-19.1,11.4-45.5,31.6-62.6,63.4c-21.7,40.4-23.8,89.2-6.2,145.1c13.1,41.5,31.2,72.2,53.9,91.3c18.4,15.5,39.8,23.3,63.4,23.3
		c5.8,0,11.7-0.5,17.6-1.4c18.7,41.3,42.9,79.8,72.2,114.5c30.1,35.7,65,67,103.7,92.8c80.4,53.6,174.1,82,271,82
		c97.1,0,190.9-28.4,271.4-82.2c38.8-25.9,73.7-57.3,103.8-93.1c29.3-34.9,53.5-73.5,72.1-115c5,0.7,10.1,1,14.9,1
		c23.6,0,45-7.8,63.4-23.3c22.7-19.1,40.8-49.8,53.9-91.3c17.6-55.9,15.5-104.8-6.2-145.1c-17.1-31.8-43.5-52.1-62.6-63.4
		c-15.6-9.3-28.8-14.3-34.7-16.3c-27.8-91.6-64.3-139.5-83.9-160.1c-7.6-10.2-15.8-20.2-24.2-29.8c-0.8-20.7-7.3-37.4-19.2-49.8
		c-13-13.5-31.6-20.4-55.1-20.4c-0.6,0-1.1,0-1.7,0c-41.1-30.6-86.4-54.5-134.6-71C710.5,16.6,657.5,7.9,603.6,7.9L603.6,7.9z"/>
</g>
<g>
	<g>
		
			<ellipse transform="matrix(0.2079 -0.9781 0.9781 0.2079 682.1566 2516.313)" fill-rule="evenodd" clip-rule="evenodd" cx="1894.8" cy="837" rx="32.1" ry="16.8"/>
		
			<ellipse transform="matrix(-0.2079 -0.9781 0.9781 -0.2079 1671.5952 3027.5642)" fill-rule="evenodd" clip-rule="evenodd" cx="2061.6" cy="837" rx="32.1" ry="16.8"/>
		<path fill-rule="evenodd" clip-rule="evenodd" d="M2323.2,300.5c-54.7-56.6-199.5,34.4-206.4,38.8
			c-42.6-16.5-88.9-25.6-137.3-25.6c-50.8,0-99.3,10-143.6,28.1c-12.1-7.8-146.8-92.7-202.1-39.2c-44.4,42.9,2.1,141.4,26.2,185.1
			c-38.4,59.4-60.8,130.2-60.8,206.2c0,210,170.2,380.2,380.2,380.2c210,0,380.2-170.2,380.2-380.2c0-78-23.5-150.6-63.8-210.9
			C2319.8,440.9,2366.3,345.1,2323.2,300.5z M1979.1,987c-132,0-238.9-63.5-238.9-141.8c0-78.3,107-141.8,238.9-141.8
			c132,0,238.9,63.5,238.9,141.8C2218,923.5,2111,987,1979.1,987z"/>
		<path fill-rule="evenodd" clip-rule="evenodd" d="M1624.9,449.3c0,0-15.5-27.1-22.2-81.2c0,0-58,40.6-97.6,173
			c0,0-157.2,44.6-102.5,217.2c54.6,172.6,177,90.2,177,90.2S1485.7,659.1,1624.9,449.3z"/>
		<path fill-rule="evenodd" clip-rule="evenodd" d="M2449.9,539.7c-39.6-132.4-97.6-173-97.6-173c-6.8,54.1-22.2,81.2-22.2,81.2
			c139.2,209.8,45.4,399.2,45.4,399.2s122.3,82.3,177-90.2C2607.1,584.4,2449.9,539.7,2449.9,539.7z"/>
		<path fill-rule="evenodd" clip-rule="evenodd" d="M1789.7,306c0.2,0.1,17.3-8.2,17.4-8.1c0,0,67.1-31.7,168.2-36.2
			c101.1,4.5,168.2,36.2,168.2,36.2c0.2-0.1,17.3,8.2,17.4,8.1c39.5-32,78.1-30.6,78.1-30.6c-110.2-76.9-233.4-79.5-263.7-78.9
			c-30.4-0.6-153.5,1.9-263.7,78.9C1711.6,275.4,1750.2,274.1,1789.7,306z"/>
	</g>
	<g>
		<path fill-rule="evenodd" clip-rule="evenodd" fill="#FFFFFF" d="M2079.4,522.4c23.3,0,42.1,26.8,42.1,59.9
			c0,33.1-18.9,59.9-42.1,59.9c-23.3,0-42.1-26.8-42.1-59.9C2037.3,549.2,2056.2,522.4,2079.4,522.4z"/>
		<path fill-rule="evenodd" clip-rule="evenodd" fill="#FFFFFF" d="M2059.7,440.3l73.9,26.8c0,0,15.3,4.9,9.8-5.5
			c-5.5-10.4-13.1-41.6-71.1-58.6c0,0-13.1-2.2-20.2,16.4C2045,438.1,2059.2,437,2059.7,440.3z"/>
	</g>
	<g>
		<path fill-rule="evenodd" clip-rule="evenodd" fill="#FFFFFF" d="M1926.7,581.6c0,33.1-18.9,59.9-42.1,59.9
			c-23.3,0-42.1-26.8-42.1-59.9c0-33.1,18.9-59.9,42.1-59.9C1907.8,521.7,1926.7,548.5,1926.7,581.6z"/>
		<path fill-rule="evenodd" clip-rule="evenodd" fill="#FFFFFF" d="M1911.9,418.8c-7.1-18.6-20.2-16.4-20.2-16.4
			c-58,17-65.7,48.2-71.1,58.6c-5.5,10.4,9.8,5.5,9.8,5.5l73.9-26.8C1904.8,436.3,1919,437.4,1911.9,418.8z"/>
	</g>
</g>
<linearGradient id="SVGID_1_" gradientUnits="userSpaceOnUse" x1="603.5879" y1="984.6816" x2="603.5878" y2="15.604">
	<stop  offset="0" style="stop-color:#00FFFF"/>
	<stop  offset="1" style="stop-color:#0051FF"/>
</linearGradient>
<circle fill="url(#SVGID_1_)" stroke="#202327" stroke-width="6.9296" cx="603.6" cy="500.1" r="484.5"/>
<ellipse fill-rule="evenodd" clip-rule="evenodd" fill="#FFFFFF" cx="514.7" cy="416" rx="68.3" ry="79.7"/>
<ellipse fill-rule="evenodd" clip-rule="evenodd" fill="#FFFFFF" cx="704" cy="411.3" rx="68.3" ry="79.7"/>
<ellipse fill="#FFFFFF" cx="599.8" cy="681" rx="270.1" ry="178.9"/>
<ellipse fill-rule="evenodd" clip-rule="evenodd" fill="#FFFFFF" cx="492" cy="267" rx="79" ry="59"/>
<ellipse fill-rule="evenodd" clip-rule="evenodd" fill="#FFFFFF" cx="719" cy="270" rx="79" ry="59"/>
<g>
	<g>
		<linearGradient id="SVGID_2_" gradientUnits="userSpaceOnUse" x1="604.5127" y1="114.5464" x2="604.5126" y2="901.5825">
			<stop  offset="0" style="stop-color:#FF4B7C"/>
			<stop  offset="1" style="stop-color:#7E10BA"/>
		</linearGradient>
		<path fill-rule="evenodd" clip-rule="evenodd" fill="url(#SVGID_2_)" d="M604.5,901.6c-51,0-100.4-10-147-29.7
			c-45-19-85.4-46.3-120.1-80.9s-61.9-75.1-80.9-120.1c-19.7-46.6-29.7-96-29.7-147c0-73,20.9-143.8,60.4-204.9l0.8-1.3l-0.7-1.3
			c-22.5-40.7-70.2-140-26.7-182.1c11.6-11.2,27.8-16.9,48.3-16.9c61.6,0,141.8,50.6,150.7,56.4l1.1,0.7l1.2-0.5
			c45.3-18.5,93.3-27.9,142.6-27.9c47,0,92.9,8.6,136.4,25.4l1.2,0.5l1.1-0.7c3.7-2.3,90.1-56.9,154.3-56.9c21.1,0,37.6,6,49,17.7
			c42.2,43.6-5.4,140-27.8,179.5l-0.8,1.3l0.9,1.3c41.5,62.1,63.4,134.6,63.4,209.5c0,51-10,100.5-29.7,147
			c-19,45-46.3,85.4-80.9,120.1s-75.1,61.9-120.1,80.9C705,891.6,655.5,901.6,604.5,901.6L604.5,901.6z M604.1,530.9
			c-64.3,0-124.7,14.9-170.2,41.9c-45.9,27.2-71.2,63.6-71.2,102.4s25.3,75.2,71.2,102.4c45.5,27,106,41.9,170.2,41.9
			c64.3,0,124.7-14.9,170.2-41.9c45.9-27.2,71.2-63.6,71.2-102.4s-25.3-75.2-71.2-102.4C728.8,545.8,668.4,530.9,604.1,530.9
			L604.1,530.9z M704.4,349.9c-24.6,0-44.6,28-44.6,62.4s20,62.4,44.6,62.4c24.6,0,44.6-28,44.6-62.4S729,349.9,704.4,349.9
			L704.4,349.9z M509.5,349.2c-24.6,0-44.6,28-44.6,62.4c0,34.4,20,62.4,44.6,62.4s44.6-28,44.6-62.4
			C554.2,377.2,534.1,349.2,509.5,349.2L509.5,349.2z M682.5,272.2l75.2,27.3c0.3,0.1,4.1,1.3,7.6,1.3c3,0,5-0.9,6.1-2.7
			c1.7-2.9-0.1-6.4-0.8-7.6c-0.6-1.1-1.2-2.5-1.9-4.1c-5.9-13.1-18.1-40.3-70.7-55.7l-0.1,0l-0.1,0c-0.1,0-0.7-0.1-1.7-0.1
			c-4.3,0-15,1.8-21.3,18.1c-6,15.7,2.2,19.8,6.1,21.8c0.5,0.2,1.1,0.6,1.5,0.8L682.5,272.2z M517.9,229.8c-1,0-1.6,0.1-1.7,0.1
			l-0.1,0l-0.1,0c-52.6,15.4-64.8,42.6-70.7,55.7c-0.7,1.6-1.3,3-1.9,4.1c-0.6,1.2-2.5,4.7-0.8,7.6c1.1,1.8,3.1,2.7,6.1,2.7
			c3.4,0,7.3-1.2,7.5-1.3l75.3-27.3l0.2-1c0.3-0.2,1-0.5,1.5-0.8c3.9-2,12.2-6,6.1-21.8C533,231.6,522.3,229.8,517.9,229.8
			L517.9,229.8z"/>
		<path fill="#202327" d="M897.5,117c20.4,0,36.3,5.7,47.2,17c41,42.4-6,137.6-28.1,176.5l-1.5,2.7l1.7,2.6
			c41.2,61.7,63,133.7,63,208.1c0,50.7-9.9,99.8-29.5,146c-18.9,44.7-45.9,84.8-80.4,119.3c-34.5,34.5-74.6,61.5-119.3,80.4
			c-46.3,19.6-95.4,29.5-146,29.5c-50.7,0-99.8-9.9-146-29.5c-44.7-18.9-84.8-45.9-119.3-80.4c-34.5-34.5-61.5-74.6-80.4-119.3
			c-19.6-46.3-29.5-95.4-29.5-146c0-72.5,20.7-142.9,60-203.5l1.6-2.5l-1.5-2.6c-22.2-40.2-69.4-138.2-27.1-179
			c11.1-10.7,26.8-16.2,46.6-16.2c60.8,0,140.5,50.3,149.3,56l2.2,1.4l2.4-1c45-18.4,92.7-27.7,141.7-27.7
			c46.7,0,92.3,8.5,135.5,25.2l2.4,0.9l2.1-1.4C748.1,171.2,834,117,897.5,117 M448.6,302.6c3.8,0,7.8-1.3,8.3-1.4l0.1,0l0.1,0
			l73.9-26.8l2.7-1l0.2-1.2c0.1-0.1,0.2-0.1,0.3-0.1c4.2-2.1,14.2-7.1,7.4-24.9c-7-18.3-19.8-19.7-23.6-19.7c-1.1,0-1.9,0.1-2.1,0.1
			l-0.3,0l-0.3,0.1c-53.7,15.7-66.3,43.6-72.3,57.1c-0.7,1.6-1.3,2.9-1.9,3.9c-2.1,4-2.3,7.4-0.7,10.1
			C441.5,300.5,443.8,302.6,448.6,302.6 M680.1,272.8l0.2,1.2l2.7,1l73.9,26.8l0.1,0l0.1,0c0.4,0.1,4.5,1.4,8.3,1.4
			c4.9,0,7.2-2.1,8.2-3.9c1.6-2.7,1.4-6.1-0.7-10.1c-0.5-1-1.1-2.4-1.9-3.9c-6-13.4-18.6-41.4-72.3-57.1l-0.3-0.1l-0.3,0
			c-0.2,0-1-0.1-2.1-0.1c-3.8,0-16.6,1.4-23.6,19.7c-6.8,17.8,3.1,22.8,7.4,24.9C679.9,272.7,680,272.7,680.1,272.8 M509.5,476.5
			c12.9,0,25-7,33.9-19.7c8.5-12.2,13.3-28.2,13.3-45.2c0-17-4.7-33.1-13.3-45.2c-8.9-12.7-21-19.7-33.9-19.7
			c-12.9,0-25,7-33.9,19.7c-8.5,12.2-13.3,28.2-13.3,45.2c0,17,4.7,33.1,13.3,45.2C484.6,469.6,496.6,476.5,509.5,476.5
			 M704.4,477.3c12.9,0,25-7,33.9-19.7c8.5-12.2,13.3-28.2,13.3-45.2c0-17-4.7-33.1-13.3-45.2c-8.9-12.7-21-19.7-33.9-19.7
			c-12.9,0-25,7-33.9,19.7c-8.5,12.2-13.3,28.2-13.3,45.2c0,17,4.7,33.1,13.3,45.2C679.5,470.3,691.5,477.3,704.4,477.3 M604.1,822
			c64.7,0,125.6-15,171.5-42.2C822.3,752,848,714.9,848,675.2s-25.7-76.8-72.4-104.6c-45.9-27.2-106.8-42.2-171.5-42.2
			c-64.7,0-125.6,15-171.5,42.2c-46.7,27.7-72.4,64.8-72.4,104.6s25.7,76.8,72.4,104.6C478.5,807,539.4,822,604.1,822 M897.5,112
			c-64.6,0-150.4,53.9-155.6,57.3c-42.6-16.5-88.9-25.6-137.3-25.6c-50.8,0-99.3,10-143.6,28.1c-9.3-6-89.8-56.8-152-56.8
			c-19.3,0-36.9,4.9-50,17.6c-44.4,42.9,2.1,141.4,26.2,185.1c-38.4,59.4-60.8,130.2-60.8,206.2c0,210,170.2,380.2,380.2,380.2
			c210,0,380.2-170.2,380.2-380.2c0-78-23.5-150.6-63.8-210.9c23.9-42.1,70.4-137.9,27.4-182.5C935.3,117.2,917.4,112,897.5,112
			L897.5,112z M448.6,297.6c-3.3,0-5.9-1.3-3.1-6.6c5.5-10.4,13.1-41.6,71.1-58.6c0,0,0.5-0.1,1.3-0.1c3.5,0,13.2,1.4,18.9,16.5
			c7.1,18.6-7.1,17.5-7.7,20.8l-73.9,26.8C455.3,296.4,451.7,297.6,448.6,297.6L448.6,297.6z M765.3,298.3c-3.1,0-6.7-1.2-6.7-1.2
			l-73.9-26.8c-0.5-3.3-14.8-2.2-7.7-20.8c5.8-15.1,15.5-16.5,19-16.5c0.8,0,1.3,0.1,1.3,0.1c58,17,65.7,48.2,71.1,58.6
			C771.3,297,768.6,298.3,765.3,298.3L765.3,298.3z M509.5,471.5c-23.3,0-42.1-26.8-42.1-59.9c0-33.1,18.9-59.9,42.1-59.9
			c23.3,0,42.1,26.8,42.1,59.9C551.7,444.7,532.8,471.5,509.5,471.5L509.5,471.5z M704.4,472.3c-23.3,0-42.1-26.8-42.1-59.9
			c0-33.1,18.9-59.9,42.1-59.9c23.3,0,42.1,26.8,42.1,59.9C746.6,445.4,727.7,472.3,704.4,472.3L704.4,472.3z M604.1,817
			c-132,0-238.9-63.5-238.9-141.8c0-78.3,107-141.8,238.9-141.8c132,0,238.9,63.5,238.9,141.8C843,753.5,736,817,604.1,817
			L604.1,817z"/>
	</g>
	<g>
		<path fill-rule="evenodd" clip-rule="evenodd" fill="#7E10BA" d="M515,696.1c-0.5,0-0.9,0-1.4-0.1c-3.4-0.7-6.2-4.3-7.8-9.9
			c-1.7-6.2-1.7-14,0-22c3.5-16.4,12.3-26.1,18.8-26.1c0.5,0,0.9,0,1.4,0.1c3.4,0.7,6.2,4.3,7.8,9.9c1.7,6.2,1.7,14,0,22
			C530.2,686.3,521.5,696.1,515,696.1C515,696.1,515,696.1,515,696.1z"/>
		<path fill="#202327" d="M524.6,640.4c0.3,0,0.6,0,0.8,0.1c2.4,0.5,4.6,3.5,5.9,8.1c1.6,5.7,1.6,13.3,0,20.9
			c-3.1,14.5-10.9,24.2-16.3,24.2c-0.3,0-0.6,0-0.8-0.1c-2.4-0.5-4.6-3.5-5.9-8.1c-1.6-5.7-1.6-13.3,0-20.9
			C511.3,650.1,519.2,640.4,524.6,640.4 M524.6,635.4c-8.6,0-17.8,12-21.2,28.1c-3.7,17.4,0.7,33,9.7,34.9c0.6,0.1,1.2,0.2,1.9,0.2
			c8.6,0,17.8-12,21.2-28.1c3.7-17.3-0.7-33-9.7-34.9C525.8,635.4,525.2,635.4,524.6,635.4L524.6,635.4z"/>
	</g>
	<g>
		<path fill-rule="evenodd" clip-rule="evenodd" fill="#7E10BA" d="M691.4,696.1c-6.5,0-15.3-9.8-18.8-26.1c-1.7-8-1.7-15.8,0-22
			c1.6-5.6,4.4-9.2,7.8-9.9c0.4-0.1,0.9-0.1,1.4-0.1c6.5,0,15.3,9.8,18.8,26.1c1.7,8,1.7,15.8,0,22c-1.6,5.6-4.4,9.2-7.8,9.9
			C692.4,696,691.9,696.1,691.4,696.1L691.4,696.1z"/>
		<path fill="#202327" d="M681.8,640.4c5.4,0,13.3,9.7,16.3,24.2c1.6,7.5,1.6,15.1,0,20.9c-1.3,4.6-3.5,7.6-5.9,8.1
			c-0.3,0.1-0.5,0.1-0.8,0.1c-5.4,0-13.3-9.7-16.3-24.2c-1.6-7.5-1.6-15.1,0-20.9c1.3-4.6,3.5-7.6,5.9-8.1
			C681.3,640.4,681.6,640.4,681.8,640.4 M681.8,635.4c-0.6,0-1.3,0.1-1.9,0.2c-9.1,1.9-13.4,17.6-9.7,34.9
			c3.4,16.2,12.6,28.1,21.2,28.1c0.6,0,1.3-0.1,1.9-0.2c9.1-1.9,13.4-17.6,9.7-34.9C699.6,647.3,690.4,635.4,681.8,635.4
			L681.8,635.4z"/>
	</g>
	<g>
		<linearGradient id="SVGID_3_" gradientUnits="userSpaceOnUse" x1="132.7329" y1="202.8691" x2="132.7329" y2="695.7173">
			<stop  offset="0" style="stop-color:#FF4B7C"/>
			<stop  offset="1" style="stop-color:#7E10BA"/>
		</linearGradient>
		<path fill-rule="evenodd" clip-rule="evenodd" fill="url(#SVGID_3_)" d="M139.1,695.7c-21.6,0-41.1-7.1-57.9-21.2
			c-21.4-17.9-38.7-47.1-51.3-86.9C13,534.3,14.8,488,35.3,450c31-57.6,94.8-76.2,95.4-76.4l1.3-0.4l0.4-1.3
			c33.5-112,80.5-158.1,93.3-169c6.2,45.1,18.1,70.3,21.2,76.3c-71.5,108.5-80,211.3-74.5,278.6c5.3,64.7,24.3,109.9,28.8,119.8
			C194.5,681.8,169.1,695.7,139.1,695.7C139.1,695.7,139.1,695.7,139.1,695.7z"/>
		<path fill="#202327" d="M224,207.8c6,39.9,16.3,63.5,20.2,71.2c-71.2,108.6-79.6,211.6-74.1,279c5.1,62.2,22.2,105.4,28.1,118.6
			c-8.7,5-31.8,16.6-59,16.6c-21,0-39.9-6.9-56.3-20.7c-21.1-17.6-38.1-46.4-50.5-85.7c-16.6-52.6-14.9-98.2,5.2-135.6
			c15.8-29.5,40.5-48.4,58.3-59c19.5-11.6,35.5-16.3,35.6-16.3l2.6-0.7l0.8-2.6c20.2-67.3,45.1-110.1,62.5-134.1
			C208.5,223.2,218,213.3,224,207.8 M227.7,198.1c0,0-58,40.6-97.6,173c0,0-157.2,44.6-102.5,217.2c28,88.3,73.6,109.9,111.6,109.9
			c36.2,0,65.4-19.6,65.4-19.6s-93.8-189.5,45.4-399.2C249.9,279.3,234.4,252.3,227.7,198.1L227.7,198.1z"/>
	</g>
	<g>
		<linearGradient id="SVGID_4_" gradientUnits="userSpaceOnUse" x1="1072.2324" y1="201.4214" x2="1072.2324" y2="694.2788">
			<stop  offset="0" style="stop-color:#FF4B7C"/>
			<stop  offset="1" style="stop-color:#7E10BA"/>
		</linearGradient>
		<path fill-rule="evenodd" clip-rule="evenodd" fill="url(#SVGID_4_)" d="M1065.9,694.3c-30,0-55.4-14-62.2-18.1
			c4.5-9.9,23.5-55.1,28.8-119.8c5.5-67.3-3-170.1-74.5-278.6c3.1-6,15-31.2,21.2-76.4c5.3,4.5,16.6,15.1,30.2,33.9
			c17.6,24.2,42.8,67.3,63.1,135.1l0.4,1.3l1.3,0.4c0.6,0.2,64.5,18.9,95.4,76.5c20.4,38,22.3,84.3,5.4,137.5
			c-12.6,39.7-29.8,69-51.3,86.9C1106.9,687.1,1087.5,694.3,1065.9,694.3C1065.9,694.3,1065.9,694.3,1065.9,694.3z"/>
		<path fill="#202327" d="M981,206.4c6,5.5,15.5,15.3,26.6,30.7c17.4,24,42.4,66.8,62.5,134.1l0.8,2.6l2.6,0.8
			c0.2,0,16.1,4.7,35.6,16.3c17.9,10.6,42.5,29.5,58.3,59c20.1,37.4,21.8,83,5.2,135.6c-12.4,39.3-29.4,68.1-50.5,85.7
			c-16.4,13.7-35.4,20.6-56.3,20.6c-27,0-50.3-11.6-59-16.6c5.8-13.2,23-56.4,28.1-118.6c5.5-67.4-2.9-170.3-74.1-279
			C964.7,269.9,975,246.3,981,206.4 M977.3,196.7c-6.8,54.1-22.2,81.2-22.2,81.2c139.2,209.8,45.4,399.2,45.4,399.2
			s29.2,19.6,65.4,19.6c38,0,83.6-21.5,111.6-109.9c54.6-172.6-102.5-217.2-102.5-217.2C1035.3,237.3,977.3,196.7,977.3,196.7
			L977.3,196.7z"/>
	</g>
	<g>
		<path fill-rule="evenodd" clip-rule="evenodd" fill="#FF4B7C" d="M785.5,133.2c-1.7-0.8-4.8-2.3-7.3-3.4c-5.9-2.8-7.9-3.8-8.9-4.1
			c-3.7-1.7-70.9-31.9-169-36.3l-0.1,0l-0.1,0c-98.1,4.4-165.2,34.6-169,36.3c-0.9,0.3-2.9,1.3-8.9,4.1c-2.6,1.2-5.6,2.7-7.2,3.4
			c-29.2-23.2-57.5-28.7-70.9-29.9c42.9-28.7,91.9-49.6,146-62c46.5-10.7,85-12.3,103.7-12.3c2.2,0,4.3,0,6.4,0.1h0.1
			c2,0,4.2-0.1,6.4-0.1c18.8,0,57.2,1.6,103.7,12.3c54.1,12.4,103.2,33.3,146,62C843.1,104.5,814.8,110,785.5,133.2L785.5,133.2z"/>
		<path fill="#202327" d="M593.9,31.5c2.2,0,4.3,0,6.3,0.1l0.1,0l0.1,0c2,0,4.1-0.1,6.3-0.1c18.7,0,56.9,1.6,103.2,12.2
			c51.4,11.8,98.3,31.3,139.5,57.9c-15,2.4-39.3,9.2-64.3,28.6c-1.7-0.8-4-1.9-5.9-2.8c-5.2-2.5-7.6-3.6-8.8-4.1
			c-1.8-0.8-18.4-8.4-46.8-16.6c-27.1-7.8-70.5-17.6-123.2-20l-0.2,0l-0.2,0c-52.7,2.4-96.1,12.2-123.2,20
			c-28.4,8.2-45,15.8-46.8,16.6c-1.3,0.5-3.6,1.6-8.9,4.1c-1.9,0.9-4.1,2-5.8,2.8c-25-19.5-49.3-26.3-64.3-28.6
			c41.2-26.7,88.1-46.1,139.6-57.9C537,33.1,575.2,31.5,593.9,31.5 M606.8,26.5c-2.5,0-4.6,0-6.4,0.1c-1.8,0-4-0.1-6.4-0.1
			c-38.6,0-153.7,6.6-257.3,78.9c0,0,0.2,0,0.6,0c5.2,0,41,1.1,77.5,30.7c0,0,0,0,0,0c0.4,0,17-8.1,17.4-8.1c0,0,0,0,0,0
			c0,0,67.1-31.7,168.2-36.2C701.4,96.3,768.5,128,768.5,128c0,0,0,0,0,0c0.4,0,17,8.1,17.4,8.1c0,0,0,0,0,0
			c36.5-29.5,72.2-30.7,77.5-30.7c0.4,0,0.6,0,0.6,0C760.5,33.1,645.4,26.5,606.8,26.5L606.8,26.5z"/>
	</g>
</g>
</svg>
