<svg xmlns="http://www.w3.org/2000/svg" xmlns:xlink="http://www.w3.org/1999/xlink" version="1.1" x="0px" y="0px" viewBox="0 0 1000 1250" enable-background="new 0 0 1000 1000" xml:space="preserve"><path d="M654,301.9H346.6c-51,0-92.6,41.5-92.6,92.6v210.5c0,51,41.5,92.6,92.6,92.6H654c51,0,92.6-41.5,92.6-92.6V394.4  C746.6,343.4,705.1,301.9,654,301.9z M558.5,568.3c0,5.7-4.7,10.4-10.4,10.4h-95.6c-5.7,0-10.4-4.7-10.4-10.4v-44v-49.2v-44  c0-5.7,4.7-10.4,10.4-10.4l95.6,0c5.7,0,10.4,4.6,10.4,10.4v44v49.2V568.3z M420.4,431v44c0,7.4-4.8,13.7-10.4,13.7H275.8v-94.3  c0-0.6,0.1-1.1,0.1-1.7H410c5.6,0,10.4,6.3,10.4,13.7V431z M275.8,604.9v-94.3H410c5.6,0,10.4,6.3,10.4,13.7v44v24.6  c0,7.4-4.8,13.7-10.4,13.7H275.9C275.9,606,275.8,605.5,275.8,604.9z M724.8,394.4v94.3H590.6c-5.6,0-10.4-6.3-10.4-13.7v-44v-24.6  c0-7.4,4.8-13.7,10.4-13.7h134.1C724.7,393.3,724.8,393.9,724.8,394.4z M580.3,568.3v-44c0-7.4,4.8-13.7,10.4-13.7h134.1v94.3  c0,0.6-0.1,1.1-0.1,1.7H590.6c-5.6,0-10.4-6.3-10.4-13.7V568.3z M346.6,323.7H654c30.8,0,57,19.8,66.7,47.3H590.6  c-16,0-29.2,13-31.7,29.9c-3.4-1.2-7-2-10.9-2l-95.6,0c-3.8,0-7.5,0.8-10.9,2C439.2,384,426,371,410,371H279.9  C289.6,343.5,315.8,323.7,346.6,323.7z M654,675.7H346.6c-30.8,0-57-19.8-66.7-47.3H410c16,0,29.2-13,31.7-29.9c3.4,1.2,7,2,10.9,2  h95.6c3.8,0,7.5-0.8,10.9-2c2.4,16.9,15.6,29.9,31.7,29.9h130.1C711,655.9,684.8,675.7,654,675.7z"/><text x="0" y="1015" fill="#000000" font-size="5px" font-weight="bold" font-family="'Helvetica Neue', Helvetica, Arial-Unicode, Arial, Sans-serif">Created by Alvaro Cabrera</text><text x="0" y="1020" fill="#000000" font-size="5px" font-weight="bold" font-family="'Helvetica Neue', Helvetica, Arial-Unicode, Arial, Sans-serif">from the Noun Project</text></svg>